<svg width="792" height="208" xmlns="http://www.w3.org/2000/svg"><g fill="none" fill-rule="evenodd"><path d="M1.5 100.5h122m0 0l-10.8-3v6l10.8-3zm109 0h110m0 0l-10.8-3v6l10.8-3zm56 93v-37m0 0l-3 10.8h6l-3-10.8zm64-54h219m0 0l-10.8-3v6l10.8-3z" stroke="#000" fill="#000" stroke-linecap="square"/><path stroke="#000" d="M398.5 13.5h340v182h-340z"/><circle stroke="#000" fill="#FFF" cx="52.5" cy="52.5" r="52.5" transform="translate(127 48)"/><path fill="#FFF" d="M252 89h58v24h-58z"/><text font-family="CourierNewPSMT, Courier New" font-size="16" fill="#000" transform="translate(252 89)"><tspan x=".695" y="15">show()</tspan></text><path fill="#FFF" d="M501 0h136v24H501z"/><text font-family="CourierNewPSMT, Courier New" font-size="16" fill="#000" transform="translate(501)"><tspan x="6.445" y="15">abort()</tspan> <tspan x="73.656" y="15" font-family="Helvetica"> or error</tspan></text><path fill="#FFF" d="M410 184h317v24H410z"/><text font-family="CourierNewPSMT, Courier New" font-size="16" fill="#000" transform="translate(410 184)"><tspan x=".074" y="16">PaymentResponse.prototype.retry()</tspan></text><text font-family="Helvetica" font-size="16" fill="#000"><tspan x="504.316" y="99">User accepts </tspan> <tspan x="491.41" y="118">payment request</tspan></text><g transform="translate(686 19)"><path d="M52.5.5v29m0 0l3-10.8h-6l3 10.8z" stroke="#000" fill="#000" stroke-linecap="square"/><ellipse stroke="#000" fill="#FFF" cx="52.5" cy="83.7" rx="52.5" ry="52.7"/><text font-family="Helvetica" font-size="16" fill="#000"><tspan x="24.195" y="89">&quot;closed&quot;</tspan></text></g><path fill="#FFF" d="M14 91h90v19H14z"/><text font-family="Helvetica" font-size="16" fill="#000" transform="translate(14 91)"><tspan x="3.152" y="15">Constructor</tspan></text><g transform="translate(348 50)"><ellipse stroke="#000" fill="#FFF" cx="52.5" cy="52" rx="52.5" ry="52"/><text font-family="Helvetica" font-size="16" fill="#000"><tspan x="11.359" y="57.5">&quot;interactive&quot;</tspan></text></g></g></svg>