<svg xmlns="http://www.w3.org/2000/svg" width="297mm" height="210mm" version="1.0" viewBox="0 0 29700 21000" shape-rendering="geometricPrecision" text-rendering="geometricPrecision" image-rendering="optimizeQuality" fill-rule="evenodd" clip-rule="evenodd"><defs><style>.fil1{fill:#36353a}.fil25{fill:#37363a}.fil9{fill:#38373c}.fil18{fill:#38383d}.fil23{fill:#7b8489}.fil3{fill:#7d868b}.fil12{fill:#7d878b}.fil14{fill:#7e878c}.fil20{fill:#a6adb1}.fil2{fill:#a7afb2}.fil32{fill:#a9b0b3}.fil34{fill:#aab1b4}.fil0{fill:#c8cccf}.fil11{fill:#c9cdd0}.fil28{fill:#caced0}.fil4{fill:#dfe2e6}.fil5{fill:#e0e4e7}.fil13{fill:#edeff0}.fil35{fill:#fafcfd}.fil10{fill:#fda760}</style></defs><g id="Слой_x0020_1"><path class="fil0" d="M13809 13239c-360 620-842 363-846-56 106 21 234 121 460-7 327-187 433-638 408-999-7-95-30-149-45-231 13 10 5 3 17 16l30 49c203 392 190 860-24 1228zm-4995 1713c39-657-5-1047-190-1681-145-496-406-1108-212-1556 161-368 636-754 1192-716 259 18 523 146 698 260 155 101 410 332 429 507-228 18-402 47-601 122-175 65-314 143-443 271-146 143-214 315-175 536 64 363 307 740 317 1120 6 256-84 378-206 509-65 69-106 119-178 184-126 112-482 418-631 444zm990-4592c547-34 1674 38 2118 385 150 117 254 321 341 499 190 387 343 857 306 1360-26 350-62 397-14 795 44 370 102 439 152 696-80-41-291-375-352-479-215-366-375-771-464-1201-48-234-58-490-112-717-105-446-395-750-730-931-315-169-564-245-911-330-73-18-282-73-334-77zm5007 2260c-124-161-99-723-62-943 95-570 393-1019 621-1520 77-170 203-326 292-510 26-53 53-137 77-180-28 140-46 274-94 416-41 121-97 244-151 358-212 447-482 977-581 1463-29 144-46 294-65 446-18 151-18 320-37 470zm304-228c-44-676 224-1404 602-1918 388-528 1024-1141 1087-1805 31 267 28 398-49 643-56 178-143 355-233 491-256 387-369 354-671 765-344 468-772 1542-698 2157l-38-333zM9389 6910c114-96 459-259 632-324 247-93 551-141 780-2 427 259 419 1070 306 1469-37 130-89 241-165 315-21 20-43 37-74 55-82 45-70 19-75 10-1 0-133-1024-682-1451-224-173-436-186-722-72zm-1145 940c-168 605-349 1458-360 2113-3 203 14 400 9 606-17 675-16 1052 83 1747 51 366 141 660 227 1002 85 336 142 684 202 1031 61 356 130 674 300 932 160 244 381 429 648 589 26-16 26 15-48-93-71-102-120-227-146-353-30-147-38-468 14-598 38 68 76 230 187 305 310 15 736-99 1029-178 761-208 1339-331 2157-267 395 31 713 124 1109 20l-24-10c-142-44-165-19-357-150-344-235-559-590-577-1053-14-342 51-690 40-1046-16-561-159-1252-508-1667-153-182-347-338-624-462-265-118-564-172-883-202-167-17-339-32-509-21-79 5-159 17-234 38-48 14-167 70-193 68 2-63 195-118 273-135 125-26 254-32 385-32 255-1 523 22 765 75 322 70 629 192 868 392 59 49 168 148 213 208 154 201 208 271 318 523 84 194 142 431 182 659 86 492 55 718 19 1182-10 143-4 266-5 403 53 39 95 248 285 355 78 44 119 75 233 88 97 11 201 0 294-22 316-77 446-329 501-612l46-126c56 96 202 205 268 278 19 21 63 84 91 92 75-158 206-343 344-445 23-16 45-29 68-51-25-118-93-153-92-440 0-157 25-326 53-477 129-701 416-1284 754-1887l210-316c-29 107-101 252-145 353-155 359-317 584-477 1028-159 441-336 995-228 1478 14 64 49 145 54 201 120-19 175-30 277 26 2-31-23-229-19-376 3-127 15-251 28-377 24-244 42-470 97-704 109-465 318-768 555-1048 64-76 124-144 184-218l375-426c372-434 453-588 453-1148l10-286c6-58 8-56 61-57-9-24-8-11-1-34-103 32-211 64-293 115-58 62-273 167-374 201-176 59-268 101-448 32-154-59-239-111-432-135-161-19-361-6-486 63-12-7-13 18-8-17-42 52-162 553-180 675-8 52-4 228-17 251-63-189 81-682 134-870-133 32-118 66-340 75-35 1-70 6-96-5-33-14-6 23-22-18l-17 20c-2 2-4 4-5 6l-30 29c-159 147-312 188-325 337 103 386-101 876-258 1142-66 113-215 368-398 322-85-21-140-110-168-195-112-339-439-849-487-1328-51-509 253-477 611-408l280 71c36-12 71-38 100-59l70-47c2-1 5-2 6-4l21-14c-58-4-210-82-281-104-117-38-195-45-322-62l659-295 42-18 734-294c54-19 197-70 240-100 34-5 21-5 35-21l-9-5-42 6c-51 30-177 73-241 98-80 32-168 64-245 98-162 70-325 125-481 198l-55 16-554 250c-67 30-125 65-198 69-163 9-344 39-500 40-167 1-361 25-517 17l-33 20c26 382 142 656 325 968 19 33 55 106 64 91-1-39-55-176-70-231-22-88-37-177-37-271 0-148 71-402 174-440-25 61-57 81-81 167-164 579 625 1465 868 2161 26 76 95 326 5 373-19 15-9-16-14 37l15 300c0 1-2 7-2 6 0-2-1 4-3 5-63-82-60-213-90-327-34-125-76-192-129-293-54-103-67-254-219-416-104-113-169-345-402-644-180-231-223-249-414-418l-2 24c4 171 632 1265 691 1939 5 54 10 115-31 138-7-14-57-282-108-422-47-131-109-234-154-361-233-654-626-1243-660-1936-10-195 17-300 42-476-27-73-267 66-490-393-115-237-165-419-113-721 126-734 435-825-498-948 221-99 356-172 627-213 205-31 368-15 531 102 36 26 86 70 120 83 164-134 155-194 419-309 15-7 21-9 33-16 7-3 13-7 19-11 10-7 12-9 18-14-920-145-1186-121-2021 183-493 179-950 304-1373 620-210 157-440 385-616 577-52 56-335 393-333 459z"/><path class="fil0" d="M16154 6990c21-45 81-80 147-71 65 9 88 52 86 119-63-39-149-40-233-48zm1156 301c6-32 3-20 33-41l121-94c55-50 95-82 144-140 67-80 175-223 194-363 36 341-199 601-492 638zm-2905-826c83 78 25 261 392 367 323 93 446 19 421 158-30 171-441 215-674 17-147-125-243-426-139-542zm3020 232c26-48 69-96 103-152 108-182 140-572 264-429 92 106-32 301-84 365-52 63-185 186-283 216zm912-202c-33 25-78 71-131 85 10-160-2-269-49-409-27-84-132-259-126-325 66 48 296 483 306 649zm-2046-502l7 133c538 170 569-322 1116-160 196 58 112 20 332-80l49-66c-1 114-78 178-156 216-35 57-156 107-216 140-67 36-59 28-57 56 11 55 22 58 16 130 37-34 20-83 56-144 2-2 5-3 6-7 1-5 3-5 5-7 22 466-305 574-738 504 13-32 56-96 91-106-11-15 18-11-25-15-58-9-135 112-172 148-39-40-63-137-58-205-26 36-12 57-30 96-85-40-105-166-132-294l22-2c-46-45-118-30-159-214-50 34-48 81-123 141-43 34-104 75-177 76 9 56 32 51 19 122l-233-60c6 52 18 87-13 125l5 7c-9 64-32 107-70 131-95-50-158-170-217-174-68 50-143 91-259 83 57 54 247 57 333 48-18 37-15 27-55 61-21 18-33 31-61 46-154 81-350 47-471-67-114-108-229-370-243-597 52 18 71 39 114 71 81 60 60 43 73 95l25-119c-37-14-67-27-101-41-45-18-71-20-96-51-91 18-222-60-262-103l26-8c250-53 538-125 817-60 149 35 364 128 490 214 39 26 99 81 132 92 39-1 188-168 229-238 107-185 35-208 74-386 37-169 288-55 162 309l-53 123c-4 9-7 13-12 22l-10 15zm-2186-2047c-4-29-2-14 6-29 76 30 161 89 225 130 477 307 368 212 761 175 355-33 362 17 603 75 584 140 328-255 1134 49 281 105 326 142 111 296-67 48-153 93-208 144-59 56-111 121-167 175-33 32-336 311-430 204-15-33 118-245-292-497-477-294-773-89-1013-220-139-75-370-230-497-323l-233-179zm0 0c5 34 48 70 71 95l443 438c45 43 131 118 138 213 26 18 56 43 95 62 47 21 67 25 94 66-4 167-284 151-434 166-86 31-98 33-160 85-41 33-91 81-92 147 5 36 48 130-1 149-152 124-438 146-406-124l25-76c-5-60 75-194 106-230 147-169 383-194 289-715l-310-339c-42-40-157-173-214-183-61 41-83 205-99 285-27 134 78 183 135 232 135 119-30 173-39 252-11 108 150 152 166 214-33 41-108 72-165 86l-4 107c49 120 125 574 68 687 70 104-131 731-152 1028-5 66-7 55-22 71 7 118 27 271 58 383 16 57 35 111 59 166 15 35 58 112 62 135l194 45c-19-13-15-14-21-19 16-216-9-446-8-665 0-374 76-415 95-562 25 236 125 400 157 555 5 21 13 27 31 50 16 19 26 32 38 49 125 173 228 348 447 424 61 21 211 60 272 72 51-47 79-89 141-133 135-96 445-194 583-124 37 19 19 4 25 29-86 43-576-30-704 268l251-51v-74c159-70 224-80 374-49 55 12 80 33 114 40 4-24 7-14 36 15-17-50-44-94-50-157-22-43-6-86 28-131l220-271-13 65c2 143-71 261-47 386 99-38 110-39 235-35 117 4 125 10 216 46-1-101-49-211-75-309l-12-72c3-26-1-9 7-21 37 53 76 151 95 217 44 146 23 143 1 277 26-16 38-19 61-32 3-3 8-9 10-6 2 2 7-4 9-6 55-27 12 11 40-15-4 0-14 2-20 1-16-3-12-3-17-6 74-44 201-4 284-14-1-6 2 0-16-11-84-53-105-110-132-209 213 73 281 70 509 15-30 62-122 160-184 194-22 12-63 23-82 41 155 33 293 124 325 275 125-57 341-163 423-247 166-170 167-371 274-418-23 60-71 119-70 190-15 59 18 121-4 203-16 59-50 117-80 155-43 55-173 200-258 208 2 1 7-1 8 3 7 12 85 12 105 14 45 5 92 8 137 8 104-37 231-555 275-649 19-41 9-26 43-39 15 181-29 583-135 699l-97 2c2 1 6 0 7 3l54 26c-5 36-66 86-92 115-32 34-74 85-123 105 35 39 114 61 174 78 8-31 31-41 65-77 73-77 145-218 146-219 14-15-14-18 25-13 41 6 10-10 33 22l12-12c2-1 8-7 12-9l879-86c47-7 245-52 268-79l-40-10c-83 9-162 36-250 49l-835 92c-11-15-22 21-5-22-25 18-32 25-72 26 10-50 56-143 76-204 61-180 149-525 164-707 38-448-174-628-278-868-27 10-23 14-51 20 7-53 54-110 76-167 25-67 45-136 52-213l-45 64c-37 46-81 48-139 39-37-5-44-16-61-35l-13 47c-69 10-82-45-79-115-20 23-16-29-16 26-54-30-118-110-131-203 18-12 9-5 18-11 10-7 2 27 16-12 2-5 6-5 8-7l-44 9-11 32c-130 36-241-22-299-125-60-108 0-80-53-87-1 1-27 9-27 9-17 2-7 2-18-2-28-17-40 7-74-22-30-25-58-149-18-198 28-267 1192-1140 1354-854 113 201-30 465-67 656 37-37 63-107 88-161 65-141 184-472 72-588-135-140-541 96-722 183-213 103-480 329-638 360-91 17-123-18-177-53-117-76-380-206-529-219-459-40-546 114-905 40-391-80-476-99-873-4-87 21-13 46-162-46-50-31-106-63-161-94-164-91-313-168-461-282-48-38-85-73-144-110-48-29-282-163-339-134 22 17 248 65 469 297l109 116c19 14 2 7 26 13z"/><path class="fil1" d="M15972 15531c25 6 9-5 31 20 7 9 13 21 19 30 23 35 28 37 29 78 29 28 21 105 9 144-16 48-39 74-71 97l-18-54c-20-87-128-250-192-285-95-52-413-106-437-4 111 6 228 9 319 53 138 66 287 278 50 441-103 70-157 70-300 60 7-76 51-94 20-212-25-93-128-242-226-265-67-15-164-1-204 40 133 35 264 158 311 276 95 237-170 200-331 187-124-19-579-122-702-181l-63-26c-16-7-13-5-22-13 116-27 320-176 380-240 85-91 212-252 311-311 12-21 218-204 326-362 32-47 51-93 83-139 25 28 78 202 98 251 35 90 69 156 113 238l-67 40c71 90 331-3 492 94 7 5 16 11 22 17 21 20 7 3 20 26zm-535-998c0-41 69-238 88-303 50 155 39 325 109 488 87 207 246 207 313 286 58 6 175 88 218 132 37 38 38 29 44 58 21 13 0-5 25 19 30 29 77 115 75 167-3 87-77 104-155 123 10-59 15-75 11-142l-18-69c-24 11-19 2-32 38-5 12-9 34-12 47-7 33-15 66-20 93-96-40-70-118-437-124-82-92-287-451-290-604 0-40 55-186 81-209zm1647-6174c-53 1-55-1-61 57l-10 286c0 560-81 714-453 1148l-375 426c-60 74-120 142-184 218-237 280-446 583-555 1048-55 234-73 460-97 704-13 126-25 250-28 377-4 147 21 345 19 376-102-56-157-45-277-26-5-56-40-137-54-201-108-483 69-1037 228-1478 160-444 322-669 477-1028 44-101 116-246 145-353l-210 316c-338 603-625 1186-754 1887-28 151-53 320-53 477-1 287 67 322 92 440-23 22-45 35-68 51-138 102-269 287-344 445-51 105-99 228-140 353-39 120-76 242-135 354-59 113-134 196-222 266-121 95-173 124-373 76-398-97-835-603-848-1102 1-137-5-260 5-403 36-464 67-690-19-1182-40-228-98-465-182-659-110-252-164-322-318-523-45-60-154-159-213-208-239-200-546-322-868-392-242-53-510-76-765-75-131 0-260 6-385 32-78 17-271 72-273 135 26 2 145-54 193-68 75-21 155-33 234-38 170-11 342 4 509 21 319 30 618 84 883 202 277 124 471 280 624 462 349 415 492 1106 508 1667 11 356-54 704-40 1046 18 463 233 818 577 1053 192 131 215 106 357 150l24 10c-396 104-714 11-1109-20-818-64-1396 59-2157 267-293 79-719 193-1029 178l-8 30c21 4 37 3 57 6 33 4 25-2 45 12 79-16 247-9 346-23 304-40 573-137 863-212 643-167 1264-219 1935-155 589 56 957 170 1473-211l187-156c12-27 62-107 83-136 18-56 41-102 60-162 17-57 30-108 48-166 25-81 81-252 122-311l10-21c12-71 154-281 191-333 66-92 153-194 277-240 262-96 464 217 494 507 30 300-47 630-143 880-60 155-287 577-389 643-22 55-386 425-431 434-23 47-44 49-78 79-82 73-139 112-233 177-101 69-230 138-353 195-1279 594-3372 651-4702 221-574-185-1098-412-1289-899-121-307-54-648-16-976 43-362 5-644-68-986-134-623-249-1221-311-1879-71-744-42-1283 133-1980 35-141 411-1513 581-1619-2-66 281-403 333-459 176-192 406-420 616-577 423-316 880-441 1373-620 835-304 1101-328 2021-183-6 5-8 7-18 14-6 4-12 8-19 11-12 7-18 9-33 16-264 115-255 175-419 309-19 38-51 69-77 114-79 134-116 339-15 405 11-167 63-383 159-468 74-127 201-203 360-283 340-172 476-280 726-556 87-97 195-237 371-266 13 12 10-21 12 20-6 169-78 296-128 433-50 139-83 292-114 444-69 352-82 655-2 1004l62 21c29 5 7 6 20-5l-24-106c-159-611 47-1131 207-1670 70-239 36-306 68-508 1-6 5-28 6-33 19-64-19 51 6-16l8-15 4-107c-22-222-153-164-200-578-30-268-166-466-71-641 58 6 167 70 218 103 32 21 36 18 55 47 57 10 172 143 214 183l310 339c39 16 107 95 142 128 193 182 194 196 313 393 16 26 4 17 25 24l4-75c-7-95-93-170-138-213l-443-438c-23-25-66-61-71-95-24-6-7 1-26-13l-109-116c-221-232-447-280-469-297 57-29 291 105 339 134 59 37 96 72 144 110 148 114 297 191 461 282 55 31 111 63 161 94 149 92 75 67 162 46 397-95 482-76 873 4 359 74 446-80 905-40 149 13 412 143 529 219 54 35 86 70 177 53 158-31 425-257 638-360 181-87 587-323 722-183 112 116-7 447-72 588-25 54-51 124-88 161 37-191 180-455 67-656-162-286-1326 587-1354 854 0 65 37 110 102 108-13-51-120-106 28-294 116-148 298-259 451-370 82-60 155-113 243-168 912-571 383 589 352 622-2 63-82 260-106 338-18 58-32 119-46 180-10 44-24 139-38 175-7 77-27 146-52 213-22 57-69 114-76 167 28-6 24-10 51-20 104 240 316 420 278 868-15 182-103 527-164 707-20 61-66 154-76 204 40-1 47-8 72-26 2-45 55-158 72-218 22-73 42-146 62-221 89-338 137-652 3-985-49-122-142-293-222-354 11-52 50-66 85-213 19-79 29-169 45-249 25-133 115-290 171-416 117-265 304-501 305-856 1-203-117-275-324-227-181 43-625 279-795 377-109 63-245 170-405 176l-131-96c-155-101-267-167-474-183-282-23-583 74-841 39-300-41-419-117-779-34-293 67-187 97-312 21-89-54-182-104-277-153-282-147-417-289-535-344-64-30-253-124-334-101-87 24-118 219-109 330 10 121 71 216 88 351 19 159 10 226 83 357 175 314 130 231 85 498-11 66-2 135-17 197-146 17-208 86-284 156-138 128-399 430-575 531-109 63-817-237-1749 50-222 68-430 156-651 228-213 70-445 143-650 231-215 94-400 195-558 322-481 388-915 852-1175 1464-174 409-318 873-434 1327-133 516-190 1022-157 1582 29 504 102 1079 199 1557 109 536 274 914 254 1513-21 606-189 1024 186 1472 129 155 280 275 505 376 213 95 393 179 629 250 485 146 965 229 1502 260 1039 62 2189-56 3068-413l301-140c121-45 934 371 1261 205 89-44 53-8 157 9 172 27 233-49 262-60 31-12 48-1 86-20l248-193c86-69 123-166 102-320 108-38 195-105 236-202 90-211-195-399-347-497-403-262-213 54-404-564-67-217-49-218-16-440s56-589-84-790c-23-33-41-32-46-77-16-150-9-372-9-528 0-488 14-929 201-1378 109-260 271-447 418-638 129-169 228-280 357-434l242-277c254-285 383-528 387-930 1-85-19-454-6-499z"/><path class="fil2" d="M14581 13626l-10 21c13 10 3-1 15 16 2 2 7 9 8 12 71 117 151 401 155 544-88-16-137-23-226-2-76 18-118 49-182 69-21 29-71 109-83 136 9 6 5 1-5 22-158 328-520 576-883 636-240 39-492 9-730-21-881-110-1192 140-1982 301-328 68-703 97-1021-33-47-19-90-41-129-66-27-18-93-72-107-76l53-6c-20-14-12-8-45-12-20-3-36-2-57-6l8-30c-111-75-149-237-187-305-52 130-44 451-14 598 26 126 75 251 146 353 74 108 74 77 48 93l13 10c2 1 5 3 7 4s5 3 7 4c357 192 822 264 1221 285 1285 67 2188-75 3388-455 204-65 389-134 591-201 45-9 409-379 431-434-8-13 103-220 110-237 147-325 422-1175-21-1344-91-34-226-49-322-17-181 58-170 187-197 141z"/><path class="fil3" d="M14580 15517c-202 67-387 136-591 201-1200 380-2103 522-3388 455-399-21-864-93-1221-285-2-1-5-3-7-4s-5-3-7-4l-13-10c-267-160-488-345-648-589-170-258-239-576-300-932-60-347-117-695-202-1031-86-342-176-636-227-1002-99-695-100-1072-83-1747 5-206-12-403-9-606 11-655 192-1508 360-2113-170 106-546 1478-581 1619-175 697-204 1236-133 1980 62 658 177 1256 311 1879 73 342 111 624 68 986-38 328-105 669 16 976 191 487 715 714 1289 899 1330 430 3423 373 4702-221 123-57 252-126 353-195 94-65 151-104 233-177 34-30 55-32 78-79zm-2415-9105c-96 85-148 301-159 468-101-66-64-271 15-405 26-45 58-76 77-114-34-13-84-57-120-83-163-117-326-133-531-102-271 41-406 114-627 213 933 123 624 214 498 948-52 302-2 484 113 721 223 459 463 320 490 393 22-42 38-184 150-362 44-72 175-226 277-235-11 41-130 93-157 154 21 11 15-2 6 39-4 19-11 30-16 56-21 113-35 239-36 354h41c156 8 350-16 517-17 156-1 337-31 500-40 73-4 131-39 198-69l554-250c-29 5-93-59-112-79-24-23-29-33-54-54-39-34-49-28-20-54-370 43-780 77-1131-85-80-38-223-120-257-171 138 57 264 189 587 242 119 20 706 37 780-19-52 0-69-32-117-106-34-51-61-92-89-146-56-108-103-218-138-345 18-13-3-13 30-6-20-21-161-74-199-94-72-37-134-67-198-105-73-44-326-204-353-253 47 25 117 74 165 107 130 89 396 234 541 295-80-349-67-652 2-1004 31-152 64-305 114-444 50-137 122-264 128-433-10 9-4 2-16 16-15 16 5-6-10 11-228 278-290 387-585 695-95 100-222 218-360 305-174 109-287 150-498 58z"/><path class="fil2" d="M8814 14952c149-26 505-332 631-444 72-65 113-115 178-184 122-131 212-253 206-509-10-380-253-757-317-1120-39-221 29-393 175-536 129-128 268-206 443-271 199-75 373-104 601-122-19-175-274-406-429-507-175-114-439-242-698-260-556-38-1031 348-1192 716-194 448 67 1060 212 1556 185 634 229 1024 190 1681z"/><path class="fil4" d="M9804 10360c52 4 261 59 334 77 347 85 596 161 911 330 335 181 625 485 730 931 54 227 64 483 112 717 89 430 249 835 464 1201 61 104 272 438 352 479-50-257-108-326-152-696-48-398-12-445 14-795 37-503-116-973-306-1360-87-178-191-382-341-499-444-347-1571-419-2118-385z"/><path class="fil5" d="M14144 9084c-28 32-87 210-101 263-37 137-31 188-27 334-74-88-6-276 20-369 17-57 33-109 53-162l61-161-305 191c-125 74-235 119-305 160-172 222-226 57-281-40-61-106-137-228-163-365h-51c25-25 32-12 49-42 3-5 8-31 13-41 13-27 39-46 67-53 58-15 160 3 219 15 76 15 70 12 184-43 50-25 107-55 147-83l-280-71c-358-69-662-101-611 408 48 479 375 989 487 1328 28 85 83 174 168 195 183 46 332-209 398-322 157-266 361-756 258-1142z"/><path class="fil0" d="M9454 15179l-53 6c14 4 80 58 107 76 39 25 82 47 129 66 318 130 693 101 1021 33 790-161 1101-411 1982-301 238 30 490 60 730 21 363-60 725-308 883-636 10-21 14-16 5-22l-187 156c-516 381-884 267-1473 211-671-64-1292-12-1935 155-290 75-559 172-863 212-99 14-267 7-346 23z"/><path class="fil4" d="M9389 6910c286-114 498-101 722 72 549 427 681 1451 682 1451 5 9-7 35 75-10 31-18 53-35 74-55 76-74 128-185 165-315 113-399 121-1210-306-1469-229-139-533-91-780 2-173 65-518 228-632 324z"/><path class="fil3" d="M12804 13476c13 499 450 1005 848 1102 200 48 252 19 373-76 88-70 163-153 222-266 59-112 96-234 135-354 41-125 89-248 140-353-28-8-72-71-91-92-66-73-212-182-268-278l-46 126c-55 283-185 535-501 612-93 22-197 33-294 22-114-13-155-44-233-88-190-107-232-316-285-355z"/><path class="fil4" d="M16110 4454c-5-100 330-133 407-133 93 0 404 52 405 147 1 61-98 121-161 124-46 1-169-56-207-72-285-120-306-56-444-66zm-2005-508l233 179c127 93 358 248 497 323 240 131 536-74 1013 220 410 252 277 464 292 497 94 107 397-172 430-204 56-54 108-119 167-175 55-51 141-96 208-144 215-154 170-191-111-296-806-304-550 91-1134-49-241-58-248-108-603-75-393 37-284 132-761-175-64-41-149-100-225-130-8 15-10 0-6 29z"/><path class="fil0" d="M15047 15788c81-36 302 121 195 263-32 43-65 64-143 52 24-118 66-171-26-276l-18-24c-2-2-6-12-8-15zm555 261c13-58 63-104 72-200 12-124-50-126-75-193 84-14 198 116 205 204 9 110-123 154-202 189zm-717-683c-29 132-166 404-35 634 26 46 54 74 93 103 25 19 19 9 38 34 161 13 426 50 331-187-47-118-178-241-311-276 40-41 137-55 204-40 98 23 201 172 226 265 31 118-13 136-20 212 143 10 197 10 300-60 237-163 88-375-50-441-91-44-208-47-319-53 24-102 342-48 437 4 64 35 172 198 192 285l18 54c32-23 55-49 71-97 12-39 20-116-9-144-8 55 20 89-43 117-60-17-44-46-58-115-11-55-33-82-36-139l58 9c-13-23 1-6-20-26-6-6-15-12-22-17-161-97-421-4-492-94l67-40c-44-82-78-148-113-238-20-49-73-223-98-251-32 46-51 92-83 139-108 158-314 341-326 362z"/><path class="fil2" d="M12141 9569l2-24c191 169 234 187 414 418 233 299 298 531 402 644 152 162 165 313 219 416 53 101 95 168 129 293 30 114 27 245 90 327 2-1 3-7 3-5 0 1 2-5 2-6l-15-300c5-53-5-22 14-37-76-304-268-662-409-907-81-141-154-278-234-421l-216-431c-9 15-45-58-64-91-183-312-299-586-325-968l33-20h-41c1-115 15-241 36-354 5-26 12-37 16-56 9-41 15-28-6-39-72 108-118 174-160 324-38 137-57 278-58 428 0 175 81 726 168 809z"/><path class="fil4" d="M15153 12725c-74-615 354-1689 698-2157 302-411 415-378 671-765 90-136 177-313 233-491 77-245 80-376 49-643-63 664-699 1277-1087 1805-378 514-646 1242-602 1918l38 333zm-2190 458c4 419 486 676 846 56 214-368 227-836 24-1228l-30-49c-12-13-4-6-17-16 15 82 38 136 45 231 25 361-81 812-408 999-226 128-354 28-460 7z"/><path d="M17427 7985l114 72c-43 23-106-49-153-47-23 2-114 46-152 55 17 45 90 46 105 90v12c-22 52-183-46-199-68-52-2-65 9-127-3-1 2-2 5-3 6l-15 31c-33-49-86-78-113-141-9-7-15-14-26-30-8-11-10-17-16-26-2-2-9-9-10-13-1-5-4-5-6-7-5 28 0 21-44 27-63 9-136-7-195-13-39 103-115 142-171 192-22 20-12 1-17 22-64 177 575 137 696 124l36 24c-11 30 0 5-26 33l37-8c77 88 148 204 212 329l132 267c11 23 28 56 39 88 91 243 163 505 165 767 0 18 0 51 2 69l18 50c44-69-4-380-21-467-24-127-68-274-120-398-67-183-171-390-276-558l-85-121c-27-35-26-16-17-50-103-31 18-56 59-70 43-16 103-51 124 9 66 1 180 91 229 127 118 86 249 243 335 368l138 223c9 56 103 265 133 346 19 51 47 109 70 163 31 69 44 139 77 163-5-92-70-229-104-306-48-108-126-336-177-429-75-138-89-172-193-308l-40-56-21-21c-15-15-8-10-24-24-113-93-104-122-291-238-9-5-26-14-30-18-19-19-16 0-11-27-47-1-38-5-71-18 21-24 26-24 57-37 37-14 91-49 112-49 7-1 19 2 26 6 36 22 7 1 22 25 48-7 135 40 188 61 172 67 330 123 494 211 6 3 12 7 19 10l20 13c1 1 4 3 7 4 84 17 285 188 379 261l105 109c23 32 25 31 49 58 12 15 30 40 46 61 32 43 57 78 87 128 31 49 54 91 78 136l53 111c30 40-3 9 41 33l-7-48-113-222c-42-70-89-137-138-196-73-89-185-199-277-272l-23-16c-178-127-246-169-479-274-79-35-155-64-237-94-39-15-215-73-244-106-54 1-55-22-59-27 45-18 87-45 132-72 111-68 63-71 139-52-30-35-40-18-64-19-58 0-73-27-151-52-58 19-151 103-229 117z" fill="#c5c8cb"/><path class="fil2" d="M13448 7118c18 22 64 118 58 133 41 33 246 95 310 95-4-23-47-100-62-135-24-55-43-109-59-166-31-112-51-265-58-383 2-87-19-211-23-307-6-121-4-197 17-313 16-89 139-431 180-479 57-113-19-567-68-687l-8 15c-25 67 13-48-6 16-1 5-5 27-6 33-32 202 2 269-68 508-160 539-366 1059-207 1670z"/><path class="fil4" d="M14811 12620c19-150 19-319 37-470 19-152 36-302 65-446 99-486 369-1016 581-1463 54-114 110-237 151-358 48-142 66-276 94-416-24 43-51 127-77 180-89 184-215 340-292 510-228 501-526 950-621 1520-37 220-62 782 62 943z"/><path class="fil1" d="M11921 8451c-25 176-52 281-42 476 34 693 427 1282 660 1936 45 127 107 230 154 361 51 140 101 408 108 422 41-23 36-84 31-138-59-674-687-1768-691-1939-87-83-168-634-168-809 1-150 20-291 58-428 42-150 88-216 160-324 27-61 146-113 157-154-102 9-233 163-277 235-112 178-128 320-150 362z"/><path class="fil0" d="M14842 13386c-19-160 222-387 448-182 149 134 192 398 101 611-30-62-21-161-43-230-24-77-58-124-103-170-163-165-343-48-403-29zm-261 240c27 46 16-83 197-141 96-32 231-17 322 17 443 169 168 1019 21 1344-7 17-118 224-110 237 102-66 329-488 389-643 96-250 173-580 143-880-30-290-232-603-494-507-124 46-211 148-277 240-37 52-179 262-191 333zm3092-8992c-39 27-152 181-158 238-3 38-14 22 10 35 97-7 159-22 272-13 47-51 280-30 399-184 155-201 105-352 178-395 24 34 13 40 16 84l41-197c9-72 17-134-5-196-151-12-472 328-588 444-93 95-158 179-158 179-1-2-4 4-7 5z"/><path class="fil2" d="M14462 5902l63 21c157 31 282 44 445 57 330 27 361 75 469 89 149 19 330 86 438 192l47 46c304-21 299-346 368-499l23-34-24 219 10-15c5-9 8-13 12-22l53-123c126-364-125-478-162-309-39 178 33 201-74 386-41 70-190 237-229 238-33-11-93-66-132-92-126-86-341-179-490-214-279-65-567 7-817 60z"/><path d="M13434 7258l51 20 49 13 304 96 149 25c218 31 360 23 577 14 54 15 338-34 412-45l34-6c27-20 123-18 168-28 56-12 99-24 155-32 42 39 39 55 102 75-16 10 18-9-20 12-78 42-186 46-285 101l-122 35-53 19c-58 32-570 191-642 192-26 22-326 84-384 89l-124 24-57-1c-74 56-661 39-780 19-323-53-449-185-587-242 34 51 177 133 257 171 351 162 761 128 1131 85l34 1c24-20 96-22 133-22 18-11 288-60 347-79 236-54 457-138 676-204l32-14 45-13c14-3 23-5 37-10 33-12 43-18 79-23l321-105c51-7 54 8 103 19-125 39-250 76-369 140l-166 73-22 8 9 5 5 5c3-2 6-4 8-5l17-8c2-1 5-2 8-3l78-25c39-17 63-30 104-36 150-59 184-72 354-102 32-6 61-23 90-23 27-1 68 9 101 9 86 0 131-21 199-30-17-83-39-92-95-126-68-41-68-78-92-125-34-7-59-28-114-40-150-31-215-21-374 49v74l-251 51c-11 5-45 12-67 17-240 33-450 63-700 60l-289-21-194-45c-64 0-269-62-310-95-20 0-45 6-54-22l-62-21c-145-61-411-206-541-295-48-33-118-82-165-107 27 49 280 209 353 253 64 38 126 68 198 105 38 20 179 73 199 94z" fill="#e4eaec"/><path d="M15268 7625c-54 32-126 46-178 84l-57 24c-27 24-71 39-103 57-163 94-316 205-462 321-32 25-54 44-86 70-31 25-58 53-90 70l-29 32-342 281-21 14c-1 2-4 3-6 4l-70 47c-29 21-64 47-100 59-40 28-97 58-147 83-114 55-108 58-184 43-59-12-161-30-219-15-28 7-54 26-67 53-5 10-10 36-13 41-17 30-24 17-49 42h51c26 137 102 259 163 365 55 97 109 262 281 40l-190 37c60-22 177-69 229-82 15-75 82-131 81-261-1-152-106-164-150-195 86-31 180-79 257-132 1-1 4-3 6-4l173-121c50-47 117-94 176-143l177-149 19-21 27-18c19-15 5-4 21-18 193-166 455-363 688-460l55-31 60-26c50-20 88-51 149-67 16-13 19-10 35-21 39-27 14 6 30-42l-115 39z" fill="#edeff2"/><path class="fil9" d="M17349 6355c-72 332-648 356-595 32 21-131 159-232 293-254 164-28 336 66 302 222zm-2426-240l25-86c123 0 358 7 444 71 69 16 138 70 130 157-7 71-63 158-106 185-22 39-98 64-162 68-71 5-145-11-198-43-97-61-151-189-133-352zm1001 192c-163-22-237-96-364-169-22-13-38-21-57-30l-64-39c-108-14-139-62-469-89-163-13-288-26-445-57l-63-21-26 8c40 43 171 121 262 103l206 14 3 37c-1 6-10 33-12 41l-25 119c24 119 13 166 86 244 50 54 128 91 224 99 116 8 191-33 259-83 30-40 41-30 84-96 22-33 37-84 65-119 95 78 62 226 104 318 5-10 9-20 13-26l21-34-5-7c22-153-13-150-53-260 73 38 171 93 280 73 73-1 134-42 177-76 75-60 73-107 123-141 41 184 113 169 159 214 45-5 78 1 127-7 40-7 66-21 104-21 19-24 116-54 147-61-48 65-213 294-151 428 42-20 74-94 84-151 20 27 39 24 59 69 43 4 14 0 25 15 61 18 86 49 176 52 69 3 138-13 191-38 94-45 197-134 213-254 6-72-5-75-16-130-84-101 14-9-122-138 74-25 188 13 395-58 78-38 155-102 156-216l-49 66c-52 109-182 153-349 156-170 2-294 14-441 68-179 66-590 373-658 16l-7-133 24-219-23 34c-69 153-64 478-368 499z"/><path class="fil0" d="M12165 6412c211 92 324 51 498-58 138-87 265-205 360-305 295-308 357-417 585-695 15-17-5 5 10-11 12-14 6-7 16-16-2-41 1-8-12-20-176 29-284 169-371 266-250 276-386 384-726 556-159 80-286 156-360 283z"/><path class="fil2" d="M17165 4826c-40 49-12 173 18 198 34 29 46 5 74 22l56-51c8-128 67-194 131-245 75-58 100-64 168-106 66-41 43-33 61-10 3-1 6-7 7-5 0 0 65-84 158-179 116-116 437-456 588-444 22 62 14 124 5 196l-41 197c14 91-31 236-49 325 31-33 560-1193-352-622-88 55-161 108-243 168-153 111-335 222-451 370-148 188-41 243-28 294-65 2-102-43-102-108z"/><path class="fil1" d="M12542 9536l216 431c80 143 153 280 234 421 141 245 333 603 409 907 90-47 21-297-5-373-243-696-1032-1582-868-2161 24-86 56-106 81-167-103 38-174 292-174 440 0 94 15 183 37 271 15 55 69 192 70 231z"/><path class="fil3" d="M13878 5167c7 26 4 47 30 24 53-46-37-40 61-63-11-16-9-9-10-31 38-21 81-21 126-29l48-13c-43-26-106-15-147-39 21-52 165-67 222-70-31-20-24 1-26-35 72-39 174-54 269-39-31-67-72-108 58-78 51 12 127 25 177 46-17 17 30 10-36 11-5 0-37-6-44-7-32-5-62-8-94-10-16 28-13 38-14 56-16 45-27 12 7 39 28 22 25 10 27-11-1 3-3 4-3 9l-8 26c-3 13-4 21-9 33 150-15 430 1 434-166-27-41-47-45-94-66-39-19-69-44-95-62l-4 75c-21-7-9 2-25-24-119-197-120-211-313-393-35-33-103-112-142-128 94 521-142 546-289 715-31 36-111 170-106 230z"/><path class="fil2" d="M14010 7391l289 21c-16-43-26-125-39-179-15-60-34-117-51-175-34-121-62-253-10-375 60-12 6-4 29 14l5 3c-32-155-132-319-157-555-19 147-95 188-95 562-1 219 24 449 8 665 6 5 2 6 21 19z"/><path class="fil2" d="M13929 7838c58-5 358-67 384-89-24 3-16 0-27-5 20-113 11-183 13-294 45-4 89-2 135-6 54-4 95 2 130-18-217 9-359 17-577-14-3 46-3 111-22 144-50-38-78-117-127-169l-304-96c28 73 129 251 170 312 83 121 207 212 225 235z"/><path class="fil4" d="M14405 6465c-104 116-8 417 139 542 233 198 644 154 674-17 25-139-98-65-421-158-367-106-309-289-392-367z"/><path class="fil0" d="M17259 7576c15 36 0 13 17 24-22 25 36 29-46 18l72 51-159 65c-44 14 1 34-59 30l129 95c33 26 87 80 132 76 36-25 72-44 106-69 43-31 68-62 109-81 53 56 95 25 96 83 78 25 93 52 151 52 24 1 34-16 64 19l-6 20c45-18 172 34 258 56 235 63 588 120 820 150 331 41 685 41 999 136 46 14 81 47 119 29-9-13-4-10-24-22-180-110-878-157-1063-180-119-14-902-137-1025-203-24-14-19 1-21-25-30 9-18 8-54-6-60-17-139-39-174-78-4 6 21 14-23 2-7-2-32-14-33-15-25-11-46-22-67-33 23-61 104-103 172-189-44-12-91-13-137-16-57-4-79-13-125-22 7 28 5 25-37 48-6 3-57 33-63 35-37 11-80-43-128-50z"/><path class="fil2" d="M13747 4769c57-14 132-45 165-86-16-62-177-106-166-214 9-79 174-133 39-252-57-49-162-98-135-232 16-80 38-244 99-285-19-29-23-26-55-47-51-33-160-97-218-103-95 175 41 373 71 641 47 414 178 356 200 578z"/><path class="fil0" d="M15437 14533c1 241 106 428 223 560 55 62 126 126 213 178 103 60 185 72 210 199 5-27 13-60 20-93 3-13 7-35 12-47 13-36 8-27 32-38-2-2-5-7-5-5-1 1-5-5-6-6-2-2-82-115-141-161-116-91-186-71-213-111 45-36 111-5 165-5-67-79-226-79-313-286-70-163-59-333-109-488-19 65-88 262-88 303z"/><path class="fil3" d="M14981 16137c-19-25-13-15-38-34-39-29-67-57-93-103-131-230 6-502 35-634-99 59-226 220-311 311-60 64-264 213-380 240 9 8 6 6 22 13l63 26c123 59 578 162 702 181zm-1060-7573l342-281c-63-13-174-89-231-128l-52-46c0-3-2-4-3-6l-659 295c127 17 205 24 322 62 71 22 223 100 281 104z"/><path class="fil10" d="M17045 6205c68 58 75 209-14 250-48-76-96-181 14-250zm183-33c36 60-9 136-62 102-28-18-25-125 62-102zm121 183c34-156-138-250-302-222-134 22-272 123-293 254-53 324 523 300 595-32z"/><path class="fil1" d="M16487 7943c-20 50-145 168-193 203-76 56-172 107-294 90-150-27-339-199-345-355 85-16 141-52 218-76l194-100c47 18-1 47 156 37 36-21 46 23 143 83 26 16 52 32 81 47 15 8 94 40 67 41-16 32 1 17-27 30zm-1034-105l-40 48 8 20 192-10c-10 150 58 225 140 295 29 16 47 34 78 52 27 16 55 28 79 42 117 28 170 36 279-18 86-25 141-88 210-123 5-21-5-2 17-22 56-50 132-89 171-192 59 6 132 22 195 13 44-6 39 1 44-27l-23-33c-176 0-277-32-405-109-248-149-130-224-204-305-90 51 49 101-300 258-165 75-229 101-441 111z"/><path class="fil11" d="M16507 7179l24 2c-34 38-61 65-74 139l11 11c1 1 4 4 5 6l5 5c54 59 96 97 169 132l15-26c64-24-2 52 108 69-47-77-126-76-115-152 52 3 57 23 83 50 108 113 98 119 235 126l-78 23 94 101 72 73c1 2 4 4 6 6 4-36 21-47 39-85 22-46 17-77 63-80l-24-15c-73-36-230-101-302-147-32-21-32-9-30-40 42-21 101 17 175 41 62 20 132 38 186 52-53-249-319-324-608-318-28 26 15-12-40 15-2 2-7 8-9 6-2-3-7 3-10 6z"/><path class="fil3" d="M15104 8429c271-21 692 0 961 31 143 16 297 48 441 25 104-17 182-53 277-94 17-7 26-10 42-17 4-2 15-6 20-9l20-12c2-1 4-3 6-4-301 54-313 22-612-43-35-8-69-7-70-39-109 54-162 46-279 18 2 21 11 13-65 48-34 16-59 25-93 34-153 40-288 41-407-48-114-85-62-111-122-126l-119 236z"/><path class="fil12" d="M14299 7412c250 3 460-27 700-60-12-26-5-21-83-24-295-11-544-257-662-509-10-22-18-39-28-61-32-72-10-56 2-61-23-18 31-26-29-14-52 122-24 254 10 375 17 58 36 115 51 175 13 54 23 136 39 179zm792 1056c-22 26-37 77-49 116-5 35-4 10 8 17 125-69 325-82 486-63 193 24 278 76 432 135 180 69 272 27 448-32 101-34 316-139 374-201-128 28-199 100-371 104-195 5-393-80-870-67-79 2-157 3-235 5-39 1-78 1-117 1-84 1-94 12-106-15z"/><path class="fil4" d="M17797 4894c71 2 143 21 149 82-48 20-109 2-170 42l-13 11c46 1 124-11 153 35-36 23-81 24-124 42-19 8-38 17-54 28-44 30-37 24-9 40 29-19 103-41 143-39-7 36-45 72-63 113l121-10c-15-13-18-17-58-17 44-117 199-359 338-316 53 133-92 383-169 490-31 42-71 101-137 80l2 10c17 19 24 30 61 35 58 9 102 7 139-39l45-64c14-36 28-131 38-175 14-61 28-122 46-180 24-78 104-275 106-338 18-89 63-234 49-325-3-44 8-50-16-84-73 43-23 194-178 395-119 154-352 133-399 184z"/><path class="fil5" d="M13579 9295c3-3 241-133 271-151 47-28 233-136 255-164-63-72-58-105-138-163-32-24-58-42-95-61-32-17-79-32-99-53-2 1-5 3-6 4-77 53-171 101-257 132 44 31 149 43 150 195 1 130-66 186-81 261z"/><path class="fil13" d="M15180 6567c-96-8-174-45-224-99-73-78-62-125-86-244-13-52 8-35-73-95-43-32-62-53-114-71 14 227 129 489 243 597 121 114 317 148 471 67 28-15 40-28 61-46 40-34 37-24 55-61-86 9-276 6-333-48z"/><path class="fil14" d="M14564 7426c-35 20-76 14-130 18-46 4-90 2-135 6-2 111 7 181-13 294 11 5 3 8 27 5 72-1 584-160 642-192-20-18-15 0-14-48 1-8 5-35 7-44 7-32 19-61 28-84-74 11-358 60-412 45z"/><path class="fil2" d="M15223 8193c60 15 8 41 122 126 119 89 254 88 407 48 34-9 59-18 93-34 76-35 67-27 65-48-24-14-52-26-79-42-31-18-49-36-78-52-5 9 3 21-51-3-22-10-33-16-54-26-112-55-210-118-227-256l-8-20c-7 7-8 9-15 20l-175 287z"/><path d="M15364 7682c-31 10-56 32-83 48l-78 55c-1-2-4 4-7 6l-76 41-322 236c-143 113-211 200-286 265-14 25-12 23-38 44-25 43-70 90-104 144-24 38-67 125-92 157-20 56-50 106-75 166-28 69-31 121-98 136-22 28-208 136-255 164-30 18-268 148-271 151-52 13-169 60-229 82l190-37c70-41 180-86 305-160l305-191-61 161c-20 53-36 105-53 162-26 93-94 281-20 369-4-146-10-197 27-334 14-53 73-231 101-263 13-149 166-190 325-337l30-29c1-2 3-4 5-6l17-20c27-4 204-188 247-246 1-1 3-4 5-6 23-19 1-8 23-12 34-51 76-98 118-146 46-52 78-98 121-143 63-63 198-230 269-266 11-24 19-19 32-41l139-121c22-21 7-4 21-37l-55 20c-4 12 0 5-13 17-44 39-75 46-141 121-31 10-25 20-53 34-12 17-4 6-19 23l-407 463c-12 14-18 20-32 36l-27 36c-16 16-5 10-22 15-38 55-209 242-264 269l-120 108c-43 35-87 70-133 98 9-42 89-220 109-239 28-68 139-254 190-282 7-21-2-20 24-33 34-69 227-227 294-282 51-41 108-82 164-120 59-40 116-89 176-115 16-22 32-21 49-44l103-60c31-19 59-41 92-52 36-32 86-52 132-76 96-49 110-34 124-85-62 5-260 120-303 156z" fill="#e9fafa"/><path class="fil3" d="M14019 8085c44 0 49 15 77 36 23 18 39 27 63 44 32 21 118 66 133 86 32-17 59-45 90-70 32-26 54-45 86-70 146-116 299-227 462-321 32-18 76-33 103-57-35-2-40-6-40-42-43 30-186 81-240 100l-734 294z"/><path class="fil2" d="M16246 7420c-21 51-61 33-105 19-32 67-149 174-233 215-173 83-286 43-382 61l-73 123c212-10 276-36 441-111 349-157 210-207 300-258 74 81-44 156 204 305 128 77 229 109 405 109-13-27-41-88-64-110-52-19-116-25-171-42-50-16-97-37-141-64-79-51-152-136-129-274-25 11-27 15-52 27zm52-1294c68 357 479 50 658-16 147-54 271-66 441-68 167-3 297-47 349-156-220 100-136 138-332 80-547-162-578 330-1116 160z"/><path class="fil1" d="M15929 7011c-9 67-13 79 5 142 23 79 12 49 52 106l40 7c6-43 1-40 21-68 97-4 71 137 88 229 11 7 3 0 6 12 44 14 84 32 105-19 14-49 14-90 23-138 11-69 10-95 80-83l16 64 60-18 21-34c22-134 43-131-1-277-19-66-58-164-95-217-8 12-4-5-7 21l12 72c26 98 74 208 75 309-91-36-99-42-216-46-125-4-136-3-235 35-24-125 49-243 47-386-42-6-91 236-97 289z"/><path class="fil4" d="M14842 13386c60-19 240-136 403 29 45 46 79 93 103 170 22 69 13 168 43 230 91-213 48-477-101-611-226-205-467 22-448 182z"/><path class="fil3" d="M16083 15470c-25-127-107-139-210-199-87-52-158-116-213-178-117-132-222-319-223-560-26 23-81 169-81 209 3 153 208 512 290 604 367 6 341 84 437 124z"/><path class="fil12" d="M14341 14286c64-20 106-51 182-69 89-21 138-14 226 2-4-143-84-427-155-544-1-3-6-10-8-12-12-17-2-6-15-16-41 59-97 230-122 311-18 58-31 109-48 166-19 60-42 106-60 162z"/><path class="fil11" d="M15992 7452c-68 9-113 30-199 30-33 0-74-10-101-9-29 0-58 17-90 23-170 30-204 43-354 102l20 27 115-39c-16 48 9 15-30 42-16 11-19 8-35 21 11 2 17 0 26 7 24 18 9-13 20 26 43-36 241-151 303-156-14 51-28 36-124 85-46 24-96 44-132 76l30 7 55-20c-14 33 1 16-21 37l3 14c2-2 4-7 5-6 1 2 4-5 4-6 41-59 38-83 94-94-9 35-6 28-24 55l-31 41c96-18 209 22 382-61 84-41 201-148 233-215-3-12 5-5-6-12-40-29-38-38-60-83-14-29-36-58-49-78l-40-7-67-9 46 29c40 20 84 44 101 96 22 71-23 158-90 159l16-82z"/><path class="fil14" d="M14283 7794c-40 49-52 115-134 124-38 5-75-4-106-17-58-24-34-32-107-28-37 0-109 2-133 22 45-3 40-5 66 22 19 21 27 31 47 51 28 28 85 61 94 97 156-73 319-128 481-198 77-34 165-66 245-98 64-25 190-68 241-98-26-21-28-51-18-81-219 66-440 150-676 204z"/><path class="fil13" d="M16110 4454c138 10 159-54 444 66 38 16 161 73 207 72 63-3 162-63 161-124-1-95-312-147-405-147-77 0-412 33-407 133z"/><path class="fil0" d="M15873 7805l4 22c15 134 115 196 244 234 131 39 268-83 366-118 28-13 11 2 27-30-232 18-277-70-366-150 11 0 26 1 37-2 41-10 19-3 38-19-157 10-109-19-156-37l-194 100z"/><path class="fil3" d="M14533 8360c40-15 66 6 107 19 59 20 85 15 109 45l27-36c14-16 20-22 32-36l407-463c15-17 7-6 19-23-28 0-52-4-67-23-60 26-117 75-176 115-56 38-113 79-164 120-67 55-260 213-294 282z"/><path class="fil13" d="M17930 5238c-21 63-78 179-26 237 66 21 106-38 137-80 77-107 222-357 169-490-139-43-294 199-338 316 40 0 43 4 58 17z"/><path class="fil3" d="M14318 8269c62 6 132 45 194 64 75-65 143-152 286-265l322-236c-28-27-47-25-66-59-233 97-495 294-688 460-16 14-2 3-21 18l-27 18z"/><path class="fil1" d="M14999 7352c22-5 56-12 67-17 128-298 618-225 704-268-6-25 12-10-25-29-138-70-448 28-583 124-62 44-90 86-141 133-61-12-211-51-272-72-219-76-322-251-447-424-12-17-22-30-38-49-18-23-26-29-31-50l-5-3c-12 5-34-11-2 61 10 22 18 39 28 61 118 252 367 498 662 509 78 3 71-2 83 24z"/><path d="M17518 7529l-281-47-65-13-117-20c23 45 0 11 25 36l67 41c21 10-10-1 22 9l3-47 54 14c73 13 191 46 261 41 46 9 68 18 125 22 46 3 93 4 137 16 43 9 110 19 166 15l-54-26c-1-3-5-2-7-3l97-2c106-116 150-518 135-699-34 13-24-2-43 39-44 94-171 612-275 649-45 0-92-3-137-8-20-2-98-2-105-14-1-4-6-2-8-3z" fill="#dce0e3"/><path d="M15392 6100c35 48 7 105-69 98-21-66 2-91 69-98zm-469 15c45 4 193 90 232 120 9-59 38-98 81-119 49 49 49 130 15 186 68 19 139 96 165 140 43-27 99-114 106-185 8-87-61-141-130-157-86-64-321-71-444-71l-25 86z" fill="#aa5917"/><path class="fil10" d="M15416 6442c-26-44-97-121-165-140-13 33-19 45-55 63-16-36-43-73-41-130-39-30-187-116-232-120-18 163 36 291 133 352 53 32 127 48 198 43 64-4 140-29 162-68z"/><path class="fil18" d="M16871 8349c-2 1-4 3-6 4l-20 12c-5 3-16 7-20 9-16 7-25 10-42 17-95 41-173 77-277 94-144 23-298-9-441-25-269-31-690-52-961-31l-13 39c12 27 22 16 106 15 39 0 78 0 117-1 78-2 156-3 235-5 477-13 675 72 870 67 172-4 243-76 371-104 82-51 190-83 293-115h22c26-28 15-3 26-33l-36-24-224 81z"/><path class="fil14" d="M13878 5167l-25 76c-32 270 254 248 406 124-45-29-31-120-89-175-38-36-137-68-201-64-98 23-8 17-61 63-26 23-23 2-30-24zm68 3415c73 33 250 89 332 96 25-32 68-119 92-157 34-54 79-101 104-144-41-1-68-16-104-32-13-6-33-13-47-21-30-18-33 2-24-34l-177 149c-59 49-126 96-176 143z"/><path class="fil11" d="M13773 8703c20 21 67 36 99 53 37 19 63 37 95 61 80 58 75 91 138 163 67-15 70-67 98-136 25-60 55-110 75-166-82-7-259-63-332-96l-173 121z"/><path class="fil2" d="M17237 7482l281 47c85-8 215-153 258-208 30-38 64-96 80-155 22-82-11-144 4-203-11 11-59 116-105 181-41 56-91 98-144 139-54 42-108 74-175 109l-199 90z"/><path class="fil3" d="M14796 8428c42-10 82-1 127 1 52 1 108-12 134 9 23-25 66-125 89-168 25-48 78-119 84-167 18-84 36-180 112-200-10-6-2-4-19-9-4-2-24-4-29-5l10-16c-71 36-206 203-269 266-43 45-75 91-121 143-42 48-84 95-118 146z"/><path class="fil4" d="M13637 6662c15-16 17-5 22-71 21-297 222-924 152-1028-41 48-164 390-180 479-21 116-23 192-17 313 4 96 25 220 23 307z"/><path class="fil2" d="M16000 8236c122 17 218-34 294-90 48-35 173-153 193-203-98 35-235 157-366 118-129-38-229-100-244-234-18 17-15 27-18 62-4 63 6 125 27 182 18 51 40 92 77 128l37 37zm1425-1539c98-30 231-153 283-216 52-64 176-259 84-365-124-143-156 247-264 429-34 56-77 104-103 152z"/><path class="fil3" d="M14521 8692c16 41-11 4 22 18 26 11 61 6 96 5 222-9 207-43 340-75l67-162c-51 3-100-2-151-6-22-2-47-3-67-6-7 0-28-5-33-8-29-14-4 16-22-18-2 2-4 5-5 6-43 58-220 242-247 246z"/><path class="fil0" d="M16365 7263c-44 7-43 9-50 52-6 40-13 53-17 78-23 138 50 223 129 274 44 27 91 48 141 64 55 17 119 23 171 42l-64-170c-124-9-218-51-260-142-76-143 3-199 5-209 1-4 4-4 5-7l-60 18z"/><path d="M16662 7448c-18 63-3 95 13 155l64 170c23 22 51 83 64 110l23 33c2 2 5 2 6 7 1 4 8 11 10 13 6 9 8 15 16 26 11 16 17 23 26 30l7-32-24-44-18-28-61-117c-4-6-65-133-37-181 16 13 15 1 24 51 4 21 4 29 10 48 9 32 27 57 36 85l61 97c13 27 2 11 17 19 2 3 5 3 6 8l14 22c31 46 21 26 53 58 37-15 9 10 16-21 5-26 3-14-3-41l-31-30-7-7-7-17c-23-20-43-60-46-92-34-39-71-134-79-190 46 0 56 27 85 54 26 25 49 45 76 68 21-10 21 23 13-37l-94-101 78-23c-137-7-127-13-235-126-26-27-31-47-83-50-11 76 68 75 115 152-110-17-44-93-108-69z" fill="#e3eff0"/><path class="fil9" d="M16908 7163c-32-8-76-14-95-30-83 10-210-30-284 14 5 3 1 3 17 6 6 1 16-1 20-1 289-6 555 69 608 318l-2-1 65 13 199-90c67-35 121-67 175-109 53-41 103-83 144-139 46-65 94-170 105-181-1-71 47-130 70-190-107 47-108 248-274 418-82 84-298 190-423 247-32-151-170-242-325-275z"/><path class="fil20" d="M16189 8267c1 32 35 31 70 39 299 65 311 97 612 43l224-81c-121 13-760 53-696-124-69 35-124 98-210 123z"/><path class="fil18" d="M13969 5128c64-4 163 28 201 64 58 55 44 146 89 175 49-19 6-113 1-149-69-70-37-82-166-121l124-4c4-63-53-73-101-97l53-10c18 0 33 3 51 7 211 51 140-40 36-76 66-40 165-3 241-27 1-18-2-28 14-56 32 2 62 5 94 10 7 1 39 7 44 7 66-1 19 6 36-11-50-21-126-34-177-46-130-30-89 11-58 78-95-15-197 0-269 39 2 36-5 15 26 35-57 3-201 18-222 70 41 24 104 13 147 39l-48 13c-45 8-88 8-126 29 1 22-1 15 10 31z"/><path class="fil13" d="M17382 6362c-16 120-119 209-213 254-53 25-122 41-191 38-90-3-115-34-176-52-35 10-78 74-91 106 433 70 760-38 738-504-2 2-4 2-5 7-1 4-4 5-6 7-36 61-19 110-56 144z"/><path class="fil2" d="M16813 7133c19 16 63 22 95 30 19-18 60-29 82-41 62-34 154-132 184-194-228 55-296 58-509-15 27 99 48 156 132 209 18 11 15 5 16 11z"/><path d="M15478 7725l-76 124-39 49c-16 37-41 68-63 105-19 32-39 78-70 100-6 48-59 119-84 167-23 43-66 143-89 168l-11 40-67 162c-53 188-197 681-134 870 13-23 9-199 17-251 18-122 138-623 180-675 12-39 27-90 49-116l13-39 119-236 175-287c7-11 8-13 15-20l40-48 73-123 31-41c18-27 15-20 24-55-56 11-53 35-94 94 0 1-3 8-4 6-1-1-3 4-5 6z" fill="#e7f8f8"/><path class="fil3" d="M14319 8675c10 24 24 19 59 24 30 4 57 7 85 9 55-27 226-214 264-269-46 13-182-19-218-46-51 28-162 214-190 282z"/><path class="fil14" d="M17302 5039c53 7-7-21 53 87 58 103 169 161 299 125l11-32c-31-26-11 17-7-7 0-1 1-8 8-19-20-10-12 1-33-33-84-133-144-168-161-208-53 34-138 44-170 87z"/><path d="M16976 7702c20 47 26 33 56 51l3 12 37 18c63 67 76 77 171 134l51 37c0-2 3 3 4 5-31 22-116 60-156 73-70-34-101-89-157-116 6 27 8 15 3 41-7 31 21 6-16 21 1 3 4 3 5 7l86 72-74 24c-17-29-64-97-98-121l-7 32c27 63 80 92 113 141l15-31c1-1 2-4 3-6 62 12 75 1 127 3 58 2 19 4 34-13-10-7-18-5-18-24 40 6 15 0 24 12l54-9c38-9 129-53 152-55 47-2 110 70 153 47l-114-72c-23-14-27-13-46-21-8-4-12-6-19-12-24-16 1 10-17-17-45 4-99-50-132-76l-129-95c-5-19-1-10-17-20-2-2-5-4-6-6l-72-73c8 60 8 27-13 37z" fill="#d4e3e3"/><path class="fil1" d="M13748 7861l57 1c-6-37-63-96-89-134-31-45-57-88-86-138-64-110-89-199-145-312l-51-20c-33-7-12-7-30 6 35 127 82 237 138 345 28 54 55 95 89 146 48 74 65 106 117 106z"/><path class="fil4" d="M17310 7291c293-37 528-297 492-638-19 140-127 283-194 363-49 58-89 90-144 140l-121 94c-30 21-27 9-33 41z"/><path class="fil3" d="M16000 8236l-37-37c-37-36-59-77-77-128-21-57-31-119-27-182 3-35 0-45 18-62l-4-22c-77 24-133 60-218 76 6 156 195 328 345 355z"/><path class="fil13" d="M18206 6580c53-14 98-60 131-85-10-166-240-601-306-649-6 66 99 241 126 325 47 140 59 249 49 409z"/><path class="fil4" d="M17472 4952c17 40 77 75 161 208 21 34 13 23 33 33l16-5c28-63 108-84 180-124l-84-12c-32-1-57 3-87-7 24-51 137-60 183-86-188-63-226-23-402-7zm-1325 10340l18 69c23 27 16 28 24 64 33-18 13 17 31-40 3-9 6-52 7-63 1-47-12-86-18-128-6-29-7-20-44-58-43-44-160-126-218-132-54 0-120-31-165 5 27 40 97 20 213 111 59 46 139 159 141 161 1 1 5 7 6 6 0-2 3 3 5 5z"/><path class="fil3" d="M15439 6484c59 4 122 124 217 174 38-24 61-67 70-131l-21 34c-4 6-8 16-13 26-42-92-9-240-104-318-28 35-43 86-65 119-43 66-54 56-84 96z"/><path class="fil23" d="M14260 5218c1-66 51-114 92-147 62-52 74-54 160-85 5-12 6-20 9-33l8-26c0-5 2-6 3-9-2 21 1 33-27 11-34-27-23 6-7-39-76 24-175-13-241 27 104 36 175 127-36 76-18-4-33-7-51-7l-53 10c48 24 105 34 101 97l-124 4c129 39 97 51 166 121z"/><path class="fil13" d="M16407 6330l-22 2c27 128 47 254 132 294 18-39 4-60 30-96 10-68 82-185 117-224-6-3-3-7-26-4-38 0-64 14-104 21-49 8-82 2-127 7z"/><path class="fil14" d="M17313 4995c35-13 62-34 101-51 33-14 82-23 111-37-24-13-13 3-10-35 6-57 119-211 158-238-18-23 5-31-61 10-68 42-93 48-168 106-64 51-123 117-131 245z"/><path class="fil0" d="M15421 7906c17 138 115 201 227 256 21 10 32 16 54 26 54 24 46 12 51 3-82-70-150-145-140-295l-192 10z"/><path class="fil2" d="M16638 6302c23-3 20 1 26 4-35 39-107 156-117 224-5 68 19 165 58 205 37-36 114-157 172-148-20-45-39-42-59-69-10 57-42 131-84 151-62-134 103-363 151-428-31 7-128 37-147 61z"/><path class="fil4" d="M17700 7816c49-20 91-71 123-105 26-29 87-79 92-115-56 4-123-6-166-15-68 86-149 128-172 189 21 11 42 22 67 33 1 1 26 13 33 15 44 12 19 4 23-2z"/><path class="fil12" d="M13805 7862l124-24c-18-23-142-114-225-235-41-61-142-239-170-312l-49-13c56 113 81 202 145 312 29 50 55 93 86 138 26 38 83 97 89 134z"/><path class="fil4" d="M15602 16049c79-35 211-79 202-189-7-88-121-218-205-204 25 67 87 69 75 193-9 96-59 142-72 200zm-503 54c78 12 111-9 143-52 107-142-114-299-195-263 2 3 6 13 8 15l18 24c92 105 50 158 26 276z"/><path class="fil11" d="M16947 7879l7 7 31 30c56 27 87 82 157 116 40-13 125-51 156-73-1-2-4-7-4-5l-51-37c-95-57-108-67-171-134-8 41 5 14-26 41-11 10-20 15-28 20-31 22-32 26-71 35z"/><path d="M17525 4907c-29 14-78 23-111 37-39 17-66 38-101 51l-56 51c11 4 1 4 18 2 0 0 26-8 27-9 32-43 117-53 170-87 176-16 214-56 402 7-46 26-159 35-183 86 30 10 55 6 87 7l84 12c-72 40-152 61-180 124 78 11 30-1 47-14-28-16-35-10 9-40 16-11 35-20 54-28 43-18 88-19 124-42-29-46-107-34-153-35l13-11c61-40 122-22 170-42-6-61-78-80-149-82-113-9-175 6-272 13z" fill="#414146"/><path class="fil11" d="M15010 7375l29-8c42 8 34 22 52 62 15 33 25 41 39 74 99-55 207-59 285-101 38-21 4-2 20-12-63-20-60-36-102-75-56 8-99 20-155 32-45 10-141 8-168 28z"/><path class="fil2" d="M15791 7059c33-58-17 7 82 9 23-27 24-40 56-57 6-53 55-295 97-289l13-65-220 271c-34 45-50 88-28 131z"/><path class="fil4" d="M16415 7461c42 91 136 133 260 142-16-60-31-92-13-155l-15 26c-73-35-115-73-169-132l-5-5c-1-2-4-5-5-6l-11-11c-2 84 20 105 40 178-50-13-47-13-82-37z"/><path class="fil25" d="M17729 5174c-17 13 31 25-47 14l-16 5c-7 11-8 18-8 19-4 24-24-19 7 7l44-9 98-30c-18 38-52 75-55 125 48-2 54-26 112-24 1 43-32 98-50 136-3 70 10 125 79 115l13-47-2-10c-52-58 5-174 26-237l-121 10c18-41 56-77 63-113-40-2-114 20-143 39z"/><path class="fil13" d="M15805 7201c24 47 24 84 92 125 56 34 78 43 95 126l-16 82c67-1 112-88 90-159-17-52-61-76-101-96l-46-29c-53-6-45-25-78-34-29-29-32-39-36-15z"/><path class="fil4" d="M17345 7935c18 27-7 1 17 17 7 6 11 8 19 12 19 8 23 7 46 21 78-14 171-98 229-117-1-58-43-27-96-83-41 19-66 50-109 81-34 25-70 44-106 69z"/><path d="M15721 6520c31-38 19-73 13-125l233 60c13-71-10-66-19-122-109 20-207-35-280-73 40 110 75 107 53 260z" fill="#7c868a"/><path class="fil20" d="M17366 6232c-2-28-10-20 57-56 60-33 181-83 216-140-207 71-321 33-395 58 136 129 38 37 122 138z"/><path d="M17169 7579l31 16c21 10 7-8 30 23 82 11 24 7 46-18-17-11-2 12-17-24l-57-27-33-14c-32-10-1 1-22-9l-67-41c-25-25-2 9-25-36l117 20 2 1c-54-14-124-32-186-52-74-24-133-62-175-41-2 31-2 19 30 40 72 46 229 111 302 147l24 15z" fill="#e4f4f4"/><path class="fil3" d="M15924 6307l-47-46c-108-106-289-173-438-192l64 39c19 9 35 17 57 30 127 73 201 147 364 169z"/><path class="fil4" d="M17709 5210c-2 2-6 2-8 7-14 39-6 5-16 12-9 6 0-1-18 11 13 93 77 173 131 203 0-55-4-3 16-26 18-38 51-93 50-136-58-2-64 22-112 24 3-50 37-87 55-125l-98 30zm-1486 2532c-19 16 3 9-38 19-11 3-26 2-37 2 89 80 134 168 366 150 27-1-52-33-67-41-29-15-55-31-81-47-97-60-107-104-143-83z"/><path class="fil14" d="M15791 7059c6 63 33 107 50 157 33 9 25 28 78 34l67 9c-40-57-29-27-52-106-18-63-14-75-5-142-32 17-33 30-56 57-99-2-49-67-82-9z"/><path class="fil0" d="M16165 15361c4 67-1 83-11 142 78-19 152-36 155-123 2-52-45-138-75-167-25-24-4-6-25-19 6 42 19 81 18 128-1 11-4 54-7 63-18 57 2 22-31 40-8-36-1-37-24-64z"/><path class="fil4" d="M16051 15659c-1-41-6-43-29-78-6-9-12-21-19-30-22-25-6-14-31-20l-58-9c3 57 25 84 36 139 14 69-2 98 58 115 63-28 35-62 43-117z"/><path class="fil28" d="M14463 8708c-28-2-55-5-85-9-35-5-49 0-59-24-20 19-100 197-109 239 46-28 90-63 133-98l120-108z"/><path d="M17045 6205c-110 69-62 174-14 250 89-41 82-192 14-250zm-1890 30c-2 57 25 94 41 130 36-18 42-30 55-63 34-56 34-137-15-186-43 21-72 60-81 119z" fill="#363539"/><path d="M16446 7211l-21 34c-1 3-4 3-5 7-2 10-81 66-5 209 35 24 32 24 82 37-20-73-42-94-40-178 13-74 40-101 74-139l-24-2c-23 13-35 16-61 32z" fill="#ebecf0"/><path d="M15152 7530c27 14 46 27 55 54 119-64 244-101 369-140-49-11-52-26-103-19l-321 105z" fill="#cbcfd2"/><path class="fil1" d="M13955 8081l55-16c-9-36-66-69-94-97-20-20-28-30-47-51-26-27-21-25-66-22l-34-1c-29 26-19 20 20 54 25 21 30 31 54 54 19 20 83 84 112 79zm22 22c1 2 3 3 3 6l52 46c57 39 168 115 231 128l29-32c-15-20-101-65-133-86-24-17-40-26-63-44-28-21-33-36-77-36l-42 18z"/><path class="fil2" d="M13936 7873c73-4 49 4 107 28 31 13 68 22 106 17 82-9 94-75 134-124-59 19-329 68-347 79z"/><path class="fil1" d="M17874 7894c36 14 24 15 54 6 20-28 39-42 59-65 19-24 38-46 56-71 26-36 76-131 100-157-23-32 8-16-33-22-39-5-11-2-25 13-1 1-73 142-146 219-34 36-57 46-65 77z"/><path class="fil32" d="M17202 7549l57 27c48 7 91 61 128 50 6-2 57-32 63-35 42-23 44-20 37-48-70 5-188-28-261-41 6 41 15 47-24 47z"/><path class="fil11" d="M16894 7770c38-10 98-20 138-17-30-18-36-4-56-51-27-23-50-43-76-68-29-27-39-54-85-54 8 56 45 151 79 190z"/><path class="fil4" d="M16154 6990c84 8 170 9 233 48 2-67-21-110-86-119-66-9-126 26-147 71z"/><path class="fil32" d="M14991 7576c40 1 21-6 39 32 6 13 9 30 11 49l166-73c-9-27-28-40-55-54-36 5-46 11-79 23-14 5-23 7-37 10l-45 13zm118 166c28-1 36 1 57 13l16 14c19 21-2-7 14 22 3-2 6-8 7-6l78-55c27-16 52-38 83-48-11-39 4-8-20-26-9-7-15-5-26-7-61 16-99 47-149 67l-60 26z"/><path class="fil23" d="M16026 7266c13 20 35 49 49 78 22 45 20 54 60 83-17-92 9-233-88-229-20 28-15 25-21 68z"/><path class="fil25" d="M17067 7744c16 10 12 1 17 20 60 4 15-16 59-30 19-41 61-85 57-139l-31-16c-46 3-41 34-63 80-18 38-35 49-39 85zm592 346c35-21 199-130 206-131l6-20c-76-19-28-16-139 52-45 27-87 54-132 72 4 5 5 28 59 27z"/><path class="fil23" d="M16246 7420c25-12 27-16 52-27 4-25 11-38 17-78 7-43 6-45 50-52l-16-64c-70-12-69 14-80 83-9 48-9 89-23 138z"/><path class="fil18" d="M14773 8440c18 34-7 4 22 18 5 3 26 8 33 8 20 3 45 4 67 6 51 4 100 9 151 6l11-40c-26-21-82-8-134-9-45-2-85-11-127-1-22 4 0-7-23 12z"/><path class="fil0" d="M13987 7412l-149-25c49 52 77 131 127 169 19-33 19-98 22-144z"/><path d="M17142 8099c16 22 177 120 199 68v-12c-15-44-88-45-105-90l-54 9c-9-12 16-6-24-12 0 19 8 17 18 24-15 17 24 15-34 13z" fill="#cbd7d8"/><path class="fil25" d="M14299 8290c-9 36-6 16 24 34 14 8 34 15 47 21 36 16 63 31 104 32 26-21 24-19 38-44-62-19-132-58-194-64l-19 21z"/><path class="fil18" d="M14509 8393c36 27 172 59 218 46 17-5 6 1 22-15-24-30-50-25-109-45-41-13-67-34-107-19-26 13-17 12-24 33z"/><path class="fil2" d="M15008 7538l122-35c-14-33-24-41-39-74-18-40-10-54-52-62-14 70-28 87-31 171z"/><path class="fil9" d="M14976 7381c-9 23-21 52-28 84-2 9-6 36-7 44-1 48-6 30 14 48l53-19c3-84 17-101 31-171l-29 8-34 6z"/><path class="fil28" d="M16867 7916l24 44c34 24 81 92 98 121l74-24-86-72c-1-4-4-4-5-7-32-32-22-12-53-58l-14-22c-1-5-4-5-6-8l-6 25-26 1z"/><path class="fil25" d="M17465 8195l146-73c-15-24 14-3-22-25-7-4-19-7-26-6-21 0-75 35-112 49-31 13-36 13-57 37 33 13 24 17 71 18z"/><path class="fil9" d="M17191 8293l183-61c-21-60-81-25-124-9-41 14-162 39-59 70z"/><path class="fil3" d="M14895 6105c2-8 11-35 12-41l-3-37-206-14c25 31 51 33 96 51 34 14 64 27 101 41z"/><path class="fil34" d="M15216 7799c17 0 32-5 48 2 28 14 9 1 23 31 66-75 97-82 141-121 13-12 9-5 13-17l-30-7c-33 11-61 33-92 52l-103 60zm-183-124l39-4c11 19 9 18 18 38 52-38 124-52 178-84l-20-27c-41 6-65 19-104 36l-78 25c-3 1-6 2-8 3l-17 8c-2 1-5 3-8 5z"/><path class="fil35" d="M17228 6172c-87-23-90 84-62 102 53 34 98-42 62-102z"/><path d="M17143 7734l159-65-72-51c-23-31-9-13-30-23 4 54-38 98-57 139zm-249 36c3 32 23 72 46 92-11-41-9-11 15-32 3-3 21-13 30-19 23-15 37-27 50-46l-3-12c-40-3-100 7-138 17z" fill="#a8b0b3"/><path class="fil2" d="M15230 8103c31-22 51-68 70-100 22-37 47-68 63-105l-21 5c-76 20-94 116-112 200z"/><path class="fil25" d="M15054 7773c19 34 38 32 66 59l76-41c-16-29 5-1-14-22l-16-14c-21-12-29-14-57-13l-55 31z"/><path class="fil35" d="M15392 6100c-67 7-90 32-69 98 76 7 104-50 69-98z"/><path class="fil9" d="M16940 7862l7 17c39-9 40-13 71-35 8-5 17-10 28-20 31-27 18 0 26-41l-37-18c-13 19-27 31-50 46-9 6-27 16-30 19-24 21-26-9-15 32z"/><path class="fil25" d="M14959 7590c-10 30-8 60 18 81l42-6 22-8c-2-19-5-36-11-49-18-38 1-31-39-32l-32 14z"/><path class="fil18" d="M15167 7843c15 19 39 23 67 23 28-14 22-24 53-34-14-30 5-17-23-31-16-7-31-2-48-2-17 23-33 22-49 44z"/><path class="fil34" d="M15336 7832c18-2 19-7 37-3 53 12 11-5 29 20l76-124-3-14-139 121z"/><path d="M16788 7771l33 3c-9-28-27-53-36-85-6-19-6-27-10-48-9-50-8-38-24-51-28 48 33 175 37 181z" fill="#ccd0d3"/><path class="fil1" d="M15304 7873l-10 16c5 1 25 3 29 5 17 5 9 3 19 9l21-5 39-49c-18-25 24-8-29-20-18-4-19 1-37 3-13 22-21 17-32 41z"/><path class="fil9" d="M14993 7691c0 36 5 40 40 42l57-24c-9-20-7-19-18-38l-39 4-5-5c-14 16-1 16-35 21z"/><path d="M16849 7888c1-28 2-20 33-17l-61-97-33-3 61 117z" fill="#adb4b5"/><path class="fil3" d="M13452 7229c9 28 34 22 54 22 6-15-40-111-58-133l24 106c-13 11 9 10-20 5z"/><path d="M17169 7535l33 14c39 0 30-6 24-47l-54-14-3 47z" fill="#3a3a3e"/><path d="M16867 7916l26-1 6-25c-15-8-4 8-17-19-31-3-32-11-33 17l18 28z" fill="#3d3d42"/></g></svg>