<svg xmlns="http://www.w3.org/2000/svg" xmlns:xlink="http://www.w3.org/1999/xlink" version="1.0" width="804" height="801" viewBox="-2 -1 802 801"><g transform="translate(85.714 -78.076)"><path d="M796.168 429.52a384.036 372.487 0 1 1-768.073 0 384.036 372.487 0 1 1 768.073 0z" transform="matrix(1.04487 0 0 1.07065 -116 17.545)" style="marker:none" overflow="visible" fill="#fff" fill-rule="evenodd" stroke="#000" stroke-width=".122"/><g id="a" fill-rule="evenodd" stroke-width=".5"><path transform="rotate(5.064)" style="marker:none" overflow="visible" d="M356.129 88.685h13.746v35.26h-13.746z"/><path transform="rotate(12.131)" style="marker:none" overflow="visible" d="M402.142 41.127h13.746v35.26h-13.746z"/><path transform="rotate(17.678)" style="marker:none" overflow="visible" d="M441.403-.644h13.746v35.26h-13.746z"/><path transform="rotate(27.406)" style="marker:none" overflow="visible" d="M472.916-81.153h13.746v35.26h-13.746z"/><path transform="rotate(30.091)" style="marker:none" overflow="visible" d="M498.015-104.132h27.706v85.764h-27.706z"/></g><use transform="rotate(30.408 322.07 469.997)" width="744.094" height="1052.362" xlink:href="#a"/><use transform="rotate(91.812 325.835 471.889)" width="744.094" height="1052.362" xlink:href="#a"/><use transform="rotate(119.677 315.68 474.48)" width="744.094" height="1052.362" xlink:href="#a"/><use transform="rotate(-62.041 314.042 467.893)" width="744.094" height="1052.362" xlink:href="#a"/><use transform="rotate(-90.059 315.73 479.677)" width="744.094" height="1052.362" xlink:href="#a"/><g id="b" fill-rule="evenodd" stroke-width=".5"><path transform="rotate(-25.029)" style="marker:none" overflow="visible" d="M83.825 207.743h13.746v35.26H83.825z"/><path transform="rotate(-17.963)" style="marker:none" overflow="visible" d="M146.552 192.778h13.746v35.26h-13.746z"/><path transform="rotate(-12.416)" style="marker:none" overflow="visible" d="M201.669 175.003h13.746v35.26h-13.746z"/><path transform="rotate(-4.568)" style="marker:none" overflow="visible" d="M262.707 141.978h13.746v35.26h-13.746z"/><path style="marker:none" overflow="visible" d="M303.157 119.951h26.695v106.977h-26.695z"/></g><use transform="rotate(88.69 315.594 479.388)" width="744.094" height="1052.362" xlink:href="#b"/><use transform="rotate(177.606 309.571 476.068)" width="744.094" height="1052.362" xlink:href="#a"/><use transform="rotate(180 315.499 477.753)" width="744.094" height="1052.362" xlink:href="#b"/><use transform="rotate(-151.861 310.998 476.962)" width="744.094" height="1052.362" xlink:href="#a"/><use transform="rotate(-90 315.426 480.354)" width="744.094" height="1052.362" xlink:href="#b"/><path d="M249.978 429.144l-12.055 33.674L521.9 563.508l23.561-10.403-13.342-24.32-282.142-99.64z" style="marker:none" overflow="visible" fill-rule="evenodd"/><path d="M396.337 414.634l12.72 20.58L25.746 636.783l-18.44-7.508 5.741-19.57 383.29-195.07z" style="marker:none" overflow="visible" fill-rule="evenodd"/><path d="M327.469 371.625l-43.844 242.531a41.455 41.455 0 0 0-2.969-.125c-23.056 0-41.781 18.75-41.781 41.875 0 18.992 12.623 35.056 29.906 40.188l-18.594 102.875 1.907 4.25 3.531-2.719 21.031-102.875c1.313.125 2.655.188 4 .188 23.057 0 41.75-18.782 41.75-41.907 0-18.694-12.226-34.52-29.094-39.906l49.375-241.687-15.218-2.688zm-46.094 265.313c10.69 0 19.375 8.658 19.375 19.312 0 10.655-8.685 19.281-19.375 19.281s-19.344-8.626-19.344-19.281c0-10.654 8.654-19.312 19.344-19.312z" style="marker:none" overflow="visible" fill="#a40000" fill-rule="evenodd"/></g></svg>