<svg viewBox="0 0 511.408 259.938" xmlns="http://www.w3.org/2000/svg"><defs><filter height="1.271" id="e" width="1.271" x="-.135" y="-.135"><feGaussianBlur stdDeviation="4.624"/></filter><filter height="1.469" id="d" width="1.469" x="-.235" y="-.235"><feGaussianBlur stdDeviation="8.015"/></filter><linearGradient gradientUnits="userSpaceOnUse" id="c" x1="260.497" x2="259.68" y1="210.412" y2="152.452"><stop offset="0"/><stop offset="1" stop-opacity="0"/></linearGradient><linearGradient gradientUnits="userSpaceOnUse" id="b" x2="0" y1="149.759" y2="122.05"><stop offset="0" stop-color="#4d4d4d"/><stop offset=".433" stop-color="#1a1a1a"/><stop offset="1"/></linearGradient><linearGradient gradientUnits="userSpaceOnUse" id="a" x1="257.231" x2="255.191" y1="209.187" y2="153.677"><stop offset="0" stop-color="#bbb"/><stop offset=".534" stop-color="#393939" stop-opacity=".31"/><stop offset="1" stop-opacity="0"/></linearGradient></defs><path d="M427.565 28.303c57.312-98.173-5.333 102.412-46.846 136.377l.39-.086" fill="none" stroke="#000" stroke-width="3"/><path d="M401.088 125.759l35-75 7 3-35 76-7-4z" fill="#28170b" fill-rule="evenodd" stroke="#000"/><path d="M382.604 255.268c-7.353-.393-15.374-1.214-17.824-1.824-4.835-1.205-214.944-.875-243.102.382-16.4.732-42.648-.741-51.084-2.867-3.155-.795-14.32-1.625-27.144-2.017-22.35-.684-36.21-2.229-36.83-4.107-.558-1.685 17.552-9.77 36.335-16.223 6.263-2.152 11.165-3.936 10.892-3.965-7.641-.823-30.136-4.149-30.788-4.552-1.235-.763-1.131-3.771.175-5.077 3.545-3.545-4.111-10.39-13.128-11.739l-4.628-.691L5.65 198c.094-2.522-.183-6.652-.615-9.177-.777-4.532-.746-4.606 2.375-5.694 1.74-.606 4.681-1.102 6.537-1.102 3.239 0 3.51-.3 6.767-7.445 2.48-5.44 4.082-7.707 5.95-8.417 3.952-1.503 8.073-1.19 8.785.665.584 1.52.715 1.521 1.84.005.94-1.268 5.276-2.076 19.41-3.618 10.01-1.092 22.263-2 27.23-2.017s13.9-.643 19.848-1.39c11.566-1.45 13.436-1.272 13.46 1.28.013 1.35.167 1.387.908.217.746-1.179 1.92-.955 7.164 1.363 7.097 3.138 16.422 9.862 17.87 12.884.531 1.109 2.15 2.943 3.596 4.075 2.52 1.972 3.509 2.04 23.672 1.61 22.167-.473 22.62-.584 20.005-4.92-.571-.945-2.91-7.288-5.199-14.095l-4.161-12.376-3.714.322c-3.808.33-4.62-.508-2.525-2.603 1.654-1.654 4.702-1.486 5.386.297.313.817 1.151 1.485 1.862 1.485s2.497 3.23 3.968 7.18 3.739 9.572 5.038 12.497 2.363 6.066 2.363 6.98c0 4.056-.27 4.04 69.789 4.04 59.41 0 67.673-.183 69.613-1.541 1.21-.848 2.2-2.043 2.2-2.655s2.16-4.263 4.8-8.113c10.357-15.104 10.414-15.26 9.654-26.63-.774-11.572-2.491-22.498-3.763-23.94-.48-.545-3.416-1.436-6.525-1.98-4.792-.84-5.7-1.338-5.974-3.274-.415-2.923 1.435-5.144 4.284-5.144 1.228 0 2.792-.673 3.475-1.496 1.104-1.33 1.365-1.331 2.35-.009 1.057 1.42 5.911 2.082 9.912 1.352 2.824-.515 3.096 1.988.332 3.039l-2.412.917 1.426 7.753c.784 4.265 1.834 8.177 2.331 8.695s.905 2.874.905 5.238c0 5.374 2.821 11.006 8.615 17.2 6.08 6.5 12.881 9.11 24.063 9.235 4.63.052 8.863.356 9.407.677s11.462.536 24.26.48c23.233-.103 23.272-.107 23.583-2.296.294-2.068.857-2.21 9.902-2.476l9.59-.282-3.465-1.794c-1.906-.987-6.91-2.191-11.12-2.678s-8.666-1.46-9.902-2.167c-2.97-1.696-41.58-2.23-45.596-.631-2.196.874-3.092.79-4.456-.414-.94-.83-3.668-1.83-6.063-2.223-7.213-1.183-10.802-3.198-13.603-7.635-1.441-2.283-2.933-5.286-3.315-6.673-.785-2.853.55-6.603 2.636-7.404 1.62-.621 20.508 2.072 43.888 6.257 8.986 1.609 21.24 3.642 27.231 4.518 20.332 2.973 22.538 3.441 24.483 5.2 4.463 4.04 4.445 7.576-.045 8.703-2.554.642-2.58.716-.73 2.07 1.057.773 3.42 1.405 5.25 1.405 2.813 0 3.49.463 4.37 2.991 1.319 3.782 4.077 5.385 6.777 3.94 1.089-.582 1.98-1.49 1.98-2.015 0-1.86 1.679-.92 2.816 1.576 1.426 3.13 3.126 2.288 3.126-1.55 0-4.634-2.08-12.975-3.315-13.302-.628-.167-4.706-1.46-9.063-2.874-9.776-3.173-24.266-6.75-38.62-9.535-5.99-1.163-11.528-2.329-12.305-2.592-4.009-1.355 6.955-5.2 15.6-5.47l3.637-.114-3.763-.728c-6.093-1.18-6.3-2.379-.998-5.764 4.412-2.817 14.141-7.143 16.065-7.143.459 0 1.388 1.337 2.064 2.97s1.725 2.971 2.329 2.971 3.78-1.662 7.059-3.695c5.157-3.197 6.927-3.745 13.124-4.068 7.107-.37 7.17-.351 8.22 2.457.582 1.557 1.854 4.613 2.826 6.792 5.31 11.9 6.225 15.341 6.243 23.499.014 6.518.585 9.703 2.796 15.615 1.529 4.085 3.09 9.209 3.47 11.387s1.98 5.606 3.554 7.617c4.451 5.685 3.317 13.56-2.603 18.076-2.304 1.757-3.447 3.445-3.447 5.087 0 3.692-2.535 9.021-4.89 10.282-1.147.614-4.83.984-8.183.822l-6.097-.294.197-6.436c.223-7.299-.232-8.34-4.05-9.274-2.588-.633-2.732-.481-2.897 3.066-.275 5.934.275 11.628 1.155 11.952 1.018.376-3.327 5.148-4.687 5.148-.552 0-1.566-.678-2.254-1.508-1.417-1.707-2.772-1.437-11.02 2.195-4.358 1.92-6.024 2.231-7.55 1.415-1.754-.939-2.021-.665-2.566 2.633-1.333 8.06-1.05 8.788 3.911 10.037 4.982 1.254 37.924 13.5 38.874 14.451 1.05 1.05-2.223 2.434-5.794 2.45-1.91.007-5.029.51-6.931 1.115s-9.252 1.48-16.333 1.942c-16.413 1.071-20.513 1.744-21.98 3.609-.652.829-3.294 1.9-5.87 2.382-4.733.884-33.845 2.972-37.505 2.69-1.089-.085-7.996-.475-15.348-.867zm-281.72-17.787c-.337-.545-1.281-.99-2.098-.99s-1.21.445-.873.99 1.28.99 2.097.99 1.21-.446.873-.99zm-5.447-2.971c0-.545-.472-.99-1.049-.99s-.773.445-.436.99.808.99 1.048.99.437-.446.437-.99zm9.902-7.368c0-.24-.445-.712-.99-1.05s-.99-.14-.99.438.445 1.048.99 1.048.99-.196.99-.436zm-32.856-5.258c.38-2.681-.069-2.727-4.918-.495-4.952 2.28-4.806 3.404.393 3.028 3.499-.253 4.262-.68 4.525-2.533zm335.867-.247c0-1.452-.66-1.98-2.476-1.98-2.703 0-3.133.926-1.287 2.772 1.822 1.822 3.763 1.414 3.763-.792zm-100.087-1.397c.838-1.01.856-1.585.066-2.073-1.318-.815-66.653-.688-68.795.134-.827.317-1.504 1.198-1.504 1.956 0 2.069 68.517 2.051 70.233-.017zm6.468-1.642c-.932-1.507-2.42-1.047-1.804.558.313.813.974 1.228 1.47.921s.647-.972.334-1.48zM201.398 207.03c.004-.408-2.086-5.301-4.645-10.872l-4.652-10.13-12.9.527c-7.096.29-13.101.727-13.345.97s1.08.45 2.94.458 3.995.403 4.742.876c.862.546-1.941 1.121-7.679 1.575l-9.037.716 2.728 5.029c1.5 2.766 4.117 6.506 5.815 8.311l3.088 3.283h16.47c9.057 0 16.472-.335 16.475-.743zm108.628-4.046c5.959-4.958 16.716-16.745 15.966-17.495-.234-.234-1.74-.034-3.347.446s-2.56.91-2.12.958.505.564.143 1.15c-.428.692-1.246.433-2.342-.743-1.594-1.71-4.843-1.808-60.712-1.808-32.465 0-59.286.258-59.6.573-.704.703 4.977 17.762 6.383 19.168.995.995 33.881 1.979 78.885 2.361l20.99.179 5.754-4.789zm42.833 2.56c.5-1.225 1.917-5.762 3.148-10.083 1.7-5.972 1.94-7.955.996-8.27-.871-.29-.709-.816.545-1.767 1.541-1.169.105-1.358-10.497-1.385l-12.283-.032-11.618 11.883-11.618 11.883h20.208c20.028 0 20.217-.02 21.12-2.228zm-216.823-24.622c0-1.615-6.805-7.642-11.387-10.086-4.245-2.264-15.872-2.995-21.734-1.367-3.898 1.083-1.584 2.62 3.977 2.64 6.031.023 17.455 3.325 23.392 6.763 6.204 3.591 5.752 3.43 5.752 2.05zm229.634-4.911c1.019-1.675 2.795-3.705 3.947-4.512 2.96-2.074 2.637-3.019-1.816-5.29-3.878-1.978-8.626-8.66-12.583-17.708l-1.578-3.608-1.747 5.668c-1.914 6.206-6.275 14.478-11.524 21.856-1.857 2.612-3.114 5.174-2.793 5.694.322.521 6.336.945 13.413.945h12.83l1.851-3.045zm16.684-.29c10.833-7.68 28.914-10.948 43.82-7.92 1.603.325 2.127.166 1.485-.452-2.848-2.745-18.314-3.897-27.726-2.065-2.723.53-7.204 1.11-9.957 1.288-7.711.5-10.423 2.679-12.76 10.256-.906 2.937-.421 2.833 5.138-1.108zm71.546-51.623c-.678-.817-2.403-1.47-3.834-1.45l-2.602.035 2.475 1.415c3.457 1.976 5.601 1.976 3.961 0zm-290.137 50.007c0-1.176 1.72-1.176 4.456 0 1.66.713 1.459.862-1.238.92-1.77.039-3.218-.376-3.218-.92zm51.071-2.17c-.221-.713-.66-4.788-.976-9.056s-.824-8.167-1.132-8.665-2.79-.904-5.517-.904-5.82-.461-6.873-1.025c-2.11-1.13-2.529-4.89-.886-7.96 1.168-2.182 13.754-8.84 16.712-8.84 1.07 0 2.253-.495 2.627-1.1.437-.707 2.36-.878 5.377-.478 3.962.526 5.917.102 12.498-2.706 10.827-4.62 22.468-8.329 30.083-9.585 3.54-.585 20.252-1.334 37.137-1.666 28.774-.565 30.794-.491 32.183 1.179 1.056 1.27 1.576 4.819 1.812 12.371.423 13.519.163 13.846-11.047 13.927-4.454.033-15.228.232-23.942.443s-29.428.664-46.031 1.004c-18.151.373-30.675 1.024-31.408 1.632-.79.656-1.318 4.726-1.5 11.563l-.28 10.55-4.217.305c-2.826.205-4.35-.122-4.62-.99zm29.763-29.192c-.349-2.544-.848-4.839-1.109-5.1-.939-.939-13.882 5.446-14.18 6.996-.358 1.858 1.758 2.402 10.094 2.595l5.829.135-.634-4.626zm48.38 2.792l14.841-.642.768-5.35c.422-2.943.504-5.615.18-5.938-.978-.978-15.271-1.209-23.665-.382-7.813.77-7.895.807-8.808 3.996-.75 2.623-1.641 3.413-4.812 4.267-4.958 1.335-12.01-.709-12.447-3.607a84.86 84.86 0 0 0-.803-4.29l-.516-2.391-1.84 3.026c-1.013 1.664-2.322 3.324-2.911 3.688-1.192.737-1.475 7.732-.357 8.85.392.392 6.296.421 13.12.064s19.086-.937 27.25-1.29zm7.355-23.555c.227-.197-4.144-.357-9.713-.357-6.4 0-9.904.359-9.523.976.547.884 18.154.317 19.236-.62zm31.467 42.58c-.924-.925.192-2.338 1.847-2.338.785 0 1.427.668 1.427 1.485 0 1.492-2.09 2.036-3.274.853zm77.213-41.081c-.998-.58-2.712-.82-3.81-.533-2.232.584-4.774-.129-4.774-1.338 0-.437 2-2.059 4.444-3.605 4.482-2.836 5.93-4.717 4.908-6.372-.306-.495-1.2-.9-1.984-.9s-1.427-.446-1.427-.991c0-1.292 3.566-1.271 6.007.035 2.18 1.166 2.479 4.04.715 6.865-.66 1.057-.848 2.275-.417 2.706s4.335.945 8.674 1.142c5.34.243 7.77.724 7.517 1.49-.707 2.14-16.678 3.347-19.853 1.5zm-25.913-3.53c-1.09-.274-2.325-.823-2.747-1.219-1.925-1.808 7.682-6.889 13.144-6.951 1.947-.022 2.159.174.99.92-.825.527-1.485 2.391-1.485 4.194 0 3.099-.177 3.251-3.96 3.4-2.18.085-4.853-.07-5.942-.344zm-133.186-1.328c0-.528.668-.96 1.485-.96s1.486.176 1.486.39-.669.646-1.486.96-1.485.137-1.485-.39zm92.091-16.707c-.817-.456-3.713-1.834-6.436-3.06-4.756-2.142-4.855-2.266-2.503-3.148 1.53-.574 3.2-.56 4.456.04 1.104.529 3.558 1.229 5.454 1.557 2.828.489 3.752.192 5.157-1.653 1.462-1.921 1.97-2.064 3.485-.982.976.696 2.555 1.528 3.508 1.848s1.733.965 1.733 1.434c0 1.454-4.49 3.878-7.01 3.784-1.319-.05-3.289.158-4.378.46s-2.649.177-3.466-.28z"/><path d="M374.914 254.337c-3.957-.447-7.967-1.13-8.912-1.517s-52.07-.874-113.614-1.08c-83.95-.283-112.761-.086-115.361.787-7.97 2.675-56.656.7-66.84-2.713-2.558-.857-11.156-1.498-24.262-1.81-18.676-.445-30.713-1.789-30.685-3.426.016-.977 6.704-3.959 12.366-5.514 2.723-.748 6.288-1.836 7.922-2.419 9.03-3.219 17.98-5.324 27.231-6.404l10.398-1.214.311-3.764c.487-5.885-.987-6.856-6.555-4.319-5.671 2.584-14.325 2.8-31.15.778-12.97-1.559-14.811-2.55-12.182-6.562.91-1.389 1.388-3.365 1.062-4.392-.783-2.466-10.596-7.945-14.23-7.945-3.394 0-5.363-1.913-4.09-3.972.996-1.612.18-9.799-1.146-11.493-1.187-1.518 1.065-3.21 5.195-3.904 1.854-.312 4.32-.755 5.48-.985 1.526-.304 3.016-2.483 5.39-7.886 3.452-7.855 4.755-8.88 10.453-8.229 2.817.322 2.843.385 2.843 7.01 0 3.678.255 6.686.568 6.685s1.079-2.752 1.704-6.113 1.505-6.479 1.955-6.929 6.367-1.11 13.149-1.465 14.058-1.248 16.169-1.983 7.61-1.336 12.223-1.336c7.719 0 8.428.167 8.936 2.106l.55 2.107 1.708-2.264c1.44-1.91 3.318-2.473 11.982-3.596 5.65-.732 10.831-1.121 11.512-.864s1.238 1.443 1.238 2.633c0 2.068.085 2.089 1.89.455s2.265-1.53 10.15 2.245c4.542 2.176 9.786 5.54 11.65 7.477 3.319 3.445 3.353 3.564 1.575 5.53-1.934 2.136-1.288 4.16.695 2.177 1.646-1.646 3.46-1.459 5.485.566 1.576 1.576 3.13 1.667 16.586.973 8.167-.42 17.224-.498 20.127-.172 3.905.44 5.709.215 6.932-.862 1.293-1.14 2.888-1.284 7.332-.664 3.124.436 33.648.845 67.831.908 59.468.11 62.311.033 65.864-1.786 2.043-1.046 3.714-1.504 3.714-1.018s6.29.883 13.976.883h13.976l3.808-4.208c2.094-2.315 3.811-4.877 3.816-5.694.005-.817-1.916-2.653-4.269-4.08-3.575-2.167-5.074-4.159-9.128-12.125-2.668-5.243-5.377-9.534-6.021-9.537-2.009-.008-2.536-3.888-1.822-13.408.44-5.887.312-9.885-.36-11.14-.694-1.297-3.312-2.551-7.76-3.717-7.901-2.071-8.607-2.555-7.733-5.307.84-2.647 3.497-2.723 3.497-.1 0 2.4.865 2.53 2.445.37 1.039-1.42 1.614-1.453 4.875-.274 4.842 1.751 5.379 2.517 6.606 9.423.57 3.206 1.66 7.193 2.424 8.859s1.137 3.989.83 5.162c-.803 3.071 3.015 10.302 8.76 16.587 4.06 4.444 6.012 5.73 11.034 7.272 9.363 2.876 14.243 3.457 17.547 2.089 2.01-.833 3.298-.893 4.151-.192.731.6 10.96 1.209 25.003 1.487 20.736.412 24.122.266 26.562-1.142 2.624-1.515 2.88-1.502 4.134.205 1.587 2.161 8.472 3.969 9.853 2.587.518-.517 2.19-.941 3.714-.941 3.196 0 3.727-2.256 1.19-5.058-2.116-2.34-1.259-3.391 2.998-3.678 3.224-.217 3.536-.007 3.536 2.383 0 2.903 5.983 11.718 8.647 12.74 1.068.41 2.187-.01 3.017-1.135.726-.982 1.934-1.662 2.684-1.51 3.2.647 2.997-18.197-.234-21.814-.852-.953-2.213-1.733-3.025-1.733s-5.756-1.38-10.987-3.068-17.668-4.758-27.64-6.825c-21.46-4.447-22.73-5.065-14.378-7.004 7.033-1.632 15.302-1.048 20.378 1.44 4.024 1.972 4.702 2.075 4.689.712-.028-2.885-1.798-4.487-5.124-4.637-5.692-.256-12.685-1.606-12.685-2.448 0-1.734 14.154-9.857 17.176-9.857.769 0 1.956 1.346 2.637 2.992s1.623 3.229 2.092 3.519 2.867-.858 5.329-2.552c6.481-4.46 10.627-5.94 16.637-5.94h5.316l2.802 6.19c4.006 8.849 5.519 13.36 6.558 19.556 1.094 6.525 1.125 7.542.345 11.388-.416 2.056.166 4.699 1.893 8.585 1.372 3.087 3.221 8.435 4.11 11.882s2.693 7.688 4.009 9.421c3.306 4.357 3 14.68-.472 15.895-3.166 1.11-6.048 4.589-6.048 7.303 0 7.301-5.382 11.554-12.994 10.268-3.681-.622-3.773-.73-2.35-2.761.815-1.163 1.481-3.144 1.481-4.401s.557-2.453 1.238-2.656c5.006-1.492 5.256-1.814 1.986-2.552-5.836-1.317-7.495-3.84-4.616-7.022 2.166-2.393 1.016-7.819-1.657-7.819-1.367 0-1.902.695-1.902 2.468v2.468l-4.209-1.635c-2.314-.898-4.835-2.12-5.601-2.715-1.169-.906-1.275-.442-.66 2.88.402 2.179 1.315 5.298 2.028 6.932 1.953 4.477 1.882 18.758-.102 20.405-1.325 1.1-1.782 1.02-2.9-.51-1.602-2.191-5.89-1.66-11.689 1.448-2.139 1.146-5.128 1.9-6.87 1.73l-3.082-.298-1.218 8.417c-.67 4.63-1.505 9.358-1.857 10.509-.701 2.298-.335 2.492 9.424 4.996 9.341 2.396 14.153 3.186 20.3 3.336 4.485.108 5.32.332 3.407.912-1.393.423-3.579 1.329-4.857 2.013-1.961 1.05-15.01 2.418-31.228 3.276-3.231.17-3.961.574-3.961 2.19 0 1.668-1.093 2.185-6.932 3.278-8.246 1.545-47.432 2.36-57.696 1.2zm47.047-16.68c3.486-2.484 6.784-6.118 5.554-6.118-1.466 0-6.276 2.397-6.285 3.131-.004.361-1.901.97-4.216 1.352s-4.648.96-5.184 1.28c-2.336 1.397-14.373-1.006-14.373-2.869 0-.502-.668-.913-1.485-.913-1.806 0-1.939-2.093-.248-3.891 1.018-1.082.754-1.202-1.485-.674-2.636.62-3.775-.61-1.733-1.872 1.713-1.059 1.077-2.475-1.112-2.475-1.818 0-1.923-.215-.78-1.593 1.118-1.347 1.059-1.785-.384-2.84-1.538-1.125-1.554-1.375-.164-2.529 1.017-.844 1.182-1.504.483-1.936-1.417-.876.875-10.934 2.647-11.614.71-.272 1.29-1.13 1.29-1.906s.669-1.667 1.486-1.98 1.485-1.238 1.485-2.055c0-.907.573-1.266 1.47-.922.868.333 1.903-.243 2.526-1.407.58-1.084 1.545-1.668 2.145-1.297s1.678-.128 2.395-1.11c1.006-1.375 1.616-1.525 2.664-.654 1.5 1.244 2.663.571 2.663-1.54 0-1.972-6.237-.682-12.25 2.532-8.25 4.412-12.756 12.375-12.68 22.417.054 7.248 1.823 11.72 6.57 16.606 4.719 4.86 8.74 6.852 15.39 7.624 6.237.724 9.732.019 13.611-2.746zm-308.947 2.17c1.225-.328 2.228-1.038 2.228-1.578s-.701-.712-1.557-.383c-1.705.654-9.586-1.08-12.775-2.812-6.464-3.51-10.538-6.742-10.061-7.984.305-.795-.285-1.628-1.404-1.983-2.575-.818-2.442-2.087.298-2.846l2.228-.617-2.475-1.952c-1.936-1.527-2.111-1.957-.802-1.974 2.253-.03 3.205-1.785 1.852-3.416-.834-1.004-.717-1.473.478-1.932 1.056-.405 1.37-1.263.949-2.591-.448-1.41-.181-1.985.922-1.985.892 0 1.552-.843 1.552-1.98 0-1.09.445-1.981.99-1.981s.99-.669.99-1.486c0-.825.88-1.485 1.98-1.485 1.164 0 1.981-.66 1.981-1.6 0-1.115.603-1.444 1.983-1.083 1.216.318 2.327-.098 2.875-1.076.737-1.318 1.157-1.373 2.425-.32.844.7 2.41.994 3.479.655s2.231-.154 2.581.413 1.454 1.03 2.453 1.03 2.073.669 2.386 1.486 1.476 1.485 2.582 1.485 2.011.639 2.011 1.419.898 1.703 1.995 2.052 1.722 1.074 1.389 1.614.116 1.78 1 2.756 1.342 2.463 1.019 3.304-.089 1.835.52 2.211c.803.497.78 1.077-.09 2.123-1.566 1.887.47 4.36 2.181 2.65 1.545-1.545-.697-11.616-3.613-16.237-7.336-11.62-25.3-13.422-35.533-3.566-6.679 6.432-8.294 15.61-4.522 25.69 2.06 5.51 7.602 11.8 11.889 13.498 2.807 1.111 10.279 1.375 13.616.481zm7.179-3.278c0-.513-.446-1.207-.99-1.544s-.99.083-.99.932.445 1.544.99 1.544.99-.42.99-.932zm157.446-2.937c40.66-.01 67.336-2.06 67.336-5.174 0-.473-15.04-.896-33.42-.94s-54.81-.211-80.952-.37-51.874-.079-57.183.177l-9.652.464 3.39 2.3c3.822 2.594 6.976 2.798 62.455 4.04 15.794.354 28.85.76 29.014.902s1.946-.114 3.96-.569 8.79-.828 15.052-.83zm-152.495-.036c0-1.134-4.148-4.16-4.803-3.505-.591.591 2.846 4.439 3.966 4.439.46 0 .837-.42.837-.934zM113.357 229c5.826-2.676 6.312-3.033 7.537-5.523.953-1.938.905-3.681-.233-8.559-1.917-8.218-4.385-10.611-10.943-10.611-6.16 0-11.794 3.74-13.102 8.7-.921 3.492.746 11.622 2.92 14.242 2.852 3.436 8.573 4.161 13.82 1.75zm-9.478-7.324c-.323-.522-.061-1.792.581-2.821 1.767-2.83.316-7.464-2.136-6.823-2.235.585-2.483-.98-.557-3.517 1.84-2.423 4.88-2.314 4.099.148-.421 1.327.216 2.491 2.161 3.95 4.763 3.574 5.294 4.164 4.662 5.187-.34.548.207 1.6 1.214 2.335 2.589 1.894.853 3.096-2.149 1.49-1.916-1.026-2.765-1.065-3.662-.167-1.412 1.412-3.411 1.516-4.213.218zm9.846-8.012c-.94-1.522.348-2.504 1.62-1.233.71.71.728 1.265.051 1.683-.554.342-1.306.14-1.67-.45zm15.125 15.173c.39-1.17-3.48-2.807-4.417-1.87-.822.823 1.819 3.707 3.026 3.304.565-.188 1.19-.833 1.39-1.434zm291.304-1.94c1.318-1.19 2.542-3.195 2.72-4.455 1.65-11.706 1.704-11.269-1.808-14.848-7.873-8.025-12.798-8.907-18.134-3.25-4.182 4.435-6.474 9.237-6.434 13.48.037 3.842 1.528 6.108 6.101 9.27 4.5 3.112 14.01 3.006 17.555-.196zm-12.795-8.946c-2.686-.482-5.178-2.257-3.168-2.257.653 0 2.08-.89 3.168-1.98 2.835-2.835 6.932-2.66 6.932.297 0 2.45-1.73 4.738-3.416 4.52-.572-.075-2.154-.335-3.516-.58zm23.27 10.616c.337-.544.14-.99-.436-.99s-1.049.446-1.049.99.197.99.437.99.712-.445 1.049-.99zm-299.885-4.498c.798-2.082-.09-2.744-2.607-1.945-1.686.535-1.875.949-.944 2.07 1.515 1.826 2.82 1.78 3.55-.125zm302.361-.347c0-1.045-2.454-2.099-4.784-2.055-1.425.027-1.388.232.27 1.486 2.146 1.623 4.514 1.922 4.514.57zM314.1 222.118c.719-.26 1.164-1.477.99-2.705l-.317-2.232-39.114-.069c-32.842-.057-39.79.176-43.333 1.455-4.906 1.772-4.968 3.357-.159 4.06 4.197.614 80.13.142 81.933-.51zm12.06-1.471c0-.545-.445-.99-.99-.99s-.99.445-.99.99.446.99.99.99.99-.446.99-.99zm108.133-11.67c-1.4-6.671-4.38-11.28-9.509-14.7-4.142-2.76-12.375-4.591-11.056-2.457.401.65 1.586.91 2.632.577 1.209-.384 2.11-.06 2.474.888.315.82 1.151 1.268 1.859.997s2.512.642 4.01 2.03c2.374 2.201 2.55 2.736 1.362 4.166-1.214 1.462-1.12 1.564.86.935 2.23-.708 3.15.717 1.23 1.905-1.698 1.049-1.087 2.475 1.06 2.475 1.954 0 1.97.082.318 1.733s-1.596 1.76 1.167 2.318l2.9.584-2.782 1.147c-2.995 1.234-2.774 3.13.365 3.13 2.67 0 2.42 1.772-.306 2.16-2.825.4-2.563 2.12.437 2.86 3.296.812 4.496-3.517 2.98-10.748zm-364.7-3.945c.085-1.962-.248-2.165-2.625-1.597-1.498.358-3.3 1.106-4.006 1.663s-5.05.957-9.655.89c-4.794-.07-8.372.285-8.372.832 0 .524.334.97.743.989s4.753.655 9.655 1.412c8.771 1.356 8.939 1.343 10.623-.778l1.71-2.155.121 2.971c.119 2.92.134 2.928.914.495.436-1.361.837-3.487.891-4.722zm82.761 2.776c.925-1.497-7.974-17.62-9.102-16.492-.23.23.666 2.578 1.99 5.22s2.948 6.472 3.609 8.515c1.191 3.68 2.363 4.601 3.503 2.757zm49.615-.168c.505-.817 6.958-.949 23.577-.484 12.585.353 35.026.9 49.868 1.217l26.987.575 4.206-2.497c4.746-2.82 22.254-20.072 21.318-21.009-.734-.733-130.455-.585-131.646.151-.459.284-.449 1.269.022 2.189s1.15 3.01 1.508 4.643c.515 2.345.073 1.929-2.104-1.98l-2.757-4.952-17.81.328c-9.797.18-18.571.537-19.5.795-2.073.575-1.251 2.783 4.461 11.994 6.312 10.177 6.255 10.154 25.029 10.154 10.978 0 16.369-.36 16.841-1.124zm150.282-.13c.943-.688 2.54-4.364 3.55-8.169s2.52-8.77 3.352-11.035 1.251-4.382.93-4.703-6.338-.585-13.37-.585h-12.787l-11.557 11.989c-6.356 6.593-11.706 12.386-11.887 12.873-.549 1.47 39.741 1.114 41.77-.37zm20.768-19.822c3.724-6.355 12.352-13.84 18.795-16.306 18.688-7.152 40.77-4.174 50.72 6.84 4.48 4.958 8.996 14.354 10.362 21.559.56 2.951 1.238 5.586 1.506 5.854 2.777 2.777-.007-12.944-3.637-20.54-1.197-2.504-4.931-7.275-8.3-10.603-6.867-6.786-10.786-8.53-23.263-10.354-8.201-1.2-22.262-.51-23.282 1.14-.308.498-2.473.906-4.81.906-8.865 0-9.89.91-16.883 14.996-6.074 12.234-9.463 21.309-9.434 25.26.007 1.006 1.28-1.81 2.828-6.258s3.977-10.07 5.398-12.494zM46.916 200.842c0-.545-.197-.99-.437-.99s-.712.445-1.049.99-.14.99.437.99 1.049-.445 1.049-.99zm6.436 0c.337-.545-.056-.99-.873-.99s-1.76.445-2.098.99.057.99.874.99 1.76-.445 2.097-.99zm412.86.105c.302-.486-.092-2.698-.874-4.915s-1.178-5.54-.878-7.386c.626-3.86-1.402-5.369-4.783-3.56-1.48.793-1.823 1.63-1.312 3.215.38 1.18 1.276 4.594 1.99 7.59.716 2.995 1.338 5.558 1.384 5.694.225.67 3.998.133 4.474-.638zm-443.5-3.169c.369-.596 1.72-.883 3.001-.638 2.319.443 2.322.43.627-2.454-1.177-2.003-1.801-2.43-2.017-1.384-.172.835-1.865 2.079-3.763 2.765-2.83 1.023-3.13 1.375-1.668 1.952 2.554 1.008 3.069.975 3.82-.24zm15.292-.838c0-.513-.446-1.208-.99-1.544s-.99.082-.99.932.445 1.543.99 1.543.99-.419.99-.931zm8.136-4.202c-1.338-1.338-2.564.765-1.721 2.953.599 1.553.73 1.542 1.676-.143.677-1.208.693-2.162.045-2.81zm10.678 2.163c0-.545-.197-.99-.437-.99s-.712.445-1.048.99-.14.99.436.99 1.049-.446 1.049-.99zm-4.951-5.282c0-2.814-.74-3.665-2.573-2.961-1.702.653-1.792 2.492-.2 4.084 1.815 1.815 2.773 1.427 2.773-1.123zm86.118-6.434c-2.25-4.658-8.709-10.628-14.19-13.117-7.607-3.454-26.321-1.818-30.835 2.695-.868.868-1.42 1.736-1.228 1.93s3.668-.02 7.722-.472c14.29-1.592 27.673 1.953 36.582 9.694 1.907 1.656 3.537 3.023 3.624 3.037s-.667-1.68-1.675-3.767zm233.726-6.108c0-.545-.472-.99-1.049-.99s-.773.445-.436.99.808.99 1.048.99.437-.446.437-.99zm112.533-.496c.817-.817 2.764-1.485 4.327-1.485 5.083 0 4.968-3.76-.136-4.405-1.294-.163-2.963-.464-3.71-.669-1.894-.52-5.115 5.193-3.836 6.807 1.25 1.578 1.551 1.556 3.355-.248zm-24.98-.362c1.435-2.32-6.733-5.834-9.064-3.9-1.07.89-.794 1.455 1.434 2.924 2.918 1.924 6.742 2.413 7.63.976zm3.053-45.683c.337-.545-.332-.99-1.485-.99s-1.822.445-1.486.99 1.005.99 1.486.99 1.149-.446 1.485-.99zm-272.323 43.322c-4.482-12.53-7.415-21.87-6.998-22.286.289-.289.808.319 1.153 1.35.571 1.702 7.381 19.547 8.165 21.396.182.428-.166.778-.773.778s-1.303-.557-1.547-1.238zm148.614-2.228c2.996-5.07 8.607-13.368 9.04-13.368.865 0-5.28 10.155-7.972 13.173l-2.823 3.166 1.755-2.97zm-122.515-1.733c-.666-1.225-1.462-5.347-1.768-9.16l-.556-6.93-6.273-.693c-8.907-.982-11.075-3.438-7.518-8.517 1.794-2.56 12.257-8.12 15.283-8.12 1.124 0 3.162-.733 4.53-1.629 2.117-1.387 2.845-1.436 4.915-.328 2.187 1.17 3.686.798 15.056-3.744 6.944-2.774 15.077-5.716 18.073-6.537 7.587-2.08 19.4-3.08 20.244-1.714.902 1.459 24.59 1.378 29.762-.101 2.179-.624 9.122-1.306 15.429-1.518 9.385-.314 11.695-.11 12.717 1.121.725.874 1.458 5.569 1.748 11.196.697 13.517 1.102 13.164-15.936 13.879l-13.687.574.57-2.876c.958-4.84 1.09-9.773.294-11.06-.957-1.548-28.554-1.723-31.402-.199-1.106.592-1.915 2.067-1.915 3.49 0 3.129-3.806 4.749-9.654 4.11-5.42-.592-7.18-2.13-7.18-6.27 0-2.313-.458-3.345-1.485-3.345-.817 0-1.486.671-1.486 1.492s-1.112 2.458-2.47 3.64c-2.071 1.8-2.413 2.846-2.111 6.465.269 3.232-.043 4.525-1.243 5.147-3.095 1.605-4.559-.144-4.871-5.82-.164-2.977-.465-5.58-.668-5.784s-3.858 1.125-8.12 2.951c-5.957 2.554-7.748 3.776-7.748 5.29 0 1.337.793 2.09 2.475 2.347 2.022.31 1.66.582-1.98 1.485l-4.456 1.106-1.137 10.893c-.625 5.99-1.182 11.004-1.237 11.14s-1.2.247-2.542.247c-1.512 0-2.902-.847-3.653-2.228zM175.15 148.36c.337-.545 1.255-.99 2.04-.99s1.426.445 1.426.99-.917.99-2.039.99-1.763-.446-1.427-.99zm269.905-.932c-2.228-1.933-3.552-2.039-25.41-2.039-14.306 0-23.294.376-23.673.99-.91 1.471-4.438 1.199-5.048-.389-.316-.824-2.795-1.662-6.157-2.082-3.095-.387-6.774-1.297-8.177-2.022-2.693-1.392-7.34-7.686-8.062-10.918-.541-2.425 1.827-7.364 3.531-7.364 4.412 0 28.092 3.876 58.076 9.505 6.065 1.138 29.347 4.317 31.859 4.35 1.637.02 6.76 5.318 6.76 6.99 0 2.303-5.79 4.051-12.605 3.806-2.598-.093-5.629.141-6.734.521-1.355.466-2.774.027-4.36-1.348zm-151.82-.783c2.315-.209 6.103-.209 8.417 0s.421.379-4.208.379-6.523-.17-4.209-.38zm115.625-24.007c-.402-.65-2.007-.823-4.053-.44-4.61.865-4.256-.572 1.067-4.324 2.775-1.956 4.456-3.896 4.456-5.142 0-2.252 2.477-2.734 3.282-.639.287.75-.124 2.608-.914 4.13-1.509 2.91-1.06 3.994 1.893 4.562.982.189 1.873.79 1.98 1.334.27 1.367-6.89 1.849-7.711.519zm12.957.136c-.664-1.074 1.587-2.14 4.52-2.14 1.143 0 1.81.524 1.576 1.237-.495 1.508-5.284 2.217-6.096.903zm-38.223-3.552l-3.466-1.262 3.466-2.125c1.906-1.17 4.134-2.124 4.951-2.122 1.619.004 4.23 4.693 3.38 6.07-.727 1.175-4.203.94-8.331-.561zm-41.59-18.414c-.817-.443-2.933-1.342-4.703-1.998s-3.219-1.631-3.219-2.168c0-.545.766-.657 1.733-.253.953.397 3.738 1.125 6.19 1.617 3.903.784 4.659.646 6.1-1.112 2.02-2.467 2.396-2.477 5.368-.139 1.806 1.42 2.08 2.099 1.147 2.835-1.686 1.328-10.792 2.207-12.616 1.218z"/><path d="M384.584 254.292c-7.352-.385-15.171-1.2-17.376-1.808-6.19-1.712-224.354-1.843-233.643-.141-4.906.899-12.275 1.096-25.251.675-22.532-.731-33.943-2.132-39.111-4.802-3.032-1.566-5.052-1.912-8.665-1.484-2.59.306-4.71.402-4.71.213s2.975-1.78 6.61-3.534c4.639-2.237 8.037-3.188 11.388-3.188 2.628 0 4.777-.378 4.777-.84s-.851-2.998-1.891-5.637-2.206-6.895-2.59-9.456-1.099-4.905-1.587-5.207-3.35.372-6.36 1.497c-6.191 2.317-12.658 2.56-27.012 1.018-15.348-1.649-16.013-1.811-16.013-3.908 0-1.033.446-2.153.99-2.49s.99-1.913.99-3.504c0-2.366-.704-3.251-3.869-4.866-2.128-1.086-4.025-2.44-4.214-3.009s-2.682-1.311-5.538-1.65-5.193-.944-5.193-1.346c0-1.322 2.862-3.138 3.918-2.485.568.351 1.485.36 2.036.019 1.506-.931-.522-3.937-2.662-3.946-1.232-.005-1.906-.873-2.12-2.73-.252-2.194.085-2.724 1.733-2.724 2.19 0 2.814-1.56.88-2.204-2.073-.691.21-2.747 3.052-2.747 3.531 0 5.826-2.583 9.057-10.196 2.283-5.377 2.986-6.18 5.972-6.828 5.651-1.223 6.13-.62 5.69 7.174-.37 6.542-.272 6.944 1.621 6.673 1.32-.19 2.108-1.143 2.283-2.764.78-7.24 1.37-9.156 2.475-8.051.616.615 2.771 1.12 4.79 1.12 3.182 0 3.601.262 3.152 1.98-.285 1.089-.244 1.98.091 1.98.754 0 12.575-6.238 17.941-9.467 3.4-2.046 5.23-2.385 12.93-2.4 8.879-.016 8.978.011 10.002 2.707l1.034 2.724 1.081-2.639c1.24-3.028 2.13-3.392 11.592-4.747 10.342-1.48 12.378-1.352 12.378.784 0 2.76 1.131 3.315 3.108 1.526 1.66-1.503 2.297-1.39 9.194 1.642 7.536 3.311 16.211 10.638 13.691 11.562-.68.25-1.238 1.059-1.238 1.798 0 2.828-1.852 2.235-6.284-2.012-7.598-7.28-11.579-8.892-21.937-8.882-11.902.01-18.333 2.084-26.836 8.65-7.75 5.986-11.35 10.706-14.409 18.893-1.452 3.888-2.884 6.057-4.374 6.623-1.218.463-2.507 1.315-2.865 1.894s-2.878 1.05-5.6 1.05c-3.05 0-4.717-.38-4.34-.99.337-.544 1.491-.99 2.565-.99 2.923 0 3.356-2.503 1.783-10.293l-1.42-7.036-6.663-.292-6.662-.293.015 8.215c.008 4.518.442 8.883.964 9.7.751 1.177.329 1.588-2.035 1.98-1.64.272-2.99.94-2.997 1.485-.012.845 11.889 3.438 26.513 5.776l4.037.646 1.115-7.496c1.57-10.559 4.37-16.41 10.551-22.06 6.566-6 14.058-8.4 26.203-8.39 12.4.01 20.168 2.849 28.103 10.272 6.357 5.947 10.406 12.232 12.541 19.468 1.344 4.552 3.13 5.904 4.933 3.732.92-1.108.436-2.698-2.315-7.616-1.913-3.418-5.073-8.22-7.022-10.67-4.192-5.27-4.354-6.806-.98-9.264 2.468-1.798 2.56-1.795 4.384.162 1.79 1.922 2.695 1.978 23.441 1.446 11.868-.305 21.801-.823 22.074-1.153s24.557-.376 53.967-.104 61.048.216 70.306-.125 23.785-.65 32.281-.689c15.317-.068 15.46-.089 17.056-2.524l1.609-2.455 3.04 2.84 3.04 2.839-3.134 6.207c-3.624 7.18-6.796 16.19-6.831 19.406-.045 4.104 1.799 2.285 3.453-3.407 2.435-8.375 7.942-18.658 12.357-23.073 12.178-12.178 38.06-15.685 54.534-7.39 8.613 4.337 15.53 14.811 18.07 27.364.68 3.362 1.75 6.284 2.378 6.493 2.137.713 3.345-3.344 2.334-7.843-1.26-5.607-.627-5.952 1.142-.623 1.276 3.844 1.765 4.3 4.892 4.568 4.819.413 5.955-1.266 4.221-6.239-.759-2.179-1.124-5.362-.81-7.075 1.06-5.792-.638-7.163-9.268-7.49-6.363-.24-7.707-.58-7.982-2.021-.278-1.455.435-1.736 4.445-1.748 2.627-.008 5.374-.395 6.105-.858 3.472-2.2-5.095-8.03-9.668-6.579-1.064.338-2.742.2-3.73-.307-5.795-2.977-14.656-5.248-27.922-7.157-6.634-.955-9.719-.937-15.348.088-3.875.706-7.538 1.659-8.141 2.118s-2.416.57-4.03.247c-4.88-.975-9.764 1.785-13.285 7.508l-3.121 5.072-2.355-2.212c-2.176-2.044-2.242-2.385-.87-4.48 2.172-3.314 1.892-4.07-2.296-6.207-4.057-2.07-7.056-6.019-11.985-15.783-1.707-3.383-3.983-7.03-5.056-8.103-3.27-3.27-2.131-12.844 1.527-12.844 1.055 0 1.38 1.128 1.242 4.31-.378 8.678 10.328 21.884 20.188 24.906 7.195 2.204 15.877 2.971 18.393 1.625 1.588-.85 2.31-.768 3.256.372 1.013 1.221 5.318 1.465 25.864 1.465 17.733 0 25.192-.34 26.59-1.213 1.601-1 2.164-.927 3.205.416 1.571 2.03 7.597 3.702 10.996 3.052 2.168-.415 2.647-.062 3.178 2.342.344 1.556 1.301 4.612 2.127 6.79s1.868 6.52 2.315 9.648 1.574 7.138 2.503 8.912c1.248 2.381 1.64 5.3 1.495 11.147-.212 8.571-1.309 11.077-3.53 8.069-1.306-1.769-1.542-1.772-6.617-.096-2.895.956-6.284 2.402-7.532 3.212-1.794 1.166-2.785 1.239-4.737.35-2.92-1.331-2.875-1.418-4.284 8.174-1.202 8.183-4.611 15.523-10.11 21.77-2.228 2.531-3.814 5.217-3.525 5.97.767 1.998-6.477 3.574-21.121 4.594-6.808.473-13.046.807-13.863.742s-7.501-.435-14.854-.82zm-209.901-12.38c1.422-1.288 3.621-1.386 14.931-.67 7.295.463 14.205.508 15.357.1s3.833-.35 5.957.128c5.487 1.232 8.868 1.259 55.819.438 52.768-.922 59.285-.938 63.226-.15 2.972.595 3.385.323 6.157-4.048 1.996-3.146 4.473-5.448 7.544-7.009 3.438-1.747 4.229-2.542 3.185-3.203-.764-.484-25.229-.893-54.366-.91-47.817-.027-59.815-.549-54.435-2.366.802-.271 18.214-.674 38.694-.896s37.747-.719 38.371-1.104c1.489-.92 1.458-4.23-.048-5.16-.65-.403-18.809-.63-40.352-.507-41.791.24-46.934.738-46.394 4.5.165 1.147 1.164 2.186 2.274 2.363 1.09.173 2.637.536 3.438.806 5.047 1.698-5.271 2.341-38.59 2.407-29.187.058-36.717.326-35.184 1.253 3.558 2.152 7.738 7.066 9.636 11.33 2.085 4.681 2.395 4.856 4.78 2.698zm247.727-3.738c11.133-9.075 15.165-18.249 12.863-29.27-3.937-18.862-25.86-26.054-40.7-13.352-11.616 9.942-12.26 29.44-1.293 39.07 4.612 4.05 9.244 5.96 16.555 6.831 3.268.39 6.259.769 6.647.843s3.056-1.78 5.928-4.122zm-10.43-4.324c-1.01-1.01-.784-4.291.296-4.291.882 0 3.005 3.102 3.005 4.39 0 .78-2.497.704-3.3-.1zm4.291-1.32c0-.545.446-.99.99-.99s.99.445.99.99-.445.99-.99.99-.99-.446-.99-.99zm3.65-1.684c-.287-.464.558-1.88 1.876-3.15s2.396-1.795 2.396-1.17c0 1.63-3.652 5.324-4.272 4.32zm-22.237-2.463c.216-.647.921-1.353 1.569-1.568.723-.241.944.211.574 1.176-.69 1.8-2.737 2.174-2.143.392zm-3.198-1.615c0-1.197 1.88-2.592 2.566-1.906.25.25-.226 1.017-1.056 1.706-.941.781-1.51.856-1.51.2zM424.193 223c0-1.316.27-1.384 1.486-.374.817.678 1.485 1.401 1.485 1.607s-.668.374-1.485.374-1.486-.723-1.486-1.607zm-30.882-1.05c.714-.286 1.568-.251 1.897.078s-.255.563-1.3.52c-1.153-.048-1.387-.282-.597-.598zm32.368-2.295c-.337-.544-.14-.99.436-.99s1.049.446 1.049.99-.196.99-.437.99-.712-.445-1.048-.99zm-34.163-.99c0-.544.694-.99 1.544-.99s1.268.446.931.99-1.031.99-1.543.99-.932-.445-.932-.99zm16.246-2.359c-.85-2.213.37-3.582 3.19-3.582 2.012 0 2.426.425 2.17 2.228-.377 2.654-4.464 3.688-5.36 1.354zm18.412-.612c0-.544.445-.99.99-.99s.99.446.99.99-.445.99-.99.99-.99-.445-.99-.99zM392.02 213.7c.342-.554 1.037-.75 1.544-.437 1.373.85 1.117 1.443-.622 1.443-.85 0-1.264-.453-.922-1.006zm.032-2.886c-.313-.507-.117-1.202.437-1.544s1.006-1.487 1.006-2.544.446-1.922.99-1.922.99-.668.99-1.485.669-1.486 1.486-1.486 1.485-.7 1.485-1.558c0-.946.676-1.428 1.722-1.226 2.214.426 2.947 3.775.826 3.775-.856 0-1.557.668-1.557 1.485s-.446 1.485-.99 1.485-.99.669-.99 1.486-.447 1.485-.991 1.485-.99.668-.99 1.485c0 1.627-2.512 2.04-3.424.564zm33.13-3.04c0-.544.446-.99.99-.99s.991.446.991.99-.446.99-.99.99-.99-.445-.99-.99zm-1.72-3.654c.92-.92 1.951-1.396 2.291-1.056.975.975-.521 2.73-2.326 2.73-1.512 0-1.51-.13.034-1.674zm-3.23-1.757c0-.798.89-1.927 1.98-2.51 1.52-.814 1.98-.753 1.98.262 0 1.456-1.922 3.699-3.168 3.699-.436 0-.793-.653-.793-1.45zm-2.971-1.41c0-1.034-6.547-2.53-9.408-2.15-1.089.145-2.264.72-2.612 1.279-.823 1.322-2.834.065-2.834-1.773 0-.785.802-1.427 1.783-1.427s2.266-.484 2.859-1.076c.775-.776 1.27-.762 1.771.048.512.828 1.083.802 2.168-.098 1.172-.973 1.634-.96 2.263.058.557.901.992.955 1.469.184.996-1.612 2.54-1.334 2.54.456 0 1.101.576 1.37 1.981.923 2.25-.714 2.742 1.318.792 3.268-1.4 1.4-2.772 1.552-2.772.308zm-299.05 38.429c16.08-7.279 19.582-26.648 7.138-39.476-5.187-5.348-9.364-6.97-17.965-6.98-21.74-.022-30.652 26.926-14.175 42.865 2.135 2.065 5.18 4.144 6.768 4.618 5.255 1.572 13.522 1.106 18.234-1.027zm2.64-10.482c-.362-.364-.66-1.31-.66-2.102 0-1.17.281-1.209 1.486-.209.817.678 1.485 1.624 1.485 2.102 0 1.025-1.37 1.149-2.31.209zm1.981-3.961c-1.14-1.14-.72-2.31.825-2.31a1.49 1.49 0 0 1 1.486 1.484c0 1.547-1.171 1.965-2.31.826zm-30.367-3.301c.719-1.343.73-1.98.035-1.98-.564 0-1.025-.702-1.025-1.559 0-.968.656-1.414 1.733-1.179.953.209 1.598.98 1.433 1.715s.226 1.661.87 2.059c1.626 1.005.216 2.924-2.149 2.924-1.65 0-1.79-.31-.897-1.98zm31.428-.743c-.208-.408-.455-2.008-.55-3.556-.209-3.384-3.01-9.64-4.994-11.147-.787-.598-1.113-1.6-.726-2.228.985-1.594 3.559-1.428 3.559.23 0 .753.949 1.617 2.109 1.92 1.364.357 1.908 1.075 1.541 2.033-.313.814-.037 1.657.613 1.874 1.692.564 1.783 11.617.095 11.617-.699 0-1.44-.334-1.647-.743zm-17.565-3.713c0-2.668 2.611-3.43 4.676-1.365 1.674 1.674.373 3.84-2.306 3.84-1.867 0-2.37-.524-2.37-2.475zm-14.853-3.466c0-.545.668-.99 1.485-.99s1.486.445 1.486.99-.669.99-1.486.99-1.485-.445-1.485-.99zm1.485-3.96c-.336-.546.057-.991.874-.991s1.76.445 2.097.99-.056.99-.873.99-1.761-.445-2.098-.99zm2.93-3.037c-.359-.581-.415-1.294-.124-1.585.71-.71 2.64.54 2.64 1.709 0 1.265-1.709 1.18-2.516-.124zm2.59-2.322c-.793-.955-.831-1.6-.121-2.039 1.382-.854 3.018.234 3.018 2.01 0 1.817-1.401 1.832-2.897.029zm3.557-1.243c-1.328-1.329-.614-3.418 1.073-3.14.953.156 2.31-.077 3.014-.519.73-.457 1.903-.287 2.723.394 1.016.843 1.442.868 1.442.085 0-.611.669-1.111 1.486-1.111s1.485.475 1.485 1.057c0 .606.844.789 1.98.428 1.561-.495 1.981-.178 1.981 1.497 0 1.867-.378 2.043-3.103 1.444-4.73-1.038-8.78-1.165-8.78-.275 0 .965-2.375 1.065-3.3.14zM326.6 221.726c.716-1.158-.38-4.05-1.536-4.05-.486 0-.884 1.114-.884 2.476 0 2.447 1.342 3.32 2.42 1.574zm-145.013-4.662c0-.817-.446-1.21-.99-.873s-.99 1.28-.99 2.097.445 1.21.99.873.99-1.28.99-2.097zm-20.795-8.854c0-.849-.445-1.268-.99-.931s-.99 1.03-.99 1.543.445.932.99.932.99-.695.99-1.544zm189.17 1.041c3.419-.75 5.17-3.598 6.72-10.919.58-2.742 1.986-7.162 3.126-9.821 1.64-3.824 1.807-5.006.8-5.645-1.865-1.182-25.33-1.018-27.595.194-1.28.686-23.3 1.034-65.537 1.036-64.61.003-111.26.932-113.407 2.259-1.345.83.546 5.043 6.306 14.047 5.455 8.527 5.421 8.517 25.81 8.029 9.725-.233 18.128-.535 18.672-.672s23.074.095 50.064.515c37.199.578 49.605.479 51.268-.411 1.725-.923 2.47-.899 3.483.114 1.42 1.421 34.813 2.477 40.29 1.274zm11.734-6.498c-1.59-.983-2.313-.462-1.403 1.01.364.59 1.125.786 1.69.437.665-.411.564-.921-.287-1.447zm-333.052-2.366c1.863-3.926 1.179-11.21-1.137-12.098-.762-.292-1.386-1.375-1.386-2.406 0-2.231-1.28-2.427-2.923-.447-.652.786-2.6 1.566-4.33 1.733-2.894.28-3.17.621-3.468 4.266-.177 2.178.22 5.608.884 7.622 1.225 3.716 1.579 3.895 9.048 4.597 1.035.098 2.314-1.165 3.312-3.267zm10.146-3.583c.308-4.634-1.628-8.665-3.582-7.458-1.018.63-.77 7.561.405 11.33.868 2.785 2.899.309 3.177-3.872zm34.692-17.128l.325-2.848-4.781.716c-5.573.834-6.267 1.163-6.267 2.974 0 1.83 1.744 2.426 6.437 2.198 3.573-.174 3.993-.472 4.286-3.04zM488.03 204.06c.844-4.594.923-4.665 6.864-6.105 6.052-1.468 7.171-.548 5.168 4.248-1.61 3.853-4.6 5.57-9.698 5.57-2.947 0-3-.085-2.334-3.713zm-.214-10.18c-2.583-1.038-2.662-1.564-.743-4.92 2.1-3.675 1.853-7.656-.555-8.945-4.301-2.302-1.36-3.825 10.743-5.565 5.52-.793 4.888-2.73-1.02-3.118-2.496-.164-4.74-.832-4.984-1.485s-.227-3.773.04-6.932c.485-5.734.491-5.744 3.33-5.12 2.736.6 2.846.481 2.924-3.168l.08-3.792 1.85 3.961c1.018 2.179 2.62 6.858 3.56 10.398s2.967 8.06 4.506 10.045 2.794 4.435 2.79 5.446c-.012 4.136-2.18 9.398-4.262 10.344-1.192.543-3.282 1.629-4.644 2.414-2.746 1.585-10.168 1.822-13.615.437zm-11.14-20.764c0-1.849.264-2.113 1.188-1.189s.924 1.453 0 2.377-1.189.66-1.189-1.188zm-259.88-4.182c-.865-1.236-1.541-4.246-1.541-6.867 0-2.566-.435-5.81-.966-7.206-.887-2.334-1.444-2.54-6.86-2.54-7.26 0-9.39-1.578-7.902-5.85 1.18-3.385 10.852-9.004 15.498-9.004 1.627 0 3.513-.668 4.19-1.485 1.48-1.783 4.293-1.914 6.85-.317 1.539.961 3.244.589 9.64-2.107 17.13-7.219 26.648-9.951 34.263-9.836 21.643.328 56.816-.396 57.628-1.185.518-.502 2.579-.913 4.58-.913 3.284 0 3.7.302 4.258 3.094 1.124 5.62.708 19.367-.619 20.435-.68.548-6.808 1.16-13.615 1.359l-12.378.363v-6.814c0-6.354-.167-6.878-2.476-7.766-2.409-.927-27.524-.174-30.349.91-.736.282-1.338 1.525-1.338 2.762 0 2.834-1.549 4.12-5.952 4.943-3.627.678-8.82-.741-10.104-2.762-.411-.647-.755-2.624-.763-4.394-.01-2.194-.488-3.218-1.5-3.218-.817 0-1.486.634-1.486 1.41s-1.114 2.732-2.475 4.35c-1.768 2.101-2.476 4.114-2.476 7.04 0 2.805-.489 4.283-1.552 4.691-2.415.927-3.443-.872-3.678-6.432-.26-6.147-.615-6.224-10.147-2.213-6.216 2.616-6.934 3.208-7.213 5.941-.181 1.77-.88 3.037-1.675 3.037-2.137 0-2.565 1.397-3.52 11.482-.49 5.191-1.15 9.856-1.466 10.366-.992 1.605-3.255 1.011-4.856-1.274zm253.602-11.338c-.36-.36-.654-1.423-.654-2.364 0-1.929 2.597-3.327 3.491-1.88.724 1.171-1.935 5.146-2.837 4.244zm-23.666-10.887c-1.332-1.332-4.865-1.647-21.72-1.934-11.07-.188-21.747-.57-23.726-.847-2.478-.349-3.98-.046-4.825.973-1.582 1.906-4.57 1.902-5.303-.007-.394-1.025-2.039-1.498-5.305-1.527-6.04-.053-10.25-2.334-14.076-7.624-3.426-4.739-3.5-5.088-1.838-8.734 1.179-2.589 1.306-2.62 8.169-1.95 13.77 1.342 51.03 8.171 60.236 11.04 3.038.946 6.288 1.246 9.041.833 8.886-1.332 20.378 2.915 20.378 7.532 0 2.31-3.858 3.127-10.968 2.323-3.748-.424-6.322-.271-7.162.425-.974.81-1.717.68-2.9-.503zm48.195-.471c-1.08-1.872-7.657-4.63-18.747-7.862-10.273-2.993-14.358-4.664-14.358-5.873 0-.537.928-.977 2.063-.977 3.343 0 1.595-2.425-2.142-2.97-2.426-.355-3.466-1.058-3.665-2.476-.301-2.149 6.395-7.054 18.597-13.624 10.652-5.735 10.411-5.76 13.67 1.435 7.06 15.59 9.12 25.1 6.713 30.99-1.014 2.48-1.357 2.699-2.13 1.357zm-48.949-15.196c-5.718-1.249-12.068-2.562-14.11-2.918-5.045-.881-4.667-2.089 1.003-3.21 7.531-1.489 16.069-.234 21.561 3.17 5.094 3.156 6.738 5.485 3.76 5.325-1-.053-6.495-1.118-12.214-2.367zm-37.17-9.476c-.365-.593-2.004-.798-3.77-.472l-3.125.577 2.476-1.747c1.361-.96 3.735-2.976 5.275-4.48s2.987-2.732 3.218-2.732c1.039 0 .272 2.85-1.067 3.96-2.123 1.763-1.843 2.884.99 3.961 1.362.518 2.476 1.175 2.476 1.461 0 .99-5.827.515-6.472-.528zm15.2.371c.714-.286 1.569-.25 1.898.079s-.256.563-1.3.52c-1.154-.048-1.388-.282-.598-.599zm20.485-1.033c-5.256-.748-4.795-1.966 2.315-6.118 9.706-5.669 9.691-5.666 11.481-2.204.854 1.651 1.553 3.228 1.553 3.504s-1.933 1.636-4.296 3.02c-4.234 2.482-5.175 2.635-11.053 1.798zm-60.156-1.943c-2.579-.674-2.106-1.894 1.276-3.295 2.656-1.1 3.176-1.027 4.425.623.778 1.028 1.429 2.203 1.446 2.612.033.785-4.233.821-7.147.06zm-39.318-3.76c-3.515-1.27-4.82-2.859-3.18-3.872 1.504-.93 7.054 1.432 8.143 3.467 1.18 2.205.237 2.282-4.963.405zM334.59 98.869c-.33-.534 13.775-.934 14.4-2.101l1.135-2.122 2.128 2.134c1.829 1.832 1.92 2.267.644 3.076-1.924 1.22-17.553.232-18.307-.987z"/><path d="M230.432 224.635c-6.603-4.434-4.374-6.46.808-7.679l81.24-.808c7.19 1.335 7.224 4.323.404 8.892l-82.452-.405z" fill-rule="evenodd"/><path d="M387.089 92.759h1a7 7 0 0 1 7 7v19a7 7 0 0 1-7 7h-1a7 7 0 0 1-7-7v-19a7 7 0 0 1 7-7" fill="#ccc"/><path d="M345.422 117.092h5c3.386 12.564 4.214 26.226 13.333 36.333l11.333 8.334-10.666 19-31 .666 17-27.666-5-36.667z" fill="#8f8f8f" fill-rule="evenodd"/><path d="M179.364 149.805l70.612-31.837 94.694-1.632c4.142 12.245 5.087 24.49 4.898 36.734-9.792 19.562-23.683 38.669-43.265 57.143l-104.49-.816-22.449-59.592z" fill="#b2b2b2" fill-rule="evenodd"/><path d="M178.956 149.397L32.833 166.54v42.04l33.47 6.531c3.98-29.255 16.002-32.086 27.347-37.143 18.256-2.108 29.022 2.441 37.55 8.98 9.72 7.58 11.502 16.747 16.327 25.306l54.694-1.633-23.265-61.224z" fill="#939393" fill-rule="evenodd"/><path d="M2.221 203.683l57.143 2.449v-22.45l-58.776 2.45c.91 4.754 1.789 9.6 1.633 17.55z" fill="#1a1a1a" fill-rule="evenodd" stroke="#000"/><path d="M365.475 182.47l-222.018 2.018" fill="none" stroke="#000" stroke-width="2.023"/><path d="M179.364 149.397l22.449 61.633h104.082c22.233-19.184 31.789-38.368 43.673-57.552-.845-13.92-1.315-28.466-5.306-37.142" fill="url(#a)" fill-rule="evenodd" stroke="#000"/><path d="M200.997 146.948l53.877-22.857 83.674-2.041v26.939l-138.776 5.306 1.225-7.347z" fill="url(#b)" fill-rule="evenodd" opacity=".706"/><path d="M32.425 166.948c-2.967-1.276-6.99-.442-11.02.408l-8.98 15.102c-5.551-.381-8.797 1.543-12.245 3.265l32.653-1.632-.408-17.143z" fill="#313131" fill-rule="evenodd"/><path d="M439.68 121.024l17.96-11.02 2.857 4.49-12.245 7.754-8.572-1.224z" fill-rule="evenodd" stroke="#000"/><path d="M458.262 109.857l-9.626 1.901-12.231 7.382 4.262 2.48" fill="#1a1a1a" fill-rule="evenodd" stroke="#000"/><path d="M387.027 161.84c-12.583 14.944-22.472 30.786-25.306 48.98-.806 5.171-2.837 10.19-12.245 14.286l-33.877-1.633c1.604-2.42 2.749-4.382 3.265-5.714l30.612-.409c6.15-18.775 15.65-37.55 26.123-56.326l11.428.816z" fill="url(#c)" fill-rule="evenodd" stroke="#000"/><path d="M498.456 145.106c-42.693-13.949-88.38-20.41-133.061-29.388" fill="none" stroke="#5c5c5c"/><path d="M201.313 155.024l20-2.45c1.58-4.217-.494-8.434-2.04-12.652l-18.368 6.939c-1.798 3.107-3.146 6.125.408 8.163z" fill-rule="evenodd" stroke="#000"/><path d="M486.21 141.432c7.551 11.19 4.37 24.17 6.123 36.327l16.327-2.041-9.388-31.02-13.061-3.266z" fill="#5c5c5c" fill-rule="evenodd"/><path d="M509.476 177.35l-20.816.409c3.155 5.578 1.892 11.156.816 16.734l19.592-3.265c2.306-5.711 2.456-10.343.408-13.878z" fill-rule="evenodd" stroke="#000"/><path d="M482.747 167.89c-1.955-.723-7.522-8.839-8.105-11.816a36.95 36.95 0 0 0-.467-2.1c-.208-.742-1.793-1.335-1.793-.67 0 .266-.208.248-.563-.046-.393-.327-.883-.346-1.629-.062-.586.223-1.344.3-1.682.17s-.616-.034-.616.215-.207.406-.46.35-.5.311-.545.816.033.918.176.918c.388 0 2.055 3.592 2.041 4.4-.01.602-.079.586-.476-.114-.255-.449-1.06-1.55-1.79-2.449s-1.337-1.816-1.351-2.04-.922-.868-2.018-1.43-2.8-1.464-3.785-2.007-3.078-1.4-4.65-1.906-2.58-1.013-2.244-1.127 3-.309 5.918-.433 5.95-.327 6.735-.453l1.429-.229-1.386.634c-1.352.619-1.367.653-.647 1.45.824.91 4.166 2.028 6.086 2.037 2.532.01 3.081.406 4.512 3.248.759 1.506 1.873 3.062 2.475 3.456 2.16 1.415 5.377.594 6.39-1.63.25-.549.612-.998.803-.998s.994 1.01 1.784 2.245c2.307 3.605 3.42 2.802 3.5-2.525.046-3.053.062-3.105.38-1.214.937 5.582-.113 10.582-2.34 11.14-.52.131-.945.432-.945.67s-.12.312-.266.166-.468.008-.714.342c-.608.823-2.712 1.379-3.757.992zM381.14 146.136c-1.732-.494-5.68-2.664-5.385-2.96.095-.094 1.073.183 2.175.616s3.748 1.19 5.88 1.682 3.954.965 4.048 1.053c.391.366-5.202.04-6.718-.391z" fill="#b2b2b2"/><path d="M385.272 146.739c-.121-.196-1.096-.447-2.167-.558-2.273-.236-7.306-2.362-5.195-2.194.684.054 1.465.235 1.735.402s.492.18.492.026.273-.051.607.226.885.397 1.224.267.618-.082.618.108c0 .43 5.218 1.773 5.708 1.47.197-.122.473-.035.614.193.16.258-.44.415-1.58.415-1.01 0-1.936-.16-2.056-.355z" fill="#b2b2b2"/><path d="M192.742 183.881l138.367-1.224" fill="none" stroke="#000" stroke-width="2"/><path d="M61.302 183.192c15.04-10.681 30.08-8.427 45.12-12.611 26.252 1.029 32.487 17.441 44.044 29.764 4.51 15.24 15.218 18.835 25.246 23.71l49.953.505-.537-8.072-46.73.505c-14.84-6.788-25.074-19.632-32.766-35.818-11.29-9.226-23.142-17.222-38.674-17.153-11.996 1.114-23.992 2.306-35.988 6.054-8.347.36-13.97 8.392-20.948 12.612l11.28.504z" fill-rule="evenodd" stroke="#000" stroke-width="1.275"/><path d="M362.755 212.092h2c7.897-14.494 8.007-31.857 31.333-40.667 13.573-.338 24.608-5.47 45.667 8.334 6.772 9.888 10.318 19.777 12.667 29.666l8.666-3.666c-1.657-11.102-2.52-21.41-5-33.334-4.374-6.692-12.813-8.803-22.333-8.666l-48-.667c-13.557 8.422-22.684 35.819-25 49z" fill="#8f8f8f" fill-rule="evenodd"/><path d="M363.116 212.398c10.708-23.9 21.775-45.275 48.533-42.424 33.496 2.998 39.517 20.97 41.746 40.048" fill="none" stroke="#8f8f8f" stroke-width="3.055"/><path d="M386.088 163.425l-10.333-1.333-13.667 23.667 7.667 1.333c3.57-9.294 9.21-17.037 16.333-23.667z" fill-rule="evenodd" stroke="#000"/><path d="M318.73 199.847c5.471-5.713 11.145-11.59 12.608-13.06l2.66-2.674 11.466.257c6.306.142 11.84.35 12.297.464l.833.206-.921.87c-1.063 1.004-1.124 1.304-.39 1.925.767.648.666 1.957-.508 6.569-1.982 7.788-4.23 14.331-5.09 14.812-1 .56-12.752.946-30.002.987l-12.9.03 9.947-10.386z" fill="gray"/><path d="M336.168 216.88c-1.926 2.688-.96 5.565.653 8.484 1.346.376 2.693.742 4.018.263-1.333-2.929-2.468-5.844-.878-8.582-.975-.197-1.7-.518-3.793-.165z" fill="#ccc" fill-rule="evenodd"/><path d="M452.422 211.092l.333 5.333 18.333-5.666 1.667 3.333 26.667-5 9.333-17-20.333 3.333c3.096-7.365 2.205-13.402 0-19h3.333c-.625-11.071 3.915-21.415-5-35-37.438-10.382-78.141-18.154-120-25 1.983 19.804 7.463 30.527 14.667 30.334 42.564-.007 50.416-1.457 72.666 2.333 18.489 10.259 18.753 17.687 20 28.333l3.334 27.667-13.334 3.333-1.333-2.333c-3.988 1.123-9.596.626-10.333 5z" fill="#8f8f8f" fill-rule="evenodd"/><path d="M369.966 125.106c-5.99-4.266-7.639 6.734 4.49 17.55 16.145 4.55 29.53 4.5 42.449 3.674l46.939.816c3.042-1.904 2.044-3.81.816-5.714-18.239-4.9-63.068-13.308-94.694-16.326z" fill-rule="evenodd" stroke="#000" stroke-width="1.5"/><path d="M381.139 101.759h12.1a1.05 1.05 0 0 1 1.05 1.05v3.9a1.05 1.05 0 0 1-1.05 1.05h-12.1a1.05 1.05 0 0 1-1.05-1.05v-3.9a1.05 1.05 0 0 1 1.05-1.05"/><path d="M487.828 112.371l-11.827-.434-25.693 15.628 7.749 4.341" fill="#1a1a1a" fill-rule="evenodd" stroke="#000" stroke-width="1.031"/><path d="M449.476 121.84l27.347-14.286 11.429-.816 9.796 24.49.408 13.061-30.204-8.571-.408-6.53-18.368-7.348z" fill-rule="evenodd" stroke="#000"/><path d="M404.666 135.759h.877a5.577 5.577 0 0 1 5.577 5.577v15.845a5.577 5.577 0 0 1-5.577 5.578h-.877a5.577 5.577 0 0 1-5.578-5.578v-15.845a5.577 5.577 0 0 1 5.578-5.577" fill="#054996"/><path d="M426.088 126.759c15.77-2.943 32.886-9.472 41 8l4 1" fill="#fff" fill-rule="evenodd" stroke="#bababa" stroke-width="6"/><path d="M331.088 167.259a4.5 4.5 0 1 1-9 0 4.5 4.5 0 1 1 9 0z" fill="#bababa"/><path d="M367.66 174.812c3.126 2.626 7.127 2.08 11.323.824.788-1.425 1.561-2.852 1.217-4.41-4.148.946-8.236 1.672-11.499-.59-.472 1.045-1.052 1.791-1.04 4.176z" fill="#ccc" fill-rule="evenodd"/><path d="M4.088 204.759c15.932.505 16.542 7.577 14 16l41 3 8-7-37-8 2-4h-28z" fill-rule="evenodd" stroke="#000"/><path d="M170.634 212.667c-3 1.39-3.576 4.37-3.61 7.705.986.99 1.978 1.972 3.368 2.208.282-3.206.73-6.302 3.462-7.901-.752-.652-1.225-1.289-3.22-2.012zm-11.169-9.858c-3.304.582-4.773 3.5-5.833 6.937.641 1.306 1.29 2.604 2.549 3.244 1.257-3.234 2.64-6.307 5.75-7.182-.52-.889-.777-1.682-2.466-3z" fill="#ccc" fill-rule="evenodd"/><path d="M144.723 182c-3 1.501-3.576 4.716-3.61 8.314.986 1.068 1.977 2.127 3.367 2.381.282-3.458.73-6.798 3.463-8.524-.752-.704-1.225-1.39-3.22-2.171zm-39.793-19.58c-1.918 2.752-.888 5.852.8 9.03 1.377.467 2.754.923 4.096.483-1.404-3.173-2.606-6.322-1.03-9.143-.997-.26-1.74-.637-3.866-.37zm-47.934 12.373c-.659 3.289 1.524 5.719 4.341 7.956 1.45-.122 2.894-.253 3.949-1.194-2.556-2.347-4.916-4.753-4.599-7.969-1.017.16-1.85.112-3.691 1.207z" fill="#b3b3b3" fill-rule="evenodd"/><path d="M336.168 216.88c-1.926 2.688-.96 5.565.653 8.484 1.346.376 2.693.742 4.018.263-1.333-2.929-2.468-5.844-.878-8.582-.975-.197-1.7-.518-3.793-.165zm17.492-12.068c2.631 2.626 5.998 2.08 9.53.824.662-1.425 1.313-2.852 1.023-4.41-3.49.946-6.93 1.672-9.677-.59-.397 1.045-.885 1.791-.875 4.176z" fill="#ccc" fill-rule="evenodd"/><path d="M140.089 211.759c0 19.882-16.118 36-36 36s-36-16.118-36-36 16.117-36 36-36 36 16.117 36 36z"/><path d="M168 137.768c0 22.643-18.356 41-41 41s-41-18.357-41-41 18.356-41 41-41 41 18.356 41 41z" fill="#4d4d4d" filter="url(#d)" opacity=".721" transform="translate(3.159 102.254) scale(.79637)"/><path d="M129.343 212.095c0 13.53-10.969 24.5-24.5 24.5s-24.5-10.97-24.5-24.5 10.97-24.5 24.5-24.5 24.5 10.969 24.5 24.5z" fill="#4d4d4d"/><path d="M168 137.768c0 22.643-18.356 41-41 41s-41-18.357-41-41 18.356-41 41-41 41 18.356 41 41z" fill="#999" filter="url(#e)" opacity=".912" transform="translate(33.887 135.323) scale(.55957)"/><path d="M96.798 199.162l-.98-7.644 4.9 5.88.588-7.448 3.528 7.056.588-7.252 3.92 7.84 1.96-6.664.783 7.056 5.488-4.116-2.156 6.468 6.664-2.744-3.724 6.272 6.86-1.764-4.9 5.88 7.056 1.176-6.468 2.156 6.664 2.548-7.644 1.568 7.056 2.744-8.624 1.764 7.644 2.156-9.408.784 6.076 3.724-9.212-1.176 5.096 5.292-8.231-3.528 2.547 6.664-5.683-5.684-.98 7.056-4.116-7.448-1.176 7.252-1.764-8.232-3.724 6.664.588-8.036-4.9 5.096 1.764-7.84-6.272 2.94 3.332-6.86-6.86 1.176 6.076-6.272-6.86.392 6.86-3.92-6.272-1.568 6.86-1.176-5.88-4.116 7.644.98-5.096-5.096 7.448 2.548-3.528-6.272 6.468 3.724z" fill="none" stroke="#000" stroke-width="1.046"/><path d="M120.404 212.414c0 8.533-6.917 15.45-15.45 15.45s-15.452-6.917-15.452-15.45 6.918-15.451 15.451-15.451 15.451 6.917 15.451 15.45z" fill="#666"/><path d="M110.604 212.12a5.357 5.357 0 1 1-10.714 0 5.357 5.357 0 0 1 10.714 0zm-13.131-6.664a.653.653 0 1 1-1.307 0 .653.653 0 0 1 1.307 0zm17.639 13.328a.653.653 0 1 1-1.306 0 .653.653 0 0 1 1.306 0zm-17.639.784a.653.653 0 1 1-1.307 0 .653.653 0 0 1 1.307 0zm16.855-14.112a.653.653 0 1 1-1.306 0 .653.653 0 0 1 1.306 0zm334.76 2.802c0 20.71-16.79 37.5-37.5 37.5s-37.5-16.79-37.5-37.5 16.79-37.5 37.5-37.5 37.5 16.79 37.5 37.5z"/><path d="M168 137.768c0 22.643-18.356 41-41 41s-41-18.357-41-41 18.356-41 41-41 41 18.356 41 41z" fill="#4d4d4d" filter="url(#d)" opacity=".721" transform="translate(306.453 94.191) scale(.82955)"/><path d="M437.895 208.608c0 14.095-11.426 25.52-25.52 25.52s-25.52-11.425-25.52-25.52 11.425-25.52 25.52-25.52 25.52 11.426 25.52 25.52z" fill="#4d4d4d"/><path d="M168 137.768c0 22.643-18.356 41-41 41s-41-18.357-41-41 18.356-41 41-41 41 18.356 41 41z" fill="#999" filter="url(#e)" opacity=".912" transform="translate(338.462 128.638) scale(.58289)"/><path d="M403.994 195.137l-1.021-7.962 5.104 6.125.612-7.759 3.675 7.35.613-7.554 4.083 8.167 2.042-6.942.816 7.35 5.717-4.287-2.246 6.737 6.942-2.858-3.88 6.533 7.146-1.837-5.104 6.124 7.35 1.225-6.737 2.246 6.941 2.654-7.962 1.634 7.35 2.858-8.983 1.837 7.962 2.246-9.8.817 6.33 3.879-9.596-1.225 5.308 5.512-8.575-3.675 2.654 6.942-5.92-5.92-1.022 7.349-4.287-7.758-1.225 7.554-1.837-8.575-3.88 6.942.613-8.371-5.104 5.308 1.837-8.166-6.533 3.062 3.471-7.146-7.146 1.225 6.33-6.533-7.146.408 7.145-4.083-6.533-1.633 7.146-1.225-6.125-4.287 7.962 1.02-5.308-5.308 7.758 2.654-3.675-6.533 6.738 3.88z" fill="none" stroke="#000" stroke-width="1.09"/><path d="M428.584 208.94c0 8.89-7.206 16.095-16.095 16.095s-16.095-7.205-16.095-16.094 7.206-16.095 16.095-16.095 16.095 7.206 16.095 16.095z" fill="#666"/><path d="M418.376 208.634a5.58 5.58 0 1 1-11.161 0 5.58 5.58 0 0 1 11.16 0zm-13.679-6.941a.68.68 0 1 1-1.361 0 .68.68 0 0 1 1.36 0zm18.374 13.883a.68.68 0 1 1-1.36 0 .68.68 0 0 1 1.36 0zm-18.374.817a.68.68 0 1 1-1.361 0 .68.68 0 0 1 1.36 0zm17.558-14.7a.68.68 0 1 1-1.361 0 .68.68 0 0 1 1.36 0z"/><path d="M208.089 219.759h87a4 4 0 0 1 4 4v4a4 4 0 0 1-4 4h-87a4 4 0 0 1-4-4v-4a4 4 0 0 1 4-4" fill="#ccc"/><path d="M331.695 92.736l28.319-.318c2.879 1.976 3.684 5.137.636 10.5-7.771 1.45-15.4 3-28.955.318 0 0-8.155-3.186-7.955-6.045s7.955-4.455 7.955-4.455z" fill="#bababa" fill-rule="evenodd"/><path d="M386.666 135.759h.877a5.577 5.577 0 0 1 5.577 5.577v15.845a5.577 5.577 0 0 1-5.577 5.578h-.877a5.577 5.577 0 0 1-5.578-5.578v-15.845a5.577 5.577 0 0 1 5.578-5.577m34 0h.877a5.577 5.577 0 0 1 5.577 5.577v15.845a5.577 5.577 0 0 1-5.577 5.578h-.877a5.577 5.577 0 0 1-5.578-5.578v-15.845a5.577 5.577 0 0 1 5.578-5.577" fill="#054996"/><path d="M351.505 116.991c3.778 26.488 12.473 47.649 43.621 44.485 22.892 3.396 61.77-4.702 64.352 13.388l5.182 33.256 12.093-3.887-4.75-33.256c-4.694-24.487-27.36-22.015-47.508-23.322h-38.439c-10.546.357-15.18-6.89-17.707-16.843l-3.023-16.412-13.82 2.591z" fill="gray" fill-rule="evenodd" stroke="#5c5c5c" stroke-width="1.5"/><path d="M354.036 92.635l.303 12.097a1.05 1.05 0 0 1-1.023 1.076l-3.9.097a1.05 1.05 0 0 1-1.075-1.023l-.303-12.096a1.05 1.05 0 0 1 1.023-1.076l3.9-.098a1.05 1.05 0 0 1 1.075 1.023"/><path d="M431.214 178.16l27.75-1.004" fill="none" stroke="#000" stroke-width="2.236"/><path d="M473.041 177.888l16.095-.46" fill="none" stroke="#000" stroke-width="1.937"/><path d="M438.168 159.81c-1.926 1.512-.96 3.129.653 4.77 1.346.21 2.693.416 4.018.147-1.333-1.646-2.468-3.285-.878-4.823-.975-.111-1.7-.292-3.793-.093zm-38 0c-1.926 1.512-.96 3.129.653 4.77 1.346.21 2.693.416 4.018.147-1.333-1.646-2.468-3.285-.878-4.823-.975-.111-1.7-.292-3.793-.093zm-39.756-19.37c-2.271-.913-3.19.732-3.805 2.949.49 1.272.984 2.54 1.88 3.554.76-1.977 1.612-3.779 3.74-3.17-.392-.9-.598-1.619-1.815-3.332zm6.946-2.028c1.818 1.64 3.246.411 4.588-1.457-.022-1.363-.05-2.725-.541-3.985-1.394 1.595-2.815 2.992-4.602 1.688.057.98.003 1.726.555 3.754zm70.81 7.398c-1.926 1.512-.96 3.129.653 4.77 1.346.21 2.693.416 4.018.147-1.333-1.646-2.468-3.285-.878-4.823-.975-.111-1.7-.292-3.793-.093z" fill="#ccc" fill-rule="evenodd"/><path d="M452.088 207.158l39-6v-6l18-3-12 19-44 7-1-11z" fill-rule="evenodd" stroke="#000"/><path d="M327.342 171.446c-1.052-6.05.576-6.576.576-6.576" fill="none" stroke="#000" stroke-width=".466"/><path d="M463.86 188.846c-1.78-1.866-3.377-.688-4.934 1.17-.084 1.434-.163 2.866.255 4.23 1.59-1.567 3.193-2.923 4.968-1.412.017-1.035.133-1.814-.288-3.988zm14 0c-1.78-1.866-3.377-.688-4.934 1.17-.084 1.434-.163 2.866.255 4.23 1.59-1.567 3.193-2.923 4.968-1.412.017-1.035.133-1.814-.288-3.988z" fill="#ccc" fill-rule="evenodd"/><path d="M364.088 114.759c-4.706-4.118-3.133-10.747-20-10-13.91-.347-14.01 7.594-15 15l23-2 12-3z" fill="#bababa" fill-rule="evenodd"/></svg>