<?xml version="1.0" encoding="UTF-8" standalone="no"?>
<svg viewBox="0 0 511.40765 259.93814" xmlns="http://www.w3.org/2000/svg">
<defs>
<filter height="1.27068" id="filter3480-1" width="1.27068" x="-.13534" y="-.13534">
<feGaussianBlur stdDeviation="4.62406"/>
</filter>
<filter height="1.46917" id="filter3430-4" width="1.46917" x="-.23459" y="-.23459">
<feGaussianBlur stdDeviation="8.01504"/>
</filter>
<linearGradient gradientUnits="userSpaceOnUse" id="linearGradient3757-9" x1="260.49666" x2="259.68032" y1="210.41162" y2="152.45244">
<stop offset="0"/>
<stop offset="1" stop-opacity="0"/>
</linearGradient>
<linearGradient gradientUnits="userSpaceOnUse" id="linearGradient3764-2" x2="0" y1="149.75856" y2="122.0499">
<stop offset="0" stop-color="#4d4d4d"/>
<stop offset=".43308" stop-color="#1a1a1a"/>
<stop offset="1"/>
</linearGradient>
<linearGradient gradientUnits="userSpaceOnUse" id="linearGradient3767-7" x1="257.23134" x2="255.19051" y1="209.18713" y2="153.67693">
<stop offset="0" stop-color="#bbb"/>
<stop offset=".53435" stop-color="#393939" stop-opacity=".3098"/>
<stop offset="1" stop-opacity="0"/>
</linearGradient>
</defs>
<path d="m427.56547,28.30284c57.31111-98.17248-5.33317,102.41187-46.84632,136.377l.38941-.0855" fill="none" stroke="#000" stroke-width="3"/>
<path d="m401.08849,125.75856 35-75 7,3-35,76-7-4z" fill="#28170b" fill-rule="evenodd" stroke="#000"/>
<g transform="matrix(.99023,0,0,.99023,-37.05691,-589.14996)">
<path d="m423.80111,852.74955c-7.425-.39664-15.525-1.22583-18-1.84264-4.88235-1.21676-217.06422-.88328-245.50001.38585-16.56194.73918-43.06892-.74844-51.58772-2.8952-3.18604-.80289-14.46153-1.64065-27.41228-2.03672-22.56981-.69024-36.56626-2.25086-37.19358-4.14712-.56296-1.70169 17.72532-9.86726 36.69358-16.3834 6.325-2.17282 11.275-3.97481 11-4.00443-7.71678-.83111-30.4333-4.18927-31.09183-4.59627-1.24701-.77069-1.14244-3.80897.1765-5.1279 3.5797-3.57971-4.15154-10.49224-13.2578-11.85386l-4.67313-.69875 .17313-4.63136c.09522-2.54726-.1843-6.7179-.62116-9.26811-.78405-4.57697-.75313-4.65108 2.39922-5.75 1.75643-.61229 4.72696-1.11326 6.60118-1.11326 3.27092,0 3.54517-.30172 6.83388-7.51833 2.50341-5.49338 4.12163-7.78272 6.00821-8.5 3.99103-1.51738 8.15319-1.20222 8.87232.67183 .58923,1.5355.72174,1.53586 1.85699.005 .94937-1.28021 5.3285-2.09642 19.60163-3.6535 10.10853-1.10275 22.48353-2.01964 27.5-2.03753s14.03588-.64901 20.04314-1.4025c11.68035-1.46505 13.569-1.28554 13.59302,1.29202 .0127,1.36288.16898,1.40022.91656.219 .75343-1.19045 1.94003-.96467 7.23469,1.3766 7.16678,3.1691 16.58433,9.95869 18.04623,13.01044 .53668,1.12034 2.17085,2.97236 3.63149,4.11561 2.54473,1.99177 3.54385,2.05972 23.90573,1.62576 22.38542-.47709 22.84405-.58987 20.20219-4.96797-.57629-.95504-2.93879-7.36056-5.25-14.2345l-4.20219-12.49807-3.75.32469c-3.84587.33299-4.66607-.51248-2.55-2.62855 1.66973-1.66973 4.74767-1.49994 5.43837.3 .31659.825 1.16312,1.5 1.88119,1.5s2.52122,3.2625 4.00698,7.25 3.77511,9.66688 5.08742,12.62084 2.38604,6.12647 2.38604,7.05c0,4.09495-.27273,4.07916 70.47749,4.07916 59.99698,0 68.3413-.18477 70.3-1.5567 1.22238-.85619 2.22251-2.06249 2.22251-2.68068s2.18132-4.30516 4.84738-8.19329c10.45864-15.2527 10.51572-15.41018 9.74811-26.89252-.78124-11.68614-2.51548-22.72009-3.79994-24.17681-.48497-.55-3.44986-1.45-6.58865-2-4.83945-.848-5.75657-1.35037-6.03366-3.30504-.41856-2.95255 1.44909-5.19496 4.32676-5.19496 1.24031,0 2.81945-.67999 3.5092-1.51109 1.11484-1.3433 1.37828-1.34433 2.37245-.009 1.06757,1.43355 5.9703,2.10231 10.01072,1.36552 2.85118-.51992 3.12666,2.00709.33453,3.06865l-2.43567.92604 1.44035,7.83012c.79219,4.30656 1.85167,8.25761 2.35439,8.78011s.91403,2.90293.91403,5.28984c0,5.42737 2.84856,11.11486 8.69991,17.37043 6.13901,6.56309 13.00815,9.19919 24.30009,9.32537 4.675.0522 8.95.35989 9.5.68366s11.575.54188 24.5.48469c23.46125-.10382 23.50052-.10764 23.81491-2.31856 .29701-2.08871.86533-2.23079 10-2.5l9.68509-.28543-3.5-1.81145c-1.925-.9963-6.9783-2.21304-11.22956-2.70388s-8.75126-1.47568-10-2.18855c-2.99998-1.71259-41.99057-2.25248-46.04596-.63758-2.21702.88284-3.12253.79877-4.5-.41778-.94846-.83766-3.70365-1.84783-6.12263-2.24482-7.28371-1.19536-10.90894-3.23009-13.73715-7.71027-1.4555-2.30566-2.9619-5.33817-3.34756-6.73889-.79337-2.88159.55499-6.66861 2.66226-7.47725 1.63479-.62733 20.71038,2.09223 44.3206,6.31868 9.075,1.62451 21.45,3.67743 27.5,4.56205 20.53248,3.00222 22.76053,3.47554 24.72377,5.25225 4.5077,4.07941 4.48945,7.65068-.0449,8.78874-2.57954.64742-2.6062.72309-.73651,2.09024 1.06695.78018 3.45232,1.41851 5.30081,1.41851 2.84047,0 3.52397.4678 4.41405,3.02111 1.3311,3.81839 4.11645,5.43799 6.8428,3.97889 1.1-.5887 2-1.50453 2-2.03518 0-1.87835 1.69496-.92972 2.84374,1.59157 1.44045,3.16146 3.15626,2.31005 3.15626-1.56619 0-4.67878-2.09927-13.10249-3.34763-13.43296-.6338-.16779-4.75237-1.47358-9.15237-2.90176-9.87178-3.20425-24.50503-6.8174-39-9.62963-6.05-1.17379-11.64239-2.35132-12.42754-2.61675-4.04797-1.36844 7.02396-5.25083 15.75383-5.5241l3.67371-.115-3.80085-.73585c-6.15282-1.19119-6.36235-2.40182-1.00748-5.82103 4.45528-2.84479 14.28069-7.21312 16.22403-7.21312 .46291,0 1.40085,1.35 2.0843,3s1.74167,3 2.3516,3 3.81783-1.67921 7.12868-3.73158c5.20814-3.22849 6.99494-3.78239 13.25323-4.10847 7.17777-.37398 7.24175-.35486 8.30179,2.48158 .58755,1.57216 1.87159,4.65847 2.85343,6.85847 5.36313,12.01708 6.28653,15.49285 6.30448,23.73066 .0144,6.58248.59044,9.79927 2.8241,15.76934 1.54334,4.125 3.12034,9.3 3.50445,11.5s1.99883,5.66111 3.5883,7.69136c4.49528,5.74188 3.35033,13.69463-2.62809,18.25459-2.32683,1.77476-3.48197,3.47898-3.48197,5.13706 0,3.72903-2.5591,9.11066-4.93768,10.38364-1.15884.62019-4.87765.99391-8.26401.83049l-6.15703-.29714 .19874-6.5c.22536-7.37033-.23363-8.42128-4.09002-9.36508-2.61363-.63965-2.75868-.48613-2.92503,3.09603-.27828,5.9923.27733,11.74285 1.16623,12.07056 1.02847.37916-3.35972,5.19849-4.73343,5.19849-.55708,0-1.58151-.68516-2.27651-1.52258-1.43098-1.72423-2.79941-1.45169-11.12823,2.21631-4.40072,1.93808-6.08336,2.25337-7.62436,1.42865-1.77138-.94801-2.04142-.67092-2.59202,2.65968-1.3455,8.13895-1.05894,8.87418 3.95044,10.13555 5.03035,1.26666 38.29734,13.63348 39.25769,14.59384 1.06011,1.06011-2.24593,2.45749-5.85138,2.47324-1.92863.008-5.07863.51562-7,1.12712s-9.3434,1.49369-16.4934,1.96044c-16.57582,1.08205-20.71574,1.7618-22.19747,3.64468-.65861.83691-3.32613,1.91933-5.92782,2.40538-4.77988.89298-34.17882,3.00143-37.87471,2.71632-1.1-.0849-8.075-.47881-15.5-.87546zm-284.50001-17.96317c-.33992-.55-1.29303-1-2.11803-1-.825,0-1.22189.45-.88197,1s1.29303,1 2.11803,1c.825,0 1.22189-.45.88197-1zm-5.5-3c0-.55-.47656-1-1.05902-1s-.7809.45-.44098,1 .81648,1 1.05902,1 .44098-.45.44098-1zm10-7.44098c0-.24254-.45-.7191-1-1.05902s-1-.14148-1,.44098 .45,1.05902 1,1.05902 1-.19844 1-.44098zm-33.18044-5.30902c.38463-2.70828-.0694-2.754-4.96614-.5-5.00096,2.30197-4.85369,3.43737.39658,3.0575 3.53303-.25563 4.30391-.68708 4.56956-2.5575zm339.18045-.25c0-1.46667-.66667-2-2.5-2-2.72961,0-3.16412.93588-1.3,2.8 1.84019,1.84019 3.8,1.4276 3.8-.8zm-101.07389-1.41097c.84592-1.01927.86446-1.60043.0668-2.09343-1.33188-.82315-67.31103-.69448-69.47387.13548-.83545.32059-1.51901,1.20975-1.51901,1.97591 0,2.08851 69.19244,2.07099 70.92611-.018zm6.53118-1.65813c-.94036-1.52154-2.44282-1.05677-1.82112.56336 .31537.82184.98359,1.24074 1.48493.9309s.65263-.98226.33619-1.49426zm-114.4506-11.6809c.004-.4125-2.10727-5.35325-4.69099-10.97945l-4.69768-10.22945-13.02836.53214c-7.16561.29268-13.22966.73343-13.47568.97945s1.09019.4542 2.96935.46262 4.03392.40632 4.78833.88421c.87085.55165-1.9604,1.13262-7.75444,1.5912l-9.1261.72231 2.75444,5.07868c1.51494,2.79328 4.15757,6.57035 5.87252,8.39349l3.11807,3.3148h16.63193c9.14755,0 16.63493-.3375 16.63861-.75zm109.69999-4.08556c6.01727-5.00762 16.88017-16.91092 16.12343-17.66766-.23685-.23686-1.75802-.0342-3.38038.45033s-2.58567.91966-2.14071.96694 .50996.56982.14446,1.16123c-.43233.69952-1.25887.43743-2.36525-.75-1.60968-1.72761-4.89057-1.82528-61.31108-1.82528-32.78571,0-59.87053.26012-60.18848.57805-.71035.71028 5.02691,17.93753 6.44661,19.35723 1.00443,1.00443 34.21527,1.99857 79.6628,2.38464l21.19809.18008 5.81051-4.83556zm43.25529,2.58556c.5055-1.2375 1.9359-5.81999 3.17865-10.1833 1.71777-6.03107 1.9591-8.03346 1.00647-8.351-.87995-.29332-.7162-.82483.54991-1.7849 1.55633-1.18015.10604-1.37154-10.60069-1.399l-12.40368-.0318-11.73299,12-11.73299,12h20.40811c20.22498,0 20.41637-.0202 21.32721-2.25zm-218.96198-24.86513c0-1.63098-6.87224-7.71798-11.5-10.18598-4.28616-2.28582-16.02831-3.02422-21.94785-1.38018-3.93672,1.09335-1.59988,2.64484 4.01548,2.66598 6.09092.0229 17.62776,3.35809 23.62349,6.82927 6.2649,3.62701 5.80888,3.46444 5.80888,2.07091zm231.89953-4.96005c1.02857-1.69135 2.82196-3.74186 3.98531-4.5567 2.99028-2.09448 2.66301-3.04799-1.83349-5.34193-3.91608-1.99783-8.71085-8.74563-12.70714-17.88305l-1.59334-3.64314-1.76494,5.72337c-1.93277,6.26759-6.3369,14.62108-11.63682,22.07203-1.87606,2.63748-3.14552,5.22498-2.82104,5.75 .32549.52665 6.39803.9546 13.54566.9546h12.95568l1.87012-3.07518zm16.84817-.29359c10.94014-7.75514 29.19923-11.05501 44.25231-7.99749 1.61933.32891 2.14773.1682 1.5-.45619-2.87595-2.77236-18.49438-3.93539-28-2.08503-2.75.53532-7.2746,1.12062-10.05468,1.30067-7.78745.50437-10.52566,2.70513-12.88602,10.35681-.91507,2.9664-.4257,2.86088 5.18839-1.11877zm72.25231-52.13123c-.68469-.825-2.42729-1.48405-3.87244-1.46456l-2.62756.0354 2.5,1.42913c3.49114,1.99571 5.6563,1.99571 4,0zm-293,50.5c0-1.18717 1.7373-1.18717 4.5,0 1.67602.72021 1.47353.87082-1.25.92971-1.7875.0387-3.25-.37971-3.25-.92971zm51.57508-2.19206c-.22365-.71936-.66709-4.83446-.98543-9.14466s-.8328-8.24769-1.14324-8.75-2.81747-.91328-5.57117-.91328-5.87714-.46583-6.94098-1.03518c-2.13128-1.14063-2.55425-4.93784-.89531-8.03761 1.17965-2.20418 13.88966-8.92721 16.87707-8.92721 1.08127,0 2.27516-.50032 2.6531-1.11183 .44147-.71432 2.38285-.88689 5.42993-.48268 4.00099.53075 5.97513.10334 12.62187-2.73269 10.93284-4.66482 22.68901-8.41074 30.37908-9.67983 3.575-.58999 20.4517-1.34688 37.50377-1.68198 29.05809-.57105 31.09768-.49635 32.5,1.19028 1.06711,1.28343 1.59212,4.86658 1.83057,12.49337 .42683,13.65202.16464,13.98258-11.15577,14.06466-4.49821.0326-15.37857.23396-24.17857.44744s-29.7186.66974-46.48577,1.01392c-18.33007.37627-30.97675,1.03327-31.71713,1.64773-.79787.66218-1.33095,4.7729-1.51423,11.67678l-.28287,10.65483-4.25915.30794c-2.85447.20639-4.39325-.12341-4.66577-1zm30.05654-29.47891c-.35212-2.56903-.85586-4.88661-1.11942-5.15016-.94869-.94869-14.01914,5.49941-14.32062,7.06486-.36131,1.87611 1.7755,2.4253 10.19434,2.62009l5.88593.13618-.64023-4.67097zm48.85686,2.8197 14.98849-.64873 .77529-5.40289c.42641-2.97159.50831-5.66988.18199-5.9962-.98806-.98806-15.4223-1.22104-23.89874-.38575-7.8904.77754-7.97315.81508-8.89479,4.03528-.75804,2.64858-1.65791,3.44637-4.85983,4.30856-5.00652,1.34812-12.12877-.71542-12.56982-3.64187-.15892-1.05442-.52364-3.00392-.81049-4.33223l-.52156-2.4151-1.85846,3.05599c-1.02215,1.68079-2.34493,3.35665-2.93951,3.72412-1.20387.74403-1.48899,7.80882-.36068,8.93713 .39621.39621 6.35871.42564 13.25.0654s19.27445-.9469 27.51811-1.30371zm7.42819-23.78807c.22916-.19836-4.18489-.36066-9.80902-.36066-6.46246,0-10.00153.3627-9.61659.98554 .55193.89304 18.33275.32107 19.42561-.62488zm31.77718,42.99986c-.93324-.93324.19452-2.36052 1.86517-2.36052 .79254,0 1.44098.675 1.44098,1.5 0,1.50623-2.11099,2.05568-3.30615.86052zm77.97463-41.48624c-1.00734-.5857-2.73824-.82779-3.84645-.53799-2.25488.58966-4.82203-.12982-4.82203-1.35145 0-.44066 2.01959-2.07888 4.48798-3.6405 4.52598-2.86335 5.98927-4.76311 4.95625-6.43458-.30925-.50037-1.21071-.90976-2.00325-.90976s-1.44098-.45-1.44098-1c0-1.30462 3.60133-1.28373 6.06574.0352 2.20094,1.17791 2.5033,4.08079.72211,6.93291-.66667,1.06752-.85589,2.29721-.42046,2.73263s4.37718.9545 8.75946,1.15351c5.39304.24491 7.84588.73086 7.59052,1.5038-.714,2.16117-16.84192,3.38088-20.04889,1.51625zm-26.16848-3.56446c-1.1-.27717-2.34813-.8309-2.77363-1.23051-1.9443-1.82602 7.75746-6.95704 13.27363-7.0201 1.96627-.0225 2.17976.17596 1,.92952-.8332.5322-1.5,2.41466-1.5,4.23469 0,3.12986-.17911,3.2836-4,3.43346-2.2.0863-4.9-.0699-6-.34706zm-134.5-1.3412c0-.53274.675-.96862 1.5-.96862s1.5.17686 1.5.39301-.675.65203-1.5.96862-1.5.13972-1.5-.39301zm93-16.87135c-.825-.46127-3.75-1.85199-6.5-3.09049-4.80247-2.16286-4.90233-2.28846-2.5277-3.17931 1.54597-.57997 3.23204-.56443 4.5.0415 1.11523.53293 3.59364,1.23988 5.50758,1.57099 2.85588.49406 3.78975.19479 5.20801-1.66896 1.4764-1.94019 1.98915-2.08467 3.52012-.99195 .98559.70347 2.57949,1.54345 3.54199,1.86663s1.75.97474 1.75,1.44792c0,1.46889-4.53486,3.91695-7.07898,3.82144-1.33156-.05-3.32102.15927-4.42102.46501s-2.675.1785-3.5-.28276z"/>
<path d="m416.03581,851.80934c-3.99591-.4514-8.04591-1.14094-9-1.53231s-52.5847-.88246-114.7347-1.09128c-84.7795-.28487-113.8741-.0862-116.50001.79538-8.0478,2.70192-57.21417.70628-67.5-2.73979-2.58231-.86516-11.26564-1.51307-24.49999-1.82808-18.86044-.44893-31.01696-1.80615-30.98853-3.45974 .01696-.98629 6.77074-3.99744 12.48853-5.56799 2.75-.75536 6.35-1.85468 8-2.44293 9.11813-3.25077 18.15653-5.37627 27.49999-6.46698l10.5-1.22571 .31453-3.80155c.49172-5.94322-.99654-6.92372-6.61995-4.36135-5.72708,2.6096-14.4659,2.82781-31.45812.78551-13.09776-1.57422-14.95634-2.5754-12.30182-6.62672 .91917-1.40282 1.40206-3.39859 1.07311-4.43504-.79041-2.49035-10.7008-8.02438-14.37014-8.02438-3.42744,0-5.4162-1.93118-4.13072-4.01113 1.0058-1.62741.18135-9.89515-1.15736-11.60619-1.19921-1.53275 1.07524-3.24218 5.24579-3.94262 1.87258-.31449 4.36312-.76217 5.53452-.99483 1.54108-.30608 3.04589-2.5075 5.44371-7.96369 3.48573-7.93172 4.80116-8.96725 10.55563-8.30962 2.84525.32516 2.87083.38824 2.87083,7.07987 0,3.71348.25807,6.75098.57349,6.75s1.08993-2.7788 1.72114-6.17293 1.51953-6.54302 1.97406-6.99755 6.43002-1.1204 13.27886-1.4797 14.19652-1.26039 16.32817-2.00244 7.68628-1.34917 12.34362-1.34917c7.79549,0 8.51206.1689 9.02413,2.12706l.55624,2.12706 1.72447-2.28619c1.45423-1.92792 3.35046-2.49697 12.10014-3.63122 5.70662-.73976 10.93817-1.13228 11.62567-.87225s1.25,1.45664 1.25,2.65914c0,2.08807.0858,2.10872 1.90845.45925s2.28767-1.54553 10.25,2.26731c4.58785,2.19694 9.88274,5.59452 11.76642,7.55017 3.35078,3.4788 3.38516,3.5996 1.58947,5.58383-1.95278,2.1578-1.30008,4.20158.70233,2.19917 1.6623-1.6623 3.49355-1.47311 5.53888.57222 1.59101,1.59101 3.16103,1.68308 16.75001.98236 8.24695-.42525 17.39323-.50334 20.32507-.17352 3.94387.44367 5.7649.21702 7-.87123 1.30627-1.15096 2.91695-1.29675 7.40503-.67023 3.15461.44036 33.97961.85304 68.5.91705 60.05441.11135 62.92626.0335 66.51435-1.804 2.0625-1.05621 3.75-1.51889 3.75-1.02818s6.35136.8922 14.11413.8922h14.11413l3.84486-4.25c2.11467-2.3375 3.84909-4.925 3.85426-5.75 .005-.825-1.93477-2.67872-4.31098-4.11938-3.61084-2.18919-5.12479-4.20027-9.21839-12.24542-2.69391-5.29433-5.43019-9.62811-6.08062-9.63063-2.0284-.008-2.56105-3.92698-1.84028-13.54062 .44573-5.94528.31561-9.98274-.36257-11.24994-.70086-1.30956-3.34524-2.57616-7.83619-3.75338-7.98027-2.09187-8.69244-2.5806-7.8103-5.35997 .84836-2.67295 3.53195-2.74943 3.53195-.10066 0,2.42333.87336,2.55544 2.46886.37347 1.04894-1.43451 1.63017-1.46712 4.92351-.27623 4.88967,1.76813 5.43163,2.5412 6.67091,9.51557 .57536,3.23796 1.67683,7.26377 2.44772,8.94625s1.14813,4.02843.8383,5.21322c-.81113,3.10176 3.04499,10.40381 8.84607,16.7511 4.10087,4.48701 6.07154,5.78571 11.14327,7.34355 9.45525,2.9043 14.38341,3.49084 17.71958,2.10896 2.02978-.84077 3.33136-.90086 4.19268-.19358 .73811.60611 11.06717,1.22063 25.2491,1.50218 20.94066.41574 24.36001.26864 26.82425-1.15401 2.64965-1.52968 2.90774-1.51683 4.17485.20788 1.60296,2.18184 8.55527,4.00727 9.95002,2.61252 .52299-.52299 2.21088-.95088 3.75088-.95088 3.22755,0 3.76355-2.27781 1.20204-5.10825-2.13763-2.36205-1.27156-3.42442 3.02774-3.71396 3.25511-.21922 3.57022-.007 3.57022,2.40691 0,2.93163 6.04226,11.8338 8.73285,12.86628 1.07866.41392 2.20835-.0112 3.04648-1.14655 .73265-.99244 1.95251-1.67898 2.71079-1.52565 3.23037.65318 3.02576-18.37637-.23686-22.02878-.85978-.9625-2.23445-1.75-3.05482-1.75s-5.81313-1.39419-11.09501-3.0982-17.84245-4.80554-27.91237-6.89228c-21.67203-4.49099-22.95444-5.11568-14.52028-7.07311 7.10269-1.64842 15.4525-1.05849 20.57922,1.45396 4.06334,1.99132 4.74779,2.09522 4.73469.71873-.0277-2.9135-1.81507-4.5307-5.17468-4.68209-5.74771-.259-12.81001-1.62209-12.81001-2.47246 0-1.75129 14.29388-9.95455 17.34544-9.95455 .77655,0 1.97511,1.35966 2.66345,3.02146s1.63915,3.26102 2.11291,3.55382 2.89515-.86689 5.38085-2.5771c6.54557-4.50347 10.73239-5.99818 16.80151-5.99818h5.36839l2.8294,6.25c4.04557,8.93648 5.57338,13.49274 6.62261,19.75 1.10479,6.58859 1.13599,7.61629.3492,11.5-.4207,2.07663.16747,4.74498 1.91096,8.66935 1.3853,3.11815 3.25327,8.51815 4.15104,12s2.7195,7.76313 4.04828,9.51393c3.33889,4.39933 3.02961,14.82392-.47623,16.05168-3.1974,1.11975-6.10781,4.63363-6.10781,7.37425 0,7.374-5.43489,11.66891-13.12258,10.37008-3.71722-.62802-3.81015-.73724-2.37307-2.78896 .82261-1.17444 1.49565-3.17434 1.49565-4.44422s.5625-2.47659 1.25-2.68156c5.05509-1.50715 5.30794-1.83198 2.00616-2.57725-5.89397-1.33036-7.56933-3.87878-4.66195-7.0914 2.18728-2.41692 1.02592-7.8959-1.67367-7.8959-1.38025,0-1.92054.70103-1.92054,2.4919v2.49191l-4.25-1.6502c-2.3375-.9076-4.88309-2.14146-5.65686-2.7419-1.18006-.91572-1.28761-.44688-.66717,2.90829 .40682,2.2 1.32869,5.35 2.04859,7 1.97246,4.52088 1.90077,18.94361-.10243,20.60612-1.33867,1.111-1.79942,1.03002-2.92901-.51479-1.61795-2.21269-5.94841-1.67631-11.80394,1.46207-2.15996,1.15767-5.17919,1.91849-6.93739,1.74817l-3.11302-.30157-1.23006,8.5c-.67653,4.675-1.52028,9.45053-1.875,10.61229-.70871,2.32111-.3389,2.51717 9.51629,5.0451 9.43389,2.41986 14.29273,3.21836 20.5,3.36895 4.53027.10991 5.37331.33573 3.4416.92189-1.40712.42697-3.61449,1.34152-4.90528,2.03233-1.98083,1.06011-15.15742,2.44227-31.53632,3.30801-3.26286.17247-4,.58-4,2.21143 0,1.68466-1.10368,2.20671-7,3.31105-8.32722,1.55963-47.90061,2.38275-58.2653,1.21191zm47.51128-16.84407c3.52006-2.50906 6.85105-6.17889 5.60837-6.17889-1.48057,0-6.3378,2.42007-6.34655,3.1621-.004.36416-1.9203.97857-4.2578,1.36536s-4.69352.96842-5.2356,1.29252c-2.35924,1.41055-14.5144-1.016-14.5144-2.89753 0-.50735-.675-.92245-1.5-.92245-1.82337,0-1.95783-2.1132-.25-3.92911 1.02781-1.09285.76118-1.21389-1.5-.68095-2.66164.62734-3.81231-.61536-1.75-1.88994 1.7304-1.06945 1.08812-2.5-1.12244-2.5-1.83671,0-1.94276-.21651-.78775-1.60821 1.12884-1.36018 1.0689-1.80257-.38865-2.86835-1.55289-1.1355-1.5692-1.38807-.16492-2.55352 1.02722-.85252 1.19354-1.51889.48793-1.95498-1.43146-.88469.88274-11.04199 2.67222-11.72867 .71698-.27514 1.30361-1.14123 1.30361-1.92464s.675-1.68342 1.5-2 1.5-1.25061 1.5-2.07561c0-.91564.57842-1.27804 1.48475-.93025 .87637.3363 1.9213-.24596 2.55017-1.42102 .58598-1.09492 1.56112-1.68441 2.16696-1.30998s1.6942-.12974 2.41857-1.12038c1.0156-1.38892 1.63134-1.54031 2.6903-.66145 1.51401,1.25651 2.68925.57698 2.68925-1.55492 0-1.99093-6.2987-.68894-12.37025,2.55701-8.33319,4.45507-12.88269,12.49737-12.80648,22.63845 .055,7.31903 1.84152,11.8349 6.63439,16.76996 4.76645,4.90785 8.82691,6.91916 15.54234,7.69874 6.29855.73118 9.82856.019 13.74598-2.77329zm-311.99599,2.19082c1.2375-.33163 2.25-1.04863 2.25-1.59333s-.70742-.7189-1.57204-.38711c-1.7217.66068-9.68034-1.09117-12.90047-2.83964-6.52834-3.54476-10.64193-6.80903-10.16077-8.06291 .30804-.80274-.28759-1.64422-1.41775-2.00292-2.60063-.8254-2.46634-2.10729.30103-2.87351l2.25-.62297-2.5-1.97142c-1.95511-1.54174-2.13144-1.97627-.80902-1.99366 2.27509-.0299 3.23603-1.8028 1.86959-3.44926-.84153-1.01398-.72421-1.48808.48286-1.95127 1.06631-.40918 1.38369-1.27598.95813-2.61678-.4521-1.42446-.18254-2.00493.93105-2.00493 .90072,0 1.56739-.85067 1.56739-2 0-1.1.45-2 1-2s1-.675 1-1.5c0-.83333.88889-1.5 2-1.5 1.17524,0 2-.66667 2-1.61663 0-1.12494.60901-1.45737 2.00236-1.093 1.22857.32127 2.35048-.0984 2.90322-1.08614 .74485-1.33097 1.16909-1.38715 2.44966-.32437 .85183.70696 2.43251,1.00489 3.51262.66208s2.25325-.15499 2.607.41738 1.46847,1.04068 2.47717,1.04068 2.09301.675 2.4096,1.5 1.48972,1.5 2.60699,1.5 2.03138.64468 2.03138,1.43261 .90653,1.72034 2.01452,2.072 1.7389,1.08534 1.40204,1.6304 .11745,1.79758 1.00959,2.78339 1.35554,2.48692 1.02979,3.33583-.0898,1.85405.52444,2.23365c.81196.50181.78754,1.08683-.0894,2.14353-1.58191,1.90609.47388,4.40377 2.20215,2.6755 1.55978-1.55978-.70402-11.73033-3.64958-16.39639-7.40751-11.73426-25.54845-13.55492-35.88329-3.6013-6.74445,6.49567-8.37574,15.76334-4.56665,25.94404 2.08145,5.56319 7.67765,11.91618 12.00643,13.63012 2.83483,1.12242 10.38055,1.38931 13.75.48633zm7.25-3.31069c0-.51754-.45-1.2191-1-1.55902s-1,.0835-1,.94098 .45,1.55902 1,1.55902 1-.42344 1-.94098zm159.00001-2.96562c41.06067-.01 68-2.0797 68-5.22518 0-.47752-15.1875-.90491-33.75-.94976s-55.35-.21261-81.75-.37281-52.38634-.0801-57.74743.17798l-9.74743.46925 3.42337,2.32317c3.85955,2.61916 7.04494,2.8252 63.07149,4.07968 15.95.35714 29.13503.76673 29.30006.9102s1.96504-.11504 4-.57448 8.87494-.83656 15.19994-.83805zm-154.00001-.0367c0-1.14497-4.1883-4.20173-4.8502-3.53983-.59736.59735 2.87416,4.48313 4.00519,4.48313 .46475,0 .84501-.42448.84501-.9433zm-11.90364-4.62011c5.88375-2.70262 6.37481-3.06246 7.61185-5.57779 .96202-1.95614.91417-3.71718-.23486-8.64262-1.9361-8.29933-4.42851-10.71618-11.05119-10.71618-6.22175,0-11.91024,3.77739-13.2315,8.78625-.93025,3.52657.75309,11.73612 2.94899,14.38202 2.88008,3.47028 8.65777,4.20231 13.95671,1.76832zm-9.57122-7.39591c-.32609-.52763-.0618-1.80971.58727-2.84907 1.7844-2.85729.31866-7.5376-2.15776-6.89-2.25656.5901-2.50691-.99031-.5626-3.55161 1.85798-2.44759 4.92893-2.33668 4.13985.1495-.42518,1.33962.21815,2.51542 2.18261,3.98912 4.81021,3.60852 5.34591,4.20459 4.70732,5.23786-.34216.55363.20975,1.61486 1.22646,2.35829 2.61446,1.91174.86179,3.12617-2.17,1.50361-1.93503-1.03559-2.7921-1.07457-3.6985-.16817-1.42617,1.42617-3.44484,1.53078-4.25465.22047zm9.94382-8.0909c-.95021-1.53748.35135-2.52947 1.63484-1.24598 .71818.71818.73543,1.27752.0524,1.69964-.55992.34605-1.31919.1419-1.68727-.45366zm15.27359,15.32258c.39375-1.18127-3.51333-2.83491-4.46041-1.88783-.83024.83024 1.83685,3.74247 3.05545,3.33627 .57057-.19019 1.20281-.84199 1.40496-1.44844zm294.17824-1.95838c1.33143-1.20231 2.56758-3.22731 2.747-4.5 1.66659-11.82175 1.72039-11.38003-1.82605-14.9948-7.95075-8.10396-12.92404-8.99492-18.31315-3.28081-4.223,4.47769-6.53748,9.32723-6.49678,13.61276 .0368,3.8796 1.54277,6.16782 6.16081,9.36125 4.54425,3.14239 14.14762,3.03492 17.72817-.1984zm-12.92078-9.03484c-2.71314-.48673-5.22975-2.27914-3.2-2.27914 .66,0 2.1-.9 3.2-2 2.86298-2.86298 7-2.68568 7,.3 0,2.47451-1.74643,4.78477-3.45,4.56382-.5775-.0749-2.175-.33801-3.55-.58468zm23.5,10.72086c.33992-.55.14148-1-.44098-1s-1.05902.45-1.05902,1 .19844,1 .44098,1 .7191-.45 1.05902-1zm-302.84509-4.54313c.80656-2.10184-.0901-2.77091-2.63221-1.96408-1.70284.54046-1.89323.9583-.95291,2.09131 1.52974,1.84323 2.84692,1.79649 3.58512-.12723zm305.34509-.34988c0-1.05539-2.4789-2.12004-4.83179-2.07519-1.43904.0274-1.40155.2335.27292,1.5 2.16706,1.63909 4.55887,1.94086 4.55887.57519zm-120.17986-1.62135c.72607-.26219 1.17607-1.49121 1-2.73117l-.32014-2.25447-39.5-.0693c-33.16592-.0582-40.18315.17745-43.76018,1.46947-4.95446,1.78956-5.01705,3.3899-.16033,4.09984 4.23798.6195 80.92075.14279 82.74065-.51436zm12.17986-1.48564c0-.55-.45-1-1-1s-1,.45-1,1 .45,1 1,1 1-.45 1-1zm109.19956-11.78447c-1.41323-6.73763-4.42424-11.39216-9.60301-14.84469-4.18317-2.78879-12.49725-4.63722-11.16548-2.48236 .40549.65608 1.60159.91854 2.65801.58325 1.22123-.38761 2.13122-.0612 2.4986.89618 .31781.82819 1.16246,1.28146 1.877,1.00727s2.53702.64866 4.04994,2.05079c2.39798,2.22238 2.57445,2.76179 1.37592,4.20592-1.22602,1.47726-1.13212,1.57956.8673.94497 2.25336-.71519 3.18279.72377 1.24216,1.92314-1.7142,1.05943-1.09682,2.5 1.07143,2.5 1.9731,0 1.98832.0831.32062,1.75s-1.61166,1.77804 1.17857,2.34029l2.92938.59028-2.81017,1.15784c-3.02465,1.24621-2.80098,3.16159.36919,3.16159 2.69658,0 2.44295,1.78961-.30902,2.18045-2.8533.40523-2.58817,2.14203.44098,2.88873 3.32812.8204 4.54013-3.55198 3.00858-10.85365zm-368.29925-3.98458c.087-1.98113-.24927-2.18569-2.65032-1.61211-1.5125.36131-3.33282,1.11686-4.04517,1.67898s-5.09985.9665-9.75.8986c-4.84187-.0707-8.45483.28828-8.45483.84006 0,.52994.3375.97948.75.99899s4.8.66129 9.75,1.4262c8.8584,1.36885 9.02718,1.35649 10.72777-.78547l1.72776-2.1762 .12192,3c.11984,2.94887.13556,2.95739.92255.5 .44036-1.375.8455-3.52107.90032-4.76905zm83.57849,2.80335c.93415-1.51148-8.05291-17.79354-9.19238-16.65406-.23149.23149.67293,2.60314 2.00982,5.27033s2.97704,6.53693 3.64478,8.59943c1.20308,3.71601 2.38639,4.6473 3.53778,2.7843zm50.10472-.16945c.50954-.82445 7.02616-.95811 23.80902-.48834 12.7091.35575 35.37143.90846 50.36072,1.22826l27.25327.58145 4.24673-2.52218c4.79311-2.84667 22.47383-20.27028 21.52859-21.21553-.74075-.74075-131.74248-.59087-132.94464.1521-.46344.28642-.45365,1.28096.0217,2.21008s1.16094,3.03931 1.52341,4.68931c.52032,2.36852.073,1.94754-2.12491-2l-2.78395-5-17.98675.33025c-9.89272.18164-18.75376.54296-19.69121.80293-2.09371.58063-1.26413,2.81127 4.50476,12.11271 6.37435,10.27768 6.31626,10.25411 25.27553,10.25411 11.08629,0 16.53071-.36338 17.00768-1.13515zm151.76471-.13022c.95177-.69595 2.56529-4.40845 3.5856-8.25s2.54328-8.85645 3.38438-11.14422 1.26359-4.42528.93887-4.75-6.40088-.59041-13.50257-.59041h-12.91215l-11.67118,12.10704c-6.41915,6.65887-11.82118,12.50887-12.00451,13-.55406,1.48425 40.13369,1.12503 42.18156-.37241zm20.97224-20.0185c3.76106-6.41776 12.47451-13.97743 18.98032-16.46706 18.87282-7.22222 41.17322-4.21496 51.22155,6.90733 4.52334,5.0068 9.0843,14.49643 10.46402,21.77166 .56527,2.98067 1.24959,5.64122 1.5207,5.91234 2.80401,2.804-.007-13.07167-3.67356-20.74351-1.20817-2.52829-4.97971-7.34656-8.3812-10.70727-6.93556-6.85241-10.89241-8.61345-23.49326-10.45594-8.2817-1.21094-22.48124-.5158-23.51138,1.15101-.31113.50342-2.49699.91531-4.85745.91531-8.95211,0-9.98747.91964-17.04929,15.14364-6.1337,12.35459-9.55646,21.51913-9.52754,25.51027 .007,1.01535 1.2927-1.82905 2.85632-6.32089s4.01647-10.16944 5.45077-12.61689zm-329.32048,13.28387c0-.55-.19844-1-.44098-1s-.7191.45-1.05902,1-.14148,1 .44098,1 1.05902-.45 1.05902-1zm6.5,0c.33992-.55-.05697-1-.88197-1-.825,0-1.77811.45-2.11803,1s.05697,1 .88197,1c.825,0 1.77811-.45 2.11803-1zm416.93419.10648c.30373-.49144-.094-2.72526-.88394-4.96406s-1.18886-5.59453-.88638-7.4585c.63252-3.89776-1.41595-5.42216-4.83055-3.59471-1.49486.80002-1.84007,1.64614-1.32453,3.24641 .3835,1.19041 1.2882,4.63938 2.01044,7.66438 .72223,3.025 1.35087,5.6125 1.39696,5.75 .22701.67717 4.03718.13447 4.518-.64352zm-447.87599-3.20065c.37193-.60179 1.73561-.89166 3.03041-.64414 2.34098.44751 2.34453.43361.63278-2.47871-1.18848-2.02205-1.81904-2.45452-2.0368-1.39693-.17348.84249-1.88373,2.09891-3.80057,2.79205-2.85718,1.03317-3.16072,1.38828-1.68459,1.97079 2.57941,1.01788 3.09972.98511 3.85877-.24306zm15.4418-.84681c0-.51754-.45-1.2191-1-1.55902s-1,.0835-1,.94098 .45,1.55902 1,1.55902 1-.42344 1-.94098zm8.21649-4.24253c-1.35127-1.35127-2.58908.77227-1.73785,2.9814 .60457,1.56899.73691,1.55771 1.69224-.14427 .68447-1.21943.69996-2.18279.04562-2.83713zm10.78351,2.18351c0-.55-.19844-1-.44098-1s-.7191.45-1.05902,1-.14148,1 .44098,1 1.05902-.45 1.05902-1zm-5-5.33333c0-2.84194-.74637-3.70123-2.59777-2.99078-1.71909.65968-1.81013,2.51622-.20223,4.12411 1.83298,1.83298 2.8,1.44157 2.8-1.13333zm86.9676-6.49759c-2.27291-4.70439-8.79464-10.7328-14.33059-13.2466-7.6815-3.48806-26.58035-1.83628-31.13813,2.7215-.87677.87676-1.43478,1.75346-1.24002,1.94821s3.70368-.0192 7.79761-.47553c14.43204-1.60853 27.9463,1.97231 36.94353,9.78884 1.925,1.67238 3.57166,3.0528 3.65925,3.0676s-.67365-1.69701-1.69165-3.80402zm236.03241-6.16908c0-.55-.47656-1-1.05902-1s-.7809.45-.44098,1 .81648,1 1.05902,1 .44098-.45.44098-1zm113.64286-.5c.825-.825 2.7913-1.5 4.36955-1.5 5.13382,0 5.01713-3.79806-.13666-4.4482-1.30666-.16484-2.99235-.46892-3.74598-.67575-1.9134-.52512-5.16603,5.24455-3.87517,6.87395 1.26257,1.59369 1.56703,1.57122 3.38826-.25zm-25.22546-.36635c1.44835-2.34348-6.79986-5.89105-9.15411-3.9372-1.0815.89757-.80151,1.46832 1.44797,2.95156 2.94723,1.94332 6.809,2.43725 7.70614.98564zm3.0826-46.13365c.33992-.55-.33508-1-1.5-1s-1.83992.45-1.5,1 1.01492,1 1.5,1 1.16008-.45 1.5-1zm-275.00988,43.75c-4.52639-12.6547-7.4879-22.08555-7.06742-22.50604 .29162-.29162.81585.32169 1.16496,1.36291 .57653,1.71954 7.45346,19.74026 8.24567,21.60748 .18334.43211-.16829.78565-.78138.78565s-1.31592-.5625-1.56183-1.25zm150.08003-2.25c3.0256-5.12059 8.69202-13.5 9.12912-13.5 .87403,0-5.33169,10.2547-8.0505,13.30311l-2.85123,3.19689 1.77261-3zm-123.72351-1.75c-.67305-1.2375-1.47639-5.4-1.78519-9.25l-.56145-7-6.33584-.69879c-8.99436-.99201-11.18396-3.47252-7.59204-8.60072 1.81178-2.58668 12.37781-8.20049 15.43455-8.20049 1.13503,0 3.19327-.74012 4.57385-1.64472 2.13815-1.40096 2.87375-1.45012 4.96358-.33168 2.20924,1.18235 3.72253.80604 15.20466-3.78092 7.01318-2.80167 15.22624-5.77255 18.25124-6.60194 7.66248-2.10089 19.59149-3.11074 20.44439-1.73072 .91067,1.4735 24.83213,1.39228 30.05561-.10205 2.2-.62938 9.21143-1.31891 15.58095-1.5323 9.47772-.31751 11.81005-.11194 12.84239,1.13196 .73248.88258 1.47288,5.6236 1.76567,11.30615 .70335,13.6506 1.11242,13.29435-16.09384,14.01577l-13.82196.57952 .57537-2.90454c.96817-4.88739 1.10064-9.86866.29703-11.16893-.96613-1.56323-28.83579-1.73937-31.71135-.20042-1.11718.5979-1.93426,2.08685-1.93426,3.52475 0,3.15902-3.84358,4.7951-9.74945,4.15002-5.47223-.59771-7.25055-2.15084-7.25055-6.33239 0-2.33561-.46274-3.37756-1.5-3.37756-.825,0-1.5.67798-1.5,1.50661s-1.1227,2.48279-2.49489,3.6759c-2.09158,1.8186-2.43619,2.87402-2.13174,6.5287 .27191,3.26401-.0435,4.57026-1.2551,5.19848-3.12539,1.62047-4.60374-.14581-4.91928-5.87737-.16556-3.00722-.46921-5.63587-.67478-5.84145s-3.89512,1.13557-8.19899,2.9803c-6.01686,2.57897-7.82522,3.81334-7.82522,5.34145 0,1.35099.80054,2.11012 2.5,2.37068 2.0418.31304 1.67524.58796-2,1.5l-4.5,1.1167-1.1478,11c-.6313,6.05-1.1938,11.1125-1.25,11.25s-1.21137.25-2.56702.25c-1.52685,0-2.93049-.85622-3.68854-2.25zm-41.34664-21.75c.33992-.55 1.26648-1 2.05902-1s1.44098.45 1.44098,1-.92656,1-2.05902,1-1.7809-.45-1.44098-1zm272.56788-.94113c-2.25021-1.9516-3.58728-2.05887-25.66187-2.05887-14.44663,0-23.52261.37965-23.90601,1-.91794,1.48526-4.48201,1.21046-5.09732-.39301-.31931-.83212-2.82282-1.67892-6.21757-2.10307-3.12567-.39052-6.84171-1.30922-8.25788-2.04155-2.71947-1.40629-7.41206-7.76145-8.1414-11.02585-.54711-2.44878 1.84449-7.43652 3.56578-7.43652 4.45521,0 28.36863,3.91367 58.64839,9.5984 6.12489,1.14989 29.63673,4.36017 32.17327,4.39291 1.65363.0213 6.82673,5.37049 6.82673,7.05904 0,2.32557-5.84773,4.09148-12.72926,3.844-2.62391-.0944-5.68384.14229-6.79985.52591-1.36875.47049-2.80169.0274-4.40301-1.36139zm-153.31788-.79108c2.3375-.21053 6.1625-.21053 8.5,0s.425.3828-4.25.3828-6.5875-.17226-4.25-.3828zm116.76492-24.24365c-.40506-.65539-2.0268-.83114-4.0929-.44353-4.65577.87342-4.29739-.57859 1.07798-4.3675 2.80212-1.97512 4.5-3.93428 4.5-5.1925 0-2.27446 2.50175-2.76141 3.31388-.64503 .29032.75657-.1247,2.63339-.92228,4.17073-1.52422,2.93794-1.07002,4.0327 1.91122,4.60663 .99155.19088 1.89155.79706 2,1.34706 .27225,1.38072-6.95777,1.86732-7.7879.52414zm13.08526.13795c-.6707-1.08522 1.60295-2.16209 4.56494-2.16209 1.15348,0 1.82764.52963 1.59109,1.25-.49984,1.52224-5.33608,2.23879-6.15603.91209zm-38.60018-3.5879-3.5-1.27365 3.5-2.14653c1.925-1.1806 4.175-2.14471 5-2.14247 1.63495.004 4.2719,4.7395 3.41319,6.12893-.73368,1.18712-4.24416.95083-8.41319-.56628zm-42-18.59536c-.825-.44751-2.9625-1.35542-4.75-2.01756s-3.25-1.64746-3.25-2.18958c0-.55017.7732-.66312 1.75-.25563 .9625.40151 3.775,1.13652 6.25,1.63333 3.94223.79134 4.70579.65215 6.16029-1.12304 2.0413-2.49136 2.4206-2.50118 5.42186-.14039 1.82368,1.43451 2.10081,2.11973 1.15773,2.86256-1.70271,1.34116-10.8984,2.22921-12.73988,1.23031z"/>
<path d="m425.80111,851.7635c-7.425-.38897-15.32119-1.2107-17.54709-1.82607-6.25153-1.7283-226.5677-1.86084-235.9488-.14195-4.95419.90775-12.39618,1.10665-25.5.68155-22.7548-.7382-34.2782-2.15291-39.49696-4.84897-3.06201-1.58186-5.10188-1.93139-8.75-1.49932-2.61643.30987-4.75715.40664-4.75715.21503s3.00431-1.79733 6.67624-3.56827c4.68353-2.25883 8.11601-3.21989 11.5-3.21989 2.65307,0 4.82376-.38142 4.82376-.84759s-.85953-3.02824-1.91006-5.69346-2.22746-6.96242-2.61538-9.54932-1.10923-4.95307-1.60288-5.25817-3.3836.37544-6.42212,1.5123c-6.25257,2.33939-12.7836,2.58548-27.27912,1.02789-15.49858-1.66537-16.17044-1.82937-16.17044-3.94718 0-1.04261.45-2.17378 1-2.5137s1-1.93233 1-3.53869c0-2.38917-.71112-3.28345-3.90775-4.91425-2.14927-1.09647-4.0645-2.46382-4.25608-3.03855s-2.70809-1.32444-5.59225-1.66603-5.24392-.95328-5.24392-1.35933c0-1.33509 2.89028-3.16899 3.9562-2.51022 .57409.35481 1.49938.36355 2.05619.0194 1.52105-.94006-.52661-3.9758-2.6878-3.98477-1.24467-.005-1.92515-.88162-2.141-2.75758-.25485-2.21488.08568-2.75 1.75-2.75 2.21216,0 2.84151-1.57497.88937-2.22568-2.09445-.69815.21128-2.77432 3.08108-2.77432 3.56639,0 5.8833-2.60814 9.14693-10.29666 2.30505-5.4303 3.01496-6.24192 6.03082-6.89494 5.70681-1.23567 6.19013-.62623 5.74539,7.24465-.37331,6.60657-.27472,7.01217 1.63781,6.73833 1.33309-.19087 2.12805-1.1537 2.30472-2.79138 .7887-7.31116 1.38382-9.24649 2.50006-8.13025 .62164.62164 2.79812,1.13025 4.83663,1.13025 3.21405,0 3.63691.26567 3.18337,2-.28766,1.1-.24607,2 .09242,2 .76121,0 12.69911-6.2991 18.11783-9.55998 3.43407-2.06655 5.28143-2.40945 13.05696-2.42357 8.96664-.0163 9.06737.011 10.10117,2.73355l1.04422,2.75 1.09154-2.66443c1.25267-3.05774 2.15138-3.42577 11.70611-4.79374 10.44418-1.49533 12.5-1.36515 12.5.7915 0,2.78696 1.14254,3.34765 3.13932,1.54059 1.67704-1.5177 2.31908-1.40304 9.28476,1.65815 7.6101,3.34439 16.37095,10.7431 13.82592,11.67627-.6875.25208-1.25,1.06927-1.25,1.81598 0,2.85558-1.87065,2.25678-6.34599-2.03135-7.6732-7.35222-11.69335-8.97999-22.15401-8.97025-12.01903.0112-18.51329,2.10463-27.10053,8.73591-7.82697,6.04418-11.46237,10.81096-14.55087,19.07925-1.46649,3.92596-2.91322,6.11639-4.41749,6.68831-1.23025.46775-2.5321,1.3282-2.89298,1.91213s-2.90616,1.06168-5.65616,1.06168c-3.07869,0-4.76251-.38426-4.38197-1 .33992-.55 1.5056-1 2.5904-1 2.95119,0 3.38915-2.52856 1.80054-10.39545l-1.43467-7.10455-6.72813-.29569-6.72813-.29569 .01531,8.29569c.0084,4.56263.44632,8.97069.97311,9.79569 .75901,1.18868.33257,1.60377-2.05467,2-1.65686.275-3.01883.95-3.02661,1.5-.01207.85327 12.0059,3.47151 26.77458,5.83312l4.07736.65199 1.12585-7.56973c1.58594-10.66307 4.41222-16.57234 10.65508-22.27797 6.63042-6.05983 14.19599-8.48223 26.46139-8.47259 12.52248.01 20.3666,2.87699 28.38043,10.37354 6.41945,6.00507 10.50824,12.35213 12.66464,19.65938 1.35661,4.59705 3.16088,5.96226 4.98112,3.76901 .92883-1.11917.44086-2.72431-2.33799-7.69056-1.9315-3.45191-5.12245-8.30119-7.09101-10.77619-4.23278-5.32173-4.39683-6.8726-.98956-9.35524 2.49198-1.81573 2.58626-1.81224 4.4273.16388 1.80852,1.94122 2.72184,1.99755 23.67238,1.46013 11.9852-.30744 22.01628-.83119 22.29128-1.16388s24.8-.37989 54.5-.10489 61.65.21817 71-.12628 24.01973-.65751 32.59939-.69568c15.46761-.0688 15.61312-.0903 17.22415-2.54907l1.62475-2.47969 3.06953,2.86736 3.06952,2.86737-3.16432,6.26849c-3.65989,7.2502-6.86294,16.34962-6.89843,19.5975-.0453,4.14418 1.81681,2.3074 3.4877-3.44028 2.45871-8.45767 8.02019-18.8422 12.47888-23.30089 12.29762-12.29762 38.43613-15.83931 55.07229-7.46214 8.69717,4.37949 15.68179,14.95662 18.24745,27.63297 .68726,3.39561 1.768,6.34664 2.40163,6.55785 2.15874.71958 3.37835-3.37782 2.35763-7.92072-1.27231-5.66264-.63351-6.0113 1.15296-.62929 1.28843,3.88158 1.78203,4.34253 4.93976,4.61306 4.86662.41694 6.01375-1.27831 4.26345-6.30056-.76671-2.2-1.13511-5.41512-.81865-7.1447 1.07024-5.84928-.64363-7.23425-9.35964-7.56347-6.42534-.24269-7.78263-.58651-8.06053-2.04183-.28058-1.46938.43927-1.75246 4.48916-1.76531 2.65282-.008 5.4273-.39812 6.16549-.86598 3.50619-2.22223-5.14589-8.10925-9.76392-6.64354-1.07424.34094-2.7688.20101-3.7657-.31096-5.85289-3.00585-14.80167-5.29945-28.198-7.22721-6.70026-.96419-9.81522-.94627-15.5.0892-3.913.71271-7.61263,1.67503-8.22139,2.13848s-2.43999.576-4.0694.25012c-4.92732-.98546-9.86034,1.80205-13.41626,7.58116l-3.15214,5.12289-2.37817-2.23418c-2.1975-2.06444-2.26418-2.40815-.87768-4.52421 2.19298-3.34691 1.91041-4.11064-2.3192-6.26842-4.0972-2.09024-7.12527-6.07802-12.10306-15.93896-1.72446-3.41614-4.02231-7.09809-5.10632-8.1821-3.30208-3.30208-2.15217-12.97093 1.54262-12.97093 1.06557,0 1.39361,1.139 1.25372,4.3531-.38137,8.76279 10.42972,22.09955 20.38776,25.15073 7.26611,2.22636 16.03328,3.00094 18.57427,1.64105 1.60387-.85837 2.33279-.77499 3.28814.37613 1.02316,1.23283 5.37026,1.47899 26.11857,1.47899 17.90842,0 25.44142-.34366 26.85275-1.22505 1.61704-1.00986 2.18556-.93598 3.23643.42061 1.58719,2.04892 7.67265,3.73779 11.10445,3.08176 2.18983-.41862 2.67325-.0624 3.20949,2.36492 .34723,1.57177 1.31398,4.65776 2.14833,6.85776s1.88634,6.58409 2.33775,9.74242 1.58899,7.20833 2.52795,9c1.26036,2.40492 1.6554,5.35155 1.50924,11.25758-.2142,8.6553-1.32132,11.18599-3.56456,8.14799-1.31859-1.78577-1.55763-1.78922-6.68267-.0965-2.92335.96553-6.3461,2.42527-7.60613,3.24386-1.81182,1.17707-2.81232,1.25081-4.78372.35258-2.94894-1.34363-2.90304-1.43121-4.32625,8.25526-1.21419,8.26388-4.65653,15.67642-10.20989,21.98536-2.24939,2.55545-3.85123,5.26796-3.55965,6.02781 .77459,2.01856-6.54122,3.60975-21.32953,4.63919-6.875.47858-13.175.81584-14,.74947s-7.575-.43893-15-.8279zm-211.97254-12.50197c1.43682-1.3003 3.65722-1.39979 15.07874-.67564 7.36659.46706 14.34563.51244 15.50899.10085s3.87025-.35401 6.01533.12796c5.54138,1.24506 8.95589,1.27189 56.36948.44295 53.28851-.93167 59.87003-.94726 63.84965-.15134 3.0014.60028 3.41917.32564 6.21805-4.08773 2.01532-3.17784 4.51685-5.50189 7.61894-7.07842 3.47134-1.76419 4.27011-2.56773 3.21592-3.23517-.77141-.48839-25.47756-.90177-54.90256-.91861-48.28828-.0276-60.40501-.55436-54.97197-2.38964 .80958-.27348 18.39359-.68042 39.07557-.9043s38.11948-.7259 38.75-1.11558c1.50344-.92918 1.47242-4.27095-.0484-5.21086-.65712-.40612-18.99462-.63637-40.75-.51165-42.20398.24195-47.3978.7457-46.85218,4.54417 .16647,1.15894 1.17582,2.2075 2.29696,2.38619 1.1.17532 2.66239.54163 3.47197.81401 5.09624,1.71463-5.3237,2.36465-38.97197,2.43115-29.47388.0583-37.07845.32908-35.5304,1.26532 3.59365,2.1734 7.81422,7.13546 9.73151,11.44119 2.10536,4.72808 2.41804,4.90464 4.82635,2.72515zm250.17201-3.77472c11.24256-9.16468 15.31374-18.42895 12.98995-29.55954-3.97674-19.04789-26.11652-26.31074-41.10234-13.48343-11.72993,10.04038-12.38129,29.73095-1.3052,39.45589 4.65727,4.08913 9.33473,6.01922 16.71812,6.89848 3.3.39299 6.32064.77609 6.71254.85135s3.08601-1.79799 5.98693-4.16275zm-10.5328-4.3671c-1.02033-1.02032-.79238-4.33333.29815-4.33333 .89105,0 3.03518,3.13247 3.03518,4.43426 0,.78682-2.52194.71046-3.33333-.10093zm4.33333-1.33333c0-.55.45-1 1-1s1,.45 1,1-.45,1-1,1-1-.45-1-1zm3.68526-1.70024c-.2892-.46794.5633-1.89905 1.89446-3.18024s2.42028-1.81339 2.42028-1.18267c0,1.64728-3.68821,5.37665-4.31474,4.36291zm-22.45609-2.48726c.2177-.65312.93051-1.36573 1.58401-1.58356 .73075-.24358.95424.21359.58051,1.1875-.69752,1.81771-2.76448,2.19592-2.16452.39606zm-3.22917-1.63104c0-1.20855 1.8972-2.61759 2.5907-1.9241 .2517.2517-.22824,1.02686-1.06653,1.72258-.95039.78875-1.52417.86462-1.52417.20152zm30-3.8039c0-1.3288.27149-1.39713 1.5-.37756 .825.68469 1.5,1.41479 1.5,1.62244s-.675.37756-1.5.37756-1.5-.7301-1.5-1.62244zm-31.1875-1.06067c.72188-.28887 1.58438-.25335 1.91667.0789s-.25834.56864-1.3125.52522c-1.16495-.048-1.4019-.28494-.60417-.60416zm32.6875-2.31689c-.33992-.55-.14148-1 .44098-1s1.05902.45 1.05902,1-.19844,1-.44098,1-.7191-.45-1.05902-1zm-34.5-1c0-.55.70156-1 1.55902-1s1.2809.45.94098,1-1.04148,1-1.55902,1-.94098-.45-.94098-1zm16.40692-2.38198c-.85795-2.23577.37286-3.61802 3.22165-3.61802 2.03153,0 2.44956.42929 2.19098,2.25-.38073,2.68078-4.50853,3.72407-5.41263,1.36802zm18.59308-.61802c0-.55.45-1 1-1s1,.45 1,1-.45,1-1,1-1-.45-1-1zm-34.48992-2.01631c.34546-.55897 1.04702-.75742 1.55902-.44098 1.38704.85723 1.12841,1.45729-.62812,1.45729-.85746,0-1.27636-.45734-.9309-1.01631zm.0326-2.91459c-.31644-.512-.11799-1.21356.44098-1.55902s1.01631-1.50156 1.01631-2.5691 .45-1.94098 1-1.94098 1-.675 1-1.5 .675-1.5 1.5-1.5 1.5-.708 1.5-1.57332c0-.95617.68196-1.442 1.73852-1.23852 2.23621.43065 2.9767,3.81184.8348,3.81184-.86532,0-1.57332.675-1.57332,1.5s-.45,1.5-1,1.5-1,.675-1,1.5-.45,1.5-1,1.5-1,.675-1,1.5c0,1.64238-2.53597,2.05983-3.45729.5691zm33.45729-3.0691c0-.55.45-1 1-1s1,.45 1,1-.45,1-1,1-1-.45-1-1zm-1.7381-3.69048c.92977-.92976 1.97126-1.4097 2.31443-1.06653 .98418.98419-.52669,2.75701-2.34963,2.75701-1.52648,0-1.52374-.13153.0352-1.69048zm-3.2619-1.77434c0-.80565.9-1.94648 2-2.53518 1.53583-.82195 2-.76049 2,.26482 0,1.46983-1.94076,3.73518-3.2,3.73518-.44,0-.8-.65917-.8-1.46482zm-3-1.42389c0-1.04469-6.61141-2.55583-9.5-2.17137-1.1.14641-2.28719.72747-2.6382,1.29125-.83157,1.33566-2.8618.0657-2.8618-1.79019 0-.79254.81-1.44098 1.8-1.44098s2.28921-.48921 2.88713-1.08713c.78285-.78285 1.2836-.76925 1.78903.0486 .51694.83643 1.09377.81046 2.18908-.0986 1.1837-.98238 1.6502-.97051 2.28598.0582 .56253.9102 1.00109.96512 1.4828.1857 1.00565-1.62718 2.56598-1.34708 2.56598.46063 0,1.11231.58068,1.38308 2,.93261 2.27178-.72103 2.76919,1.33081.8,3.3-1.41351,1.41351-2.8,1.56765-2.8.31129zm-302.00001,38.8078c16.23834-7.35052 19.77534-26.91103 7.20862-39.86548-5.23866-5.40029-9.45729-7.03912-18.1429-7.04803-21.95474-.0225-30.95396,27.19065-14.31471,43.28697 2.15626,2.08591 5.23189,4.18473 6.83473,4.66405 5.30687,1.58699 13.65551,1.1166 18.41426-1.03751zm2.66667-10.58576c-.36667-.36666-.66667-1.32176-.66667-2.12244 0-1.18064.28349-1.2205 1.5-.21089 .825.68469 1.5,1.63979 1.5,2.12244 0,1.03552-1.38365,1.16058-2.33333.21089zm2-4c-1.15064-1.15063-.72824-2.33333.83333-2.33333 .825,0 1.5.675 1.5,1.5 0,1.56157-1.1827,1.98397-2.33333.83333zm-30.66667-3.33333c.7257-1.35599.73703-2 .0352-2-.56935,0-1.03518-.708-1.03518-1.57332 0-.97754.6627-1.4284 1.75-1.19061 .9625.21049 1.61375.98975 1.44721,1.73168s.22862,1.6774.87812,2.07881c1.64265,1.01521.21887,2.95344-2.16953,2.95344-1.66629,0-1.80833-.31361-.9058-2zm31.73741-.75c-.20934-.4125-.45925-2.02852-.55536-3.59117-.21021-3.41786-3.03981-9.73428-5.04293-11.25713-.79457-.60406-1.12436-1.61656-.73288-2.25 .99458-1.60925 3.59376-1.4417 3.59376.23167 0,.76085.95845,1.63401 2.12988,1.94034 1.37762.36026 1.92725,1.08502 1.55618,2.05203-.31554.82227-.0371,1.67393.61885,1.89256 1.7092.56974 1.80072,11.7317.0962,11.7317-.70569,0-1.45435-.3375-1.66369-.75zm-17.73741-3.75c0-2.6939 2.63658-3.46342 4.72186-1.37814 1.69011,1.69011.37618,3.87814-2.32885,3.87814-1.88588,0-2.39301-.52981-2.39301-2.5zm-15-3.5c0-.55.675-1 1.5-1s1.5.45 1.5,1-.675,1-1.5,1-1.5-.45-1.5-1zm1.5-4c-.33992-.55.057-1 .88197-1s1.77811.45 2.11803,1-.057,1-.88197,1-1.77811-.45-2.11803-1zm2.95888-3.06653c-.36253-.58659-.41903-1.30665-.12555-1.60014 .71632-.71631 2.66667.54583 2.66667,1.72569 0,1.27797-1.72641,1.19267-2.54112-.12555zm2.61501-2.34444c-.80051-.96456-.83925-1.61601-.12245-2.05902 1.39636-.863 3.04856.23665 3.04856,2.02901 0,1.83608-1.41516,1.85059-2.92611.03zm3.59278-1.2557c-1.34174-1.34173-.62098-3.45153 1.08333-3.17115 .9625.15835 2.33221-.0771 3.0438-.52323 .73602-.46143 1.92161-.2901 2.75.3974 1.02557.85115 1.4562.87661 1.4562.0861 0-.61734.675-1.12244 1.5-1.12244s1.5.48032 1.5,1.06739c0,.61231.85269.79675 2,.43261 1.57605-.50022 2-.1797 2,1.51207 0,1.88554-.38146,2.06306-3.13403,1.45849-4.77712-1.04923-8.86597-1.17738-8.86597-.27787 0,.97381-2.39895,1.07503-3.33333.14064zm226.77757,18.75691c.72276-1.16945-.38495-4.09024-1.55122-4.09024-.49115,0-.89301,1.125-.89301,2.5 0,2.47119 1.35495,3.35273 2.44423,1.59024zm-146.44423-4.70827c0-.825-.45-1.22189-1-.88197s-1,1.29303-1,2.11803c0,.825.45,1.22189 1,.88197s1-1.29303 1-2.11803zm-21-8.94099c0-.85746-.45-1.2809-1-.94098s-1,1.04148-1,1.55902 .45.94098 1,.94098 1-.70156 1-1.55902zm191.03653,1.051c3.45212-.75822 5.22142-3.63355 6.78515-11.02678 .5857-2.76914 2.0069-7.2324 3.15824-9.91835 1.65496-3.86086 1.82389-5.0545.8067-5.69988-1.88257-1.19447-25.57958-1.02814-27.86613.19558-1.29351.69227-23.53084,1.04368-66.18426,1.0459-65.24682.003-112.35816.94182-114.5254,2.28125-1.35814.83937.55143,5.09332 6.36813,14.18629 5.50826,8.61078 5.47459,8.60031 26.06486,8.10756 9.8209-.23502 18.30618-.54032 18.85618-.67845s23.30105.0958 50.5579.51988c37.56557.58443 50.09407.48406 51.77361-.41481 1.74205-.93231 2.49387-.90764 3.51692.1154 1.43504,1.43504 35.15713,2.50121 40.6881,1.28641zm11.84919-6.56261c-1.60476-.99179-2.33522-.46569-1.41676,1.02041 .36808.59556 1.13619.79425 1.7069.44153 .67187-.41524.56959-.93059-.29014-1.46194zm-336.33791-2.3889c1.88138-3.96471 1.19055-11.3199-1.14748-12.21709-.77019-.29555-1.40034-1.38921-1.40034-2.43037 0-2.25271-1.29275-2.45013-2.95203-.45081-.6583.7932-2.6259,1.5807-4.37244,1.75-2.92205.28323-3.20158.62709-3.50188,4.3078-.17949,2.2.2222,5.66378.89266,7.69728 1.23726,3.75261 1.59403,3.9339 9.13678,4.64268 1.04506.0982 2.33737-1.17662 3.34474-3.29949zm10.24616-3.61864c.31112-4.67966-1.64411-8.75052-3.61718-7.5311-1.02799.63534-.77797,7.63578.40867,11.44243 .87646,2.81161 2.9278.31092 3.20851-3.91133zm35.03454-17.29715 .32851-2.87532-4.82851.72269c-5.62809.84237-6.32852,1.1748-6.32852,3.00363 0,1.84853 1.76124,2.44981 6.5,2.21908 3.60832-.17569 4.03217-.47632 4.32852-3.07008zm418.63802,24.62532c.85266-4.64004.9326-4.71115 6.93174-6.16577 6.11207-1.48201 7.2422-.55284 5.2185,4.29054-1.62568,3.89081-4.64519,5.62523-9.79316,5.62523-2.97588,0-3.03029-.0865-2.35708-3.75zm-.21653-10.28116c-2.60797-1.04828-2.68802-1.57862-.75-4.96884 2.12139-3.71099 1.87184-7.73063-.56077-9.03252-4.34346-2.32455-1.37305-3.86321 10.8493-5.61989 5.57519-.80131 4.93591-2.75687-1.02937-3.14881-2.52147-.16568-4.78679-.84068-5.03403-1.5s-.2289-3.80938.0408-7.0001c.48937-5.79046.49567-5.80014 3.36221-5.17055 2.76325.60691 2.87497.48589 2.95286-3.19867l.081-3.82946 1.86896,4c1.02794,2.2 2.64549,6.925 3.59456,10.5s2.99662,8.13976 4.55009,10.1439 2.82198,4.47915 2.81891,5.5c-.0126,4.17656-2.20247,9.49122-4.30457,10.44666-1.20442.54743-3.31485,1.64436-4.68985,2.43764-2.77317,1.59991-10.26831,1.84011-13.75.44064zm-11.25-20.96884c0-1.86667.26667-2.13333 1.2-1.2s.93333,1.46667 0,2.4-1.2.66667-1.2-1.2zm-262.4433-4.22251c-.87429-1.24822-1.5567-4.28828-1.5567-6.9349 0-2.59181-.43886-5.86669-.97525-7.27749-.89613-2.35701-1.4582-2.5651-6.92857-2.5651-7.33053,0-9.48252-1.59331-7.97865-5.90731 1.19158-3.41817 10.95835-9.09269 15.65-9.09269 1.64317,0 3.54778-.675 4.23247-1.5 1.49461-1.80089 4.33465-1.93246 6.91599-.32039 1.55486.97102 3.27648.59484 9.73643-2.12746 17.29922-7.29011 26.9104-10.04923 34.60032-9.93287 21.85732.33076 57.37639-.39966 58.19726-1.19677 .5225-.50738 2.60375-.92251 4.625-.92251 3.316,0 3.73605.30527 4.3,3.125 1.13514,5.67569.71469,19.55791-.625,20.63628-.6875.55339-6.875,1.17099-13.75,1.37244l-12.5.36628v-6.8808c0-6.41629-.16877-6.94574-2.5-7.8429-2.43246-.93611-27.79599-.17555-30.64844.91903-.74336.28526-1.35156,1.5404-1.35156,2.78921 0,2.86269-1.56378,4.16158-6.01041,4.99232-3.66329.68439-8.90646-.74892-10.20393-2.78942-.41527-.65309-.76193-2.64994-.77035-4.43744-.0104-2.21542-.49281-3.25-1.51531-3.25-.825,0-1.5.64047-1.5,1.42327s-1.125,2.76027-2.5,4.39436c-1.78502,2.12138-2.5,4.15423-2.5,7.10811 0,2.83373-.49373,4.32649-1.56722,4.73843-2.43853.93575-3.47745-.88097-3.71455-6.49557-.26215-6.20792-.6205-6.28608-10.24708-2.23492-6.27681,2.64148-7.00236,3.23909-7.28451,6-.18254,1.78625-.88846,3.06632-1.69098,3.06632-2.15837,0-2.5909,1.41097-3.55441,11.59506-.496,5.24267-1.16226,9.95352-1.48056,10.46854-1.00185,1.62103-3.28763,1.02156-4.90399-1.28611zm256.10361-11.45052c-.36317-.36317-.66031-1.43716-.66031-2.38665 0-1.94842 2.62238-3.36034 3.52591-1.8984 .73051,1.182-1.95416,5.1965-2.8656,4.28505zm-23.89903-10.99426c-1.34535-1.34535-4.91358-1.66301-21.93401-1.95266-11.18-.19025-21.96223-.57551-23.96051-.85613-2.50288-.35148-4.01878-.0457-4.87245.98293-1.5977,1.92511-4.61605,1.92125-5.35594-.007-.3971-1.03484-2.05833-1.513-5.35699-1.54192-6.09868-.0535-10.35147-2.35702-14.21451-7.69942-3.46021-4.78531-3.5345-5.13821-1.85691-8.82013 1.19111-2.61419 1.31968-2.64488 8.25-1.9693 13.90535,1.35552 51.53262,8.2518 60.82993,11.14883 3.06831.95608 6.35007,1.25856 9.13073.84157 8.97369-1.34568 20.57938,2.94386 20.57938,7.60628 0,2.33309-3.89636,3.15827-11.07692,2.34588-3.78502-.42823-6.38439-.27383-7.23194.42958-.9845.81706-1.73431.68689-2.92986-.50866zm48.67046-.47557c-1.09077-1.8904-7.73318-4.67596-18.93174-7.93921-10.37459-3.02315-14.5-4.71068-14.5-5.93135 0-.54262.9375-.98658 2.08333-.98658 3.37564,0 1.61047-2.44843-2.16282-3-2.45031-.35818-3.50013-1.06728-3.70122-2.5-.30455-2.16991 6.45735-7.12342 18.78071-13.75804 10.75682-5.79123 10.51343-5.81678 13.80412,1.44909 7.13059,15.74443 9.21091,25.34743 6.77963,31.29552-1.02399,2.50517-1.37013,2.72563-2.15201,1.37057zm-49.43174-15.34583c-5.775-1.26086-12.1875-2.5871-14.25-2.9472-5.09411-.88941-4.71269-2.10874 1.0138-3.24101 7.60486-1.50367 16.22665-.23613 21.77369,3.20106 5.14413,3.18754 6.80369,5.53869 3.79584,5.37773-1.00833-.054-6.55833-1.12972-12.33333-2.39058zm-37.53618-9.56986c-.36996-.5986-2.02501-.80548-3.80902-.47613l-3.1548.58241 2.5-1.76372c1.375-.97005 3.77212-3.00579 5.32692-4.52387s3.01731-2.76014 3.25-2.76014c1.04936,0 .27437,2.87853-1.07692,4-2.14453,1.77981-1.86147,2.91207 1,4 1.375.52277 2.5,1.18664 2.5,1.47525 0,1.0003-5.8851.51968-6.53618-.5338zm15.34868.37544c.72188-.28887 1.58438-.25335 1.91667.0789s-.25834.56864-1.3125.52522c-1.16495-.048-1.4019-.28494-.60417-.60416zm20.6875-1.04367c-5.30766-.75566-4.84247-1.98498 2.33805-6.17864 9.80129-5.72426 9.78644-5.72141 11.59436-2.22529 .86217,1.66726 1.56759,3.25977 1.56759,3.5389s-1.95204,1.65147-4.33786,3.04966c-4.27582,2.5058-5.22659,2.66043-11.16214,1.81537zm-60.75-1.96255c-2.60386-.68045-2.12662-1.91203 1.28918-3.3269 2.68182-1.11084 3.20721-1.03692 4.4682.62868 .78596,1.03815 1.44332,2.22505 1.46082,2.63755 .0336.79363-4.27487.82985-7.2182.0607zm-39.70563-3.79688c-3.54982-1.2816-4.86823-2.88658-3.21203-3.91017 1.5201-.93948 7.12417,1.44661 8.22395,3.50156 1.19183,2.22695.23961,2.30458-5.01192.40861zm-10.5316-16.49312c-.33289-.53864 13.91073-.94346 14.54137-2.12184l1.14664-2.1425 2.14961,2.15476c1.8463,1.85072 1.93796,2.28905.64961,3.10652-1.94311,1.23292-17.72638.23414-18.48723-.99694z"/>
<path d="m228.57143,170.6641c-6.66847-4.47792-4.41751-6.52327.81633-7.7551l82.04081-.81632c7.26167,1.34882 7.296,4.3655.40816,8.97959l-83.2653-.40817z" fill-rule="evenodd" transform="translate(41.55668,651.15047)"/>
</g>
<path d="m387.0885,92.75857h1a7,7 0 0,1 7,7v19a7,7 0 0,1 -7,7h-1a7,7 0 0,1 -7-7v-19a7,7 0 0,1 7-7" fill="#ccc"/>
<path d="m345.42182,117.0919h5c3.38662,12.56446 4.21409,26.2257 13.33334,36.33333l11.33333,8.33333-10.66667,19-31,.66667 17-27.66667-5-36.66666z" fill="#8f8f8f" fill-rule="evenodd"/>
<path d="m179.364,149.80501 70.61224-31.83674 94.69388-1.63265c4.14151,12.2449 5.08686,24.48979 4.89796,36.73469-9.7921,19.56203-23.68326,38.6686-43.26531,57.14286l-104.48979-.81633-22.44898-59.59183z" fill="#b2b2b2" fill-rule="evenodd"/>
<path d="m178.95583,149.39684-146.12244,17.14286v42.04082l33.46938,6.53061c3.9801-29.2549 16.0023-32.08575 27.34694-37.14286 18.25644-2.10853 29.02278,2.44082 37.55102,8.97959 9.71911,7.57999 11.50087,16.74745 16.32653,25.30613l54.69388-1.63266-23.26531-61.22449z" fill="#939393" fill-rule="evenodd"/>
<path d="m2.22114,203.68256 57.14286,2.44898v-22.44898l-58.77551,2.44898c.90939,4.75482 1.7885,9.60049 1.63265,17.55102z" fill="#1a1a1a" fill-rule="evenodd" stroke="#000"/>
<path d="m365.47517,182.46935-222.01825,2.01826" fill="none" stroke="#000" stroke-width="2.02256"/>
<path d="m179.364,149.39684 22.44898,61.63266h104.08163c22.23315-19.18367 31.78916-38.36735 43.67347-57.55102-.84489-13.92065-1.31492-28.46607-5.30612-37.14286" fill="url(#linearGradient3767-7)" fill-rule="evenodd" stroke="#000"/>
<path d="m200.99665,146.94786 53.87755-22.85714 83.67347-2.04081v26.93877l-138.77551,5.30612 1.22449-7.34694z" fill="url(#linearGradient3764-2)" fill-rule="evenodd" opacity=".70611"/>
<path d="m32.42522,166.94786c-2.96732-1.27625-6.98997-.44183-11.02041.40817l-8.97959,15.10204c-5.55121-.38114-8.79683,1.54331-12.2449,3.26531l32.65307-1.63266-.40817-17.14286z" fill="#313131" fill-rule="evenodd"/>
<path d="m439.68033,121.02387 17.95918-11.02041 2.85714,4.4898-12.24489,7.7551-8.57143-1.22449z" fill-rule="evenodd" stroke="#000"/>
<path d="m458.26249,109.85682-9.62697,1.90119-12.23063,7.38197 4.26247,2.48084" fill="#1a1a1a" fill-rule="evenodd" stroke="#000"/>
<path d="m387.02727,161.8402c-12.58315,14.94394-22.47263,30.78577-25.30613,48.97959-.8063,5.17132-2.8375,10.18953-12.24489,14.28572l-33.87756-1.63266c1.60389-2.42021 2.74924-4.38188 3.26531-5.71428l30.61225-.40816c6.15021-18.77551 15.64971-37.55102 26.12244-56.32653l11.42858.81632z" fill="url(#linearGradient3757-9)" fill-rule="evenodd" stroke="#000"/>
<path d="m498.45584,145.1055c-42.69269-13.94854-88.3803-20.40979-133.06123-29.38775" fill="none" stroke="#5c5c5c"/>
<path d="m201.31298,155.02387 20-2.44898c1.58029-4.21769-.49366-8.43537-2.04082-12.65306l-18.36734,6.93877c-1.79773,3.10785-3.14605,6.12581.40816,8.16327z" fill-rule="evenodd" stroke="#000"/>
<path d="m486.21094,141.43203c7.55055,11.19056 4.36882,24.16983 6.12245,36.32654l16.32653-2.04082-9.38776-31.02041-13.06122-3.26531z" fill="#5c5c5c" fill-rule="evenodd"/>
<path d="m509.47625,177.35041-20.81633.40816c3.15481,5.57823 1.89193,11.15646.81633,16.73469l19.59183-3.2653c2.30634-5.71099 2.45556-10.34342.40817-13.87755z" fill-rule="evenodd" stroke="#000"/>
<path d="m482.74702,167.89012c-1.95531-.72333-7.52229-8.83902-8.10551-11.81648-.15392-.78572-.36404-1.73017-.46698-2.09879-.20747-.74308-1.79273-1.33569-1.79273-.67017 0,.26507-.20747.24775-.56262-.047-.39367-.32675-.88277-.34519-1.6291-.0614-.58653.22302-1.34359.29915-1.68228.16918s-.6158-.033-.6158.21554-.20739.40591-.46082.34979-.49828.31122-.54404.81632 .0332.91838.17543.91838c.38886,0 2.05576,3.59146 2.04151,4.39867-.0106.60259-.0789.58639-.47628-.11296-.25511-.44898-1.06054-1.55102-1.78988-2.44898s-1.33735-1.81633-1.35123-2.04082-.92204-.86735-2.01816-1.42857-2.79927-1.46464-3.78478-2.00758-3.07746-1.40078-4.64889-1.9063-2.58164-1.01262-2.2449-1.12689 3-.30899 5.91837-.4327 5.94898-.32784 6.73469-.45361l1.42857-.22868-1.38526.6339c-1.35225.61878-1.36768.65332-.64735,1.44929 .82355.91002 4.16571,2.02878 6.08628,2.03732 2.53172.0113 3.08098.40667 4.51184,3.24798 .75857,1.50635 1.87241,3.06197 2.47523,3.45693 2.1591,1.41469 5.37702.59389 6.39032-1.63002 .25029-.54934.61155-.99882.80278-.99882s.99396,1.0102 1.78375,2.2449c2.30633,3.60533 3.41964,2.80236 3.4998-2.52419 .046-3.05302.0622-3.10521.37959-1.21444 .93698,5.58254-.11273,10.58202-2.33918,11.14083-.52008.13053-.94555.43169-.94555.66925s-.1196.31236-.26576.16618-.46759.008-.71428.34163c-.60776.82301-2.71196,1.37881-3.75678.99231v1e-005z" fill="#b2b2b2"/>
<path d="m381.13988,146.13559c-1.7318-.49341-5.68049-2.66334-5.38478-2.95907 .0947-.0946 1.07335.18245 2.1749.61577s3.74771,1.18999 5.88037,1.68148 3.95408.96527 4.04763,1.05286c.39139.36651-5.20196.041-6.71812-.39103v-1e-005z" fill="#b2b2b2"/>
<path d="m385.27159,146.73862c-.12086-.19547-1.096-.44641-2.16698-.55763-2.27241-.23596-7.30547-2.36237-5.19416-2.19444 .68363.0544 1.46424.23562 1.73469.40277s.49176.17876.49176.0258 .27318-.0514.60706.22566 .8849.39718 1.22449.26687 .61743-.0814.61743.1088c0,.42964 5.21775,1.77226 5.70853,1.46893 .19669-.12151.4729-.0343.61388.19387 .15914.25751-.44017.41482-1.58037.41482-1.01021,0-1.93555-.15994-2.05637-.35541l4e-005-1e-005z" fill="#b2b2b2"/>
<path d="m192.74155,183.88101 138.36735-1.22449" fill="none" stroke="#000" stroke-width="2"/>
<path d="m61.30191,183.19249c15.03977-10.68149 30.07955-8.42769 45.11932-12.61194 26.25325,1.02936 32.48767,17.44194 44.04502,29.76418 4.50956,15.23971 15.21792,18.83553 25.24533,23.71047l49.95352.50447-.53714-8.07164-46.7307.50447c-14.83956-6.78782-25.07354-19.63147-32.76522-35.81792-11.29028-9.22585-23.14186-17.22159-38.67369-17.15224-11.99601,1.11415-23.992,2.30611-35.98802,6.05374-8.34686.36043-13.97119,8.39191-20.94824,12.61194l11.27982.50447z" fill-rule="evenodd" stroke="#000" stroke-width="1.27535"/>
<path d="m362.75516,212.0919h2c7.8973-14.49398 8.00714-31.85702 31.33333-40.66667 13.57273-.33794 24.60717-5.47042 45.66667,8.33333 6.77145,9.88889 10.31759,19.77778 12.66666,29.66667l8.66667-3.66667c-1.65756-11.102-2.5203-21.40919-5-33.33333-4.37454-6.69231-12.8132-8.80367-22.33333-8.66667l-48-.66666c-13.55725,8.42253-22.6845,35.81887-25,49z" fill="#8f8f8f" fill-rule="evenodd"/>
<path d="m363.11576,212.39796c10.70786-23.89903 21.77543-45.27531 48.53334-42.42425 33.49555,2.99837 39.51687,20.96997 41.74545,40.04849" fill="none" stroke="#8f8f8f" stroke-width="3.05455"/>
<path d="m386.08849,163.42523-10.33333-1.33333-13.66667,23.66666 7.66667,1.33334c3.57049-9.29436 9.2095-17.03732 16.33333-23.66667z" fill-rule="evenodd" stroke="#000"/>
<path d="m318.73001,199.84701c5.47108-5.71258 11.14459-11.58966 12.6078-13.06019l2.66041-2.6737 11.46539.25717c6.30598.14146 11.83997.35012 12.29777.4637l.83237.20651-.92104.86988c-1.06272,1.00366-1.12336,1.30366-.389,1.92442 .7665.64792.66513,1.95724-.50859,6.56875-1.9824,7.78876-4.23059,14.33157-5.08964,14.81211-1.00061.55973-12.75229.94643-30.0026.98728l-12.90028.0305 9.94741-10.38647z" fill="#808080"/>
<path d="m336.16774,216.87994c-1.92565,2.68834-.95926,5.56534.65291,8.48445 1.34658.37598 2.69293.7418 4.01862.26214-1.33357-2.92826-2.46815-5.84355-.87817-8.58109-.97558-.19758-1.70079-.51856-3.79336-.1655z" fill="#ccc" fill-rule="evenodd"/>
<path d="m452.42182,211.0919 .33334,5.33333 18.33333-5.66667 1.66667,3.33334 26.66666-5 9.33334-17-20.33334,3.33333c3.09579-7.36526 2.2055-13.40184 0-19h3.33334c-.62541-11.07118 3.91486-21.41551-5-35-37.43831-10.38269-78.14114-18.15376-120-25 1.98321,19.80389 7.46298,30.52687 14.66666,30.33333 42.56373-.007 50.41642-1.45683 72.66667,2.33334 18.48836,10.25869 18.75227,17.68697 20,28.33333l3.33333,27.66667-13.33333,3.33333-1.33333-2.33333c-3.98792,1.12319-9.59651.62571-10.33334,5z" fill="#8f8f8f" fill-rule="evenodd"/>
<path d="m369.96604,125.1055c-5.98937-4.26556-7.63871,6.73436 4.4898,17.55102 16.14503,4.55011 29.52979,4.49977 42.44898,3.67347l46.93878.81633c3.04242-1.90476 2.04463-3.80952.81632-5.71429-18.23881-4.89921-63.06753-13.30812-94.69388-16.32653z" fill-rule="evenodd" stroke="#000" stroke-width="1.5"/>
<path d="m381.1385,101.75857h12.1a1.05,1.05 0 0,1 1.05,1.05v3.9a1.05,1.05 0 0,1 -1.05,1.05h-12.1a1.05,1.05 0 0,1 -1.05-1.05v-3.9a1.05,1.05 0 0,1 1.05-1.05"/>
<path d="m487.82815,112.37138-11.82699-.43411-25.69315,15.62801 7.74872,4.34111" fill="#1a1a1a" fill-rule="evenodd" stroke="#000" stroke-width="1.03087"/>
<path d="m449.47625,121.8402 27.34693-14.28572 11.42858-.81632 9.79591,24.48979 .40817,13.06123-30.20408-8.57143-.40817-6.53061-18.36734-7.34694z" fill-rule="evenodd" stroke="#000"/>
<path d="m404.66569,135.75854h.87687a5.57719,5.57719 0 0,1 5.57719,5.57719v15.84562a5.57719,5.57719 0 0,1 -5.57719,5.57719h-.87687a5.57719,5.57719 0 0,1 -5.57719-5.57719v-15.84562a5.57719,5.57719 0 0,1 5.57719-5.57719" fill="#054996"/>
<path d="m426.08849,126.75856c15.76998-2.94215 32.88525-9.47178 41,8l4,1" fill="#fff" fill-rule="evenodd" stroke="#bababa" stroke-width="6"/>
<path d="m226,272.26764a4.5,4.5 0 1,1 -9,0 4.5,4.5 0 1,1 9,0z" fill="#bababa" transform="translate(105.08849,-105.0091)"/>
<path d="m367.66078,174.81235c3.12543,2.62594 7.12627,2.0789 11.32254.82334 .7873-1.42484 1.56118-2.85127 1.21637-4.40899-4.14795.94491-8.23569,1.67149-11.49872-.59114-.47181,1.04591-1.05197,1.79167-1.04019,4.17679z" fill="#ccc" fill-rule="evenodd"/>
<path d="m4.08849,204.75856c15.93178.50543 16.54172,7.57736 14,16l41,3 8-7-37-8 2-4h-28z" fill-rule="evenodd" stroke="#000"/>
<path d="m170.63427,212.66663c-2.99996,1.39123-3.57591,4.37105-3.61057,7.70558 .98675.99044 1.9783,1.97192 3.36829,2.2074 .28164-3.20527.73006-6.30125 3.46213-7.90063-.75174-.65245-1.2248-1.28898-3.21985-2.01235z" fill="#ccc" fill-rule="evenodd"/>
<path d="m159.465,202.80867c-3.30355.58258-4.77294,3.49955-5.83276,6.93777 .64081,1.30574 1.28897,2.60358 2.54867,3.24372 1.25673-3.23409 2.63966-6.30755 5.75054-7.18183-.51962-.88917-.77705-1.68236-2.46645-2.99966z" fill="#ccc" fill-rule="evenodd"/>
<path d="m144.72269,181.99997c-2.99996,1.50102-3.57591,4.716-3.61057,8.31369 .98675,1.0686 1.9783,2.12753 3.36829,2.3816 .28164-3.45823.73006-6.79853 3.46213-8.52414-.75174-.70393-1.2248-1.39069-3.21985-2.17115z" fill="#b3b3b3" fill-rule="evenodd"/>
<path d="m104.93025,162.42069c-1.91852,2.75174-.88874,5.85131.79939,9.02854 1.37735.46744 2.7543.92408 4.09681.4833-1.40454-3.17268-2.60622-6.32144-1.03033-9.14252-.99668-.25932-1.74034-.63668-3.86587-.36932z" fill="#b3b3b3" fill-rule="evenodd"/>
<path d="m56.99604,174.79265c-.65894,3.28916 1.52376,5.7189 4.34098,7.95672 1.44938-.12196 2.89408-.25366 3.94857-1.19424-2.55544-2.34698-4.91537-4.75311-4.59823-7.96891-1.01726.16061-1.84976.11189-3.69132,1.20643z" fill="#b3b3b3" fill-rule="evenodd"/>
<path d="m336.16774,216.87994c-1.92565,2.68834-.95926,5.56534.65291,8.48445 1.34658.37598 2.69293.7418 4.01862.26214-1.33357-2.92826-2.46815-5.84355-.87817-8.58109-.97558-.19758-1.70079-.51856-3.79336-.1655z" fill="#ccc" fill-rule="evenodd"/>
<path d="m353.66075,204.81235c2.63025,2.62594 5.99721,2.0789 9.52864.82334 .66257-1.42484 1.31384-2.85127 1.02366-4.40899-3.49077.94491-6.93086,1.67149-9.67691-.59114-.39706,1.04591-.8853,1.79167-.87539,4.17679z" fill="#ccc" fill-rule="evenodd"/>
<path d="m168,137.76765c0,22.64368-18.35633,41-41,41s-41-18.35632-41-41 18.35633-41 41-41 41,18.35633 41,41z" transform="matrix(.87805,0,0,.87805,-7.42373,90.79184)"/>
<path d="m168,137.76765c0,22.64368-18.35633,41-41,41s-41-18.35632-41-41 18.35633-41 41-41 41,18.35633 41,41z" fill="#4d4d4d" filter="url(#filter3430-4)" opacity=".72137" transform="matrix(.79637,0,0,.79637,3.1588,102.25387)"/>
<g transform="matrix(.2093,0,0,.2093,36.48383,117.20255)">
<path d="m168,137.76765c0,22.64368-18.35633,41-41,41s-41-18.35632-41-41 18.35633-41 41-41 41,18.35633 41,41z" fill="#4d4d4d" transform="matrix(2.85501,0,0,2.85501,-35.97564,60.05022)"/>
<path d="m168,137.76765c0,22.64368-18.35633,41-41,41s-41-18.35632-41-41 18.35633-41 41-41 41,18.35633 41,41z" fill="#999" filter="url(#filter3480-1)" opacity=".91221" transform="matrix(2.67355,0,0,2.67355,-12.40515,86.57463)"/>
<path d="m288.1695,391.58969-4.68221-36.52119 23.41102,28.09323 2.80932-35.58475 16.85594,33.71186 2.80932-34.6483 18.72881,37.45763 9.36441-31.83899 3.74576,33.71187 26.22034-19.66526-10.30085,30.90255 31.83899-13.11017-17.79238,29.9661 32.77543-8.42797-23.41102,28.09322 33.71187,5.61865-30.90255,10.30085 31.83899,12.17372-36.52119,7.49153 33.71187,13.11017-41.2034,8.42797 36.52119,10.30084-44.94915,3.74577 29.02966,17.79237-44.01271-5.61864 24.34746,25.28389-39.33051-16.85593 12.17372,31.83899-27.15678-27.15678-4.6822,33.71186-19.66525-35.58475-5.61865,34.64831-8.42796-39.33051-17.79238,31.83898 2.80932-38.39406-23.41101,24.34745 8.42796-37.45762-29.9661,14.04661 15.91949-32.77543-32.77542,5.61865 29.02966-29.96611-32.77542,1.87289 32.77542-18.72882-29.9661-7.49152 32.77542-5.61865-28.09322-19.66525 36.52119,4.6822-24.34746-24.34746 35.58475,12.17373-16.85594-29.9661 30.90255,17.79237z" fill="none" stroke="#000" stroke-width="5"/>
<path d="m168,137.76765c0,22.64368-18.35633,41-41,41s-41-18.35632-41-41 18.35633-41 41-41 41,18.35633 41,41z" fill="#666" transform="matrix(1.80055,0,0,1.80055,98.46537,206.84525)"/>
<path d="m168,137.76765c0,22.64368-18.35633,41-41,41s-41-18.35632-41-41 18.35633-41 41-41 41,18.35633 41,41z" transform="matrix(.62429,0,0,.62429,249.25517,367.49129)"/>
<path d="m168,137.76765c0,22.64368-18.35633,41-41,41s-41-18.35632-41-41 18.35633-41 41-41 41,18.35633 41,41z" transform="matrix(.07613,0,0,.07613,278.60459,411.17108)"/>
<path d="m168,137.76765c0,22.64368-18.35633,41-41,41s-41-18.35632-41-41 18.35633-41 41-41 41,18.35633 41,41z" transform="matrix(.07613,0,0,.07613,362.88425,474.84905)"/>
<path d="m168,137.76765c0,22.64368-18.35633,41-41,41s-41-18.35632-41-41 18.35633-41 41-41 41,18.35633 41,41z" transform="matrix(.07613,0,0,.07613,278.60459,478.59481)"/>
<path d="m168,137.76765c0,22.64368-18.35633,41-41,41s-41-18.35632-41-41 18.35633-41 41-41 41,18.35633 41,41z" transform="matrix(.07613,0,0,.07613,359.13849,411.17108)"/>
</g>
<path d="m168,137.76765c0,22.64368-18.35633,41-41,41s-41-18.35632-41-41 18.35633-41 41-41 41,18.35633 41,41z" transform="matrix(.91463,0,0,.91463,295.42994,82.25156)"/>
<path d="m168,137.76765c0,22.64368-18.35633,41-41,41s-41-18.35632-41-41 18.35633-41 41-41 41,18.35633 41,41z" fill="#4d4d4d" filter="url(#filter3430-4)" opacity=".72137" transform="matrix(.82955,0,0,.82955,306.45341,94.19117)"/>
<g transform="matrix(.21802,0,0,.21802,341.16697,109.76271)">
<path d="m168,137.76765c0,22.64368-18.35633,41-41,41s-41-18.35632-41-41 18.35633-41 41-41 41,18.35633 41,41z" fill="#4d4d4d" transform="matrix(2.85501,0,0,2.85501,-35.97564,60.05022)"/>
<path d="m168,137.76765c0,22.64368-18.35633,41-41,41s-41-18.35632-41-41 18.35633-41 41-41 41,18.35633 41,41z" fill="#999" filter="url(#filter3480-1)" opacity=".91221" transform="matrix(2.67355,0,0,2.67355,-12.40515,86.57463)"/>
<path d="m288.1695,391.58969-4.68221-36.52119 23.41102,28.09323 2.80932-35.58475 16.85594,33.71186 2.80932-34.6483 18.72881,37.45763 9.36441-31.83899 3.74576,33.71187 26.22034-19.66526-10.30085,30.90255 31.83899-13.11017-17.79238,29.9661 32.77543-8.42797-23.41102,28.09322 33.71187,5.61865-30.90255,10.30085 31.83899,12.17372-36.52119,7.49153 33.71187,13.11017-41.2034,8.42797 36.52119,10.30084-44.94915,3.74577 29.02966,17.79237-44.01271-5.61864 24.34746,25.28389-39.33051-16.85593 12.17372,31.83899-27.15678-27.15678-4.6822,33.71186-19.66525-35.58475-5.61865,34.64831-8.42796-39.33051-17.79238,31.83898 2.80932-38.39406-23.41101,24.34745 8.42796-37.45762-29.9661,14.04661 15.91949-32.77543-32.77542,5.61865 29.02966-29.96611-32.77542,1.87289 32.77542-18.72882-29.9661-7.49152 32.77542-5.61865-28.09322-19.66525 36.52119,4.6822-24.34746-24.34746 35.58475,12.17373-16.85594-29.9661 30.90255,17.79237z" fill="none" stroke="#000" stroke-width="5"/>
<path d="m168,137.76765c0,22.64368-18.35633,41-41,41s-41-18.35632-41-41 18.35633-41 41-41 41,18.35633 41,41z" fill="#666" transform="matrix(1.80055,0,0,1.80055,98.46537,206.84525)"/>
<path d="m168,137.76765c0,22.64368-18.35633,41-41,41s-41-18.35632-41-41 18.35633-41 41-41 41,18.35633 41,41z" transform="matrix(.62429,0,0,.62429,249.25517,367.49129)"/>
<path d="m168,137.76765c0,22.64368-18.35633,41-41,41s-41-18.35632-41-41 18.35633-41 41-41 41,18.35633 41,41z" transform="matrix(.07613,0,0,.07613,278.60459,411.17108)"/>
<path d="m168,137.76765c0,22.64368-18.35633,41-41,41s-41-18.35632-41-41 18.35633-41 41-41 41,18.35633 41,41z" transform="matrix(.07613,0,0,.07613,362.88425,474.84905)"/>
<path d="m168,137.76765c0,22.64368-18.35633,41-41,41s-41-18.35632-41-41 18.35633-41 41-41 41,18.35633 41,41z" transform="matrix(.07613,0,0,.07613,278.60459,478.59481)"/>
<path d="m168,137.76765c0,22.64368-18.35633,41-41,41s-41-18.35632-41-41 18.35633-41 41-41 41,18.35633 41,41z" transform="matrix(.07613,0,0,.07613,359.13849,411.17108)"/>
</g>
<path d="m208.0885,219.75854h87a4,4 0 0,1 4,4v4a4,4 0 0,1 -4,4h-87a4,4 0 0,1 -4-4v-4a4,4 0 0,1 4-4" fill="#ccc"/>
<path d="m331.69465,92.73584 28.31904-.31819c2.8793,1.976 3.68419,5.1374.63639,10.50033-7.77152,1.44912-15.4008,2.99985-28.95543.31819 0,0-8.15438-3.18631-7.95479-6.04565s7.95479-4.45468 7.95479-4.45468z" fill="#bababa" fill-rule="evenodd"/>
<path d="m386.66569,135.75854h.87687a5.57719,5.57719 0 0,1 5.57719,5.57719v15.84562a5.57719,5.57719 0 0,1 -5.57719,5.57719h-.87687a5.57719,5.57719 0 0,1 -5.57719-5.57719v-15.84562a5.57719,5.57719 0 0,1 5.57719-5.57719" fill="#054996"/>
<path d="m420.66569,135.75854h.87687a5.57719,5.57719 0 0,1 5.57719,5.57719v15.84562a5.57719,5.57719 0 0,1 -5.57719,5.57719h-.87687a5.57719,5.57719 0 0,1 -5.57719-5.57719v-15.84562a5.57719,5.57719 0 0,1 5.57719-5.57719" fill="#054996"/>
<path d="m351.5053,116.99121c3.77756,26.48783 12.4727,47.6483 43.62086,44.48464 22.89139,3.39625 61.77032-4.7015 64.35156,13.38858l5.18267,33.2555 12.09291-3.88701-4.75079-33.2555c-4.69398-24.48697-27.36007-22.01578-47.50785-23.32205h-38.43818c-10.54663.35648-15.17983-6.89004-17.70748-16.84369l-3.02322-16.41181-13.82048,2.59134z" fill="#808080" fill-rule="evenodd" stroke="#5c5c5c" stroke-width="1.5"/>
<path d="m101.4687-351.60626h12.1a1.05,1.05 0 0,1 1.05,1.05v3.9a1.05,1.05 0 0,1 -1.05,1.05h-12.1a1.05,1.05 0 0,1 -1.05-1.05v-3.9a1.05,1.05 0 0,1 1.05-1.05" transform="rotate(88.5656)"/>
<path d="m431.21385,178.16025 27.74928-1.00466" fill="none" stroke="#000" stroke-width="2.23576"/>
<path d="m473.0412,177.88757 16.09458-.4593" fill="none" stroke="#000" stroke-width="1.93679"/>
<path d="m438.16774,159.81073c-1.92565,1.51099-.95926,3.12801.65291,4.7687 1.34658.21132 2.69293.41693 4.01862.14734-1.33357-1.64584-2.46815-3.28438-.87817-4.82302-.97558-.11105-1.70079-.29145-3.79336-.093z" fill="#ccc" fill-rule="evenodd"/>
<path d="m400.16774,159.81073c-1.92565,1.51099-.95926,3.12801.65291,4.7687 1.34658.21132 2.69293.41693 4.01862.14734-1.33357-1.64584-2.46815-3.28438-.87817-4.82302-.97558-.11105-1.70079-.29145-3.79336-.093z" fill="#ccc" fill-rule="evenodd"/>
<path d="m360.41154,140.44057c-2.27097-.91319-3.1889.73183-3.80469,2.94808 .48971,1.27205.98426,2.54105 1.88012,3.55474 .75944-1.97749 1.61198-3.77895 3.73919-3.17035-.39121-.90058-.59726-1.61892-1.81462-3.33247z" fill="#ccc" fill-rule="evenodd"/>
<path d="m367.35847,138.41201c1.81754,1.63943 3.24585.41117 4.58723-1.45742-.0217-1.36289-.0489-2.72458-.54087-3.98479-1.39402,1.59498-2.81482,2.99262-4.6023,1.68866 .0571.98022.003,1.72557.55594,3.75355z" fill="#ccc" fill-rule="evenodd"/>
<path d="m438.16774,145.81073c-1.92565,1.51099-.95926,3.12801.65291,4.7687 1.34658.21132 2.69293.41693 4.01862.14734-1.33357-1.64584-2.46815-3.28438-.87817-4.82302-.97558-.11105-1.70079-.29145-3.79336-.093z" fill="#ccc" fill-rule="evenodd"/>
<path d="m452.08849,207.15792 39-6v-6l18-3-12,19-44,7-1-11z" fill-rule="evenodd" stroke="#000"/>
<path d="m327.3416,171.4462c-1.05182-6.04985.576-6.57656.576-6.57656" fill="none" stroke="#000" stroke-width=".46552"/>
<path d="m463.86057,188.84604c-1.78047-1.86567-3.37789-.68768-4.93442,1.16991-.0846,1.43364-.16323,2.86646.25437,4.22926 1.59029-1.56596 3.19315-2.92249 4.96847-1.41166 .0172-1.03436.13259-1.81324-.28842-3.98751z" fill="#ccc" fill-rule="evenodd"/>
<path d="m477.86057,188.84604c-1.78047-1.86567-3.37789-.68768-4.93442,1.16991-.0846,1.43364-.16323,2.86646.25437,4.22926 1.59029-1.56596 3.19315-2.92249 4.96847-1.41166 .0172-1.03436.13259-1.81324-.28842-3.98751z" fill="#ccc" fill-rule="evenodd"/>
<path d="m364.08849,114.75856c-4.70639-4.11744-3.13318-10.74672-20-10-13.91137-.34682-14.00975,7.59415-15,15l23-2 12-3z" fill="#bababa" fill-rule="evenodd"/>
</svg>
