<svg width="64" height="27" xmlns="http://www.w3.org/2000/svg"><path d="M33.888 22.04h-1.185V9.003H25.77v1.274c0 3.97-.15 8.594-1.513 11.765h-.918v4.83h2.07V23.94h6.4v2.933h2.07v-4.83zm10.046.89l-.533-1.778c-.59.415-1.63 1.007-2.93 1.007-1.83 0-2.78-1.78-2.78-5.16h6.23v-1.27c0-5.07-1.63-6.94-4.12-6.94-3.17 0-4.5 3.49-4.5 8.29 0 4.59 1.9 7.05 4.98 7.05 1.48 0 2.73-.48 3.68-1.22zM19.724 9.002v6.105h-3.438V9.002h-2.312v14.935h2.312v-6.933h3.437v6.933h2.282V9.002h-2.282zM52.15 23.947h2.518l-4.237-7.912 3.71-7.025H51.8l-3.587 6.91V9.01l-2.2.024V23.97l2.2-.023V16.51l3.94 7.437zm11.17-.928l-.535-1.72c-.533.47-1.392.92-2.518.92-1.868 0-2.757-2.14-2.757-5.87 0-3.77 1.185-5.63 2.845-5.63.948 0 1.837.5 2.46 1.03l.325-2.2c-.652-.42-1.422-.77-2.756-.77-3.497 0-5.304 2.99-5.304 7.67 0 5.09 1.926 7.67 5.126 7.67 1.363 0 2.31-.45 3.11-1.13zm-32.9-.98h-3.97c1.245-3.17 1.393-7.77 1.393-10.91v-.27h2.578v11.17zm11.112-6.94H37.71c.15-2.67.653-4.42 2.075-4.42 1.334 0 1.75 1.86 1.75 4.41z"/><path d="M8.73 15.818v8.12h2.28V3.008H7.604c-3.348 0-6.164 2.53-6.164 6.41 0 3.17 1.244 4.887 3.11 5.836L.58 23.937h2.637l3.616-8.12H8.73zm0-1.897H7.513c-1.983 0-3.613-1.09-3.613-4.5 0-2.78 1.777-4.47 3.614-4.47H8.73v8.98z" fill="#F00"/></svg>