<svg xmlns="http://www.w3.org/2000/svg" width="253" height="198"><g transform="translate(.5 .5)" pointer-events="none"><ellipse cx="24" cy="104" rx="22.5" ry="22.5" fill="#f8cecc" stroke="#b85450"/><ellipse cx="119" cy="24" rx="22.5" ry="22.5" fill="#dae8fc" stroke="#6c8ebf"/><ellipse cx="174" cy="104" rx="22.5" ry="22.5" fill="#dae8fc" stroke="#6c8ebf"/><ellipse cx="109" cy="174" rx="22.5" ry="22.5" fill="#e1d5e7" stroke="#9673a6"/><ellipse cx="229" cy="24" rx="22.5" ry="22.5" fill="#dae8fc" stroke="#6c8ebf"/><path d="M46 104q55 0 47.5-16.5t35-11.5q42.5 5 77.36-29.86" fill="none" stroke="#b85450" stroke-width="3" stroke-miterlimit="10"/><path d="M210.63 41.37l-3.18 9.55-1.59-4.78-4.78-1.59z" fill="#b85450" stroke="#b85450" stroke-width="3" stroke-miterlimit="10"/><path d="M196 104h0" fill="none" stroke="#000" stroke-width="3" stroke-miterlimit="10"/><path d="M196 104h0z" stroke="#000" stroke-width="3" stroke-miterlimit="10"/><path d="M81 101q40 0 45 15t22.77 7.1" fill="none" stroke="#b85450" stroke-width="3" stroke-miterlimit="10"/><path d="M154.94 120.36l-6.4 7.77.23-5.03-3.89-3.19z" fill="#b85450" stroke="#b85450" stroke-width="3" stroke-miterlimit="10"/><path d="M81 101q10-40-10-50t15.55-23.43" fill="none" stroke="#b85450" stroke-width="3" stroke-miterlimit="10"/><path d="M92.86 25.19l-6.83 7.39.52-5.01-3.7-3.41z" fill="#b85450" stroke="#b85450" stroke-width="3" stroke-miterlimit="10"/></g></svg>