<svg xmlns="http://www.w3.org/2000/svg" width="40" height="40"><path fill="none" d="M23.24 36.316a28.98 28.98 0 0 1-.708-.762c-.093.214-.216.496-.379.859h.049c.13 0 .272-.016.408-.021.207-.017.417-.043.63-.076zm9.962-7.902l-.81.566a.275.275 0 0 1-.188.049l-8.062-.917-.12-.013-.468-.053a.276.276 0 0 1-.231-.195l-1.262-4.153a4.344 4.344 0 0 0-.556-.043c-.16 0-.347.015-.559.043l-1.226 4.033a.271.271 0 0 1-.202.188l-.587.132-8.007 1.782a.277.277 0 0 1-.219-.044l-.312-.217-.935-.656v-.002l-.378-.264c.027.085.058.17.087.25v.002c.026.079.142.412.35.902a18.02 18.02 0 0 0 1.919 3.436c1.576-.463 2.939-.896 3.375-1.034.887-1.369 2.151-2.726 3.049-2.773.155-.008.317-.012.475-.012.44 0 .861.032 1.25.077-.331-.299-.398-.651-.447-.808 0 0 1.147.897 2.605.709 1.462-.187 2.368-1.03 2.368-1.03s-.005.613-.642 1.089c1.224-.369 1.729-.495 2.077-.495.382 0 .569.158.734.298.032.026.064.056.101.084.939.741 2.07 1.639 2.403 1.903.383.043 1.596.182 2.361.253.441.041.84.073 1.231.073.126 0 .244-.005.354-.012.404-.772.775-1.627 1.106-2.569.082-.237.164-.478.241-.726.053-.189.103-.381.147-.574l-.277.195-.745.526z"/><path fill="none" d="M13.268 20.546a66.24 66.24 0 0 0-4.632.677l.602 4.873 2.069 1.449 6.565-1.459 1.23-4.051a.268.268 0 0 1 .187-.183c.036-.01.694-.199 1.453-.291l1.203-.728c.362-.218.71-.468 1.04-.734a74.329 74.329 0 0 0-7.018.196c-1.703.833-2.746 1.518-2.771 1.534l-1.634 1.091 1.123-1.612c.183-.268.38-.522.583-.762zm.451 4.371c-.082-.182-.133-.432-.148-.779-.049-1.333.772-2.427 1.622-2.435.851-.009 1.443 1.071 1.457 2.405.011 1.334-.694 1.254-1.545 1.262a7.09 7.09 0 0 1-.25.005c-.095.002-.187.004-.274.002-.825-.002-1.353-.038-1.819.213.011-.029.217-.486.957-.673zm9.877 11.767a8.672 8.672 0 0 1-.966.139c-.139.006-.27.018-.412.018l-.216.002-.082-.003c-.868 1.292-2.801 1.546-2.89 1.558a2.9 2.9 0 0 0-.235.037 9.87 9.87 0 0 0 3.26.35 13.015 13.015 0 0 0 3.997-.916 3.68 3.68 0 0 1-2.355-1.083 3.254 3.254 0 0 0-.101-.102z"/><circle fill="none" cx="27.497" cy="22.654" r=".434"/><path fill="none" d="M25.712 7.299h-2.389v-.984h-.538v4.547h.812v2.543H19.42v-2.543h.811V6.315h-.537v.983h-2.387V3.931h8.404v3.368z"/><circle fill="none" cx="15.324" cy="22.976" r=".434"/><path fill="none" d="M6.963 27.525l1.39.947c-.025-.081-.047-.161-.071-.242l-.052-.173-1.021-.717a.279.279 0 0 1-.115-.19l-.498-4.047-.261 2.484.628 1.938zm15.201-6.002l-.158.012a9.955 9.955 0 0 1 1.713.317c.09.026.159.094.188.184l1.225 4.03 6.557.745 2.086-1.459.591-4.146a69.465 69.465 0 0 0-7.103-.9c-2.702.931-4.964 1.208-5.099 1.217zm7.134 2.211c.028.368-.011.636-.103.834.79-.094.97.441.979.474-.573-.276-1.2.073-2.342.095-.849.031-1.562.041-1.609-1.292-.047-1.336.498-2.441 1.347-2.471.849-.029 1.625 1.028 1.728 2.36z"/><path fill="#9d9d9d" d="M26.223 23.845c.048 1.333.761 1.323 1.609 1.292 1.142-.021 1.769-.371 2.342-.095-.009-.032-.188-.567-.979-.474.092-.198.131-.466.103-.834-.104-1.332-.879-2.39-1.729-2.36-.848.029-1.393 1.135-1.346 2.471zm1.266-1.625a.434.434 0 1 1-.426.44.433.433 0 0 1 .426-.44zm-12.908 3.157c.088.002.18 0 .274-.002.082 0 .164-.002.25-.005.851-.008 1.556.072 1.545-1.262-.014-1.334-.606-2.414-1.457-2.405-.849.008-1.671 1.102-1.622 2.435.015.348.066.598.148.779-.74.187-.945.644-.957.673.466-.251.993-.215 1.819-.213zm.731-2.835a.435.435 0 1 1 .025.869.435.435 0 0 1-.025-.869zm1.997-14.215h2.386v-.984h.537v4.546h-.811v2.543h4.177v-2.543h-.812V7.343h.538v.984h2.388V4.958h-8.403z"/><path fill="#9d9d9d" d="M39.689 14.823a10.238 10.238 0 0 0-.153-1.29 4.38 4.38 0 0 0-.103-.44l-.03-.112-.079-.063a7.685 7.685 0 0 0-1.441-.864 15.299 15.299 0 0 0-1.249-.518c-1.177-3.264-3.197-6.158-5.856-8.173C28.031 1.279 24.8.176 21.436.176c-3.366 0-6.596 1.103-9.344 3.187-2.093 1.586-3.788 3.718-4.989 6.145h-.006a19.342 19.342 0 0 0-.867 2.028c-.422.155-.839.324-1.25.518a7.653 7.653 0 0 0-1.441.864l-.08.063-.03.112a6.726 6.726 0 0 0-.174.869c-.029.205-.048.413-.065.621h.007a10.84 10.84 0 0 0 .033 1.969c.061.573.167 1.14.32 1.703.08.28.171.555.279.83.053.137.111.273.176.41.032.068.067.135.102.204l.057.101c.022.038.037.065.07.114l.057.09.092.047c.097.05.178.087.266.129l.256.116.142.059a21.254 21.254 0 0 0-3.532 4.211L.13 26.749l1.945-1.707c.034-.029 1.664-1.44 4.384-3.041l.038.313.099.789.498 4.047a.275.275 0 0 0 .115.19l1.021.717.052.173c.024.081.046.161.071.242l.233.703a15.988 15.988 0 0 0 2.116 4.281l-.127.037c-.531-.246-2.386-1.106-3.009-1.387l-1.303-.585.771 1.203c.056.087 1.386 2.161 2.471 3.559 1.017 1.305 2.408 2.637 5.032 2.637.315 0 .647-.02.987-.056.783-.091 1.371-.161 1.818-.219 2.754 1.014 5.792 1.074 8.675-.017.79-.3 1.509-.663 2.168-1.071.014-.002.027-.006.039-.009 1.072-.258 2.289-.549 2.89-.717.096-.026.217-.055.342-.085.837-.191 2.236-.517 2.981-2.009.751-1.506 1.977-3.812 1.989-3.835L37 29.829l-1.115.485c-.061.026-1.475.643-2.21 1.028-.025.015-.057.028-.086.042a15.81 15.81 0 0 0 1.003-2.563l.403-1.663 1.161-2.597s.326-2.839.333-2.837l.114-1.086c.102-.043.722-.086.843-.134.173-.068.346-.135.519-.21l.255-.116c.09-.042.17-.079.267-.129l.092-.047.058-.09c.032-.049.05-.077.069-.114l.056-.101c.039-.069.072-.136.103-.204a7.359 7.359 0 0 0 .455-1.24c.152-.563.262-1.13.32-1.703.064-.572.078-1.15.049-1.727zM13.195 21.83c.025-.017 1.068-.701 2.771-1.534a73.78 73.78 0 0 1 7.018-.196c-.33.266-.678.517-1.04.734l-1.203.728c-.759.092-1.417.281-1.453.291a.272.272 0 0 0-.187.183l-1.23 4.051-6.565 1.459-2.069-1.449-.602-4.873a66.24 66.24 0 0 1 4.632-.677c-.202.24-.399.494-.584.762l-1.123 1.612 1.635-1.091zm8.86 16.954a9.87 9.87 0 0 1-3.26-.35 2.57 2.57 0 0 1 .235-.037c.088-.012 2.021-.266 2.89-1.558l.082.002.216-.002c.143 0 .273-.012.412-.018.33-.027.649-.075.966-.139l.101.102a3.683 3.683 0 0 0 2.355 1.083c-1.499.609-2.91.845-3.997.917zm.098-2.37c.163-.363.286-.646.379-.859.192.214.435.479.708.762a9.472 9.472 0 0 1-.63.076c-.136.006-.278.021-.408.021h-.049zm-3.221-8.362l.587-.132a.273.273 0 0 0 .202-.188l1.226-4.033c.212-.028.398-.043.559-.043.156 0 .345.015.556.043l1.262 4.153a.275.275 0 0 0 .231.195l.468.053.12.013 8.062.917a.274.274 0 0 0 .188-.049l.81-.566.749-.524.277-.195c-.045.193-.095.385-.147.574-.077.248-.159.488-.241.726a19.423 19.423 0 0 1-1.106 2.569c-.11.007-.229.012-.354.012-.392 0-.79-.032-1.231-.073-.766-.071-1.979-.21-2.361-.253a986.042 986.042 0 0 0-2.403-1.903c-.036-.028-.068-.058-.101-.084-.165-.14-.353-.298-.734-.298-.348 0-.854.126-2.077.495.637-.476.642-1.089.642-1.089s-.906.844-2.368 1.03c-1.458.188-2.605-.709-2.605-.709.048.156.116.509.447.808a10.866 10.866 0 0 0-1.25-.077c-.158 0-.32.004-.475.012-.898.048-2.162 1.404-3.049 2.773-.436.138-1.799.571-3.375 1.034a17.99 17.99 0 0 1-1.919-3.436c-.208-.49-.324-.823-.35-.902v-.002c-.029-.08-.06-.165-.087-.25l.378.264v.002l.935.656.312.217a.279.279 0 0 0 .219.044m12.977-7.8a.278.278 0 0 0-.188-.184 9.847 9.847 0 0 0-1.713-.317l.158-.012c.136-.01 2.397-.286 5.098-1.218a69.79 69.79 0 0 1 7.103.9l-.591 4.146-2.086 1.459-6.557-.745m13.171-9.614c-.073.534-.315 1.574-.315 1.574l-.189.031c-.099-.027-1.021-.266-2.609-.56l.148-.033c.329-.082.653-.183.968-.31.156-.067.312-.138.459-.222a1.58 1.58 0 0 0 .401-.306c-1.59.52-4.876.284-7.797-.018-2.669-.276-5.348-.454-8.04-.46-2.691.006-5.367.185-8.039.46-2.921.302-6.206.538-7.796.018.112.126.256.221.403.306.146.084.301.154.457.222a6.865 6.865 0 0 0 1.321.384 35.998 35.998 0 0 0-2.382.519s-.334.054-.407-.202c-.145-.512-.242-.87-.315-1.403a11.78 11.78 0 0 1-.1-1.604c.001-.088-.001-.264-.001-.264.005-.18.013-.36.03-.54.01-.133.499-.559.919-.801.454-.264.931-.502 1.417-.723.481-.228 2.04-.559 2.98-.729.94-.172 4.302-.618 4.554-.712.251-.096 1.704-1.216 1.958-1.309-.534.088-7.912 1.215-8.244 1.32 2.395-6.263 7.096-9.313 13.353-9.313 6.255 0 10.957 2.88 13.354 9.144-3.164-.841-7.546-1.233-8.08-1.322.254.093 1.691 1.104 1.958 1.138 2.188.284 5.638 1.049 5.888 1.148.496.201.993.408 1.475.635.487.221.963.459 1.417.723.42.243.908.668.92.801.023.268.033.535.036.803.004.536-.033 1.074-.102 1.605z"/></svg>