<?xml version="1.0" standalone="no"?> <!DOCTYPE svg PUBLIC "-//W3C//DTD SVG 1.0//EN" "http://www.w3.org/TR/2001/REC-SVG-20010904/DTD/svg10.dtd" > <svg xmlns="http://www.w3.org/2000/svg" width="100%" height="100%">
<defs >
<font id="Yandex" horiz-adv-x="555" ><font-face
    font-family="Yandex Sans Display"
    units-per-em="1000"
    panose-1="0 0 0 0 0 0 0 0 0 0"
    ascent="950"
    descent="-250"
    alphabetic="0" />
<missing-glyph horiz-adv-x="216" />
<glyph unicode=" " glyph-name="space" horiz-adv-x="216" />
<glyph unicode="!" glyph-name="exclam" horiz-adv-x="288" d="M219 699L197 219H90L68 699H219ZM143 -8Q107 -8 83 17T59 77Q59 113 83 137T143 162Q179 162 204 138T229 77Q229 42 204 17T143 -8Z" />
<glyph unicode="&quot;" glyph-name="quotedbl" horiz-adv-x="406" d="M49 695H179L160 476H68L49 695ZM227 695H357L338 476H246L227 695Z" />
<glyph unicode="#" glyph-name="numbersign" horiz-adv-x="625" d="M382 426H264L241 288H359L382 426ZM342 181H224L195 0H105L134 181H32V288H151L173 426H58V533H190L216 695H307L281 533H399L425 695H515L489 533H593V426H472L450 288H566V181H433L404 0H313L342
181Z" />
<glyph unicode="$" glyph-name="dollar" horiz-adv-x="573" d="M224 -114V-8Q156 -2 115 17T54 52L70 159Q84 149 103 138T147 117T199 101T260 94Q316 94 350 117T385 190Q385 215 375 231T347 257T304 275T247 289Q211 298 176 310T113 346T67 405T49 497Q49
583 97 631T224 695V802H345V703Q405 699 441 685T494 659L481 552Q454 569 415 584T319 600Q250 600 221 578T191 513Q191 490 200 475T226 450T270 432T330 418Q366 410 402 398T467 363T515 302T533 207Q533 156 518 119T476 57T416 18T345 -4V-114H224Z" />
<glyph unicode="%" glyph-name="percent" horiz-adv-x="866" d="M175 -6L585 700H691L280 -6H175ZM370 505Q370 458 357 423T319 362T263 325T193 312Q154 312 122 324T66 360T29 419T16 501Q16 548 29 584T65 645T121 682T193 695Q230 695 262 683T319 647T356
588T370 505ZM131 503Q131 437 147 410T193 383Q222 383 238 410T254 503Q254 569 238 596T193 624Q164 624 148 597T131 503ZM849 193Q849 146 836 111T799 50T743 13T673 0Q634 0 602 12T547 48T510 107T497 189Q497 236 510 272T546 333T602 370T673 383Q710
383 742 371T798 334T835 275T849 193ZM673 311Q644 311 628 284T612 191Q612 125 628 98T673 71Q702 71 718 98T735 191Q735 257 719 284T673 311Z" />
<glyph unicode="&amp;" glyph-name="ampersand" horiz-adv-x="744" d="M238 535Q238 499 256 472T302 416Q344 440 368 470T392 541Q392 575 377 596T323 618Q284 618 261 594T238 535ZM304 81Q339 81 369 90T425 116Q407 132 388 150T348 188L235 301Q204 285
186 260T167 195Q167 145 200 113T304 81ZM654 3Q616 3 579 16T504 55Q462 25 410 8T293 -10Q230 -10 182 4T99 45T48 109T30 190Q30 225 41 252T71 301T117 338T174 365Q105 450 105 527Q105 563 118 595T159 652T226 690T319 704Q372 704 411 691T475 654T512
601T524 537Q524 505 512 477T479 426T430 384T367 351L468 251Q480 239 490 228T512 206Q535 244 549 285T572 368L666 342Q659 291 640 239T586 138Q611 118 634 109T683 99Q691 99 698 99T711 101Q717 102 723 104L713 12Q706 9 697 7Q689 5 679 4T654 3Z" />
<glyph unicode="&apos;" glyph-name="quotesingle" horiz-adv-x="228" d="M49 695H179L160 476H68L49 695Z" />
<glyph unicode="(" glyph-name="parenleft" horiz-adv-x="394" d="M246 -135Q199 -93 166 -44T112 61T82 176T72 298Q72 359 81 421T112 539T166 645T246 733H367Q328 695 299 646T251 540T223 423T213 301Q213 177 251 65T367 -135H246Z" />
<glyph unicode=")" glyph-name="parenright" horiz-adv-x="394" d="M126 -135Q173 -93 206 -44T260 61T290 176T300 298Q300 359 291 421T260 539T206 645T126 733H5Q44 695 73 646T121 540T149 423T159 301Q159 177 121 65T5 -135H126Z" />
<glyph unicode="*" glyph-name="asterisk" horiz-adv-x="423" d="M212 478L157 365L72 428L164 514L38 531L71 631L182 570L159 695H264L241 571L351 631L384 531L259 514L350 428L265 365L212 478Z" />
<glyph unicode="+" glyph-name="plus" horiz-adv-x="583" d="M353 277V72H230V277H45V377H230V581H353V377H538V277H353Z" />
<glyph unicode="," glyph-name="comma" horiz-adv-x="257" d="M44 -105Q65 -82 81 -53T105 3Q77 11 64 31T51 74Q51 107 72 129T129 152Q164 152 186 129T209 65Q209 40 202 15T184 -33T160 -74T133 -105H44Z" />
<glyph unicode="-" glyph-name="hyphen" horiz-adv-x="346" d="M48 352H298V243H48V352Z" />
<glyph unicode="." glyph-name="period" horiz-adv-x="255" d="M127 -8Q93 -8 70 15T47 72Q47 106 70 129T127 152Q161 152 184 129T207 72Q207 38 184 15T127 -8Z" />
<glyph unicode="/" glyph-name="slash" horiz-adv-x="423" d="M0 -116L313 733H423L110 -116H0Z" />
<glyph unicode="0" glyph-name="zero" horiz-adv-x="683" d="M343 -10Q280 -10 226 11T131 77T67 189T43 348Q43 439 66 506T130 617T225 682T343 704Q405 704 459 683T554 619T617 508T640 350Q640 259 617 192T554 79T460 12T343 -10ZM342 87Q374 87 400 100T446
143T475 224T486 347Q486 420 475 470T445 550T400 594T343 607Q312 607 285 594T239 551T208 470T197 347Q197 274 207 224T237 144T282 100T342 87Z" />
<glyph unicode="1" glyph-name="one" horiz-adv-x="431" d="M189 0V539L46 404V538L212 695H341V0H189Z" />
<glyph unicode="2" glyph-name="two" horiz-adv-x="573" d="M47 0V92Q127 160 185 212T282 309T339 394T358 478Q358 538 324 570T229 603Q177 603 145 586T89 551L60 657Q88 676 134 690T247 704Q377 704 445 647T514 490Q514 432 493 382T433 285T339 193T216
98H519V0H47Z" />
<glyph unicode="3" glyph-name="three" horiz-adv-x="552" d="M229 -10Q160 -10 111 5T33 44L63 144Q94 121 133 106T230 91Q289 91 321 120T353 203Q353 311 225 311H140V408H227Q274 408 303 433T333 507Q333 554 305 578T219 603Q173 603 138 587T80 554L50
655Q87 681 134 692T239 704Q298 704 343 691T418 653T464 594T480 519Q480 456 444 417T349 366Q383 361 411 348T461 312T493 261T505 195Q505 151 487 114T434 49T347 6T229 -10Z" />
<glyph unicode="4" glyph-name="four" horiz-adv-x="612" d="M343 529L140 244H343V529ZM490 147V0H343V147H30V239L357 695H490V244H580V147H490Z" />
<glyph unicode="5" glyph-name="five" horiz-adv-x="549" d="M229 -10Q160 -10 111 5T33 44L63 144Q78 133 94 123T129 106T171 94T224 90Q291 90 326 124T361 225Q361 287 331 316T248 346Q209 346 189 334T160 313H63V695H478V590H177V409Q193 420 221 431T293
442Q341 442 382 429T452 389T498 322T515 229Q515 172 495 128T438 53T348 6T229 -10Z" />
<glyph unicode="6" glyph-name="six" horiz-adv-x="623" d="M321 -10Q261 -10 210 8T122 61T64 150T43 272Q43 358 74 426T151 547T253 637T356 695H538V685Q482 658 430 626T335 556T259 475T211 385Q238 419 277 437T368 455Q410 455 449 443T517 403T565 334T583
233Q583 175 562 130T506 53T423 6T321 -10ZM316 89Q367 89 400 124T433 229Q433 300 402 334T318 368Q276 368 246 350T196 303Q193 282 193 256Q193 212 202 181T228 129T267 99T316 89Z" />
<glyph unicode="7" glyph-name="seven" horiz-adv-x="550" d="M101 0L360 589H41V695H521V603L260 0H101Z" />
<glyph unicode="8" glyph-name="eight" horiz-adv-x="610" d="M306 -10Q246 -10 197 3T112 41T58 102T38 185Q38 254 81 299T196 365Q136 382 101 421T65 522Q65 565 82 599T132 656T208 691T306 704Q359 704 403 692T480 658T529 601T547 524Q547 462 512 423T416
365Q488 346 530 302T572 188Q572 141 553 105T498 43T414 4T306 -10ZM306 414Q350 414 378 438T407 507Q407 555 379 580T306 605Q262 605 234 580T205 507Q205 462 233 438T306 414ZM305 89Q355 89 387 119T420 208Q420 262 388 290T305 318Q254 318 222 290T190
208Q190 150 222 120T305 89Z" />
<glyph unicode="9" glyph-name="nine" horiz-adv-x="623" d="M110 10Q160 36 208 69T298 141T369 222T412 310Q386 278 347 259T254 240Q212 240 174 252T105 292T57 361T39 462Q39 520 60 565T117 641T201 688T304 704Q363 704 413 686T500 633T558 544T579 421Q579
341 552 274T482 153T388 61T290 0H110V10ZM307 605Q256 605 223 570T190 466Q190 396 221 362T305 327Q347 327 377 345T427 392Q430 419 430 441Q430 486 420 517T394 567T355 596T307 605Z" />
<glyph unicode=":" glyph-name="colon" horiz-adv-x="255" d="M127 324Q93 324 70 347T47 404Q47 438 70 461T127 484Q161 484 184 461T207 404Q207 370 184 347T127 324ZM127 -8Q93 -8 70 15T47 72Q47 106 70 129T127 152Q161 152 184 129T207 72Q207 38 184 15T127 -8Z" />
<glyph unicode=";" glyph-name="semicolon" horiz-adv-x="257" d="M44 -105Q65 -82 81 -53T105 3Q77 11 64 31T51 74Q51 107 72 129T129 152Q164 152 186 129T209 65Q209 40 202 15T184 -33T160 -74T133 -105H44ZM127 324Q93 324 70 347T47 404Q47 438 70 461T127
484Q161 484 184 461T207 404Q207 370 184 347T127 324Z" />
<glyph unicode="&lt;" glyph-name="less" horiz-adv-x="511" d="M45 266V387L466 576V467L154 327L466 187V78L45 266Z" />
<glyph unicode="=" glyph-name="equal" horiz-adv-x="584" d="M45 384V487H539V384H45ZM45 166V270H539V166H45Z" />
<glyph unicode="&gt;" glyph-name="greater" horiz-adv-x="511" d="M45 187L357 327L45 467V576L466 387V266L45 78V187Z" />
<glyph unicode="?" glyph-name="question" horiz-adv-x="467" d="M433 518Q433 488 426 465T406 422T376 387T341 356Q319 338 300 324T265 296T242 266T233 229V219H119V236Q119 267 125 290T145 332T176 368T217 403Q246 426 262 450T278 510Q278 529 273 545T255
575T223 595T175 603Q136 603 108 592T57 570L32 669Q55 680 94 692T200 704Q257 704 301 691T374 653T418 594T433 518ZM178 -8Q143 -8 119 17T94 77Q94 113 118 137T178 162Q214 162 239 138T264 77Q264 42 239 17T178 -8Z" />
<glyph unicode="@" glyph-name="at" horiz-adv-x="1015" d="M495 -177Q399 -177 316 -151T171 -72T74 58T39 237Q39 342 75 428T177 575T332 670T530 704Q621 704 702 679T844 606T940 489T976 330Q976 269 960 216T913 124T838 63T735 41Q667 41 632 68T585 134Q558
88 516 65T424 41Q393 41 363 52T310 86T272 146T257 236Q257 289 272 335T316 414T383 467T468 487Q518 487 553 466T606 397L639 459H731L692 218Q689 198 690 179T699 145T720 121T757 111Q783 111 807 124T849 163T878 227T889 317Q889 393 863 452T788 552T673
614T525 636Q437 636 364 609T238 532T156 408T126 244Q126 156 153 90T231 -20T351 -86T507 -108Q582 -108 634 -95T713 -67L726 -138Q712 -145 688 -152T632 -164T566 -173T495 -177ZM384 236Q384 200 391 177T409 140T435 121T464 115Q491 115 512 130T547 169T570
225T578 290Q578 324 571 347T553 384T527 404T497 410Q470 410 449 395T413 356T392 301T384 236Z" />
<glyph unicode="A" glyph-name="A" horiz-adv-x="660" d="M313 563L215 259H409L313 563ZM441 161H184L132 0H13L242 695H419L647 0H492L441 161Z" />
<glyph unicode="B" glyph-name="B" horiz-adv-x="628" d="M224 600V403H282Q335 403 366 427T398 508Q398 561 369 580T283 600H224ZM224 313V95H293Q358 95 394 120T430 207Q430 265 397 289T292 313H224ZM68 695H281Q414 695 483 656T553 523Q553 451 514 414T408
362Q496 352 542 314T588 200Q588 145 565 107T502 45T406 11T285 0H68V695Z" />
<glyph unicode="C" glyph-name="C" horiz-adv-x="633" d="M397 -10Q318 -10 253 14T140 84T67 196T41 347Q41 431 66 497T138 609T249 679T394 704Q460 704 509 692T584 662L567 544Q537 565 497 581T406 597Q306 597 254 533T202 347Q202 97 411 97Q457 97 493
108T560 142L593 40Q566 21 517 6T397 -10Z" />
<glyph unicode="D" glyph-name="D" horiz-adv-x="725" d="M223 596V99H317Q364 99 402 114T467 162T509 244T524 362Q524 431 510 476T469 548T407 585T327 596H223ZM67 695H307Q388 695 457 679T577 625T656 524T685 368Q685 275 656 206T576 91T453 23T297 0H67V695Z" />
<glyph unicode="E" glyph-name="E" horiz-adv-x="570" d="M67 695H514V596H223V409H463V310H223V99H519V0H67V695Z" />
<glyph unicode="F" glyph-name="F" horiz-adv-x="544" d="M223 289V0H67V695H507V596H223V388H458V289H223Z" />
<glyph unicode="G" glyph-name="G" horiz-adv-x="748" d="M701 272Q701 211 682 159T625 70T528 11T391 -10Q311 -10 247 15T136 86T66 198T41 347Q41 430 67 496T141 608T256 679T408 704Q454 704 491 700T558 687T611 668T653 644L635 534Q591 562 543 579T426
597Q317 597 260 534T202 347Q202 222 250 157T395 92Q437 92 467 104T515 137T543 188T552 252V280H367V380H701V272V272Z" />
<glyph unicode="H" glyph-name="H" horiz-adv-x="727" d="M504 296H223V0H67V695H223V396H504V695H660V0H504V296Z" />
<glyph unicode="I" glyph-name="I" horiz-adv-x="290" d="M223 695V0H67V695H223Z" />
<glyph unicode="J" glyph-name="J" horiz-adv-x="416" d="M351 695V172Q351 132 339 99T300 41T233 4T135 -10Q99 -10 70 -5T24 12L38 111Q48 108 64 103T102 97Q153 97 174 118T196 185V695H351Z" />
<glyph unicode="K" glyph-name="K" horiz-adv-x="676" d="M487 0L229 341L505 695H644L388 367L664 0H487ZM223 695V0H67V695H223Z" />
<glyph unicode="L" glyph-name="L" horiz-adv-x="546" d="M67 695H223V99H506V0H67V695Z" />
<glyph unicode="M" glyph-name="M" horiz-adv-x="849" d="M199 534L171 0H54L91 695H285L421 271L564 695H758L795 0H639L611 531L460 90H344L199 534Z" />
<glyph unicode="N" glyph-name="N" horiz-adv-x="725" d="M185 511V0H67V695H235L540 196V695H657V0H498L185 511Z" />
<glyph unicode="O" glyph-name="O" horiz-adv-x="785" d="M392 -10Q318 -10 254 13T143 80T68 191T41 345Q41 432 68 499T142 611T254 680T392 704Q465 704 529 682T641 614T716 503T744 350Q744 263 717 196T642 83T530 14T392 -10ZM392 92Q433 92 468 105T528
149T568 227T583 347Q583 417 569 466T529 545T468 588T392 602Q350 602 316 589T256 545T216 466T202 347Q202 276 216 228T255 149T315 106T392 92Z" />
<glyph unicode="P" glyph-name="P" horiz-adv-x="615" d="M223 596V338H291Q354 338 390 370T426 473Q426 540 393 568T295 596H223ZM223 239V0H67V695H291Q429 695 505 642T581 476Q581 414 561 370T502 296T410 253T290 239H223Z" />
<glyph unicode="Q" glyph-name="Q" horiz-adv-x="785" d="M712 -151Q561 -114 454 -76T265 -1Q213 23 172 54T101 126T57 221T41 342Q41 429 68 496T142 609T253 680T391 704Q464 704 528 682T641 614T716 503T744 350Q744 290 731 236T687 139T610 63T496 14Q565
-2 634 -11T760 -26L712 -151ZM392 88Q434 88 469 102T529 147T569 226T583 343Q583 413 569 462T530 542T469 587T392 602Q350 602 315 588T255 542T216 462T202 343Q202 274 216 226T255 147T315 102T392 88Z" />
<glyph unicode="R" glyph-name="R" horiz-adv-x="647" d="M223 596V361H299Q360 361 395 389T430 482Q430 545 398 570T303 596H223ZM297 262H223V0H67V695H298Q442 695 515 643T588 481Q588 399 551 352T448 282L620 0H456L297 262Z" />
<glyph unicode="S" glyph-name="S" horiz-adv-x="576" d="M270 -10Q224 -10 186 -3T119 14T69 36T36 59L52 166Q66 155 87 142T136 119T194 101T260 94Q320 94 357 117T395 190Q395 215 385 231T355 257T308 274T247 289Q210 298 173 311T107 347T60 406T41 498Q41
552 61 591T116 655T199 692T303 704Q378 704 429 689T502 654L489 547Q458 570 411 585T307 600Q241 600 211 578T181 513Q181 490 191 476T219 451T266 433T330 418Q367 410 405 398T474 363T524 302T543 207Q543 143 519 101T455 35T368 0T270 -10Z" />
<glyph unicode="T" glyph-name="T" horiz-adv-x="603" d="M379 596V0H223V596H28V695H575V596H379Z" />
<glyph unicode="U" glyph-name="U" horiz-adv-x="691" d="M57 695H212V243Q212 167 251 131T360 94Q427 94 468 130T510 243V695L634 696V250Q634 188 614 140T556 58T466 8T348 -10Q284 -10 231 6T139 55T79 135T57 245V695Z" />
<glyph unicode="V" glyph-name="V" horiz-adv-x="652" d="M13 695H172L341 143L518 695H639L416 0H235L13 695Z" />
<glyph unicode="W" glyph-name="W" horiz-adv-x="943" d="M16 695H170L282 160L417 695H560L695 161L809 695H927L778 0H593L470 490L345 0H166L16 695Z" />
<glyph unicode="X" glyph-name="X" horiz-adv-x="667" d="M312 265L149 0H14L243 359L29 695H199L354 451L504 695H639L424 357L653 0H480L312 265Z" />
<glyph unicode="Y" glyph-name="Y" horiz-adv-x="649" d="M247 0V284L13 695H179L342 397L508 695H636L403 284V0H247Z" />
<glyph unicode="Z" glyph-name="Z" horiz-adv-x="588" d="M37 0V94L378 596H47V695H550V601L207 99H551V0H37Z" />
<glyph unicode="[" glyph-name="bracketleft" horiz-adv-x="443" d="M80 733H410V642H220V-44H410V-135H80V733Z" />
<glyph unicode="\" glyph-name="backslash" horiz-adv-x="423" d="M0 733H110L423 -116H313L0 733Z" />
<glyph unicode="]" glyph-name="bracketright" horiz-adv-x="443" d="M341 733H11V642H201V-44H11V-135H341V733Z" />
<glyph unicode="^" glyph-name="asciicircum" horiz-adv-x="451" d="M225 606L121 435H30L164 700H286L420 435H328L225 606Z" />
<glyph unicode="_" glyph-name="underscore" horiz-adv-x="417" d="M1 -37H416V-133H1V-37Z" />
<glyph unicode="`" glyph-name="grave" horiz-adv-x="454" d="M239 566L133 715H287L344 566H239Z" />
<glyph unicode="a" glyph-name="a" horiz-adv-x="538" d="M245 79Q281 79 302 96T336 140V232H296Q228 232 202 211T175 150Q175 114 194 97T245 79ZM356 0Q351 13 348 30T342 68Q333 54 320 40T290 15T250 -3T198 -10Q162 -10 131 -1T78 26T44 73T31 138Q31 212
95 257T293 303H336V331Q336 376 314 398T232 421Q188 421 156 407T93 370L51 471Q83 490 131 503T253 517Q363 517 422 475T482 336V81Q482 64 483 39T488 0H356Z" />
<glyph unicode="b" glyph-name="b" horiz-adv-x="618" d="M368 -10Q307 -10 266 18T199 92L189 0H61V725H207V429Q233 470 273 493T370 517Q415 517 455 501T525 453T573 371T591 254Q591 187 573 138T525 55T454 6T368 -10ZM326 85Q377 85 409 125T442 254Q442
342 410 382T326 423Q301 423 279 413T241 383T216 330T206 254Q206 210 215 178T241 126T279 95T326 85Z" />
<glyph unicode="c" glyph-name="c" horiz-adv-x="497" d="M304 -10Q247 -10 198 7T114 57T58 138T37 249Q37 311 58 361T116 445T204 498T316 517Q368 517 401 510T454 492L422 384Q398 401 376 411T315 421Q289 421 266 411T226 380T198 328T187 255Q187 170
224 128T328 86Q357 86 384 96T432 123L462 39Q443 22 404 6T304 -10Z" />
<glyph unicode="d" glyph-name="d" horiz-adv-x="630" d="M304 85Q354 85 388 126T423 254Q423 339 389 380T304 422Q252 422 219 381T186 254Q186 169 219 127T304 85ZM429 91Q406 46 365 18T261 -10Q216 -10 175 6T104 55T55 137T37 254Q37 321 55 370T103 452T175
501T262 517Q316 517 356 496T422 435V725H568V0H440L429 91Z" />
<glyph unicode="e" glyph-name="e" horiz-adv-x="545" d="M286 431Q245 431 219 400T184 307H372Q374 371 351 401T286 431ZM499 41Q476 24 429 7T314 -10Q245 -10 193 8T107 61T55 145T37 254Q37 315 55 363T106 446T184 498T286 517Q342 517 387 499T461 445T502
355T502 230H182Q189 158 226 124T330 89Q372 89 407 101T471 130L499 41Z" />
<glyph unicode="f" glyph-name="f" horiz-adv-x="406" d="M240 413V0H94V413H31V507H94V539Q94 632 150 683T302 734Q339 734 365 729T403 718L382 619Q368 628 352 633T315 639Q280 639 260 615T240 539V507H380V413H240Z" />
<glyph unicode="g" glyph-name="g" horiz-adv-x="624" d="M303 118Q352 118 385 155T418 269Q418 347 385 384T302 422Q252 422 219 385T185 269Q185 193 218 156T303 118ZM269 -192Q218 -192 181 -185T120 -170Q91 -160 72 -147L100 -48Q107 -52 120 -59T153
-74T199 -86T258 -91Q346 -91 382 -56T419 58V116Q396 74 356 49T259 24Q214 24 174 39T104 85T55 162T37 269Q37 331 55 377T103 455T175 501T261 517Q321 517 361 492T425 421L426 427Q426 436 427 447T429 469T431 490T435 507H567Q565 494 564 469T562 427V61Q562
4 546 -42T495 -122T405 -173T269 -192Z" />
<glyph unicode="h" glyph-name="h" horiz-adv-x="604" d="M207 0H61V725H207V437H209Q231 472 272 494T375 517Q453 517 500 477T547 351V0H402V339Q402 381 381 397T322 413Q279 413 252 394T207 346V0Z" />
<glyph unicode="i" glyph-name="i" horiz-adv-x="268" d="M134 565Q98 565 74 586T49 642Q49 677 73 698T134 720Q169 720 194 699T219 642Q219 607 194 586T134 565ZM207 507V0H61V507H207Z" />
<glyph unicode="j" glyph-name="j" horiz-adv-x="267" d="M132 565Q96 565 72 586T48 642Q48 677 72 698T132 720Q168 720 192 699T217 642Q217 607 193 586T132 565ZM206 49Q206 -17 190 -63T145 -138T72 -181T-25 -196L-47 -94Q-19 -93 1 -87T35 -67T54 -30T61
30V507H206V49Z" />
<glyph unicode="k" glyph-name="k" horiz-adv-x="564" d="M207 263V0H61V725H207V265L405 507H535L354 284L549 0H384L207 263Z" />
<glyph unicode="l" glyph-name="l" horiz-adv-x="269" d="M207 725V0H61V725H207Z" />
<glyph unicode="m" glyph-name="m" horiz-adv-x="903" d="M207 0H61V507H192L203 434H205Q226 469 265 493T365 517Q422 517 460 493T516 420Q542 469 585 493T686 517Q759 517 804 476T849 351V0H702V335Q702 376 683 394T632 413Q594 413 570 393T528 342V0H382V340Q382
382 363 397T311 413Q272 413 248 394T207 342V0Z" />
<glyph unicode="n" glyph-name="n" horiz-adv-x="602" d="M323 413Q279 413 252 394T207 346V0H61V507H195L203 434H205Q228 469 270 493T376 517Q454 517 501 477T548 351V0H402V339Q402 381 381 397T323 413Z" />
<glyph unicode="o" glyph-name="o" horiz-adv-x="612" d="M305 -10Q249 -10 200 7T115 58T58 141T37 254Q37 318 58 367T115 449T200 500T305 517Q361 517 410 500T496 450T554 367T575 254Q575 190 554 141T497 59T411 8T305 -10ZM305 85Q357 85 391 123T426
254Q426 345 392 383T305 422Q279 422 258 413T220 384T195 332T186 254Q186 208 195 176T220 124T257 94T305 85Z" />
<glyph unicode="p" glyph-name="p" horiz-adv-x="628" d="M326 85Q377 85 409 125T442 254Q442 340 409 381T326 422Q275 422 241 382T206 254Q206 210 215 178T240 126T278 95T326 85ZM368 -10Q312 -10 273 13T207 78V-181H61V507H192L203 423Q228 467 269 492T370
517Q414 517 454 501T524 453T573 371T591 254Q591 187 573 138T524 55T453 6T368 -10Z" />
<glyph unicode="q" glyph-name="q" horiz-adv-x="632" d="M422 -181V77Q398 38 359 14T261 -10Q216 -10 175 6T104 55T55 137T37 254Q37 321 55 370T103 452T175 501T262 517Q319 517 360 493T427 426Q429 450 432 471T440 507H573Q571 494 570 469T568 427V-181H422ZM304
93Q355 93 389 132T423 254Q423 335 389 374T304 414Q252 414 219 374T186 254Q186 173 219 133T304 93Z" />
<glyph unicode="r" glyph-name="r" horiz-adv-x="411" d="M378 375Q356 378 332 376T284 367T240 346T207 314V0H61V507H192L203 403H206Q234 457 277 485T378 517V375V375Z" />
<glyph unicode="s" glyph-name="s" horiz-adv-x="492" d="M233 -10Q161 -10 113 4T38 40L61 135Q87 114 131 99T232 84Q327 84 327 142Q327 161 318 171T292 188T254 198T208 205Q178 210 149 218T97 243T60 285T45 354Q45 435 100 476T263 517Q327 517 367 505T427
481L400 389Q383 401 347 413T266 426Q224 426 197 414T170 373Q170 356 178 347T201 332T234 324T274 318Q305 313 338 305T398 280T443 234T461 158Q461 109 442 77T392 26T319 -2T233 -10Z" />
<glyph unicode="t" glyph-name="t" horiz-adv-x="414" d="M385 15Q368 5 341 -2T269 -10Q173 -10 129 33T84 164V413H24V507H84V613H231V507H373V413H231V167Q231 126 248 110T298 93Q320 93 337 99T365 112L385 15V15Z" />
<glyph unicode="u" glyph-name="u" horiz-adv-x="594" d="M387 73Q367 38 327 14T224 -10Q150 -10 103 33T56 163V507H203V167Q203 124 224 110T276 95Q316 95 343 114T387 165V507H533V0H402L390 73H387V73Z" />
<glyph unicode="v" glyph-name="v" horiz-adv-x="538" d="M14 507H161L281 117L402 507H524L354 0H183L14 507Z" />
<glyph unicode="w" glyph-name="w" horiz-adv-x="768" d="M17 507H156L234 133L328 507H462L554 130L633 507H751L639 0H467L385 349L302 0H130L17 507Z" />
<glyph unicode="x" glyph-name="x" horiz-adv-x="549" d="M259 179L142 0H15L191 262L29 507H191L294 341L400 507H528L362 257L534 0H372L259 179Z" />
<glyph unicode="y" glyph-name="y" horiz-adv-x="568" d="M144 -188Q102 -188 79 -183T40 -170L57 -67Q64 -71 84 -78T136 -86Q188 -86 216 -31L14 507H163L298 127L433 507H554L370 18Q350 -36 328 -75T279 -139T219 -176T144 -188Z" />
<glyph unicode="z" glyph-name="z" horiz-adv-x="481" d="M36 0V85L279 415H44V507H444V422L207 92H445V0H36Z" />
<glyph unicode="{" glyph-name="braceleft" horiz-adv-x="449" d="M397 -129Q328 -142 279 -136T198 -111T151 -62T136 3Q136 27 139 45T146 81T153 115T157 153Q157 175 153 192T137 222T105 242T55 253V346Q86 348 106 355T137 375T152 404T157 443Q157 459
154 475T147 510T140 549T136 596Q136 631 151 660T197 708T278 732T397 727V643Q361 650 338 647T302 633T285 605T280 568Q280 530 283 502T286 441Q286 391 260 355T164 298Q233 280 259 244T286 160Q286 125 283 98T280 38Q280 15 285 -3T302 -33T338 -47T397
-44V-129V-129Z" />
<glyph unicode="|" glyph-name="bar" horiz-adv-x="276" d="M195 733V-116H81V733H195Z" />
<glyph unicode="}" glyph-name="braceright" horiz-adv-x="449" d="M30 -129Q99 -142 148 -136T229 -111T276 -62T291 3Q291 27 288 45T281 81T274 115T270 153Q270 175 274 192T290 222T322 242T372 253V346Q341 348 321 355T290 375T275 404T270 443Q270 459
273 475T280 510T287 549T291 596Q291 631 276 660T230 708T149 732T30 727V643Q66 650 89 647T125 633T142 605T147 568Q147 530 144 502T141 441Q141 391 167 355T263 298Q194 280 168 244T141 160Q141 125 144 98T147 38Q147 15 142 -3T125 -33T89 -47T30 -44V-129V-129Z"
/>
<glyph unicode="~" glyph-name="asciitilde" horiz-adv-x="625" d="M49 226Q42 263 47 298T71 361T123 406T203 423Q245 423 276 411T332 383T378 355T421 342Q448 342 463 361T476 431H576Q583 394 579 359T556 295T505 250T425 233Q383 233 352 246T296 274T250
302T207 315Q181 315 165 296T150 226H49V226Z" />
<glyph unicode="&#xa0;" glyph-name="uni00A0" horiz-adv-x="216" />
<glyph unicode="&#xa1;" glyph-name="exclamdown" horiz-adv-x="288" d="M69 -195L91 285H198L220 -195H69ZM145 512Q181 512 205 487T229 427Q229 391 205 367T145 342Q109 342 84 366T59 427Q59 462 84 487T145 512Z" />
<glyph unicode="&#xa2;" glyph-name="cent" horiz-adv-x="508" d="M462 39Q448 26 422 13T357 -6V-120H236V-3Q192 6 156 26T93 79T52 153T37 249Q37 301 52 345T93 422T157 478T240 510V617H360V515Q393 512 417 507T460 493L428 380Q402 398 375 409T306 421Q283
421 262 411T224 380T197 328T187 255Q187 170 224 128T328 86Q357 86 384 96T432 123L462 39V39Z" />
<glyph unicode="&#xa3;" glyph-name="sterling" horiz-adv-x="559" d="M526 0H58V70Q106 108 127 144T149 226Q149 246 147 262T142 295H54V381H114Q103 409 96 437T88 502Q88 593 152 648T343 704Q396 704 433 696T494 676L465 574Q442 586 410 593T340 601Q286
601 261 569T236 491Q236 456 244 431T261 381H417V295H284Q285 287 285 279T286 260Q286 208 265 168T206 98H526V0Z" />
<glyph unicode="&#xa4;" glyph-name="currency" horiz-adv-x="537" d="M375 164Q352 150 325 142T268 134Q239 134 212 142T161 164L93 96L34 156L99 223Q83 247 74 275T65 334Q65 394 98 444L32 512L92 573L160 503Q208 534 268 534Q328 534 376 503L445 573L504
512L437 444Q471 395 471 334Q471 273 437 224L503 156L443 96L375 164ZM269 451Q225 451 196 421T166 334Q166 278 195 248T269 217Q312 217 340 247T369 334Q369 390 341 420T269 451Z" />
<glyph unicode="&#xa5;" glyph-name="yen" horiz-adv-x="602" d="M373 148V0H231V148H87V216H231V286H87V354H211L25 695H176L319 420L465 695H577L393 354H518V286H373V216H518V148H373Z" />
<glyph unicode="&#xa6;" glyph-name="brokenbar" horiz-adv-x="276" d="M195 733V345H81V733H195ZM195 272V-116H81V272H195Z" />
<glyph unicode="&#xa7;" glyph-name="section" horiz-adv-x="562" d="M286 177Q344 177 376 199T408 263Q408 305 375 325T282 346Q221 346 189 326T156 264Q156 238 168 222T199 195T241 181T286 177ZM246 -189Q162 -189 111 -171T33 -132L61 -44Q96 -70 143
-86T242 -102Q304 -102 337 -81T371 -17Q371 6 363 21T338 47T296 65T238 79Q197 87 160 99T95 130T50 179T33 249Q33 311 71 348T168 395Q116 415 91 450T66 533Q66 614 131 659T316 704Q387 704 429 692T495 666L465 580Q436 597 400 607T315 617Q248 617 221
597T193 538Q193 517 202 502T229 477T270 460T321 448Q362 441 400 429T467 395T514 343T532 268Q532 206 497 172T408 126Q453 109 476 74T499 -9Q499 -58 478 -92T421 -148T341 -179T246 -189Z" />
<glyph unicode="&#xa8;" glyph-name="dieresis" horiz-adv-x="453" d="M337 565Q304 565 283 585T261 638Q261 672 282 691T337 711Q369 711 391 692T414 638Q414 605 392 585T337 565ZM115 565Q83 565 61 585T39 638Q39 672 61 691T115 711Q148 711 170 692T193
638Q193 605 171 585T115 565Z" />
<glyph unicode="&#xa9;" glyph-name="copyright" horiz-adv-x="875" d="M437 -97Q352 -97 279 -67T151 16T65 144T34 307Q34 395 65 468T150 595T278 678T437 708Q523 708 596 678T724 595T809 469T840 307Q840 218 809 144T724 17T597 -67T437 -97ZM437 -37Q510
-37 570 -12T674 59T740 168T764 307Q764 382 741 444T674 552T571 623T437 649Q364 649 304 624T201 553T135 445T111 307Q111 232 134 169T201 60T304 -11T437 -37ZM461 97Q361 97 304 152T246 306Q246 404 303 458T460 513Q502 513 530 506T574 485L561 397Q543
410 523 418T473 427Q415 427 388 397T361 306Q361 184 473 184Q526 184 563 207L574 130Q561 118 534 108T461 97Z" />
<glyph unicode="&#xaa;" glyph-name="ordfeminine" horiz-adv-x="502" d="M227 383Q250 383 266 393T293 417T309 447T314 474V513H263Q212 513 190 496T168 446Q168 417 183 400T227 383ZM317 384Q309 370 297 356T268 331T228 312T175 305Q117 305 78 336T39
431Q39 576 260 576H314V597Q314 641 290 656T225 672Q184 672 152 660T97 636L68 720Q91 733 136 746T244 759Q340 759 393 722T446 600V383Q446 369 447 347T450 313H328Q324 327 322 346T317 383V384Z" />
<glyph unicode="&#xab;" glyph-name="guillemotleft" horiz-adv-x="515" d="M155 83L37 258L155 433H276L158 258L276 83H155ZM357 83L238 258L357 433H478L360 258L478 83H357Z" />
<glyph unicode="&#xac;" glyph-name="logicalnot" horiz-adv-x="592" d="M425 82V282H45V382H547V82H425Z" />
<glyph unicode="&#xae;" glyph-name="registered" horiz-adv-x="875" d="M437 -97Q352 -97 279 -67T151 16T65 144T34 307Q34 395 65 468T150 595T278 678T437 708Q523 708 596 678T724 595T809 469T840 307Q840 218 809 144T724 17T597 -67T437 -97ZM437 -37Q510
-37 570 -12T674 59T740 168T764 307Q764 382 741 444T674 552T571 623T437 649Q364 649 304 624T201 553T135 445T111 307Q111 232 134 169T201 60T304 -11T437 -37ZM390 438V316H434Q463 316 479 330T496 379Q496 414 480 426T433 438H390ZM431 254H390V108H281V512H430Q518
512 562 482T606 386Q606 341 588 315T536 274L631 108H512L431 254Z" />
<glyph unicode="&#xaf;" glyph-name="macron" horiz-adv-x="454" d="M79 678H375V589H79V678Z" />
<glyph unicode="&#xb0;" glyph-name="degree" horiz-adv-x="461" d="M230 347Q191 347 158 360T101 398T63 455T49 528Q49 567 62 600T100 657T158 694T230 708Q269 708 302 695T360 657T398 600T412 528Q412 489 399 456T361 398T303 361T230 347ZM230 421Q275
421 299 450T324 528Q324 576 300 605T230 634Q186 634 162 605T138 528Q138 480 162 451T230 421Z" />
<glyph unicode="&#xb1;" glyph-name="plusminus" horiz-adv-x="584" d="M45 0V100H230V294H45V393H230V590H353V393H539V294H353V100H539V0H45Z" />
<glyph unicode="&#xb2;" glyph-name="two.sup" horiz-adv-x="393" d="M39 315V385Q91 421 127 450T186 506T218 556T228 605Q228 641 212 662T157 683Q122 683 100 671T63 648L41 725Q63 739 95 748T173 758Q256 758 302 722T348 617Q348 552 304 498T170 391H353V315H39Z"
/>
<glyph unicode="&#xb3;" glyph-name="three.sup" horiz-adv-x="393" d="M172 309Q121 309 87 318T32 339L56 411Q70 403 95 394T159 384Q197 384 214 401T232 446Q232 507 156 507H107V577H158Q184 577 201 590T219 629Q219 654 203 668T153 683Q124 683 102 674T62
652L40 726Q60 739 93 748T173 758Q254 758 295 727T336 644Q336 603 312 579T252 547Q295 541 324 513T354 437Q354 380 309 345T172 309Z" />
<glyph unicode="&#xb4;" glyph-name="acute" horiz-adv-x="453" d="M183 715H333L227 566H124L183 715Z" />
<glyph unicode="&#xb6;" glyph-name="paragraph" horiz-adv-x="633" d="M560 -177H463V695H560V-177ZM293 -177V257H275Q224 257 180 270T103 310T51 378T32 475Q32 530 49 571T97 640T171 681T267 695H390V-177H293Z" />
<glyph unicode="&#xb7;" glyph-name="periodcentered" horiz-adv-x="248" d="M124 188Q90 188 67 211T44 268Q44 302 67 325T124 348Q158 348 181 325T204 268Q204 234 181 211T124 188Z" />
<glyph unicode="&#xb8;" glyph-name="cedilla" horiz-adv-x="454" d="M209 -189Q176 -189 155 -184T125 -173L136 -119Q143 -124 156 -128T186 -133Q204 -133 215 -128T227 -106Q227 -89 214 -83T177 -77H161L190 3H259L244 -38Q292 -42 310 -62T329 -111Q329
-153 296 -171T209 -189Z" />
<glyph unicode="&#xb9;" glyph-name="one.sup" horiz-adv-x="326" d="M139 315V646L34 549V646L150 752H259V315H139Z" />
<glyph unicode="&#xba;" glyph-name="ordmasculine" horiz-adv-x="538" d="M269 305Q219 305 176 320T102 363T52 434T33 533Q33 588 51 630T101 700T176 744T268 759Q317 759 360 744T436 701T486 630T505 533Q505 477 487 435T437 364T362 320T269 305ZM269
390Q314 390 342 425T371 533Q371 606 343 640T269 674Q224 674 196 640T168 533Q168 460 196 425T269 390Z" />
<glyph unicode="&#xbb;" glyph-name="guillemotright" horiz-adv-x="515" d="M155 258L37 433H158L276 258L158 83H37L155 258ZM357 258L239 433H360L478 258L360 83H239L357 258Z" />
<glyph unicode="&#xbc;" glyph-name="onequarter" horiz-adv-x="966" d="M155 0L713 695H820L261 0H155ZM757 319L641 158H757V319ZM870 87V1H757V87H559V153L768 438H870V158H922V87H870ZM155 257V588L50 491V588L166 694H275V257H155Z" />
<glyph unicode="&#xbd;" glyph-name="onehalf" horiz-adv-x="1027" d="M155 0L713 695H820L261 0H155ZM666 1V71Q718 107 754 136T813 192T845 242T855 291Q855 327 839 348T784 369Q749 369 727 357T690 334L668 411Q690 425 722 434T800 444Q883 444 929 408T975
303Q975 238 931 184T797 77H980V1H666ZM155 257V588L50 491V588L166 694H275V257H155Z" />
<glyph unicode="&#xbe;" glyph-name="threequarters" horiz-adv-x="991" d="M180 0L738 695H845L286 0H180ZM783 319L667 158H783V319ZM896 87V1H783V87H585V153L794 438H896V158H948V87H896ZM188 251Q137 251 103 260T48 281L72 353Q86 345 111 336T175 326Q213
326 230 343T248 388Q248 449 172 449H123V519H174Q200 519 217 532T235 571Q235 596 219 610T169 625Q140 625 118 616T78 594L56 668Q76 681 109 690T189 700Q270 700 311 669T352 586Q352 545 328 521T268 489Q311 483 340 455T370 379Q370 322 325 287T188
251Z" />
<glyph unicode="&#xbf;" glyph-name="questiondown" horiz-adv-x="467" d="M12 -11Q12 19 19 42T39 85T69 120T104 151Q126 169 145 183T180 211T203 241T212 278V288H326V271Q326 240 320 217T300 175T269 139T228 104Q199 81 183 57T167 -3Q167 -22 172 -38T190
-68T222 -88T270 -96Q309 -96 337 -85T388 -63L413 -162Q390 -173 351 -185T245 -197Q188 -197 144 -184T71 -146T27 -87T12 -11ZM267 515Q302 515 326 490T351 430Q351 394 327 370T267 345Q231 345 206 369T181 430Q181 465 206 490T267 515Z" />
<glyph unicode="&#xc0;" glyph-name="Agrave" horiz-adv-x="660" d="M313 563L215 259H409L313 563ZM441 161H184L132 0H13L242 695H419L647 0H492L441 161ZM277 744L167 870H329L390 744H277Z" />
<glyph unicode="&#xc1;" glyph-name="Aacute" horiz-adv-x="660" d="M313 563L215 259H409L313 563ZM441 161H184L132 0H13L242 695H419L647 0H492L441 161ZM331 870H486L377 744H267L331 870Z" />
<glyph unicode="&#xc2;" glyph-name="Acircumflex" horiz-adv-x="660" d="M313 563L215 259H409L313 563ZM441 161H184L132 0H13L242 695H419L647 0H492L441 161ZM323 802L253 744H158L249 870H397L489 744H393L323 802Z" />
<glyph unicode="&#xc3;" glyph-name="Atilde" horiz-adv-x="660" d="M313 563L215 259H409L313 563ZM441 161H184L132 0H13L242 695H419L647 0H492L441 161ZM152 750Q148 775 151 799T167 841T200 871T252 883Q277 883 297 877T335 863T368 849T400 843Q417 843
424 852T431 886H502Q506 860 503 836T488 794T455 764T403 752Q377 752 357 758T319 772T286 786T254 793Q237 793 230 784T223 750H152Z" />
<glyph unicode="&#xc4;" glyph-name="Adieresis" horiz-adv-x="660" d="M313 563L215 259H409L313 563ZM441 161H184L132 0H13L242 695H419L647 0H492L441 161ZM444 739Q411 739 389 759T367 812Q367 846 389 865T444 885Q476 885 498 866T521 812Q521 780 499
760T444 739ZM209 739Q177 739 155 759T133 812Q133 846 155 865T209 885Q242 885 264 866T286 812Q286 780 264 760T209 739Z" />
<glyph unicode="&#xc5;" glyph-name="Aring" horiz-adv-x="660" d="M313 563L215 259H409L313 563ZM441 161H184L132 0H13L242 695H419L647 0H492L441 161ZM327 726Q278 726 246 756T213 833Q213 880 245 909T327 939Q376 939 408 910T441 833Q441 786 409 756T327
726ZM327 782Q348 782 360 796T373 833Q373 855 361 869T327 884Q306 884 294 870T281 833Q281 810 293 796T327 782Z" />
<glyph unicode="&#xc6;" glyph-name="AE" horiz-adv-x="968" d="M466 599L295 289H466V599ZM466 189H240L136 0H13L396 695H912V596H620V408H861V309H620V99H917V0H466V189Z" />
<glyph unicode="&#xc7;" glyph-name="Ccedilla" horiz-adv-x="633" d="M350 -189Q317 -189 296 -184T266 -173L277 -119Q284 -124 297 -128T327 -133Q345 -133 356 -128T368 -106Q368 -89 355 -83T318 -77H302L328 -5Q263 5 210 33T120 106T62 211T41 347Q41 431
66 497T138 609T249 679T394 704Q460 704 509 692T584 662L567 544Q537 565 497 581T406 597Q306 597 254 533T202 347Q202 97 411 97Q457 97 493 108T560 142L593 40Q566 21 517 6T397 -10H395L385 -38Q433 -42 451 -62T470 -111Q470 -153 437 -171T350 -189Z"
/>
<glyph unicode="&#xc8;" glyph-name="Egrave" horiz-adv-x="570" d="M67 695H514V596H223V409H463V310H223V99H519V0H67V695ZM259 744L149 870H311L372 744H259Z" />
<glyph unicode="&#xc9;" glyph-name="Eacute" horiz-adv-x="570" d="M67 695H514V596H223V409H463V310H223V99H519V0H67V695ZM306 870H461L352 744H242L306 870Z" />
<glyph unicode="&#xca;" glyph-name="Ecircumflex" horiz-adv-x="570" d="M67 695H514V596H223V409H463V310H223V99H519V0H67V695ZM298 1056L228 998H133L224 1124H372L464 998H368L298 1056Z" />
<glyph unicode="&#xcb;" glyph-name="Edieresis" horiz-adv-x="570" d="M67 695H514V596H223V409H463V310H223V99H519V0H67V695ZM412 739Q379 739 357 759T335 812Q335 846 357 865T412 885Q444 885 466 866T489 812Q489 780 467 760T412 739ZM177 739Q145 739
123 759T101 812Q101 846 123 865T177 885Q210 885 232 866T254 812Q254 780 232 760T177 739Z" />
<glyph unicode="&#xcc;" glyph-name="Igrave" horiz-adv-x="290" d="M223 695V0H67V695H223ZM96 744L-14 870H148L209 744H96Z" />
<glyph unicode="&#xcd;" glyph-name="Iacute" horiz-adv-x="290" d="M223 695V0H67V695H223ZM405 870H560L451 744H341L405 870Z" />
<glyph unicode="&#xce;" glyph-name="Icircumflex" horiz-adv-x="290" d="M223 695V0H67V695H223ZM398 802L328 744H233L324 870H472L564 744H468L398 802Z" />
<glyph unicode="&#xcf;" glyph-name="Idieresis" horiz-adv-x="290" d="M250 749Q217 749 196 769T174 822Q174 856 195 875T250 895Q282 895 304 876T327 822Q327 790 305 770T250 749ZM40 749Q7 749 -14 769T-36 822Q-36 856 -15 875T40 895Q72 895 94 876T117
822Q117 790 95 770T40 749ZM223 695V0H67V695H223Z" />
<glyph unicode="&#xd0;" glyph-name="Eth" horiz-adv-x="749" d="M246 309V99H328Q378 99 418 114T488 162T532 244T548 362Q548 431 533 476T490 548T423 585T338 596H246V398H400V309H246ZM90 309H12V398H90V695H330Q411 695 480 679T600 625T679 524T708 368Q708
275 680 206T600 91T477 23T320 0H90V309Z" />
<glyph unicode="&#xd1;" glyph-name="Ntilde" horiz-adv-x="725" d="M185 511V0H67V695H235L540 196V695H657V0H498L185 511ZM206 750Q202 775 205 799T221 841T254 871T306 883Q331 883 351 877T389 863T422 849T454 843Q471 843 478 852T485 886H556Q560 860
557 836T542 794T509 764T457 752Q431 752 411 758T373 772T340 786T308 793Q291 793 284 784T277 750H206Z" />
<glyph unicode="&#xd2;" glyph-name="Ograve" horiz-adv-x="785" d="M392 -10Q318 -10 254 13T143 80T68 191T41 345Q41 432 68 499T142 611T254 680T392 704Q465 704 529 682T641 614T716 503T744 350Q744 263 717 196T642 83T530 14T392 -10ZM392 92Q433 92
468 105T528 149T568 227T583 347Q583 417 569 466T529 545T468 588T392 602Q350 602 316 589T256 545T216 466T202 347Q202 276 216 228T255 149T315 106T392 92ZM343 744L233 870H395L456 744H343Z" />
<glyph unicode="&#xd3;" glyph-name="Oacute" horiz-adv-x="785" d="M392 -10Q318 -10 254 13T143 80T68 191T41 345Q41 432 68 499T142 611T254 680T392 704Q465 704 529 682T641 614T716 503T744 350Q744 263 717 196T642 83T530 14T392 -10ZM392 92Q433 92
468 105T528 149T568 227T583 347Q583 417 569 466T529 545T468 588T392 602Q350 602 316 589T256 545T216 466T202 347Q202 276 216 228T255 149T315 106T392 92ZM396 870H551L442 744H332L396 870Z" />
<glyph unicode="&#xd4;" glyph-name="Ocircumflex" horiz-adv-x="785" d="M392 -10Q318 -10 254 13T143 80T68 191T41 345Q41 432 68 499T142 611T254 680T392 704Q465 704 529 682T641 614T716 503T744 350Q744 263 717 196T642 83T530 14T392 -10ZM392 92Q433
92 468 105T528 149T568 227T583 347Q583 417 569 466T529 545T468 588T392 602Q350 602 316 589T256 545T216 466T202 347Q202 276 216 228T255 149T315 106T392 92ZM389 802L319 744H224L315 870H463L555 744H459L389 802Z" />
<glyph unicode="&#xd5;" glyph-name="Otilde" horiz-adv-x="785" d="M392 -10Q318 -10 254 13T143 80T68 191T41 345Q41 432 68 499T142 611T254 680T392 704Q465 704 529 682T641 614T716 503T744 350Q744 263 717 196T642 83T530 14T392 -10ZM392 92Q433 92
468 105T528 149T568 227T583 347Q583 417 569 466T529 545T468 588T392 602Q350 602 316 589T256 545T216 466T202 347Q202 276 216 228T255 149T315 106T392 92ZM217 750Q213 775 216 799T232 841T265 871T317 883Q342 883 362 877T400 863T433 849T465 843Q482
843 489 852T496 886H567Q571 860 568 836T553 794T520 764T468 752Q442 752 422 758T384 772T351 786T319 793Q302 793 295 784T288 750H217Z" />
<glyph unicode="&#xd6;" glyph-name="Odieresis" horiz-adv-x="785" d="M392 -10Q318 -10 254 13T143 80T68 191T41 345Q41 432 68 499T142 611T254 680T392 704Q465 704 529 682T641 614T716 503T744 350Q744 263 717 196T642 83T530 14T392 -10ZM392 92Q433
92 468 105T528 149T568 227T583 347Q583 417 569 466T529 545T468 588T392 602Q350 602 316 589T256 545T216 466T202 347Q202 276 216 228T255 149T315 106T392 92ZM510 739Q477 739 455 759T433 812Q433 846 455 865T510 885Q542 885 564 866T587 812Q587 780
565 760T510 739ZM275 739Q243 739 221 759T199 812Q199 846 221 865T275 885Q308 885 330 866T352 812Q352 780 330 760T275 739Z" />
<glyph unicode="&#xd7;" glyph-name="multiply" horiz-adv-x="581" d="M291 256L118 83L45 156L218 329L48 499L120 572L291 401L464 574L536 502L363 329L536 156L464 83L291 256Z" />
<glyph unicode="&#xd8;" glyph-name="Oslash" horiz-adv-x="785" d="M392 -10Q318 -10 254 13Q248 15 242 17L192 -68H102L173 54Q157 66 142 80Q95 125 68 191T41 345Q41 432 68 499T142 611T254 680T392 704Q465 704 529 681Q534 680 539 678L582 752H672L607
642Q625 629 641 614Q689 569 716 503T744 350Q744 263 717 196T642 83T530 14T392 -10ZM392 92Q433 92 468 105T528 149T568 227T583 347Q583 417 568 466Q557 502 541 528L298 113Q306 109 315 105Q350 92 392 92ZM468 588Q433 602 392 602Q350 602 316 589T256
545T216 466T202 347Q202 276 216 227Q225 194 240 169L482 582Q475 585 468 588Z" />
<glyph unicode="&#xd9;" glyph-name="Ugrave" horiz-adv-x="691" d="M57 695H212V243Q212 167 251 131T360 94Q427 94 468 130T510 243V695L634 696V250Q634 188 614 140T556 58T466 8T348 -10Q284 -10 231 6T139 55T79 135T57 245V695ZM312 745L202 871H364L425
745H312Z" />
<glyph unicode="&#xda;" glyph-name="Uacute" horiz-adv-x="691" d="M57 695H212V243Q212 167 251 131T360 94Q427 94 468 130T510 243V695L634 696V250Q634 188 614 140T556 58T466 8T348 -10Q284 -10 231 6T139 55T79 135T57 245V695ZM365 871H520L411 745H301L365
871Z" />
<glyph unicode="&#xdb;" glyph-name="Ucircumflex" horiz-adv-x="691" d="M57 695H212V243Q212 167 251 131T360 94Q427 94 468 130T510 243V695L634 696V250Q634 188 614 140T556 58T466 8T348 -10Q284 -10 231 6T139 55T79 135T57 245V695ZM358 803L288 745H193L284
871H432L524 745H428L358 803Z" />
<glyph unicode="&#xdc;" glyph-name="Udieresis" horiz-adv-x="691" d="M57 695H212V243Q212 167 251 131T360 94Q427 94 468 130T510 243V695L634 696V250Q634 188 614 140T556 58T466 8T348 -10Q284 -10 231 6T139 55T79 135T57 245V695ZM479 740Q446 740 424
760T402 813Q402 847 424 866T479 886Q511 886 533 867T556 813Q556 781 534 761T479 740ZM244 740Q212 740 190 760T168 813Q168 847 190 866T244 886Q277 886 299 867T321 813Q321 781 299 761T244 740Z" />
<glyph unicode="&#xdd;" glyph-name="Yacute" horiz-adv-x="649" d="M247 0V284L13 695H179L342 397L508 695H636L403 284V0H247ZM344 870H499L390 744H280L344 870Z" />
<glyph unicode="&#xde;" glyph-name="Thorn" horiz-adv-x="634" d="M224 472V221H310Q376 221 411 252T446 353Q446 418 412 445T311 472H224ZM224 122V0H68V695H224V571H311Q449 571 525 521T602 358Q602 298 582 254T523 180T431 136T310 122H224Z" />
<glyph unicode="&#xdf;" glyph-name="germandbls" horiz-adv-x="625" d="M601 145Q601 105 586 76T545 27T482 -1T403 -10Q351 -10 317 -2T269 15L280 114Q297 103 322 94T379 84Q414 84 432 97T451 136Q451 157 438 169T405 191T363 211T320 237T287 277T274
341Q274 383 293 411T336 462T379 508T399 565Q399 598 377 617T313 636Q256 636 232 597T207 491V0H61V485Q61 540 77 585T124 662T204 713T316 731Q370 731 412 719T482 685T524 634T539 568Q539 524 518 495T470 443T423 402T401 362Q401 343 416 331T453 308T501
285T549 255T586 211T601 145Z" />
<glyph unicode="&#xe0;" glyph-name="agrave" horiz-adv-x="538" d="M245 79Q281 79 302 96T336 140V232H296Q228 232 202 211T175 150Q175 114 194 97T245 79ZM356 0Q351 13 348 30T342 68Q333 54 320 40T290 15T250 -3T198 -10Q162 -10 131 -1T78 26T44 73T31
138Q31 212 95 257T293 303H336V331Q336 376 314 398T232 421Q188 421 156 407T93 370L51 471Q83 490 131 503T253 517Q363 517 422 475T482 336V81Q482 64 483 39T488 0H356ZM475 566L369 715H523L580 566H475Z" />
<glyph unicode="&#xe1;" glyph-name="aacute" horiz-adv-x="538" d="M245 79Q281 79 302 96T336 140V232H296Q228 232 202 211T175 150Q175 114 194 97T245 79ZM356 0Q351 13 348 30T342 68Q333 54 320 40T290 15T250 -3T198 -10Q162 -10 131 -1T78 26T44 73T31
138Q31 212 95 257T293 303H336V331Q336 376 314 398T232 421Q188 421 156 407T93 370L51 471Q83 490 131 503T253 517Q363 517 422 475T482 336V81Q482 64 483 39T488 0H356ZM269 715H419L313 566H210L269 715Z" />
<glyph unicode="&#xe2;" glyph-name="acircumflex" horiz-adv-x="538" d="M245 79Q281 79 302 96T336 140V232H296Q228 232 202 211T175 150Q175 114 194 97T245 79ZM356 0Q351 13 348 30T342 68Q333 54 320 40T290 15T250 -3T198 -10Q162 -10 131 -1T78 26T44
73T31 138Q31 212 95 257T293 303H336V331Q336 376 314 398T232 421Q188 421 156 407T93 370L51 471Q83 490 131 503T253 517Q363 517 422 475T482 336V81Q482 64 483 39T488 0H356ZM268 637L200 566H103L204 709H335L436 566H336L268 637Z" />
<glyph unicode="&#xe3;" glyph-name="atilde" horiz-adv-x="538" d="M245 79Q281 79 302 96T336 140V232H296Q228 232 202 211T175 150Q175 114 194 97T245 79ZM356 0Q351 13 348 30T342 68Q333 54 320 40T290 15T250 -3T198 -10Q162 -10 131 -1T78 26T44 73T31
138Q31 212 95 257T293 303H336V331Q336 376 314 398T232 421Q188 421 156 407T93 370L51 471Q83 490 131 503T253 517Q363 517 422 475T482 336V81Q482 64 483 39T488 0H356ZM99 572Q95 598 98 622T114 664T147 694T198 705Q222 705 240 699T274 685T302 671T330
665Q347 665 354 674T361 708H435Q439 682 436 658T420 616T388 586T337 575Q312 575 294 581T260 595T232 609T204 616Q187 616 180 606T174 572H99Z" />
<glyph unicode="&#xe4;" glyph-name="adieresis" horiz-adv-x="538" d="M245 79Q281 79 302 96T336 140V232H296Q228 232 202 211T175 150Q175 114 194 97T245 79ZM356 0Q351 13 348 30T342 68Q333 54 320 40T290 15T250 -3T198 -10Q162 -10 131 -1T78 26T44 73T31
138Q31 212 95 257T293 303H336V331Q336 376 314 398T232 421Q188 421 156 407T93 370L51 471Q83 490 131 503T253 517Q363 517 422 475T482 336V81Q482 64 483 39T488 0H356ZM378 565Q345 565 324 585T302 638Q302 672 323 691T378 711Q410 711 432 692T455 638Q455
605 433 585T378 565ZM156 565Q124 565 102 585T80 638Q80 672 102 691T156 711Q189 711 211 692T234 638Q234 605 212 585T156 565Z" />
<glyph unicode="&#xe5;" glyph-name="aring" horiz-adv-x="538" d="M245 79Q281 79 302 96T336 140V232H296Q228 232 202 211T175 150Q175 114 194 97T245 79ZM356 0Q351 13 348 30T342 68Q333 54 320 40T290 15T250 -3T198 -10Q162 -10 131 -1T78 26T44 73T31
138Q31 212 95 257T293 303H336V331Q336 376 314 398T232 421Q188 421 156 407T93 370L51 471Q83 490 131 503T253 517Q363 517 422 475T482 336V81Q482 64 483 39T488 0H356ZM268 556Q219 556 187 586T154 663Q154 710 186 739T268 769Q317 769 349 740T382 663Q382
616 350 586T268 556ZM268 612Q289 612 301 626T314 663Q314 685 302 699T268 713Q247 713 235 699T222 663Q222 640 234 626T268 612Z" />
<glyph unicode="&#xe6;" glyph-name="ae" horiz-adv-x="858" d="M593 431Q548 431 520 398T484 299H685Q688 367 663 399T593 431ZM807 41Q783 24 736 7T622 -10Q538 -10 483 17T397 96Q389 78 375 59T339 25T284 0T208 -10Q129 -10 80 26T31 135Q31 215 88 256T272
298H339V318Q339 345 335 364T319 396T286 415T230 421Q182 421 148 405T83 367L41 468Q73 487 123 502T251 517Q317 517 362 502T433 452Q493 517 598 517Q653 517 698 499T773 445T815 354T815 226H484Q490 157 527 123T640 89Q678 89 714 101T779 130L807 41ZM248
79Q275 79 293 89T321 116T335 152T339 189V229H280Q217 229 196 208T175 149Q175 118 192 99T248 79Z" />
<glyph unicode="&#xe7;" glyph-name="ccedilla" horiz-adv-x="497" d="M261 -189Q228 -189 207 -184T177 -173L188 -119Q195 -124 208 -128T238 -133Q256 -133 267 -128T279 -106Q279 -89 266 -83T229 -77H213L239 -4Q194 5 157 25T94 77T52 152T37 249Q37 311
58 361T116 445T204 498T316 517Q368 517 401 510T454 492L422 384Q398 401 376 411T315 421Q289 421 266 411T226 380T198 328T187 255Q187 170 224 128T328 86Q357 86 384 96T432 123L462 39Q443 22 404 7T306 -10L296 -38Q344 -42 362 -62T381 -111Q381 -153
348 -171T261 -189Z" />
<glyph unicode="&#xe8;" glyph-name="egrave" horiz-adv-x="545" d="M286 431Q245 431 219 400T184 307H372Q374 371 351 401T286 431ZM499 41Q476 24 429 7T314 -10Q245 -10 193 8T107 61T55 145T37 254Q37 315 55 363T106 446T184 498T286 517Q342 517 387 499T461
445T502 355T502 230H182Q189 158 226 124T330 89Q372 89 407 101T471 130L499 41ZM246 566L140 715H294L351 566H246Z" />
<glyph unicode="&#xe9;" glyph-name="eacute" horiz-adv-x="545" d="M286 431Q245 431 219 400T184 307H372Q374 371 351 401T286 431ZM499 41Q476 24 429 7T314 -10Q245 -10 193 8T107 61T55 145T37 254Q37 315 55 363T106 446T184 498T286 517Q342 517 387 499T461
445T502 355T502 230H182Q189 158 226 124T330 89Q372 89 407 101T471 130L499 41ZM286 715H436L330 566H227L286 715Z" />
<glyph unicode="&#xea;" glyph-name="ecircumflex" horiz-adv-x="545" d="M286 431Q245 431 219 400T184 307H372Q374 371 351 401T286 431ZM499 41Q476 24 429 7T314 -10Q245 -10 193 8T107 61T55 145T37 254Q37 315 55 363T106 446T184 498T286 517Q342 517
387 499T461 445T502 355T502 230H182Q189 158 226 124T330 89Q372 89 407 101T471 130L499 41ZM285 637L217 566H120L221 709H352L453 566H353L285 637Z" />
<glyph unicode="&#xeb;" glyph-name="edieresis" horiz-adv-x="545" d="M286 431Q245 431 219 400T184 307H372Q374 371 351 401T286 431ZM499 41Q476 24 429 7T314 -10Q245 -10 193 8T107 61T55 145T37 254Q37 315 55 363T106 446T184 498T286 517Q342 517 387
499T461 445T502 355T502 230H182Q189 158 226 124T330 89Q372 89 407 101T471 130L499 41ZM395 565Q362 565 341 585T319 638Q319 672 340 691T395 711Q427 711 449 692T472 638Q472 605 450 585T395 565ZM173 565Q141 565 119 585T97 638Q97 672 119 691T173
711Q206 711 228 692T251 638Q251 605 229 585T173 565Z" />
<glyph unicode="&#xec;" glyph-name="igrave" horiz-adv-x="268" d="M207 507V0H61V507H207ZM88 566L-18 715H136L193 566H88Z" />
<glyph unicode="&#xed;" glyph-name="iacute" horiz-adv-x="268" d="M207 507V0H61V507H207ZM393 715H543L437 566H334L393 715Z" />
<glyph unicode="&#xee;" glyph-name="icircumflex" horiz-adv-x="268" d="M136 634L86 566H-2L79 709H196L277 566H186L136 634ZM207 507V0H61V507H207Z" />
<glyph unicode="&#xef;" glyph-name="idieresis" horiz-adv-x="268" d="M235 565Q202 565 181 585T159 638Q159 672 180 691T235 711Q267 711 289 692T312 638Q312 605 290 585T235 565ZM37 565Q5 565 -17 585T-39 638Q-39 672 -17 691T37 711Q70 711 92 692T114
638Q114 605 92 585T37 565ZM207 507V0H61V507H207Z" />
<glyph unicode="&#xf0;" glyph-name="eth" horiz-adv-x="607" d="M299 -10Q245 -10 197 7T112 58T54 143T33 265Q33 330 52 377T104 456T177 502T262 517Q300 517 330 508T381 478Q370 508 349 536T298 589L132 533L108 597L232 640Q200 661 166 677T100 704V725H283Q324
709 363 684L467 720L491 655L428 634Q494 573 532 486T571 289Q571 211 549 155T489 62T402 8T299 -10ZM180 260Q180 169 214 129T302 89Q358 89 391 134T424 271Q424 299 421 330T412 380Q393 403 367 417T300 431Q248 431 214 390T180 260Z" />
<glyph unicode="&#xf1;" glyph-name="ntilde" horiz-adv-x="602" d="M323 413Q279 413 252 394T207 346V0H61V507H195L203 434H205Q228 469 270 493T376 517Q454 517 501 477T548 351V0H402V339Q402 381 381 397T323 413ZM135 572Q131 598 134 622T150 664T183
694T234 705Q258 705 276 699T310 685T338 671T366 665Q383 665 390 674T397 708H471Q475 682 472 658T456 616T424 586T373 575Q348 575 330 581T296 595T268 609T240 616Q223 616 216 606T210 572H135Z" />
<glyph unicode="&#xf2;" glyph-name="ograve" horiz-adv-x="612" d="M305 -10Q249 -10 200 7T115 58T58 141T37 254Q37 318 58 367T115 449T200 500T305 517Q361 517 410 500T496 450T554 367T575 254Q575 190 554 141T497 59T411 8T305 -10ZM305 85Q357 85 391
123T426 254Q426 345 392 383T305 422Q279 422 258 413T220 384T195 332T186 254Q186 208 195 176T220 124T257 94T305 85ZM257 566L151 715H305L362 566H257Z" />
<glyph unicode="&#xf3;" glyph-name="oacute" horiz-adv-x="612" d="M305 -10Q249 -10 200 7T115 58T58 141T37 254Q37 318 58 367T115 449T200 500T305 517Q361 517 410 500T496 450T554 367T575 254Q575 190 554 141T497 59T411 8T305 -10ZM305 85Q357 85 391
123T426 254Q426 345 392 383T305 422Q279 422 258 413T220 384T195 332T186 254Q186 208 195 176T220 124T257 94T305 85ZM307 715H457L351 566H248L307 715Z" />
<glyph unicode="&#xf4;" glyph-name="ocircumflex" horiz-adv-x="612" d="M305 -10Q249 -10 200 7T115 58T58 141T37 254Q37 318 58 367T115 449T200 500T305 517Q361 517 410 500T496 450T554 367T575 254Q575 190 554 141T497 59T411 8T305 -10ZM305 85Q357
85 391 123T426 254Q426 345 392 383T305 422Q279 422 258 413T220 384T195 332T186 254Q186 208 195 176T220 124T257 94T305 85ZM306 637L238 566H141L242 709H373L474 566H374L306 637Z" />
<glyph unicode="&#xf5;" glyph-name="otilde" horiz-adv-x="612" d="M305 -10Q249 -10 200 7T115 58T58 141T37 254Q37 318 58 367T115 449T200 500T305 517Q361 517 410 500T496 450T554 367T575 254Q575 190 554 141T497 59T411 8T305 -10ZM305 85Q357 85 391
123T426 254Q426 345 392 383T305 422Q279 422 258 413T220 384T195 332T186 254Q186 208 195 176T220 124T257 94T305 85ZM136 572Q132 598 135 622T151 664T184 694T235 705Q259 705 277 699T311 685T339 671T367 665Q384 665 391 674T398 708H472Q476 682 473
658T457 616T425 586T374 575Q349 575 331 581T297 595T269 609T241 616Q224 616 217 606T211 572H136Z" />
<glyph unicode="&#xf6;" glyph-name="odieresis" horiz-adv-x="612" d="M305 -10Q249 -10 200 7T115 58T58 141T37 254Q37 318 58 367T115 449T200 500T305 517Q361 517 410 500T496 450T554 367T575 254Q575 190 554 141T497 59T411 8T305 -10ZM305 85Q357 85
391 123T426 254Q426 345 392 383T305 422Q279 422 258 413T220 384T195 332T186 254Q186 208 195 176T220 124T257 94T305 85ZM416 565Q383 565 362 585T340 638Q340 672 361 691T416 711Q448 711 470 692T493 638Q493 605 471 585T416 565ZM194 565Q162 565 140
585T118 638Q118 672 140 691T194 711Q227 711 249 692T272 638Q272 605 250 585T194 565Z" />
<glyph unicode="&#xf7;" glyph-name="divide" horiz-adv-x="583" d="M289 43Q255 43 232 66T209 123Q209 157 232 180T289 203Q323 203 346 180T369 123Q369 89 346 66T289 43ZM289 441Q255 441 232 464T209 521Q209 555 232 578T289 601Q323 601 346 578T369
521Q369 487 346 464T289 441ZM45 277V377H538V277H45Z" />
<glyph unicode="&#xf8;" glyph-name="oslash" horiz-adv-x="612" d="M178 254Q178 176 206 131L353 422Q332 431 305 431Q250 431 214 388T178 254ZM305 76Q361 76 398 119T435 254Q435 330 407 375L260 84Q282 76 305 76ZM305 -10Q258 -10 218 2L178 -78H101L155
29Q101 61 69 117T37 254Q37 318 58 367T115 449T200 500T305 517Q353 517 395 505L434 581H511L459 477Q512 445 543 389T575 254Q575 190 554 141T497 59T411 8T305 -10Z" />
<glyph unicode="&#xf9;" glyph-name="ugrave" horiz-adv-x="594" d="M387 73Q367 38 327 14T224 -10Q150 -10 103 33T56 163V507H203V167Q203 124 224 110T276 95Q316 95 343 114T387 165V507H533V0H402L390 73H387V73ZM254 566L148 715H302L359 566H254Z" />
<glyph unicode="&#xfa;" glyph-name="uacute" horiz-adv-x="594" d="M387 73Q367 38 327 14T224 -10Q150 -10 103 33T56 163V507H203V167Q203 124 224 110T276 95Q316 95 343 114T387 165V507H533V0H402L390 73H387V73ZM304 715H454L348 566H245L304 715Z" />
<glyph unicode="&#xfb;" glyph-name="ucircumflex" horiz-adv-x="594" d="M387 73Q367 38 327 14T224 -10Q150 -10 103 33T56 163V507H203V167Q203 124 224 110T276 95Q316 95 343 114T387 165V507H533V0H402L390 73H387V73ZM303 637L235 566H138L239 709H370L471
566H371L303 637Z" />
<glyph unicode="&#xfc;" glyph-name="udieresis" horiz-adv-x="594" d="M387 73Q367 38 327 14T224 -10Q150 -10 103 33T56 163V507H203V167Q203 124 224 110T276 95Q316 95 343 114T387 165V507H533V0H402L390 73H387V73ZM413 565Q380 565 359 585T337 638Q337
672 358 691T413 711Q445 711 467 692T490 638Q490 605 468 585T413 565ZM191 565Q159 565 137 585T115 638Q115 672 137 691T191 711Q224 711 246 692T269 638Q269 605 247 585T191 565Z" />
<glyph unicode="&#xfd;" glyph-name="yacute" horiz-adv-x="568" d="M144 -188Q102 -188 79 -183T40 -170L57 -67Q64 -71 84 -78T136 -86Q188 -86 216 -31L14 507H163L298 127L433 507H554L370 18Q350 -36 328 -75T279 -139T219 -176T144 -188ZM295 715H445L339
566H236L295 715Z" />
<glyph unicode="&#xfe;" glyph-name="thorn" horiz-adv-x="628" d="M326 85Q377 85 409 127T442 254Q442 339 410 380T326 422Q275 422 241 381T206 254Q206 169 240 127T326 85ZM368 -10Q312 -10 273 13T207 78V-172H61V707H207V434Q233 473 272 495T367 517Q412
517 453 501T524 453T573 371T591 254Q591 187 573 138T524 55T453 6T368 -10Z" />
<glyph unicode="&#xff;" glyph-name="ydieresis" horiz-adv-x="568" d="M144 -188Q102 -188 79 -183T40 -170L57 -67Q64 -71 84 -78T136 -86Q188 -86 216 -31L14 507H163L298 127L433 507H554L370 18Q350 -36 328 -75T279 -139T219 -176T144 -188ZM401 565Q368
565 347 585T325 638Q325 672 346 691T401 711Q433 711 455 692T478 638Q478 605 456 585T401 565ZM179 565Q147 565 125 585T103 638Q103 672 125 691T179 711Q212 711 234 692T257 638Q257 605 235 585T179 565Z" />
<glyph unicode="&#x100;" glyph-name="Amacron" horiz-adv-x="660" d="M313 563L215 259H409L313 563ZM441 161H184L132 0H13L242 695H419L647 0H492L441 161ZM176 854H477V766H176V854Z" />
<glyph unicode="&#x101;" glyph-name="amacron" horiz-adv-x="538" d="M245 79Q281 79 302 96T336 140V232H296Q228 232 202 211T175 150Q175 114 194 97T245 79ZM356 0Q351 13 348 30T342 68Q333 54 320 40T290 15T250 -3T198 -10Q162 -10 131 -1T78 26T44 73T31
138Q31 212 95 257T293 303H336V331Q336 376 314 398T232 421Q188 421 156 407T93 370L51 471Q83 490 131 503T253 517Q363 517 422 475T482 336V81Q482 64 483 39T488 0H356ZM120 678H416V589H120V678Z" />
<glyph unicode="&#x102;" glyph-name="Abreve" horiz-adv-x="660" d="M313 563L215 259H409L313 563ZM441 161H184L132 0H13L242 695H419L647 0H492L441 161ZM327 738Q287 738 258 749T210 780T180 826T170 881H263Q264 851 281 838T327 825Q355 825 372 838T390
881H483Q483 852 473 826T444 781T396 750T327 738Z" />
<glyph unicode="&#x103;" glyph-name="abreve" horiz-adv-x="538" d="M245 79Q281 79 302 96T336 140V232H296Q228 232 202 211T175 150Q175 114 194 97T245 79ZM356 0Q351 13 348 30T342 68Q333 54 320 40T290 15T250 -3T198 -10Q162 -10 131 -1T78 26T44 73T31
138Q31 212 95 257T293 303H336V331Q336 376 314 398T232 421Q188 421 156 407T93 370L51 471Q83 490 131 503T253 517Q363 517 422 475T482 336V81Q482 64 483 39T488 0H356ZM279 555Q240 555 211 567T164 599T136 645T126 702H219Q220 670 236 656T279 642Q306
642 321 656T338 702H431Q431 672 422 646T394 599T347 567T279 555Z" />
<glyph unicode="&#x104;" glyph-name="Aogonek" horiz-adv-x="660" d="M441 161H184L132 0H13L242 695H419L647 0Q621 -10 604 -28T586 -72Q586 -106 625 -106Q639 -106 650 -103T666 -98L676 -172Q668 -177 649 -181T597 -185Q536 -185 502 -162T467 -97Q467
-77 474 -61T494 -33T519 -13T545 0H492L441 161ZM313 563L215 259H409L313 563Z" />
<glyph unicode="&#x105;" glyph-name="aogonek" horiz-adv-x="538" d="M434 -185Q373 -185 339 -162T304 -97Q304 -66 321 -46T359 -12Q354 4 349 24T341 68Q332 53 320 39T290 14T250 -3T198 -10Q162 -10 131 -1T78 26T44 73T31 138Q31 212 95 257T293 303H336V331Q336
376 314 398T232 421Q188 421 155 405T90 367L48 468Q80 487 130 502T253 517Q363 517 422 475T482 336V81Q482 64 483 39T488 0Q462 -11 443 -28T423 -72Q423 -106 462 -106Q476 -106 487 -103T503 -98L513 -172Q505 -177 486 -181T434 -185ZM245 79Q281 79 302
96T336 140V232H296Q228 232 202 211T175 150Q175 114 194 97T245 79Z" />
<glyph unicode="&#x106;" glyph-name="Cacute" horiz-adv-x="633" d="M397 -10Q318 -10 253 14T140 84T67 196T41 347Q41 431 66 497T138 609T249 679T394 704Q460 704 509 692T584 662L567 544Q537 565 497 581T406 597Q306 597 254 533T202 347Q202 97 411 97Q457
97 493 108T560 142L593 40Q566 21 517 6T397 -10ZM377 870H532L423 744H313L377 870Z" />
<glyph unicode="&#x107;" glyph-name="cacute" horiz-adv-x="497" d="M304 -10Q247 -10 198 7T114 57T58 138T37 249Q37 311 58 361T116 445T204 498T316 517Q368 517 401 510T454 492L422 384Q398 401 376 411T315 421Q289 421 266 411T226 380T198 328T187 255Q187
170 224 128T328 86Q357 86 384 96T432 123L462 39Q443 22 404 6T304 -10ZM284 715H434L328 566H225L284 715Z" />
<glyph unicode="&#x108;" glyph-name="Ccircumflex" horiz-adv-x="633" d="M397 -10Q318 -10 253 14T140 84T67 196T41 347Q41 431 66 497T138 609T249 679T394 704Q460 704 509 692T584 662L567 544Q537 565 497 581T406 597Q306 597 254 533T202 347Q202 97
411 97Q457 97 493 108T560 142L593 40Q566 21 517 6T397 -10ZM371 800L301 742H206L297 868H445L537 742H441L371 800Z" />
<glyph unicode="&#x109;" glyph-name="ccircumflex" horiz-adv-x="497" d="M304 -10Q247 -10 198 7T114 57T58 138T37 249Q37 311 58 361T116 445T204 498T316 517Q368 517 401 510T454 492L422 384Q398 401 376 411T315 421Q289 421 266 411T226 380T198 328T187
255Q187 170 224 128T328 86Q357 86 384 96T432 123L462 39Q443 22 404 6T304 -10ZM280 637L212 566H115L216 709H347L448 566H348L280 637Z" />
<glyph unicode="&#x10a;" glyph-name="Cdotaccent" horiz-adv-x="633" d="M397 -10Q318 -10 253 14T140 84T67 196T41 347Q41 431 66 497T138 609T249 679T394 704Q460 704 509 692T584 662L567 544Q537 565 497 581T406 597Q306 597 254 533T202 347Q202 97 411
97Q457 97 493 108T560 142L593 40Q566 21 517 6T397 -10ZM373 739Q337 739 314 760T290 816Q290 851 313 872T373 893Q409 893 433 872T458 816Q458 781 434 760T373 739Z" />
<glyph unicode="&#x10b;" glyph-name="cdotaccent" horiz-adv-x="497" d="M304 -10Q247 -10 198 7T114 57T58 138T37 249Q37 311 58 361T116 445T204 498T316 517Q368 517 401 510T454 492L422 384Q398 401 376 411T315 421Q289 421 266 411T226 380T198 328T187
255Q187 170 224 128T328 86Q357 86 384 96T432 123L462 39Q443 22 404 6T304 -10ZM279 820Q244 820 220 840T196 896Q196 932 220 953T279 974Q315 974 339 953T364 896Q364 861 340 841T279 820Z" />
<glyph unicode="&#x10c;" glyph-name="Ccaron" horiz-adv-x="633" d="M397 -10Q318 -10 253 14T140 84T67 196T41 347Q41 431 66 497T138 609T249 679T394 704Q460 704 509 692T584 662L567 544Q537 565 497 581T406 597Q306 597 254 533T202 347Q202 97 411 97Q457
97 493 108T560 142L593 40Q566 21 517 6T397 -10ZM292 746L200 875H297L372 816L447 875H544L451 746H292Z" />
<glyph unicode="&#x10d;" glyph-name="ccaron" horiz-adv-x="497" d="M304 -10Q247 -10 198 7T114 57T58 138T37 249Q37 311 58 361T116 445T204 498T316 517Q368 517 401 510T454 492L422 384Q398 401 376 411T315 421Q289 421 266 411T226 380T198 328T187 255Q187
170 224 128T328 86Q357 86 384 96T432 123L462 39Q443 22 404 6T304 -10ZM222 566L121 709H221L289 639L357 709H454L353 566H222Z" />
<glyph unicode="&#x10e;" glyph-name="Dcaron" horiz-adv-x="725" d="M223 596V99H317Q364 99 402 114T467 162T509 244T524 362Q524 431 510 476T469 548T407 585T327 596H223ZM67 695H307Q388 695 457 679T577 625T656 524T685 368Q685 275 656 206T576 91T453
23T297 0H67V695ZM265 746L173 875H270L345 816L420 875H517L424 746H265Z" />
<glyph unicode="&#x10f;" glyph-name="dcaron" horiz-adv-x="628" d="M305 85Q355 85 389 126T424 254Q424 339 390 380T305 422Q253 422 220 381T187 254Q187 169 220 127T305 85ZM430 91Q407 46 366 18T262 -10Q217 -10 176 6T105 55T56 137T38 254Q38 321 56
370T104 452T176 501T263 517Q317 517 357 496T423 435V725H569V0H441L430 91ZM607 564L625 725H739L689 564H607Z" />
<glyph unicode="&#x110;" glyph-name="Dcroat" horiz-adv-x="747" d="M500 309V99H582Q632 99 672 114T742 162T786 244T802 362Q802 431 787 476T744 548T677 585T592 596H500V398H654V309H500ZM344 309H266V398H344V695H584Q665 695 734 679T854 625T933 524T962
368Q962 275 934 206T854 91T731 23T574 0H344V309Z" />
<glyph unicode="&#x111;" glyph-name="dcroat" horiz-adv-x="630" d="M429 91Q406 46 365 18T261 -10Q216 -10 175 6T104 55T55 137T37 254Q37 321 55 370T103 452T175 501T262 517Q316 517 356 496T422 435V557H276V634H422V725H568V634H626V557H568V0H440L429
91ZM304 85Q354 85 388 126T423 254Q423 339 389 380T304 422Q252 422 219 381T186 254Q186 169 219 127T304 85Z" />
<glyph unicode="&#x112;" glyph-name="Emacron" horiz-adv-x="570" d="M67 695H514V596H223V409H463V310H223V99H519V0H67V695ZM151 854H452V766H151V854Z" />
<glyph unicode="&#x113;" glyph-name="emacron" horiz-adv-x="545" d="M286 431Q245 431 219 400T184 307H372Q374 371 351 401T286 431ZM499 41Q476 24 429 7T314 -10Q245 -10 193 8T107 61T55 145T37 254Q37 315 55 363T106 446T184 498T286 517Q342 517 387
499T461 445T502 355T502 230H182Q189 158 226 124T330 89Q372 89 407 101T471 130L499 41ZM137 678H433V589H137V678Z" />
<glyph unicode="&#x114;" glyph-name="Ebreve" horiz-adv-x="570" d="M67 695H514V596H223V409H463V310H223V99H519V0H67V695ZM297 738Q257 738 228 749T180 780T150 826T140 881H233Q234 851 251 838T297 825Q325 825 342 838T360 881H453Q453 852 443 826T414
781T366 750T297 738Z" />
<glyph unicode="&#x115;" glyph-name="ebreve" horiz-adv-x="545" d="M286 431Q245 431 219 400T184 307H372Q374 371 351 401T286 431ZM499 41Q476 24 429 7T314 -10Q245 -10 193 8T107 61T55 145T37 254Q37 315 55 363T106 446T184 498T286 517Q342 517 387
499T461 445T502 355T502 230H182Q189 158 226 124T330 89Q372 89 407 101T471 130L499 41ZM285 555Q246 555 217 567T170 599T142 645T132 702H225Q226 670 242 656T285 642Q312 642 327 656T344 702H437Q437 672 428 646T400 599T353 567T285 555Z" />
<glyph unicode="&#x116;" glyph-name="Edotaccent" horiz-adv-x="570" d="M67 695H514V596H223V409H463V310H223V99H519V0H67V695ZM298 739Q262 739 239 760T215 816Q215 851 238 872T298 893Q334 893 358 872T383 816Q383 781 359 760T298 739Z" />
<glyph unicode="&#x117;" glyph-name="edotaccent" horiz-adv-x="545" d="M286 431Q245 431 219 400T184 307H372Q374 371 351 401T286 431ZM499 41Q476 24 429 7T314 -10Q245 -10 193 8T107 61T55 145T37 254Q37 315 55 363T106 446T184 498T286 517Q342 517
387 499T461 445T502 355T502 230H182Q189 158 226 124T330 89Q372 89 407 101T471 130L499 41ZM284 565Q249 565 225 585T201 641Q201 677 225 698T284 719Q320 719 344 698T369 641Q369 606 345 586T284 565Z" />
<glyph unicode="&#x118;" glyph-name="Eogonek" horiz-adv-x="570" d="M67 695H514V596H223V409H463V310H223V99H519V0H67V695ZM448 -185Q387 -185 353 -162T318 -97Q318 -77 325 -61T345 -33T370 -13T396 0H493Q473 -11 455 -28T437 -72Q437 -106 476 -106Q490
-106 501 -103T517 -98L527 -172Q519 -177 500 -181T448 -185Z" />
<glyph unicode="&#x119;" glyph-name="eogonek" horiz-adv-x="545" d="M244 -97Q244 -65 264 -44T307 -10H306Q238 -10 188 8T104 61T54 145T37 254Q37 315 55 363T106 446T184 498T286 517Q342 517 387 499T461 445T502 355T502 230H183Q188 159 222 124T324
89Q374 89 409 101T470 130L499 45Q482 34 460 23T414 -3Q398 -12 381 -29T363 -72Q363 -106 402 -106Q416 -106 427 -103T443 -98L453 -172Q445 -177 426 -181T374 -185Q313 -185 279 -162T244 -97ZM286 431Q243 431 216 400T183 307H372Q375 370 352 400T286
431Z" />
<glyph unicode="&#x11a;" glyph-name="Ecaron" horiz-adv-x="570" d="M67 695H514V596H223V409H463V310H223V99H519V0H67V695ZM220 746L128 875H225L300 816L375 875H472L379 746H220Z" />
<glyph unicode="&#x11b;" glyph-name="ecaron" horiz-adv-x="545" d="M286 431Q245 431 219 400T184 307H372Q374 371 351 401T286 431ZM499 41Q476 24 429 7T314 -10Q245 -10 193 8T107 61T55 145T37 254Q37 315 55 363T106 446T184 498T286 517Q342 517 387
499T461 445T502 355T502 230H182Q189 158 226 124T330 89Q372 89 407 101T471 130L499 41ZM227 566L126 709H226L294 639L362 709H459L358 566H227Z" />
<glyph unicode="&#x11c;" glyph-name="Gcircumflex" horiz-adv-x="748" d="M701 272Q701 211 682 159T625 70T528 11T391 -10Q311 -10 247 15T136 86T66 198T41 347Q41 430 67 496T141 608T256 679T408 704Q454 704 491 700T558 687T611 668T653 644L635 534Q591
562 543 579T426 597Q317 597 260 534T202 347Q202 222 250 157T395 92Q437 92 467 104T515 137T543 188T552 252V280H367V380H701V272V272ZM385 802L315 744H220L311 870H459L551 744H455L385 802Z" />
<glyph unicode="&#x11d;" glyph-name="gcircumflex" horiz-adv-x="624" d="M303 118Q352 118 385 155T418 269Q418 347 385 384T302 422Q252 422 219 385T185 269Q185 193 218 156T303 118ZM269 -192Q218 -192 181 -185T120 -170Q91 -160 72 -147L100 -48Q107
-52 120 -59T153 -74T199 -86T258 -91Q346 -91 382 -56T419 58V116Q396 74 356 49T259 24Q214 24 174 39T104 85T55 162T37 269Q37 331 55 377T103 455T175 501T261 517Q321 517 361 492T425 421L426 427Q426 436 427 447T429 469T431 490T435 507H567Q565 494
564 469T562 427V61Q562 4 546 -42T495 -122T405 -173T269 -192ZM304 637L236 566H139L240 709H371L472 566H372L304 637Z" />
<glyph unicode="&#x11e;" glyph-name="Gbreve" horiz-adv-x="748" d="M701 272Q701 211 682 159T625 70T528 11T391 -10Q311 -10 247 15T136 86T66 198T41 347Q41 430 67 496T141 608T256 679T408 704Q454 704 491 700T558 687T611 668T653 644L635 534Q591 562
543 579T426 597Q317 597 260 534T202 347Q202 222 250 157T395 92Q437 92 467 104T515 137T543 188T552 252V280H367V380H701V272V272ZM389 738Q349 738 320 749T272 780T242 826T232 881H325Q326 851 343 838T389 825Q417 825 434 838T452 881H545Q545 852 535
826T506 781T458 750T389 738Z" />
<glyph unicode="&#x11f;" glyph-name="gbreve" horiz-adv-x="624" d="M303 118Q352 118 385 155T418 269Q418 347 385 384T302 422Q252 422 219 385T185 269Q185 193 218 156T303 118ZM269 -192Q218 -192 181 -185T120 -170Q91 -160 72 -147L100 -48Q107 -52 120
-59T153 -74T199 -86T258 -91Q346 -91 382 -56T419 58V116Q396 74 356 49T259 24Q214 24 174 39T104 85T55 162T37 269Q37 331 55 377T103 455T175 501T261 517Q321 517 361 492T425 421L426 427Q426 436 427 447T429 469T431 490T435 507H567Q565 494 564 469T562
427V61Q562 4 546 -42T495 -122T405 -173T269 -192ZM305 555Q266 555 237 567T190 599T162 645T152 702H245Q246 670 262 656T305 642Q332 642 347 656T364 702H457Q457 672 448 646T420 599T373 567T305 555Z" />
<glyph unicode="&#x120;" glyph-name="Gdotaccent" horiz-adv-x="748" d="M701 272Q701 211 682 159T625 70T528 11T391 -10Q311 -10 247 15T136 86T66 198T41 347Q41 430 67 496T141 608T256 679T408 704Q454 704 491 700T558 687T611 668T653 644L635 534Q591
562 543 579T426 597Q317 597 260 534T202 347Q202 222 250 157T395 92Q437 92 467 104T515 137T543 188T552 252V280H367V380H701V272V272ZM388 739Q352 739 329 760T305 816Q305 851 328 872T388 893Q424 893 448 872T473 816Q473 781 449 760T388 739Z" />
<glyph unicode="&#x121;" glyph-name="gdotaccent" horiz-adv-x="624" d="M303 118Q352 118 385 155T418 269Q418 347 385 384T302 422Q252 422 219 385T185 269Q185 193 218 156T303 118ZM269 -192Q218 -192 181 -185T120 -170Q91 -160 72 -147L100 -48Q107 -52
120 -59T153 -74T199 -86T258 -91Q346 -91 382 -56T419 58V116Q396 74 356 49T259 24Q214 24 174 39T104 85T55 162T37 269Q37 331 55 377T103 455T175 501T261 517Q321 517 361 492T425 421L426 427Q426 436 427 447T429 469T431 490T435 507H567Q565 494 564
469T562 427V61Q562 4 546 -42T495 -122T405 -173T269 -192ZM303 565Q268 565 244 585T220 641Q220 677 244 698T303 719Q339 719 363 698T388 641Q388 606 364 586T303 565Z" />
<glyph unicode="&#x122;" glyph-name="uni0122" horiz-adv-x="748" d="M701 272Q701 211 682 159T625 70T528 11T391 -10Q311 -10 247 15T136 86T66 198T41 347Q41 430 67 496T141 608T256 679T408 704Q454 704 491 700T558 687T611 668T653 644L635 534Q591 562
543 579T426 597Q317 597 260 534T202 347Q202 222 250 157T395 92Q437 92 467 104T515 137T543 188T552 252V280H367V380H701V272V272ZM318 -233Q333 -218 346 -201T370 -163Q347 -159 333 -144T319 -104Q319 -77 338 -60T387 -42Q417 -42 437 -60T457 -115Q457
-153 437 -182T395 -233H318Z" />
<glyph unicode="&#x123;" glyph-name="uni0123" horiz-adv-x="624" d="M303 118Q352 118 385 155T418 269Q418 347 385 384T302 422Q252 422 219 385T185 269Q185 193 218 156T303 118ZM269 -192Q218 -192 181 -185T120 -170Q91 -160 72 -147L100 -48Q107 -52
120 -59T153 -74T199 -86T258 -91Q346 -91 382 -56T419 58V116Q396 74 356 49T259 24Q214 24 174 39T104 85T55 162T37 269Q37 331 55 377T103 455T175 501T261 517Q321 517 361 492T425 421L426 427Q426 436 427 447T429 469T431 490T435 507H567Q565 494 564
469T562 427V61Q562 4 546 -42T495 -122T405 -173T269 -192ZM281 568Q251 568 231 586T211 641Q211 679 231 708T273 759H350Q335 744 322 727T298 689Q321 685 335 670T349 630Q349 603 330 586T281 568Z" />
<glyph unicode="&#x124;" glyph-name="Hcircumflex" horiz-adv-x="727" d="M504 296H223V0H67V695H223V396H504V695H660V0H504V296ZM367 802L297 744H202L293 870H441L533 744H437L367 802Z" />
<glyph unicode="&#x125;" glyph-name="hcircumflex" horiz-adv-x="604" d="M207 0H61V725H207V437H209Q231 472 272 494T375 517Q453 517 500 477T547 351V0H402V339Q402 381 381 397T322 413Q279 413 252 394T207 346V0ZM308 832L238 774H143L234 900H382L474
774H378L308 832Z" />
<glyph unicode="&#x126;" glyph-name="Hbar" horiz-adv-x="767" d="M523 296H242V0H86V503H4V583H86V695H242V583H523V695H679V583H762V503H679V0H523V296ZM523 396V503H242V396H523Z" />
<glyph unicode="&#x127;" glyph-name="hbar" horiz-adv-x="603" d="M208 0H62V557H-2V634H62V725H208V634H343V557H208V437H210Q232 472 273 494T376 517Q454 517 501 477T548 351V0H403V339Q403 381 382 397T323 413Q280 413 253 394T208 346V0Z" />
<glyph unicode="&#x128;" glyph-name="Itilde" horiz-adv-x="290" d="M223 695V0H67V695H223ZM226 750Q222 775 225 799T241 841T274 871T326 883Q351 883 371 877T409 863T442 849T474 843Q491 843 498 852T505 886H576Q580 860 577 836T562 794T529 764T477
752Q451 752 431 758T393 772T360 786T328 793Q311 793 304 784T297 750H226Z" />
<glyph unicode="&#x129;" glyph-name="itilde" horiz-adv-x="268" d="M207 507V0H61V507H207ZM223 572Q219 598 222 622T238 664T271 694T322 705Q346 705 364 699T398 685T426 671T454 665Q471 665 478 674T485 708H559Q563 682 560 658T544 616T512 586T461
575Q436 575 418 581T384 595T356 609T328 616Q311 616 304 606T298 572H223Z" />
<glyph unicode="&#x12a;" glyph-name="Imacron" horiz-adv-x="290" d="M223 695V0H67V695H223ZM251 854H552V766H251V854Z" />
<glyph unicode="&#x12b;" glyph-name="imacron" horiz-adv-x="268" d="M13 678H261V589H13V678ZM207 507V0H61V507H207Z" />
<glyph unicode="&#x12c;" glyph-name="Ibreve" horiz-adv-x="290" d="M223 695V0H67V695H223ZM402 738Q362 738 333 749T285 780T255 826T245 881H338Q339 851 356 838T402 825Q430 825 447 838T465 881H558Q558 852 548 826T519 781T471 750T402 738Z" />
<glyph unicode="&#x12d;" glyph-name="ibreve" horiz-adv-x="268" d="M207 507V0H61V507H207ZM393 555Q354 555 325 567T278 599T250 645T240 702H333Q334 670 350 656T393 642Q420 642 435 656T452 702H545Q545 672 536 646T508 599T461 567T393 555Z" />
<glyph unicode="&#x12e;" glyph-name="Iogonek" horiz-adv-x="290" d="M223 695V0Q196 -11 175 -28T153 -72Q153 -106 192 -106Q206 -106 217 -103T233 -98L243 -172Q235 -177 216 -181T164 -185Q103 -185 69 -162T34 -97Q34 -77 42 -61T62 -33T89 -13T118 0H67V695H223Z" />
<glyph unicode="&#x12f;" glyph-name="iogonek" horiz-adv-x="268" d="M207 507V0Q180 -11 163 -28T145 -72Q145 -106 184 -106Q198 -106 209 -103T225 -98L235 -172Q227 -177 208 -181T156 -185Q95 -185 61 -162T26 -97Q26 -57 49 -34T102 0H61V507H207ZM134
565Q98 565 74 586T49 642Q49 677 73 698T134 720Q169 720 194 699T219 642Q219 607 194 586T134 565Z" />
<glyph unicode="&#x130;" glyph-name="Idotaccent" horiz-adv-x="290" d="M223 695V0H67V695H223ZM401 739Q365 739 342 760T318 816Q318 851 341 872T401 893Q437 893 461 872T486 816Q486 781 462 760T401 739Z" />
<glyph unicode="&#x131;" glyph-name="dotlessi" horiz-adv-x="268" d="M207 507V0H61V507H207Z" />
<glyph unicode="&#x132;" glyph-name="IJ" horiz-adv-x="653" d="M224 695V0H68V695H224ZM588 695V172Q588 132 576 99T537 41T470 4T372 -10Q343 -10 320 -4T281 12L295 111Q305 106 321 102T362 97Q400 97 416 118T433 185V695H588Z" />
<glyph unicode="&#x133;" glyph-name="ij" horiz-adv-x="517" d="M134 565Q98 565 74 586T49 642Q49 677 73 698T134 720Q169 720 194 699T219 642Q219 607 194 586T134 565ZM207 507V0H61V507H207ZM382 565Q346 565 322 586T298 642Q298 677 322 698T382 720Q418
720 442 699T467 642Q467 607 443 586T382 565ZM456 49Q456 -17 440 -63T395 -138T322 -181T225 -196L203 -94Q231 -93 251 -87T285 -67T304 -30T311 30V507H456V49Z" />
<glyph unicode="&#x134;" glyph-name="Jcircumflex" horiz-adv-x="416" d="M351 695V172Q351 132 339 99T300 41T233 4T135 -10Q99 -10 70 -5T24 12L38 111Q48 108 64 103T102 97Q153 97 174 118T196 185V695H351ZM268 802L198 744H103L194 870H342L434 744H338L268 802Z" />
<glyph unicode="&#x135;" glyph-name="jcircumflex" horiz-adv-x="267" d="M133 634L83 566H-5L76 709H193L274 566H183L133 634ZM206 49Q206 -17 190 -63T145 -138T72 -181T-25 -196L-47 -94Q-19 -93 1 -87T35 -67T54 -30T61 30V507H206V49Z" />
<glyph unicode="&#x136;" glyph-name="uni0136" horiz-adv-x="676" d="M487 0L229 341L505 695H644L388 367L664 0H487ZM223 695V0H67V695H223ZM274 -233Q289 -218 302 -201T326 -163Q303 -159 289 -144T275 -104Q275 -77 294 -60T343 -42Q373 -42 393 -60T413
-115Q413 -153 393 -182T351 -233H274Z" />
<glyph unicode="&#x137;" glyph-name="uni0137" horiz-adv-x="564" d="M207 263V0H61V725H207V265L405 507H535L354 284L549 0H384L207 263ZM213 -233Q228 -218 241 -201T265 -163Q242 -159 228 -144T214 -104Q214 -77 233 -60T282 -42Q312 -42 332 -60T352 -115Q352
-153 332 -182T290 -233H213Z" />
<glyph unicode="&#x139;" glyph-name="Lacute" horiz-adv-x="546" d="M67 695H223V99H506V0H67V695ZM410 870H565L456 744H346L410 870Z" />
<glyph unicode="&#x13a;" glyph-name="lacute" horiz-adv-x="269" d="M207 725V0H61V725H207ZM394 900H549L440 774H330L394 900Z" />
<glyph unicode="&#x13b;" glyph-name="uni013B" horiz-adv-x="546" d="M67 695H223V99H506V0H67V695ZM226 -233Q241 -218 254 -201T278 -163Q255 -159 241 -144T227 -104Q227 -77 246 -60T295 -42Q325 -42 345 -60T365 -115Q365 -153 345 -182T303 -233H226Z" />
<glyph unicode="&#x13c;" glyph-name="uni013C" horiz-adv-x="269" d="M207 725V0H61V725H207ZM319 -233Q334 -218 347 -201T371 -163Q348 -159 334 -144T320 -104Q320 -77 339 -60T388 -42Q418 -42 438 -60T458 -115Q458 -153 438 -182T396 -233H319Z" />
<glyph unicode="&#x13d;" glyph-name="Lcaron" horiz-adv-x="546" d="M67 695H223V99H506V0H67V695ZM281 790L299 951H413L363 790H281Z" />
<glyph unicode="&#x13e;" glyph-name="lcaron" horiz-adv-x="269" d="M207 725V0H61V725H207ZM246 564L264 725H378L328 564H246Z" />
<glyph unicode="&#x13f;" glyph-name="Ldot" horiz-adv-x="546" d="M67 695H223V99H506V0H67V695ZM431 297Q397 297 374 320T351 377Q351 411 374 434T431 457Q465 457 488 434T511 377Q511 343 488 320T431 297Z" />
<glyph unicode="&#x140;" glyph-name="ldot" horiz-adv-x="406" d="M207 725V0H61V725H207ZM336 291Q302 291 279 314T256 371Q256 405 279 428T336 451Q370 451 393 428T416 371Q416 337 393 314T336 291Z" />
<glyph unicode="&#x141;" glyph-name="Lslash" horiz-adv-x="577" d="M27 262L97 299V695H253V381L455 487V388L253 282V99H536V0H97V200L27 163V262Z" />
<glyph unicode="&#x142;" glyph-name="lslash" horiz-adv-x="317" d="M20 334L83 374V725H229V466L297 509V415L229 372V0H83V280L20 241V334Z" />
<glyph unicode="&#x143;" glyph-name="Nacute" horiz-adv-x="725" d="M185 511V0H67V695H235L540 196V695H657V0H498L185 511ZM385 870H540L431 744H321L385 870Z" />
<glyph unicode="&#x144;" glyph-name="nacute" horiz-adv-x="602" d="M323 413Q279 413 252 394T207 346V0H61V507H195L203 434H205Q228 469 270 493T376 517Q454 517 501 477T548 351V0H402V339Q402 381 381 397T323 413ZM305 715H455L349 566H246L305 715Z" />
<glyph unicode="&#x145;" glyph-name="uni0145" horiz-adv-x="725" d="M185 511V0H67V695H235L540 196V695H657V0H498L185 511ZM278 -233Q293 -218 306 -201T330 -163Q307 -159 293 -144T279 -104Q279 -77 298 -60T347 -42Q377 -42 397 -60T417 -115Q417 -153
397 -182T355 -233H278Z" />
<glyph unicode="&#x146;" glyph-name="uni0146" horiz-adv-x="602" d="M323 413Q279 413 252 394T207 346V0H61V507H195L203 434H205Q228 469 270 493T376 517Q454 517 501 477T548 351V0H402V339Q402 381 381 397T323 413ZM233 -233Q248 -218 261 -201T285 -163Q262
-159 248 -144T234 -104Q234 -77 253 -60T302 -42Q332 -42 352 -60T372 -115Q372 -153 352 -182T310 -233H233Z" />
<glyph unicode="&#x147;" glyph-name="Ncaron" horiz-adv-x="725" d="M185 511V0H67V695H235L540 196V695H657V0H498L185 511ZM300 746L208 875H305L380 816L455 875H552L459 746H300Z" />
<glyph unicode="&#x148;" glyph-name="ncaron" horiz-adv-x="602" d="M323 413Q279 413 252 394T207 346V0H61V507H195L203 434H205Q228 469 270 493T376 517Q454 517 501 477T548 351V0H402V339Q402 381 381 397T323 413ZM236 566L135 709H235L303 639L371 709H468L367
566H236Z" />
<glyph unicode="&#x14a;" glyph-name="Eng" horiz-adv-x="726" d="M455 -195Q422 -195 396 -190T349 -178L369 -84Q400 -97 450 -97Q495 -97 517 -75T540 0H494L186 503V0H68V695H236L540 197V695H658V-6Q658 -94 608 -144T455 -195Z" />
<glyph unicode="&#x14b;" glyph-name="eng" horiz-adv-x="597" d="M547 49Q547 -17 531 -63T486 -138T413 -181T316 -196L294 -94Q322 -93 342 -87T376 -67T395 -30T402 30V339Q402 381 381 397T323 413Q279 413 252 394T207 346V0H61V507H195L203 434H205Q228
469 270 493T376 517Q454 517 500 477T547 351V49V49Z" />
<glyph unicode="&#x14c;" glyph-name="Omacron" horiz-adv-x="785" d="M392 -10Q318 -10 254 13T143 80T68 191T41 345Q41 432 68 499T142 611T254 680T392 704Q465 704 529 682T641 614T716 503T744 350Q744 263 717 196T642 83T530 14T392 -10ZM392 92Q433 92
468 105T528 149T568 227T583 347Q583 417 569 466T529 545T468 588T392 602Q350 602 316 589T256 545T216 466T202 347Q202 276 216 228T255 149T315 106T392 92ZM242 854H543V766H242V854Z" />
<glyph unicode="&#x14d;" glyph-name="omacron" horiz-adv-x="612" d="M305 -10Q249 -10 200 7T115 58T58 141T37 254Q37 318 58 367T115 449T200 500T305 517Q361 517 410 500T496 450T554 367T575 254Q575 190 554 141T497 59T411 8T305 -10ZM305 85Q357 85
391 123T426 254Q426 345 392 383T305 422Q279 422 258 413T220 384T195 332T186 254Q186 208 195 176T220 124T257 94T305 85ZM158 678H454V589H158V678Z" />
<glyph unicode="&#x14e;" glyph-name="Obreve" horiz-adv-x="785" d="M392 -10Q318 -10 254 13T143 80T68 191T41 345Q41 432 68 499T142 611T254 680T392 704Q465 704 529 682T641 614T716 503T744 350Q744 263 717 196T642 83T530 14T392 -10ZM392 92Q433 92
468 105T528 149T568 227T583 347Q583 417 569 466T529 545T468 588T392 602Q350 602 316 589T256 545T216 466T202 347Q202 276 216 228T255 149T315 106T392 92ZM393 738Q353 738 324 749T276 780T246 826T236 881H329Q330 851 347 838T393 825Q421 825 438 838T456
881H549Q549 852 539 826T510 781T462 750T393 738Z" />
<glyph unicode="&#x14f;" glyph-name="obreve" horiz-adv-x="612" d="M305 -10Q249 -10 200 7T115 58T58 141T37 254Q37 318 58 367T115 449T200 500T305 517Q361 517 410 500T496 450T554 367T575 254Q575 190 554 141T497 59T411 8T305 -10ZM305 85Q357 85 391
123T426 254Q426 345 392 383T305 422Q279 422 258 413T220 384T195 332T186 254Q186 208 195 176T220 124T257 94T305 85ZM306 555Q267 555 238 567T191 599T163 645T153 702H246Q247 670 263 656T306 642Q333 642 348 656T365 702H458Q458 672 449 646T421 599T374
567T306 555Z" />
<glyph unicode="&#x150;" glyph-name="Ohungarumlaut" horiz-adv-x="785" d="M392 -10Q318 -10 254 13T143 80T68 191T41 345Q41 432 68 499T142 611T254 680T392 704Q465 704 529 682T641 614T716 503T744 350Q744 263 717 196T642 83T530 14T392 -10ZM392 92Q433
92 468 105T528 149T568 227T583 347Q583 417 569 466T529 545T468 588T392 602Q350 602 316 589T256 545T216 466T202 347Q202 276 216 228T255 149T315 106T392 92ZM429 744L470 870H606L532 744H429ZM242 744L283 870H419L345 744H242Z" />
<glyph unicode="&#x151;" glyph-name="ohungarumlaut" horiz-adv-x="612" d="M305 -10Q249 -10 200 7T115 58T58 141T37 254Q37 318 58 367T115 449T200 500T305 517Q361 517 410 500T496 450T554 367T575 254Q575 190 554 141T497 59T411 8T305 -10ZM305 85Q357
85 391 123T426 254Q426 345 392 383T305 422Q279 422 258 413T220 384T195 332T186 254Q186 208 195 176T220 124T257 94T305 85ZM345 566L400 715H525L441 566H345ZM167 566L222 715H347L264 566H167Z" />
<glyph unicode="&#x152;" glyph-name="OE" horiz-adv-x="987" d="M481 99V596H423Q373 596 333 585T263 546T217 472T201 355Q201 287 217 239T263 160T336 114T432 99H481ZM434 0Q348 0 276 22T151 88T70 199T41 358Q41 454 71 518T153 622T278 678T435 695H930V596H637V408H879V309H637V99H935V0H434Z"
/>
<glyph unicode="&#x153;" glyph-name="oe" horiz-adv-x="954" d="M685 431Q638 431 609 397T572 297H781Q784 366 758 398T685 431ZM305 85Q331 85 353 95T391 125T417 178T426 254Q426 342 392 382T305 422Q254 422 220 382T186 254Q186 165 220 125T305 85ZM892
41Q869 24 826 7T715 -10Q637 -10 583 13T497 80Q465 35 416 13T305 -10Q249 -10 200 7T115 58T58 141T37 254Q37 318 58 367T115 449T200 500T305 517Q365 517 415 495T497 427Q528 471 575 494T684 517Q743 517 790 498T868 442T911 349T912 220H572Q580 154
617 122T733 89Q774 89 806 101T866 134L892 41Z" />
<glyph unicode="&#x154;" glyph-name="Racute" horiz-adv-x="647" d="M223 596V361H299Q360 361 395 389T430 482Q430 545 398 570T303 596H223ZM297 262H223V0H67V695H298Q442 695 515 643T588 481Q588 399 551 352T448 282L620 0H456L297 262ZM310 870H465L356
744H246L310 870Z" />
<glyph unicode="&#x155;" glyph-name="racute" horiz-adv-x="411" d="M378 375Q356 378 332 376T284 367T240 346T207 314V0H61V507H192L203 403H206Q234 457 277 485T378 517V375V375ZM240 715H390L284 566H181L240 715Z" />
<glyph unicode="&#x156;" glyph-name="uni0156" horiz-adv-x="647" d="M223 596V361H299Q360 361 395 389T430 482Q430 545 398 570T303 596H223ZM297 262H223V0H67V695H298Q442 695 515 643T588 481Q588 399 551 352T448 282L620 0H456L297 262ZM263 -233Q278
-218 291 -201T315 -163Q292 -159 278 -144T264 -104Q264 -77 283 -60T332 -42Q362 -42 382 -60T402 -115Q402 -153 382 -182T340 -233H263Z" />
<glyph unicode="&#x157;" glyph-name="uni0157" horiz-adv-x="411" d="M378 375Q356 378 332 376T284 367T240 346T207 314V0H61V507H192L203 403H206Q234 457 277 485T378 517V375V375ZM318 -233Q333 -218 346 -201T370 -163Q347 -159 333 -144T319 -104Q319
-77 338 -60T387 -42Q417 -42 437 -60T457 -115Q457 -153 437 -182T395 -233H318Z" />
<glyph unicode="&#x158;" glyph-name="Rcaron" horiz-adv-x="647" d="M223 596V361H299Q360 361 395 389T430 482Q430 545 398 570T303 596H223ZM297 262H223V0H67V695H298Q442 695 515 643T588 481Q588 399 551 352T448 282L620 0H456L297 262ZM225 746L133 875H230L305
816L380 875H477L384 746H225Z" />
<glyph unicode="&#x159;" glyph-name="rcaron" horiz-adv-x="411" d="M378 375Q356 378 332 376T284 367T240 346T207 314V0H61V507H192L203 403H206Q234 457 277 485T378 517V375V375ZM171 566L70 709H170L238 639L306 709H403L302 566H171Z" />
<glyph unicode="&#x15a;" glyph-name="Sacute" horiz-adv-x="576" d="M270 -10Q224 -10 186 -3T119 14T69 36T36 59L52 166Q66 155 87 142T136 119T194 101T260 94Q320 94 357 117T395 190Q395 215 385 231T355 257T308 274T247 289Q210 298 173 311T107 347T60
406T41 498Q41 552 61 591T116 655T199 692T303 704Q378 704 429 689T502 654L489 547Q458 570 411 585T307 600Q241 600 211 578T181 513Q181 490 191 476T219 451T266 433T330 418Q367 410 405 398T474 363T524 302T543 207Q543 143 519 101T455 35T368 0T270
-10ZM305 874H460L351 748H241L305 874Z" />
<glyph unicode="&#x15b;" glyph-name="sacute" horiz-adv-x="492" d="M233 -10Q161 -10 113 4T38 40L61 135Q87 114 131 99T232 84Q327 84 327 142Q327 161 318 171T292 188T254 198T208 205Q178 210 149 218T97 243T60 285T45 354Q45 435 100 476T263 517Q327
517 367 505T427 481L400 389Q383 401 347 413T266 426Q224 426 197 414T170 373Q170 356 178 347T201 332T234 324T274 318Q305 313 338 305T398 280T443 234T461 158Q461 109 442 77T392 26T319 -2T233 -10ZM254 715H404L298 566H195L254 715Z" />
<glyph unicode="&#x15c;" glyph-name="Scircumflex" horiz-adv-x="576" d="M270 -10Q224 -10 186 -3T119 14T69 36T36 59L52 166Q66 155 87 142T136 119T194 101T260 94Q320 94 357 117T395 190Q395 215 385 231T355 257T308 274T247 289Q210 298 173 311T107
347T60 406T41 498Q41 552 61 591T116 655T199 692T303 704Q378 704 429 689T502 654L489 547Q458 570 411 585T307 600Q241 600 211 578T181 513Q181 490 191 476T219 451T266 433T330 418Q367 410 405 398T474 363T524 302T543 207Q543 143 519 101T455 35T368
0T270 -10ZM297 806L227 748H132L223 874H371L463 748H367L297 806Z" />
<glyph unicode="&#x15d;" glyph-name="scircumflex" horiz-adv-x="492" d="M233 -10Q161 -10 113 4T38 40L61 135Q87 114 131 99T232 84Q327 84 327 142Q327 161 318 171T292 188T254 198T208 205Q178 210 149 218T97 243T60 285T45 354Q45 435 100 476T263 517Q327
517 367 505T427 481L400 389Q383 401 347 413T266 426Q224 426 197 414T170 373Q170 356 178 347T201 332T234 324T274 318Q305 313 338 305T398 280T443 234T461 158Q461 109 442 77T392 26T319 -2T233 -10ZM253 637L185 566H88L189 709H320L421 566H321L253
637Z" />
<glyph unicode="&#x15e;" glyph-name="uni015E" horiz-adv-x="576" d="M264 -189Q231 -189 210 -184T180 -173L191 -119Q198 -124 211 -128T241 -133Q259 -133 270 -128T282 -106Q282 -89 269 -83T232 -77H216L240 -9Q160 -4 109 17T36 59L52 166Q66 155 87 142T136
119T194 101T260 94Q320 94 357 117T395 190Q395 215 385 231T355 257T308 274T247 289Q210 298 173 311T107 347T60 406T41 498Q41 552 61 591T116 655T199 692T303 704Q378 704 429 689T502 654L489 547Q458 570 411 585T307 600Q241 600 211 578T181 513Q181
490 191 476T219 451T266 433T330 418Q367 410 405 398T474 363T524 302T543 207Q543 150 523 111T471 46T396 8T310 -8L299 -38Q347 -42 365 -62T384 -111Q384 -153 351 -171T264 -189Z" />
<glyph unicode="&#x15f;" glyph-name="uni015F" horiz-adv-x="492" d="M212 -189Q179 -189 158 -184T128 -173L139 -119Q146 -124 159 -128T189 -133Q207 -133 218 -128T230 -106Q230 -89 217 -83T180 -77H164L189 -8Q135 -4 98 9T38 40L61 135Q87 114 131 99T232
84Q327 84 327 142Q327 161 318 171T292 188T254 198T208 205Q178 210 149 218T97 243T60 285T45 354Q45 435 100 476T263 517Q327 517 367 505T427 481L400 389Q383 401 347 413T266 426Q224 426 197 414T170 373Q170 356 178 347T201 332T234 324T274 318Q305
313 338 305T398 280T443 234T461 158Q461 113 445 82T400 31T335 2T257 -9L247 -38Q295 -42 313 -62T332 -111Q332 -153 299 -171T212 -189Z" />
<glyph unicode="&#x160;" glyph-name="Scaron" horiz-adv-x="576" d="M270 -10Q224 -10 186 -3T119 14T69 36T36 59L52 166Q66 155 87 142T136 119T194 101T260 94Q320 94 357 117T395 190Q395 215 385 231T355 257T308 274T247 289Q210 298 173 311T107 347T60
406T41 498Q41 552 61 591T116 655T199 692T303 704Q378 704 429 689T502 654L489 547Q458 570 411 585T307 600Q241 600 211 578T181 513Q181 490 191 476T219 451T266 433T330 418Q367 410 405 398T474 363T524 302T543 207Q543 143 519 101T455 35T368 0T270
-10ZM220 750L128 879H225L300 820L375 879H472L379 750H220Z" />
<glyph unicode="&#x161;" glyph-name="scaron" horiz-adv-x="492" d="M233 -10Q161 -10 113 4T38 40L61 135Q87 114 131 99T232 84Q327 84 327 142Q327 161 318 171T292 188T254 198T208 205Q178 210 149 218T97 243T60 285T45 354Q45 435 100 476T263 517Q327
517 367 505T427 481L400 389Q383 401 347 413T266 426Q224 426 197 414T170 373Q170 356 178 347T201 332T234 324T274 318Q305 313 338 305T398 280T443 234T461 158Q461 109 442 77T392 26T319 -2T233 -10ZM186 566L85 709H185L253 639L321 709H418L317 566H186Z"
/>
<glyph unicode="&#x162;" glyph-name="Tcommaaccent" horiz-adv-x="603" d="M379 596V0H223V596H28V695H575V596H379ZM230 -233Q245 -218 258 -201T282 -163Q259 -159 245 -144T231 -104Q231 -77 250 -60T299 -42Q329 -42 349 -60T369 -115Q369 -153 349 -182T307
-233H230Z" />
<glyph unicode="&#x163;" glyph-name="tcommaaccent" horiz-adv-x="410" d="M385 15Q368 5 341 -2T269 -10Q173 -10 129 33T84 164V413H24V507H84V613H231V507H373V413H231V167Q231 126 248 110T298 93Q320 93 337 99T365 112L385 15V15ZM408 -233Q423 -218 436
-201T460 -163Q437 -159 423 -144T409 -104Q409 -77 428 -60T477 -42Q507 -42 527 -60T547 -115Q547 -153 527 -182T485 -233H408Z" />
<glyph unicode="&#x164;" glyph-name="Tcaron" horiz-adv-x="603" d="M379 596V0H223V596H28V695H575V596H379ZM220 746L128 875H225L300 816L375 875H472L379 746H220Z" />
<glyph unicode="&#x165;" glyph-name="tcaron" horiz-adv-x="410" d="M385 15Q368 5 341 -2T269 -10Q173 -10 129 33T84 164V413H24V507H84V613H231V507H373V413H231V167Q231 126 248 110T298 93Q320 93 337 99T365 112L385 15V15ZM278 564L296 725H410L360 564H278Z" />
<glyph unicode="&#x166;" glyph-name="Tbar" horiz-adv-x="603" d="M73 418H223V596H28V695H575V596H379V418H529V330H379V0H223V330H73V418Z" />
<glyph unicode="&#x167;" glyph-name="tbar" horiz-adv-x="414" d="M389 15Q372 5 345 -2T273 -10Q177 -10 133 33T88 164V261H28V338H88V413H28V507H88V613H235V507H377V413H235V338H376V261H235V167Q235 126 252 110T302 93Q324 93 341 99T369 112L389 15Z" />
<glyph unicode="&#x168;" glyph-name="Utilde" horiz-adv-x="691" d="M57 695H212V243Q212 167 251 131T360 94Q427 94 468 130T510 243V695L634 696V250Q634 188 614 140T556 58T466 8T348 -10Q284 -10 231 6T139 55T79 135T57 245V695ZM186 751Q182 776 185
800T201 842T234 872T286 884Q311 884 331 878T369 864T402 850T434 844Q451 844 458 853T465 887H536Q540 861 537 837T522 795T489 765T437 753Q411 753 391 759T353 773T320 787T288 794Q271 794 264 785T257 751H186Z" />
<glyph unicode="&#x169;" glyph-name="utilde" horiz-adv-x="594" d="M387 73Q367 38 327 14T224 -10Q150 -10 103 33T56 163V507H203V167Q203 124 224 110T276 95Q316 95 343 114T387 165V507H533V0H402L390 73H387V73ZM133 572Q129 598 132 622T148 664T181
694T232 705Q256 705 274 699T308 685T336 671T364 665Q381 665 388 674T395 708H469Q473 682 470 658T454 616T422 586T371 575Q346 575 328 581T294 595T266 609T238 616Q221 616 214 606T208 572H133Z" />
<glyph unicode="&#x16a;" glyph-name="Umacron" horiz-adv-x="691" d="M57 695H212V243Q212 167 251 131T360 94Q427 94 468 130T510 243V695L634 696V250Q634 188 614 140T556 58T466 8T348 -10Q284 -10 231 6T139 55T79 135T57 245V695ZM211 855H512V767H211V855Z" />
<glyph unicode="&#x16b;" glyph-name="umacron" horiz-adv-x="594" d="M387 73Q367 38 327 14T224 -10Q150 -10 103 33T56 163V507H203V167Q203 124 224 110T276 95Q316 95 343 114T387 165V507H533V0H402L390 73H387V73ZM155 678H451V589H155V678Z" />
<glyph unicode="&#x16c;" glyph-name="Ubreve" horiz-adv-x="691" d="M57 695H212V243Q212 167 251 131T360 94Q427 94 468 130T510 243V695L634 696V250Q634 188 614 140T556 58T466 8T348 -10Q284 -10 231 6T139 55T79 135T57 245V695ZM362 739Q322 739 293
750T245 781T215 827T205 882H298Q299 852 316 839T362 826Q390 826 407 839T425 882H518Q518 853 508 827T479 782T431 751T362 739Z" />
<glyph unicode="&#x16d;" glyph-name="ubreve" horiz-adv-x="594" d="M387 73Q367 38 327 14T224 -10Q150 -10 103 33T56 163V507H203V167Q203 124 224 110T276 95Q316 95 343 114T387 165V507H533V0H402L390 73H387V73ZM303 555Q264 555 235 567T188 599T160
645T150 702H243Q244 670 260 656T303 642Q330 642 345 656T362 702H455Q455 672 446 646T418 599T371 567T303 555Z" />
<glyph unicode="&#x16e;" glyph-name="Uring" horiz-adv-x="691" d="M57 695H212V243Q212 167 251 131T360 94Q427 94 468 130T510 243V695L634 696V250Q634 188 614 140T556 58T466 8T348 -10Q284 -10 231 6T139 55T79 135T57 245V695ZM362 701Q313 701 281 731T248
808Q248 855 280 884T362 914Q411 914 443 885T476 808Q476 761 444 731T362 701ZM362 757Q383 757 395 771T408 808Q408 830 396 844T362 859Q341 859 329 845T316 808Q316 785 328 771T362 757Z" />
<glyph unicode="&#x16f;" glyph-name="uring" horiz-adv-x="594" d="M387 73Q367 38 327 14T224 -10Q150 -10 103 33T56 163V507H203V167Q203 124 224 110T276 95Q316 95 343 114T387 165V507H533V0H402L390 73H387V73ZM303 556Q254 556 222 586T189 663Q189 710
221 739T303 769Q352 769 384 740T417 663Q417 616 385 586T303 556ZM303 612Q324 612 336 626T349 663Q349 685 337 699T303 713Q282 713 270 699T257 663Q257 640 269 626T303 612Z" />
<glyph unicode="&#x170;" glyph-name="Uhungarumlaut" horiz-adv-x="691" d="M57 695H212V243Q212 167 251 131T360 94Q427 94 468 130T510 243V695L634 696V250Q634 188 614 140T556 58T466 8T348 -10Q284 -10 231 6T139 55T79 135T57 245V695ZM398 745L439 871H575L501
745H398ZM211 745L252 871H388L314 745H211Z" />
<glyph unicode="&#x171;" glyph-name="uhungarumlaut" horiz-adv-x="594" d="M387 73Q367 38 327 14T224 -10Q150 -10 103 33T56 163V507H203V167Q203 124 224 110T276 95Q316 95 343 114T387 165V507H533V0H402L390 73H387V73ZM342 566L397 715H522L438 566H342ZM164
566L219 715H344L261 566H164Z" />
<glyph unicode="&#x172;" glyph-name="Uogonek" horiz-adv-x="691" d="M403 -72Q403 -106 442 -106Q456 -106 467 -103T483 -98L493 -172Q485 -177 466 -181T414 -185Q353 -185 319 -162T284 -97Q284 -65 302 -44T342 -10H333Q272 -8 222 9T135 59T78 138T57 245V695H212V243Q212
167 251 131T360 94Q427 94 468 130T510 243V695L634 696V250Q634 165 601 111T510 25Q482 10 462 -1T429 -23T410 -45T403 -72Z" />
<glyph unicode="&#x173;" glyph-name="uogonek" horiz-adv-x="594" d="M347 -97Q347 -66 364 -46T404 -13L390 73H387Q367 38 327 14T224 -10Q150 -10 103 33T56 163V507H203V167Q203 124 224 110T276 95Q316 95 343 114T387 165V507H533V0Q504 -11 485 -28T466
-72Q466 -106 505 -106Q519 -106 530 -103T546 -98L556 -172Q548 -177 529 -181T477 -185Q416 -185 382 -162T347 -97Z" />
<glyph unicode="&#x174;" glyph-name="Wcircumflex" horiz-adv-x="943" d="M16 695H170L282 160L417 695H560L695 161L809 695H927L778 0H593L470 490L345 0H166L16 695ZM480 802L410 744H315L406 870H554L646 744H550L480 802Z" />
<glyph unicode="&#x175;" glyph-name="wcircumflex" horiz-adv-x="768" d="M17 507H156L234 133L328 507H462L554 130L633 507H751L639 0H467L385 349L302 0H130L17 507ZM392 637L324 566H227L328 709H459L560 566H460L392 637Z" />
<glyph unicode="&#x176;" glyph-name="Ycircumflex" horiz-adv-x="649" d="M247 0V284L13 695H179L342 397L508 695H636L403 284V0H247ZM344 802L274 744H179L270 870H418L510 744H414L344 802Z" />
<glyph unicode="&#x177;" glyph-name="ycircumflex" horiz-adv-x="568" d="M144 -188Q102 -188 79 -183T40 -170L57 -67Q64 -71 84 -78T136 -86Q188 -86 216 -31L14 507H163L298 127L433 507H554L370 18Q350 -36 328 -75T279 -139T219 -176T144 -188ZM288 637L220
566H123L224 709H355L456 566H356L288 637Z" />
<glyph unicode="&#x178;" glyph-name="Ydieresis" horiz-adv-x="649" d="M247 0V284L13 695H179L342 397L508 695H636L403 284V0H247ZM454 739Q421 739 399 759T377 812Q377 846 399 865T454 885Q486 885 508 866T531 812Q531 780 509 760T454 739ZM219 739Q187
739 165 759T143 812Q143 846 165 865T219 885Q252 885 274 866T296 812Q296 780 274 760T219 739Z" />
<glyph unicode="&#x179;" glyph-name="Zacute" horiz-adv-x="588" d="M37 0V94L378 596H47V695H550V601L207 99H551V0H37ZM299 870H454L345 744H235L299 870Z" />
<glyph unicode="&#x17a;" glyph-name="zacute" horiz-adv-x="481" d="M36 0V85L279 415H44V507H444V422L207 92H445V0H36ZM243 715H393L287 566H184L243 715Z" />
<glyph unicode="&#x17b;" glyph-name="Zdotaccent" horiz-adv-x="588" d="M37 0V94L378 596H47V695H550V601L207 99H551V0H37ZM303 739Q267 739 244 760T220 816Q220 851 243 872T303 893Q339 893 363 872T388 816Q388 781 364 760T303 739Z" />
<glyph unicode="&#x17c;" glyph-name="zdotaccent" horiz-adv-x="481" d="M36 0V85L279 415H44V507H444V422L207 92H445V0H36ZM242 820Q207 820 183 840T159 896Q159 932 183 953T242 974Q278 974 302 953T327 896Q327 861 303 841T242 820Z" />
<glyph unicode="&#x17d;" glyph-name="Zcaron" horiz-adv-x="588" d="M37 0V94L378 596H47V695H550V601L207 99H551V0H37ZM224 746L132 875H229L304 816L379 875H476L383 746H224Z" />
<glyph unicode="&#x17e;" glyph-name="zcaron" horiz-adv-x="481" d="M36 0V85L279 415H44V507H444V422L207 92H445V0H36ZM176 567L75 710H175L243 640L311 710H408L307 567H176Z" />
<glyph unicode="&#x192;" glyph-name="uni0192" horiz-adv-x="508" d="M13 -181Q-24 -181 -45 -176T-75 -167L-64 -76Q-59 -78 -40 -82T0 -87Q43 -87 64 -61T97 26L152 349H74L90 431H166L175 487Q185 547 206 588T258 655T330 692T420 704Q439 704 454 702T480
698Q492 695 502 692L481 597Q475 599 458 602T422 606Q373 606 352 578T322 494L311 431H438L420 349H298L245 35Q225 -81 166 -131T13 -181Z" />
<glyph unicode="&#x218;" glyph-name="uni0218" horiz-adv-x="576" d="M270 -10Q224 -10 186 -3T119 14T69 36T36 59L52 166Q66 155 87 142T136 119T194 101T260 94Q320 94 357 117T395 190Q395 215 385 231T355 257T308 274T247 289Q210 298 173 311T107 347T60
406T41 498Q41 552 61 591T116 655T199 692T303 704Q378 704 429 689T502 654L489 547Q458 570 411 585T307 600Q241 600 211 578T181 513Q181 490 191 476T219 451T266 433T330 418Q367 410 405 398T474 363T524 302T543 207Q543 143 519 101T455 35T368 0T270
-10ZM211 19Q226 34 239 51T263 89Q240 93 226 108T212 148Q212 175 231 192T280 210Q310 210 330 192T350 137Q350 99 330 70T288 19H211Z" />
<glyph unicode="&#x219;" glyph-name="uni0219" horiz-adv-x="492" d="M233 -10Q161 -10 113 4T38 40L61 135Q87 114 131 99T232 84Q327 84 327 142Q327 161 318 171T292 188T254 198T208 205Q178 210 149 218T97 243T60 285T45 354Q45 435 100 476T263 517Q327
517 367 505T427 481L400 389Q383 401 347 413T266 426Q224 426 197 414T170 373Q170 356 178 347T201 332T234 324T274 318Q305 313 338 305T398 280T443 234T461 158Q461 109 442 77T392 26T319 -2T233 -10ZM166 -233Q181 -218 194 -201T218 -163Q195 -159 181
-144T167 -104Q167 -77 186 -60T235 -42Q265 -42 285 -60T305 -115Q305 -153 285 -182T243 -233H166Z" />
<glyph unicode="&#x21a;" glyph-name="uni021A" horiz-adv-x="603" d="M379 596V0H223V596H28V695H575V596H379ZM230 -233Q245 -218 258 -201T282 -163Q259 -159 245 -144T231 -104Q231 -77 250 -60T299 -42Q329 -42 349 -60T369 -115Q369 -153 349 -182T307 -233H230Z" />
<glyph unicode="&#x21b;" glyph-name="uni021B" horiz-adv-x="410" d="M385 15Q368 5 341 -2T269 -10Q173 -10 129 33T84 164V413H24V507H84V613H231V507H373V413H231V167Q231 126 248 110T298 93Q320 93 337 99T365 112L385 15V15ZM408 -233Q423 -218 436 -201T460
-163Q437 -159 423 -144T409 -104Q409 -77 428 -60T477 -42Q507 -42 527 -60T547 -115Q547 -153 527 -182T485 -233H408Z" />
<glyph unicode="&#x237;" glyph-name="uni0237" horiz-adv-x="271" d="M220 49Q220 -17 204 -63T159 -138T86 -181T-11 -196L-33 -94Q-5 -93 15 -87T49 -67T68 -30T75 30V507H220V49Z" />
<glyph unicode="&#x2bc;" glyph-name="uni02BC" horiz-adv-x="246" d="M44 456Q61 476 75 501T100 561Q73 570 62 589T51 629Q51 659 71 680T125 701Q158 701 180 680T202 618Q202 594 195 570T177 525T153 486T128 456H44Z" />
<glyph unicode="&#x2c6;" glyph-name="circumflex" horiz-adv-x="454" d="M227 637L159 566H62L163 709H294L395 566H295L227 637Z" />
<glyph unicode="&#x2c7;" glyph-name="caron" horiz-adv-x="454" d="M163 566L62 709H162L230 639L298 709H395L294 566H163Z" />
<glyph unicode="&#x2d8;" glyph-name="breve" horiz-adv-x="454" d="M227 555Q188 555 159 567T112 599T84 645T74 702H167Q168 670 184 656T227 642Q254 642 269 656T286 702H379Q379 672 370 646T342 599T295 567T227 555Z" />
<glyph unicode="&#x2d9;" glyph-name="dotaccent" horiz-adv-x="454" d="M226 565Q191 565 167 585T143 641Q143 677 167 698T226 719Q262 719 286 698T311 641Q311 606 287 586T226 565Z" />
<glyph unicode="&#x2da;" glyph-name="ring" horiz-adv-x="454" d="M227 556Q178 556 146 586T113 663Q113 710 145 739T227 769Q276 769 308 740T341 663Q341 616 309 586T227 556ZM227 612Q248 612 260 626T273 663Q273 685 261 699T227 713Q206 713 194 699T181
663Q181 640 193 626T227 612Z" />
<glyph unicode="&#x2db;" glyph-name="ogonek" horiz-adv-x="454" d="M249 -185Q188 -185 154 -162T119 -97Q119 -77 126 -61T146 -33T171 -13T197 0H294Q274 -11 256 -28T238 -72Q238 -106 277 -106Q291 -106 302 -103T318 -98L328 -172Q320 -177 301 -181T249 -185Z" />
<glyph unicode="&#x2dc;" glyph-name="tilde" horiz-adv-x="455" d="M59 572Q55 598 58 622T74 664T107 694T158 705Q182 705 200 699T234 685T262 671T290 665Q307 665 314 674T321 708H395Q399 682 396 658T380 616T348 586T297 575Q272 575 254 581T220 595T192
609T164 616Q147 616 140 606T134 572H59Z" />
<glyph unicode="&#x2dd;" glyph-name="hungarumlaut" horiz-adv-x="453" d="M228 566L283 715H408L324 566H228ZM50 566L105 715H230L147 566H50Z" />
<glyph unicode="&#x301;" glyph-name="acutecomb" horiz-adv-x="0" d="M-270 715H-120L-226 566H-329L-270 715Z" />
<glyph unicode="&#x401;" glyph-name="uni0401" horiz-adv-x="571" d="M67 695H514V596H223V409H463V310H223V99H519V0H67V695ZM415 739Q382 739 360 759T338 812Q338 846 360 865T415 885Q447 885 469 866T492 812Q492 780 470 760T415 739ZM180 739Q148 739
126 759T104 812Q104 846 126 865T180 885Q213 885 235 866T257 812Q257 780 235 760T180 739Z" />
<glyph unicode="&#x402;" glyph-name="uni0402" horiz-adv-x="817" d="M379 596V406Q402 419 435 429Q474 440 522 440Q582 440 630 423T713 372T766 290T785 181Q785 115 765 63T708 -25T620 -80T507 -99L489 14Q563 14 598 58T634 179Q634 251 598 290T491 330Q427
330 379 299V0H223V596H28V695H575V596H379Z" />
<glyph unicode="&#x403;" glyph-name="uni0403" horiz-adv-x="522" d="M279 870H434L325 744H215L279 870ZM218 596V0H67V695H484V596H218Z" />
<glyph unicode="&#x404;" glyph-name="uni0404" horiz-adv-x="633" d="M593 40Q566 21 516 6T395 -10Q314 -10 249 14T138 84T66 196T41 347Q41 431 65 497T134 609T245 679T394 704Q460 704 508 692T582 661L563 554Q534 571 495 584T406 597Q315 597 265 546T204
396H474V297H204Q224 97 409 97Q455 97 492 110T560 145L593 40V40Z" />
<glyph unicode="&#x405;" glyph-name="uni0405" horiz-adv-x="576" d="M270 -10Q224 -10 186 -3T119 14T69 36T36 59L52 166Q66 155 87 142T136 119T194 101T260 94Q320 94 357 117T395 190Q395 215 385 231T355 257T308 274T247 289Q210 298 173 311T107 347T60
406T41 498Q41 552 61 591T116 655T199 692T303 704Q378 704 429 689T502 654L489 547Q458 570 411 585T307 600Q241 600 211 578T181 513Q181 490 191 476T219 451T266 433T330 418Q367 410 405 398T474 363T524 302T543 207Q543 143 519 101T455 35T368 0T270
-10Z" />
<glyph unicode="&#x406;" glyph-name="uni0406" horiz-adv-x="286" d="M475 695V0H319V695H475Z" />
<glyph unicode="&#x407;" glyph-name="uni0407" horiz-adv-x="290" d="M250 749Q217 749 196 769T174 822Q174 856 195 875T250 895Q282 895 304 876T327 822Q327 790 305 770T250 749ZM40 749Q7 749 -14 769T-36 822Q-36 856 -15 875T40 895Q72 895 94 876T117
822Q117 790 95 770T40 749ZM223 695V0H67V695H223Z" />
<glyph unicode="&#x408;" glyph-name="uni0408" horiz-adv-x="415" d="M605 695V172Q605 132 593 99T554 41T487 4T389 -10Q353 -10 324 -5T278 12L292 111Q302 108 318 103T356 97Q407 97 428 118T450 185V695H605Z" />
<glyph unicode="&#x409;" glyph-name="uni0409" horiz-adv-x="1040" d="M256 196Q234 85 176 38T36 -2L21 123Q71 118 96 145T133 227Q146 288 151 406T158 695H625V453H717Q854 453 928 401T1002 233Q1002 172 982 128T924 56T833 14T713 0H474V596H283Q280 464
275 366T256 196ZM625 354V99H713Q776 99 810 129T845 228Q845 295 813 324T715 354H625Z" />
<glyph unicode="&#x40a;" glyph-name="uni040A" horiz-adv-x="1073" d="M660 326V99H749Q812 99 846 125T881 214Q881 274 849 300T751 326H660ZM504 326H223V0H67V695H223V426H504V695H660V425H753Q890 425 964 376T1038 219Q1038 162 1018 121T960 52T869 13T749
0H504V326Z" />
<glyph unicode="&#x40b;" glyph-name="uni040B" horiz-adv-x="814" d="M379 596V403Q405 418 443 429Q483 440 535 440Q586 440 628 426T699 383T744 307T760 196V0H608V200Q608 271 581 300T502 330Q429 330 379 296V0H223V596H28V695H575V596H379Z" />
<glyph unicode="&#x40c;" glyph-name="uni040C" horiz-adv-x="676" d="M487 0L229 341L505 695H644L388 367L664 0H487ZM223 695V0H67V695H223ZM342 870H497L388 744H278L342 870Z" />
<glyph unicode="&#x40e;" glyph-name="uni040E" horiz-adv-x="645" d="M349 727Q303 727 269 739T212 772T178 821T167 881H283Q283 838 300 820T349 802Q378 802 395 820T413 881H530Q530 849 519 821T486 772T429 739T349 727ZM188 -5Q171 -5 158 -4T138 0L126
117Q132 115 145 113T174 110Q210 110 234 121T276 155L17 695H176L350 315L507 695H634L415 191Q393 141 371 104T322 43T263 7T188 -5Z" />
<glyph unicode="&#x40f;" glyph-name="uni040F" horiz-adv-x="728" d="M429 0L419 -181H309L298 0H68V695H219V99H509V695H661V0H429Z" />
<glyph unicode="&#x410;" glyph-name="uni0410" horiz-adv-x="660" d="M313 563L215 259H409L313 563ZM441 161H184L132 0H13L242 695H419L647 0H492L441 161Z" />
<glyph unicode="&#x411;" glyph-name="uni0411" horiz-adv-x="632" d="M218 334V99H302Q365 99 399 126T434 219Q434 279 402 306T304 334H218ZM67 695H536V596H218V433H306Q443 433 517 384T591 224Q591 165 571 123T513 53T422 13T302 0H67V695Z" />
<glyph unicode="&#x412;" glyph-name="uni0412" horiz-adv-x="627" d="M479 600V403H537Q590 403 621 427T653 508Q653 561 624 580T538 600H479ZM479 313V95H548Q613 95 649 120T685 207Q685 265 652 289T547 313H479ZM323 695H536Q669 695 738 656T808 523Q808
451 769 414T663 362Q751 352 797 314T843 200Q843 145 820 107T757 45T661 11T540 0H323V695Z" />
<glyph unicode="&#x413;" glyph-name="uni0413" horiz-adv-x="522" d="M218 596V0H67V695H484V596H218Z" />
<glyph unicode="&#x414;" glyph-name="uni0414" horiz-adv-x="762" d="M256 238Q245 193 229 159T192 99H500V596H292Q286 475 278 387T256 238ZM616 0H141L120 -181H10V99H59Q85 119 105 155T139 249Q156 321 165 430T177 695H651V99H747V-181H637L616 0Z" />
<glyph unicode="&#x415;" glyph-name="uni0415" horiz-adv-x="571" d="M67 695H514V596H223V409H463V310H223V99H519V0H67V695Z" />
<glyph unicode="&#x416;" glyph-name="uni0416" horiz-adv-x="958" d="M400 337L184 0H16L250 363L27 695H174L400 355V695H555V355L782 695H925L706 372L942 0H767L555 336V0H400V337Z" />
<glyph unicode="&#x417;" glyph-name="uni0417" horiz-adv-x="575" d="M245 -10Q172 -10 119 6T38 42L68 146Q100 125 142 111T244 97Q307 97 344 122T381 206Q381 262 347 285T241 308H157V406H236Q296 406 328 430T360 503Q360 555 331 576T253 597Q204 597
162 585T91 558L54 656Q82 673 133 688T253 704Q376 704 443 658T510 518Q510 484 500 459T470 414T425 383T368 363Q446 350 490 310T535 195Q535 140 513 101T451 38T358 2T245 -10Z" />
<glyph unicode="&#x418;" glyph-name="uni0418" horiz-adv-x="757" d="M67 695H218V191L554 695H690V0H539V502L205 0H67V695Z" />
<glyph unicode="&#x419;" glyph-name="uni0419" horiz-adv-x="757" d="M379 727Q333 727 298 739T239 772T203 821T191 881H314Q314 837 331 819T379 801Q409 801 426 819T444 881H567Q567 849 555 821T519 772T460 739T379 727ZM67 695H218V191L554 695H690V0H539V502L205
0H67V695Z" />
<glyph unicode="&#x41a;" glyph-name="uni041A" horiz-adv-x="676" d="M223 695V0H67V695H223ZM487 0L229 341L505 695H644L388 367L664 0H487Z" />
<glyph unicode="&#x41b;" glyph-name="uni041B" horiz-adv-x="692" d="M256 196Q234 85 176 38T36 -2L21 121Q71 121 99 147T138 227Q151 288 155 406T162 695H625V0H474V596H283Q280 464 275 366T256 196Z" />
<glyph unicode="&#x41c;" glyph-name="uni041C" horiz-adv-x="849" d="M199 534L171 0H54L91 695H285L421 271L564 695H758L795 0H639L611 531L460 90H344L199 534Z" />
<glyph unicode="&#x41d;" glyph-name="uni041D" horiz-adv-x="727" d="M504 296H223V0H67V695H223V396H504V695H660V0H504V296Z" />
<glyph unicode="&#x41e;" glyph-name="uni041E" horiz-adv-x="785" d="M392 -10Q318 -10 254 13T143 80T68 191T41 345Q41 432 68 499T142 611T254 680T392 704Q465 704 529 682T641 614T716 503T744 350Q744 263 717 196T642 83T530 14T392 -10ZM392 92Q433 92
468 105T528 149T568 227T583 347Q583 417 569 466T529 545T468 588T392 602Q350 602 316 589T256 545T216 466T202 347Q202 276 216 228T255 149T315 106T392 92Z" />
<glyph unicode="&#x41f;" glyph-name="uni041F" horiz-adv-x="717" d="M499 596H218V0H67V695H650V0H499V596Z" />
<glyph unicode="&#x420;" glyph-name="uni0420" horiz-adv-x="615" d="M223 596V338H291Q354 338 390 370T426 473Q426 540 393 568T295 596H223ZM223 239V0H67V695H291Q429 695 505 642T581 476Q581 414 561 370T502 296T410 253T290 239H223Z" />
<glyph unicode="&#x421;" glyph-name="uni0421" horiz-adv-x="663" d="M397 -10Q318 -10 253 14T140 84T67 196T41 347Q41 431 66 497T138 609T249 679T394 704Q460 704 509 692T584 662L567 544Q537 565 497 581T406 597Q306 597 254 533T202 347Q202 97 411
97Q457 97 493 108T560 142L593 40Q566 21 517 6T397 -10Z" />
<glyph unicode="&#x422;" glyph-name="uni0422" horiz-adv-x="623" d="M379 596V0H223V596H28V695H575V596H379Z" />
<glyph unicode="&#x423;" glyph-name="uni0423" horiz-adv-x="645" d="M188 -5Q171 -5 158 -4T138 0L126 117Q132 115 145 113T174 110Q210 110 234 121T276 155L17 695H176L350 315L507 695H634L415 191Q393 141 371 104T322 43T263 7T188 -5Z" />
<glyph unicode="&#x424;" glyph-name="uni0424" horiz-adv-x="840" d="M345 76Q279 78 222 96T124 148T58 231T34 346Q34 412 58 461T123 545T222 597T345 618V703H493V618Q559 615 616 597T716 545T782 462T806 346Q806 281 782 232T716 148T617 96T493 76V-10H345V76ZM654
346Q654 393 642 426T608 481T557 512T493 524V169Q527 170 556 180T608 212T642 266T654 346ZM345 524Q311 523 282 513T231 481T197 427T185 346Q185 299 197 266T230 212T281 181T345 169V524Z" />
<glyph unicode="&#x425;" glyph-name="uni0425" horiz-adv-x="662" d="M312 265L149 0H14L243 359L29 695H199L354 451L504 695H639L424 357L653 0H480L312 265Z" />
<glyph unicode="&#x426;" glyph-name="uni0426" horiz-adv-x="761" d="M636 -181L615 0H67V695H218V99H500V695H650V99H746V-181H636Z" />
<glyph unicode="&#x427;" glyph-name="uni0427" horiz-adv-x="684" d="M466 0V298Q440 281 399 266T299 250Q177 250 115 312T53 498V695H204V499Q204 429 233 393T333 357Q358 357 380 362T420 373T449 386T466 396V695H617V0H466Z" />
<glyph unicode="&#x428;" glyph-name="uni0428" horiz-adv-x="957" d="M67 695H218V99H403V695H554V99H740V695H890V0H67V695Z" />
<glyph unicode="&#x429;" glyph-name="uni0429" horiz-adv-x="1007" d="M882 -181L861 0H67V695H218V99H407V695H557V99H747V695H897V99H992V-181H882Z" />
<glyph unicode="&#x42a;" glyph-name="uni042A" horiz-adv-x="759" d="M343 354V99H435Q498 99 532 129T567 228Q567 295 535 324T438 354H343ZM192 596H29V695H343V453H440Q576 453 650 401T724 233Q724 172 704 128T646 56T555 14T435 0H192V596Z" />
<glyph unicode="&#x42b;" glyph-name="uni042B" horiz-adv-x="878" d="M810 694V0H659V694H810ZM218 354V99H306Q369 99 403 129T438 228Q438 295 406 324T308 354H218ZM67 695H218V453H310Q447 453 521 401T595 233Q595 172 575 128T517 56T426 14T306 0H67V695Z" />
<glyph unicode="&#x42c;" glyph-name="uni042C" horiz-adv-x="630" d="M218 354V99H306Q369 99 403 129T438 228Q438 295 406 324T308 354H218ZM67 695H218V453H310Q447 453 521 401T595 233Q595 172 575 128T517 56T426 14T306 0H67V695Z" />
<glyph unicode="&#x42d;" glyph-name="uni042D" horiz-adv-x="630" d="M232 -10Q166 -10 117 2T41 33L60 140Q90 123 129 110T220 97Q311 97 362 148T425 297H165V396H426Q418 497 370 547T231 597Q185 597 148 584T80 549L47 654Q74 673 124 688T245 704Q323
704 386 680T495 611T564 501T589 352Q589 267 565 200T495 86T383 15T232 -10Z" />
<glyph unicode="&#x42e;" glyph-name="uni042E" horiz-adv-x="1009" d="M631 -10Q565 -10 508 9T406 67T334 163T299 297H218V0H67V695H218V396H300Q308 470 336 527T408 624T509 683T631 704Q701 704 762 682T869 614T941 503T968 350Q968 263 942 196T869 83T762
14T631 -10ZM633 92Q671 92 703 106T759 150T796 229T809 347Q809 416 796 464T759 543T703 588T632 603Q594 603 562 589T506 544T469 465T455 347Q455 278 468 230T505 151T561 106T633 92Z" />
<glyph unicode="&#x42f;" glyph-name="uni042F" horiz-adv-x="646" d="M427 330V596H365Q296 596 258 563T220 461Q220 401 254 366T360 330H427ZM427 231H338L188 0H21L201 263Q135 289 100 339T65 456Q65 575 145 635T363 695H578V0H427V231Z" />
<glyph unicode="&#x430;" glyph-name="uni0430" horiz-adv-x="538" d="M245 79Q281 79 302 96T336 140V232H296Q228 232 202 211T175 150Q175 114 194 97T245 79ZM356 0Q351 13 348 30T342 68Q333 54 320 40T290 15T250 -3T198 -10Q162 -10 131 -1T78 26T44 73T31
138Q31 212 95 257T293 303H336V331Q336 376 314 398T232 421Q188 421 156 407T93 370L51 471Q83 490 131 503T253 517Q363 517 422 475T482 336V81Q482 64 483 39T488 0H356Z" />
<glyph unicode="&#x431;" glyph-name="uni0431" horiz-adv-x="608" d="M308 -10Q251 -10 202 9T117 67T61 166T41 310Q41 366 46 417T64 513T99 594T158 656Q206 691 265 702T393 716Q420 717 438 719T469 724T491 730T511 739L526 627Q506 613 477 608T404 600Q338
595 295 588T222 554Q187 529 173 481T155 364Q178 428 227 461T348 494Q399 494 440 477T510 427T555 350T571 249Q571 187 551 139T495 58T412 8T308 -10ZM305 85Q356 85 388 124T420 244Q420 324 389 363T307 402Q258 402 225 363T192 244Q192 162 223 124T305
85Z" />
<glyph unicode="&#x432;" glyph-name="uni0432" horiz-adv-x="543" d="M202 427V296H255Q294 296 316 312T338 358Q338 395 318 411T259 427H202ZM202 223V80H261Q303 80 327 96T352 153Q352 191 330 207T261 223H202ZM61 507H287Q384 507 431 476T479 376Q479
330 454 303T385 264Q441 255 470 227T500 145Q500 72 443 36T285 0H61V507Z" />
<glyph unicode="&#x433;" glyph-name="uni0433" horiz-adv-x="426" d="M205 414V0H61V507H393V414H205Z" />
<glyph unicode="&#x434;" glyph-name="uni0434" horiz-adv-x="625" d="M205 126Q197 109 188 95H382V414H251Q247 311 237 241T205 126ZM477 0H141L119 -159H14V95H53Q84 120 100 166Q118 217 126 300T140 507H528V95H604V-159H499L477 0Z" />
<glyph unicode="&#x435;" glyph-name="uni0435" horiz-adv-x="545" d="M286 431Q245 431 219 400T184 307H372Q374 371 351 401T286 431ZM499 41Q476 24 429 7T314 -10Q245 -10 193 8T107 61T55 145T37 254Q37 315 55 363T106 446T184 498T286 517Q342 517 387
499T461 445T502 355T502 230H182Q189 158 226 124T330 89Q372 89 407 101T471 130L499 41Z" />
<glyph unicode="&#x436;" glyph-name="uni0436" horiz-adv-x="834" d="M342 246L184 0H25L202 260L35 507H175L342 250V507H488V253L661 507H794L630 275L809 0H646L488 250V0H342V246Z" />
<glyph unicode="&#x437;" glyph-name="uni0437" horiz-adv-x="503" d="M222 -10Q154 -10 109 4T44 33L78 129Q101 112 136 99T217 86Q261 86 287 102T313 155Q313 185 289 200T208 215H137V300H206Q297 300 297 358Q297 391 274 406T218 421Q166 421 133 407T75
378L51 475Q74 491 119 504T233 517Q333 517 387 483T441 385Q441 334 412 306T326 265Q392 257 426 229T460 145Q460 106 442 77T392 29T317 0T222 -10Z" />
<glyph unicode="&#x438;" glyph-name="uni0438" horiz-adv-x="622" d="M61 507H204V170L431 507H561V0H418V337L192 0H61V507Z" />
<glyph unicode="&#x439;" glyph-name="uni0439" horiz-adv-x="622" d="M313 550Q271 550 240 561T187 590T156 634T145 690H261Q261 657 272 640T313 622Q342 622 353 639T365 690H480Q480 660 470 635T438 591T386 561T313 550ZM61 507H204V170L431 507H561V0H418V337L192
0H61V507Z" />
<glyph unicode="&#x43a;" glyph-name="uni043A" horiz-adv-x="564" d="M207 263V0H61V507H207V265L405 507H535L354 284L549 0H384L207 263Z" />
<glyph unicode="&#x43b;" glyph-name="uni043B" horiz-adv-x="580" d="M227 134Q205 56 163 24T48 -1L28 114Q65 108 86 126T119 192Q130 240 134 316T138 507H519V0H373V414H253Q252 326 247 256T227 134Z" />
<glyph unicode="&#x43c;" glyph-name="uni043C" horiz-adv-x="717" d="M181 379L159 0H51L81 507H273L356 221L443 507H634L666 0H521L498 381L388 48H289L181 379Z" />
<glyph unicode="&#x43d;" glyph-name="uni043D" horiz-adv-x="604" d="M398 213H207V0H61V507H207V304H398V507H543V0H398V213Z" />
<glyph unicode="&#x43e;" glyph-name="uni043E" horiz-adv-x="612" d="M305 -10Q249 -10 200 7T115 58T58 141T37 254Q37 318 58 367T115 449T200 500T305 517Q361 517 410 500T496 450T554 367T575 254Q575 190 554 141T497 59T411 8T305 -10ZM305 85Q357 85
391 123T426 254Q426 345 392 383T305 422Q279 422 258 413T220 384T195 332T186 254Q186 208 195 176T220 124T257 94T305 85Z" />
<glyph unicode="&#x43f;" glyph-name="uni043F" horiz-adv-x="593" d="M386 414H207V0H61V507H532V0H386V414Z" />
<glyph unicode="&#x440;" glyph-name="uni0440" horiz-adv-x="620" d="M578 85Q629 85 661 125T694 254Q694 340 661 381T578 422Q527 422 493 382T458 254Q458 210 467 178T492 126T530 95T578 85ZM620 -10Q564 -10 525 13T459 78V-181H313V507H444L455 423Q480
467 521 492T622 517Q666 517 706 501T776 453T825 371T843 254Q843 187 825 138T776 55T705 6T620 -10Z" />
<glyph unicode="&#x441;" glyph-name="uni0441" horiz-adv-x="497" d="M304 -10Q247 -10 198 7T114 57T58 138T37 249Q37 311 58 361T116 445T204 498T316 517Q368 517 401 510T454 492L422 384Q398 401 376 411T315 421Q289 421 266 411T226 380T198 328T187
255Q187 170 224 128T328 86Q357 86 384 96T432 123L462 39Q443 22 404 6T304 -10Z" />
<glyph unicode="&#x442;" glyph-name="uni0442" horiz-adv-x="492" d="M319 406V0H172V406H31V507H461V406H319Z" />
<glyph unicode="&#x443;" glyph-name="uni0443" horiz-adv-x="568" d="M144 -188Q102 -188 79 -183T40 -170L57 -67Q64 -71 84 -78T136 -86Q188 -86 216 -31L14 507H163L298 127L433 507H554L370 18Q350 -36 328 -75T279 -139T219 -176T144 -188Z" />
<glyph unicode="&#x444;" glyph-name="uni0444" horiz-adv-x="773" d="M316 -187V-7Q255 -3 204 15T116 66T58 145T37 252Q37 313 58 359T116 437T204 488T316 511V713H459V511Q519 506 570 488T658 437T715 358T736 252Q736 191 715 145T658 66T570 16T459 -7V-187H316ZM182
252Q182 174 219 131T316 83V421Q258 415 220 373T182 252ZM591 252Q591 329 554 372T459 421V83Q516 89 553 132T591 252Z" />
<glyph unicode="&#x445;" glyph-name="uni0445" horiz-adv-x="549" d="M259 179L142 0H15L191 262L29 507H191L294 341L400 507H528L362 257L534 0H372L259 179Z" />
<glyph unicode="&#x446;" glyph-name="uni0446" horiz-adv-x="638" d="M511 -159L489 0H61V507H207V93H394V507H540V93H617V-159H511Z" />
<glyph unicode="&#x447;" glyph-name="uni0447" horiz-adv-x="579" d="M371 0V212Q364 206 352 198T323 182T283 169T231 164Q143 164 97 210T50 353V507H196V351Q196 305 217 286T283 266Q302 266 317 270T344 279T361 289T371 297V507H518V0H371Z" />
<glyph unicode="&#x448;" glyph-name="uni0448" horiz-adv-x="834" d="M61 507H207V93H344V507H490V93H628V507H773V0H61V507Z" />
<glyph unicode="&#x449;" glyph-name="uni0449" horiz-adv-x="865" d="M738 -159L716 0H61V507H207V93H341V507H487V93H621V507H767V93H843V-159H738Z" />
<glyph unicode="&#x44a;" glyph-name="uni044A" horiz-adv-x="634" d="M303 264V85H357Q402 85 428 105T454 174Q454 222 430 243T360 264H303ZM157 414H27V507H303V349H377Q484 349 542 306T601 178Q601 134 585 101T538 46T467 12T376 0H157V414Z" />
<glyph unicode="&#x44b;" glyph-name="uni044B" horiz-adv-x="762" d="M701 0H556V507H701V0ZM207 264V85H259Q303 85 329 105T356 174Q356 222 332 243T262 264H207ZM61 507H207V349H279Q385 349 444 306T503 178Q503 134 486 101T439 46T368 12T277 0H61V507Z" />
<glyph unicode="&#x44c;" glyph-name="uni044C" horiz-adv-x="537" d="M205 264V85H260Q304 85 330 105T357 174Q357 222 333 243T263 264H205ZM60 507H205V349H280Q386 349 445 306T504 178Q504 134 488 101T441 46T370 12T279 0H60V507Z" />
<glyph unicode="&#x44d;" glyph-name="uni044D" horiz-adv-x="500" d="M186 -10Q132 -10 95 0T32 24L60 129Q82 114 108 102T168 89Q231 89 269 120T315 216H136V301H313Q303 361 268 389T175 418Q140 418 113 408T64 381L38 472Q60 489 98 503T195 517Q256 517
305 499T390 448T444 365T463 253Q463 191 444 142T388 59T301 8T186 -10Z" />
<glyph unicode="&#x44e;" glyph-name="uni044E" horiz-adv-x="809" d="M517 -10Q469 -10 426 4T350 47T296 116T268 210H207V0H61V507H207V303H268Q275 355 297 395T352 462T427 503T517 517Q572 517 619 500T700 450T755 367T775 254Q775 190 755 141T701 59T619
8T517 -10ZM517 93Q566 93 595 133T625 254Q625 335 596 374T517 414Q469 414 440 375T411 254Q411 173 440 133T517 93Z" />
<glyph unicode="&#x44f;" glyph-name="uni044F" horiz-adv-x="546" d="M339 242V422H298Q256 422 229 401T201 335Q201 290 228 266T308 242H339ZM339 159H283L177 0H25L158 191Q113 206 84 239T54 327Q54 413 115 460T289 507H485V0H339V159Z" />
<glyph unicode="&#x451;" glyph-name="uni0451" horiz-adv-x="545" d="M286 431Q245 431 219 400T184 307H372Q374 371 351 401T286 431ZM499 41Q476 24 429 7T314 -10Q245 -10 193 8T107 61T55 145T37 254Q37 315 55 363T106 446T184 498T286 517Q342 517 387
499T461 445T502 355T502 230H182Q189 158 226 124T330 89Q372 89 407 101T471 130L499 41ZM405 565Q372 565 351 585T329 638Q329 672 350 691T405 711Q437 711 459 692T482 638Q482 605 460 585T405 565ZM183 565Q151 565 129 585T107 638Q107 672 129 691T183
711Q216 711 238 692T261 638Q261 605 239 585T183 565Z" />
<glyph unicode="&#x452;" glyph-name="uni0452" horiz-adv-x="602" d="M547 49Q547 -17 531 -63T486 -138T413 -181T316 -196L294 -94Q322 -93 342 -87T376 -67T395 -30T402 30V339Q402 381 380 397T322 413Q279 413 252 394T207 346V0H61V553H-5V630H61V695H207V630H330V553H207V436H209Q231
471 272 494T375 517Q453 517 500 477T547 351V49V49Z" />
<glyph unicode="&#x453;" glyph-name="uni0453" horiz-adv-x="426" d="M205 414V0H61V507H393V414H205ZM242 715H392L286 566H183L242 715Z" />
<glyph unicode="&#x454;" glyph-name="uni0454" horiz-adv-x="497" d="M453 34Q431 17 394 4T301 -10Q240 -10 192 8T109 59T56 142T37 254Q37 316 56 365T109 447T193 499T304 517Q358 517 396 507T455 481L429 378Q407 393 381 405T322 418Q208 418 190 301H368V216H189Q204
89 321 89Q353 89 380 99T429 126L453 34V34Z" />
<glyph unicode="&#x455;" glyph-name="uni0455" horiz-adv-x="492" d="M233 -10Q161 -10 113 4T38 40L61 135Q87 114 131 99T232 84Q327 84 327 142Q327 161 318 171T292 188T254 198T208 205Q178 210 149 218T97 243T60 285T45 354Q45 435 100 476T263 517Q327
517 367 505T427 481L400 389Q383 401 347 413T266 426Q224 426 197 414T170 373Q170 356 178 347T201 332T234 324T274 318Q305 313 338 305T398 280T443 234T461 158Q461 109 442 77T392 26T319 -2T233 -10Z" />
<glyph unicode="&#x456;" glyph-name="uni0456" horiz-adv-x="268" d="M134 565Q98 565 74 586T49 642Q49 677 73 698T134 720Q169 720 194 699T219 642Q219 607 194 586T134 565ZM207 507V0H61V507H207Z" />
<glyph unicode="&#x457;" glyph-name="uni0457" horiz-adv-x="268" d="M230 565Q197 565 176 585T154 638Q154 672 175 691T230 711Q262 711 284 692T307 638Q307 605 285 585T230 565ZM42 565Q10 565 -12 585T-34 638Q-34 672 -12 691T42 711Q75 711 97 692T119
638Q119 605 97 585T42 565ZM207 507V0H61V507H207Z" />
<glyph unicode="&#x458;" glyph-name="uni0458" horiz-adv-x="267" d="M132 565Q96 565 72 586T48 642Q48 677 72 698T132 720Q168 720 192 699T217 642Q217 607 193 586T132 565ZM206 49Q206 -17 190 -63T145 -138T72 -181T-25 -196L-47 -94Q-19 -93 1 -87T35
-67T54 -30T61 30V507H206V49Z" />
<glyph unicode="&#x459;" glyph-name="uni0459" horiz-adv-x="860" d="M227 134Q205 56 163 24T48 -1L28 114Q65 108 86 126T119 192Q130 240 134 316T138 507H519V349H603Q709 349 768 306T827 178Q827 134 810 101T763 46T692 12T601 0H373V414H253Q252 326
247 256T227 134ZM589 93Q630 93 654 111T679 174Q679 218 657 237T592 256H519V93H589Z" />
<glyph unicode="&#x45a;" glyph-name="uni045A" horiz-adv-x="876" d="M398 233H207V0H61V507H207V324H398V507H543V325H619Q725 325 784 285T843 166Q843 125 827 94T780 42T709 11T618 0H398V233ZM543 232V93H606Q646 93 671 108T696 162Q696 200 673 216T608 232H543Z" />
<glyph unicode="&#x45b;" glyph-name="uni045B" horiz-adv-x="607" d="M212 0H66V556H-3V630H66V725H212V630H332V556H212V437H214Q236 472 277 494T380 517Q458 517 505 477T552 351V0H407V339Q407 381 386 397T327 413Q284 413 257 394T212 346V0Z" />
<glyph unicode="&#x45c;" glyph-name="uni045C" horiz-adv-x="564" d="M207 263V0H61V507H207V265L405 507H535L354 284L549 0H384L207 263ZM301 715H451L345 566H242L301 715Z" />
<glyph unicode="&#x45e;" glyph-name="uni045E" horiz-adv-x="568" d="M298 550Q256 550 225 561T172 590T141 634T131 690H246Q246 626 298 626Q322 626 336 641T350 690H464Q464 660 454 635T423 591T371 561T298 550ZM144 -188Q102 -188 79 -183T40 -170L57
-67Q64 -71 84 -78T136 -86Q188 -86 216 -31L14 507H163L298 127L433 507H554L370 18Q350 -36 328 -75T279 -139T219 -176T144 -188Z" />
<glyph unicode="&#x45f;" glyph-name="uni045F" horiz-adv-x="617" d="M364 0L352 -159H246L234 0H61V507H207V93H394V507H540V0H364Z" />
<glyph unicode="&#x490;" glyph-name="uni0490" horiz-adv-x="524" d="M218 596V0H67V695H360L372 869H486V596H218Z" />
<glyph unicode="&#x491;" glyph-name="uni0491" horiz-adv-x="426" d="M205 414V0H61V507H272L288 671H393V414H205Z" />
<glyph unicode="&#x492;" glyph-name="uni0492" horiz-adv-x="593" d="M31 399H118V695H535V596H269V399H432V308H269V0H118V308H31V399Z" />
<glyph unicode="&#x493;" glyph-name="uni0493" horiz-adv-x="474" d="M23 291H91V507H423V414H235V291H361V203H235V0H91V203H23V291Z" />
<glyph unicode="&#x49a;" glyph-name="uni049A" horiz-adv-x="716" d="M487 0L229 341L505 695H644L388 367L574 120H682V-181H572L556 0H487ZM223 695V0H67V695H223Z" />
<glyph unicode="&#x49b;" glyph-name="uni049B" horiz-adv-x="592" d="M207 263V0H61V507H207V265L405 507H535L354 284L472 112H571V-159H465L448 0H384L207 263Z" />
<glyph unicode="&#x4a2;" glyph-name="uni04A2" horiz-adv-x="772" d="M504 296H223V0H67V695H223V396H504V695H660V120H757V-181H647L631 0H504V296Z" />
<glyph unicode="&#x4a3;" glyph-name="uni04A3" horiz-adv-x="639" d="M398 213H207V0H61V507H207V304H398V507H543V112H618V-159H512L495 0H398V213Z" />
<glyph unicode="&#x4ae;" glyph-name="uni04AE" horiz-adv-x="649" d="M247 0V284L13 695H179L342 397L508 695H636L403 284V0H247Z" />
<glyph unicode="&#x4af;" glyph-name="uni04AF" horiz-adv-x="558" d="M204 -187V4L14 507H163L295 142L427 507H544L349 -5V-187H204Z" />
<glyph unicode="&#x4b0;" glyph-name="uni04B0" horiz-adv-x="649" d="M247 0V214H97V305H235L13 695H179L342 397L508 695H636L415 305H553V214H403V0H247Z" />
<glyph unicode="&#x4b1;" glyph-name="uni04B1" horiz-adv-x="558" d="M204 -187V-86H84V0H204V4L14 507H163L295 142L427 507H544L351 0H469V-86H349V-187H204Z" />
<glyph unicode="&#x4ba;" glyph-name="uni04BA" horiz-adv-x="694" d="M228 695V397Q254 414 295 429T395 445Q517 445 579 383T641 197V0H490V196Q490 266 461 302T361 338Q336 338 314 333T274 322T245 309T228 299V0H77V695H228Z" />
<glyph unicode="&#x4bb;" glyph-name="uni04BB" horiz-adv-x="604" d="M207 0H61V725H207V437H209Q231 472 272 494T375 517Q453 517 500 477T547 351V0H402V339Q402 381 381 397T322 413Q279 413 252 394T207 346V0Z" />
<glyph unicode="&#x4d8;" glyph-name="uni04D8" horiz-adv-x="730" d="M355 -11Q203 -11 122 74T41 338V398H531Q522 494 472 545T313 597Q248 597 203 581T126 545L91 651Q105 659 126 668T176 686T242 699T326 704Q414 704 482 679T596 608T665 495T689 347Q689
265 667 199T601 86T496 14T355 -11ZM356 92Q440 92 481 145T531 300H188Q192 188 231 140T356 92Z" />
<glyph unicode="&#x4d9;" glyph-name="uni04D9" horiz-adv-x="540" d="M257 72Q298 72 324 103T359 196H171Q169 132 192 102T257 72ZM44 462Q67 479 114 496T229 513Q298 513 350 495T436 442T488 358T506 249Q506 188 488 140T437 57T359 5T257 -14Q201 -14
156 4T82 58T41 148T41 273H361Q354 345 317 379T213 414Q171 414 136 402T72 373L44 462Z" />
<glyph unicode="&#x4e8;" glyph-name="uni04E8" horiz-adv-x="785" d="M392 -10Q318 -10 254 12T143 79T68 190T41 345Q41 433 68 500T143 613T254 681T392 704Q465 704 529 681T641 614T716 503T744 350Q744 264 717 197T642 84T530 14T392 -10ZM392 602Q354
602 322 591T265 555T224 493T202 400H582Q577 454 561 492T519 555T462 590T392 602ZM392 92Q430 92 462 103T520 140T562 205T583 301H202Q207 245 223 205T264 140T321 104T392 92Z" />
<glyph unicode="&#x4e9;" glyph-name="uni04E9" horiz-adv-x="605" d="M301 -10Q245 -10 196 7T111 58T54 141T33 254Q33 318 54 367T111 449T196 500T301 517Q358 517 407 500T492 450T550 367T571 254Q571 190 550 141T493 59T407 8T301 -10ZM301 422Q256 422
222 393T179 297H425Q416 364 382 393T301 422ZM301 85Q349 85 383 116T426 219H178Q186 147 220 116T301 85Z" />
</font>
</defs>
</svg>
