<?xml version="1.0" standalone="no"?> <!DOCTYPE svg PUBLIC "-//W3C//DTD SVG 1.0//EN" "http://www.w3.org/TR/2001/REC-SVG-20010904/DTD/svg10.dtd" > <svg xmlns="http://www.w3.org/2000/svg" width="100%" height="100%">
<defs >
<font id="Yandex" horiz-adv-x="509" ><font-face
    font-family="Yandex Sans Display"
    units-per-em="1000"
    panose-1="0 0 0 0 0 0 0 0 0 0"
    ascent="950"
    descent="-250"
    alphabetic="0" />
<missing-glyph horiz-adv-x="216" />
<glyph unicode=" " glyph-name="space" horiz-adv-x="216" />
<glyph unicode="!" glyph-name="exclam" horiz-adv-x="243" d="M141 683L134 163H107L100 683H141ZM121 -2Q107 -2 98 7T89 30Q89 44 98 53T121 63Q136 63 145 54T154 30Q154 17 145 8T121 -2Z" />
<glyph unicode="&quot;" glyph-name="quotedbl" horiz-adv-x="314" d="M72 695H114L107 531H79L72 695ZM201 695H243L236 531H208L201 695Z" />
<glyph unicode="#" glyph-name="numbersign" horiz-adv-x="634" d="M423 466H240L213 248H396L423 466ZM392 218H209L182 0H152L179 218H38V248H183L210 466H64V496H213L238 695H269L244 496H426L451 695H482L457 496H596V466H454L427 248H570V218H423L396 0H365L392
218Z" />
<glyph unicode="$" glyph-name="dollar" horiz-adv-x="540" d="M90 525Q90 490 103 467T138 427T191 399T256 379V673Q178 668 134 631T90 525ZM456 177Q456 213 444 238T410 281T357 311T287 334V22Q321 24 351 33T405 62T442 109T456 177ZM256 -117V-10Q209
-9 173 -2T110 14T66 34T39 52L46 87Q56 79 74 68T119 47T179 30T256 21V343Q218 353 182 365T117 397T71 447T53 524Q53 607 106 653T256 704V804H287V704Q353 702 394 691T461 665L456 631Q429 647 388 659T287 673V370Q322 361 359 350T426 317T475 263T495
179Q495 129 478 94T432 37T365 3T287 -10V-117H256Z" />
<glyph unicode="%" glyph-name="percent" horiz-adv-x="770" d="M164 -10L572 704H605L197 -10H164ZM324 515Q324 471 313 437T281 379T234 343T177 331Q147 331 121 342T75 376T44 433T32 511Q32 556 43 590T75 647T121 683T177 695Q207 695 233 684T280 649T312
593T324 515ZM66 513Q66 433 98 396T177 358Q223 358 256 395T289 513Q289 553 280 582T256 631T221 659T177 668Q130 668 98 631T66 513ZM737 183Q737 139 726 105T695 47T649 12T593 0Q563 0 536 11T490 45T459 102T447 180Q447 224 458 258T489 316T536 352T593
364Q622 364 648 353T694 318T725 261T737 183ZM593 337Q545 337 513 300T481 181Q481 102 513 65T593 27Q639 27 672 64T705 181Q705 261 672 299T593 337Z" />
<glyph unicode="&amp;" glyph-name="ampersand" horiz-adv-x="663" d="M145 542Q145 516 153 494T175 451T204 412T237 375Q278 392 310 409T364 447T399 491T411 547Q411 571 404 593T381 634T341 663T282 674Q247 674 222 662T179 632T154 590T145 542ZM254
20Q310 20 354 43T432 104Q415 124 398 145T362 187L226 340Q195 328 169 313T122 278T91 232T79 172Q79 141 89 114T120 65T175 32T254 20ZM608 -8Q560 -8 524 17T452 82Q414 41 364 16T251 -10Q196 -10 156 4T91 43T53 101T40 171Q40 210 53 240T89 293T142 334T205
363Q189 381 172 400T141 441T117 488T108 542Q108 574 119 603T153 655T207 691T282 704Q324 704 355 692T407 657T438 607T448 547Q448 509 432 480T390 427T329 386T258 353L382 213Q399 193 416 172T453 129Q475 158 493 191T524 259T545 328T559 392L590 381Q586
353 577 319T554 248T520 175T473 106Q505 71 539 48T613 24Q630 24 642 26T663 31L668 3Q661 0 646 -4T608 -8Z" />
<glyph unicode="&apos;" glyph-name="quotesingle" horiz-adv-x="186" d="M72 695H114L107 531H79L72 695Z" />
<glyph unicode="(" glyph-name="parenleft" horiz-adv-x="294" d="M227 -135Q149 -49 113 62T76 298Q76 359 85 420T113 538T160 644T227 733H259Q224 694 197 645T150 540T122 423T112 301Q112 177 150 65T259 -135H227Z" />
<glyph unicode=")" glyph-name="parenright" horiz-adv-x="294" d="M74 -135Q152 -49 188 62T225 298Q225 359 216 420T188 538T141 644T74 733H42Q77 694 104 645T151 540T179 423T189 301Q189 177 151 65T42 -135H74Z" />
<glyph unicode="*" glyph-name="asterisk" horiz-adv-x="398" d="M200 515L119 390L89 412L180 530L44 568L55 602L187 553L181 695H217L211 553L343 602L354 568L218 531L309 412L281 390L200 515Z" />
<glyph unicode="+" glyph-name="plus" horiz-adv-x="511" d="M274 316V96H238V316H44V345H238V565H274V345H468V316H274Z" />
<glyph unicode="," glyph-name="comma" horiz-adv-x="188" d="M51 -93Q68 -72 79 -46T93 1Q79 2 71 11T63 33Q63 47 72 56T97 66Q111 66 121 56T131 27Q131 11 127 -6T115 -39T100 -70T84 -93H51Z" />
<glyph unicode="-" glyph-name="hyphen" horiz-adv-x="345" d="M56 308H289V275H56V308Z" />
<glyph unicode="." glyph-name="period" horiz-adv-x="187" d="M93 -2Q77 -2 68 8T59 33Q59 47 68 56T93 66Q109 66 118 57T128 33Q128 19 119 9T93 -2Z" />
<glyph unicode="/" glyph-name="slash" horiz-adv-x="341" d="M-1 -116L309 733H342L31 -116H-1Z" />
<glyph unicode="0" glyph-name="zero" horiz-adv-x="637" d="M319 -10Q261 -10 213 13T129 81T75 193T55 348Q55 436 74 502T129 614T212 681T319 704Q377 704 425 682T508 615T562 504T582 350Q582 263 563 196T509 83T426 14T319 -10ZM318 19Q367 19 408 39T480
99T526 201T543 347Q543 432 527 494T481 596T410 656T319 675Q269 675 228 656T157 597T111 494T94 347Q94 263 110 202T156 100T227 39T318 19Z" />
<glyph unicode="1" glyph-name="one" horiz-adv-x="340" d="M209 0V651L43 512V551L215 695H247V0H209Z" />
<glyph unicode="2" glyph-name="two" horiz-adv-x="532" d="M42 0V28Q156 121 230 188T349 309T412 408T430 500Q430 535 420 566T386 622T325 660T236 674Q185 674 140 659T64 618L56 651Q85 671 132 687T239 704Q299 704 342 689T413 646T455 582T469 502Q469
451 450 403T387 300T271 181T93 30H476V0H42Z" />
<glyph unicode="3" glyph-name="three" horiz-adv-x="514" d="M233 -10Q160 -10 109 7T29 46L37 77Q66 55 113 38T232 20Q282 20 319 33T380 69T415 123T427 189Q427 264 378 307T241 350H147V381H246Q318 381 360 419T402 526Q402 555 393 582T362 629T308 662T226
674Q172 674 130 661T52 620L47 654Q76 674 123 689T230 704Q280 704 319 691T385 655T426 599T440 528Q440 492 429 464T398 417T356 385T307 367Q338 362 367 349T418 314T453 261T466 189Q466 145 449 109T401 46T328 5T233 -10Z" />
<glyph unicode="4" glyph-name="four" horiz-adv-x="566" d="M392 638L68 206H392V638ZM429 176V0H392V176H29V204L397 695H429V206H534V176H429Z" />
<glyph unicode="5" glyph-name="five" horiz-adv-x="515" d="M227 -10Q200 -10 174 -7T124 4T80 20T47 40L56 70Q85 49 127 35T223 20Q279 20 319 35T386 76T425 139T438 218Q438 266 425 300T386 356T327 388T252 399Q223 399 201 394T161 383T131 369T110 356H79V695H449V665H115V388Q132
400 167 415T261 430Q306 430 345 418T414 379T460 312T477 218Q477 169 461 127T413 55T335 7T227 -10Z" />
<glyph unicode="6" glyph-name="six" horiz-adv-x="563" d="M286 -10Q236 -10 193 6T117 54T67 136T48 254Q48 333 78 402T155 528T261 626T376 695H424V689Q362 660 307 622T208 537T134 438T92 327Q124 383 176 415T301 447Q348 447 388 432T457 389T504 318T521
221Q521 168 503 126T453 53T378 7T286 -10ZM286 19Q327 19 362 32T424 71T466 134T482 221Q482 317 431 368T296 419Q231 419 179 387T89 286Q87 278 87 270T87 254Q87 192 103 148T146 75T209 33T286 19Z" />
<glyph unicode="7" glyph-name="seven" horiz-adv-x="516" d="M122 0L440 663H49V695H480V667L163 0H122Z" />
<glyph unicode="8" glyph-name="eight" horiz-adv-x="555" d="M278 -10Q228 -10 186 3T112 42T64 104T46 187Q46 263 93 310T218 371Q154 384 113 424T71 531Q71 573 86 605T130 659T196 692T279 704Q322 704 360 693T425 661T469 607T485 533Q485 499 474 472T444
425T398 391T340 371Q377 365 408 350T461 313T496 260T509 190Q509 143 492 106T443 43T370 4T278 -10ZM279 386Q313 386 343 395T397 422T434 466T448 528Q448 564 435 591T400 637T346 665T279 675Q243 675 212 666T157 638T121 592T108 528Q108 493 122 467T159
422T213 395T279 386ZM278 19Q320 19 355 31T416 66T456 121T470 193Q470 231 456 261T415 313T354 345T279 356Q237 356 202 345T140 313T100 262T85 193Q85 154 99 122T138 67T198 32T278 19Z" />
<glyph unicode="9" glyph-name="nine" horiz-adv-x="563" d="M157 6Q221 37 275 76T370 162T437 260T473 368Q441 314 389 281T264 247Q216 247 176 262T106 306T59 376T42 472Q42 524 60 567T110 640T185 687T279 704Q324 704 367 689T443 641T496 559T516 441Q516
361 489 292T419 167T319 69T205 0H157V6ZM278 675Q236 675 200 662T137 623T95 559T80 473Q80 426 94 389T132 327T192 289T269 276Q334 276 386 308T476 410Q477 418 477 425T477 441Q477 502 462 546T420 618T357 661T278 675Z" />
<glyph unicode=":" glyph-name="colon" horiz-adv-x="187" d="M93 370Q77 370 68 380T59 405Q59 419 68 428T93 438Q109 438 118 429T128 405Q128 391 119 381T93 370ZM93 -2Q77 -2 68 8T59 33Q59 47 68 56T93 66Q109 66 118 57T128 33Q128 19 119 9T93 -2Z" />
<glyph unicode=";" glyph-name="semicolon" horiz-adv-x="189" d="M51 -93Q68 -72 79 -46T93 1Q79 2 71 11T63 33Q63 47 72 56T97 66Q111 66 121 56T131 27Q131 11 127 -6T115 -39T100 -70T84 -93H51ZM93 370Q77 370 68 380T59 405Q59 419 68 428T93 438Q109 438
118 429T128 405Q128 391 119 381T93 370Z" />
<glyph unicode="&lt;" glyph-name="less" horiz-adv-x="466" d="M44 306V348L423 534V500L72 327L423 153V119L44 306Z" />
<glyph unicode="=" glyph-name="equal" horiz-adv-x="512" d="M44 416V445H468V416H44ZM44 208V238H468V208H44Z" />
<glyph unicode="&gt;" glyph-name="greater" horiz-adv-x="466" d="M44 153L394 327L44 500V534L423 347V305L44 119V153Z" />
<glyph unicode="?" glyph-name="question" horiz-adv-x="463" d="M402 537Q402 501 394 475T371 427T338 389T298 356Q273 337 250 320T209 283T181 240T170 185V163H138V186Q138 222 149 248T179 297T223 339T275 380Q294 395 310 410T338 443T357 484T364 537Q364
560 356 584T330 628T281 660T204 673Q156 673 119 659T62 628L55 663Q76 678 115 691T208 704Q256 704 292 692T353 657T390 604T402 537ZM157 -2Q142 -2 134 7T125 30Q125 44 133 53T157 63Q171 63 180 54T189 30Q189 17 180 8T157 -2Z" />
<glyph unicode="@" glyph-name="at" horiz-adv-x="989" d="M506 -166Q409 -166 325 -140T179 -62T81 67T45 245Q45 346 80 430T179 575T329 670T519 704Q607 704 684 679T819 605T910 487T944 326Q944 269 931 220T893 133T830 75T744 54Q712 54 689 63T650 89T625
126T613 171Q590 113 547 84T448 54Q416 54 386 64T334 98T298 156T284 243Q284 293 298 337T338 415T402 468T487 488Q606 488 630 362L655 462H681L647 234Q643 207 645 180T659 131T692 95T748 81Q782 81 812 98T864 146T898 221T911 322Q911 406 880 472T796
583T671 653T517 678Q421 678 341 646T202 557T111 421T78 248Q78 152 110 80T201 -41T337 -114T507 -139Q546 -139 581 -135T645 -125T695 -112T730 -97L735 -125Q721 -132 698 -139T644 -153T579 -162T506 -166ZM323 240Q323 197 334 167T365 118T407 90T455
81Q494 81 524 99T574 149T605 219T615 299Q615 376 580 418T491 460Q449 460 418 441T365 390T334 320T323 240Z" />
<glyph unicode="A" glyph-name="A" horiz-adv-x="589" d="M291 667L147 263H436L291 667ZM447 233H137L54 0H18L266 695H322L572 0H531L447 233Z" />
<glyph unicode="B" glyph-name="B" horiz-adv-x="569" d="M127 665V373H248Q291 373 327 381T388 408T428 455T442 525Q442 600 397 632T262 665H127ZM127 343V30H272Q318 30 356 39T421 67T462 118T477 193Q477 271 430 307T282 343H127ZM88 695H262Q371 695
426 655T481 527Q481 453 443 414T338 361Q429 356 473 316T518 194Q518 142 500 105T450 45T372 11T272 0H88V695Z" />
<glyph unicode="C" glyph-name="C" horiz-adv-x="625" d="M364 -10Q294 -10 237 14T138 85T73 197T50 347Q50 431 73 497T138 609T239 679T370 704Q443 704 493 684T574 638L566 604Q530 633 480 653T372 673Q307 673 255 651T167 586T112 484T92 347Q92 270 111
210T165 107T251 43T365 21Q424 21 476 39T564 90L574 58Q545 32 493 11T364 -10Z" />
<glyph unicode="D" glyph-name="D" horiz-adv-x="679" d="M127 665V30H306Q365 30 416 51T504 113T563 218T584 365Q584 449 563 506T506 599T421 650T317 665H127ZM88 695H316Q380 695 436 678T535 622T601 520T626 366Q626 274 602 206T534 92T433 23T305 0H88V695Z" />
<glyph unicode="E" glyph-name="E" horiz-adv-x="527" d="M88 695H471V665H127V383H430V353H127V30H476V0H88V695Z" />
<glyph unicode="F" glyph-name="F" horiz-adv-x="523" d="M127 334V0H88V695H466V665H127V364H425V334H127Z" />
<glyph unicode="G" glyph-name="G" horiz-adv-x="721" d="M664 267Q664 204 646 153T591 65T503 10T384 -10Q313 -10 252 14T147 84T78 196T53 347Q53 431 77 497T146 610T254 680T395 704Q478 704 535 685T624 642L615 605Q581 635 527 654T397 673Q327 673 271
651T176 588T116 486T95 347Q95 270 116 209T176 106T268 42T384 20Q442 20 486 37T562 86T609 163T625 264V320H363V350H664V267V267Z" />
<glyph unicode="H" glyph-name="H" horiz-adv-x="692" d="M565 330H127V0H88V695H127V360H565V695H604V0H565V330Z" />
<glyph unicode="I" glyph-name="I" horiz-adv-x="215" d="M127 695V0H88V695H127Z" />
<glyph unicode="J" glyph-name="J" horiz-adv-x="336" d="M253 695V133Q253 102 246 76T223 31T182 1T121 -10Q95 -10 72 -5T34 11L40 41Q55 33 74 28T116 22Q172 22 193 53T214 137V695H253Z" />
<glyph unicode="K" glyph-name="K" horiz-adv-x="596" d="M517 0L165 349L507 695H550L211 353L567 0H517ZM127 695V0H88V695H127Z" />
<glyph unicode="L" glyph-name="L" horiz-adv-x="517" d="M88 695H127V30H467V0H88V695Z" />
<glyph unicode="M" glyph-name="M" horiz-adv-x="805" d="M145 648L111 0H77L113 695H164L401 147L639 695H692L728 0H689L655 648L419 106L399 105H380L145 648Z" />
<glyph unicode="N" glyph-name="N" horiz-adv-x="697" d="M122 656V0H88V695H141L575 47V695H610V0H561L122 656Z" />
<glyph unicode="O" glyph-name="O" horiz-adv-x="748" d="M374 -10Q304 -10 245 14T143 85T75 199T50 350Q50 435 74 501T142 612T245 680T374 704Q444 704 503 681T606 612T673 500T698 350Q698 266 674 199T606 86T504 15T374 -10ZM374 20Q435 20 487 41T577
103T636 205T657 347Q657 427 636 488T577 590T487 653T374 674Q312 674 261 653T171 591T112 488T91 347Q91 267 112 206T171 103T260 41T374 20Z" />
<glyph unicode="P" glyph-name="P" horiz-adv-x="565" d="M127 665V327H280Q374 327 427 367T481 503Q481 586 432 625T290 665H127ZM127 297V0H88V695H290Q399 695 459 649T520 504Q520 449 503 410T455 346T380 309T280 297H127Z" />
<glyph unicode="Q" glyph-name="Q" horiz-adv-x="755" d="M689 -120Q612 -107 551 -91T440 -57T347 -23T264 8Q219 24 180 53T113 124T69 222T53 348Q53 433 77 499T145 610T248 680T377 704Q447 704 506 681T609 612T677 500T702 350Q702 270 680 206T617 95T516
22T383 -8Q419 -21 454 -32T527 -52T608 -70T704 -85L689 -120ZM377 20Q439 20 491 41T580 103T639 206T660 347Q660 427 639 488T581 590T491 653T377 674Q316 674 264 653T175 591T116 488T95 347Q95 267 116 206T174 104T264 41T377 20Z" />
<glyph unicode="R" glyph-name="R" horiz-adv-x="595" d="M127 665V337H285Q329 337 367 346T432 376T475 428T491 508Q491 589 440 627T300 665H127ZM127 307V0H88V695H300Q407 695 469 650T531 509Q531 464 519 430T483 372T429 334T358 313L551 0H507L317 308Q309
307 301 307T285 307H127Z" />
<glyph unicode="S" glyph-name="S" horiz-adv-x="540" d="M259 -10Q211 -10 174 -4T110 12T66 33T39 52L45 86Q56 77 75 66T121 45T182 28T258 21Q299 21 335 29T397 57T439 105T455 177Q455 216 441 242T400 286T338 316T257 340Q218 350 182 362T117 395T71
446T53 524Q53 611 113 657T286 704Q354 704 394 692T461 665L457 632Q428 649 386 661T286 673Q192 673 142 636T91 525Q91 489 105 465T142 424T198 396T266 376Q302 366 342 355T417 323T473 268T495 179Q495 127 476 91T424 33T348 0T259 -10Z" />
<glyph unicode="T" glyph-name="T" horiz-adv-x="539" d="M290 665V0H250V665H28V695H511V665H290Z" />
<glyph unicode="U" glyph-name="U" horiz-adv-x="665" d="M73 695H113V240Q113 184 129 143T175 75T245 35T335 21Q381 21 421 34T492 75T539 143T556 242V695H592V243Q592 181 572 134T518 55T436 7T334 -10Q277 -10 230 5T147 52T93 130T73 240V695Z" />
<glyph unicode="V" glyph-name="V" horiz-adv-x="573" d="M17 695H58L289 29L519 695H556L316 0H258L17 695Z" />
<glyph unicode="W" glyph-name="W" horiz-adv-x="907" d="M41 695H82L249 37L434 695H480L665 39L831 695H866L691 0H636L454 646L272 0H217L41 695Z" />
<glyph unicode="X" glyph-name="X" horiz-adv-x="597" d="M294 327L71 0H29L272 356L38 695H83L301 384L519 695H560L322 355L569 0H522L294 327Z" />
<glyph unicode="Y" glyph-name="Y" horiz-adv-x="568" d="M265 0V303L18 695H63L287 337L511 695H550L305 303V0H265Z" />
<glyph unicode="Z" glyph-name="Z" horiz-adv-x="561" d="M46 0V28L469 665H56V695H514V667L91 30H515V0H46Z" />
<glyph unicode="[" glyph-name="bracketleft" horiz-adv-x="343" d="M96 733H319V705H132V-107H319V-135H96V733Z" />
<glyph unicode="\" glyph-name="backslash" horiz-adv-x="336" d="M-1 733H31L342 -116H309L-1 733Z" />
<glyph unicode="]" glyph-name="bracketright" horiz-adv-x="343" d="M225 733H2V705H189V-107H2V-135H225V733Z" />
<glyph unicode="^" glyph-name="asciicircum" horiz-adv-x="447" d="M224 670L71 444H42L202 695H246L405 444H375L224 670Z" />
<glyph unicode="_" glyph-name="underscore" horiz-adv-x="380" d="M5 -75H375V-104H5V-75Z" />
<glyph unicode="`" glyph-name="grave" horiz-adv-x="445" d="M251 579L156 715H203L282 579H251Z" />
<glyph unicode="a" glyph-name="a" horiz-adv-x="499" d="M221 19Q258 19 285 31T332 61T363 99T383 137V266H287Q184 266 136 235T87 139Q87 81 121 50T221 19ZM395 0Q390 16 387 39T384 94Q375 76 362 58T328 24T281 0T216 -10Q139 -10 95 28T50 138Q50 214
109 253T284 292H383V353Q383 421 349 452T244 483Q191 483 153 469T87 432L72 463Q95 479 139 496T247 513Q330 513 375 475T420 357V95Q420 67 422 42T429 0H395Z" />
<glyph unicode="b" glyph-name="b" horiz-adv-x="584" d="M313 -10Q243 -10 193 26T118 129L113 0H82V725H119V377Q144 442 194 477T314 513Q361 513 402 496T473 446T521 364T539 252Q539 189 522 140T474 58T402 8T313 -10ZM310 18Q351 18 386 33T446 77T486
151T501 252Q501 309 487 353T447 426T386 470T310 485Q269 485 234 470T174 426T134 353T119 252Q119 195 133 151T173 78T234 33T310 18Z" />
<glyph unicode="c" glyph-name="c" horiz-adv-x="488" d="M291 -10Q237 -10 193 7T117 59T68 141T50 251Q50 313 68 361T120 444T197 495T294 513Q339 513 379 505T446 477L434 443Q405 466 373 475T294 485Q249 485 211 469T146 423T103 350T87 251Q87 197 102
154T144 80T208 34T291 18Q333 18 365 28T427 57L439 32Q413 15 377 3T291 -10Z" />
<glyph unicode="d" glyph-name="d" horiz-adv-x="589" d="M279 18Q320 18 355 33T416 78T456 151T471 252Q471 309 457 352T417 425T356 470T279 485Q238 485 203 470T142 426T102 353T87 252Q87 195 101 152T141 79T202 34T279 18ZM471 131Q447 65 397 28T275
-10Q228 -10 187 7T116 58T68 140T50 252Q50 315 67 363T115 445T187 496T275 513Q345 513 395 479T470 379V725H507V0H475L471 131Z" />
<glyph unicode="e" glyph-name="e" horiz-adv-x="510" d="M272 485Q237 485 206 472T150 434T109 371T88 285H429Q435 336 425 373T392 436T338 473T272 485ZM455 35Q428 16 387 3T279 -10Q170 -10 110 58T50 252Q50 313 67 361T115 444T185 495T273 513Q319 513
358 497T424 449T462 369T464 257H87V252Q87 140 138 80T281 20Q378 20 444 62L455 35Z" />
<glyph unicode="f" glyph-name="f" horiz-adv-x="335" d="M153 474V0H116V474H48V503H116V564Q116 642 154 688T264 734Q284 734 299 732T323 726L317 696Q311 698 296 701T263 705Q209 705 181 669T153 564V503H312V474H153Z" />
<glyph unicode="g" glyph-name="g" horiz-adv-x="597" d="M286 48Q327 48 362 62T422 104T462 172T476 267Q476 321 462 361T423 429T362 471T286 485Q244 485 208 471T144 430T102 362T87 267Q87 214 102 173T144 104T207 62T286 48ZM268 -189Q230 -189 201 -184T149
-170T110 -153T82 -137L94 -104Q106 -112 121 -121T158 -139T206 -153T268 -159Q371 -159 423 -114T475 26V152Q452 89 403 54T282 19Q233 19 191 35T118 83T68 161T50 267Q50 326 68 372T117 449T191 497T282 513Q354 513 404 478T478 379V383Q478 431 480 460T484
503H517Q512 475 512 383V26Q512 -79 451 -134T268 -189Z" />
<glyph unicode="h" glyph-name="h" horiz-adv-x="565" d="M119 0H82V725H119V388H120Q130 411 147 433T188 473T245 502T319 513Q399 513 443 472T487 352V0H450V351Q450 418 415 450T311 483Q271 483 241 472T187 441T147 396T119 345V0Z" />
<glyph unicode="i" glyph-name="i" horiz-adv-x="201" d="M101 615Q87 615 79 624T70 646Q70 658 78 667T101 677Q115 677 123 668T131 646Q131 634 123 625T101 615ZM119 503V0H82V503H119Z" />
<glyph unicode="j" glyph-name="j" horiz-adv-x="206" d="M106 615Q92 615 84 624T75 646Q75 658 83 667T106 677Q120 677 128 668T136 646Q136 634 128 625T106 615ZM125 -44Q125 -71 118 -98T96 -146T57 -181T-3 -196L-9 -166Q39 -164 63 -134T88 -55V503H125V-44Z" />
<glyph unicode="k" glyph-name="k" horiz-adv-x="457" d="M119 725V0H82V725H119ZM387 0L145 265L376 503H417L188 270L433 0H387Z" />
<glyph unicode="l" glyph-name="l" horiz-adv-x="201" d="M119 725V0H82V725H119Z" />
<glyph unicode="m" glyph-name="m" horiz-adv-x="852" d="M119 0H82V503H114L118 388H120Q130 411 145 433T182 473T233 502T300 513Q361 513 399 481T445 383Q455 410 471 433T509 475T560 503T628 513Q696 513 735 472T774 352V0H737V349Q737 420 705 451T618
482Q582 482 555 470T507 439T473 393T446 340V0H409V352Q409 387 401 412T377 452T339 475T291 482Q254 482 227 471T180 440T146 396T119 343V0Z" />
<glyph unicode="n" glyph-name="n" horiz-adv-x="565" d="M311 483Q271 483 241 472T187 441T147 396T119 345V0H82V503H115L118 388H120Q130 411 147 433T188 473T245 502T319 513Q399 513 443 472T487 352V0H450V351Q450 418 415 450T311 483Z" />
<glyph unicode="o" glyph-name="o" horiz-adv-x="575" d="M287 -10Q239 -10 196 7T120 58T69 141T50 252Q50 314 69 362T120 444T195 495T287 513Q336 513 379 496T455 445T506 363T525 252Q525 190 506 141T455 59T380 8T287 -10ZM287 18Q327 18 363 32T427 76T471
149T487 252Q487 311 471 354T428 427T364 470T287 485Q247 485 211 471T148 427T104 355T87 252Q87 193 103 149T147 76T211 33T287 18Z" />
<glyph unicode="p" glyph-name="p" horiz-adv-x="589" d="M305 18Q346 18 382 33T444 77T486 151T501 252Q501 309 486 352T445 425T382 470T305 485Q264 485 228 470T166 426T125 353T110 252Q110 195 125 151T166 78T228 33T305 18ZM308 -10Q243 -10 195 21T119
109V-187H82V503H114L118 392Q145 449 194 481T309 513Q356 513 398 496T471 446T521 364T539 252Q539 189 521 140T471 58T397 8T308 -10Z" />
<glyph unicode="q" glyph-name="q" horiz-adv-x="592" d="M470 -187V128Q446 63 397 27T275 -10Q228 -10 187 7T116 58T68 140T50 252Q50 315 67 363T115 445T187 496T275 513Q345 513 395 479T470 379Q471 417 473 453T478 503H512Q507 475 507 383V-187H470ZM279
18Q320 18 355 33T416 78T456 151T471 252Q471 309 457 352T417 425T356 470T279 485Q238 485 203 470T142 426T102 353T87 252Q87 195 101 152T141 79T202 34T279 18Z" />
<glyph unicode="r" glyph-name="r" horiz-adv-x="321" d="M292 476Q229 471 186 437T119 332V0H82V503H114L118 376H120Q128 400 141 423T175 464T225 496T292 513V476V476Z" />
<glyph unicode="s" glyph-name="s" horiz-adv-x="457" d="M226 -10Q184 -10 153 -3T100 13T65 32T48 45L57 76Q63 71 77 62T113 43T163 27T226 20Q256 20 283 25T332 43T367 77T380 130Q380 159 369 178T336 209T286 229T221 244Q190 250 160 257T107 279T69 317T54
378Q54 446 103 479T238 513Q300 513 335 500T386 478L378 448Q363 457 329 470T239 483Q208 483 181 478T133 460T100 429T88 380Q88 354 98 337T126 309T168 291T223 278Q255 272 289 265T351 242T397 201T415 132Q415 91 399 64T356 20T295 -3T226 -10Z" />
<glyph unicode="t" glyph-name="t" horiz-adv-x="340" d="M305 8Q296 2 274 -4T226 -10Q162 -10 133 22T103 107V474H34V503H103V609H140V503H294V474H140V113Q140 71 159 46T229 21Q252 21 269 26T297 36L305 8V8Z" />
<glyph unicode="u" glyph-name="u" horiz-adv-x="547" d="M428 112Q419 88 403 66T364 27T310 0T241 -10Q164 -10 121 32T78 158V503H115V158Q115 121 125 95T153 53T195 29T250 21Q287 21 315 31T364 60T401 102T428 154V503H466V0H433L429 112H428V112Z" />
<glyph unicode="v" glyph-name="v" horiz-adv-x="483" d="M18 503H57L243 22L430 503H465L268 0H215L18 503Z" />
<glyph unicode="w" glyph-name="w" horiz-adv-x="673" d="M25 503H63L182 31L320 503H359L496 31L614 503H648L521 0H469L337 454L204 0H154L25 503Z" />
<glyph unicode="x" glyph-name="x" horiz-adv-x="450" d="M220 235L58 0H19L201 260L28 503H70L228 286L378 503H417L247 260L431 0H389L220 235Z" />
<glyph unicode="y" glyph-name="y" horiz-adv-x="488" d="M97 -196Q77 -196 65 -194T44 -187L52 -156Q59 -159 68 -162T95 -166Q133 -166 163 -129T225 -12L18 503H57L244 33L435 503H470L267 7Q248 -41 231 -78T194 -142T151 -182T97 -196Z" />
<glyph unicode="z" glyph-name="z" horiz-adv-x="425" d="M34 0V21L337 475H42V503H384V482L81 28H385V0H34Z" />
<glyph unicode="{" glyph-name="braceleft" horiz-adv-x="379" d="M344 -129Q291 -141 253 -136T191 -114T155 -70T143 -10Q143 15 148 38T161 83T173 130T178 181Q178 198 174 215T158 246T125 271T67 284V314Q103 317 125 327T158 352T174 384T178 420Q178 447
173 470T161 515T149 559T143 605Q143 639 154 666T190 711T253 734T344 727V702Q298 710 267 707T217 690T190 656T181 606Q181 582 186 561T197 518T209 475T214 425Q214 404 210 385T194 350T164 320T113 299Q144 291 163 278T194 249T209 215T214 177Q214 149
209 126T198 81T186 38T181 -9Q181 -36 189 -57T217 -92T267 -108T344 -104V-129V-129Z" />
<glyph unicode="|" glyph-name="bar" horiz-adv-x="221" d="M127 733V-116H94V733H127Z" />
<glyph unicode="}" glyph-name="braceright" horiz-adv-x="379" d="M42 -129Q95 -141 133 -136T195 -114T231 -70T243 -10Q243 15 238 38T225 83T213 130T208 181Q208 198 212 215T228 246T261 271T319 284V314Q283 317 261 327T228 352T212 384T208 420Q208 447
213 470T225 515T237 559T243 605Q243 639 232 666T196 711T133 734T42 727V702Q88 710 119 707T169 690T196 656T205 606Q205 582 200 561T189 518T177 475T172 425Q172 404 176 385T192 350T222 320T273 299Q242 291 223 278T192 249T177 215T172 177Q172 149
177 126T188 81T200 38T205 -9Q205 -36 197 -57T169 -92T119 -108T42 -104V-129V-129Z" />
<glyph unicode="~" glyph-name="asciitilde" horiz-adv-x="549" d="M44 247Q42 278 47 305T67 352T104 385T161 397Q189 397 211 389T250 368T283 341T315 314T349 293T390 284Q432 284 453 312T473 403H504Q507 372 502 345T483 297T446 264T390 252Q348 252
320 269T268 308T220 347T162 365Q121 365 98 338T76 247H44V247Z" />
<glyph unicode="&#xa0;" glyph-name="uni00A0" horiz-adv-x="216" />
<glyph unicode="&#xa1;" glyph-name="exclamdown" horiz-adv-x="243" d="M102 -174L109 346H136L143 -174H102ZM122 511Q136 511 145 502T154 479Q154 465 145 456T122 446Q107 446 98 455T89 479Q89 492 98 501T122 511Z" />
<glyph unicode="&#xa2;" glyph-name="cent" horiz-adv-x="570" d="M486 31Q461 15 426 4T339 -10V-133H311V-9Q261 -6 220 13T149 65T103 145T87 251Q87 309 104 356T151 436T222 489T311 512V614H339V513Q387 512 426 503T493 477L481 443Q452 466 420 475T339
485V18Q383 19 415 29T474 57L486 31ZM124 251Q124 200 137 159T175 87T234 40T311 19V484Q270 480 236 463T176 416T138 345T124 251Z" />
<glyph unicode="&#xa3;" glyph-name="sterling" horiz-adv-x="556" d="M517 0H62V21Q110 64 134 109T159 217Q159 241 155 264T145 311H63V339H138Q127 378 117 417T106 501Q106 594 161 649T317 704Q382 704 425 687T490 647L480 613Q456 638 416 655T318 673Q270
673 237 659T184 620T154 565T145 499Q145 457 155 418T176 339H388V311H183Q188 289 191 268T195 223Q195 163 176 118T111 30H517V0Z" />
<glyph unicode="&#xa4;" glyph-name="currency" d="M378 186Q353 165 322 153T255 141Q220 141 188 153T131 186L67 122L44 144L109 209Q88 234 76 265T64 332Q64 367 76 398T108 455L44 520L67 542L131 477Q156 498 187 510T255 522Q290 522 321 511T378 478L443
542L465 520L401 455Q421 430 433 399T445 332Q445 296 433 265T401 208L465 144L442 122L378 186ZM255 493Q222 493 194 481T144 448T111 397T98 332Q98 297 110 268T144 217T193 183T255 171Q288 171 316 183T366 216T399 267T411 332Q411 367 399 396T366 447T317
481T255 493Z" />
<glyph unicode="&#xa5;" glyph-name="yen" horiz-adv-x="572" d="M305 167V0H268V167H88V195H268V321H88V349H259L31 695H75L290 367L502 695H541L314 349H485V321H305V195H485V167H305Z" />
<glyph unicode="&#xa6;" glyph-name="brokenbar" horiz-adv-x="229" d="M131 733V345H98V733H131ZM131 272V-116H98V272H131Z" />
<glyph unicode="&#xa7;" glyph-name="section" horiz-adv-x="544" d="M283 144Q319 144 350 151T405 172T442 208T456 263Q456 326 403 359T254 392Q174 392 128 363T82 272Q82 234 100 210T148 171T212 150T283 144ZM254 -181Q207 -181 171 -174T108 -157T64
-135T37 -116L45 -82Q55 -92 73 -104T118 -126T178 -144T253 -152Q282 -152 311 -145T363 -123T400 -83T414 -22Q414 10 401 32T364 70T306 96T228 115Q196 121 163 131T104 158T62 202T45 269Q45 335 91 373T220 414Q159 428 125 462T90 554Q90 592 104 620T145
667T207 695T288 704Q322 704 348 701T394 692T430 679T458 663L451 630Q423 648 385 661T287 675Q252 675 223 669T172 648T138 610T126 554Q126 523 138 502T172 467T224 443T290 428Q322 422 358 413T424 387T474 341T494 267Q494 201 447 166T321 123Q381 109
415 74T450 -22Q450 -68 433 -98T387 -147T324 -173T254 -181Z" />
<glyph unicode="&#xa8;" glyph-name="dieresis" horiz-adv-x="445" d="M310 615Q296 615 288 624T280 646Q280 658 288 667T310 676Q324 676 332 667T341 646Q341 634 333 625T310 615ZM135 615Q121 615 113 624T104 646Q104 658 112 667T135 676Q149 676 157
667T165 646Q165 634 157 625T135 615Z" />
<glyph unicode="&#xa9;" glyph-name="copyright" horiz-adv-x="881" d="M439 -93Q351 -93 278 -64T152 19T70 146T41 307Q41 394 70 466T151 592T277 674T439 704Q527 704 600 675T727 592T809 467T838 307Q838 220 809 147T727 20T601 -63T439 -93ZM439 -67Q521
-67 589 -39T705 38T780 157T807 307Q807 387 781 455T706 572T589 650T439 678Q358 678 291 650T175 573T100 455T73 307Q73 226 100 157T175 39T290 -39T439 -67ZM451 97Q360 97 308 152T256 305Q256 404 307 458T450 513Q495 513 523 503T569 477L563 445Q543
462 515 473T451 484Q373 484 332 438T291 305Q291 219 332 172T452 125Q487 125 516 136T566 167L572 137Q556 121 526 109T451 97Z" />
<glyph unicode="&#xaa;" glyph-name="ordfeminine" horiz-adv-x="446" d="M197 332Q238 332 266 349T312 388T337 431T345 461V545H248Q162 545 123 517T83 437Q83 386 114 359T197 332ZM346 404Q339 387 327 370T296 338T251 315T191 305Q125 305 87 340T48 436Q48
504 99 537T244 571H345V612Q345 671 317 701T223 731Q173 731 136 717T75 685V713Q95 728 133 743T227 759Q300 759 340 726T380 623V395Q380 372 381 350T385 313H354Q346 343 346 396V404Z" />
<glyph unicode="&#xab;" glyph-name="guillemotleft" horiz-adv-x="444" d="M194 87L45 256L194 425H232L85 256L232 87H194ZM361 87L211 256L361 425H399L252 256L399 87H361Z" />
<glyph unicode="&#xac;" glyph-name="logicalnot" horiz-adv-x="548" d="M469 113V332H44V361H505V113H469Z" />
<glyph unicode="&#xae;" glyph-name="registered" horiz-adv-x="881" d="M439 -93Q351 -93 278 -64T152 19T70 146T41 307Q41 394 70 466T151 592T277 674T439 704Q527 704 600 675T727 592T809 467T838 307Q838 220 809 147T727 20T601 -63T439 -93ZM439 -67Q521
-67 589 -39T705 38T780 157T807 307Q807 387 781 455T706 572T589 650T439 678Q358 678 291 650T175 573T100 455T73 307Q73 226 100 157T175 39T290 -39T439 -67ZM361 480V305H451Q497 305 524 326T552 397Q552 441 529 460T459 480H361ZM450 278H361V104H326V508H459Q521
508 554 482T587 398Q587 344 560 316T488 281L597 104H557L450 278Z" />
<glyph unicode="&#xaf;" glyph-name="macron" horiz-adv-x="445" d="M107 655H338V626H107V655Z" />
<glyph unicode="&#xb0;" glyph-name="degree" horiz-adv-x="485" d="M242 351Q204 351 172 364T116 401T79 457T66 528Q66 567 79 599T115 654T171 691T242 704Q280 704 312 691T368 655T405 599T419 528Q419 490 406 458T369 402T313 365T242 351ZM242 377Q306
377 346 418T386 528Q386 596 346 637T242 678Q177 678 138 637T98 528Q98 459 137 418T242 377Z" />
<glyph unicode="&#xb1;" glyph-name="plusminus" horiz-adv-x="512" d="M274 316V115H238V316H44V345H238V565H274V345H468V316H274ZM44 0V29H468V0H44Z" />
<glyph unicode="&#xb2;" glyph-name="two.sup" horiz-adv-x="357" d="M39 315V337Q106 389 152 430T226 504T266 568T279 628Q279 675 249 703T161 731Q127 731 100 723T53 700L49 728Q66 741 96 750T166 759Q241 759 277 723T314 630Q314 596 302 565T264 500T194
428T89 342H318V315H39Z" />
<glyph unicode="&#xb3;" glyph-name="three.sup" horiz-adv-x="353" d="M153 309Q108 309 78 320T31 344L36 371Q55 358 82 347T150 336Q213 336 244 363T276 436Q276 482 245 507T163 532H103V559H166Q207 559 233 580T260 643Q260 682 234 706T150 731Q115 731
90 723T45 701L41 730Q60 743 89 751T155 759Q223 759 258 729T294 647Q294 624 287 607T269 577T242 557T211 547Q251 542 281 515T311 435Q311 377 269 343T153 309Z" />
<glyph unicode="&#xb4;" glyph-name="acute" horiz-adv-x="445" d="M239 715H287L192 579H160L239 715Z" />
<glyph unicode="&#xb6;" glyph-name="paragraph" horiz-adv-x="579" d="M496 -192H463V695H496V-192ZM334 -192V271H288Q233 271 188 284T110 324T59 389T41 482Q41 588 103 641T280 695H368V-192H334Z" />
<glyph unicode="&#xb7;" glyph-name="periodcentered" horiz-adv-x="189" d="M94 226Q78 226 69 236T60 261Q60 275 69 284T94 294Q110 294 119 285T129 261Q129 247 120 237T94 226Z" />
<glyph unicode="&#xb8;" glyph-name="cedilla" horiz-adv-x="445" d="M216 -187Q190 -187 176 -184T153 -176L159 -150Q167 -155 179 -159T215 -163Q266 -163 266 -122Q266 -100 250 -91T201 -82H189L215 3H242L223 -58Q267 -60 283 -78T300 -122Q300 -155 277
-171T216 -187Z" />
<glyph unicode="&#xb9;" glyph-name="one.sup" horiz-adv-x="242" d="M133 315V712L33 625V660L140 753H168V315H133Z" />
<glyph unicode="&#xba;" glyph-name="ordmasculine" horiz-adv-x="489" d="M244 305Q200 305 162 320T97 364T54 436T38 533Q38 587 53 629T96 700T162 744T244 759Q288 759 326 744T391 700T435 629T451 533Q451 479 435 437T392 365T326 320T244 305ZM244 333Q281
333 312 346T367 384T403 446T416 533Q416 582 403 619T367 681T313 718T244 731Q207 731 176 719T123 681T87 619T74 533Q74 484 87 447T122 384T176 346T244 333Z" />
<glyph unicode="&#xbb;" glyph-name="guillemotright" horiz-adv-x="444" d="M192 256L45 425H83L232 256L83 87H45L192 256ZM358 256L212 425H250L399 256L250 87H212L358 256Z" />
<glyph unicode="&#xbc;" glyph-name="onequarter" horiz-adv-x="863" d="M125 0L691 695H728L161 0H125ZM712 392L520 135H712V392ZM746 108V1H712V108H484V131L717 439H746V135H812V108H746ZM153 257V654L53 567V602L160 695H188V257H153Z" />
<glyph unicode="&#xbd;" glyph-name="onehalf" horiz-adv-x="943" d="M124 0L690 695H727L160 0H124ZM605 1V23Q672 75 718 116T792 190T832 254T845 314Q845 361 815 389T727 417Q693 417 666 409T619 386L615 414Q632 427 662 436T732 445Q807 445 843 409T880
316Q880 282 868 251T830 186T760 114T655 28H884V1H605ZM153 257V654L53 567V602L160 695H188V257H153Z" />
<glyph unicode="&#xbe;" glyph-name="threequarters" horiz-adv-x="923" d="M184 0L750 695H787L220 0H184ZM772 392L580 135H772V392ZM806 108V1H772V108H544V131L777 439H806V135H872V108H806ZM173 251Q128 251 98 262T51 286L56 313Q75 300 102 289T170 278Q233
278 264 305T296 378Q296 424 265 449T183 474H123V501H186Q227 501 253 522T280 585Q280 624 254 648T170 673Q135 673 110 665T65 643L61 672Q80 685 109 693T175 701Q243 701 278 671T314 589Q314 566 307 549T289 519T262 499T231 489Q271 484 301 457T331
377Q331 319 289 285T173 251Z" />
<glyph unicode="&#xbf;" glyph-name="questiondown" horiz-adv-x="463" d="M39 -30Q39 6 47 32T70 80T103 118T143 151Q168 170 191 187T232 224T260 267T271 322V344H303V321Q303 285 292 259T262 210T218 168T166 127Q147 112 131 97T103 64T84 23T77 -30Q77
-53 85 -77T111 -121T160 -153T237 -166Q285 -166 322 -152T379 -121L386 -156Q365 -171 326 -184T233 -197Q185 -197 149 -185T88 -150T51 -97T39 -30ZM284 509Q299 509 307 500T316 477Q316 463 308 454T284 444Q270 444 261 453T252 477Q252 490 261 499T284
509Z" />
<glyph unicode="&#xc0;" glyph-name="Agrave" horiz-adv-x="589" d="M291 667L147 263H436L291 667ZM447 233H137L54 0H18L266 695H322L572 0H531L447 233ZM283 750L194 864H245L319 750H283Z" />
<glyph unicode="&#xc1;" glyph-name="Aacute" horiz-adv-x="589" d="M291 667L147 263H436L291 667ZM447 233H137L54 0H18L266 695H322L572 0H531L447 233ZM345 864H397L307 750H271L345 864Z" />
<glyph unicode="&#xc2;" glyph-name="Acircumflex" horiz-adv-x="589" d="M291 667L147 263H436L291 667ZM447 233H137L54 0H18L266 695H322L572 0H531L447 233ZM294 837L207 757H174L272 864H315L414 757H380L294 837Z" />
<glyph unicode="&#xc3;" glyph-name="Atilde" horiz-adv-x="589" d="M291 667L147 263H436L291 667ZM447 233H137L54 0H18L266 695H322L572 0H531L447 233ZM153 766Q151 802 167 828T222 855Q244 855 263 846T299 827T332 808T366 799Q405 799 408 857H436Q437
821 420 795T367 768Q344 768 326 777T290 796T256 816T222 825Q182 825 180 766H153Z" />
<glyph unicode="&#xc4;" glyph-name="Adieresis" horiz-adv-x="589" d="M291 667L147 263H436L291 667ZM447 233H137L54 0H18L266 695H322L572 0H531L447 233ZM388 775Q374 775 366 784T357 805Q357 817 365 826T388 836Q402 836 410 827T418 805Q418 794 410
785T388 775ZM201 775Q187 775 179 784T171 805Q171 817 179 826T201 836Q215 836 223 827T232 805Q232 794 224 785T201 775Z" />
<glyph unicode="&#xc5;" glyph-name="Aring" horiz-adv-x="589" d="M291 667L147 263H436L291 667ZM447 233H137L54 0H18L266 695H322L572 0H531L447 233ZM294 729Q259 729 236 751T213 810Q213 845 236 867T294 890Q330 890 353 868T376 810Q376 774 353 752T294
729ZM294 754Q318 754 333 769T348 810Q348 835 333 850T294 865Q271 865 256 850T241 810Q241 784 255 769T294 754Z" />
<glyph unicode="&#xc6;" glyph-name="AE" horiz-adv-x="902" d="M470 664L214 250H470V664ZM470 219H195L60 0H21L449 695H846V665H510V383H804V353H510V30H851V0H470V219Z" />
<glyph unicode="&#xc7;" glyph-name="Ccedilla" horiz-adv-x="625" d="M316 -187Q290 -187 276 -184T253 -176L259 -150Q267 -155 279 -159T315 -163Q366 -163 366 -122Q366 -100 350 -91T301 -82H289L312 -6Q253 2 205 30T122 103T69 210T50 347Q50 431 73 497T138
609T239 679T370 704Q443 704 493 684T574 638L566 604Q530 633 480 653T372 673Q307 673 255 651T167 586T112 484T92 347Q92 270 111 210T165 107T251 43T365 21Q424 21 476 39T564 90L574 58Q545 32 493 11T364 -10Q357 -10 351 -10T338 -9L323 -58Q367 -60
383 -78T400 -122Q400 -155 377 -171T316 -187Z" />
<glyph unicode="&#xc8;" glyph-name="Egrave" horiz-adv-x="527" d="M88 695H471V665H127V383H430V353H127V30H476V0H88V695ZM282 750L193 864H244L318 750H282Z" />
<glyph unicode="&#xc9;" glyph-name="Eacute" horiz-adv-x="527" d="M88 695H471V665H127V383H430V353H127V30H476V0H88V695ZM345 864H397L307 750H271L345 864Z" />
<glyph unicode="&#xca;" glyph-name="Ecircumflex" horiz-adv-x="527" d="M88 695H471V665H127V383H430V353H127V30H476V0H88V695ZM286 837L199 757H166L264 864H307L406 757H372L286 837Z" />
<glyph unicode="&#xcb;" glyph-name="Edieresis" horiz-adv-x="527" d="M88 695H471V665H127V383H430V353H127V30H476V0H88V695ZM378 775Q364 775 356 784T347 805Q347 817 355 826T378 836Q392 836 400 827T408 805Q408 794 400 785T378 775ZM191 775Q177 775
169 784T161 805Q161 817 169 826T191 836Q205 836 213 827T222 805Q222 794 214 785T191 775Z" />
<glyph unicode="&#xcc;" glyph-name="Igrave" horiz-adv-x="215" d="M127 695V0H88V695H127ZM353 750L264 864H315L389 750H353Z" />
<glyph unicode="&#xcd;" glyph-name="Iacute" horiz-adv-x="215" d="M127 695V0H88V695H127ZM415 864H467L377 750H341L415 864Z" />
<glyph unicode="&#xce;" glyph-name="Icircumflex" horiz-adv-x="215" d="M127 695V0H88V695H127ZM364 837L277 757H244L342 864H385L484 757H450L364 837Z" />
<glyph unicode="&#xcf;" glyph-name="Idieresis" horiz-adv-x="215" d="M177 775Q163 775 155 784T146 805Q146 817 154 826T177 836Q191 836 199 827T207 805Q207 794 199 785T177 775ZM39 775Q25 775 17 784T9 805Q9 817 17 826T39 836Q53 836 61 827T69 805Q69
794 61 785T39 775ZM127 695V0H88V695H127Z" />
<glyph unicode="&#xd0;" glyph-name="Eth" horiz-adv-x="713" d="M160 340V30H339Q399 30 450 51T538 113T597 218T618 365Q618 450 597 507T540 600T454 650T350 665H160V369H411V340H160ZM120 340H11V369H120V695H350Q414 695 470 678T569 622T635 520T660 366Q660
274 636 206T568 92T466 23T338 0H120V340Z" />
<glyph unicode="&#xd1;" glyph-name="Ntilde" horiz-adv-x="697" d="M122 656V0H88V695H141L575 47V695H610V0H561L122 656ZM220 766Q218 802 234 828T289 855Q311 855 330 846T366 827T399 808T433 799Q472 799 475 857H503Q504 821 487 795T434 768Q411 768
393 777T357 796T323 816T289 825Q249 825 247 766H220Z" />
<glyph unicode="&#xd2;" glyph-name="Ograve" horiz-adv-x="748" d="M374 -10Q304 -10 245 14T143 85T75 199T50 350Q50 435 74 501T142 612T245 680T374 704Q444 704 503 681T606 612T673 500T698 350Q698 266 674 199T606 86T504 15T374 -10ZM374 20Q435 20
487 41T577 103T636 205T657 347Q657 427 636 488T577 590T487 653T374 674Q312 674 261 653T171 591T112 488T91 347Q91 267 112 206T171 103T260 41T374 20ZM363 750L274 864H325L399 750H363Z" />
<glyph unicode="&#xd3;" glyph-name="Oacute" horiz-adv-x="748" d="M374 -10Q304 -10 245 14T143 85T75 199T50 350Q50 435 74 501T142 612T245 680T374 704Q444 704 503 681T606 612T673 500T698 350Q698 266 674 199T606 86T504 15T374 -10ZM374 20Q435 20
487 41T577 103T636 205T657 347Q657 427 636 488T577 590T487 653T374 674Q312 674 261 653T171 591T112 488T91 347Q91 267 112 206T171 103T260 41T374 20ZM425 864H477L387 750H351L425 864Z" />
<glyph unicode="&#xd4;" glyph-name="Ocircumflex" horiz-adv-x="748" d="M374 -10Q304 -10 245 14T143 85T75 199T50 350Q50 435 74 501T142 612T245 680T374 704Q444 704 503 681T606 612T673 500T698 350Q698 266 674 199T606 86T504 15T374 -10ZM374 20Q435
20 487 41T577 103T636 205T657 347Q657 427 636 488T577 590T487 653T374 674Q312 674 261 653T171 591T112 488T91 347Q91 267 112 206T171 103T260 41T374 20ZM374 837L287 757H254L352 864H395L494 757H460L374 837Z" />
<glyph unicode="&#xd5;" glyph-name="Otilde" horiz-adv-x="748" d="M374 -10Q304 -10 245 14T143 85T75 199T50 350Q50 435 74 501T142 612T245 680T374 704Q444 704 503 681T606 612T673 500T698 350Q698 266 674 199T606 86T504 15T374 -10ZM374 20Q435 20
487 41T577 103T636 205T657 347Q657 427 636 488T577 590T487 653T374 674Q312 674 261 653T171 591T112 488T91 347Q91 267 112 206T171 103T260 41T374 20ZM233 766Q231 802 247 828T302 855Q324 855 343 846T379 827T412 808T446 799Q485 799 488 857H516Q517
821 500 795T447 768Q424 768 406 777T370 796T336 816T302 825Q262 825 260 766H233Z" />
<glyph unicode="&#xd6;" glyph-name="Odieresis" horiz-adv-x="748" d="M374 -10Q304 -10 245 14T143 85T75 199T50 350Q50 435 74 501T142 612T245 680T374 704Q444 704 503 681T606 612T673 500T698 350Q698 266 674 199T606 86T504 15T374 -10ZM374 20Q435
20 487 41T577 103T636 205T657 347Q657 427 636 488T577 590T487 653T374 674Q312 674 261 653T171 591T112 488T91 347Q91 267 112 206T171 103T260 41T374 20ZM468 775Q454 775 446 784T437 805Q437 817 445 826T468 836Q482 836 490 827T498 805Q498 794 490
785T468 775ZM281 775Q267 775 259 784T251 805Q251 817 259 826T281 836Q295 836 303 827T312 805Q312 794 304 785T281 775Z" />
<glyph unicode="&#xd7;" glyph-name="multiply" horiz-adv-x="495" d="M247 309L65 127L44 148L226 330L44 511L66 533L247 351L430 534L451 513L268 330L451 147L429 126L247 309Z" />
<glyph unicode="&#xd8;" glyph-name="Oslash" horiz-adv-x="755" d="M378 -10Q308 -10 249 14Q220 26 195 43L143 -38H107L171 61Q158 72 146 85Q103 132 79 199T54 350Q54 435 78 501T146 612T249 680T378 704Q448 704 507 680Q534 670 557 655L607 732H643L581
637Q596 625 610 611Q653 566 677 500T702 350Q702 266 678 199T610 86T508 15T378 -10ZM378 20Q439 20 491 41T581 103T640 205T661 347Q661 427 640 488T581 590Q572 600 562 608L212 69Q236 52 264 41Q316 20 378 20ZM491 653Q439 674 378 674Q316 674 265 653T175
591T116 488T95 347Q95 267 116 206T175 103Q182 95 189 88L539 627Q516 642 491 653Z" />
<glyph unicode="&#xd9;" glyph-name="Ugrave" horiz-adv-x="665" d="M73 695H113V240Q113 184 129 143T175 75T245 35T335 21Q381 21 421 34T492 75T539 143T556 242V695H592V243Q592 181 572 134T518 55T436 7T334 -10Q277 -10 230 5T147 52T93 130T73 240V695ZM324
750L235 864H286L360 750H324Z" />
<glyph unicode="&#xda;" glyph-name="Uacute" horiz-adv-x="665" d="M73 695H113V240Q113 184 129 143T175 75T245 35T335 21Q381 21 421 34T492 75T539 143T556 242V695H592V243Q592 181 572 134T518 55T436 7T334 -10Q277 -10 230 5T147 52T93 130T73 240V695ZM386
864H438L348 750H312L386 864Z" />
<glyph unicode="&#xdb;" glyph-name="Ucircumflex" horiz-adv-x="665" d="M73 695H113V240Q113 184 129 143T175 75T245 35T335 21Q381 21 421 34T492 75T539 143T556 242V695H592V243Q592 181 572 134T518 55T436 7T334 -10Q277 -10 230 5T147 52T93 130T73 240V695ZM335
837L248 757H215L313 864H356L455 757H421L335 837Z" />
<glyph unicode="&#xdc;" glyph-name="Udieresis" horiz-adv-x="665" d="M73 695H113V240Q113 184 129 143T175 75T245 35T335 21Q381 21 421 34T492 75T539 143T556 242V695H592V243Q592 181 572 134T518 55T436 7T334 -10Q277 -10 230 5T147 52T93 130T73 240V695ZM429
775Q415 775 407 784T398 805Q398 817 406 826T429 836Q443 836 451 827T459 805Q459 794 451 785T429 775ZM242 775Q228 775 220 784T212 805Q212 817 220 826T242 836Q256 836 264 827T273 805Q273 794 265 785T242 775Z" />
<glyph unicode="&#xdd;" glyph-name="Yacute" horiz-adv-x="568" d="M265 0V303L18 695H63L287 337L511 695H550L305 303V0H265ZM337 864H389L299 750H263L337 864Z" />
<glyph unicode="&#xde;" glyph-name="Thorn" horiz-adv-x="565" d="M128 514V180H280Q373 180 427 220T481 355Q481 436 431 475T291 514H128ZM128 150V0H88V695H128V544H291Q396 544 458 499T521 357Q521 302 504 263T455 199T379 162T280 150H128Z" />
<glyph unicode="&#xdf;" glyph-name="germandbls" horiz-adv-x="526" d="M488 125Q488 56 445 23T331 -10Q290 -10 264 -4T212 13L219 45Q237 33 265 26T331 19Q387 19 419 44T452 121Q452 158 437 181T397 219T346 244T295 266T256 297T240 346Q240 377 262 404T311
458T360 518T383 595Q383 617 377 637T355 673T317 697T261 706Q193 706 156 662T119 534V0H82V534Q82 625 127 679T262 734Q304 734 333 722T382 691T409 646T418 594Q418 548 396 513T346 449T296 396T273 347Q273 325 289 311T329 285T380 262T432 233T472 191T488
125Z" />
<glyph unicode="&#xe0;" glyph-name="agrave" horiz-adv-x="510" d="M221 19Q258 19 285 31T332 61T363 99T383 137V266H287Q184 266 136 235T87 139Q87 81 121 50T221 19ZM395 0Q390 16 387 39T384 94Q375 76 362 58T328 24T281 0T216 -10Q139 -10 95 28T50 138Q50
214 109 253T284 292H383V353Q383 421 349 452T244 483Q191 483 153 469T87 432L72 463Q95 479 139 496T247 513Q330 513 375 475T420 357V95Q420 67 422 42T429 0H395ZM488 579L393 715H440L519 579H488Z" />
<glyph unicode="&#xe1;" glyph-name="aacute" horiz-adv-x="510" d="M221 19Q258 19 285 31T332 61T363 99T383 137V266H287Q184 266 136 235T87 139Q87 81 121 50T221 19ZM395 0Q390 16 387 39T384 94Q375 76 362 58T328 24T281 0T216 -10Q139 -10 95 28T50 138Q50
214 109 253T284 292H383V353Q383 421 349 452T244 483Q191 483 153 469T87 432L72 463Q95 479 139 496T247 513Q330 513 375 475T420 357V95Q420 67 422 42T429 0H395ZM306 715H354L259 579H227L306 715Z" />
<glyph unicode="&#xe2;" glyph-name="acircumflex" horiz-adv-x="510" d="M221 19Q258 19 285 31T332 61T363 99T383 137V266H287Q184 266 136 235T87 139Q87 81 121 50T221 19ZM395 0Q390 16 387 39T384 94Q375 76 362 58T328 24T281 0T216 -10Q139 -10 95 28T50
138Q50 214 109 253T284 292H383V353Q383 421 349 452T244 483Q191 483 153 469T87 432L72 463Q95 479 139 496T247 513Q330 513 375 475T420 357V95Q420 67 422 42T429 0H395ZM245 678L154 579H123L225 705H264L367 579H336L245 678Z" />
<glyph unicode="&#xe3;" glyph-name="atilde" horiz-adv-x="510" d="M221 19Q258 19 285 31T332 61T363 99T383 137V266H287Q184 266 136 235T87 139Q87 81 121 50T221 19ZM395 0Q390 16 387 39T384 94Q375 76 362 58T328 24T281 0T216 -10Q139 -10 95 28T50 138Q50
214 109 253T284 292H383V353Q383 421 349 452T244 483Q191 483 153 469T87 432L72 463Q95 479 139 496T247 513Q330 513 375 475T420 357V95Q420 67 422 42T429 0H395ZM105 589Q104 624 120 651T174 678Q195 678 212 669T245 650T276 630T308 621Q346 621 348
680H377Q378 644 362 618T309 591Q287 591 270 600T237 619T206 639T174 648Q136 648 134 589H105Z" />
<glyph unicode="&#xe4;" glyph-name="adieresis" horiz-adv-x="510" d="M221 19Q258 19 285 31T332 61T363 99T383 137V266H287Q184 266 136 235T87 139Q87 81 121 50T221 19ZM395 0Q390 16 387 39T384 94Q375 76 362 58T328 24T281 0T216 -10Q139 -10 95 28T50
138Q50 214 109 253T284 292H383V353Q383 421 349 452T244 483Q191 483 153 469T87 432L72 463Q95 479 139 496T247 513Q330 513 375 475T420 357V95Q420 67 422 42T429 0H395ZM333 615Q319 615 311 624T303 646Q303 658 311 667T333 676Q347 676 355 667T364 646Q364
634 356 625T333 615ZM158 615Q144 615 136 624T127 646Q127 658 135 667T158 676Q172 676 180 667T188 646Q188 634 180 625T158 615Z" />
<glyph unicode="&#xe5;" glyph-name="aring" horiz-adv-x="510" d="M221 19Q258 19 285 31T332 61T363 99T383 137V266H287Q184 266 136 235T87 139Q87 81 121 50T221 19ZM395 0Q390 16 387 39T384 94Q375 76 362 58T328 24T281 0T216 -10Q139 -10 95 28T50 138Q50
214 109 253T284 292H383V353Q383 421 349 452T244 483Q191 483 153 469T87 432L72 463Q95 479 139 496T247 513Q330 513 375 475T420 357V95Q420 67 422 42T429 0H395ZM245 575Q210 575 187 597T164 656Q164 691 187 713T245 736Q281 736 304 714T327 656Q327
620 304 598T245 575ZM245 600Q269 600 284 615T299 656Q299 681 284 696T245 711Q222 711 207 696T192 656Q192 630 206 615T245 600Z" />
<glyph unicode="&#xe6;" glyph-name="ae" horiz-adv-x="845" d="M608 485Q572 485 540 472T482 434T439 372T418 287H765Q769 339 758 376T725 438T673 473T608 485ZM791 35Q764 16 723 3T619 -10Q540 -10 486 24T405 125Q398 104 384 80T348 36T293 3T218 -10Q140
-10 96 30T51 142Q51 216 109 251T276 287H383V353Q383 421 349 452T244 483Q191 483 153 469T87 432L72 463Q95 479 139 496T247 513Q397 513 413 388Q441 448 492 480T609 513Q655 513 694 498T759 452T796 372T799 259H416V252Q416 140 470 80T622 20Q714 20
780 62L791 35ZM223 19Q266 19 296 35T346 73T377 121T392 165Q383 204 383 252V259H282Q180 259 134 230T88 141Q88 81 125 50T223 19Z" />
<glyph unicode="&#xe7;" glyph-name="ccedilla" horiz-adv-x="482" d="M247 -187Q221 -187 207 -184T184 -176L190 -150Q198 -155 210 -159T246 -163Q297 -163 297 -122Q297 -100 281 -91T232 -82H220L243 -6Q155 8 103 75T50 251Q50 313 68 361T120 444T197 495T294
513Q339 513 379 505T446 477L434 443Q405 466 373 475T294 485Q249 485 211 469T146 423T103 350T87 251Q87 197 102 154T144 80T208 34T291 18Q333 18 365 28T427 57L439 32Q413 15 377 3T291 -10Q285 -10 280 -10T269 -9L254 -58Q298 -60 314 -78T331 -122Q331
-155 308 -171T247 -187Z" />
<glyph unicode="&#xe8;" glyph-name="egrave" horiz-adv-x="510" d="M272 485Q237 485 206 472T150 434T109 371T88 285H429Q435 336 425 373T392 436T338 473T272 485ZM455 35Q428 16 387 3T279 -10Q170 -10 110 58T50 252Q50 313 67 361T115 444T185 495T273
513Q319 513 358 497T424 449T462 369T464 257H87V252Q87 140 138 80T281 20Q378 20 444 62L455 35ZM260 579L165 715H212L291 579H260Z" />
<glyph unicode="&#xe9;" glyph-name="eacute" horiz-adv-x="510" d="M272 485Q237 485 206 472T150 434T109 371T88 285H429Q435 336 425 373T392 436T338 473T272 485ZM455 35Q428 16 387 3T279 -10Q170 -10 110 58T50 252Q50 313 67 361T115 444T185 495T273
513Q319 513 358 497T424 449T462 369T464 257H87V252Q87 140 138 80T281 20Q378 20 444 62L455 35ZM335 715H383L288 579H256L335 715Z" />
<glyph unicode="&#xea;" glyph-name="ecircumflex" horiz-adv-x="510" d="M272 485Q237 485 206 472T150 434T109 371T88 285H429Q435 336 425 373T392 436T338 473T272 485ZM455 35Q428 16 387 3T279 -10Q170 -10 110 58T50 252Q50 313 67 361T115 444T185 495T273
513Q319 513 358 497T424 449T462 369T464 257H87V252Q87 140 138 80T281 20Q378 20 444 62L455 35ZM273 678L182 579H151L253 705H292L395 579H364L273 678Z" />
<glyph unicode="&#xeb;" glyph-name="edieresis" horiz-adv-x="510" d="M272 485Q237 485 206 472T150 434T109 371T88 285H429Q435 336 425 373T392 436T338 473T272 485ZM455 35Q428 16 387 3T279 -10Q170 -10 110 58T50 252Q50 313 67 361T115 444T185 495T273
513Q319 513 358 497T424 449T462 369T464 257H87V252Q87 140 138 80T281 20Q378 20 444 62L455 35ZM361 615Q347 615 339 624T331 646Q331 658 339 667T361 676Q375 676 383 667T392 646Q392 634 384 625T361 615ZM186 615Q172 615 164 624T155 646Q155 658 163
667T186 676Q200 676 208 667T216 646Q216 634 208 625T186 615Z" />
<glyph unicode="&#xec;" glyph-name="igrave" horiz-adv-x="201" d="M119 503V0H82V503H119ZM87 579L-8 715H39L118 579H87Z" />
<glyph unicode="&#xed;" glyph-name="iacute" horiz-adv-x="201" d="M119 503V0H82V503H119ZM418 715H466L371 579H339L418 715Z" />
<glyph unicode="&#xee;" glyph-name="icircumflex" horiz-adv-x="201" d="M101 678L28 579H-1L81 705H120L203 579H174L101 678ZM119 503V0H82V503H119Z" />
<glyph unicode="&#xef;" glyph-name="idieresis" horiz-adv-x="201" d="M177 615Q163 615 155 624T146 646Q146 658 154 667T177 676Q191 676 199 667T207 646Q207 634 199 625T177 615ZM26 615Q12 615 4 624T-4 646Q-4 658 4 667T26 676Q40 676 48 667T57 646Q57
634 49 625T26 615ZM119 503V0H82V503H119Z" />
<glyph unicode="&#xf0;" glyph-name="eth" horiz-adv-x="572" d="M284 -10Q234 -10 191 7T116 59T66 141T48 252Q48 314 66 361T115 441T190 490T284 507Q342 507 388 484T464 417Q439 486 391 541T283 638L131 578L122 604L254 656Q219 677 183 692T110 718V725H179Q204
717 233 704T291 670L400 713L409 687L319 652Q358 624 395 587T461 502T507 399T525 276Q525 204 507 151T456 61T379 8T284 -10ZM86 252Q86 196 101 153T142 80T205 35T284 20Q327 20 364 35T428 81T470 156T486 262Q486 335 462 386Q440 424 398 451T288 478Q244
478 207 464T143 422T101 352T86 252Z" />
<glyph unicode="&#xf1;" glyph-name="ntilde" horiz-adv-x="565" d="M311 483Q271 483 241 472T187 441T147 396T119 345V0H82V503H115L118 388H120Q130 411 147 433T188 473T245 502T319 513Q399 513 443 472T487 352V0H450V351Q450 418 415 450T311 483ZM140
589Q139 624 155 651T209 678Q230 678 247 669T280 650T311 630T343 621Q381 621 383 680H412Q413 644 397 618T344 591Q322 591 305 600T272 619T241 639T209 648Q171 648 169 589H140Z" />
<glyph unicode="&#xf2;" glyph-name="ograve" horiz-adv-x="575" d="M287 -10Q239 -10 196 7T120 58T69 141T50 252Q50 314 69 362T120 444T195 495T287 513Q336 513 379 496T455 445T506 363T525 252Q525 190 506 141T455 59T380 8T287 -10ZM287 18Q327 18 363
32T427 76T471 149T487 252Q487 311 471 354T428 427T364 470T287 485Q247 485 211 471T148 427T104 355T87 252Q87 193 103 149T147 76T211 33T287 18ZM273 579L178 715H225L304 579H273Z" />
<glyph unicode="&#xf3;" glyph-name="oacute" horiz-adv-x="575" d="M287 -10Q239 -10 196 7T120 58T69 141T50 252Q50 314 69 362T120 444T195 495T287 513Q336 513 379 496T455 445T506 363T525 252Q525 190 506 141T455 59T380 8T287 -10ZM287 18Q327 18 363
32T427 76T471 149T487 252Q487 311 471 354T428 427T364 470T287 485Q247 485 211 471T148 427T104 355T87 252Q87 193 103 149T147 76T211 33T287 18ZM348 715H396L301 579H269L348 715Z" />
<glyph unicode="&#xf4;" glyph-name="ocircumflex" horiz-adv-x="575" d="M287 -10Q239 -10 196 7T120 58T69 141T50 252Q50 314 69 362T120 444T195 495T287 513Q336 513 379 496T455 445T506 363T525 252Q525 190 506 141T455 59T380 8T287 -10ZM287 18Q327
18 363 32T427 76T471 149T487 252Q487 311 471 354T428 427T364 470T287 485Q247 485 211 471T148 427T104 355T87 252Q87 193 103 149T147 76T211 33T287 18ZM287 678L196 579H165L267 705H306L409 579H378L287 678Z" />
<glyph unicode="&#xf5;" glyph-name="otilde" horiz-adv-x="575" d="M287 -10Q239 -10 196 7T120 58T69 141T50 252Q50 314 69 362T120 444T195 495T287 513Q336 513 379 496T455 445T506 363T525 252Q525 190 506 141T455 59T380 8T287 -10ZM287 18Q327 18 363
32T427 76T471 149T487 252Q487 311 471 354T428 427T364 470T287 485Q247 485 211 471T148 427T104 355T87 252Q87 193 103 149T147 76T211 33T287 18ZM146 589Q145 624 161 651T215 678Q236 678 253 669T286 650T317 630T349 621Q387 621 389 680H418Q419 644
403 618T350 591Q328 591 311 600T278 619T247 639T215 648Q177 648 175 589H146Z" />
<glyph unicode="&#xf6;" glyph-name="odieresis" horiz-adv-x="575" d="M287 -10Q239 -10 196 7T120 58T69 141T50 252Q50 314 69 362T120 444T195 495T287 513Q336 513 379 496T455 445T506 363T525 252Q525 190 506 141T455 59T380 8T287 -10ZM287 18Q327 18
363 32T427 76T471 149T487 252Q487 311 471 354T428 427T364 470T287 485Q247 485 211 471T148 427T104 355T87 252Q87 193 103 149T147 76T211 33T287 18ZM375 615Q361 615 353 624T345 646Q345 658 353 667T375 676Q389 676 397 667T406 646Q406 634 398 625T375
615ZM200 615Q186 615 178 624T169 646Q169 658 177 667T200 676Q214 676 222 667T230 646Q230 634 222 625T200 615Z" />
<glyph unicode="&#xf7;" glyph-name="divide" horiz-adv-x="511" d="M251 78Q235 78 226 88T217 113Q217 127 226 136T251 146Q267 146 276 137T286 113Q286 99 277 89T251 78ZM251 463Q235 463 226 473T217 498Q217 512 226 521T251 531Q267 531 276 522T286
498Q286 484 277 474T251 463ZM44 309V338H468V309H44Z" />
<glyph unicode="&#xf8;" glyph-name="oslash" horiz-adv-x="575" d="M87 252Q87 186 107 139T161 62L387 460Q344 485 287 485Q246 485 210 471T146 427T103 354T87 252ZM287 18Q329 18 365 33T429 77T471 150T487 252Q487 320 466 367T410 444L185 45Q230 18
287 18ZM287 -10Q222 -10 170 19L131 -50H98L146 34Q101 67 76 122T50 252Q50 314 68 362T118 444T193 495T287 513Q351 513 402 486L439 551H471L426 471Q472 439 498 384T525 252Q525 190 507 141T457 59T382 8T287 -10Z" />
<glyph unicode="&#xf9;" glyph-name="ugrave" horiz-adv-x="547" d="M428 112Q419 88 403 66T364 27T310 0T241 -10Q164 -10 121 32T78 158V503H115V158Q115 121 125 95T153 53T195 29T250 21Q287 21 315 31T364 60T401 102T428 154V503H466V0H433L429 112H428V112ZM268
579L173 715H220L299 579H268Z" />
<glyph unicode="&#xfa;" glyph-name="uacute" horiz-adv-x="547" d="M428 112Q419 88 403 66T364 27T310 0T241 -10Q164 -10 121 32T78 158V503H115V158Q115 121 125 95T153 53T195 29T250 21Q287 21 315 31T364 60T401 102T428 154V503H466V0H433L429 112H428V112ZM334
715H382L287 579H255L334 715Z" />
<glyph unicode="&#xfb;" glyph-name="ucircumflex" horiz-adv-x="547" d="M428 112Q419 88 403 66T364 27T310 0T241 -10Q164 -10 121 32T78 158V503H115V158Q115 121 125 95T153 53T195 29T250 21Q287 21 315 31T364 60T401 102T428 154V503H466V0H433L429 112H428V112ZM274
678L183 579H152L254 705H293L396 579H365L274 678Z" />
<glyph unicode="&#xfc;" glyph-name="udieresis" horiz-adv-x="547" d="M428 112Q419 88 403 66T364 27T310 0T241 -10Q164 -10 121 32T78 158V503H115V158Q115 121 125 95T153 53T195 29T250 21Q287 21 315 31T364 60T401 102T428 154V503H466V0H433L429 112H428V112ZM362
615Q348 615 340 624T332 646Q332 658 340 667T362 676Q376 676 384 667T393 646Q393 634 385 625T362 615ZM187 615Q173 615 165 624T156 646Q156 658 164 667T187 676Q201 676 209 667T217 646Q217 634 209 625T187 615Z" />
<glyph unicode="&#xfd;" glyph-name="yacute" horiz-adv-x="488" d="M97 -196Q77 -196 65 -194T44 -187L52 -156Q59 -159 68 -162T95 -166Q133 -166 163 -129T225 -12L18 503H57L244 33L435 503H470L267 7Q248 -41 231 -78T194 -142T151 -182T97 -196ZM304 715H352L257
579H225L304 715Z" />
<glyph unicode="&#xfe;" glyph-name="thorn" horiz-adv-x="589" d="M310 18Q351 18 386 33T446 79T486 152T501 252Q501 309 487 352T447 425T386 470T310 485Q269 485 234 470T173 426T133 353T118 252Q118 195 132 152T172 79T233 34T310 18ZM313 -10Q244 -10
194 25T119 126V-187H82V725H119V379Q144 443 194 478T313 513Q361 513 402 496T473 446T521 364T539 252Q539 189 522 140T474 58T402 8T313 -10Z" />
<glyph unicode="&#xff;" glyph-name="ydieresis" horiz-adv-x="488" d="M97 -196Q77 -196 65 -194T44 -187L52 -156Q59 -159 68 -162T95 -166Q133 -166 163 -129T225 -12L18 503H57L244 33L435 503H470L267 7Q248 -41 231 -78T194 -142T151 -182T97 -196ZM330
615Q316 615 308 624T300 646Q300 658 308 667T330 676Q344 676 352 667T361 646Q361 634 353 625T330 615ZM155 615Q141 615 133 624T124 646Q124 658 132 667T155 676Q169 676 177 667T185 646Q185 634 177 625T155 615Z" />
<glyph unicode="&#x100;" glyph-name="Amacron" horiz-adv-x="589" d="M291 667L147 263H436L291 667ZM447 233H137L54 0H18L266 695H322L572 0H531L447 233ZM178 815H411V786H178V815Z" />
<glyph unicode="&#x101;" glyph-name="amacron" horiz-adv-x="510" d="M221 19Q258 19 285 31T332 61T363 99T383 137V266H287Q184 266 136 235T87 139Q87 81 121 50T221 19ZM395 0Q390 16 387 39T384 94Q375 76 362 58T328 24T281 0T216 -10Q139 -10 95 28T50
138Q50 214 109 253T284 292H383V353Q383 421 349 452T244 483Q191 483 153 469T87 432L72 463Q95 479 139 496T247 513Q330 513 375 475T420 357V95Q420 67 422 42T429 0H395ZM130 655H361V626H130V655Z" />
<glyph unicode="&#x102;" glyph-name="Abreve" horiz-adv-x="589" d="M291 667L147 263H436L291 667ZM447 233H137L54 0H18L266 695H322L572 0H531L447 233ZM294 751Q264 751 242 760T205 785T183 819T174 860H205Q207 827 230 804T294 781Q336 781 358 804T383
860H415Q414 839 407 820T384 785T347 761T294 751Z" />
<glyph unicode="&#x103;" glyph-name="abreve" horiz-adv-x="510" d="M221 19Q258 19 285 31T332 61T363 99T383 137V266H287Q184 266 136 235T87 139Q87 81 121 50T221 19ZM395 0Q390 16 387 39T384 94Q375 76 362 58T328 24T281 0T216 -10Q139 -10 95 28T50
138Q50 214 109 253T284 292H383V353Q383 421 349 452T244 483Q191 483 153 469T87 432L72 463Q95 479 139 496T247 513Q330 513 375 475T420 357V95Q420 67 422 42T429 0H395ZM245 573Q216 573 195 582T159 607T138 643T130 684H161Q163 649 184 626T245 603Q286
603 306 626T329 684H361Q360 663 353 643T332 608T297 583T245 573Z" />
<glyph unicode="&#x104;" glyph-name="Aogonek" horiz-adv-x="629" d="M583 -191Q538 -191 515 -169T492 -111Q492 -76 514 -47T570 -1L479 233H144L54 0H18L286 695H342L612 0Q570 -22 549 -50T527 -108Q527 -165 587 -165Q601 -165 610 -162T628 -153L634 -179Q627
-184 615 -187T583 -191ZM310 667L155 263H467L310 667Z" />
<glyph unicode="&#x105;" glyph-name="aogonek" horiz-adv-x="499" d="M400 -191Q355 -191 332 -169T309 -111Q309 -76 332 -46T394 5Q384 35 384 94Q375 76 362 58T328 24T281 0T216 -10Q139 -10 95 28T50 138Q50 214 109 253T284 292H383V353Q383 421 349 452T244
483Q191 483 153 469T87 432L72 463Q95 479 139 496T247 513Q330 513 375 475T420 357V95Q420 67 422 42T429 0Q387 -22 366 -50T344 -108Q344 -165 404 -165Q418 -165 427 -162T445 -153L451 -179Q444 -184 432 -187T400 -191ZM221 19Q258 19 285 31T332 61T363
99T383 137V266H287Q184 266 136 235T87 139Q87 81 121 50T221 19Z" />
<glyph unicode="&#x106;" glyph-name="Cacute" horiz-adv-x="625" d="M364 -10Q294 -10 237 14T138 85T73 197T50 347Q50 431 73 497T138 609T239 679T370 704Q443 704 493 684T574 638L566 604Q530 633 480 653T372 673Q307 673 255 651T167 586T112 484T92 347Q92
270 111 210T165 107T251 43T365 21Q424 21 476 39T564 90L574 58Q545 32 493 11T364 -10ZM417 864H469L379 750H343L417 864Z" />
<glyph unicode="&#x107;" glyph-name="cacute" horiz-adv-x="482" d="M291 -10Q237 -10 193 7T117 59T68 141T50 251Q50 313 68 361T120 444T197 495T294 513Q339 513 379 505T446 477L434 443Q405 466 373 475T294 485Q249 485 211 469T146 423T103 350T87 251Q87
197 102 154T144 80T208 34T291 18Q333 18 365 28T427 57L439 32Q413 15 377 3T291 -10ZM338 715H386L291 579H259L338 715Z" />
<glyph unicode="&#x108;" glyph-name="Ccircumflex" horiz-adv-x="625" d="M364 -10Q294 -10 237 14T138 85T73 197T50 347Q50 431 73 497T138 609T239 679T370 704Q443 704 493 684T574 638L566 604Q530 633 480 653T372 673Q307 673 255 651T167 586T112 484T92
347Q92 270 111 210T165 107T251 43T365 21Q424 21 476 39T564 90L574 58Q545 32 493 11T364 -10ZM366 837L279 757H246L344 864H387L486 757H452L366 837Z" />
<glyph unicode="&#x109;" glyph-name="ccircumflex" horiz-adv-x="482" d="M291 -10Q237 -10 193 7T117 59T68 141T50 251Q50 313 68 361T120 444T197 495T294 513Q339 513 379 505T446 477L434 443Q405 466 373 475T294 485Q249 485 211 469T146 423T103 350T87
251Q87 197 102 154T144 80T208 34T291 18Q333 18 365 28T427 57L439 32Q413 15 377 3T291 -10ZM277 678L186 579H155L257 705H296L399 579H368L277 678Z" />
<glyph unicode="&#x10a;" glyph-name="Cdotaccent" horiz-adv-x="625" d="M364 -10Q294 -10 237 14T138 85T73 197T50 347Q50 431 73 497T138 609T239 679T370 704Q443 704 493 684T574 638L566 604Q530 633 480 653T372 673Q307 673 255 651T167 586T112 484T92
347Q92 270 111 210T165 107T251 43T365 21Q424 21 476 39T564 90L574 58Q545 32 493 11T364 -10ZM368 775Q354 775 346 784T338 805Q338 817 346 826T368 836Q382 836 390 827T399 805Q399 794 391 785T368 775Z" />
<glyph unicode="&#x10b;" glyph-name="cdotaccent" horiz-adv-x="482" d="M291 -10Q237 -10 193 7T117 59T68 141T50 251Q50 313 68 361T120 444T197 495T294 513Q339 513 379 505T446 477L434 443Q405 466 373 475T294 485Q249 485 211 469T146 423T103 350T87
251Q87 197 102 154T144 80T208 34T291 18Q333 18 365 28T427 57L439 32Q413 15 377 3T291 -10ZM277 615Q263 615 255 624T247 646Q247 658 255 667T277 676Q291 676 299 667T308 646Q308 634 300 625T277 615Z" />
<glyph unicode="&#x10c;" glyph-name="Ccaron" horiz-adv-x="625" d="M364 -10Q294 -10 237 14T138 85T73 197T50 347Q50 431 73 497T138 609T239 679T370 704Q443 704 493 684T574 638L566 604Q530 633 480 653T372 673Q307 673 255 651T167 586T112 484T92 347Q92
270 111 210T165 107T251 43T365 21Q424 21 476 39T564 90L574 58Q545 32 493 11T364 -10ZM345 757L247 864H280L367 784L453 864H487L388 757H345Z" />
<glyph unicode="&#x10d;" glyph-name="ccaron" horiz-adv-x="482" d="M291 -10Q237 -10 193 7T117 59T68 141T50 251Q50 313 68 361T120 444T197 495T294 513Q339 513 379 505T446 477L434 443Q405 466 373 475T294 485Q249 485 211 469T146 423T103 350T87 251Q87
197 102 154T144 80T208 34T291 18Q333 18 365 28T427 57L439 32Q413 15 377 3T291 -10ZM258 579L155 705H186L277 605L368 705H399L297 579H258Z" />
<glyph unicode="&#x10e;" glyph-name="Dcaron" horiz-adv-x="679" d="M127 665V30H306Q365 30 416 51T504 113T563 218T584 365Q584 449 563 506T506 599T421 650T317 665H127ZM88 695H316Q380 695 436 678T535 622T601 520T626 366Q626 274 602 206T534 92T433
23T305 0H88V695ZM298 757L200 864H233L320 784L406 864H440L341 757H298Z" />
<glyph unicode="&#x10f;" glyph-name="dcaron" horiz-adv-x="592" d="M279 18Q320 18 355 33T416 78T456 151T471 252Q471 309 457 352T417 425T356 470T279 485Q238 485 203 470T142 426T102 353T87 252Q87 195 101 152T141 79T202 34T279 18ZM471 131Q447 65
397 28T275 -10Q228 -10 187 7T116 58T68 140T50 252Q50 315 67 363T115 445T187 496T275 513Q345 513 395 479T470 379V725H507V0H475L471 131ZM569 572L599 725H641L595 572H569Z" />
<glyph unicode="&#x110;" glyph-name="Dcroat" horiz-adv-x="713" d="M415 340V30H594Q654 30 705 51T793 113T852 218T873 365Q873 450 852 507T795 600T709 650T605 665H415V369H666V340H415ZM375 340H266V369H375V695H605Q669 695 725 678T824 622T890 520T915
366Q915 274 891 206T823 92T721 23T593 0H375V340Z" />
<glyph unicode="&#x111;" glyph-name="dcroat" horiz-adv-x="589" d="M471 131Q447 65 397 28T275 -10Q228 -10 187 7T116 58T68 140T50 252Q50 315 67 363T115 445T187 496T275 513Q345 513 395 479T470 379V591H279V619H470V725H507V619H588V591H507V0H475L471
131ZM279 18Q320 18 355 33T416 78T456 151T471 252Q471 309 457 352T417 425T356 470T279 485Q238 485 203 470T142 426T102 353T87 252Q87 195 101 152T141 79T202 34T279 18Z" />
<glyph unicode="&#x112;" glyph-name="Emacron" horiz-adv-x="527" d="M88 695H471V665H127V383H430V353H127V30H476V0H88V695ZM175 815H408V786H175V815Z" />
<glyph unicode="&#x113;" glyph-name="emacron" horiz-adv-x="510" d="M272 485Q237 485 206 472T150 434T109 371T88 285H429Q435 336 425 373T392 436T338 473T272 485ZM455 35Q428 16 387 3T279 -10Q170 -10 110 58T50 252Q50 313 67 361T115 444T185 495T273
513Q319 513 358 497T424 449T462 369T464 257H87V252Q87 140 138 80T281 20Q378 20 444 62L455 35ZM158 655H389V626H158V655Z" />
<glyph unicode="&#x114;" glyph-name="Ebreve" horiz-adv-x="527" d="M88 695H471V665H127V383H430V353H127V30H476V0H88V695ZM285 751Q255 751 233 760T196 785T174 819T165 860H196Q198 827 221 804T285 781Q327 781 349 804T374 860H406Q405 839 398 820T375
785T338 761T285 751Z" />
<glyph unicode="&#x115;" glyph-name="ebreve" horiz-adv-x="510" d="M272 485Q237 485 206 472T150 434T109 371T88 285H429Q435 336 425 373T392 436T338 473T272 485ZM455 35Q428 16 387 3T279 -10Q170 -10 110 58T50 252Q50 313 67 361T115 444T185 495T273
513Q319 513 358 497T424 449T462 369T464 257H87V252Q87 140 138 80T281 20Q378 20 444 62L455 35ZM273 573Q244 573 223 582T187 607T166 643T158 684H189Q191 649 212 626T273 603Q314 603 334 626T357 684H389Q388 663 381 643T360 608T325 583T273 573Z" />
<glyph unicode="&#x116;" glyph-name="Edotaccent" horiz-adv-x="527" d="M88 695H471V665H127V383H430V353H127V30H476V0H88V695ZM293 775Q279 775 271 784T263 805Q263 817 271 826T293 836Q307 836 315 827T324 805Q324 794 316 785T293 775Z" />
<glyph unicode="&#x117;" glyph-name="edotaccent" horiz-adv-x="510" d="M272 485Q237 485 206 472T150 434T109 371T88 285H429Q435 336 425 373T392 436T338 473T272 485ZM455 35Q428 16 387 3T279 -10Q170 -10 110 58T50 252Q50 313 67 361T115 444T185 495T273
513Q319 513 358 497T424 449T462 369T464 257H87V252Q87 140 138 80T281 20Q378 20 444 62L455 35ZM273 615Q259 615 251 624T243 646Q243 658 251 667T273 676Q287 676 295 667T304 646Q304 634 296 625T273 615Z" />
<glyph unicode="&#x118;" glyph-name="Eogonek" horiz-adv-x="527" d="M88 695H471V665H127V383H430V353H127V30H476V0H88V695ZM426 -191Q381 -191 358 -169T335 -111Q335 -76 357 -47T415 0H455Q413 -22 392 -50T370 -108Q370 -165 430 -165Q444 -165 453 -162T471
-153L477 -179Q470 -184 458 -187T426 -191Z" />
<glyph unicode="&#x119;" glyph-name="eogonek" horiz-adv-x="510" d="M291 -108Q291 -165 351 -165Q365 -165 374 -162T392 -153L398 -179Q391 -184 379 -187T347 -191Q302 -191 279 -169T256 -111Q256 -84 273 -58T328 -7Q305 -10 281 -10Q172 -10 111 58T50
252Q50 313 67 361T115 444T185 495T273 513Q319 513 358 497T424 449T462 369T464 257H87Q89 142 140 81T283 20Q337 20 377 37T440 71L454 45Q440 31 400 11Q339 -18 315 -48T291 -108ZM272 485Q239 485 207 472T150 434T108 371T88 285H429Q435 336 425 373T392
436T338 473T272 485Z" />
<glyph unicode="&#x11a;" glyph-name="Ecaron" horiz-adv-x="527" d="M88 695H471V665H127V383H430V353H127V30H476V0H88V695ZM266 757L168 864H201L288 784L374 864H408L309 757H266Z" />
<glyph unicode="&#x11b;" glyph-name="ecaron" horiz-adv-x="510" d="M272 485Q237 485 206 472T150 434T109 371T88 285H429Q435 336 425 373T392 436T338 473T272 485ZM455 35Q428 16 387 3T279 -10Q170 -10 110 58T50 252Q50 313 67 361T115 444T185 495T273
513Q319 513 358 497T424 449T462 369T464 257H87V252Q87 140 138 80T281 20Q378 20 444 62L455 35ZM254 579L151 705H182L273 605L364 705H395L293 579H254Z" />
<glyph unicode="&#x11c;" glyph-name="Gcircumflex" horiz-adv-x="721" d="M664 267Q664 204 646 153T591 65T503 10T384 -10Q313 -10 252 14T147 84T78 196T53 347Q53 431 77 497T146 610T254 680T395 704Q478 704 535 685T624 642L615 605Q581 635 527 654T397
673Q327 673 271 651T176 588T116 486T95 347Q95 270 116 209T176 106T268 42T384 20Q442 20 486 37T562 86T609 163T625 264V320H363V350H664V267V267ZM372 837L285 757H252L350 864H393L492 757H458L372 837Z" />
<glyph unicode="&#x11d;" glyph-name="gcircumflex" horiz-adv-x="597" d="M286 48Q327 48 362 62T422 104T462 172T476 267Q476 321 462 361T423 429T362 471T286 485Q244 485 208 471T144 430T102 362T87 267Q87 214 102 173T144 104T207 62T286 48ZM268 -189Q230
-189 201 -184T149 -170T110 -153T82 -137L94 -104Q106 -112 121 -121T158 -139T206 -153T268 -159Q371 -159 423 -114T475 26V152Q452 89 403 54T282 19Q233 19 191 35T118 83T68 161T50 267Q50 326 68 372T117 449T191 497T282 513Q354 513 404 478T478 379V383Q478
431 480 460T484 503H517Q512 475 512 383V26Q512 -79 451 -134T268 -189ZM283 678L192 579H161L263 705H302L405 579H374L283 678Z" />
<glyph unicode="&#x11e;" glyph-name="Gbreve" horiz-adv-x="721" d="M664 267Q664 204 646 153T591 65T503 10T384 -10Q313 -10 252 14T147 84T78 196T53 347Q53 431 77 497T146 610T254 680T395 704Q478 704 535 685T624 642L615 605Q581 635 527 654T397 673Q327
673 271 651T176 588T116 486T95 347Q95 270 116 209T176 106T268 42T384 20Q442 20 486 37T562 86T609 163T625 264V320H363V350H664V267V267ZM372 751Q342 751 320 760T283 785T261 819T252 860H283Q285 827 308 804T372 781Q414 781 436 804T461 860H493Q492
839 485 820T462 785T425 761T372 751Z" />
<glyph unicode="&#x11f;" glyph-name="gbreve" horiz-adv-x="597" d="M286 48Q327 48 362 62T422 104T462 172T476 267Q476 321 462 361T423 429T362 471T286 485Q244 485 208 471T144 430T102 362T87 267Q87 214 102 173T144 104T207 62T286 48ZM268 -189Q230
-189 201 -184T149 -170T110 -153T82 -137L94 -104Q106 -112 121 -121T158 -139T206 -153T268 -159Q371 -159 423 -114T475 26V152Q452 89 403 54T282 19Q233 19 191 35T118 83T68 161T50 267Q50 326 68 372T117 449T191 497T282 513Q354 513 404 478T478 379V383Q478
431 480 460T484 503H517Q512 475 512 383V26Q512 -79 451 -134T268 -189ZM283 573Q254 573 233 582T197 607T176 643T168 684H199Q201 649 222 626T283 603Q324 603 344 626T367 684H399Q398 663 391 643T370 608T335 583T283 573Z" />
<glyph unicode="&#x120;" glyph-name="Gdotaccent" horiz-adv-x="721" d="M664 267Q664 204 646 153T591 65T503 10T384 -10Q313 -10 252 14T147 84T78 196T53 347Q53 431 77 497T146 610T254 680T395 704Q478 704 535 685T624 642L615 605Q581 635 527 654T397
673Q327 673 271 651T176 588T116 486T95 347Q95 270 116 209T176 106T268 42T384 20Q442 20 486 37T562 86T609 163T625 264V320H363V350H664V267V267ZM372 775Q358 775 350 784T342 805Q342 817 350 826T372 836Q386 836 394 827T403 805Q403 794 395 785T372
775Z" />
<glyph unicode="&#x121;" glyph-name="gdotaccent" horiz-adv-x="597" d="M286 48Q327 48 362 62T422 104T462 172T476 267Q476 321 462 361T423 429T362 471T286 485Q244 485 208 471T144 430T102 362T87 267Q87 214 102 173T144 104T207 62T286 48ZM268 -189Q230
-189 201 -184T149 -170T110 -153T82 -137L94 -104Q106 -112 121 -121T158 -139T206 -153T268 -159Q371 -159 423 -114T475 26V152Q452 89 403 54T282 19Q233 19 191 35T118 83T68 161T50 267Q50 326 68 372T117 449T191 497T282 513Q354 513 404 478T478 379V383Q478
431 480 460T484 503H517Q512 475 512 383V26Q512 -79 451 -134T268 -189ZM283 615Q269 615 261 624T253 646Q253 658 261 667T283 676Q297 676 305 667T314 646Q314 634 306 625T283 615Z" />
<glyph unicode="&#x122;" glyph-name="uni0122" horiz-adv-x="721" d="M664 267Q664 204 646 153T591 65T503 10T384 -10Q313 -10 252 14T147 84T78 196T53 347Q53 431 77 497T146 610T254 680T395 704Q478 704 535 685T624 642L615 605Q581 635 527 654T397 673Q327
673 271 651T176 588T116 486T95 347Q95 270 116 209T176 106T268 42T384 20Q442 20 486 37T562 86T609 163T625 264V320H363V350H664V267V267ZM354 -167Q365 -155 373 -141T387 -108Q373 -106 367 -99T360 -80Q360 -68 368 -60T389 -52Q402 -52 411 -60T420 -88Q420
-111 409 -131T385 -167H354Z" />
<glyph unicode="&#x123;" glyph-name="uni0123" horiz-adv-x="597" d="M286 48Q327 48 362 62T422 104T462 172T476 267Q476 321 462 361T423 429T362 471T286 485Q244 485 208 471T144 430T102 362T87 267Q87 214 102 173T144 104T207 62T286 48ZM268 -189Q230
-189 201 -184T149 -170T110 -153T82 -137L94 -104Q106 -112 121 -121T158 -139T206 -153T268 -159Q371 -159 423 -114T475 26V152Q452 89 403 54T282 19Q233 19 191 35T118 83T68 161T50 267Q50 326 68 372T117 449T191 497T282 513Q354 513 404 478T478 379V383Q478
431 480 460T484 503H517Q512 475 512 383V26Q512 -79 451 -134T268 -189ZM262 618Q249 618 240 626T231 654Q231 677 242 697T266 733H297Q286 721 278 707T264 674Q291 669 291 646Q291 634 283 626T262 618Z" />
<glyph unicode="&#x124;" glyph-name="Hcircumflex" horiz-adv-x="691" d="M565 330H127V0H88V695H127V360H565V695H604V0H565V330ZM348 837L261 757H228L326 864H369L468 757H434L348 837Z" />
<glyph unicode="&#x125;" glyph-name="hcircumflex" horiz-adv-x="565" d="M119 0H82V725H119V388H120Q130 411 147 433T188 473T245 502T319 513Q399 513 443 472T487 352V0H450V351Q450 418 415 450T311 483Q271 483 241 472T187 441T147 396T119 345V0ZM286
867L199 787H166L264 894H307L406 787H372L286 867Z" />
<glyph unicode="&#x126;" glyph-name="Hbar" horiz-adv-x="746" d="M592 330H154V0H115V525H21V555H115V695H154V555H592V695H631V555H725V525H631V0H592V330ZM592 360V525H154V360H592Z" />
<glyph unicode="&#x127;" glyph-name="hbar" horiz-adv-x="565" d="M119 0H82V591H-10V619H82V725H119V619H299V591H119V388H120Q130 411 147 433T188 473T245 502T319 513Q399 513 443 472T487 352V0H450V351Q450 418 415 450T311 483Q271 483 241 472T187 441T147
396T119 345V0Z" />
<glyph unicode="&#x128;" glyph-name="Itilde" horiz-adv-x="215" d="M127 695V0H88V695H127ZM222 766Q220 802 236 828T291 855Q313 855 332 846T368 827T401 808T435 799Q474 799 477 857H505Q506 821 489 795T436 768Q413 768 395 777T359 796T325 816T291
825Q251 825 249 766H222Z" />
<glyph unicode="&#x129;" glyph-name="itilde" horiz-adv-x="201" d="M119 503V0H82V503H119ZM217 589Q216 624 232 651T286 678Q307 678 324 669T357 650T388 630T420 621Q458 621 460 680H489Q490 644 474 618T421 591Q399 591 382 600T349 619T318 639T286
648Q248 648 246 589H217Z" />
<glyph unicode="&#x12a;" glyph-name="Imacron" horiz-adv-x="215" d="M127 695V0H88V695H127ZM247 815H480V786H247V815Z" />
<glyph unicode="&#x12b;" glyph-name="imacron" horiz-adv-x="201" d="M18 655H185V626H18V655ZM119 503V0H82V503H119Z" />
<glyph unicode="&#x12c;" glyph-name="Ibreve" horiz-adv-x="215" d="M127 695V0H88V695H127ZM363 751Q333 751 311 760T274 785T252 819T243 860H274Q276 827 299 804T363 781Q405 781 427 804T452 860H484Q483 839 476 820T453 785T416 761T363 751Z" />
<glyph unicode="&#x12d;" glyph-name="ibreve" horiz-adv-x="201" d="M119 503V0H82V503H119ZM357 573Q328 573 307 582T271 607T250 643T242 684H273Q275 649 296 626T357 603Q398 603 418 626T441 684H473Q472 663 465 643T444 608T409 583T357 573Z" />
<glyph unicode="&#x12e;" glyph-name="Iogonek" horiz-adv-x="215" d="M16 -114Q16 -76 36 -48T88 1V695H127V0Q51 -47 51 -109Q51 -135 65 -150T105 -165Q119 -165 128 -162T146 -153L152 -179Q145 -184 133 -187T102 -191Q60 -191 38 -170T16 -114Z" />
<glyph unicode="&#x12f;" glyph-name="iogonek" horiz-adv-x="201" d="M101 615Q87 615 79 624T70 646Q70 658 78 667T101 677Q115 677 123 668T131 646Q131 634 123 625T101 615ZM94 -191Q52 -191 30 -170T8 -114Q8 -79 29 -49T82 2V503H119V0Q81 -23 62 -51T43
-109Q43 -135 57 -150T97 -165Q111 -165 120 -162T138 -153L144 -179Q137 -184 125 -187T94 -191Z" />
<glyph unicode="&#x130;" glyph-name="Idotaccent" horiz-adv-x="215" d="M127 695V0H88V695H127ZM363 775Q349 775 341 784T333 805Q333 817 341 826T363 836Q377 836 385 827T394 805Q394 794 386 785T363 775Z" />
<glyph unicode="&#x131;" glyph-name="dotlessi" horiz-adv-x="201" d="M119 503V0H82V503H119Z" />
<glyph unicode="&#x132;" glyph-name="IJ" horiz-adv-x="543" d="M128 695V0H88V695H128ZM460 695V133Q460 102 453 76T430 31T390 1T329 -10Q303 -10 280 -5T240 11V41Q257 33 278 28T324 22Q380 22 400 51T420 138V695H460Z" />
<glyph unicode="&#x133;" glyph-name="ij" horiz-adv-x="421" d="M101 615Q87 615 79 624T70 646Q70 658 78 667T101 677Q115 677 123 668T131 646Q131 634 123 625T101 615ZM119 503V0H82V503H119ZM321 615Q307 615 299 624T290 646Q290 658 298 667T321 677Q335
677 343 668T351 646Q351 634 343 625T321 615ZM340 -44Q340 -71 333 -98T311 -146T272 -181T212 -196L206 -166Q254 -164 278 -134T303 -55V503H340V-44Z" />
<glyph unicode="&#x134;" glyph-name="Jcircumflex" horiz-adv-x="336" d="M253 695V133Q253 102 246 76T223 31T182 1T121 -10Q95 -10 72 -5T34 11L40 41Q55 33 74 28T116 22Q172 22 193 53T214 137V695H253ZM233 837L146 757H113L211 864H254L353 757H319L233 837Z" />
<glyph unicode="&#x135;" glyph-name="jcircumflex" horiz-adv-x="203" d="M106 678L33 579H4L86 705H125L208 579H179L106 678ZM125 -44Q125 -71 118 -98T96 -146T57 -181T-3 -196L-9 -166Q39 -164 63 -134T88 -55V503H125V-44Z" />
<glyph unicode="&#x136;" glyph-name="uni0136" horiz-adv-x="596" d="M517 0L165 349L507 695H550L211 353L567 0H517ZM127 695V0H88V695H127ZM263 -167Q274 -155 282 -141T296 -108Q282 -106 276 -99T269 -80Q269 -68 277 -60T298 -52Q311 -52 320 -60T329 -88Q329
-111 318 -131T294 -167H263Z" />
<glyph unicode="&#x137;" glyph-name="uni0137" horiz-adv-x="457" d="M119 725V0H82V725H119ZM387 0L145 265L376 503H417L188 270L433 0H387ZM198 -167Q209 -155 217 -141T231 -108Q217 -106 211 -99T204 -80Q204 -68 212 -60T233 -52Q246 -52 255 -60T264 -88Q264
-111 253 -131T229 -167H198Z" />
<glyph unicode="&#x139;" glyph-name="Lacute" horiz-adv-x="517" d="M88 695H127V30H467V0H88V695ZM416 864H468L378 750H342L416 864Z" />
<glyph unicode="&#x13a;" glyph-name="lacute" horiz-adv-x="201" d="M119 725V0H82V725H119ZM407 894H459L369 780H333L407 894Z" />
<glyph unicode="&#x13b;" glyph-name="uni013B" horiz-adv-x="517" d="M88 695H127V30H467V0H88V695ZM266 -167Q277 -155 285 -141T299 -108Q285 -106 279 -99T272 -80Q272 -68 280 -60T301 -52Q314 -52 323 -60T332 -88Q332 -111 321 -131T297 -167H266Z" />
<glyph unicode="&#x13c;" glyph-name="uni013C" horiz-adv-x="201" d="M119 725V0H82V725H119ZM321 -167Q332 -155 340 -141T354 -108Q340 -106 334 -99T327 -80Q327 -68 335 -60T356 -52Q369 -52 378 -60T387 -88Q387 -111 376 -131T352 -167H321Z" />
<glyph unicode="&#x13d;" glyph-name="Lcaron" horiz-adv-x="517" d="M88 695H127V30H467V0H88V695ZM233 798L263 951H305L259 798H233Z" />
<glyph unicode="&#x13e;" glyph-name="lcaron" horiz-adv-x="179" d="M119 725V0H82V725H119ZM441 572L471 725H513L467 572H441Z" />
<glyph unicode="&#x13f;" glyph-name="Ldot" horiz-adv-x="517" d="M88 695H127V30H467V0H88V695ZM408 323Q392 323 383 333T374 358Q374 372 383 381T408 391Q424 391 433 382T443 358Q443 344 434 334T408 323Z" />
<glyph unicode="&#x140;" glyph-name="ldot" horiz-adv-x="269" d="M374 725V0H337V725H374ZM233 333Q217 333 208 343T199 368Q199 382 208 391T233 401Q249 401 258 392T268 368Q268 354 259 344T233 333Z" />
<glyph unicode="&#x141;" glyph-name="Lslash" horiz-adv-x="549" d="M28 244L120 301V695H159V325L387 467V433L159 291V30H499V0H120V266L28 209V244Z" />
<glyph unicode="&#x142;" glyph-name="lslash" horiz-adv-x="249" d="M32 356L106 413V725H143V442L220 502V468L143 408V0H106V379L32 322V356Z" />
<glyph unicode="&#x143;" glyph-name="Nacute" horiz-adv-x="697" d="M122 656V0H88V695H141L575 47V695H610V0H561L122 656ZM412 864H464L374 750H338L412 864Z" />
<glyph unicode="&#x144;" glyph-name="nacute" horiz-adv-x="565" d="M311 483Q271 483 241 472T187 441T147 396T119 345V0H82V503H115L118 388H120Q130 411 147 433T188 473T245 502T319 513Q399 513 443 472T487 352V0H450V351Q450 418 415 450T311 483ZM342
715H390L295 579H263L342 715Z" />
<glyph unicode="&#x145;" glyph-name="uni0145" horiz-adv-x="697" d="M122 656V0H88V695H141L575 47V695H610V0H561L122 656ZM306 -167Q317 -155 325 -141T339 -108Q325 -106 319 -99T312 -80Q312 -68 320 -60T341 -52Q354 -52 363 -60T372 -88Q372 -111 361
-131T337 -167H306Z" />
<glyph unicode="&#x146;" glyph-name="uni0146" horiz-adv-x="565" d="M311 483Q271 483 241 472T187 441T147 396T119 345V0H82V503H115L118 388H120Q130 411 147 433T188 473T245 502T319 513Q399 513 443 472T487 352V0H450V351Q450 418 415 450T311 483ZM245
-167Q256 -155 264 -141T278 -108Q264 -106 258 -99T251 -80Q251 -68 259 -60T280 -52Q293 -52 302 -60T311 -88Q311 -111 300 -131T276 -167H245Z" />
<glyph unicode="&#x147;" glyph-name="Ncaron" horiz-adv-x="697" d="M122 656V0H88V695H141L575 47V695H610V0H561L122 656ZM338 757L240 864H273L360 784L446 864H480L381 757H338Z" />
<glyph unicode="&#x148;" glyph-name="ncaron" horiz-adv-x="565" d="M311 483Q271 483 241 472T187 441T147 396T119 345V0H82V503H115L118 388H120Q130 411 147 433T188 473T245 502T319 513Q399 513 443 472T487 352V0H450V351Q450 418 415 450T311 483ZM261
579L158 705H189L280 605L371 705H402L300 579H261Z" />
<glyph unicode="&#x14a;" glyph-name="Eng" horiz-adv-x="698" d="M479 -193Q452 -193 430 -188T392 -174V-144Q408 -152 429 -157T475 -163Q532 -163 553 -132T575 -43V0H561L123 656V0H88V695H141L575 49V695H610V-45Q610 -111 581 -152T479 -193Z" />
<glyph unicode="&#x14b;" glyph-name="eng" horiz-adv-x="557" d="M487 -44Q487 -71 480 -98T458 -146T419 -181T359 -196L353 -166Q401 -164 425 -134T450 -55V351Q450 418 415 450T311 483Q271 483 241 472T187 441T147 397T119 345V0H82V503H115L118 388H120Q130
411 147 433T188 473T245 502T319 513Q399 513 443 472T487 352V-44V-44Z" />
<glyph unicode="&#x14c;" glyph-name="Omacron" horiz-adv-x="748" d="M374 -10Q304 -10 245 14T143 85T75 199T50 350Q50 435 74 501T142 612T245 680T374 704Q444 704 503 681T606 612T673 500T698 350Q698 266 674 199T606 86T504 15T374 -10ZM374 20Q435 20
487 41T577 103T636 205T657 347Q657 427 636 488T577 590T487 653T374 674Q312 674 261 653T171 591T112 488T91 347Q91 267 112 206T171 103T260 41T374 20ZM258 815H491V786H258V815Z" />
<glyph unicode="&#x14d;" glyph-name="omacron" horiz-adv-x="575" d="M287 -10Q239 -10 196 7T120 58T69 141T50 252Q50 314 69 362T120 444T195 495T287 513Q336 513 379 496T455 445T506 363T525 252Q525 190 506 141T455 59T380 8T287 -10ZM287 18Q327 18
363 32T427 76T471 149T487 252Q487 311 471 354T428 427T364 470T287 485Q247 485 211 471T148 427T104 355T87 252Q87 193 103 149T147 76T211 33T287 18ZM172 655H403V626H172V655Z" />
<glyph unicode="&#x14e;" glyph-name="Obreve" horiz-adv-x="748" d="M374 -10Q304 -10 245 14T143 85T75 199T50 350Q50 435 74 501T142 612T245 680T374 704Q444 704 503 681T606 612T673 500T698 350Q698 266 674 199T606 86T504 15T374 -10ZM374 20Q435 20
487 41T577 103T636 205T657 347Q657 427 636 488T577 590T487 653T374 674Q312 674 261 653T171 591T112 488T91 347Q91 267 112 206T171 103T260 41T374 20ZM374 751Q344 751 322 760T285 785T263 819T254 860H285Q287 827 310 804T374 781Q416 781 438 804T463
860H495Q494 839 487 820T464 785T427 761T374 751Z" />
<glyph unicode="&#x14f;" glyph-name="obreve" horiz-adv-x="575" d="M287 -10Q239 -10 196 7T120 58T69 141T50 252Q50 314 69 362T120 444T195 495T287 513Q336 513 379 496T455 445T506 363T525 252Q525 190 506 141T455 59T380 8T287 -10ZM287 18Q327 18 363
32T427 76T471 149T487 252Q487 311 471 354T428 427T364 470T287 485Q247 485 211 471T148 427T104 355T87 252Q87 193 103 149T147 76T211 33T287 18ZM287 573Q258 573 237 582T201 607T180 643T172 684H203Q205 649 226 626T287 603Q328 603 348 626T371 684H403Q402
663 395 643T374 608T339 583T287 573Z" />
<glyph unicode="&#x150;" glyph-name="Ohungarumlaut" horiz-adv-x="748" d="M374 -10Q304 -10 245 14T143 85T75 199T50 350Q50 435 74 501T142 612T245 680T374 704Q444 704 503 681T606 612T673 500T698 350Q698 266 674 199T606 86T504 15T374 -10ZM374 20Q435
20 487 41T577 103T636 205T657 347Q657 427 636 488T577 590T487 653T374 674Q312 674 261 653T171 591T112 488T91 347Q91 267 112 206T171 103T260 41T374 20ZM422 750L479 864H524L456 750H422ZM282 750L338 864H384L315 750H282Z" />
<glyph unicode="&#x151;" glyph-name="ohungarumlaut" horiz-adv-x="575" d="M287 -10Q239 -10 196 7T120 58T69 141T50 252Q50 314 69 362T120 444T195 495T287 513Q336 513 379 496T455 445T506 363T525 252Q525 190 506 141T455 59T380 8T287 -10ZM287 18Q327
18 363 32T427 76T471 149T487 252Q487 311 471 354T428 427T364 470T287 485Q247 485 211 471T148 427T104 355T87 252Q87 193 103 149T147 76T211 33T287 18ZM333 579L391 715H434L365 579H333ZM212 579L270 715H313L245 579H212Z" />
<glyph unicode="&#x152;" glyph-name="OE" horiz-adv-x="941" d="M501 30V665H379Q320 665 269 650T179 599T118 506T95 362Q95 279 117 217T179 113T273 51T390 30H501ZM386 0Q315 0 254 22T149 90T79 204T53 362Q53 454 78 517T148 620T252 677T380 695H885V665H541V383H844V353H541V30H890V0H386Z"
/>
<glyph unicode="&#x153;" glyph-name="oe" horiz-adv-x="962" d="M713 485Q676 485 644 472T586 431T545 365T526 275H872Q878 329 867 368T834 434T780 472T713 485ZM286 18Q329 18 366 33T430 78T472 151T487 252Q487 309 472 352T430 425T366 470T286 485Q243
485 207 470T144 426T102 353T87 252Q87 195 102 152T143 79T206 34T286 18ZM902 44Q894 36 879 27T842 9T792 -4T730 -10Q642 -10 585 32T505 153Q482 74 424 32T286 -10Q236 -10 193 7T118 58T68 141T50 252Q50 314 68 362T117 444T192 495T286 513Q366 513 424
471T506 349Q529 428 584 470T714 513Q760 513 799 496T866 446T904 363T906 247H525Q527 138 581 79T732 20Q761 20 787 25T836 38T875 55T902 74V44Z" />
<glyph unicode="&#x154;" glyph-name="Racute" horiz-adv-x="595" d="M127 665V337H285Q329 337 367 346T432 376T475 428T491 508Q491 589 440 627T300 665H127ZM127 307V0H88V695H300Q407 695 469 650T531 509Q531 464 519 430T483 372T429 334T358 313L551
0H507L317 308Q309 307 301 307T285 307H127ZM337 864H389L299 750H263L337 864Z" />
<glyph unicode="&#x155;" glyph-name="racute" horiz-adv-x="321" d="M292 476Q229 471 186 437T119 332V0H82V503H114L118 376H120Q128 400 141 423T175 464T225 496T292 513V476V476ZM251 715H299L204 579H172L251 715Z" />
<glyph unicode="&#x156;" glyph-name="uni0156" horiz-adv-x="595" d="M127 665V337H285Q329 337 367 346T432 376T475 428T491 508Q491 589 440 627T300 665H127ZM127 307V0H88V695H300Q407 695 469 650T531 509Q531 464 519 430T483 372T429 334T358 313L551
0H507L317 308Q309 307 301 307T285 307H127ZM258 -167Q269 -155 277 -141T291 -108Q277 -106 271 -99T264 -80Q264 -68 272 -60T293 -52Q306 -52 315 -60T324 -88Q324 -111 313 -131T289 -167H258Z" />
<glyph unicode="&#x157;" glyph-name="uni0157" horiz-adv-x="321" d="M292 476Q229 471 186 437T119 332V0H82V503H114L118 376H120Q128 400 141 423T175 464T225 496T292 513V476V476ZM320 -167Q331 -155 339 -141T353 -108Q339 -106 333 -99T326 -80Q326 -68
334 -60T355 -52Q368 -52 377 -60T386 -88Q386 -111 375 -131T351 -167H320Z" />
<glyph unicode="&#x158;" glyph-name="Rcaron" horiz-adv-x="595" d="M127 665V337H285Q329 337 367 346T432 376T475 428T491 508Q491 589 440 627T300 665H127ZM127 307V0H88V695H300Q407 695 469 650T531 509Q531 464 519 430T483 372T429 334T358 313L551
0H507L317 308Q309 307 301 307T285 307H127ZM262 757L164 864H197L284 784L370 864H404L305 757H262Z" />
<glyph unicode="&#x159;" glyph-name="rcaron" horiz-adv-x="321" d="M292 476Q229 471 186 437T119 332V0H82V503H114L118 376H120Q128 400 141 423T175 464T225 496T292 513V476V476ZM426 579L323 705H354L445 605L536 705H567L465 579H426Z" />
<glyph unicode="&#x15a;" glyph-name="Sacute" horiz-adv-x="540" d="M259 -10Q211 -10 174 -4T110 12T66 33T39 52L45 86Q56 77 75 66T121 45T182 28T258 21Q299 21 335 29T397 57T439 105T455 177Q455 216 441 242T400 286T338 316T257 340Q218 350 182 362T117
395T71 446T53 524Q53 611 113 657T286 704Q354 704 394 692T461 665L457 632Q428 649 386 661T286 673Q192 673 142 636T91 525Q91 489 105 465T142 424T198 396T266 376Q302 366 342 355T417 323T473 268T495 179Q495 127 476 91T424 33T348 0T259 -10ZM321 864H373L283
750H247L321 864Z" />
<glyph unicode="&#x15b;" glyph-name="sacute" horiz-adv-x="457" d="M226 -10Q184 -10 153 -3T100 13T65 32T48 45L57 76Q63 71 77 62T113 43T163 27T226 20Q256 20 283 25T332 43T367 77T380 130Q380 159 369 178T336 209T286 229T221 244Q190 250 160 257T107
279T69 317T54 378Q54 446 103 479T238 513Q300 513 335 500T386 478L378 448Q363 457 329 470T239 483Q208 483 181 478T133 460T100 429T88 380Q88 354 98 337T126 309T168 291T223 278Q255 272 289 265T351 242T397 201T415 132Q415 91 399 64T356 20T295 -3T226
-10ZM291 715H339L244 579H212L291 715Z" />
<glyph unicode="&#x15c;" glyph-name="Scircumflex" horiz-adv-x="540" d="M259 -10Q211 -10 174 -4T110 12T66 33T39 52L45 86Q56 77 75 66T121 45T182 28T258 21Q299 21 335 29T397 57T439 105T455 177Q455 216 441 242T400 286T338 316T257 340Q218 350 182
362T117 395T71 446T53 524Q53 611 113 657T286 704Q354 704 394 692T461 665L457 632Q428 649 386 661T286 673Q192 673 142 636T91 525Q91 489 105 465T142 424T198 396T266 376Q302 366 342 355T417 323T473 268T495 179Q495 127 476 91T424 33T348 0T259 -10ZM269
837L182 757H149L247 864H290L389 757H355L269 837Z" />
<glyph unicode="&#x15d;" glyph-name="scircumflex" horiz-adv-x="457" d="M226 -10Q184 -10 153 -3T100 13T65 32T48 45L57 76Q63 71 77 62T113 43T163 27T226 20Q256 20 283 25T332 43T367 77T380 130Q380 159 369 178T336 209T286 229T221 244Q190 250 160
257T107 279T69 317T54 378Q54 446 103 479T238 513Q300 513 335 500T386 478L378 448Q363 457 329 470T239 483Q208 483 181 478T133 460T100 429T88 380Q88 354 98 337T126 309T168 291T223 278Q255 272 289 265T351 242T397 201T415 132Q415 91 399 64T356 20T295
-3T226 -10ZM230 678L139 579H108L210 705H249L352 579H321L230 678Z" />
<glyph unicode="&#x15e;" glyph-name="uni015E" horiz-adv-x="540" d="M239 -187Q213 -187 199 -184T176 -176L182 -150Q190 -155 202 -159T238 -163Q289 -163 289 -122Q289 -100 273 -91T224 -82H212L234 -9Q151 -5 103 15T39 52L45 86Q56 77 75 66T121 45T182
28T258 21Q299 21 335 29T397 57T439 105T455 177Q455 216 441 242T400 286T338 316T257 340Q218 350 182 362T117 395T71 446T53 524Q53 611 113 657T286 704Q354 704 394 692T461 665L457 632Q428 649 386 661T286 673Q192 673 142 636T91 525Q91 489 105 465T142
424T198 396T266 376Q302 366 342 355T417 323T473 268T495 179Q495 127 476 91T424 33T350 0T261 -10L246 -58Q290 -60 306 -78T323 -122Q323 -155 300 -171T239 -187Z" />
<glyph unicode="&#x15f;" glyph-name="uni015F" horiz-adv-x="457" d="M201 -187Q175 -187 161 -184T138 -176L144 -150Q152 -155 164 -159T200 -163Q251 -163 251 -122Q251 -100 235 -91T186 -82H174L196 -9Q161 -6 136 1T92 17T63 34T48 45L57 76Q63 71 77 62T113
43T163 27T226 20Q256 20 283 25T332 43T367 77T380 130Q380 159 369 178T336 209T286 229T221 244Q190 250 160 257T107 279T69 317T54 378Q54 446 103 479T238 513Q300 513 335 500T386 478L378 448Q363 457 329 470T239 483Q208 483 181 478T133 460T100 429T88
380Q88 354 98 337T126 309T168 291T223 278Q255 272 289 265T351 242T397 201T415 132Q415 91 399 64T356 20T295 -3T226 -10H223L208 -58Q252 -60 268 -78T285 -122Q285 -155 262 -171T201 -187Z" />
<glyph unicode="&#x160;" glyph-name="Scaron" horiz-adv-x="540" d="M259 -10Q211 -10 174 -4T110 12T66 33T39 52L45 86Q56 77 75 66T121 45T182 28T258 21Q299 21 335 29T397 57T439 105T455 177Q455 216 441 242T400 286T338 316T257 340Q218 350 182 362T117
395T71 446T53 524Q53 611 113 657T286 704Q354 704 394 692T461 665L457 632Q428 649 386 661T286 673Q192 673 142 636T91 525Q91 489 105 465T142 424T198 396T266 376Q302 366 342 355T417 323T473 268T495 179Q495 127 476 91T424 33T348 0T259 -10ZM246 757L148
864H181L268 784L354 864H388L289 757H246Z" />
<glyph unicode="&#x161;" glyph-name="scaron" horiz-adv-x="457" d="M226 -10Q184 -10 153 -3T100 13T65 32T48 45L57 76Q63 71 77 62T113 43T163 27T226 20Q256 20 283 25T332 43T367 77T380 130Q380 159 369 178T336 209T286 229T221 244Q190 250 160 257T107
279T69 317T54 378Q54 446 103 479T238 513Q300 513 335 500T386 478L378 448Q363 457 329 470T239 483Q208 483 181 478T133 460T100 429T88 380Q88 354 98 337T126 309T168 291T223 278Q255 272 289 265T351 242T397 201T415 132Q415 91 399 64T356 20T295 -3T226
-10ZM211 579L108 705H139L230 605L321 705H352L250 579H211Z" />
<glyph unicode="&#x162;" glyph-name="Tcommaaccent" horiz-adv-x="539" d="M290 665V0H250V665H28V695H511V665H290ZM234 -167Q245 -155 253 -141T267 -108Q253 -106 247 -99T240 -80Q240 -68 248 -60T269 -52Q282 -52 291 -60T300 -88Q300 -111 289 -131T265 -167H234Z" />
<glyph unicode="&#x163;" glyph-name="tcommaaccent" horiz-adv-x="340" d="M305 8Q296 2 274 -4T226 -10Q162 -10 133 22T103 107V474H34V503H103V609H140V503H294V474H140V113Q140 71 159 46T229 21Q252 21 269 26T297 36L305 8V8ZM407 -167Q418 -155 426 -141T440
-108Q426 -106 420 -99T413 -80Q413 -68 421 -60T442 -52Q455 -52 464 -60T473 -88Q473 -111 462 -131T438 -167H407Z" />
<glyph unicode="&#x164;" glyph-name="Tcaron" horiz-adv-x="539" d="M290 665V0H250V665H28V695H511V665H290ZM247 757L149 864H182L269 784L355 864H389L290 757H247Z" />
<glyph unicode="&#x165;" glyph-name="tcaron" horiz-adv-x="304" d="M305 8Q296 2 274 -4T226 -10Q162 -10 133 22T103 107V474H34V503H103V609H140V503H294V474H140V113Q140 71 159 46T229 21Q252 21 269 26T297 36L305 8V8ZM219 572L249 725H291L245 572H219Z" />
<glyph unicode="&#x166;" glyph-name="Tbar" horiz-adv-x="532" d="M59 399H250V665H28V695H511V665H290V399H480V370H290V0H250V370H59V399Z" />
<glyph unicode="&#x167;" glyph-name="tbar" horiz-adv-x="340" d="M305 8Q296 2 274 -4T226 -10Q162 -10 133 22T103 107V296H34V323H103V474H34V503H103V609H140V503H294V474H140V323H294V296H140V113Q140 71 159 46T229 21Q252 21 269 26T297 36L305 8Z" />
<glyph unicode="&#x168;" glyph-name="Utilde" horiz-adv-x="665" d="M73 695H113V240Q113 184 129 143T175 75T245 35T335 21Q381 21 421 34T492 75T539 143T556 242V695H592V243Q592 181 572 134T518 55T436 7T334 -10Q277 -10 230 5T147 52T93 130T73 240V695ZM194
766Q192 802 208 828T263 855Q285 855 304 846T340 827T373 808T407 799Q446 799 449 857H477Q478 821 461 795T408 768Q385 768 367 777T331 796T297 816T263 825Q223 825 221 766H194Z" />
<glyph unicode="&#x169;" glyph-name="utilde" horiz-adv-x="547" d="M428 112Q419 88 403 66T364 27T310 0T241 -10Q164 -10 121 32T78 158V503H115V158Q115 121 125 95T153 53T195 29T250 21Q287 21 315 31T364 60T401 102T428 154V503H466V0H433L429 112H428V112ZM133
589Q132 624 148 651T202 678Q223 678 240 669T273 650T304 630T336 621Q374 621 376 680H405Q406 644 390 618T337 591Q315 591 298 600T265 619T234 639T202 648Q164 648 162 589H133Z" />
<glyph unicode="&#x16a;" glyph-name="Umacron" horiz-adv-x="665" d="M73 695H113V240Q113 184 129 143T175 75T245 35T335 21Q381 21 421 34T492 75T539 143T556 242V695H592V243Q592 181 572 134T518 55T436 7T334 -10Q277 -10 230 5T147 52T93 130T73 240V695ZM219
815H452V786H219V815Z" />
<glyph unicode="&#x16b;" glyph-name="umacron" horiz-adv-x="547" d="M428 112Q419 88 403 66T364 27T310 0T241 -10Q164 -10 121 32T78 158V503H115V158Q115 121 125 95T153 53T195 29T250 21Q287 21 315 31T364 60T401 102T428 154V503H466V0H433L429 112H428V112ZM159
655H390V626H159V655Z" />
<glyph unicode="&#x16c;" glyph-name="Ubreve" horiz-adv-x="665" d="M73 695H113V240Q113 184 129 143T175 75T245 35T335 21Q381 21 421 34T492 75T539 143T556 242V695H592V243Q592 181 572 134T518 55T436 7T334 -10Q277 -10 230 5T147 52T93 130T73 240V695ZM335
751Q305 751 283 760T246 785T224 819T215 860H246Q248 827 271 804T335 781Q377 781 399 804T424 860H456Q455 839 448 820T425 785T388 761T335 751Z" />
<glyph unicode="&#x16d;" glyph-name="ubreve" horiz-adv-x="547" d="M428 112Q419 88 403 66T364 27T310 0T241 -10Q164 -10 121 32T78 158V503H115V158Q115 121 125 95T153 53T195 29T250 21Q287 21 315 31T364 60T401 102T428 154V503H466V0H433L429 112H428V112ZM274
573Q245 573 224 582T188 607T167 643T159 684H190Q192 649 213 626T274 603Q315 603 335 626T358 684H390Q389 663 382 643T361 608T326 583T274 573Z" />
<glyph unicode="&#x16e;" glyph-name="Uring" horiz-adv-x="665" d="M73 695H113V240Q113 184 129 143T175 75T245 35T335 21Q381 21 421 34T492 75T539 143T556 242V695H592V243Q592 181 572 134T518 55T436 7T334 -10Q277 -10 230 5T147 52T93 130T73 240V695ZM342
963Q307 963 284 985T261 1044Q261 1079 284 1101T342 1124Q378 1124 401 1102T424 1044Q424 1008 401 986T342 963ZM342 988Q366 988 381 1003T396 1044Q396 1069 381 1084T342 1099Q319 1099 304 1084T289 1044Q289 1018 303 1003T342 988Z" />
<glyph unicode="&#x16f;" glyph-name="uring" horiz-adv-x="547" d="M428 112Q419 88 403 66T364 27T310 0T241 -10Q164 -10 121 32T78 158V503H115V158Q115 121 125 95T153 53T195 29T250 21Q287 21 315 31T364 60T401 102T428 154V503H466V0H433L429 112H428V112ZM274
575Q239 575 216 597T193 656Q193 691 216 713T274 736Q310 736 333 714T356 656Q356 620 333 598T274 575ZM274 600Q298 600 313 615T328 656Q328 681 313 696T274 711Q251 711 236 696T221 656Q221 630 235 615T274 600Z" />
<glyph unicode="&#x170;" glyph-name="Uhungarumlaut" horiz-adv-x="665" d="M73 695H113V240Q113 184 129 143T175 75T245 35T335 21Q381 21 421 34T492 75T539 143T556 242V695H592V243Q592 181 572 134T518 55T436 7T334 -10Q277 -10 230 5T147 52T93 130T73
240V695ZM383 750L440 864H485L417 750H383ZM243 750L299 864H345L276 750H243Z" />
<glyph unicode="&#x171;" glyph-name="uhungarumlaut" horiz-adv-x="547" d="M428 112Q419 88 403 66T364 27T310 0T241 -10Q164 -10 121 32T78 158V503H115V158Q115 121 125 95T153 53T195 29T250 21Q287 21 315 31T364 60T401 102T428 154V503H466V0H433L429
112H428V112ZM320 579L378 715H421L352 579H320ZM199 579L257 715H300L232 579H199Z" />
<glyph unicode="&#x172;" glyph-name="Uogonek" horiz-adv-x="665" d="M340 -109Q340 -165 400 -165Q414 -165 423 -162T441 -153L447 -179Q440 -184 428 -187T396 -191Q351 -191 328 -169T305 -114Q305 -82 323 -55T376 -7Q356 -10 334 -10Q277 -10 230 5T147
52T93 130T73 240V695H113V240Q113 184 129 143T175 75T245 35T335 21Q381 21 421 34T492 75T539 143T556 242V695H592V243Q592 198 582 162T552 96T508 46T453 12Q389 -17 365 -48T340 -109Z" />
<glyph unicode="&#x173;" glyph-name="uogonek" horiz-adv-x="547" d="M349 -112Q349 -78 372 -48T433 4L429 112H428Q419 88 403 66T364 27T310 0T241 -10Q164 -10 121 32T78 158V503H115V158Q115 121 125 95T153 53T195 29T250 21Q287 21 315 31T364 60T401
102T428 154V503H466V0Q424 -26 404 -53T384 -109Q384 -166 444 -166Q458 -166 467 -163T485 -154L491 -180Q484 -185 472 -188T440 -192Q395 -192 372 -170T349 -112Z" />
<glyph unicode="&#x174;" glyph-name="Wcircumflex" horiz-adv-x="907" d="M41 695H82L249 37L434 695H480L665 39L831 695H866L691 0H636L454 646L272 0H217L41 695ZM456 837L369 757H336L434 864H477L576 757H542L456 837Z" />
<glyph unicode="&#x175;" glyph-name="wcircumflex" horiz-adv-x="673" d="M25 503H63L182 31L320 503H359L496 31L614 503H648L521 0H469L337 454L204 0H154L25 503ZM340 678L249 579H218L320 705H359L462 579H431L340 678Z" />
<glyph unicode="&#x176;" glyph-name="Ycircumflex" horiz-adv-x="568" d="M265 0V303L18 695H63L287 337L511 695H550L305 303V0H265ZM291 837L204 757H171L269 864H312L411 757H377L291 837Z" />
<glyph unicode="&#x177;" glyph-name="ycircumflex" horiz-adv-x="488" d="M97 -196Q77 -196 65 -194T44 -187L52 -156Q59 -159 68 -162T95 -166Q133 -166 163 -129T225 -12L18 503H57L244 33L435 503H470L267 7Q248 -41 231 -78T194 -142T151 -182T97 -196ZM245
678L154 579H123L225 705H264L367 579H336L245 678Z" />
<glyph unicode="&#x178;" glyph-name="Ydieresis" horiz-adv-x="568" d="M265 0V303L18 695H63L287 337L511 695H550L305 303V0H265ZM380 775Q366 775 358 784T349 805Q349 817 357 826T380 836Q394 836 402 827T410 805Q410 794 402 785T380 775ZM193 775Q179
775 171 784T163 805Q163 817 171 826T193 836Q207 836 215 827T224 805Q224 794 216 785T193 775Z" />
<glyph unicode="&#x179;" glyph-name="Zacute" horiz-adv-x="561" d="M46 0V28L469 665H56V695H514V667L91 30H515V0H46ZM339 864H391L301 750H265L339 864Z" />
<glyph unicode="&#x17a;" glyph-name="zacute" horiz-adv-x="425" d="M34 0V21L337 475H42V503H384V482L81 28H385V0H34ZM284 715H332L237 579H205L284 715Z" />
<glyph unicode="&#x17b;" glyph-name="Zdotaccent" horiz-adv-x="561" d="M46 0V28L469 665H56V695H514V667L91 30H515V0H46ZM288 775Q274 775 266 784T258 805Q258 817 266 826T288 836Q302 836 310 827T319 805Q319 794 311 785T288 775Z" />
<glyph unicode="&#x17c;" glyph-name="zdotaccent" horiz-adv-x="425" d="M34 0V21L337 475H42V503H384V482L81 28H385V0H34ZM223 615Q209 615 201 624T193 646Q193 658 201 667T223 676Q237 676 245 667T254 646Q254 634 246 625T223 615Z" />
<glyph unicode="&#x17d;" glyph-name="Zcaron" horiz-adv-x="561" d="M46 0V28L469 665H56V695H514V667L91 30H515V0H46ZM265 757L167 864H200L287 784L373 864H407L308 757H265Z" />
<glyph unicode="&#x17e;" glyph-name="zcaron" horiz-adv-x="425" d="M34 0V21L337 475H42V503H384V482L81 28H385V0H34ZM204 579L101 705H132L223 605L314 705H345L243 579H204Z" />
<glyph unicode="&#x192;" glyph-name="uni0192" horiz-adv-x="519" d="M30 -192Q7 -192 -12 -188T-44 -178L-36 -150Q-27 -154 -10 -158T29 -162Q58 -162 78 -151T112 -118T134 -68T149 -5L217 374H121L125 404H223L250 555Q257 592 269 623T301 677T348 713T412
726Q440 726 458 722T484 713L478 682Q469 686 453 690T415 694Q386 694 364 683T327 653T302 609T287 555L260 404H400L396 374H254L185 -6Q177 -48 166 -82T137 -141T93 -178T30 -192Z" />
<glyph unicode="&#x218;" glyph-name="uni0218" horiz-adv-x="540" d="M259 -10Q211 -10 174 -4T110 12T66 33T39 52L45 86Q56 77 75 66T121 45T182 28T258 21Q299 21 335 29T397 57T439 105T455 177Q455 216 441 242T400 286T338 316T257 340Q218 350 182 362T117
395T71 446T53 524Q53 611 113 657T286 704Q354 704 394 692T461 665L457 632Q428 649 386 661T286 673Q192 673 142 636T91 525Q91 489 105 465T142 424T198 396T266 376Q302 366 342 355T417 323T473 268T495 179Q495 127 476 91T424 33T348 0T259 -10ZM227 -167Q238
-155 246 -141T260 -108Q246 -106 240 -99T233 -80Q233 -68 241 -60T262 -52Q275 -52 284 -60T293 -88Q293 -111 282 -131T258 -167H227Z" />
<glyph unicode="&#x219;" glyph-name="uni0219" horiz-adv-x="457" d="M226 -10Q184 -10 153 -3T100 13T65 32T48 45L57 76Q63 71 77 62T113 43T163 27T226 20Q256 20 283 25T332 43T367 77T380 130Q380 159 369 178T336 209T286 229T221 244Q190 250 160 257T107
279T69 317T54 378Q54 446 103 479T238 513Q300 513 335 500T386 478L378 448Q363 457 329 470T239 483Q208 483 181 478T133 460T100 429T88 380Q88 354 98 337T126 309T168 291T223 278Q255 272 289 265T351 242T397 201T415 132Q415 91 399 64T356 20T295 -3T226
-10ZM191 -167Q202 -155 210 -141T224 -108Q210 -106 204 -99T197 -80Q197 -68 205 -60T226 -52Q239 -52 248 -60T257 -88Q257 -111 246 -131T222 -167H191Z" />
<glyph unicode="&#x21a;" glyph-name="uni021A" horiz-adv-x="539" d="M290 665V0H250V665H28V695H511V665H290ZM234 -167Q245 -155 253 -141T267 -108Q253 -106 247 -99T240 -80Q240 -68 248 -60T269 -52Q282 -52 291 -60T300 -88Q300 -111 289 -131T265 -167H234Z" />
<glyph unicode="&#x21b;" glyph-name="uni021B" horiz-adv-x="340" d="M305 8Q296 2 274 -4T226 -10Q162 -10 133 22T103 107V474H34V503H103V609H140V503H294V474H140V113Q140 71 159 46T229 21Q252 21 269 26T297 36L305 8V8ZM407 -167Q418 -155 426 -141T440
-108Q426 -106 420 -99T413 -80Q413 -68 421 -60T442 -52Q455 -52 464 -60T473 -88Q473 -111 462 -131T438 -167H407Z" />
<glyph unicode="&#x237;" glyph-name="uni0237" horiz-adv-x="203" d="M125 -44Q125 -71 118 -98T96 -146T57 -181T-3 -196L-9 -166Q39 -164 63 -134T88 -55V503H125V-44Z" />
<glyph unicode="&#x2bc;" glyph-name="uni02BC" horiz-adv-x="186" d="M55 546Q68 562 79 584T95 635Q67 637 67 665Q67 678 75 686T98 695Q112 695 121 686T131 658Q131 643 127 627T116 596T101 568T86 546H55Z" />
<glyph unicode="&#x2c6;" glyph-name="circumflex" horiz-adv-x="424" d="M212 678L121 579H90L192 705H231L334 579H303L212 678Z" />
<glyph unicode="&#x2c7;" glyph-name="caron" horiz-adv-x="424" d="M193 579L90 705H121L212 605L303 705H334L232 579H193Z" />
<glyph unicode="&#x2d8;" glyph-name="breve" horiz-adv-x="444" d="M222 573Q193 573 172 582T136 607T115 643T107 684H138Q140 649 161 626T222 603Q263 603 283 626T306 684H338Q337 663 330 643T309 608T274 583T222 573Z" />
<glyph unicode="&#x2d9;" glyph-name="dotaccent" horiz-adv-x="445" d="M222 615Q208 615 200 624T192 646Q192 658 200 667T222 676Q236 676 244 667T253 646Q253 634 245 625T222 615Z" />
<glyph unicode="&#x2da;" glyph-name="ring" horiz-adv-x="445" d="M222 575Q187 575 164 597T141 656Q141 691 164 713T222 736Q258 736 281 714T304 656Q304 620 281 598T222 575ZM222 600Q246 600 261 615T276 656Q276 681 261 696T222 711Q199 711 184 696T169
656Q169 630 183 615T222 600Z" />
<glyph unicode="&#x2db;" glyph-name="ogonek" horiz-adv-x="445" d="M226 -191Q181 -191 158 -169T135 -111Q135 -76 157 -47T215 0H255Q213 -22 192 -50T170 -108Q170 -165 230 -165Q244 -165 253 -162T271 -153L277 -179Q270 -184 258 -187T226 -191Z" />
<glyph unicode="&#x2dc;" glyph-name="tilde" horiz-adv-x="446" d="M87 589Q86 624 102 651T156 678Q177 678 194 669T227 650T258 630T290 621Q328 621 330 680H359Q360 644 344 618T291 591Q269 591 252 600T219 619T188 639T156 648Q118 648 116 589H87Z" />
<glyph unicode="&#x2dd;" glyph-name="hungarumlaut" horiz-adv-x="445" d="M252 579L310 715H353L284 579H252ZM131 579L189 715H232L164 579H131Z" />
<glyph unicode="&#x301;" glyph-name="acutecomb" horiz-adv-x="1" d="M-205 715H-157L-252 579H-284L-205 715Z" />
<glyph unicode="&#x401;" glyph-name="uni0401" horiz-adv-x="527" d="M88 695H471V665H127V383H430V353H127V30H476V0H88V695ZM378 775Q364 775 356 784T347 805Q347 817 355 826T378 836Q392 836 400 827T408 805Q408 794 400 785T378 775ZM191 775Q177 775
169 784T161 805Q161 817 169 826T191 836Q205 836 213 827T222 805Q222 794 214 785T191 775Z" />
<glyph unicode="&#x402;" glyph-name="uni0402" horiz-adv-x="740" d="M290 665V388Q313 406 350 416Q391 428 441 428Q558 428 626 364T694 177Q694 52 628 -15T441 -82L436 -50Q546 -50 600 11T654 177Q654 281 600 338T439 396Q350 396 290 355V0H250V665H28V695H511V665H290Z"
/>
<glyph unicode="&#x403;" glyph-name="uni0403" horiz-adv-x="485" d="M309 864H361L271 750H235L309 864ZM127 665V0H88V695H447V665H127Z" />
<glyph unicode="&#x404;" glyph-name="uni0404" horiz-adv-x="624" d="M573 58Q544 32 494 11T370 -10Q298 -10 239 14T138 85T73 197T50 347Q50 431 72 497T136 609T237 679T369 704Q442 704 492 684T573 638L565 604Q529 633 479 653T371 673Q307 673 257 652T170
590T114 492T92 360H457V330H92Q94 257 114 200T170 103T256 42T371 21Q427 21 477 40T563 91L573 58V58Z" />
<glyph unicode="&#x405;" glyph-name="uni0405" horiz-adv-x="539" d="M259 -10Q211 -10 174 -4T110 12T66 33T39 52L45 86Q56 77 75 66T121 45T182 28T258 21Q299 21 335 29T397 57T439 105T455 177Q455 216 441 242T400 286T338 316T257 340Q218 350 182 362T117
395T71 446T53 524Q53 611 113 657T286 704Q354 704 394 692T461 665L457 632Q428 649 386 661T286 673Q192 673 142 636T91 525Q91 489 105 465T142 424T198 396T266 376Q302 366 342 355T417 323T473 268T495 179Q495 127 476 91T424 33T348 0T259 -10Z" />
<glyph unicode="&#x406;" glyph-name="uni0406" horiz-adv-x="215" d="M127 695V0H88V695H127Z" />
<glyph unicode="&#x407;" glyph-name="uni0407" horiz-adv-x="215" d="M177 775Q163 775 155 784T146 805Q146 817 154 826T177 836Q191 836 199 827T207 805Q207 794 199 785T177 775ZM39 775Q25 775 17 784T9 805Q9 817 17 826T39 836Q53 836 61 827T69 805Q69
794 61 785T39 775ZM127 695V0H88V695H127Z" />
<glyph unicode="&#x408;" glyph-name="uni0408" horiz-adv-x="336" d="M508 695V133Q508 102 501 76T478 31T437 1T376 -10Q350 -10 327 -5T289 11L295 41Q310 33 329 28T371 22Q427 22 448 53T469 137V695H508Z" />
<glyph unicode="&#x409;" glyph-name="uni0409" horiz-adv-x="987" d="M174 187Q166 143 156 107T130 46T88 8T26 -4L21 34Q47 32 66 43T99 75T122 125T137 190Q149 272 155 403T166 695H547V398H711Q817 398 878 352T940 207Q940 152 923 113T874 48T798 12T700
0H507V665H203Q198 514 192 390T174 187ZM547 368V30H699Q745 30 782 39T845 70T885 124T899 205Q899 288 849 328T710 368H547Z" />
<glyph unicode="&#x40a;" glyph-name="uni040A" horiz-adv-x="1043" d="M604 350V30H755Q801 30 838 39T901 68T941 119T955 195Q955 274 905 312T766 350H604ZM565 350H127V0H88V695H127V380H565V695H604V380H767Q873 380 934 336T996 197Q996 144 979 107T930
46T854 11T756 0H565V350Z" />
<glyph unicode="&#x40b;" glyph-name="uni040B" horiz-adv-x="736" d="M290 665V386Q314 404 354 416Q396 428 452 428Q659 428 659 218V0H619V216Q619 310 574 353T450 396Q401 396 360 386Q321 376 290 355V0H250V665H28V695H511V665H290Z" />
<glyph unicode="&#x40c;" glyph-name="uni040C" horiz-adv-x="587" d="M517 0L165 349L507 695H550L211 353L567 0H517ZM127 695V0H88V695H127ZM349 864H401L311 750H275L349 864Z" />
<glyph unicode="&#x40e;" glyph-name="uni040E" horiz-adv-x="592" d="M164 -1H154Q150 -1 145 0L140 36Q144 35 148 35H156Q181 35 200 43T236 69T266 111T295 171L38 695H81L314 217L521 695H558L337 187Q316 140 299 105T262 46T219 11T164 -1ZM308 737Q237
737 203 774T168 866H206Q206 814 233 790T308 765Q356 765 382 789T409 866H447Q447 812 413 775T308 737Z" />
<glyph unicode="&#x40f;" glyph-name="uni040F" horiz-adv-x="690" d="M371 0L366 -169H335L330 0H88V695H128V30H562V695H602V0H371Z" />
<glyph unicode="&#x410;" glyph-name="uni0410" horiz-adv-x="629" d="M291 667L147 263H436L291 667ZM447 233H137L54 0H18L266 695H322L572 0H531L447 233Z" />
<glyph unicode="&#x411;" glyph-name="uni0411" horiz-adv-x="557" d="M127 365V30H269Q315 30 352 39T415 70T455 124T469 204Q469 286 419 325T280 365H127ZM88 695H468V665H127V396H280Q387 396 448 350T510 206Q510 151 493 112T444 48T368 12T270 0H88V695Z" />
<glyph unicode="&#x412;" glyph-name="uni0412" horiz-adv-x="569" d="M127 665V373H248Q291 373 327 381T388 408T428 455T442 525Q442 600 397 632T262 665H127ZM127 343V30H272Q318 30 356 39T421 67T462 118T477 193Q477 271 430 307T282 343H127ZM88 695H262Q371
695 426 655T481 527Q481 453 443 414T338 361Q429 356 473 316T518 194Q518 142 500 105T450 45T372 11T272 0H88V695Z" />
<glyph unicode="&#x413;" glyph-name="uni0413" horiz-adv-x="485" d="M127 665V0H88V695H447V665H127Z" />
<glyph unicode="&#x414;" glyph-name="uni0414" horiz-adv-x="688" d="M535 665H214Q210 526 206 420T191 237T162 111T114 38H535V665ZM612 7H64L54 -169H23V38H64Q101 56 122 106T154 238T170 434T178 695H575V38H653V-169H623L612 7Z" />
<glyph unicode="&#x415;" glyph-name="uni0415" horiz-adv-x="527" d="M88 695H471V665H127V383H430V353H127V30H476V0H88V695Z" />
<glyph unicode="&#x416;" glyph-name="uni0416" horiz-adv-x="860" d="M19 0L328 353L34 695H79L373 349L68 0H19ZM791 0L486 349L780 695H824L531 353L841 0H791ZM449 695V0H410V695H449Z" />
<glyph unicode="&#x417;" glyph-name="uni0417" horiz-adv-x="539" d="M260 -10Q184 -10 131 12T51 61L61 94Q96 62 145 42T258 21Q297 21 331 30T390 59T429 112T444 193Q444 271 399 306T260 342H153V372H240Q325 372 374 407T424 523Q424 601 383 637T264 673Q202
673 152 652T73 606L61 638Q75 649 95 661T140 682T197 698T264 704Q358 704 411 661T464 525Q464 455 427 415T323 360Q485 342 485 194Q485 139 467 101T419 38T347 2T260 -10Z" />
<glyph unicode="&#x418;" glyph-name="uni0418" horiz-adv-x="715" d="M88 695H127V53L590 695H628V0H588V639L126 0H88V695Z" />
<glyph unicode="&#x419;" glyph-name="uni0419" horiz-adv-x="715" d="M357 737Q286 737 252 774T217 866H255Q255 814 282 790T357 765Q405 765 431 789T458 866H496Q496 812 462 775T357 737ZM88 695H127V53L590 695H628V0H588V639L126 0H88V695Z" />
<glyph unicode="&#x41a;" glyph-name="uni041A" horiz-adv-x="587" d="M127 695V0H88V695H127ZM517 0L165 349L507 695H550L211 353L567 0H517Z" />
<glyph unicode="&#x41b;" glyph-name="uni041B" horiz-adv-x="618" d="M174 187Q166 143 156 107T130 46T88 8T26 -4L21 34Q47 32 66 43T99 75T122 125T137 190Q149 272 155 403T166 695H530V0H490V665H203Q198 514 192 390T174 187Z" />
<glyph unicode="&#x41c;" glyph-name="uni041C" horiz-adv-x="826" d="M145 648L111 0H77L113 695H164L401 147L639 695H692L728 0H689L655 648L419 106L399 105H380L145 648Z" />
<glyph unicode="&#x41d;" glyph-name="uni041D" horiz-adv-x="691" d="M565 330H127V0H88V695H127V360H565V695H604V0H565V330Z" />
<glyph unicode="&#x41e;" glyph-name="uni041E" horiz-adv-x="755" d="M378 -10Q308 -10 249 14T147 85T79 199T54 350Q54 435 78 501T146 612T249 680T378 704Q448 704 507 681T610 612T677 500T702 350Q702 266 678 199T610 86T508 15T378 -10ZM378 20Q439 20
491 41T581 103T640 205T661 347Q661 427 640 488T581 590T491 653T378 674Q316 674 265 653T175 591T116 488T95 347Q95 267 116 206T175 103T264 41T378 20Z" />
<glyph unicode="&#x41f;" glyph-name="uni041F" horiz-adv-x="676" d="M549 665H127V0H88V695H589V0H549V665Z" />
<glyph unicode="&#x420;" glyph-name="uni0420" horiz-adv-x="565" d="M127 665V327H280Q374 327 427 367T481 503Q481 586 432 625T290 665H127ZM127 297V0H88V695H290Q399 695 459 649T520 504Q520 449 503 410T455 346T380 309T280 297H127Z" />
<glyph unicode="&#x421;" glyph-name="uni0421" horiz-adv-x="625" d="M364 -10Q294 -10 237 14T138 85T73 197T50 347Q50 431 73 497T138 609T239 679T370 704Q443 704 493 684T574 638L566 604Q530 633 480 653T372 673Q307 673 255 651T167 586T112 484T92
347Q92 270 111 210T165 107T251 43T365 21Q424 21 476 39T564 90L574 58Q545 32 493 11T364 -10Z" />
<glyph unicode="&#x422;" glyph-name="uni0422" horiz-adv-x="539" d="M290 665V0H250V665H28V695H511V665H290Z" />
<glyph unicode="&#x423;" glyph-name="uni0423" horiz-adv-x="592" d="M164 -1Q159 -1 155 -1T145 0L140 36Q144 35 148 35T156 35Q181 35 200 43T236 69T266 111T295 171L38 695H81L314 217L521 695H558L337 187Q316 140 299 105T262 46T219 11T164 -1Z" />
<glyph unicode="&#x424;" glyph-name="uni0424" horiz-adv-x="773" d="M366 -10V81Q298 83 241 100T141 150T76 232T52 346Q52 412 76 461T142 543T241 594T366 615V703H406V615Q473 613 531 595T631 544T697 462T721 348Q721 283 697 234T631 152T531 101T406
81V-10H366ZM93 347Q93 287 114 243T172 171T259 128T366 111V586Q308 583 258 568T172 524T114 451T93 347ZM680 347Q680 408 659 452T601 525T514 568T406 585V110Q464 113 514 128T601 171T659 243T680 347Z" />
<glyph unicode="&#x425;" glyph-name="uni0425" horiz-adv-x="597" d="M294 327L71 0H29L272 356L38 695H83L301 384L519 695H560L322 355L569 0H522L294 327Z" />
<glyph unicode="&#x426;" glyph-name="uni0426" horiz-adv-x="702" d="M637 -169L626 0H88V695H127V30H549V695H589V30H667V-169H637Z" />
<glyph unicode="&#x427;" glyph-name="uni0427" horiz-adv-x="629" d="M496 0V324Q487 317 471 308T431 290T377 275T307 269Q255 269 213 282T141 325T95 400T78 511V695H117V511Q117 455 130 415T168 349T228 311T308 299Q357 299 392 307T451 327Q478 339 496
356V695H536V0H496Z" />
<glyph unicode="&#x428;" glyph-name="uni0428" horiz-adv-x="880" d="M88 695H127V30H420V695H460V30H753V695H793V0H88V695Z" />
<glyph unicode="&#x429;" glyph-name="uni0429" horiz-adv-x="896" d="M835 -169L825 0H88V695H127V30H420V695H460V30H753V695H793V30H865V-169H835Z" />
<glyph unicode="&#x42a;" glyph-name="uni042A" horiz-adv-x="676" d="M236 368V30H388Q434 30 471 39T534 70T574 124T588 205Q588 288 538 328T398 368H236ZM196 665H15V695H236V398H400Q506 398 567 352T628 207Q628 152 611 113T562 48T486 12T388 0H196V665Z" />
<glyph unicode="&#x42b;" glyph-name="uni042B" horiz-adv-x="763" d="M676 695V0H636V695H676ZM127 368V30H279Q325 30 362 39T425 70T465 124T479 205Q479 288 429 328T290 368H127ZM88 695H127V398H290Q343 398 385 387T458 352T504 293T520 207Q520 152 503
113T454 48T378 12T280 0H88V695Z" />
<glyph unicode="&#x42c;" glyph-name="uni042C" horiz-adv-x="567" d="M127 368V30H279Q325 30 362 39T425 70T465 124T479 205Q479 288 429 328T290 368H127ZM88 695H127V398H290Q343 398 385 387T458 352T504 293T520 207Q520 152 503 113T454 48T378 12T280 0H88V695Z" />
<glyph unicode="&#x42d;" glyph-name="uni042D" horiz-adv-x="621" d="M260 -10Q187 -10 134 10T51 56L59 90Q95 61 148 41T258 21Q385 21 454 102T529 329H188V359H529Q527 433 509 491T457 589T372 651T258 673Q202 673 150 654T61 603L51 636Q80 662 132 683T259
704Q331 704 389 680T487 609T549 497T571 347Q571 263 550 197T489 85T391 15T260 -10Z" />
<glyph unicode="&#x42e;" glyph-name="uni042E" horiz-adv-x="934" d="M575 -10Q512 -10 458 13T363 79T298 186T271 329H127V0H88V695H127V359H271Q272 441 296 505T360 613T456 681T575 704Q641 704 696 681T793 612T857 500T880 350Q880 266 857 199T793 86T697
15T575 -10ZM575 20Q632 20 680 41T764 103T819 205T839 347Q839 428 820 489T765 591T681 653T575 674Q518 674 470 653T387 591T333 489T313 347Q313 267 332 206T387 103T470 41T575 20Z" />
<glyph unicode="&#x42f;" glyph-name="uni042F" horiz-adv-x="590" d="M462 329V665H322Q234 665 183 626T131 502Q131 409 181 369T327 329H462ZM462 299H307L85 0H38L267 306Q187 314 139 362T90 503Q90 552 106 588T153 648T226 683T322 695H502V0H462V299Z" />
<glyph unicode="&#x430;" glyph-name="uni0430" horiz-adv-x="499" d="M221 19Q258 19 285 31T332 61T363 99T383 137V266H287Q184 266 136 235T87 139Q87 81 121 50T221 19ZM395 0Q390 16 387 39T384 94Q375 76 362 58T328 24T281 0T216 -10Q139 -10 95 28T50
138Q50 214 109 253T284 292H383V353Q383 421 349 452T244 483Q191 483 153 469T87 432L72 463Q95 479 139 496T247 513Q330 513 375 475T420 357V95Q420 67 422 42T429 0H395Z" />
<glyph unicode="&#x431;" glyph-name="uni0431" horiz-adv-x="573" d="M285 -10Q234 -10 191 7T116 59T67 147T49 272Q49 324 50 383T64 500T102 606T179 686Q204 702 229 710T281 722T334 727T393 728Q422 729 444 733T481 747L493 721Q479 710 456 703T400 695Q368
694 340 694T287 690T239 679T194 658Q162 638 141 608T107 538T88 450T80 346Q103 425 159 465T294 506Q344 506 386 489T459 439T507 358T525 248Q525 186 507 138T456 57T380 7T285 -10ZM285 18Q328 18 365 33T429 78T471 150T487 248Q487 304 473 347T432 419T370
462T291 477Q247 477 210 463T145 419T103 348T87 249Q87 193 102 150T143 78T206 34T285 18Z" />
<glyph unicode="&#x432;" glyph-name="uni0432" horiz-adv-x="471" d="M119 475V281H236Q290 281 323 305T357 379Q357 434 325 454T234 475H119ZM119 253V28H242Q305 28 344 55T383 145Q383 204 347 228T240 253H119ZM82 503H230Q311 503 352 475T393 382Q393
335 369 307T302 269Q359 264 390 233T422 145Q422 105 409 78T371 33T312 8T235 0H82V503Z" />
<glyph unicode="&#x433;" glyph-name="uni0433" horiz-adv-x="402" d="M119 475V0H82V503H367V475H119Z" />
<glyph unicode="&#x434;" glyph-name="uni0434" horiz-adv-x="538" d="M132 77Q125 62 116 50T95 29H408V475H168Q166 331 161 233T132 77ZM479 0H48L39 -159H11V29H37Q63 34 78 52T103 95Q114 123 120 161T128 250T132 363T133 503H445V29H516V-159H488L479 0Z" />
<glyph unicode="&#x435;" glyph-name="uni0435" horiz-adv-x="510" d="M272 485Q237 485 206 472T150 434T109 371T88 285H429Q435 336 425 373T392 436T338 473T272 485ZM455 35Q428 16 387 3T279 -10Q170 -10 110 58T50 252Q50 313 67 361T115 444T185 495T273
513Q319 513 358 497T424 449T462 369T464 257H87V252Q87 140 138 80T281 20Q378 20 444 62L455 35Z" />
<glyph unicode="&#x436;" glyph-name="uni0436" horiz-adv-x="659" d="M577 0L370 260L575 503H616L412 264L622 0H577ZM36 0L246 263L42 503H84L288 260L80 0H36ZM348 503V0H310V503H348Z" />
<glyph unicode="&#x437;" glyph-name="uni0437" horiz-adv-x="428" d="M188 -10Q143 -10 105 -1T42 24L53 52Q78 37 113 28T188 19Q222 19 250 25T299 45T331 83T343 139Q343 199 306 223T204 248H123V278H202Q253 278 287 304T321 382Q321 432 287 458T188 484Q149
484 118 474T62 446L48 476Q69 489 104 501T190 513Q272 513 314 480T356 384Q356 327 326 299T247 265Q306 263 342 232T379 138Q379 99 365 71T326 25T265 -1T188 -10Z" />
<glyph unicode="&#x438;" glyph-name="uni0438" horiz-adv-x="568" d="M82 0V503H119V56L453 503H486V0H449V449L114 0H82Z" />
<glyph unicode="&#x439;" glyph-name="uni0439" horiz-adv-x="568" d="M283 563Q218 563 187 596T155 677H192Q192 633 216 611T283 589Q327 589 350 611T373 677H410Q410 630 379 597T283 563ZM82 0V503H119V56L453 503H486V0H449V449L114 0H82Z" />
<glyph unicode="&#x43a;" glyph-name="uni043A" horiz-adv-x="460" d="M387 0L145 264L381 503H424L189 267L433 0H387ZM119 503V0H82V503H119Z" />
<glyph unicode="&#x43b;" glyph-name="uni043B" horiz-adv-x="514" d="M135 87Q121 43 98 20T26 0L23 31Q58 30 75 48T103 100Q122 154 131 251T140 503H432V0H395V475H175Q173 341 164 245T135 87Z" />
<glyph unicode="&#x43c;" glyph-name="uni043C" horiz-adv-x="647" d="M130 464L108 0H75L99 503H151L323 111L497 503H548L572 0H535L513 463L335 68H305L130 464Z" />
<glyph unicode="&#x43d;" glyph-name="uni043D" horiz-adv-x="553" d="M434 248H119V0H82V503H119V276H434V503H471V0H434V248Z" />
<glyph unicode="&#x43e;" glyph-name="uni043E" horiz-adv-x="575" d="M287 -10Q239 -10 196 7T120 58T69 141T50 252Q50 314 69 362T120 444T195 495T287 513Q336 513 379 496T455 445T506 363T525 252Q525 190 506 141T455 59T380 8T287 -10ZM287 18Q327 18
363 32T427 76T471 149T487 252Q487 311 471 354T428 427T364 470T287 485Q247 485 211 471T148 427T104 355T87 252Q87 193 103 149T147 76T211 33T287 18Z" />
<glyph unicode="&#x43f;" glyph-name="uni043F" horiz-adv-x="544" d="M425 475H119V0H82V503H462V0H425V475Z" />
<glyph unicode="&#x440;" glyph-name="uni0440" horiz-adv-x="587" d="M305 18Q346 18 382 33T444 77T486 151T501 252Q501 309 486 352T445 425T382 470T305 485Q264 485 228 470T166 426T125 353T110 252Q110 195 125 151T166 78T228 33T305 18ZM308 -10Q243
-10 195 21T119 109V-187H82V503H114L118 392Q145 449 194 481T309 513Q356 513 398 496T471 446T521 364T539 252Q539 189 521 140T471 58T397 8T308 -10Z" />
<glyph unicode="&#x441;" glyph-name="uni0441" horiz-adv-x="488" d="M291 -10Q237 -10 193 7T117 59T68 141T50 251Q50 313 68 361T120 444T197 495T294 513Q339 513 379 505T446 477L434 443Q405 466 373 475T294 485Q249 485 211 469T146 423T103 350T87 251Q87
197 102 154T144 80T208 34T291 18Q333 18 365 28T427 57L439 32Q413 15 377 3T291 -10Z" />
<glyph unicode="&#x442;" glyph-name="uni0442" horiz-adv-x="448" d="M243 475V0H205V475H24V503H424V475H243Z" />
<glyph unicode="&#x443;" glyph-name="uni0443" horiz-adv-x="488" d="M97 -196Q77 -196 65 -194T44 -187L52 -156Q59 -159 68 -162T95 -166Q133 -166 163 -129T225 -12L18 503H57L244 33L435 503H470L267 7Q248 -41 231 -78T194 -142T151 -182T97 -196Z" />
<glyph unicode="&#x444;" glyph-name="uni0444" horiz-adv-x="665" d="M314 -187V-7Q261 -5 214 12T130 61T72 140T50 252Q50 316 72 364T130 444T215 492T314 511V715H351V511Q404 509 452 492T536 443T593 363T615 252Q615 187 593 140T535 60T451 11T351 -7V-187H314ZM577
252Q577 309 559 352T509 424T437 467T351 483V21Q397 24 438 39T510 83T559 154T577 252ZM88 252Q88 195 106 153T156 83T228 39T314 21V483Q268 480 227 465T155 421T106 350T88 252Z" />
<glyph unicode="&#x445;" glyph-name="uni0445" horiz-adv-x="450" d="M220 235L58 0H19L201 260L28 503H70L228 286L378 503H417L247 260L431 0H389L220 235Z" />
<glyph unicode="&#x446;" glyph-name="uni0446" horiz-adv-x="564" d="M508 -159L499 0H82V503H119V28H430V503H467V28H536V-159H508Z" />
<glyph unicode="&#x447;" glyph-name="uni0447" horiz-adv-x="486" d="M366 0V230Q360 226 347 219T316 205T275 193T225 188Q144 188 101 227T57 352V503H95V351Q95 277 130 248T227 219Q255 219 279 224T321 236T350 249T366 259V503H404V0H366Z" />
<glyph unicode="&#x448;" glyph-name="uni0448" horiz-adv-x="748" d="M82 503H119V28H355V503H392V28H629V503H666V0H82V503Z" />
<glyph unicode="&#x449;" glyph-name="uni0449" horiz-adv-x="764" d="M708 -159L699 0H82V503H119V28H355V503H392V28H629V503H666V28H736V-159H708Z" />
<glyph unicode="&#x44a;" glyph-name="uni044A" horiz-adv-x="541" d="M204 293V28H312Q377 28 418 60T459 162Q459 229 422 261T319 293H204ZM167 475H23V503H204V321H320Q403 321 450 283T497 164Q497 123 483 92T445 41T386 10T312 0H167V475Z" />
<glyph unicode="&#x44b;" glyph-name="uni044B" horiz-adv-x="614" d="M532 0H495V503H532V0ZM119 293V28H226Q291 28 332 60T373 162Q373 229 336 261T233 293H119ZM82 503H119V321H234Q317 321 363 283T410 164Q410 123 397 92T359 41T300 10T226 0H82V503Z" />
<glyph unicode="&#x44c;" glyph-name="uni044C" horiz-adv-x="455" d="M118 293V28H226Q291 28 332 60T374 162Q374 229 337 261T234 293H118ZM81 503H118V321H234Q317 321 364 283T411 164Q411 123 397 92T359 41T300 10T226 0H81V503Z" />
<glyph unicode="&#x44d;" glyph-name="uni044D" horiz-adv-x="471" d="M188 -10Q145 -10 106 -1T42 25L50 54Q78 37 115 29T188 20Q281 20 332 78T385 244H134V272H384Q379 372 328 427T191 483Q148 483 113 473T49 445L40 473Q64 490 99 501T191 513Q243 513
285 496T358 444T405 362T422 252Q422 127 359 59T188 -10Z" />
<glyph unicode="&#x44e;" glyph-name="uni044E" horiz-adv-x="752" d="M475 -10Q427 -10 386 7T315 56T267 136T248 245H119V0H82V503H119V273H249Q252 330 270 375T319 450T389 497T475 513Q524 513 566 496T638 445T686 363T704 252Q704 190 687 141T639 59T566
8T475 -10ZM475 18Q516 18 551 33T611 78T651 151T666 252Q666 309 652 352T612 425T551 470T475 485Q434 485 400 470T340 426T300 353T285 252Q285 195 299 152T339 79T399 34T475 18Z" />
<glyph unicode="&#x44f;" glyph-name="uni044F" horiz-adv-x="469" d="M350 215V475H244Q179 475 138 442T97 343Q97 280 133 248T236 215H350ZM350 187H210L76 0H33L174 194Q120 208 90 245T59 342Q59 381 72 411T111 461T169 492T244 503H387V0H350V187Z" />
<glyph unicode="&#x451;" glyph-name="uni0451" horiz-adv-x="510" d="M272 485Q237 485 206 472T150 434T109 371T88 285H429Q435 336 425 373T392 436T338 473T272 485ZM455 35Q428 16 387 3T279 -10Q170 -10 110 58T50 252Q50 313 67 361T115 444T185 495T273
513Q319 513 358 497T424 449T462 369T464 257H87V252Q87 140 138 80T281 20Q378 20 444 62L455 35ZM361 615Q347 615 339 624T331 646Q331 658 339 667T361 676Q375 676 383 667T392 646Q392 634 384 625T361 615ZM186 615Q172 615 164 624T155 646Q155 658 163
667T186 676Q200 676 208 667T216 646Q216 634 208 625T186 615Z" />
<glyph unicode="&#x452;" glyph-name="uni0452" horiz-adv-x="565" d="M487 -44Q487 -71 480 -98T458 -146T419 -181T359 -196L353 -166Q401 -164 425 -134T450 -55V351Q450 419 415 451T311 484Q271 484 241 472T187 441T147 396T119 345V0H82V580H-5V609H82V717H119V609H304V580H119V388H120Q130
411 147 433T188 473T245 502T319 513Q399 513 443 472T487 352V-44V-44Z" />
<glyph unicode="&#x453;" glyph-name="uni0453" horiz-adv-x="402" d="M372 475V0H335V503H620V475H372ZM265 715H313L218 579H186L265 715Z" />
<glyph unicode="&#x454;" glyph-name="uni0454" horiz-adv-x="488" d="M439 32Q413 15 377 3T291 -10Q237 -10 193 7T117 59T68 141T50 251Q50 313 68 361T120 444T197 495T294 513Q339 513 379 505T446 477L434 443Q405 466 373 475T294 485Q251 485 215 471T151
429T108 362T88 272H347V244H87Q88 191 103 149T145 78T209 34T291 18Q333 18 365 28T427 57L439 32V32Z" />
<glyph unicode="&#x455;" glyph-name="uni0455" horiz-adv-x="457" d="M226 -10Q184 -10 153 -3T100 13T65 32T48 45L57 76Q63 71 77 62T113 43T163 27T226 20Q256 20 283 25T332 43T367 77T380 130Q380 159 369 178T336 209T286 229T221 244Q190 250 160 257T107
279T69 317T54 378Q54 446 103 479T238 513Q300 513 335 500T386 478L378 448Q363 457 329 470T239 483Q208 483 181 478T133 460T100 429T88 380Q88 354 98 337T126 309T168 291T223 278Q255 272 289 265T351 242T397 201T415 132Q415 91 399 64T356 20T295 -3T226
-10Z" />
<glyph unicode="&#x456;" glyph-name="uni0456" horiz-adv-x="201" d="M101 615Q87 615 79 624T70 646Q70 658 78 667T101 677Q115 677 123 668T131 646Q131 634 123 625T101 615ZM119 503V0H82V503H119Z" />
<glyph unicode="&#x457;" glyph-name="uni0457" horiz-adv-x="201" d="M177 615Q163 615 155 624T146 646Q146 658 154 667T177 676Q191 676 199 667T207 646Q207 634 199 625T177 615ZM26 615Q12 615 4 624T-4 646Q-4 658 4 667T26 676Q40 676 48 667T57 646Q57
634 49 625T26 615ZM119 503V0H82V503H119Z" />
<glyph unicode="&#x458;" glyph-name="uni0458" horiz-adv-x="206" d="M106 615Q92 615 84 624T75 646Q75 658 83 667T106 677Q120 677 128 668T136 646Q136 634 128 625T106 615ZM125 -44Q125 -71 118 -98T96 -146T57 -181T-3 -196L-9 -166Q39 -164 63 -134T88
-55V503H125V-44Z" />
<glyph unicode="&#x459;" glyph-name="uni0459" horiz-adv-x="765" d="M135 87Q121 43 98 20T26 0L23 31Q58 30 75 48T103 100Q122 154 131 251T140 503H432V311H544Q627 311 674 275T721 159Q721 118 707 88T668 39T610 10T536 0H395V475H175Q173 341 164 245T135
87ZM536 28Q601 28 642 58T683 157Q683 224 646 253T543 283H432V28H536Z" />
<glyph unicode="&#x45a;" glyph-name="uni045A" horiz-adv-x="803" d="M471 268V28H574Q639 28 680 57T722 152Q722 214 685 241T582 268H471ZM434 268H119V0H82V503H119V296H434V503H471V296H582Q665 296 712 263T759 154Q759 114 745 85T707 37T648 9T574 0H434V268Z" />
<glyph unicode="&#x45b;" glyph-name="uni045B" horiz-adv-x="565" d="M119 0H82V581H-10V609H82V725H119V609H299V581H119V388H120Q130 411 147 433T188 473T245 502T319 513Q399 513 443 472T487 352V0H450V351Q450 418 415 450T311 483Q271 483 241 472T187
441T147 396T119 345V0Z" />
<glyph unicode="&#x45c;" glyph-name="uni045C" horiz-adv-x="460" d="M387 0L145 264L381 503H424L189 267L433 0H387ZM119 503V0H82V503H119ZM302 715H350L255 579H223L302 715Z" />
<glyph unicode="&#x45e;" glyph-name="uni045E" horiz-adv-x="488" d="M248 563Q183 563 152 596T120 677H157Q157 633 180 611T248 589Q337 589 337 677H374Q374 630 343 597T248 563ZM97 -196Q77 -196 65 -194T44 -187L52 -156Q59 -159 68 -162T95 -166Q133
-166 163 -129T225 -12L18 503H57L244 33L435 503H470L267 7Q248 -41 231 -78T194 -142T151 -182T97 -196Z" />
<glyph unicode="&#x45f;" glyph-name="uni045F" horiz-adv-x="556" d="M293 0L288 -159H260L256 0H82V503H119V28H429V503H467V0H293Z" />
<glyph unicode="&#x490;" glyph-name="uni0490" horiz-adv-x="486" d="M127 665V0H88V695H408L415 873H448V665H127Z" />
<glyph unicode="&#x491;" glyph-name="uni0491" horiz-adv-x="403" d="M119 475V0H82V503H333L339 662H367V475H119Z" />
<glyph unicode="&#x492;" glyph-name="uni0492" horiz-adv-x="523" d="M18 366H126V695H485V665H165V366H378V335H165V0H126V335H18V366Z" />
<glyph unicode="&#x493;" glyph-name="uni0493" horiz-adv-x="457" d="M19 273H117V503H402V475H154V273H323V244H154V0H117V244H19V273Z" />
<glyph unicode="&#x49a;" glyph-name="uni049A" horiz-adv-x="618" d="M517 0L165 349L507 695H550L211 353L532 34H594V-180H563L554 0H517ZM127 695V0H88V695H127Z" />
<glyph unicode="&#x49b;" glyph-name="uni049B" horiz-adv-x="472" d="M416 -159L409 0H381V6L145 264L381 503H424L189 267L404 32H444V-159H416ZM119 503V0H82V503H119Z" />
<glyph unicode="&#x4a2;" glyph-name="uni04A2" horiz-adv-x="717" d="M565 330H127V0H88V695H127V360H565V695H604V34H686V-180H655L647 0H565V330Z" />
<glyph unicode="&#x4a3;" glyph-name="uni04A3" horiz-adv-x="568" d="M434 248H119V0H82V503H119V276H434V503H471V32H540V-159H512L505 0H434V248Z" />
<glyph unicode="&#x4ae;" glyph-name="uni04AE" horiz-adv-x="568" d="M265 0V303L18 695H63L287 337L511 695H550L305 303V0H265Z" />
<glyph unicode="&#x4af;" glyph-name="uni04AF" horiz-adv-x="483" d="M222 -187V27L18 503H57L243 71L429 503H465L259 26V-187H222Z" />
<glyph unicode="&#x4b0;" glyph-name="uni04B0" horiz-adv-x="568" d="M265 0V280H101V310H260L18 695H63L287 337L511 695H550L309 310H470V280H305V0H265Z" />
<glyph unicode="&#x4b1;" glyph-name="uni04B1" horiz-adv-x="483" d="M222 -187V10H87V38H217L18 503H57L243 71L429 503H465L264 38H393V10H259V-187H222Z" />
<glyph unicode="&#x4ba;" glyph-name="uni04BA" horiz-adv-x="613" d="M103 695V371Q112 378 128 387T168 405T222 420T292 426Q344 426 386 413T458 370T504 295T521 184V0H482V184Q482 240 469 280T431 346T371 384T291 396Q242 396 207 388T148 368Q121 356
103 339V0H63V695H103Z" />
<glyph unicode="&#x4bb;" glyph-name="uni04BB" horiz-adv-x="565" d="M119 0H82V725H119V388H120Q130 411 147 433T188 473T245 502T319 513Q399 513 443 472T487 352V0H450V351Q450 418 415 450T311 483Q271 483 241 472T187 441T147 396T119 345V0Z" />
<glyph unicode="&#x4d8;" glyph-name="uni04D8" horiz-adv-x="690" d="M337 -10Q192 -10 123 77T53 340V366H595Q590 510 521 591T322 673Q247 673 192 651T98 598L89 635Q107 647 129 659T178 682T241 698T323 704Q398 704 456 680T555 609T616 497T637 347Q637
264 617 198T557 86T463 15T337 -10ZM338 20Q398 20 445 41T525 104T575 203T595 335H94Q95 171 154 96T338 20Z" />
<glyph unicode="&#x4d9;" glyph-name="uni04D9" horiz-adv-x="526" d="M232 18Q267 18 298 31T354 69T395 132T416 218H75Q69 167 79 130T112 67T166 30T232 18ZM49 468Q76 487 117 500T225 513Q334 513 394 445T454 251Q454 190 437 142T389 59T319 8T231 -10Q185
-10 146 6T80 54T42 134T40 246H417V251Q417 363 366 423T223 483Q126 483 60 441L49 468Z" />
<glyph unicode="&#x4e8;" glyph-name="uni04E8" horiz-adv-x="755" d="M377 -10Q307 -10 248 14T145 85T78 199T53 350Q53 435 77 501T145 612T248 680T377 704Q447 704 507 681T610 612T677 500T702 350Q702 266 678 199T610 86T507 15T377 -10ZM377 674Q317
674 266 654T177 595T118 497T94 361H661Q659 438 637 496T578 594T489 654T377 674ZM377 20Q438 20 489 40T577 99T637 196T661 331H94Q96 254 118 196T177 99T266 40T377 20Z" />
<glyph unicode="&#x4e9;" glyph-name="uni04E9" horiz-adv-x="572" d="M284 -10Q234 -10 191 7T116 58T66 141T48 252Q48 314 66 362T115 444T190 495T284 513Q335 513 378 496T454 445T505 363T523 252Q523 190 505 141T455 59T379 8T284 -10ZM284 485Q243 485
208 472T147 431T105 364T86 272H486Q483 324 467 364T424 431T362 471T284 485ZM284 18Q327 18 363 33T427 76T470 147T487 244H85Q86 189 101 147T143 77T206 33T284 18Z" />
</font>
</defs>
</svg>
