<?xml version="1.0" standalone="no"?> <!DOCTYPE svg PUBLIC "-//W3C//DTD SVG 1.0//EN" "http://www.w3.org/TR/2001/REC-SVG-20010904/DTD/svg10.dtd" > <svg xmlns="http://www.w3.org/2000/svg" width="100%" height="100%">
<defs >
<font id="Yandex" horiz-adv-x="505" ><font-face
    font-family="Yandex Sans Display"
    units-per-em="1000"
    panose-1="0 0 0 0 0 0 0 0 0 0"
    ascent="950"
    descent="-250"
    alphabetic="0" />
<missing-glyph horiz-adv-x="194" />
<glyph unicode=" " glyph-name="space" horiz-adv-x="194" />
<glyph unicode="!" glyph-name="exclam" horiz-adv-x="202" d="M229 686L110 185H50L145 686H229ZM56 -6Q31 -6 15 10T-1 49Q-1 73 15 89T56 105Q80 105 96 89T112 49Q112 26 96 10T56 -6Z" />
<glyph unicode="&quot;" glyph-name="quotedbl" horiz-adv-x="377" d="M176 695H269L179 495H112L176 695ZM324 695H417L327 495H260L324 695Z" />
<glyph unicode="#" glyph-name="numbersign" horiz-adv-x="605" d="M421 455H276L217 259H362L421 455ZM344 201H199L138 0H64L125 201H5L17 259H143L203 455H84L96 513H220L276 695H349L294 513H439L494 695H569L513 513H640L627 455H496L436 259H560L548 201H418L357
0H283L344 201Z" />
<glyph unicode="$" glyph-name="dollar" horiz-adv-x="542" d="M182 519Q182 473 204 447T264 402L313 634Q277 634 253 625T212 599T189 563T182 519ZM257 60Q320 60 358 91T397 182Q397 229 370 256T303 302L252 60H257ZM237 -10L212 -125H150L176 -4Q141 2
113 11T63 32T25 54T0 74L45 139Q66 119 103 98T191 67L247 325Q219 336 193 351T145 387T112 439T99 510Q99 551 112 586T153 648T222 689T319 704H327L348 801H409L387 699Q432 693 468 680T529 649L495 579Q472 596 440 609T373 629L320 380Q350 368 379 353T431
315T468 262T482 191Q482 144 465 107T418 44T346 4T254 -10H237Z" />
<glyph unicode="%" glyph-name="percent" horiz-adv-x="726" d="M63 -10L618 704H688L133 -10H63ZM174 321Q150 321 128 329T87 354T59 399T48 465Q48 505 61 546T98 620T157 674T235 695Q259 695 281 687T322 662T350 617T361 552Q361 511 348 470T311 396T252
342T174 321ZM232 640Q206 640 186 624T151 582T130 524T122 459Q122 414 138 395T180 376Q207 376 227 392T260 434T281 492T288 557Q288 602 273 621T232 640ZM517 0Q493 0 471 8T430 33T402 78T391 144Q391 184 404 225T441 299T500 352T578 373Q602 373 624
365T665 340T693 296T704 231Q704 190 691 149T654 75T595 21T517 0ZM575 319Q549 319 528 303T493 261T472 203T464 138Q464 93 480 74T523 55Q549 55 569 71T602 113T623 171T630 236Q630 281 616 300T575 319Z" />
<glyph unicode="&amp;" glyph-name="ampersand" horiz-adv-x="725" d="M224 525Q224 488 239 459T276 401Q313 413 342 425T391 454T422 492T433 541Q433 583 408 609T334 636Q280 636 252 605T224 525ZM270 58Q312 58 347 67T412 93Q394 110 376 131T337 179L228
320Q200 309 177 297T136 268T109 230T99 182Q99 150 111 127T146 88T200 66T270 58ZM603 9Q566 9 533 18T464 50Q422 23 371 7T259 -10Q198 -10 152 4T76 42T30 101T15 178Q15 217 28 247T65 301T120 342T188 373Q163 410 151 442T139 513Q139 551 151 585T189
646T252 688T339 704Q421 704 469 661T517 543Q517 502 500 472T455 419T391 379T316 349L422 211Q437 191 451 175T478 144Q516 182 540 229T579 321L640 289Q624 241 597 193T528 103Q571 77 632 77Q641 77 648 77T662 79Q669 80 675 82L663 22Q656 18 647 15Q639
13 628 11T603 9Z" />
<glyph unicode="&apos;" glyph-name="quotesingle" horiz-adv-x="229" d="M176 695H269L179 495H112L176 695Z" />
<glyph unicode="(" glyph-name="parenleft" horiz-adv-x="323" d="M160 -135Q115 -78 90 0T65 178Q65 343 131 486T321 733H403Q349 687 302 626T221 492T166 337T146 165Q146 74 169 -2T233 -135H160Z" />
<glyph unicode=")" glyph-name="parenright" horiz-adv-x="323" d="M174 733Q219 676 244 598T269 420Q269 255 203 112T13 -135H-69Q-15 -89 32 -28T113 106T168 261T188 433Q188 524 165 600T101 733H174Z" />
<glyph unicode="*" glyph-name="asterisk" horiz-adv-x="374" d="M229 501L149 405L99 457L199 533L81 579L114 643L219 574L225 695H300L263 566L384 598L395 526L269 522L335 422L271 389L229 501Z" />
<glyph unicode="+" glyph-name="plus" horiz-adv-x="554" d="M319 295L275 89H195L239 295H45L58 359H252L296 565H376L332 359H526L513 295H319Z" />
<glyph unicode="," glyph-name="comma" horiz-adv-x="187" d="M-22 -89Q10 -65 25 -40T42 2Q24 6 13 20T2 53Q2 76 16 91T55 106Q79 106 94 90T110 46Q110 8 90 -27T36 -89H-22Z" />
<glyph unicode="-" glyph-name="hyphen" horiz-adv-x="326" d="M67 331H295L280 261H51L67 331Z" />
<glyph unicode="." glyph-name="period" horiz-adv-x="193" d="M60 -6Q35 -6 19 10T3 50Q3 76 19 91T60 107Q84 107 100 92T116 50Q116 27 100 11T60 -6Z" />
<glyph unicode="/" glyph-name="slash" horiz-adv-x="363" d="M-90 -116L397 733H469L-18 -116H-90Z" />
<glyph unicode="0" glyph-name="zero" horiz-adv-x="630" d="M274 -10Q232 -10 191 3T118 47T65 128T45 254Q45 338 66 418T130 562T236 665T382 704Q425 704 466 691T539 647T591 566T611 440Q611 356 590 276T526 132T420 29T274 -10ZM132 246Q132 187 146 150T182
92T230 63T282 55Q325 55 359 71T421 117T467 184T499 267T518 357T524 449Q524 507 510 544T475 603T426 632T374 640Q310 640 264 604T189 510T146 383T132 246Z" />
<glyph unicode="1" glyph-name="one" horiz-adv-x="376" d="M131 0L258 595L72 468L90 556L292 695H364L217 0H131Z" />
<glyph unicode="2" glyph-name="two" horiz-adv-x="520" d="M-12 0L2 64Q128 140 208 201T333 314T395 408T412 492Q412 562 376 599T273 636Q226 636 193 624T131 588L111 662Q140 679 178 691T279 704Q329 704 370 691T440 653T486 589T502 502Q502 446 481
393T413 288T296 181T125 68H433L418 0H-12Z" />
<glyph unicode="3" glyph-name="three" horiz-adv-x="536" d="M199 -10Q135 -10 87 8T13 50L47 115Q74 93 112 76T198 58Q243 58 274 69T326 100T355 147T365 206Q365 269 330 298T215 328H161L175 396H246Q330 396 367 433T405 524Q405 581 370 608T278 636Q234
636 204 625T151 598L136 670Q156 683 191 693T284 704Q385 704 437 659T489 539Q489 503 477 473T444 420T396 382T339 363Q362 357 383 345T419 314T444 269T453 209Q453 165 437 125T389 55T310 8T199 -10Z" />
<glyph unicode="4" glyph-name="four" horiz-adv-x="580" d="M447 616L122 233H365L447 616ZM435 165L400 0H316L351 165H26L40 229L435 695H547L449 233H541L527 165H435Z" />
<glyph unicode="5" glyph-name="five" horiz-adv-x="521" d="M205 -10Q139 -10 89 8T13 50L47 115Q75 92 115 75T208 58Q257 58 290 72T343 111T372 166T381 231Q381 297 353 335T258 373Q212 373 186 359T146 330H81L159 695H505L490 627H216L170 410Q187 422
212 430T273 438Q314 438 349 426T411 389T451 327T466 239Q466 185 449 139T399 60T317 9T205 -10Z" />
<glyph unicode="6" glyph-name="six" horiz-adv-x="572" d="M278 -10Q231 -10 188 4T112 47T60 123T40 233Q40 291 57 345T102 447T168 535T244 608T322 662T393 695H541L540 686Q474 667 413 635T300 562T211 471T152 368Q181 405 225 426T325 448Q363 448 401
437T469 400T518 335T537 239Q537 182 517 136T462 58T379 8T278 -10ZM129 221Q129 175 142 143T176 92T226 64T284 55Q358 55 402 102T447 230Q447 274 434 304T400 352T353 378T299 386Q242 386 201 358T136 285Q133 274 131 256T129 221Z" />
<glyph unicode="7" glyph-name="seven" horiz-adv-x="520" d="M23 0L443 620H102L118 695H556L542 631L120 0H23Z" />
<glyph unicode="8" glyph-name="eight" horiz-adv-x="570" d="M267 -10Q158 -10 97 39T36 174Q36 213 49 246T87 304T147 347T225 373Q174 389 144 424T114 514Q114 558 131 593T180 653T252 691T341 704Q386 704 423 694T488 662T530 608T546 532Q546 470 503
426T386 367Q412 358 435 344T476 309T504 261T514 198Q514 149 494 111T441 45T362 4T267 -10ZM199 509Q199 456 232 430T320 404Q349 404 374 411T418 434T447 472T458 525Q458 556 448 578T420 613T380 633T336 639Q308 639 283 630T240 604T210 563T199 509ZM126
187Q126 122 163 89T270 55Q345 55 386 96T428 211Q428 245 417 269T387 308T343 331T289 338Q211 338 169 298T126 187Z" />
<glyph unicode="9" glyph-name="nine" horiz-adv-x="572" d="M317 705Q363 705 406 691T482 648T535 572T555 462Q555 403 538 350T494 249T431 162T358 89T285 35T220 0H64L65 9Q126 31 185 66T295 143T384 233T443 327Q414 290 372 269T273 247Q234 247 196
258T127 295T77 360T58 456Q58 513 78 559T133 637T216 687T317 705ZM466 474Q466 520 453 551T418 602T368 630T311 639Q237 639 193 593T148 465Q148 421 161 391T194 343T241 317T295 309Q352 309 392 337T459 410Q462 421 464 439T466 474Z" />
<glyph unicode=":" glyph-name="colon" horiz-adv-x="193" d="M141 366Q116 366 100 382T84 422Q84 448 100 463T141 479Q165 479 181 464T197 422Q197 399 181 383T141 366ZM60 -6Q35 -6 19 10T3 50Q3 76 19 91T60 107Q84 107 100 92T116 50Q116 27 100 11T60 -6Z" />
<glyph unicode=";" glyph-name="semicolon" horiz-adv-x="187" d="M136 366Q111 366 95 382T79 422Q79 448 95 463T136 479Q160 479 176 464T192 422Q192 399 176 383T136 366ZM-22 -89Q10 -65 25 -40T42 2Q24 6 13 20T2 53Q2 76 16 91T55 106Q79 106 94 90T110
46Q110 8 90 -27T36 -89H-22Z" />
<glyph unicode="&lt;" glyph-name="less" horiz-adv-x="484" d="M38 283L57 371L496 555L479 477L111 322L413 167L399 99L38 283Z" />
<glyph unicode="=" glyph-name="equal" horiz-adv-x="562" d="M69 387L83 451H552L538 387H69ZM30 203L44 267H513L499 203H30Z" />
<glyph unicode="&gt;" glyph-name="greater" horiz-adv-x="484" d="M17 177L384 332L82 487L97 555L458 371L439 283L0 99L17 177Z" />
<glyph unicode="?" glyph-name="question" horiz-adv-x="394" d="M438 530Q438 491 427 461T397 408T354 366T305 333Q281 318 257 304T215 275T184 243T171 203L170 185H98L99 202Q101 238 115 264T150 312T196 350T248 383Q269 396 288 409T321 439T345 476T354
524Q354 572 325 602T228 632Q193 632 168 624T126 607L114 682Q133 692 162 697T233 703Q287 703 325 690T389 654T426 599T438 530ZM125 -6Q100 -6 84 10T68 49Q68 73 84 89T125 105Q149 105 165 89T181 49Q181 26 165 10T125 -6Z" />
<glyph unicode="@" glyph-name="at" horiz-adv-x="1002" d="M518 -193Q418 -193 331 -166T180 -86T78 46T41 230Q41 335 77 422T179 572T336 669T536 704Q628 704 709 679T852 606T948 487T984 325Q984 262 969 207T925 111T852 46T751 22Q686 22 652 50T605 119Q578
71 536 47T444 22Q412 22 381 33T326 68T287 132T272 226Q272 281 288 328T333 409T401 464T488 484Q539 484 575 459T629 379L667 455H722L678 212Q674 191 675 168T686 125T712 92T760 79Q792 79 820 94T869 140T902 213T914 313Q914 394 885 457T805 563T683
628T531 650Q438 650 361 621T228 537T142 406T111 235Q111 139 142 69T229 -47T359 -115T521 -138Q601 -138 657 -124T739 -95L750 -151Q736 -159 712 -166T656 -180T590 -189T518 -193ZM364 222Q364 180 373 153T396 109T428 86T464 79Q496 79 521 96T565 141T592
207T602 283Q602 323 593 350T570 393T538 417T501 424Q469 424 444 408T401 363T374 299T364 222Z" />
<glyph unicode="A" glyph-name="A" horiz-adv-x="614" d="M383 635L187 273H426L383 635ZM434 206H151L39 0H-38L337 695H464L546 0H458L434 206Z" />
<glyph unicode="B" glyph-name="B" horiz-adv-x="581" d="M242 627L192 391H293Q328 391 358 399T410 423T445 466T458 529Q458 586 426 606T333 627H242ZM177 323L123 68H274Q353 68 396 98T440 201Q440 269 398 296T273 323H177ZM167 695H344Q446 695 497 655T549
538Q549 501 537 472T504 420T453 383T388 361Q451 350 492 312T533 199Q533 148 513 111T457 49T372 12T265 0H18L167 695Z" />
<glyph unicode="C" glyph-name="C" horiz-adv-x="602" d="M352 -10Q283 -10 227 10T130 69T67 164T45 293Q45 378 73 453T152 584T274 672T432 704Q514 704 562 686T632 650L594 573Q574 595 529 613T425 632Q359 632 306 606T216 534T160 428T140 300Q140 245
152 201T191 126T260 79T361 62Q443 62 508 99L533 35Q498 15 451 3T352 -10Z" />
<glyph unicode="D" glyph-name="D" horiz-adv-x="669" d="M242 627L123 68H263Q337 68 392 97T485 173T540 281T559 406Q559 469 544 511T501 579T436 616T357 627H242ZM167 695H358Q419 695 472 681T566 633T630 545T654 410Q654 332 629 258T553 127T429 35T257
0H18L167 695Z" />
<glyph unicode="E" glyph-name="E" horiz-adv-x="524" d="M167 695H554L540 627H242L193 395H455L441 327H178L123 68H436L422 0H18L167 695Z" />
<glyph unicode="F" glyph-name="F" horiz-adv-x="506" d="M174 306L108 0H18L167 695H564L549 627H242L188 374H456L442 306H174Z" />
<glyph unicode="G" glyph-name="G" horiz-adv-x="694" d="M679 325Q668 237 642 174T577 70T486 10T373 -10Q304 -10 244 11T140 72T70 171T45 304Q45 389 73 462T153 589T274 673T427 704Q517 704 578 681T670 626L634 556Q619 569 600 582T555 607T497 625T424
632Q361 632 309 607T219 539T161 436T140 308Q140 237 158 189T209 112T284 71T378 58Q464 58 514 117T581 294H353L367 362H684Q683 356 682 349T679 325Z" />
<glyph unicode="H" glyph-name="H" horiz-adv-x="675" d="M525 310H174L108 0H18L167 695H257L189 378H539L606 695H696L549 0H459L525 310Z" />
<glyph unicode="I" glyph-name="I" horiz-adv-x="235" d="M257 695L108 0H18L167 695H257Z" />
<glyph unicode="J" glyph-name="J" horiz-adv-x="341" d="M365 695L251 152Q235 77 189 34T70 -10Q44 -10 25 -6T-8 3Q-24 9 -35 17L-7 81Q0 74 11 69Q20 64 34 61T67 58Q105 58 128 83T161 156L275 695H365Z" />
<glyph unicode="K" glyph-name="K" horiz-adv-x="594" d="M257 695L108 0H18L167 695H257ZM433 0L197 350L564 695H659L297 351L534 0H433Z" />
<glyph unicode="L" glyph-name="L" horiz-adv-x="507" d="M167 695H257L123 68H435L420 0H18L167 695Z" />
<glyph unicode="M" glyph-name="M" horiz-adv-x="823" d="M247 596L95 0H18L197 695H315L395 198L688 695H816L698 0H608L710 598L410 93H333L247 596Z" />
<glyph unicode="N" glyph-name="N" horiz-adv-x="693" d="M221 612L92 0H18L167 695H279L512 81L642 695H716L568 0H454L221 612Z" />
<glyph unicode="O" glyph-name="O" horiz-adv-x="699" d="M334 -10Q270 -10 217 10T126 71T66 168T45 300Q45 385 71 459T144 587T255 673T394 704Q458 704 511 684T602 624T662 527T684 395Q684 310 658 236T584 108T473 22T334 -10ZM140 296Q140 234 155 189T195
115T256 72T331 58Q391 58 439 86T520 161T571 269T589 399Q589 461 574 506T533 580T472 622T395 636Q332 636 285 608T205 534T157 425T140 296Z" />
<glyph unicode="P" glyph-name="P" horiz-adv-x="554" d="M242 627L176 319H309Q343 319 374 330T429 363T466 418T480 496Q480 567 446 597T349 627H242ZM162 251L108 0H18L167 695H363Q459 695 516 648T574 500Q574 440 553 394T494 316T407 268T300 251H162Z" />
<glyph unicode="Q" glyph-name="Q" horiz-adv-x="698" d="M611 -133Q521 -110 440 -82T282 -22Q232 -1 189 25T113 89T63 178T45 300Q45 385 71 459T144 587T255 673T394 704Q458 704 511 684T602 624T662 527T684 395Q684 322 664 257T607 140T517 53T397 4Q464
-16 528 -31T643 -53L611 -133ZM140 296Q140 234 155 189T196 115T259 72T338 58Q395 58 441 86T521 161T571 269T589 399Q589 461 574 506T533 580T470 623T391 637Q334 637 288 609T208 534T158 425T140 296Z" />
<glyph unicode="R" glyph-name="R" horiz-adv-x="593" d="M242 627L179 330H312Q347 330 377 342T430 375T466 428T479 498Q479 563 440 595T329 627H242ZM299 262H164L108 0H18L167 695H339Q451 695 511 644T571 501Q571 413 521 353T385 271L500 0H408L299 262Z" />
<glyph unicode="S" glyph-name="S" horiz-adv-x="519" d="M240 -10Q192 -10 152 -1T79 21T25 48T-10 74L30 137Q44 124 66 111T117 86T178 67T243 60Q318 60 353 95T388 186Q388 213 379 232T354 267T314 294T262 318Q229 332 198 347T143 383T103 436T88 512Q88
601 146 652T308 704Q374 704 429 689T518 649L484 579Q451 603 406 618T304 634Q237 634 204 601T171 521Q171 493 180 475T205 443T246 418T301 394Q334 380 365 364T420 325T458 271T473 195Q473 151 459 114T417 49T344 6T240 -10Z" />
<glyph unicode="T" glyph-name="T" horiz-adv-x="553" d="M400 627L266 0H176L310 627H94L109 695H619L605 627H400Z" />
<glyph unicode="U" glyph-name="U" horiz-adv-x="658" d="M151 695H241L148 259Q136 205 144 167T174 104T231 69T306 57Q387 57 440 104T512 248L606 695H688L590 235Q565 119 492 55T303 -10Q246 -10 195 7T110 60T61 147T61 270L151 695Z" />
<glyph unicode="V" glyph-name="V" horiz-adv-x="619" d="M103 695H192L268 61L614 695H697L318 0H188L103 695Z" />
<glyph unicode="W" glyph-name="W" horiz-adv-x="859" d="M106 695H196L185 70L472 695H561L594 76L848 695H932L644 0H514L486 556L232 0H98L106 695Z" />
<glyph unicode="X" glyph-name="X" horiz-adv-x="594" d="M302 299L41 0H-56L272 370L127 695H223L346 423L574 695H671L374 353L533 0H436L302 299Z" />
<glyph unicode="Y" glyph-name="Y" horiz-adv-x="580" d="M192 0L256 300L106 695H200L316 375L570 695H661L347 303L283 0H192Z" />
<glyph unicode="Z" glyph-name="Z" horiz-adv-x="570" d="M-20 0L-6 65L496 627H125L139 695H620L606 630L102 69H488L473 0H-20Z" />
<glyph unicode="[" glyph-name="bracketleft" horiz-adv-x="374" d="M191 733H455L442 673H259L101 -75H283L270 -135H7L191 733Z" />
<glyph unicode="\" glyph-name="backslash" horiz-adv-x="363" d="M100 733H171L297 -116H225L100 733Z" />
<glyph unicode="]" glyph-name="bracketright" horiz-adv-x="374" d="M218 -135H-46L-33 -75H150L308 673H126L139 733H402L218 -135Z" />
<glyph unicode="^" glyph-name="asciicircum" horiz-adv-x="414" d="M291 627L131 444H66L257 695H352L436 444H376L291 627Z" />
<glyph unicode="_" glyph-name="underscore" horiz-adv-x="382" d="M-69 -47H329L315 -112H-83L-69 -47Z" />
<glyph unicode="`" glyph-name="grave" horiz-adv-x="399" d="M302 570L224 716H318L366 570H302Z" />
<glyph unicode="a" glyph-name="a" horiz-adv-x="486" d="M178 53Q204 53 226 61T267 83T300 112T324 143L345 239H239Q163 239 130 210T96 135Q96 94 118 74T178 53ZM306 0Q305 12 306 31T311 73Q287 41 251 16T160 -10Q134 -10 108 -3T60 21T26 65T12 130Q12
210 72 251T245 292H356L359 306Q368 347 363 374T341 416T300 438T244 445Q207 445 176 436T115 410L94 474Q125 493 167 503T259 513Q308 513 347 502T411 464T444 397T440 295L394 81Q392 74 391 63T387 40T384 17T382 0H306Z" />
<glyph unicode="b" glyph-name="b" horiz-adv-x="558" d="M277 -10Q213 -10 170 23T112 112L79 0H9L162 725H245L183 436Q209 471 246 492T332 513Q381 513 418 497T480 450T519 379T532 289Q532 232 515 178T465 83T385 16T277 -10ZM145 212Q145 131 180 91T273
51Q318 51 350 73T404 129T435 206T445 291Q445 373 410 412T314 452Q273 452 242 433T189 382T156 306T145 212Z" />
<glyph unicode="c" glyph-name="c" horiz-adv-x="451" d="M264 -10Q213 -10 170 4T94 48T44 120T26 220Q26 283 46 336T103 429T192 491T307 513Q352 513 390 502T453 470L419 409Q395 427 366 436T304 445Q256 445 220 429T160 383T124 313T112 226Q112 138 154
98T268 58Q297 58 322 64T376 84L390 21Q364 7 332 -1T264 -10Z" />
<glyph unicode="d" glyph-name="d" horiz-adv-x="560" d="M413 292Q413 373 378 412T283 452Q240 452 208 433T155 383T124 309T114 222Q114 134 149 93T241 51Q287 51 319 73T373 129T403 207T413 292ZM384 83Q355 42 315 16T220 -10Q176 -10 141 6T80 51T40
123T26 217Q26 274 43 327T92 421T172 488T280 513Q343 513 384 482T443 394L512 725H597L443 0H373L384 83Z" />
<glyph unicode="e" glyph-name="e" horiz-adv-x="500" d="M278 452Q217 452 176 411T119 299H384Q393 338 388 367T367 414T329 442T278 452ZM415 22Q393 10 356 0T269 -10Q156 -10 91 47T26 222Q26 287 46 340T101 432T184 492T285 513Q338 513 378 493T442 437T469
351T450 239H111V223Q111 138 152 98T273 58Q308 58 342 65T400 87L415 22Z" />
<glyph unicode="f" glyph-name="f" horiz-adv-x="344" d="M224 442L114 -138H31L140 442H78L92 503H152L160 546Q177 640 224 687T352 734Q382 734 403 728T434 717L407 655Q400 659 384 662T348 666Q301 666 278 636T244 546L236 503H378L365 442H224Z" />
<glyph unicode="g" glyph-name="g" horiz-adv-x="552" d="M410 303Q410 378 376 415T282 452Q239 452 208 434T156 387T125 318T115 237Q115 154 149 116T240 78Q285 78 317 98T370 151T400 224T410 303ZM185 -189Q137 -189 101 -181T41 -162Q13 -150 -7 -134L31
-69Q49 -84 72 -95Q92 -105 120 -113T183 -121Q225 -121 255 -111T307 -82T342 -36T362 28L376 100Q348 63 309 40T219 17Q176 17 141 31T81 73T42 140T28 229Q28 282 44 333T93 424T172 488T280 513Q347 513 390 479T447 387Q453 422 461 452T476 503H551Q546
490 540 465T529 423L443 20Q420 -88 356 -138T185 -189Z" />
<glyph unicode="h" glyph-name="h" horiz-adv-x="533" d="M326 445Q296 445 272 437T229 416T194 385T166 347L92 0H9L162 725H245L179 413H181Q209 455 251 484T357 513Q437 513 474 462T490 312L423 0H339L407 319Q415 356 413 380T399 418T369 439T326 445Z" />
<glyph unicode="i" glyph-name="i" horiz-adv-x="208" d="M173 577Q150 577 134 593T118 632Q118 655 134 672T173 689Q196 689 213 672T230 632Q230 609 213 593T173 577ZM199 503L92 0H9L115 503H199Z" />
<glyph unicode="j" glyph-name="j" horiz-adv-x="215" d="M183 577Q160 577 144 593T128 632Q128 655 144 672T183 689Q206 689 222 672T239 632Q239 609 223 593T183 577ZM-110 -129Q-51 -129 -25 -100T15 -9L125 503H208L99 -10Q90 -51 77 -85T42 -144T-15 -182T-101
-196L-110 -129Z" />
<glyph unicode="k" glyph-name="k" horiz-adv-x="453" d="M245 726L92 0H9L162 726H245ZM324 0L161 261L421 503H511L251 259L412 0H324Z" />
<glyph unicode="l" glyph-name="l" horiz-adv-x="208" d="M244 725L92 0H9L161 725H244Z" />
<glyph unicode="m" glyph-name="m" horiz-adv-x="824" d="M92 0H9L115 503H190L177 413H179Q206 455 245 484T343 513Q397 513 432 487T476 408Q505 453 548 483T656 513Q730 513 767 463T784 314L716 0H632L701 320Q709 357 706 381T692 419T663 439T624 445Q573
445 538 420T479 353L403 0H320L389 320Q397 357 394 381T379 419T350 439T311 445Q283 445 262 437T223 416T192 385T166 347L92 0Z" />
<glyph unicode="n" glyph-name="n" horiz-adv-x="530" d="M326 445Q296 445 272 437T229 416T194 385T166 347L92 0H9L115 503H190L177 413H179Q208 455 251 484T357 513Q437 513 474 462T490 312L423 0H339L407 319Q415 356 413 380T399 418T369 439T326 445Z" />
<glyph unicode="o" glyph-name="o" horiz-adv-x="524" d="M238 -10Q188 -10 149 7T83 54T41 126T26 218Q26 274 43 327T94 421T176 488T286 513Q335 513 374 496T441 449T483 377T498 284Q498 228 481 176T430 82T348 15T238 -10ZM112 220Q112 133 147 92T240
51Q280 51 312 69T366 118T399 192T411 282Q411 370 376 411T284 452Q243 452 211 434T157 384T124 310T112 220Z" />
<glyph unicode="p" glyph-name="p" horiz-adv-x="558" d="M145 212Q145 131 180 91T274 51Q319 51 351 73T404 129T435 206T445 291Q445 373 410 412T315 452Q274 452 242 433T189 382T156 306T145 212ZM277 -10Q215 -10 173 21T114 105L52 -187H-31L115 503H185L178
430Q204 467 242 490T332 513Q381 513 418 497T480 450T519 379T532 289Q532 232 515 178T465 83T385 16T277 -10Z" />
<glyph unicode="q" glyph-name="q" horiz-adv-x="559" d="M320 -187L375 71Q347 35 309 13T220 -10Q176 -10 141 6T80 51T40 123T26 217Q26 274 43 327T92 421T171 488T279 513Q348 513 391 477T448 374Q452 400 456 419T464 453T472 480T481 503H556Q551 490
542 459T522 375L403 -187H320ZM413 292Q413 373 378 412T283 452Q240 452 209 433T156 383T125 309T114 222Q114 134 150 93T243 51Q288 51 320 73T373 129T403 207T413 292Z" />
<glyph unicode="r" glyph-name="r" horiz-adv-x="332" d="M333 423Q279 426 232 402T160 320L92 0H9L115 503H190L173 394H175Q199 446 244 479T352 513L333 423V423Z" />
<glyph unicode="s" glyph-name="s" horiz-adv-x="429" d="M379 140Q379 74 334 32T198 -10Q163 -10 133 -4T77 11T33 31T4 53L41 111Q64 91 103 72T198 53Q252 53 277 78T302 136Q302 155 294 168T272 191T240 208T203 222Q176 231 150 242T104 269T71 308T58
367Q58 404 71 431T106 477T160 504T229 513Q289 513 332 497T400 459L366 399Q344 418 307 434T225 450Q179 450 156 430T133 374Q133 339 160 322T229 292Q254 283 281 273T329 246T365 204T379 140Z" />
<glyph unicode="t" glyph-name="t" horiz-adv-x="339" d="M279 5Q262 0 244 -5T201 -10Q121 -10 83 38T61 166L121 442H61L75 503H134L157 609H240L217 503H362L347 442H204L143 161Q131 107 151 83T209 58Q227 58 241 61T267 69L279 5V5Z" />
<glyph unicode="u" glyph-name="u" horiz-adv-x="524" d="M205 58Q234 58 257 66T298 87T331 118T358 156L431 503H515L408 0H338L346 90H344Q315 48 276 19T176 -10Q98 -10 61 39T41 176L110 503H194L126 187Q118 151 121 127T136 87T166 65T205 58Z" />
<glyph unicode="v" glyph-name="v" horiz-adv-x="459" d="M56 503H140L189 51L429 503H507L236 0H114L56 503Z" />
<glyph unicode="w" glyph-name="w" horiz-adv-x="707" d="M73 503H157L155 57L359 503H451L475 59L662 503H736L522 0H399L382 408L200 0H76L73 503Z" />
<glyph unicode="x" glyph-name="x" horiz-adv-x="464" d="M217 201L40 0H-46L187 264L82 503H172L255 318L411 503H498L285 256L400 0H309L217 201Z" />
<glyph unicode="y" glyph-name="y" horiz-adv-x="482" d="M21 -181Q1 -181 -18 -178T-49 -169L-33 -96Q-22 -101 -8 -105T26 -109Q66 -109 91 -88T142 -34L56 503H138L207 59L447 503H527L252 6Q201 -86 146 -133T21 -181Z" />
<glyph unicode="z" glyph-name="z" horiz-adv-x="423" d="M-27 0L-16 55L335 445H74L87 503H444L432 448L82 58H350L338 0H-27Z" />
<glyph unicode="{" glyph-name="braceleft" horiz-adv-x="375" d="M269 -129Q255 -134 235 -135T198 -137Q136 -137 104 -110T71 -29Q71 0 79 30T98 91T116 148T125 198Q125 229 104 246T38 268L51 332Q93 336 119 349T161 382T182 429T188 489Q188 512 188 540T193
596Q205 662 247 698T365 734Q384 734 405 732T447 724L434 664Q414 671 397 672T365 674Q321 674 299 650T270 591Q265 566 266 542T267 496Q267 468 262 439T241 382T195 333T116 298Q164 286 184 261T204 200Q204 174 196 147T177 92T159 37T150 -17Q150 -44
168 -59T226 -75Q249 -75 282 -69L269 -129V-129Z" />
<glyph unicode="|" glyph-name="bar" horiz-adv-x="258" d="M175 733V-116H103V733H175Z" />
<glyph unicode="}" glyph-name="braceright" horiz-adv-x="375" d="M122 727Q136 732 156 733T193 735Q255 735 287 708T320 627Q320 598 312 568T293 507T275 450T266 400Q266 369 287 352T353 330L340 266Q298 262 272 249T230 216T209 169T203 109Q203 86 203
58T198 2Q186 -64 144 -100T26 -136Q7 -136 -14 -134T-56 -126L-43 -66Q-23 -73 -6 -74T26 -76Q70 -76 92 -52T121 7Q126 32 125 56T124 102Q124 130 129 159T150 216T196 265T275 300Q227 312 207 337T187 398Q187 424 195 451T214 506T232 561T241 615Q241 642
223 657T165 673Q142 673 109 667L122 727V727Z" />
<glyph unicode="~" glyph-name="asciitilde" horiz-adv-x="577" d="M32 240Q34 271 43 301T71 355T117 392T186 407Q225 407 255 393T311 363T361 333T412 319Q438 319 457 341T482 413H558Q556 382 548 352T522 298T477 260T409 245Q370 245 339 259T282 289T232
320T183 334Q154 334 134 312T109 240H32V240Z" />
<glyph unicode="&#xa0;" glyph-name="uni00A0" horiz-adv-x="194" />
<glyph unicode="&#xa1;" glyph-name="exclamdown" horiz-adv-x="202" d="M-28 -179L91 322H151L56 -179H-28ZM145 513Q170 513 186 497T202 458Q202 434 186 418T145 402Q121 402 105 418T89 458Q89 481 105 497T145 513Z" />
<glyph unicode="&#xa2;" glyph-name="cent" horiz-adv-x="459" d="M119 226Q119 163 141 126T201 71L280 443Q199 432 159 373T119 226ZM271 -10Q265 -10 259 -10T246 -9L221 -126H159L186 2Q117 22 75 76T33 220Q33 281 52 333T105 423T188 485T295 512L316 610H378L357
510Q422 501 460 470L426 409Q391 435 342 443L260 58H275Q304 58 329 64T383 84L397 21Q371 7 339 -1T271 -10Z" />
<glyph unicode="&#xa3;" glyph-name="sterling" horiz-adv-x="529" d="M450 0H5L15 49Q51 68 75 91T114 142T136 202T146 273Q147 281 147 289T147 305H57L71 370H147Q146 408 146 445T154 518Q162 559 181 593T229 652T298 690T389 704Q446 704 483 692T542 663L510
598Q487 614 457 624T389 634Q323 634 285 601T235 511Q229 478 229 443T229 370H402L388 305H230Q230 297 230 289T229 273Q227 243 223 215T208 162T180 113T136 68H464L450 0Z" />
<glyph unicode="&#xa4;" glyph-name="currency" horiz-adv-x="512" d="M377 177Q354 160 326 151T266 142Q234 142 206 151T154 177L86 110L42 154L109 222Q92 246 83 274T74 334Q74 366 83 394T109 446L42 514L86 558L154 491Q178 508 206 517T266 526Q297 526
325 517T378 491L446 558L490 514L423 446Q440 422 449 394T458 334Q458 302 449 274T423 222L490 154L445 110L377 177ZM267 467Q242 467 220 458T181 432T154 391T144 334Q144 302 154 278T180 236T219 210T267 201Q292 201 314 210T352 236T378 277T388 334Q388
366 379 390T353 432T314 458T267 467Z" />
<glyph unicode="&#xa5;" glyph-name="yen" horiz-adv-x="537" d="M285 161L251 0H166L200 161H48L61 224H214L229 295H77L90 358H223L98 695H183L294 392L530 695H618L353 358H479L466 295H313L298 224H450L437 161H285Z" />
<glyph unicode="&#xa6;" glyph-name="brokenbar" horiz-adv-x="258" d="M175 733V345H103V733H175ZM175 272V-116H103V272H175Z" />
<glyph unicode="&#xa7;" glyph-name="section" horiz-adv-x="537" d="M114 278Q114 244 134 221T184 184T248 164T312 160Q362 164 390 187T419 248Q419 279 400 301T350 338T284 357T215 360Q164 356 139 334T114 278ZM186 -181Q124 -181 80 -169T7 -143Q-26
-126 -49 -104L-5 -43Q14 -64 42 -80Q66 -94 102 -105T186 -116Q217 -116 243 -111T290 -96T321 -68T333 -25Q333 10 311 33T255 74T182 107T109 145T53 197T30 276Q30 310 45 335T84 378T138 403T201 413Q170 429 147 463T123 544Q123 578 138 607T181 657T251
691T345 704Q396 704 433 695T493 674Q520 661 539 644L505 585Q490 600 466 612Q446 622 416 630T343 639Q269 639 235 615T200 548Q200 510 222 487T279 448T353 417T427 383T483 333T506 253Q506 224 495 199T462 155T412 124T346 109Q380 88 396 56T413 -18Q413
-64 394 -95T343 -146T270 -173T186 -181Z" />
<glyph unicode="&#xa8;" glyph-name="dieresis" horiz-adv-x="400" d="M385 577Q360 577 345 592T330 631Q330 655 345 671T385 687Q410 687 425 671T440 631Q440 608 425 593T385 577ZM175 577Q151 577 136 592T120 631Q120 655 135 671T175 687Q200 687 215
671T231 631Q231 608 216 593T175 577Z" />
<glyph unicode="&#xa9;" glyph-name="copyright" horiz-adv-x="864" d="M437 -93Q353 -93 280 -64T154 19T70 146T39 307Q39 394 69 466T153 592T280 674T437 704Q522 704 595 675T721 592T805 467T836 307Q836 220 806 147T722 20T595 -63T437 -93ZM437 -40Q511
-40 572 -14T678 58T746 168T771 307Q771 382 747 445T678 554T573 626T437 652Q363 652 302 626T197 554T129 445T104 307Q104 232 128 168T197 58T302 -14T437 -40ZM459 97Q364 97 308 152T251 306Q251 404 304 458T458 513Q495 513 523 505T569 484V424Q547
439 518 446T457 453Q329 453 329 306Q329 157 463 157Q492 157 518 164T569 192V132Q555 119 527 108T459 97Z" />
<glyph unicode="&#xaa;" glyph-name="ordfeminine" horiz-adv-x="423" d="M211 362Q241 362 264 375T303 407T329 444T342 475L352 521H263Q197 521 169 498T141 433Q141 398 160 380T211 362ZM316 313Q316 323 317 343T323 386Q304 355 273 330T193 305Q170 305
148 311T107 332T77 369T65 425Q65 494 117 533T269 572H363L366 586Q379 644 353 671T280 698Q238 698 210 691T155 670L139 733Q166 749 202 757T281 766Q324 766 358 755T415 721T444 661T440 576L397 383Q396 377 394 368T391 348T388 329T386 313H316Z" />
<glyph unicode="&#xab;" glyph-name="guillemotleft" horiz-adv-x="439" d="M295 87L209 256L370 425H454L288 250L369 87H295ZM123 87L37 256L198 425H282L116 250L197 87H123Z" />
<glyph unicode="&#xac;" glyph-name="logicalnot" horiz-adv-x="561" d="M391 99L434 297H45L59 361H527L520 327L471 99H391Z" />
<glyph unicode="&#xae;" glyph-name="registered" horiz-adv-x="864" d="M437 -93Q353 -93 280 -64T154 19T70 146T39 307Q39 394 69 466T153 592T280 674T437 704Q522 704 595 675T721 592T805 467T836 307Q836 220 806 147T722 20T595 -63T437 -93ZM437 -40Q511
-40 572 -14T678 58T746 168T771 307Q771 382 747 445T678 554T573 626T437 652Q363 652 302 626T197 554T129 445T104 307Q104 232 128 168T197 58T302 -14T437 -40ZM372 450V308H435Q473 308 495 324T517 382Q517 421 496 435T437 450H372ZM440 250H372V104H296V508H437Q514
508 554 479T595 386Q595 337 574 308T515 265L610 104H525L440 250Z" />
<glyph unicode="&#xaf;" glyph-name="macron" horiz-adv-x="399" d="M148 665H423L410 604H135L148 665Z" />
<glyph unicode="&#xb0;" glyph-name="degree" horiz-adv-x="455" d="M286 351Q248 351 216 364T161 401T124 457T110 528Q110 567 123 599T160 654T216 691T286 704Q324 704 356 691T412 655T449 599T463 528Q463 490 450 458T413 402T357 365T286 351ZM286 403Q337
403 367 437T398 528Q398 584 368 618T286 652Q235 652 205 618T175 528Q175 471 205 437T286 403Z" />
<glyph unicode="&#xb1;" glyph-name="plusminus" horiz-adv-x="561" d="M329 295L293 126H212L248 295H54L68 359H262L305 565H386L343 359H537L523 295H329ZM-9 0L5 64H474L460 0H-9Z" />
<glyph unicode="&#xb2;" glyph-name="two.sup" horiz-adv-x="370" d="M51 315L61 365Q135 410 182 446T256 512T293 569T304 621Q304 656 288 678T230 701Q201 701 179 691T138 665L121 722Q139 736 167 747T238 758Q316 758 351 723T387 632Q387 562 331 500T158
371H345L333 315H51Z" />
<glyph unicode="&#xb3;" glyph-name="three.sup" horiz-adv-x="353" d="M177 309Q131 309 99 321T52 347L83 398Q98 387 123 377T178 366Q268 366 268 445Q268 481 246 498T184 516H147L159 572H206Q251 572 272 591T293 640Q293 701 226 701Q197 701 175 694T131
673L123 733Q144 744 170 751T232 759Q300 759 335 729T370 651Q370 627 361 607T337 573T301 550T257 542Q293 537 319 514T346 445Q346 388 304 349T177 309Z" />
<glyph unicode="&#xb4;" glyph-name="acute" horiz-adv-x="400" d="M284 716H387L257 570H191L284 716Z" />
<glyph unicode="&#xb6;" glyph-name="paragraph" horiz-adv-x="595" d="M208 -181L304 271H268Q221 271 183 283T118 318T75 377T60 458Q60 514 81 558T139 632T229 679T345 695H466L280 -181H208ZM431 -181H359L545 695H617L431 -181Z" />
<glyph unicode="&#xb7;" glyph-name="periodcentered" horiz-adv-x="196" d="M91 194Q66 194 50 210T34 250Q34 276 50 291T91 307Q115 307 131 292T147 250Q147 227 131 211T91 194Z" />
<glyph unicode="&#xb8;" glyph-name="cedilla" horiz-adv-x="399" d="M146 -187Q116 -187 100 -181T72 -168L89 -126Q97 -131 109 -136T140 -141Q159 -141 171 -133T183 -106Q183 -88 170 -82T133 -76H117L165 12H216L187 -42Q216 -45 234 -60T253 -103Q253 -146
223 -166T146 -187Z" />
<glyph unicode="&#xb9;" glyph-name="one.sup" horiz-adv-x="275" d="M141 315L216 667L81 573L98 650L245 753H312L219 315H141Z" />
<glyph unicode="&#xba;" glyph-name="ordmasculine" horiz-adv-x="449" d="M260 305Q217 305 183 319T124 360T87 423T74 504Q74 553 89 599T134 680T205 737T301 759Q344 759 378 745T437 704T474 641T487 560Q487 512 472 466T427 384T355 327T260 305ZM152
505Q152 431 182 397T261 363Q296 363 323 378T369 420T398 482T408 559Q408 633 378 667T299 701Q264 701 237 686T191 644T162 581T152 505Z" />
<glyph unicode="&#xbb;" glyph-name="guillemotright" horiz-adv-x="441" d="M152 425L238 256L77 87H-7L158 262L78 425H152ZM326 425L412 256L251 87H167L332 262L252 425H326Z" />
<glyph unicode="&#xbc;" glyph-name="onequarter" horiz-adv-x="934" d="M181 257L256 609L121 515L138 592L285 695H352L259 257H181ZM89 0L802 695H877L165 0H89ZM750 349L574 153H708L750 349ZM772 98L751 1H675L696 98H498L510 152L768 439H844L783 153H841L829
98H772Z" />
<glyph unicode="&#xbd;" glyph-name="onehalf" horiz-adv-x="998" d="M181 257L256 609L121 515L138 592L285 695H352L259 257H181ZM89 0L802 695H877L165 0H89ZM595 1L605 51Q679 96 726 132T800 198T837 255T848 307Q848 342 832 364T774 387Q745 387 723 377T682
351L665 408Q683 422 711 433T782 444Q860 444 895 409T931 318Q931 248 875 186T702 57H889L877 1H595Z" />
<glyph unicode="&#xbe;" glyph-name="threequarters" horiz-adv-x="954" d="M185 251Q139 251 107 263T60 289L91 340Q106 329 131 319T186 308Q276 308 276 387Q276 423 254 440T192 458H155L167 514H214Q259 514 280 533T301 582Q301 643 234 643Q205 643 183
636T139 615L131 675Q152 686 178 693T240 701Q308 701 343 671T378 593Q378 569 369 549T345 515T309 492T265 484Q301 479 327 456T354 387Q354 330 312 291T185 251ZM109 0L822 695H897L185 0H109ZM770 349L594 153H728L770 349ZM792 98L771 1H695L716 98H518L530
152L788 439H864L803 153H861L849 98H792Z" />
<glyph unicode="&#xbf;" glyph-name="questiondown" horiz-adv-x="394" d="M-24 -23Q-24 16 -13 46T17 99T60 141T109 174Q133 189 157 203T199 232T230 264T243 304L244 322H316L315 305Q313 269 299 243T264 195T218 157T166 124Q145 111 126 98T93 68T69 31T60
-17Q60 -65 89 -95T186 -125Q221 -125 246 -117T288 -100L300 -175Q281 -185 252 -190T181 -196Q127 -196 89 -183T25 -147T-12 -92T-24 -23ZM289 513Q314 513 330 497T346 458Q346 434 330 418T289 402Q265 402 249 418T233 458Q233 481 249 497T289 513Z" />
<glyph unicode="&#xc0;" glyph-name="Agrave" horiz-adv-x="614" d="M383 635L187 273H426L383 635ZM434 206H151L39 0H-38L337 695H464L546 0H458L434 206ZM372 752L270 870H374L438 752H372Z" />
<glyph unicode="&#xc1;" glyph-name="Aacute" horiz-adv-x="614" d="M383 635L187 273H426L383 635ZM434 206H151L39 0H-38L337 695H464L546 0H458L434 206ZM454 868H568L436 750H364L454 868Z" />
<glyph unicode="&#xc2;" glyph-name="Acircumflex" horiz-adv-x="614" d="M383 635L187 273H426L383 635ZM434 206H151L39 0H-38L337 695H464L546 0H458L434 206ZM411 817L319 750H255L367 869H467L537 750H478L411 817Z" />
<glyph unicode="&#xc3;" glyph-name="Atilde" horiz-adv-x="614" d="M383 635L187 273H426L383 635ZM434 206H151L39 0H-38L337 695H464L546 0H458L434 206ZM234 761Q233 789 240 809T262 843T295 863T338 870Q363 870 381 864T414 850T443 836T475 829Q516 829
515 875H573Q575 821 549 793T475 765Q450 765 433 771T401 785T372 799T338 806Q318 806 306 797T292 761H234V761Z" />
<glyph unicode="&#xc4;" glyph-name="Adieresis" horiz-adv-x="614" d="M383 635L187 273H426L383 635ZM434 206H151L39 0H-38L337 695H464L546 0H458L434 206ZM521 762Q497 762 482 777T466 816Q466 840 481 856T521 872Q546 872 561 856T577 816Q577 793 562
778T521 762ZM297 762Q273 762 258 777T242 816Q242 840 257 856T297 872Q322 872 337 856T353 816Q353 793 338 778T297 762Z" />
<glyph unicode="&#xc5;" glyph-name="Aring" horiz-adv-x="614" d="M383 635L187 273H426L383 635ZM434 206H151L39 0H-38L337 695H464L546 0H458L434 206ZM402 725Q357 725 329 753T300 825Q300 868 328 896T402 925Q445 925 475 897T505 825Q505 781 475 753T402
725ZM402 768Q424 768 438 784T453 825Q453 850 439 865T402 881Q380 881 366 866T352 825Q352 800 366 784T402 768Z" />
<glyph unicode="&#xc6;" glyph-name="AE" horiz-adv-x="896" d="M526 636L282 313H457L526 636ZM443 245H231L46 0H-38L486 695H932L917 627H614L564 394H827L812 326H550L495 68H802L788 0H390L443 245Z" />
<glyph unicode="&#xc7;" glyph-name="Ccedilla" horiz-adv-x="602" d="M266 -187Q236 -187 220 -181T192 -168L209 -126Q217 -131 229 -136T260 -141Q279 -141 291 -133T303 -106Q303 -88 290 -82T253 -76H237L276 -3Q170 17 108 93T45 293Q45 378 73 453T152
584T274 672T432 704Q514 704 562 686T632 650L594 573Q574 595 529 613T425 632Q359 632 306 606T216 534T160 428T140 300Q140 245 152 201T191 126T260 79T361 62Q443 62 508 99L533 35Q498 15 451 3T352 -10Q344 -10 338 -10T324 -9L307 -42Q336 -45 354 -60T373
-103Q373 -146 343 -166T266 -187Z" />
<glyph unicode="&#xc8;" glyph-name="Egrave" horiz-adv-x="524" d="M167 695H554L540 627H242L193 395H455L441 327H178L123 68H436L422 0H18L167 695ZM359 752L257 870H361L425 752H359Z" />
<glyph unicode="&#xc9;" glyph-name="Eacute" horiz-adv-x="524" d="M167 695H554L540 627H242L193 395H455L441 327H178L123 68H436L422 0H18L167 695ZM414 868H528L396 750H324L414 868Z" />
<glyph unicode="&#xca;" glyph-name="Ecircumflex" horiz-adv-x="524" d="M167 695H554L540 627H242L193 395H455L441 327H178L123 68H436L422 0H18L167 695ZM383 817L291 750H227L339 869H439L509 750H450L383 817Z" />
<glyph unicode="&#xcb;" glyph-name="Edieresis" horiz-adv-x="524" d="M167 695H554L540 627H242L193 395H455L441 327H178L123 68H436L422 0H18L167 695ZM488 762Q464 762 449 777T433 816Q433 840 448 856T488 872Q513 872 528 856T544 816Q544 793 529 778T488
762ZM264 762Q240 762 225 777T209 816Q209 840 224 856T264 872Q289 872 304 856T320 816Q320 793 305 778T264 762Z" />
<glyph unicode="&#xcc;" glyph-name="Igrave" horiz-adv-x="235" d="M257 695L108 0H18L167 695H257ZM440 752L338 870H442L506 752H440Z" />
<glyph unicode="&#xcd;" glyph-name="Iacute" horiz-adv-x="235" d="M257 695L108 0H18L167 695H257ZM532 868H646L514 750H442L532 868Z" />
<glyph unicode="&#xce;" glyph-name="Icircumflex" horiz-adv-x="235" d="M257 695L108 0H18L167 695H257ZM488 817L396 750H332L444 869H544L614 750H555L488 817Z" />
<glyph unicode="&#xcf;" glyph-name="Idieresis" horiz-adv-x="235" d="M322 762Q298 762 283 777T267 816Q267 840 282 856T322 872Q347 872 362 856T378 816Q378 793 363 778T322 762ZM132 762Q108 762 93 777T77 816Q77 840 92 856T132 872Q157 872 172 856T188
816Q188 793 173 778T132 762ZM257 695L108 0H18L167 695H257Z" />
<glyph unicode="&#xd0;" glyph-name="Eth" horiz-adv-x="688" d="M196 321L142 68H282Q356 68 411 97T504 173T559 281T578 406Q578 469 563 511T520 579T455 616T376 627H261L210 385H380L367 321H196ZM106 321H35L48 385H120L186 695H377Q438 695 491 681T585
633T649 545T673 410Q673 332 648 258T572 127T448 35T276 0H37L106 321Z" />
<glyph unicode="&#xd1;" glyph-name="Ntilde" horiz-adv-x="693" d="M221 612L92 0H18L167 695H279L512 81L642 695H716L568 0H454L221 612ZM282 761Q281 789 288 809T310 843T343 863T386 870Q411 870 429 864T462 850T491 836T523 829Q564 829 563 875H621Q623
821 597 793T523 765Q498 765 481 771T449 785T420 799T386 806Q366 806 354 797T340 761H282V761Z" />
<glyph unicode="&#xd2;" glyph-name="Ograve" horiz-adv-x="699" d="M334 -10Q270 -10 217 10T126 71T66 168T45 300Q45 385 71 459T144 587T255 673T394 704Q458 704 511 684T602 624T662 527T684 395Q684 310 658 236T584 108T473 22T334 -10ZM140 296Q140 234
155 189T195 115T256 72T331 58Q391 58 439 86T520 161T571 269T589 399Q589 461 574 506T533 580T472 622T395 636Q332 636 285 608T205 534T157 425T140 296ZM372 752L270 870H374L438 752H372Z" />
<glyph unicode="&#xd3;" glyph-name="Oacute" horiz-adv-x="699" d="M334 -10Q270 -10 217 10T126 71T66 168T45 300Q45 385 71 459T144 587T255 673T394 704Q458 704 511 684T602 624T662 527T684 395Q684 310 658 236T584 108T473 22T334 -10ZM140 296Q140 234
155 189T195 115T256 72T331 58Q391 58 439 86T520 161T571 269T589 399Q589 461 574 506T533 580T472 622T395 636Q332 636 285 608T205 534T157 425T140 296ZM464 868H578L446 750H374L464 868Z" />
<glyph unicode="&#xd4;" glyph-name="Ocircumflex" horiz-adv-x="699" d="M334 -10Q270 -10 217 10T126 71T66 168T45 300Q45 385 71 459T144 587T255 673T394 704Q458 704 511 684T602 624T662 527T684 395Q684 310 658 236T584 108T473 22T334 -10ZM140 296Q140
234 155 189T195 115T256 72T331 58Q391 58 439 86T520 161T571 269T589 399Q589 461 574 506T533 580T472 622T395 636Q332 636 285 608T205 534T157 425T140 296ZM420 817L328 750H264L376 869H476L546 750H487L420 817Z" />
<glyph unicode="&#xd5;" glyph-name="Otilde" horiz-adv-x="699" d="M334 -10Q270 -10 217 10T126 71T66 168T45 300Q45 385 71 459T144 587T255 673T394 704Q458 704 511 684T602 624T662 527T684 395Q684 310 658 236T584 108T473 22T334 -10ZM140 296Q140 234
155 189T195 115T256 72T331 58Q391 58 439 86T520 161T571 269T589 399Q589 461 574 506T533 580T472 622T395 636Q332 636 285 608T205 534T157 425T140 296ZM244 761Q243 789 250 809T272 843T305 863T348 870Q373 870 391 864T424 850T453 836T485 829Q526
829 525 875H583Q585 821 559 793T485 765Q460 765 443 771T411 785T382 799T348 806Q328 806 316 797T302 761H244V761Z" />
<glyph unicode="&#xd6;" glyph-name="Odieresis" horiz-adv-x="699" d="M334 -10Q270 -10 217 10T126 71T66 168T45 300Q45 385 71 459T144 587T255 673T394 704Q458 704 511 684T602 624T662 527T684 395Q684 310 658 236T584 108T473 22T334 -10ZM140 296Q140
234 155 189T195 115T256 72T331 58Q391 58 439 86T520 161T571 269T589 399Q589 461 574 506T533 580T472 622T395 636Q332 636 285 608T205 534T157 425T140 296ZM531 762Q507 762 492 777T476 816Q476 840 491 856T531 872Q556 872 571 856T587 816Q587 793
572 778T531 762ZM307 762Q283 762 268 777T252 816Q252 840 267 856T307 872Q332 872 347 856T363 816Q363 793 348 778T307 762Z" />
<glyph unicode="&#xd7;" glyph-name="multiply" horiz-adv-x="519" d="M260 280L70 107L27 155L222 331L84 514L140 554L274 378L471 556L514 508L313 326L451 144L394 103L260 280Z" />
<glyph unicode="&#xd8;" glyph-name="Oslash" horiz-adv-x="698" d="M334 -10Q270 -10 217 10Q179 25 148 49L91 -18H11L106 93Q81 126 66 168Q45 226 45 300Q45 385 71 459T144 587T255 673T394 704Q458 704 511 683Q547 669 577 646L625 702H705L620 603Q646
570 662 526Q684 469 684 395Q684 310 658 236T584 108T473 22T334 -10ZM256 72Q291 58 331 58Q391 58 439 86T520 161T571 269T589 399Q589 461 574 506Q569 521 562 535L200 110Q224 85 256 72ZM140 296Q140 234 155 189Q159 175 165 163L526 587Q502 610 471
622Q436 636 395 636Q332 636 285 608T205 534T157 425T140 296Z" />
<glyph unicode="&#xd9;" glyph-name="Ugrave" horiz-adv-x="658" d="M151 695H241L148 259Q136 205 144 167T174 104T231 69T306 57Q387 57 440 104T512 248L606 695H688L590 235Q565 119 492 55T303 -10Q246 -10 195 7T110 60T61 147T61 270L151 695ZM404 752L302
870H406L470 752H404Z" />
<glyph unicode="&#xda;" glyph-name="Uacute" horiz-adv-x="658" d="M151 695H241L148 259Q136 205 144 167T174 104T231 69T306 57Q387 57 440 104T512 248L606 695H688L590 235Q565 119 492 55T303 -10Q246 -10 195 7T110 60T61 147T61 270L151 695ZM463 868H577L445
750H373L463 868Z" />
<glyph unicode="&#xdb;" glyph-name="Ucircumflex" horiz-adv-x="658" d="M151 695H241L148 259Q136 205 144 167T174 104T231 69T306 57Q387 57 440 104T512 248L606 695H688L590 235Q565 119 492 55T303 -10Q246 -10 195 7T110 60T61 147T61 270L151 695ZM440
817L348 750H284L396 869H496L566 750H507L440 817Z" />
<glyph unicode="&#xdc;" glyph-name="Udieresis" horiz-adv-x="658" d="M151 695H241L148 259Q136 205 144 167T174 104T231 69T306 57Q387 57 440 104T512 248L606 695H688L590 235Q565 119 492 55T303 -10Q246 -10 195 7T110 60T61 147T61 270L151 695ZM551
762Q527 762 512 777T496 816Q496 840 511 856T551 872Q576 872 591 856T607 816Q607 793 592 778T551 762ZM327 762Q303 762 288 777T272 816Q272 840 287 856T327 872Q352 872 367 856T383 816Q383 793 368 778T327 762Z" />
<glyph unicode="&#xdd;" glyph-name="Yacute" horiz-adv-x="580" d="M192 0L256 300L106 695H200L316 375L570 695H661L347 303L283 0H192ZM430 868H544L412 750H340L430 868Z" />
<glyph unicode="&#xde;" glyph-name="Thorn" horiz-adv-x="565" d="M212 485L153 209H314Q383 209 427 251T471 374Q471 436 438 460T343 485H212ZM138 141L108 0H18L167 695H257L227 553H351Q400 553 439 543T507 511T550 458T565 380Q565 323 545 279T488 204T403
157T297 141H138Z" />
<glyph unicode="&#xdf;" glyph-name="germandbls" horiz-adv-x="566" d="M518 138Q518 65 469 28T341 -10Q288 -10 251 2T198 27L222 92Q240 79 268 69T341 58Q390 58 412 78T434 128Q434 152 422 168T390 198T350 222T309 249T278 283T265 333Q265 365 278 388T312
431T356 465T400 499T434 538T448 589Q448 630 424 651T355 673Q292 673 255 636T205 534L74 -138H-9L121 534Q140 631 199 682T361 734Q446 734 489 693T532 589Q532 553 518 526T482 478T436 440T389 408T354 376T339 342Q339 324 352 311T385 287T428 264T471
236T504 196T518 138Z" />
<glyph unicode="&#xe0;" glyph-name="agrave" horiz-adv-x="486" d="M178 53Q204 53 226 61T267 83T300 112T324 143L345 239H239Q163 239 130 210T96 135Q96 94 118 74T178 53ZM306 0Q305 12 306 31T311 73Q287 41 251 16T160 -10Q134 -10 108 -3T60 21T26 65T12
130Q12 210 72 251T245 292H356L359 306Q368 347 363 374T341 416T300 438T244 445Q207 445 176 436T115 410L94 474Q125 493 167 503T259 513Q308 513 347 502T411 464T444 397T440 295L394 81Q392 74 391 63T387 40T384 17T382 0H306ZM504 570L426 716H520L568
570H504Z" />
<glyph unicode="&#xe1;" glyph-name="aacute" horiz-adv-x="486" d="M178 53Q204 53 226 61T267 83T300 112T324 143L345 239H239Q163 239 130 210T96 135Q96 94 118 74T178 53ZM306 0Q305 12 306 31T311 73Q287 41 251 16T160 -10Q134 -10 108 -3T60 21T26 65T12
130Q12 210 72 251T245 292H356L359 306Q368 347 363 374T341 416T300 438T244 445Q207 445 176 436T115 410L94 474Q125 493 167 503T259 513Q308 513 347 502T411 464T444 397T440 295L394 81Q392 74 391 63T387 40T384 17T382 0H306ZM338 716H441L311 570H245L338
716Z" />
<glyph unicode="&#xe2;" glyph-name="acircumflex" horiz-adv-x="486" d="M178 53Q204 53 226 61T267 83T300 112T324 143L345 239H239Q163 239 130 210T96 135Q96 94 118 74T178 53ZM306 0Q305 12 306 31T311 73Q287 41 251 16T160 -10Q134 -10 108 -3T60 21T26
65T12 130Q12 210 72 251T245 292H356L359 306Q368 347 363 374T341 416T300 438T244 445Q207 445 176 436T115 410L94 474Q125 493 167 503T259 513Q308 513 347 502T411 464T444 397T440 295L394 81Q392 74 391 63T387 40T384 17T382 0H306ZM302 649L207 570H141L265
707H355L422 570H355L302 649Z" />
<glyph unicode="&#xe3;" glyph-name="atilde" horiz-adv-x="486" d="M178 53Q204 53 226 61T267 83T300 112T324 143L345 239H239Q163 239 130 210T96 135Q96 94 118 74T178 53ZM306 0Q305 12 306 31T311 73Q287 41 251 16T160 -10Q134 -10 108 -3T60 21T26 65T12
130Q12 210 72 251T245 292H356L359 306Q368 347 363 374T341 416T300 438T244 445Q207 445 176 436T115 410L94 474Q125 493 167 503T259 513Q308 513 347 502T411 464T444 397T440 295L394 81Q392 74 391 63T387 40T384 17T382 0H306ZM120 580Q119 601 124 621T141
656T173 681T221 690Q246 690 264 684T298 670T327 656T358 649Q393 649 396 694H452Q453 673 449 654T435 619T407 594T362 584Q336 584 319 590T286 605T256 619T222 626Q203 626 191 616T177 580H120V580Z" />
<glyph unicode="&#xe4;" glyph-name="adieresis" horiz-adv-x="486" d="M178 53Q204 53 226 61T267 83T300 112T324 143L345 239H239Q163 239 130 210T96 135Q96 94 118 74T178 53ZM306 0Q305 12 306 31T311 73Q287 41 251 16T160 -10Q134 -10 108 -3T60 21T26
65T12 130Q12 210 72 251T245 292H356L359 306Q368 347 363 374T341 416T300 438T244 445Q207 445 176 436T115 410L94 474Q125 493 167 503T259 513Q308 513 347 502T411 464T444 397T440 295L394 81Q392 74 391 63T387 40T384 17T382 0H306ZM394 577Q369 577
354 592T339 631Q339 655 354 671T394 687Q419 687 434 671T449 631Q449 608 434 593T394 577ZM184 577Q160 577 145 592T129 631Q129 655 144 671T184 687Q209 687 224 671T240 631Q240 608 225 593T184 577Z" />
<glyph unicode="&#xe5;" glyph-name="aring" horiz-adv-x="486" d="M178 53Q204 53 226 61T267 83T300 112T324 143L345 239H239Q163 239 130 210T96 135Q96 94 118 74T178 53ZM306 0Q305 12 306 31T311 73Q287 41 251 16T160 -10Q134 -10 108 -3T60 21T26 65T12
130Q12 210 72 251T245 292H356L359 306Q368 347 363 374T341 416T300 438T244 445Q207 445 176 436T115 410L94 474Q125 493 167 503T259 513Q308 513 347 502T411 464T444 397T440 295L394 81Q392 74 391 63T387 40T384 17T382 0H306ZM303 564Q259 564 230 592T201
665Q201 708 230 736T303 764Q347 764 376 736T406 665Q406 620 377 592T303 564ZM303 608Q326 608 339 623T353 665Q353 691 340 705T303 720Q280 720 268 706T255 665Q255 639 267 624T303 608Z" />
<glyph unicode="&#xe6;" glyph-name="ae" horiz-adv-x="821" d="M599 452Q537 452 496 409T440 292H702Q710 332 705 362T686 412T649 442T599 452ZM194 52Q227 52 253 62T300 88T334 126T357 169Q351 202 351 240H241Q164 240 130 210T96 134Q96 93 125 73T194
52ZM751 22Q728 9 689 0T595 -10Q432 -10 378 100Q346 54 297 22T173 -10Q144 -10 116 -3T64 21T27 65T12 130Q12 207 72 249T245 292H356L359 306Q367 347 362 374T340 416T299 438T244 445Q211 445 180 436T115 410L94 474Q129 493 171 503T264 513Q324 513 367
493T428 424Q461 466 507 489T606 513Q659 513 699 493T763 437T789 351T770 239H434V223Q434 138 474 98T609 58Q644 58 678 65T736 87L751 22Z" />
<glyph unicode="&#xe7;" glyph-name="ccedilla" horiz-adv-x="451" d="M170 -187Q140 -187 124 -181T96 -168L113 -126Q121 -131 133 -136T164 -141Q183 -141 195 -133T207 -106Q207 -88 194 -82T157 -76H141L183 1Q113 21 70 75T26 220Q26 283 46 336T103 429T192
491T307 513Q352 513 390 502T453 470L419 409Q395 427 366 436T304 445Q256 445 220 429T160 383T124 313T112 226Q112 138 154 98T268 58Q297 58 322 64T376 84L390 21Q364 7 332 -1T264 -10Q255 -10 246 -10T229 -8L211 -42Q240 -45 258 -60T277 -103Q277 -146
247 -166T170 -187Z" />
<glyph unicode="&#xe8;" glyph-name="egrave" horiz-adv-x="500" d="M278 452Q217 452 176 411T119 299H384Q393 338 388 367T367 414T329 442T278 452ZM415 22Q393 10 356 0T269 -10Q156 -10 91 47T26 222Q26 287 46 340T101 432T184 492T285 513Q338 513 378
493T442 437T469 351T450 239H111V223Q111 138 152 98T273 58Q308 58 342 65T400 87L415 22ZM512 570L434 716H528L576 570H512Z" />
<glyph unicode="&#xe9;" glyph-name="eacute" horiz-adv-x="500" d="M278 452Q217 452 176 411T119 299H384Q393 338 388 367T367 414T329 442T278 452ZM415 22Q393 10 356 0T269 -10Q156 -10 91 47T26 222Q26 287 46 340T101 432T184 492T285 513Q338 513 378
493T442 437T469 351T450 239H111V223Q111 138 152 98T273 58Q308 58 342 65T400 87L415 22ZM346 716H449L319 570H253L346 716Z" />
<glyph unicode="&#xea;" glyph-name="ecircumflex" horiz-adv-x="500" d="M278 452Q217 452 176 411T119 299H384Q393 338 388 367T367 414T329 442T278 452ZM415 22Q393 10 356 0T269 -10Q156 -10 91 47T26 222Q26 287 46 340T101 432T184 492T285 513Q338 513
378 493T442 437T469 351T450 239H111V223Q111 138 152 98T273 58Q308 58 342 65T400 87L415 22ZM305 649L210 570H144L268 707H358L425 570H358L305 649Z" />
<glyph unicode="&#xeb;" glyph-name="edieresis" horiz-adv-x="500" d="M278 452Q217 452 176 411T119 299H384Q393 338 388 367T367 414T329 442T278 452ZM415 22Q393 10 356 0T269 -10Q156 -10 91 47T26 222Q26 287 46 340T101 432T184 492T285 513Q338 513
378 493T442 437T469 351T450 239H111V223Q111 138 152 98T273 58Q308 58 342 65T400 87L415 22ZM403 577Q378 577 363 592T348 631Q348 655 363 671T403 687Q428 687 443 671T458 631Q458 608 443 593T403 577ZM193 577Q169 577 154 592T138 631Q138 655 153 671T193
687Q218 687 233 671T249 631Q249 608 234 593T193 577Z" />
<glyph unicode="&#xec;" glyph-name="igrave" horiz-adv-x="203" d="M198 503L91 0H8L114 503H198ZM134 570L56 716H150L198 570H134Z" />
<glyph unicode="&#xed;" glyph-name="iacute" horiz-adv-x="203" d="M198 503L91 0H8L114 503H198ZM493 716H596L466 570H400L493 716Z" />
<glyph unicode="&#xee;" glyph-name="icircumflex" horiz-adv-x="203" d="M188 649L114 570H51L155 707H239L286 570H225L188 649ZM198 503L91 0H8L114 503H198Z" />
<glyph unicode="&#xef;" glyph-name="idieresis" horiz-adv-x="203" d="M260 577Q235 577 220 592T205 631Q205 655 220 671T260 687Q285 687 300 671T315 631Q315 608 300 593T260 577ZM85 577Q61 577 46 592T30 631Q30 655 45 671T85 687Q110 687 125 671T141
631Q141 608 126 593T85 577ZM198 503L91 0H8L114 503H198Z" />
<glyph unicode="&#xf0;" glyph-name="eth" horiz-adv-x="547" d="M240 -10Q195 -10 156 3T88 45T43 117T26 220Q26 285 46 337T100 427T181 484T281 504Q327 504 366 488T433 431Q420 479 397 521T343 598L185 550L171 598L303 638Q276 663 246 683T184 718V725H294Q342
703 386 663L499 698L512 649L425 623Q468 571 494 503T521 353Q521 268 500 201T440 87T351 15T240 -10ZM244 58Q285 58 320 77T380 133T420 224T435 351V369Q415 407 377 427T293 447Q248 447 214 430T158 382T124 310T112 222Q112 176 123 145T152 95T194 67T244
58Z" />
<glyph unicode="&#xf1;" glyph-name="ntilde" horiz-adv-x="530" d="M326 445Q296 445 272 437T229 416T194 385T166 347L92 0H9L115 503H190L177 413H179Q208 455 251 484T357 513Q437 513 474 462T490 312L423 0H339L407 319Q415 356 413 380T399 418T369 439T326
445ZM159 580Q158 601 163 621T180 656T212 681T260 690Q285 690 303 684T337 670T366 656T397 649Q432 649 435 694H491Q492 673 488 654T474 619T446 594T401 584Q375 584 358 590T325 605T295 619T261 626Q242 626 230 616T216 580H159V580Z" />
<glyph unicode="&#xf2;" glyph-name="ograve" horiz-adv-x="524" d="M238 -10Q188 -10 149 7T83 54T41 126T26 218Q26 274 43 327T94 421T176 488T286 513Q335 513 374 496T441 449T483 377T498 284Q498 228 481 176T430 82T348 15T238 -10ZM112 220Q112 133 147
92T240 51Q280 51 312 69T366 118T399 192T411 282Q411 370 376 411T284 452Q243 452 211 434T157 384T124 310T112 220ZM517 570L439 716H533L581 570H517Z" />
<glyph unicode="&#xf3;" glyph-name="oacute" horiz-adv-x="524" d="M238 -10Q188 -10 149 7T83 54T41 126T26 218Q26 274 43 327T94 421T176 488T286 513Q335 513 374 496T441 449T483 377T498 284Q498 228 481 176T430 82T348 15T238 -10ZM112 220Q112 133 147
92T240 51Q280 51 312 69T366 118T399 192T411 282Q411 370 376 411T284 452Q243 452 211 434T157 384T124 310T112 220ZM364 716H467L337 570H271L364 716Z" />
<glyph unicode="&#xf4;" glyph-name="ocircumflex" horiz-adv-x="524" d="M238 -10Q188 -10 149 7T83 54T41 126T26 218Q26 274 43 327T94 421T176 488T286 513Q335 513 374 496T441 449T483 377T498 284Q498 228 481 176T430 82T348 15T238 -10ZM112 220Q112
133 147 92T240 51Q280 51 312 69T366 118T399 192T411 282Q411 370 376 411T284 452Q243 452 211 434T157 384T124 310T112 220ZM316 649L221 570H155L279 707H369L436 570H369L316 649Z" />
<glyph unicode="&#xf5;" glyph-name="otilde" horiz-adv-x="524" d="M238 -10Q188 -10 149 7T83 54T41 126T26 218Q26 274 43 327T94 421T176 488T286 513Q335 513 374 496T441 449T483 377T498 284Q498 228 481 176T430 82T348 15T238 -10ZM112 220Q112 133 147
92T240 51Q280 51 312 69T366 118T399 192T411 282Q411 370 376 411T284 452Q243 452 211 434T157 384T124 310T112 220ZM129 580Q128 601 133 621T150 656T182 681T230 690Q255 690 273 684T307 670T336 656T367 649Q402 649 405 694H461Q462 673 458 654T444
619T416 594T371 584Q345 584 328 590T295 605T265 619T231 626Q212 626 200 616T186 580H129V580Z" />
<glyph unicode="&#xf6;" glyph-name="odieresis" horiz-adv-x="524" d="M238 -10Q188 -10 149 7T83 54T41 126T26 218Q26 274 43 327T94 421T176 488T286 513Q335 513 374 496T441 449T483 377T498 284Q498 228 481 176T430 82T348 15T238 -10ZM112 220Q112 133
147 92T240 51Q280 51 312 69T366 118T399 192T411 282Q411 370 376 411T284 452Q243 452 211 434T157 384T124 310T112 220ZM408 577Q383 577 368 592T353 631Q353 655 368 671T408 687Q433 687 448 671T463 631Q463 608 448 593T408 577ZM198 577Q174 577 159
592T143 631Q143 655 158 671T198 687Q223 687 238 671T254 631Q254 608 239 593T198 577Z" />
<glyph unicode="&#xf7;" glyph-name="divide" horiz-adv-x="555" d="M228 63Q203 63 187 79T171 119Q171 145 187 160T228 176Q252 176 268 161T284 119Q284 96 268 80T228 63ZM314 467Q289 467 273 483T257 523Q257 549 273 564T314 580Q338 580 354 565T370
523Q370 500 354 484T314 467ZM45 295L59 359H527L513 295H45Z" />
<glyph unicode="&#xf8;" glyph-name="oslash" horiz-adv-x="524" d="M112 220Q112 159 130 120L366 421Q335 452 284 452Q243 452 211 434T157 384T124 310T112 220ZM240 51Q280 51 312 69T366 118T399 192T411 282Q411 341 395 377L161 77Q193 51 240 51ZM238
-10Q169 -10 119 23L71 -38H6L80 56Q26 119 26 218Q26 274 43 327T94 421T176 488T286 513Q323 513 354 504T410 477L453 532H517L447 443Q498 381 498 284Q498 228 481 176T430 82T348 15T238 -10Z" />
<glyph unicode="&#xf9;" glyph-name="ugrave" horiz-adv-x="524" d="M205 58Q234 58 257 66T298 87T331 118T358 156L431 503H515L408 0H338L346 90H344Q315 48 276 19T176 -10Q98 -10 61 39T41 176L110 503H194L126 187Q118 151 121 127T136 87T166 65T205 58ZM554
570L476 716H570L618 570H554Z" />
<glyph unicode="&#xfa;" glyph-name="uacute" horiz-adv-x="524" d="M205 58Q234 58 257 66T298 87T331 118T358 156L431 503H515L408 0H338L346 90H344Q315 48 276 19T176 -10Q98 -10 61 39T41 176L110 503H194L126 187Q118 151 121 127T136 87T166 65T205 58ZM369
716H472L342 570H276L369 716Z" />
<glyph unicode="&#xfb;" glyph-name="ucircumflex" horiz-adv-x="524" d="M205 58Q234 58 257 66T298 87T331 118T358 156L431 503H515L408 0H338L346 90H344Q315 48 276 19T176 -10Q98 -10 61 39T41 176L110 503H194L126 187Q118 151 121 127T136 87T166 65T205
58ZM337 649L242 570H176L300 707H390L457 570H390L337 649Z" />
<glyph unicode="&#xfc;" glyph-name="udieresis" horiz-adv-x="524" d="M205 58Q234 58 257 66T298 87T331 118T358 156L431 503H515L408 0H338L346 90H344Q315 48 276 19T176 -10Q98 -10 61 39T41 176L110 503H194L126 187Q118 151 121 127T136 87T166 65T205
58ZM429 577Q404 577 389 592T374 631Q374 655 389 671T429 687Q454 687 469 671T484 631Q484 608 469 593T429 577ZM219 577Q195 577 180 592T164 631Q164 655 179 671T219 687Q244 687 259 671T275 631Q275 608 260 593T219 577Z" />
<glyph unicode="&#xfd;" glyph-name="yacute" horiz-adv-x="482" d="M21 -181Q1 -181 -18 -178T-49 -169L-33 -96Q-22 -101 -8 -105T26 -109Q66 -109 91 -88T142 -34L56 503H138L207 59L447 503H527L252 6Q201 -86 146 -133T21 -181ZM350 716H453L323 570H257L350 716Z" />
<glyph unicode="&#xfe;" glyph-name="thorn" horiz-adv-x="557" d="M144 212Q144 132 179 92T274 52Q319 52 351 74T403 130T434 207T444 291Q444 373 409 412T315 452Q273 452 242 433T188 382T155 306T144 212ZM280 -10Q216 -10 174 20T114 104L52 -187H-31L162
725H245L184 438Q211 472 248 492T335 513Q382 513 418 497T480 450T518 379T531 289Q531 232 514 178T464 83T385 16T280 -10Z" />
<glyph unicode="&#xff;" glyph-name="ydieresis" horiz-adv-x="482" d="M21 -181Q1 -181 -18 -178T-49 -169L-33 -96Q-22 -101 -8 -105T26 -109Q66 -109 91 -88T142 -34L56 503H138L207 59L447 503H527L252 6Q201 -86 146 -133T21 -181ZM406 577Q381 577 366 592T351
631Q351 655 366 671T406 687Q431 687 446 671T461 631Q461 608 446 593T406 577ZM196 577Q172 577 157 592T141 631Q141 655 156 671T196 687Q221 687 236 671T252 631Q252 608 237 593T196 577Z" />
<glyph unicode="&#x100;" glyph-name="Amacron" horiz-adv-x="614" d="M383 635L187 273H426L383 635ZM434 206H151L39 0H-38L337 695H464L546 0H458L434 206ZM271 842H566L552 779H257L271 842Z" />
<glyph unicode="&#x101;" glyph-name="amacron" horiz-adv-x="486" d="M178 53Q204 53 226 61T267 83T300 112T324 143L345 239H239Q163 239 130 210T96 135Q96 94 118 74T178 53ZM306 0Q305 12 306 31T311 73Q287 41 251 16T160 -10Q134 -10 108 -3T60 21T26
65T12 130Q12 210 72 251T245 292H356L359 306Q368 347 363 374T341 416T300 438T244 445Q207 445 176 436T115 410L94 474Q125 493 167 503T259 513Q308 513 347 502T411 464T444 397T440 295L394 81Q392 74 391 63T387 40T384 17T382 0H306ZM167 665H442L429
604H154L167 665Z" />
<glyph unicode="&#x102;" glyph-name="Abreve" horiz-adv-x="614" d="M383 635L187 273H426L383 635ZM434 206H151L39 0H-38L337 695H464L546 0H458L434 206ZM408 740Q374 740 349 750T309 777T287 817T283 864H347Q345 832 364 818T413 803Q445 803 467 819T496
864H561Q557 837 544 814T511 775T465 749T408 740Z" />
<glyph unicode="&#x103;" glyph-name="abreve" horiz-adv-x="486" d="M178 53Q204 53 226 61T267 83T300 112T324 143L345 239H239Q163 239 130 210T96 135Q96 94 118 74T178 53ZM306 0Q305 12 306 31T311 73Q287 41 251 16T160 -10Q134 -10 108 -3T60 21T26 65T12
130Q12 210 72 251T245 292H356L359 306Q368 347 363 374T341 416T300 438T244 445Q207 445 176 436T115 410L94 474Q125 493 167 503T259 513Q308 513 347 502T411 464T444 397T440 295L394 81Q392 74 391 63T387 40T384 17T382 0H306ZM290 561Q256 561 232 571T193
599T173 640T170 691H234Q231 654 248 639T295 624Q356 624 366 691H431Q424 632 387 597T290 561Z" />
<glyph unicode="&#x104;" glyph-name="Aogonek" horiz-adv-x="614" d="M496 -187Q443 -187 413 -166T383 -104Q383 -66 405 -42T458 -5L433 206H151L39 0H-38L337 695H464L546 0Q515 -14 490 -36T464 -91Q464 -112 475 -120T506 -128Q529 -128 545 -120L554 -175Q547
-180 530 -183T496 -187ZM383 635L187 273H426L383 635Z" />
<glyph unicode="&#x105;" glyph-name="aogonek" horiz-adv-x="486" d="M337 -187Q284 -187 254 -166T224 -104Q224 -83 231 -67T250 -38T276 -16T306 0Q305 14 306 36T313 85Q302 67 288 50T255 20T213 -2T160 -10Q134 -10 108 -3T60 21T26 65T12 130Q12 210 72
251T245 292H356L359 306Q368 347 363 374T341 416T300 438T244 445Q207 445 176 436T115 410L94 474Q125 493 167 503T259 513Q308 513 347 502T411 464T444 397T440 295L394 81Q392 74 391 63T387 40T384 17T382 0Q351 -14 328 -37T305 -91Q305 -112 316 -120T347
-128Q370 -128 386 -120L395 -175Q388 -180 371 -183T337 -187ZM178 53Q212 53 239 67T284 101T314 142T331 177L345 239H239Q163 239 130 210T96 135Q96 94 118 74T178 53Z" />
<glyph unicode="&#x106;" glyph-name="Cacute" horiz-adv-x="602" d="M352 -10Q283 -10 227 10T130 69T67 164T45 293Q45 378 73 453T152 584T274 672T432 704Q514 704 562 686T632 650L594 573Q574 595 529 613T425 632Q359 632 306 606T216 534T160 428T140
300Q140 245 152 201T191 126T260 79T361 62Q443 62 508 99L533 35Q498 15 451 3T352 -10ZM472 868H586L454 750H382L472 868Z" />
<glyph unicode="&#x107;" glyph-name="cacute" horiz-adv-x="451" d="M264 -10Q213 -10 170 4T94 48T44 120T26 220Q26 283 46 336T103 429T192 491T307 513Q352 513 390 502T453 470L419 409Q395 427 366 436T304 445Q256 445 220 429T160 383T124 313T112 226Q112
138 154 98T268 58Q297 58 322 64T376 84L390 21Q364 7 332 -1T264 -10ZM354 716H457L327 570H261L354 716Z" />
<glyph unicode="&#x108;" glyph-name="Ccircumflex" horiz-adv-x="602" d="M352 -10Q283 -10 227 10T130 69T67 164T45 293Q45 378 73 453T152 584T274 672T432 704Q514 704 562 686T632 650L594 573Q574 595 529 613T425 632Q359 632 306 606T216 534T160 428T140
300Q140 245 152 201T191 126T260 79T361 62Q443 62 508 99L533 35Q498 15 451 3T352 -10ZM428 817L336 750H272L384 869H484L554 750H495L428 817Z" />
<glyph unicode="&#x109;" glyph-name="ccircumflex" horiz-adv-x="451" d="M264 -10Q213 -10 170 4T94 48T44 120T26 220Q26 283 46 336T103 429T192 491T307 513Q352 513 390 502T453 470L419 409Q395 427 366 436T304 445Q256 445 220 429T160 383T124 313T112
226Q112 138 154 98T268 58Q297 58 322 64T376 84L390 21Q364 7 332 -1T264 -10ZM318 649L223 570H157L281 707H371L438 570H371L318 649Z" />
<glyph unicode="&#x10a;" glyph-name="Cdotaccent" horiz-adv-x="602" d="M352 -10Q283 -10 227 10T130 69T67 164T45 293Q45 378 73 453T152 584T274 672T432 704Q514 704 562 686T632 650L594 573Q574 595 529 613T425 632Q359 632 306 606T216 534T160 428T140
300Q140 245 152 201T191 126T260 79T361 62Q443 62 508 99L533 35Q498 15 451 3T352 -10ZM422 762Q398 762 383 777T367 816Q367 840 382 856T422 872Q447 872 462 856T478 816Q478 793 463 778T422 762Z" />
<glyph unicode="&#x10b;" glyph-name="cdotaccent" horiz-adv-x="451" d="M264 -10Q213 -10 170 4T94 48T44 120T26 220Q26 283 46 336T103 429T192 491T307 513Q352 513 390 502T453 470L419 409Q395 427 366 436T304 445Q256 445 220 429T160 383T124 313T112
226Q112 138 154 98T268 58Q297 58 322 64T376 84L390 21Q364 7 332 -1T264 -10ZM301 577Q277 577 262 592T246 631Q246 655 261 671T301 687Q326 687 341 671T357 631Q357 608 342 593T301 577Z" />
<glyph unicode="&#x10c;" glyph-name="Ccaron" horiz-adv-x="602" d="M352 -10Q283 -10 227 10T130 69T67 164T45 293Q45 378 73 453T152 584T274 672T432 704Q514 704 562 686T632 650L594 573Q574 595 529 613T425 632Q359 632 306 606T216 534T160 428T140
300Q140 245 152 201T191 126T260 79T361 62Q443 62 508 99L533 35Q498 15 451 3T352 -10ZM375 750L305 869H364L431 802L523 869H587L475 750H375Z" />
<glyph unicode="&#x10d;" glyph-name="ccaron" horiz-adv-x="451" d="M264 -10Q213 -10 170 4T94 48T44 120T26 220Q26 283 46 336T103 429T192 491T307 513Q352 513 390 502T453 470L419 409Q395 427 366 436T304 445Q256 445 220 429T160 383T124 313T112 226Q112
138 154 98T268 58Q297 58 322 64T376 84L390 21Q364 7 332 -1T264 -10ZM246 570L179 707H246L300 627L394 707H460L336 570H246Z" />
<glyph unicode="&#x10e;" glyph-name="Dcaron" horiz-adv-x="669" d="M242 627L123 68H263Q337 68 392 97T485 173T540 281T559 406Q559 469 544 511T501 579T436 616T357 627H242ZM167 695H358Q419 695 472 681T566 633T630 545T654 410Q654 332 629 258T553
127T429 35T257 0H18L167 695ZM350 750L280 869H339L406 802L498 869H562L450 750H350Z" />
<glyph unicode="&#x10f;" glyph-name="dcaron" horiz-adv-x="556" d="M413 292Q413 373 378 412T283 452Q240 452 208 433T155 383T124 309T114 222Q114 134 149 93T241 51Q287 51 319 73T373 129T403 207T413 292ZM384 83Q355 42 315 16T220 -10Q176 -10 141
6T80 51T40 123T26 217Q26 274 43 327T92 421T172 488T280 513Q343 513 384 482T443 394L512 725H597L443 0H373L384 83ZM618 572L666 725H757L673 572H618Z" />
<glyph unicode="&#x110;" glyph-name="Dcroat" horiz-adv-x="688" d="M196 321L142 68H282Q356 68 411 97T504 173T559 281T578 406Q578 469 563 511T520 579T455 616T376 627H261L210 385H380L367 321H196ZM106 321H35L48 385H120L186 695H377Q438 695 491 681T585
633T649 545T673 410Q673 332 648 258T572 127T448 35T276 0H37L106 321Z" />
<glyph unicode="&#x111;" glyph-name="dcroat" horiz-adv-x="556" d="M384 83Q355 42 315 16T220 -10Q176 -10 141 6T80 51T40 123T26 217Q26 274 43 327T92 421T172 488T280 513Q343 513 384 482T443 394L480 573H321L335 636H493L512 725H597L578 636H644L630
573H564L443 0H373L384 83ZM413 292Q413 373 378 412T283 452Q240 452 208 433T155 383T124 309T114 222Q114 134 149 93T241 51Q287 51 319 73T373 129T403 207T413 292Z" />
<glyph unicode="&#x112;" glyph-name="Emacron" horiz-adv-x="524" d="M167 695H554L540 627H242L193 395H455L441 327H178L123 68H436L422 0H18L167 695ZM243 842H538L524 779H229L243 842Z" />
<glyph unicode="&#x113;" glyph-name="emacron" horiz-adv-x="500" d="M278 452Q217 452 176 411T119 299H384Q393 338 388 367T367 414T329 442T278 452ZM415 22Q393 10 356 0T269 -10Q156 -10 91 47T26 222Q26 287 46 340T101 432T184 492T285 513Q338 513 378
493T442 437T469 351T450 239H111V223Q111 138 152 98T273 58Q308 58 342 65T400 87L415 22ZM175 665H450L437 604H162L175 665Z" />
<glyph unicode="&#x114;" glyph-name="Ebreve" horiz-adv-x="524" d="M167 695H554L540 627H242L193 395H455L441 327H178L123 68H436L422 0H18L167 695ZM376 740Q342 740 317 750T277 777T255 817T251 864H315Q313 832 332 818T381 803Q413 803 435 819T464 864H529Q525
837 512 814T479 775T433 749T376 740Z" />
<glyph unicode="&#x115;" glyph-name="ebreve" horiz-adv-x="500" d="M278 452Q217 452 176 411T119 299H384Q393 338 388 367T367 414T329 442T278 452ZM415 22Q393 10 356 0T269 -10Q156 -10 91 47T26 222Q26 287 46 340T101 432T184 492T285 513Q338 513 378
493T442 437T469 351T450 239H111V223Q111 138 152 98T273 58Q308 58 342 65T400 87L415 22ZM299 561Q265 561 241 571T202 599T182 640T179 691H243Q240 654 257 639T304 624Q365 624 375 691H440Q433 632 396 597T299 561Z" />
<glyph unicode="&#x116;" glyph-name="Edotaccent" horiz-adv-x="524" d="M167 695H554L540 627H242L193 395H455L441 327H178L123 68H436L422 0H18L167 695ZM377 762Q353 762 338 777T322 816Q322 840 337 856T377 872Q402 872 417 856T433 816Q433 793 418 778T377
762Z" />
<glyph unicode="&#x117;" glyph-name="edotaccent" horiz-adv-x="500" d="M278 452Q217 452 176 411T119 299H384Q393 338 388 367T367 414T329 442T278 452ZM415 22Q393 10 356 0T269 -10Q156 -10 91 47T26 222Q26 287 46 340T101 432T184 492T285 513Q338 513
378 493T442 437T469 351T450 239H111V223Q111 138 152 98T273 58Q308 58 342 65T400 87L415 22ZM306 577Q282 577 267 592T251 631Q251 655 266 671T306 687Q331 687 346 671T362 631Q362 608 347 593T306 577Z" />
<glyph unicode="&#x118;" glyph-name="Eogonek" horiz-adv-x="524" d="M167 695H554L540 627H242L193 395H455L441 327H178L123 68H436L422 0H18L167 695ZM395 -175Q388 -180 371 -183T337 -187Q284 -187 254 -166T224 -104Q224 -63 250 -38T312 0H387Q356 -14
331 -36T305 -91Q305 -112 316 -120T347 -128Q370 -128 386 -120L395 -175V-175Z" />
<glyph unicode="&#x119;" glyph-name="eogonek" horiz-adv-x="500" d="M183 -104Q183 -71 202 -49T258 -10H259Q151 -7 89 50T26 222Q26 287 46 340T101 432T184 492T285 513Q338 513 378 493T442 437T469 351T450 239H111V223Q111 138 152 98T273 58Q308 58 342
65T400 87L415 22Q389 12 363 1T314 -23T278 -52T264 -91Q264 -112 275 -120T306 -128Q329 -128 345 -120L354 -175Q347 -180 330 -183T296 -187Q243 -187 213 -166T183 -104ZM278 452Q217 452 176 411T119 299H384Q393 338 388 367T367 414T329 442T278 452Z"
/>
<glyph unicode="&#x11a;" glyph-name="Ecaron" horiz-adv-x="524" d="M167 695H554L540 627H242L193 395H455L441 327H178L123 68H436L422 0H18L167 695ZM327 750L257 869H316L383 802L475 869H539L427 750H327Z" />
<glyph unicode="&#x11b;" glyph-name="ecaron" horiz-adv-x="500" d="M278 452Q217 452 176 411T119 299H384Q393 338 388 367T367 414T329 442T278 452ZM415 22Q393 10 356 0T269 -10Q156 -10 91 47T26 222Q26 287 46 340T101 432T184 492T285 513Q338 513 378
493T442 437T469 351T450 239H111V223Q111 138 152 98T273 58Q308 58 342 65T400 87L415 22ZM251 570L184 707H251L305 627L399 707H465L341 570H251Z" />
<glyph unicode="&#x11c;" glyph-name="Gcircumflex" horiz-adv-x="694" d="M679 325Q668 237 642 174T577 70T486 10T373 -10Q304 -10 244 11T140 72T70 171T45 304Q45 389 73 462T153 589T274 673T427 704Q517 704 578 681T670 626L634 556Q619 569 600 582T555
607T497 625T424 632Q361 632 309 607T219 539T161 436T140 308Q140 237 158 189T209 112T284 71T378 58Q464 58 514 117T581 294H353L367 362H684Q683 356 682 349T679 325ZM441 817L349 750H285L397 869H497L567 750H508L441 817Z" />
<glyph unicode="&#x11d;" glyph-name="gcircumflex" horiz-adv-x="552" d="M410 303Q410 378 376 415T282 452Q239 452 208 434T156 387T125 318T115 237Q115 154 149 116T240 78Q285 78 317 98T370 151T400 224T410 303ZM185 -189Q137 -189 101 -181T41 -162Q13
-150 -7 -134L31 -69Q49 -84 72 -95Q92 -105 120 -113T183 -121Q225 -121 255 -111T307 -82T342 -36T362 28L376 100Q348 63 309 40T219 17Q176 17 141 31T81 73T42 140T28 229Q28 282 44 333T93 424T172 488T280 513Q347 513 390 479T447 387Q453 422 461 452T476
503H551Q546 490 540 465T529 423L443 20Q420 -88 356 -138T185 -189ZM325 649L230 570H164L288 707H378L445 570H378L325 649Z" />
<glyph unicode="&#x11e;" glyph-name="Gbreve" horiz-adv-x="694" d="M679 325Q668 237 642 174T577 70T486 10T373 -10Q304 -10 244 11T140 72T70 171T45 304Q45 389 73 462T153 589T274 673T427 704Q517 704 578 681T670 626L634 556Q619 569 600 582T555 607T497
625T424 632Q361 632 309 607T219 539T161 436T140 308Q140 237 158 189T209 112T284 71T378 58Q464 58 514 117T581 294H353L367 362H684Q683 356 682 349T679 325ZM439 740Q405 740 380 750T340 777T318 817T314 864H378Q376 832 395 818T444 803Q476 803 498
819T527 864H592Q588 837 575 814T542 775T496 749T439 740Z" />
<glyph unicode="&#x11f;" glyph-name="gbreve" horiz-adv-x="552" d="M410 303Q410 378 376 415T282 452Q239 452 208 434T156 387T125 318T115 237Q115 154 149 116T240 78Q285 78 317 98T370 151T400 224T410 303ZM185 -189Q137 -189 101 -181T41 -162Q13 -150
-7 -134L31 -69Q49 -84 72 -95Q92 -105 120 -113T183 -121Q225 -121 255 -111T307 -82T342 -36T362 28L376 100Q348 63 309 40T219 17Q176 17 141 31T81 73T42 140T28 229Q28 282 44 333T93 424T172 488T280 513Q347 513 390 479T447 387Q453 422 461 452T476 503H551Q546
490 540 465T529 423L443 20Q420 -88 356 -138T185 -189ZM313 561Q279 561 255 571T216 599T196 640T193 691H257Q254 654 271 639T318 624Q379 624 389 691H454Q447 632 410 597T313 561Z" />
<glyph unicode="&#x120;" glyph-name="Gdotaccent" horiz-adv-x="694" d="M679 325Q668 237 642 174T577 70T486 10T373 -10Q304 -10 244 11T140 72T70 171T45 304Q45 389 73 462T153 589T274 673T427 704Q517 704 578 681T670 626L634 556Q619 569 600 582T555
607T497 625T424 632Q361 632 309 607T219 539T161 436T140 308Q140 237 158 189T209 112T284 71T378 58Q464 58 514 117T581 294H353L367 362H684Q683 356 682 349T679 325ZM435 762Q411 762 396 777T380 816Q380 840 395 856T435 872Q460 872 475 856T491 816Q491
793 476 778T435 762Z" />
<glyph unicode="&#x121;" glyph-name="gdotaccent" horiz-adv-x="552" d="M410 303Q410 378 376 415T282 452Q239 452 208 434T156 387T125 318T115 237Q115 154 149 116T240 78Q285 78 317 98T370 151T400 224T410 303ZM185 -189Q137 -189 101 -181T41 -162Q13
-150 -7 -134L31 -69Q49 -84 72 -95Q92 -105 120 -113T183 -121Q225 -121 255 -111T307 -82T342 -36T362 28L376 100Q348 63 309 40T219 17Q176 17 141 31T81 73T42 140T28 229Q28 282 44 333T93 424T172 488T280 513Q347 513 390 479T447 387Q453 422 461 452T476
503H551Q546 490 540 465T529 423L443 20Q420 -88 356 -138T185 -189ZM320 577Q296 577 281 592T265 631Q265 655 280 671T320 687Q345 687 360 671T376 631Q376 608 361 593T320 577Z" />
<glyph unicode="&#x122;" glyph-name="uni0122" horiz-adv-x="694" d="M679 325Q668 237 642 174T577 70T486 10T373 -10Q304 -10 244 11T140 72T70 171T45 304Q45 389 73 462T153 589T274 673T427 704Q517 704 578 681T670 626L634 556Q619 569 600 582T555 607T497
625T424 632Q361 632 309 607T219 539T161 436T140 308Q140 237 158 189T209 112T284 71T378 58Q464 58 514 117T581 294H353L367 362H684Q683 356 682 349T679 325ZM232 -221Q252 -207 270 -189T301 -148Q285 -144 275 -132T265 -102Q265 -79 280 -64T318 -49Q341
-49 356 -64T371 -109Q371 -147 348 -174T297 -221H232Z" />
<glyph unicode="&#x123;" glyph-name="uni0123" horiz-adv-x="552" d="M410 303Q410 378 376 415T282 452Q239 452 208 434T156 387T125 318T115 237Q115 154 149 116T240 78Q285 78 317 98T370 151T400 224T410 303ZM185 -189Q137 -189 101 -181T41 -162Q13 -150
-7 -134L31 -69Q49 -84 72 -95Q92 -105 120 -113T183 -121Q225 -121 255 -111T307 -82T342 -36T362 28L376 100Q348 63 309 40T219 17Q176 17 141 31T81 73T42 140T28 229Q28 282 44 333T93 424T172 488T280 513Q347 513 390 479T447 387Q453 422 461 452T476 503H551Q546
490 540 465T529 423L443 20Q420 -88 356 -138T185 -189ZM315 577Q292 577 277 592T262 637Q262 675 285 702T336 749H401Q381 735 363 717T332 676Q348 672 358 660T368 630Q368 607 353 592T315 577Z" />
<glyph unicode="&#x124;" glyph-name="Hcircumflex" horiz-adv-x="675" d="M525 310H174L108 0H18L167 695H257L189 378H539L606 695H696L549 0H459L525 310ZM451 817L359 750H295L407 869H507L577 750H518L451 817Z" />
<glyph unicode="&#x125;" glyph-name="hcircumflex" horiz-adv-x="533" d="M326 445Q296 445 272 437T229 416T194 385T166 347L92 0H9L162 725H245L179 413H181Q209 455 251 484T357 513Q437 513 474 462T490 312L423 0H339L407 319Q415 356 413 380T399 418T369
439T326 445ZM389 847L297 780H233L345 899H445L515 780H456L389 847Z" />
<glyph unicode="&#x126;" glyph-name="Hbar" horiz-adv-x="713" d="M544 310H193L127 0H37L145 505H42L56 568H159L186 695H276L248 568H598L625 695H715L688 568H792L778 505H674L568 0H478L544 310ZM558 378L585 505H235L208 378H558Z" />
<glyph unicode="&#x127;" glyph-name="hbar" horiz-adv-x="533" d="M326 445Q296 445 272 437T229 416T194 385T166 347L92 0H9L130 573H62L76 636H143L162 725H245L226 636H385L371 573H213L179 413H181Q209 455 251 484T357 513Q437 513 474 462T490 312L423
0H339L407 319Q415 356 413 380T399 418T369 439T326 445Z" />
<glyph unicode="&#x128;" glyph-name="Itilde" horiz-adv-x="235" d="M257 695L108 0H18L167 695H257ZM312 761Q311 789 318 809T340 843T373 863T416 870Q441 870 459 864T492 850T521 836T553 829Q594 829 593 875H651Q653 821 627 793T553 765Q528 765 511
771T479 785T450 799T416 806Q396 806 384 797T370 761H312V761Z" />
<glyph unicode="&#x129;" glyph-name="itilde" horiz-adv-x="203" d="M198 503L91 0H8L114 503H198ZM259 580Q258 601 263 621T280 656T312 681T360 690Q385 690 403 684T437 670T466 656T497 649Q532 649 535 694H591Q592 673 588 654T574 619T546 594T501 584Q475
584 458 590T425 605T395 619T361 626Q342 626 330 616T316 580H259V580Z" />
<glyph unicode="&#x12a;" glyph-name="Imacron" horiz-adv-x="235" d="M257 695L108 0H18L167 695H257ZM349 842H644L630 779H335L349 842Z" />
<glyph unicode="&#x12b;" glyph-name="imacron" horiz-adv-x="203" d="M80 665H295L282 604H67L80 665ZM198 503L91 0H8L114 503H198Z" />
<glyph unicode="&#x12c;" glyph-name="Ibreve" horiz-adv-x="235" d="M257 695L108 0H18L167 695H257ZM486 740Q452 740 427 750T387 777T365 817T361 864H425Q423 832 442 818T491 803Q523 803 545 819T574 864H639Q635 837 622 814T589 775T543 749T486 740Z" />
<glyph unicode="&#x12d;" glyph-name="ibreve" horiz-adv-x="203" d="M198 503L91 0H8L114 503H198ZM433 561Q399 561 375 571T336 599T316 640T313 691H377Q374 654 391 639T438 624Q499 624 509 691H574Q567 632 530 597T433 561Z" />
<glyph unicode="&#x12e;" glyph-name="Iogonek" horiz-adv-x="235" d="M26 -91Q26 -112 37 -120T68 -128Q91 -128 107 -120L116 -175Q109 -180 92 -183T58 -187Q5 -187 -25 -166T-55 -104Q-55 -68 -34 -44T17 -7L167 695H257L108 0Q77 -14 52 -36T26 -91Z" />
<glyph unicode="&#x12f;" glyph-name="iogonek" horiz-adv-x="208" d="M173 577Q150 577 134 593T118 632Q118 655 134 672T173 689Q196 689 213 672T230 632Q230 609 213 593T173 577ZM10 -91Q10 -112 21 -120T52 -128Q75 -128 91 -120L100 -175Q93 -180 76 -183T42
-187Q-11 -187 -41 -166T-71 -104Q-71 -65 -48 -41T8 -3L115 503H199L92 0Q61 -14 36 -36T10 -91Z" />
<glyph unicode="&#x130;" glyph-name="Idotaccent" horiz-adv-x="235" d="M257 695L108 0H18L167 695H257ZM483 762Q459 762 444 777T428 816Q428 840 443 856T483 872Q508 872 523 856T539 816Q539 793 524 778T483 762Z" />
<glyph unicode="&#x131;" glyph-name="dotlessi" horiz-adv-x="203" d="M198 503L91 0H8L114 503H198Z" />
<glyph unicode="&#x132;" glyph-name="IJ" horiz-adv-x="553" d="M257 695L108 0H18L167 695H257ZM578 695L464 152Q448 77 402 34T283 -10Q257 -10 238 -6T205 3Q189 9 178 17L206 81Q213 74 224 69Q233 64 247 61T280 58Q318 58 341 83T374 156L488 695H578Z" />
<glyph unicode="&#x133;" glyph-name="ij" horiz-adv-x="430" d="M173 577Q150 577 134 593T118 632Q118 655 134 672T173 689Q196 689 213 672T230 632Q230 609 213 593T173 577ZM199 503L92 0H9L115 503H199ZM398 577Q375 577 359 593T343 632Q343 655 359 672T398
689Q421 689 437 672T454 632Q454 609 438 593T398 577ZM105 -129Q164 -129 190 -100T230 -9L340 503H423L314 -10Q305 -51 292 -85T257 -144T200 -182T114 -196L105 -129Z" />
<glyph unicode="&#x134;" glyph-name="Jcircumflex" horiz-adv-x="341" d="M365 695L251 152Q235 77 189 34T70 -10Q44 -10 25 -6T-8 3Q-24 9 -35 17L-7 81Q0 74 11 69Q20 64 34 61T67 58Q105 58 128 83T161 156L275 695H365ZM333 817L241 750H177L289 869H389L459
750H400L333 817Z" />
<glyph unicode="&#x135;" glyph-name="jcircumflex" horiz-adv-x="215" d="M-110 -129Q-51 -129 -25 -100T15 -9L125 503H208L99 -10Q90 -51 77 -85T40 -144T-17 -182T-103 -196L-110 -129ZM454 649L359 570H293L417 707H507L574 570H507L454 649Z" />
<glyph unicode="&#x136;" glyph-name="uni0136" horiz-adv-x="594" d="M257 695L108 0H18L167 695H257ZM433 0L197 350L564 695H659L297 351L534 0H433ZM168 -221Q188 -207 206 -189T237 -148Q221 -144 211 -132T201 -102Q201 -79 216 -64T254 -49Q277 -49 292
-64T307 -109Q307 -147 284 -174T233 -221H168Z" />
<glyph unicode="&#x137;" glyph-name="uni0137" horiz-adv-x="453" d="M245 726L92 0H9L162 726H245ZM324 0L161 261L421 503H511L251 259L412 0H324ZM99 -221Q119 -207 137 -189T168 -148Q152 -144 142 -132T132 -102Q132 -79 147 -64T185 -49Q208 -49 223 -64T238
-109Q238 -147 215 -174T164 -221H99Z" />
<glyph unicode="&#x139;" glyph-name="Lacute" horiz-adv-x="507" d="M167 695H257L123 68H435L420 0H18L167 695ZM536 868H650L518 750H446L536 868Z" />
<glyph unicode="&#x13a;" glyph-name="lacute" horiz-adv-x="208" d="M244 725L92 0H9L161 725H244ZM524 898H638L506 780H434L524 898Z" />
<glyph unicode="&#x13b;" glyph-name="uni013B" horiz-adv-x="507" d="M167 695H257L123 68H435L420 0H18L167 695ZM134 -221Q154 -207 172 -189T203 -148Q187 -144 177 -132T167 -102Q167 -79 182 -64T220 -49Q243 -49 258 -64T273 -109Q273 -147 250 -174T199
-221H134Z" />
<glyph unicode="&#x13c;" glyph-name="uni013C" horiz-adv-x="208" d="M244 725L92 0H9L161 725H244ZM203 -221Q223 -207 241 -189T272 -148Q256 -144 246 -132T236 -102Q236 -79 251 -64T289 -49Q312 -49 327 -64T342 -109Q342 -147 319 -174T268 -221H203Z" />
<glyph unicode="&#x13d;" glyph-name="Lcaron" horiz-adv-x="507" d="M167 695H257L123 68H435L420 0H18L167 695ZM286 798L334 951H425L341 798H286Z" />
<glyph unicode="&#x13e;" glyph-name="lcaron" horiz-adv-x="203" d="M265 572L313 725H404L320 572H265ZM244 725L92 0H9L161 725H244Z" />
<glyph unicode="&#x13f;" glyph-name="Ldot" horiz-adv-x="507" d="M167 695H257L123 68H435L420 0H18L167 695ZM420 303Q395 303 379 319T363 359Q363 385 379 400T420 416Q444 416 460 401T476 359Q476 336 460 320T420 303Z" />
<glyph unicode="&#x140;" glyph-name="ldot" horiz-adv-x="324" d="M244 725L92 0H9L161 725H244ZM286 301Q261 301 245 317T229 357Q229 383 245 398T286 414Q310 414 326 399T342 357Q342 334 326 318T286 301Z" />
<glyph unicode="&#x141;" glyph-name="Lslash" horiz-adv-x="533" d="M45 267L137 313L219 695H309L238 363L479 483L462 403L221 283L175 68H487L472 0H70L120 232L28 187L45 267Z" />
<glyph unicode="&#x142;" glyph-name="lslash" horiz-adv-x="267" d="M28 331L120 388L191 725H274L215 446L311 505L294 428L199 370L122 0H39L104 311L11 254L28 331Z" />
<glyph unicode="&#x143;" glyph-name="Nacute" horiz-adv-x="693" d="M221 612L92 0H18L167 695H279L512 81L642 695H716L568 0H454L221 612ZM502 868H616L484 750H412L502 868Z" />
<glyph unicode="&#x144;" glyph-name="nacute" horiz-adv-x="530" d="M326 445Q296 445 272 437T229 416T194 385T166 347L92 0H9L115 503H190L177 413H179Q208 455 251 484T357 513Q437 513 474 462T490 312L423 0H339L407 319Q415 356 413 380T399 418T369 439T326
445ZM384 716H487L357 570H291L384 716Z" />
<glyph unicode="&#x145;" glyph-name="uni0145" horiz-adv-x="693" d="M221 612L92 0H18L167 695H279L512 81L642 695H716L568 0H454L221 612ZM178 -221Q198 -207 216 -189T247 -148Q231 -144 221 -132T211 -102Q211 -79 226 -64T264 -49Q287 -49 302 -64T317
-109Q317 -147 294 -174T243 -221H178Z" />
<glyph unicode="&#x146;" glyph-name="uni0146" horiz-adv-x="530" d="M326 445Q296 445 272 437T229 416T194 385T166 347L92 0H9L115 503H190L177 413H179Q208 455 251 484T357 513Q437 513 474 462T490 312L423 0H339L407 319Q415 356 413 380T399 418T369
439T326 445ZM119 -221Q139 -207 157 -189T188 -148Q172 -144 162 -132T152 -102Q152 -79 167 -64T205 -49Q228 -49 243 -64T258 -109Q258 -147 235 -174T184 -221H119Z" />
<glyph unicode="&#x147;" glyph-name="Ncaron" horiz-adv-x="693" d="M221 612L92 0H18L167 695H279L512 81L642 695H716L568 0H454L221 612ZM404 750L334 869H393L460 802L552 869H616L504 750H404Z" />
<glyph unicode="&#x148;" glyph-name="ncaron" horiz-adv-x="530" d="M326 445Q296 445 272 437T229 416T194 385T166 347L92 0H9L115 503H190L177 413H179Q208 455 251 484T357 513Q437 513 474 462T490 312L423 0H339L407 319Q415 356 413 380T399 418T369 439T326
445ZM276 570L209 707H276L330 627L424 707H490L366 570H276Z" />
<glyph unicode="&#x14a;" glyph-name="Eng" horiz-adv-x="693" d="M379 -194Q319 -194 287 -178L305 -114Q313 -117 332 -121T384 -126Q429 -126 453 -98T489 -20L493 0H454L221 612L92 0H18L167 695H279L511 84L642 695H716L561 -31Q544 -112 500 -153T379 -194Z" />
<glyph unicode="&#x14b;" glyph-name="eng" horiz-adv-x="533" d="M407 319Q415 356 413 380T399 418T369 439T326 445Q296 445 272 437T229 416T194 385T166 347L92 0H9L115 503H194L177 413H179Q208 455 251 484T357 513Q437 513 474 462T490 312L422 -10Q413
-51 400 -85T365 -144T310 -182T230 -196L213 -129Q272 -129 298 -100T338 -9L407 319Z" />
<glyph unicode="&#x14c;" glyph-name="Omacron" horiz-adv-x="699" d="M334 -10Q270 -10 217 10T126 71T66 168T45 300Q45 385 71 459T144 587T255 673T394 704Q458 704 511 684T602 624T662 527T684 395Q684 310 658 236T584 108T473 22T334 -10ZM140 296Q140
234 155 189T195 115T256 72T331 58Q391 58 439 86T520 161T571 269T589 399Q589 461 574 506T533 580T472 622T395 636Q332 636 285 608T205 534T157 425T140 296ZM281 842H576L562 779H267L281 842Z" />
<glyph unicode="&#x14d;" glyph-name="omacron" horiz-adv-x="524" d="M238 -10Q188 -10 149 7T83 54T41 126T26 218Q26 274 43 327T94 421T176 488T286 513Q335 513 374 496T441 449T483 377T498 284Q498 228 481 176T430 82T348 15T238 -10ZM112 220Q112 133
147 92T240 51Q280 51 312 69T366 118T399 192T411 282Q411 370 376 411T284 452Q243 452 211 434T157 384T124 310T112 220ZM180 665H455L442 604H167L180 665Z" />
<glyph unicode="&#x14e;" glyph-name="Obreve" horiz-adv-x="699" d="M334 -10Q270 -10 217 10T126 71T66 168T45 300Q45 385 71 459T144 587T255 673T394 704Q458 704 511 684T602 624T662 527T684 395Q684 310 658 236T584 108T473 22T334 -10ZM140 296Q140
234 155 189T195 115T256 72T331 58Q391 58 439 86T520 161T571 269T589 399Q589 461 574 506T533 580T472 622T395 636Q332 636 285 608T205 534T157 425T140 296ZM418 740Q384 740 359 750T319 777T297 817T293 864H357Q355 832 374 818T423 803Q455 803 477
819T506 864H571Q567 837 554 814T521 775T475 749T418 740Z" />
<glyph unicode="&#x14f;" glyph-name="obreve" horiz-adv-x="524" d="M238 -10Q188 -10 149 7T83 54T41 126T26 218Q26 274 43 327T94 421T176 488T286 513Q335 513 374 496T441 449T483 377T498 284Q498 228 481 176T430 82T348 15T238 -10ZM112 220Q112 133
147 92T240 51Q280 51 312 69T366 118T399 192T411 282Q411 370 376 411T284 452Q243 452 211 434T157 384T124 310T112 220ZM304 561Q270 561 246 571T207 599T187 640T184 691H248Q245 654 262 639T309 624Q370 624 380 691H445Q438 632 401 597T304 561Z" />
<glyph unicode="&#x150;" glyph-name="Ohungarumlaut" horiz-adv-x="699" d="M334 -10Q270 -10 217 10T126 71T66 168T45 300Q45 385 71 459T144 587T255 673T394 704Q458 704 511 684T602 624T662 527T684 395Q684 310 658 236T584 108T473 22T334 -10ZM140 296Q140
234 155 189T195 115T256 72T331 58Q391 58 439 86T520 161T571 269T589 399Q589 461 574 506T533 580T472 622T395 636Q332 636 285 608T205 534T157 425T140 296ZM452 750L532 869H628L522 750H452ZM283 750L363 869H459L352 750H283Z" />
<glyph unicode="&#x151;" glyph-name="ohungarumlaut" horiz-adv-x="524" d="M238 -10Q188 -10 149 7T83 54T41 126T26 218Q26 274 43 327T94 421T176 488T286 513Q335 513 374 496T441 449T483 377T498 284Q498 228 481 176T430 82T348 15T238 -10ZM112 220Q112
133 147 92T240 51Q280 51 312 69T366 118T399 192T411 282Q411 370 376 411T284 452Q243 452 211 434T157 384T124 310T112 220ZM348 570L427 716H521L415 570H348ZM187 570L264 716H358L253 570H187Z" />
<glyph unicode="&#x152;" glyph-name="OE" horiz-adv-x="916" d="M424 68L543 627H439Q365 627 309 598T216 520T159 412T140 289Q140 229 155 187T198 118T261 80T341 68H424ZM341 0Q280 0 227 14T133 62T69 150T45 285Q45 363 70 437T146 568T270 660T442 695H951L936
627H633L583 394H846L831 326H569L514 68H822L807 0H341Z" />
<glyph unicode="&#x153;" glyph-name="oe" horiz-adv-x="894" d="M667 452Q602 452 559 408T501 289H778Q787 330 782 360T761 411T721 442T667 452ZM411 282Q411 370 376 411T284 452Q243 452 211 434T157 384T124 310T112 220Q112 133 147 92T240 51Q280 51
312 69T366 118T399 192T411 282ZM813 22Q791 10 753 0T657 -10Q580 -10 524 18T441 107Q409 55 358 23T238 -10Q188 -10 149 7T83 54T41 126T26 218Q26 274 43 327T94 421T176 488T286 513Q351 513 397 483T467 399Q502 453 555 483T674 513Q729 513 770 493T836
435T863 345T844 229H495V223Q495 138 539 98T662 58Q704 58 739 65T798 87L813 22Z" />
<glyph unicode="&#x154;" glyph-name="Racute" horiz-adv-x="593" d="M242 627L179 330H312Q347 330 377 342T430 375T466 428T479 498Q479 563 440 595T329 627H242ZM299 262H164L108 0H18L167 695H339Q451 695 511 644T571 501Q571 413 521 353T385 271L500
0H408L299 262ZM404 868H518L386 750H314L404 868Z" />
<glyph unicode="&#x155;" glyph-name="racute" horiz-adv-x="332" d="M333 423Q279 426 232 402T160 320L92 0H9L115 503H190L173 394H175Q199 446 244 479T352 513L333 423V423ZM308 716H411L281 570H215L308 716Z" />
<glyph unicode="&#x156;" glyph-name="uni0156" horiz-adv-x="593" d="M242 627L179 330H312Q347 330 377 342T430 375T466 428T479 498Q479 563 440 595T329 627H242ZM299 262H164L108 0H18L167 695H339Q451 695 511 644T571 501Q571 413 521 353T385 271L500
0H408L299 262ZM169 -221Q189 -207 207 -189T238 -148Q222 -144 212 -132T202 -102Q202 -79 217 -64T255 -49Q278 -49 293 -64T308 -109Q308 -147 285 -174T234 -221H169Z" />
<glyph unicode="&#x157;" glyph-name="uni0157" horiz-adv-x="332" d="M333 423Q279 426 232 402T160 320L92 0H9L115 503H190L173 394H175Q199 446 244 479T352 513L333 423V423ZM198 -221Q218 -207 236 -189T267 -148Q251 -144 241 -132T231 -102Q231 -79 246
-64T284 -49Q307 -49 322 -64T337 -109Q337 -147 314 -174T263 -221H198Z" />
<glyph unicode="&#x158;" glyph-name="Rcaron" horiz-adv-x="593" d="M242 627L179 330H312Q347 330 377 342T430 375T466 428T479 498Q479 563 440 595T329 627H242ZM299 262H164L108 0H18L167 695H339Q451 695 511 644T571 501Q571 413 521 353T385 271L500
0H408L299 262ZM321 750L251 869H310L377 802L469 869H533L421 750H321Z" />
<glyph unicode="&#x159;" glyph-name="rcaron" horiz-adv-x="332" d="M333 423Q279 426 232 402T160 320L92 0H9L115 503H190L173 394H175Q199 446 244 479T352 513L333 423V423ZM200 570L133 707H200L254 627L348 707H414L290 570H200Z" />
<glyph unicode="&#x15a;" glyph-name="Sacute" horiz-adv-x="519" d="M240 -10Q192 -10 152 -1T79 21T25 48T-10 74L30 137Q44 124 66 111T117 86T178 67T243 60Q318 60 353 95T388 186Q388 213 379 232T354 267T314 294T262 318Q229 332 198 347T143 383T103
436T88 512Q88 601 146 652T308 704Q374 704 429 689T518 649L484 579Q451 603 406 618T304 634Q237 634 204 601T171 521Q171 493 180 475T205 443T246 418T301 394Q334 380 365 364T420 325T458 271T473 195Q473 151 459 114T417 49T344 6T240 -10ZM387 868H501L369
750H297L387 868Z" />
<glyph unicode="&#x15b;" glyph-name="sacute" horiz-adv-x="429" d="M379 140Q379 74 334 32T198 -10Q163 -10 133 -4T77 11T33 31T4 53L41 111Q64 91 103 72T198 53Q252 53 277 78T302 136Q302 155 294 168T272 191T240 208T203 222Q176 231 150 242T104 269T71
308T58 367Q58 404 71 431T106 477T160 504T229 513Q289 513 332 497T400 459L366 399Q344 418 307 434T225 450Q179 450 156 430T133 374Q133 339 160 322T229 292Q254 283 281 273T329 246T365 204T379 140ZM300 716H403L273 570H207L300 716Z" />
<glyph unicode="&#x15c;" glyph-name="Scircumflex" horiz-adv-x="519" d="M240 -10Q192 -10 152 -1T79 21T25 48T-10 74L30 137Q44 124 66 111T117 86T178 67T243 60Q318 60 353 95T388 186Q388 213 379 232T354 267T314 294T262 318Q229 332 198 347T143 383T103
436T88 512Q88 601 146 652T308 704Q374 704 429 689T518 649L484 579Q451 603 406 618T304 634Q237 634 204 601T171 521Q171 493 180 475T205 443T246 418T301 394Q334 380 365 364T420 325T458 271T473 195Q473 151 459 114T417 49T344 6T240 -10ZM343 817L251
750H187L299 869H399L469 750H410L343 817Z" />
<glyph unicode="&#x15d;" glyph-name="scircumflex" horiz-adv-x="429" d="M379 140Q379 74 334 32T198 -10Q163 -10 133 -4T77 11T33 31T4 53L41 111Q64 91 103 72T198 53Q252 53 277 78T302 136Q302 155 294 168T272 191T240 208T203 222Q176 231 150 242T104
269T71 308T58 367Q58 404 71 431T106 477T160 504T229 513Q289 513 332 497T400 459L366 399Q344 418 307 434T225 450Q179 450 156 430T133 374Q133 339 160 322T229 292Q254 283 281 273T329 246T365 204T379 140ZM526 649L431 570H365L489 707H579L646 570H579L526
649Z" />
<glyph unicode="&#x15e;" glyph-name="uni015E" horiz-adv-x="519" d="M166 -187Q136 -187 120 -181T92 -168L109 -126Q117 -131 129 -136T160 -141Q179 -141 191 -133T203 -106Q203 -88 190 -82T153 -76H137L175 -5Q140 0 110 9T57 30T16 53T-10 74L30 137Q44
124 66 111T117 86T178 67T243 60Q318 60 353 95T388 186Q388 213 379 232T354 267T314 294T262 318Q229 332 198 347T143 383T103 436T88 512Q88 601 146 652T308 704Q374 704 429 689T518 649L484 579Q451 603 406 618T304 634Q237 634 204 601T171 521Q171 493
180 475T205 443T246 418T301 394Q334 380 365 364T420 325T458 271T473 195Q473 151 459 114T417 49T344 6T240 -10Q236 -10 232 -10T224 -9L207 -42Q236 -45 254 -60T273 -103Q273 -146 243 -166T166 -187Z" />
<glyph unicode="&#x15f;" glyph-name="uni015F" horiz-adv-x="429" d="M131 -187Q101 -187 85 -181T57 -168L74 -126Q82 -131 94 -136T125 -141Q144 -141 156 -133T168 -106Q168 -88 155 -82T118 -76H102L140 -5Q91 3 56 19T4 53L41 111Q64 91 103 72T198 53Q252
53 277 78T302 136Q302 155 294 168T272 191T240 208T203 222Q176 231 150 242T104 269T71 308T58 367Q58 404 71 431T106 477T160 504T229 513Q289 513 332 497T400 459L366 399Q344 418 307 434T225 450Q179 450 156 430T133 374Q133 339 160 322T229 292Q254
283 281 273T329 246T365 204T379 140Q379 74 334 32T198 -10H189L172 -42Q201 -45 219 -60T238 -103Q238 -146 208 -166T131 -187Z" />
<glyph unicode="&#x160;" glyph-name="Scaron" horiz-adv-x="519" d="M240 -10Q192 -10 152 -1T79 21T25 48T-10 74L30 137Q44 124 66 111T117 86T178 67T243 60Q318 60 353 95T388 186Q388 213 379 232T354 267T314 294T262 318Q229 332 198 347T143 383T103
436T88 512Q88 601 146 652T308 704Q374 704 429 689T518 649L484 579Q451 603 406 618T304 634Q237 634 204 601T171 521Q171 493 180 475T205 443T246 418T301 394Q334 380 365 364T420 325T458 271T473 195Q473 151 459 114T417 49T344 6T240 -10ZM285 750L215
869H274L341 802L433 869H497L385 750H285Z" />
<glyph unicode="&#x161;" glyph-name="scaron" horiz-adv-x="429" d="M379 140Q379 74 334 32T198 -10Q163 -10 133 -4T77 11T33 31T4 53L41 111Q64 91 103 72T198 53Q252 53 277 78T302 136Q302 155 294 168T272 191T240 208T203 222Q176 231 150 242T104 269T71
308T58 367Q58 404 71 431T106 477T160 504T229 513Q289 513 332 497T400 459L366 399Q344 418 307 434T225 450Q179 450 156 430T133 374Q133 339 160 322T229 292Q254 283 281 273T329 246T365 204T379 140ZM209 570L142 707H209L263 627L357 707H423L299 570H209Z"
/>
<glyph unicode="&#x162;" glyph-name="Tcommaaccent" horiz-adv-x="553" d="M400 627L266 0H176L310 627H94L109 695H619L605 627H400ZM112 -221Q132 -207 150 -189T181 -148Q165 -144 155 -132T145 -102Q145 -79 160 -64T198 -49Q221 -49 236 -64T251 -109Q251
-147 228 -174T177 -221H112Z" />
<glyph unicode="&#x163;" glyph-name="tcommaaccent" horiz-adv-x="339" d="M279 5Q262 0 244 -5T201 -10Q121 -10 83 38T61 166L121 442H61L75 503H134L157 609H240L217 503H362L347 442H204L143 161Q131 107 151 83T209 58Q227 58 241 61T267 69L279 5V5ZM295
-221Q315 -207 333 -189T364 -148Q348 -144 338 -132T328 -102Q328 -79 343 -64T381 -49Q404 -49 419 -64T434 -109Q434 -147 411 -174T360 -221H295Z" />
<glyph unicode="&#x164;" glyph-name="Tcaron" horiz-adv-x="553" d="M400 627L266 0H176L310 627H94L109 695H619L605 627H400ZM325 750L255 869H314L381 802L473 869H537L425 750H325Z" />
<glyph unicode="&#x165;" glyph-name="tcaron" horiz-adv-x="339" d="M279 5Q262 0 244 -5T201 -10Q121 -10 83 38T61 166L121 442H61L75 503H134L157 609H240L217 503H362L347 442H204L143 161Q131 107 151 83T209 58Q227 58 241 61T267 69L279 5V5ZM289 572L337
725H428L344 572H289Z" />
<glyph unicode="&#x166;" glyph-name="Tbar" horiz-adv-x="568" d="M114 418H282L327 627H111L126 695H636L622 627H417L372 418H541L527 355H359L283 0H193L269 355H100L114 418Z" />
<glyph unicode="&#x167;" glyph-name="tbar" horiz-adv-x="339" d="M279 5Q262 0 244 -5T201 -10Q121 -10 83 38T61 166L86 283H29L41 342H99L121 442H61L75 503H134L157 609H240L217 503H362L347 442H204L182 342H327L315 283H169L143 161Q131 107 151 83T209
58Q227 58 241 61T267 69L279 5Z" />
<glyph unicode="&#x168;" glyph-name="Utilde" horiz-adv-x="658" d="M151 695H241L148 259Q136 205 144 167T174 104T231 69T306 57Q387 57 440 104T512 248L606 695H688L590 235Q565 119 492 55T303 -10Q246 -10 195 7T110 60T61 147T61 270L151 695ZM264 761Q263
789 270 809T292 843T325 863T368 870Q393 870 411 864T444 850T473 836T505 829Q546 829 545 875H603Q605 821 579 793T505 765Q480 765 463 771T431 785T402 799T368 806Q348 806 336 797T322 761H264V761Z" />
<glyph unicode="&#x169;" glyph-name="utilde" horiz-adv-x="524" d="M205 58Q234 58 257 66T298 87T331 118T358 156L431 503H515L408 0H338L346 90H344Q315 48 276 19T176 -10Q98 -10 61 39T41 176L110 503H194L126 187Q118 151 121 127T136 87T166 65T205 58ZM150
580Q149 601 154 621T171 656T203 681T251 690Q276 690 294 684T328 670T357 656T388 649Q423 649 426 694H482Q483 673 479 654T465 619T437 594T392 584Q366 584 349 590T316 605T286 619T252 626Q233 626 221 616T207 580H150V580Z" />
<glyph unicode="&#x16a;" glyph-name="Umacron" horiz-adv-x="658" d="M151 695H241L148 259Q136 205 144 167T174 104T231 69T306 57Q387 57 440 104T512 248L606 695H688L590 235Q565 119 492 55T303 -10Q246 -10 195 7T110 60T61 147T61 270L151 695ZM300 842H595L581
779H286L300 842Z" />
<glyph unicode="&#x16b;" glyph-name="umacron" horiz-adv-x="524" d="M205 58Q234 58 257 66T298 87T331 118T358 156L431 503H515L408 0H338L346 90H344Q315 48 276 19T176 -10Q98 -10 61 39T41 176L110 503H194L126 187Q118 151 121 127T136 87T166 65T205
58ZM201 665H476L463 604H188L201 665Z" />
<glyph unicode="&#x16c;" glyph-name="Ubreve" horiz-adv-x="658" d="M151 695H241L148 259Q136 205 144 167T174 104T231 69T306 57Q387 57 440 104T512 248L606 695H688L590 235Q565 119 492 55T303 -10Q246 -10 195 7T110 60T61 147T61 270L151 695ZM438 740Q404
740 379 750T339 777T317 817T313 864H377Q375 832 394 818T443 803Q475 803 497 819T526 864H591Q587 837 574 814T541 775T495 749T438 740Z" />
<glyph unicode="&#x16d;" glyph-name="ubreve" horiz-adv-x="524" d="M205 58Q234 58 257 66T298 87T331 118T358 156L431 503H515L408 0H338L346 90H344Q315 48 276 19T176 -10Q98 -10 61 39T41 176L110 503H194L126 187Q118 151 121 127T136 87T166 65T205 58ZM325
561Q291 561 267 571T228 599T208 640T205 691H269Q266 654 283 639T330 624Q391 624 401 691H466Q459 632 422 597T325 561Z" />
<glyph unicode="&#x16e;" glyph-name="Uring" horiz-adv-x="658" d="M151 695H241L148 259Q136 205 144 167T174 104T231 69T306 57Q387 57 440 104T512 248L606 695H688L590 235Q565 119 492 55T303 -10Q246 -10 195 7T110 60T61 147T61 270L151 695ZM429 695Q384
695 356 723T327 795Q327 838 355 866T429 895Q472 895 502 867T532 795Q532 751 502 723T429 695ZM429 738Q451 738 465 754T480 795Q480 820 466 835T429 851Q407 851 393 836T379 795Q379 770 393 754T429 738Z" />
<glyph unicode="&#x16f;" glyph-name="uring" horiz-adv-x="524" d="M205 58Q234 58 257 66T298 87T331 118T358 156L431 503H515L408 0H338L346 90H344Q315 48 276 19T176 -10Q98 -10 61 39T41 176L110 503H194L126 187Q118 151 121 127T136 87T166 65T205 58ZM337
564Q293 564 264 592T235 665Q235 708 264 736T337 764Q381 764 410 736T440 665Q440 620 411 592T337 564ZM337 608Q360 608 373 623T387 665Q387 691 374 705T337 720Q314 720 302 706T289 665Q289 639 301 624T337 608Z" />
<glyph unicode="&#x170;" glyph-name="Uhungarumlaut" horiz-adv-x="658" d="M151 695H241L148 259Q136 205 144 167T174 104T231 69T306 57Q387 57 440 104T512 248L606 695H688L590 235Q565 119 492 55T303 -10Q246 -10 195 7T110 60T61 147T61 270L151 695ZM464
750L544 869H640L534 750H464ZM295 750L375 869H471L364 750H295Z" />
<glyph unicode="&#x171;" glyph-name="uhungarumlaut" horiz-adv-x="524" d="M205 58Q234 58 257 66T298 87T331 118T358 156L431 503H515L408 0H338L346 90H344Q315 48 276 19T176 -10Q98 -10 61 39T41 176L110 503H194L126 187Q118 151 121 127T136 87T166 65T205
58ZM369 570L448 716H542L436 570H369ZM208 570L285 716H379L274 570H208Z" />
<glyph unicode="&#x172;" glyph-name="Uogonek" horiz-adv-x="658" d="M323 -187Q270 -187 240 -166T210 -104Q210 -70 229 -47T283 -10Q229 -7 182 12T104 65T60 151T61 270L151 695H241L145 246Q135 198 143 163T174 104T229 69T304 57Q385 57 436 104T507 248L601
695H688L590 235Q570 143 522 86T397 2Q352 -14 322 -36T291 -91Q291 -112 302 -120T333 -128Q356 -128 372 -120L381 -175Q374 -180 357 -183T323 -187Z" />
<glyph unicode="&#x173;" glyph-name="uogonek" horiz-adv-x="524" d="M255 -104Q255 -85 262 -69T281 -41T308 -18T338 -1L346 90H344Q315 48 276 19T176 -10Q98 -10 61 39T41 176L110 503H194L126 187Q118 151 121 127T136 87T166 65T205 58Q234 58 257 66T298
87T331 118T358 156L431 503H515L408 0Q379 -17 358 -38T336 -91Q336 -112 347 -120T378 -128Q401 -128 417 -120L426 -175Q419 -180 402 -183T368 -187Q315 -187 285 -166T255 -104Z" />
<glyph unicode="&#x174;" glyph-name="Wcircumflex" horiz-adv-x="859" d="M106 695H196L185 70L472 695H561L594 76L848 695H932L644 0H514L486 556L232 0H98L106 695ZM534 817L442 750H378L490 869H590L660 750H601L534 817Z" />
<glyph unicode="&#x175;" glyph-name="wcircumflex" horiz-adv-x="707" d="M73 503H157L155 57L359 503H451L475 59L662 503H736L522 0H399L382 408L200 0H76L73 503ZM425 649L330 570H264L388 707H478L545 570H478L425 649Z" />
<glyph unicode="&#x176;" glyph-name="Ycircumflex" horiz-adv-x="580" d="M192 0L256 300L106 695H200L316 375L570 695H661L347 303L283 0H192ZM400 817L308 750H244L356 869H456L526 750H467L400 817Z" />
<glyph unicode="&#x177;" glyph-name="ycircumflex" horiz-adv-x="482" d="M21 -181Q1 -181 -18 -178T-49 -169L-33 -96Q-22 -101 -8 -105T26 -109Q66 -109 91 -88T142 -34L56 503H138L207 59L447 503H527L252 6Q201 -86 146 -133T21 -181ZM314 649L219 570H153L277
707H367L434 570H367L314 649Z" />
<glyph unicode="&#x178;" glyph-name="Ydieresis" horiz-adv-x="580" d="M192 0L256 300L106 695H200L316 375L570 695H661L347 303L283 0H192ZM510 762Q486 762 471 777T455 816Q455 840 470 856T510 872Q535 872 550 856T566 816Q566 793 551 778T510 762ZM286
762Q262 762 247 777T231 816Q231 840 246 856T286 872Q311 872 326 856T342 816Q342 793 327 778T286 762Z" />
<glyph unicode="&#x179;" glyph-name="Zacute" horiz-adv-x="570" d="M-20 0L-6 65L496 627H125L139 695H620L606 630L102 69H488L473 0H-20ZM421 868H535L403 750H331L421 868Z" />
<glyph unicode="&#x17a;" glyph-name="zacute" horiz-adv-x="423" d="M-27 0L-16 55L335 445H74L87 503H444L432 448L82 58H350L338 0H-27ZM316 716H419L289 570H223L316 716Z" />
<glyph unicode="&#x17b;" glyph-name="Zdotaccent" horiz-adv-x="570" d="M-20 0L-6 65L496 627H125L139 695H620L606 630L102 69H488L473 0H-20ZM371 762Q347 762 332 777T316 816Q316 840 331 856T371 872Q396 872 411 856T427 816Q427 793 412 778T371 762Z" />
<glyph unicode="&#x17c;" glyph-name="zdotaccent" horiz-adv-x="423" d="M-27 0L-16 55L335 445H74L87 503H444L432 448L82 58H350L338 0H-27ZM535 577Q511 577 496 592T480 631Q480 655 495 671T535 687Q560 687 575 671T591 631Q591 608 576 593T535 577Z" />
<glyph unicode="&#x17d;" glyph-name="Zcaron" horiz-adv-x="570" d="M-20 0L-6 65L496 627H125L139 695H620L606 630L102 69H488L473 0H-20ZM323 750L253 869H312L379 802L471 869H535L423 750H323Z" />
<glyph unicode="&#x17e;" glyph-name="zcaron" horiz-adv-x="423" d="M-27 0L-16 55L335 445H74L87 503H444L432 448L82 58H350L338 0H-27ZM227 570L160 707H227L281 627L375 707H441L317 570H227Z" />
<glyph unicode="&#x192;" glyph-name="uni0192" horiz-adv-x="496" d="M-66 -181Q-91 -181 -110 -176T-142 -163L-114 -101Q-104 -106 -93 -109T-64 -113Q-13 -113 16 -82T72 21L197 356H113L126 421H222L258 518Q292 609 339 656T462 704Q496 704 519 698T550
683L520 618Q512 623 498 627T466 631Q440 631 422 625T390 604T364 567T339 511L305 421H426L412 356H280L151 16Q116 -84 66 -132T-66 -181Z" />
<glyph unicode="&#x218;" glyph-name="uni0218" horiz-adv-x="519" d="M240 -10Q192 -10 152 -1T79 21T25 48T-10 74L30 137Q44 124 66 111T117 86T178 67T243 60Q318 60 353 95T388 186Q388 213 379 232T354 267T314 294T262 318Q229 332 198 347T143 383T103
436T88 512Q88 601 146 652T308 704Q374 704 429 689T518 649L484 579Q451 603 406 618T304 634Q237 634 204 601T171 521Q171 493 180 475T205 443T246 418T301 394Q334 380 365 364T420 325T458 271T473 195Q473 151 459 114T417 49T344 6T240 -10ZM93 -221Q113
-207 131 -189T162 -148Q146 -144 136 -132T126 -102Q126 -79 141 -64T179 -49Q202 -49 217 -64T232 -109Q232 -147 209 -174T158 -221H93Z" />
<glyph unicode="&#x219;" glyph-name="uni0219" horiz-adv-x="429" d="M379 140Q379 74 334 32T198 -10Q163 -10 133 -4T77 11T33 31T4 53L41 111Q64 91 103 72T198 53Q252 53 277 78T302 136Q302 155 294 168T272 191T240 208T203 222Q176 231 150 242T104 269T71
308T58 367Q58 404 71 431T106 477T160 504T229 513Q289 513 332 497T400 459L366 399Q344 418 307 434T225 450Q179 450 156 430T133 374Q133 339 160 322T229 292Q254 283 281 273T329 246T365 204T379 140ZM319 -221Q339 -207 357 -189T388 -148Q372 -144 362
-132T352 -102Q352 -79 367 -64T405 -49Q428 -49 443 -64T458 -109Q458 -147 435 -174T384 -221H319Z" />
<glyph unicode="&#x21a;" glyph-name="uni021A" horiz-adv-x="553" d="M400 627L266 0H176L310 627H94L109 695H619L605 627H400ZM112 -221Q132 -207 150 -189T181 -148Q165 -144 155 -132T145 -102Q145 -79 160 -64T198 -49Q221 -49 236 -64T251 -109Q251 -147
228 -174T177 -221H112Z" />
<glyph unicode="&#x21b;" glyph-name="uni021B" horiz-adv-x="339" d="M279 5Q262 0 244 -5T201 -10Q121 -10 83 38T61 166L121 442H61L75 503H134L157 609H240L217 503H362L347 442H204L143 161Q131 107 151 83T209 58Q227 58 241 61T267 69L279 5V5ZM295 -221Q315
-207 333 -189T364 -148Q348 -144 338 -132T328 -102Q328 -79 343 -64T381 -49Q404 -49 419 -64T434 -109Q434 -147 411 -174T360 -221H295Z" />
<glyph unicode="&#x237;" glyph-name="uni0237" horiz-adv-x="215" d="M-110 -129Q-51 -129 -25 -100T15 -9L125 503H208L99 -10Q90 -51 77 -85T40 -144T-17 -182T-103 -196L-110 -129Z" />
<glyph unicode="&#x2bc;" glyph-name="uni02BC" horiz-adv-x="216" d="M104 505Q136 531 150 553T169 592Q150 596 138 610T126 645Q126 668 141 683T181 699Q207 699 222 683T238 636Q238 599 218 566T162 505H104Z" />
<glyph unicode="&#x2c6;" glyph-name="circumflex" horiz-adv-x="399" d="M290 649L195 570H129L253 707H343L410 570H343L290 649Z" />
<glyph unicode="&#x2c7;" glyph-name="caron" horiz-adv-x="399" d="M196 570L129 707H196L250 627L344 707H410L286 570H196Z" />
<glyph unicode="&#x2d8;" glyph-name="breve" horiz-adv-x="400" d="M273 561Q239 561 215 571T176 599T156 640T153 691H217Q214 654 231 639T278 624Q339 624 349 691H414Q407 632 370 597T273 561Z" />
<glyph unicode="&#x2d9;" glyph-name="dotaccent" horiz-adv-x="399" d="M289 577Q265 577 250 592T234 631Q234 655 249 671T289 687Q314 687 329 671T345 631Q345 608 330 593T289 577Z" />
<glyph unicode="&#x2da;" glyph-name="ring" horiz-adv-x="399" d="M283 564Q239 564 210 592T181 665Q181 708 210 736T283 764Q327 764 356 736T386 665Q386 620 357 592T283 564ZM283 608Q306 608 319 623T333 665Q333 691 320 705T283 720Q260 720 248 706T235
665Q235 639 247 624T283 608Z" />
<glyph unicode="&#x2db;" glyph-name="ogonek" horiz-adv-x="399" d="M253 -175Q246 -180 229 -183T195 -187Q142 -187 112 -166T82 -104Q82 -63 108 -38T170 0H245Q214 -14 189 -36T163 -91Q163 -112 174 -120T205 -128Q228 -128 244 -120L253 -175V-175Z" />
<glyph unicode="&#x2dc;" glyph-name="tilde" horiz-adv-x="400" d="M112 580Q111 601 116 621T133 656T165 681T213 690Q238 690 256 684T290 670T319 656T350 649Q385 649 388 694H444Q445 673 441 654T427 619T399 594T354 584Q328 584 311 590T278 605T248
619T214 626Q195 626 183 616T169 580H112V580Z" />
<glyph unicode="&#x2dd;" glyph-name="hungarumlaut" horiz-adv-x="400" d="M279 570L358 716H452L346 570H279ZM118 570L195 716H289L184 570H118Z" />
<glyph unicode="&#x301;" glyph-name="acutecomb" horiz-adv-x="1" d="M-115 716H-12L-142 570H-208L-115 716Z" />
<glyph unicode="&#x401;" glyph-name="uni0401" horiz-adv-x="524" d="M167 695H554L540 627H242L193 395H455L441 327H178L123 68H436L422 0H18L167 695ZM485 762Q461 762 446 777T430 816Q430 840 445 856T485 872Q510 872 525 856T541 816Q541 793 526 778T485
762ZM261 762Q237 762 222 777T206 816Q206 840 221 856T261 872Q286 872 301 856T317 816Q317 793 302 778T261 762Z" />
<glyph unicode="&#x402;" glyph-name="uni0402" horiz-adv-x="778" d="M400 627L351 401Q372 414 405 425Q442 438 484 438Q544 438 587 419T658 369T700 296T714 209Q714 140 693 86T632 -7T534 -65T402 -85L388 -10Q513 -10 566 47T620 210Q620 240 612 266T586
313T541 346T476 358Q429 358 393 345Q360 333 333 316L266 0H176L310 627H94L109 695H619L605 627H400Z" />
<glyph unicode="&#x403;" glyph-name="uni0403" horiz-adv-x="486" d="M409 868H523L391 750H319L409 868ZM242 627L108 0H18L167 695H544L529 627H242Z" />
<glyph unicode="&#x404;" glyph-name="uni0404" horiz-adv-x="613" d="M352 -10Q283 -10 227 10T130 69T67 164T45 293Q45 378 73 453T152 584T274 672T432 704Q514 704 562 686T632 650L594 573Q574 595 529 613T425 632Q359 632 306 606T216 534T159 427Q152
404 147 379H459L443 311H140V300Q140 245 152 201T191 126T260 79T361 62Q443 62 508 99L533 35Q498 15 451 3T352 -10Z" />
<glyph unicode="&#x405;" glyph-name="uni0405" horiz-adv-x="519" d="M240 -10Q192 -10 152 -1T79 21T25 48T-10 74L30 137Q44 124 66 111T117 86T178 67T243 60Q318 60 353 95T388 186Q388 213 379 232T354 267T314 294T262 318Q229 332 198 347T143 383T103
436T88 512Q88 601 146 652T308 704Q374 704 429 689T518 649L484 579Q451 603 406 618T304 634Q237 634 204 601T171 521Q171 493 180 475T205 443T246 418T301 394Q334 380 365 364T420 325T458 271T473 195Q473 151 459 114T417 49T344 6T240 -10Z" />
<glyph unicode="&#x406;" glyph-name="uni0406" horiz-adv-x="235" d="M257 695L108 0H18L167 695H257Z" />
<glyph unicode="&#x407;" glyph-name="uni0407" horiz-adv-x="235" d="M322 762Q298 762 283 777T267 816Q267 840 282 856T322 872Q347 872 362 856T378 816Q378 793 363 778T322 762ZM132 762Q108 762 93 777T77 816Q77 840 92 856T132 872Q157 872 172 856T188
816Q188 793 173 778T132 762ZM257 695L108 0H18L167 695H257Z" />
<glyph unicode="&#x408;" glyph-name="uni0408" horiz-adv-x="341" d="M365 695L251 152Q235 77 189 34T70 -10Q44 -10 25 -6T-8 3Q-24 9 -35 17L-7 81Q0 74 11 69Q20 64 34 61T67 58Q105 58 128 83T161 156L275 695H365Z" />
<glyph unicode="&#x409;" glyph-name="uni0409" horiz-adv-x="973" d="M212 203Q195 149 176 110T132 44T74 6T-3 -4L-13 76Q44 72 78 110T136 226Q145 255 154 290T172 364T191 441T208 518Q226 604 245 695H665L608 426H729Q825 426 882 379T940 235Q940 179
920 136T863 62T778 16T672 0H427L560 627H316Q308 588 296 534T271 422T242 306T212 203ZM593 358L531 68H688Q758 68 802 109T846 231Q846 300 814 329T722 358H593Z" />
<glyph unicode="&#x40a;" glyph-name="uni040A" horiz-adv-x="1004" d="M622 340L564 68H719Q789 68 833 103T877 219Q877 280 843 310T735 340H622ZM532 340H181L108 0H18L167 695H257L195 408H546L608 695H698L636 408H740Q852 408 911 361T971 223Q971 167
951 125T895 56T812 14T708 0H459L532 340Z" />
<glyph unicode="&#x40b;" glyph-name="uni040B" horiz-adv-x="763" d="M400 627L351 398Q361 404 374 410Q391 418 411 424T454 434T501 438Q548 438 588 423T657 378T696 304T697 200L659 0H566L605 199Q613 240 608 270T587 319T547 348T492 358Q444 358 404
345Q365 333 333 313L266 0H176L310 627H94L109 695H619L605 627H400Z" />
<glyph unicode="&#x40c;" glyph-name="uni040C" horiz-adv-x="594" d="M257 695L108 0H18L167 695H257ZM433 0L197 350L564 695H659L297 351L534 0H433ZM439 868H553L421 750H349L439 868Z" />
<glyph unicode="&#x40e;" glyph-name="uni040E" horiz-adv-x="582" d="M389 733Q348 733 319 745T272 776T248 821T247 875H326Q318 832 336 811T393 790Q428 790 451 809T481 875H561Q553 812 509 773T389 733ZM345 188Q315 137 286 100T225 40T156 7T70 0L60
78Q128 72 172 100T251 179L112 695H203L312 276L571 695H659L345 188V188Z" />
<glyph unicode="&#x40f;" glyph-name="uni040F" horiz-adv-x="659" d="M336 0L280 -181H210L246 0H18L166 695H257L123 68H456L590 695H680L531 0H336Z" />
<glyph unicode="&#x410;" glyph-name="uni0410" horiz-adv-x="614" d="M383 635L187 273H426L383 635ZM434 206H151L39 0H-38L337 695H464L546 0H458L434 206Z" />
<glyph unicode="&#x411;" glyph-name="uni0411" horiz-adv-x="563" d="M167 695H573L557 616H240L199 426H319Q415 426 472 379T530 235Q530 179 510 136T453 62T368 16T262 0H18L167 695ZM185 358L123 68H278Q348 68 392 109T436 231Q436 300 404 329T312 358H185Z" />
<glyph unicode="&#x412;" glyph-name="uni0412" horiz-adv-x="581" d="M242 627L192 391H293Q328 391 358 399T410 423T445 466T458 529Q458 586 426 606T333 627H242ZM177 323L123 68H274Q353 68 396 98T440 201Q440 269 398 296T273 323H177ZM167 695H344Q446
695 497 655T549 538Q549 501 537 472T504 420T453 383T388 361Q451 350 492 312T533 199Q533 148 513 111T457 49T372 12T265 0H18L167 695Z" />
<glyph unicode="&#x413;" glyph-name="uni0413" horiz-adv-x="486" d="M242 627L108 0H18L167 695H544L529 627H242Z" />
<glyph unicode="&#x414;" glyph-name="uni0414" horiz-adv-x="730" d="M599 627H340Q311 495 286 401T236 242T185 136T125 68H480L599 627ZM555 0H41L-15 -180H-85L-34 68H25Q69 99 101 144T160 262T212 440T270 695H705L571 68H659L606 -180H536L555 0Z" />
<glyph unicode="&#x415;" glyph-name="uni0415" horiz-adv-x="524" d="M167 695H554L540 627H242L193 395H455L441 327H178L123 68H436L422 0H18L167 695Z" />
<glyph unicode="&#x416;" glyph-name="uni0416" horiz-adv-x="883" d="M-47 0L307 364L108 695H195L401 351L64 0H-47ZM579 695L430 0H340L489 695H579ZM725 0L519 350L856 695H951L614 353L822 0H725Z" />
<glyph unicode="&#x417;" glyph-name="uni0417" horiz-adv-x="561" d="M225 -10Q179 -10 144 -3T82 16T38 41T6 66L40 132Q55 119 72 107T112 84T163 68T227 62Q306 62 347 101T388 206Q388 266 352 294T241 323H164L179 391H263Q346 391 382 424T419 520Q419
573 388 602T289 632Q244 632 209 622T144 594L129 664Q155 680 197 692T291 704Q345 704 385 691T453 653T493 596T507 523Q507 490 497 462T469 412T427 376T375 355Q422 338 451 300T480 208Q480 161 465 121T418 52T338 7T225 -10Z" />
<glyph unicode="&#x418;" glyph-name="uni0418" horiz-adv-x="707" d="M167 695H257L136 129L641 695H728L581 0H489L609 565L106 0H18L167 695Z" />
<glyph unicode="&#x419;" glyph-name="uni0419" horiz-adv-x="707" d="M452 733Q411 733 382 745T335 776T311 821T310 875H389Q381 832 399 811T456 790Q491 790 514 809T544 875H624Q616 812 572 773T452 733ZM167 695H257L136 129L641 695H728L581 0H489L609
565L106 0H18L167 695Z" />
<glyph unicode="&#x41a;" glyph-name="uni041A" horiz-adv-x="594" d="M433 0L197 350L564 695H659L297 351L534 0H433ZM257 695L108 0H18L167 695H257Z" />
<glyph unicode="&#x41b;" glyph-name="uni041B" horiz-adv-x="652" d="M215 183Q200 134 181 98T136 39T77 5T1 -4L-9 78Q45 74 78 104T133 201Q174 328 198 450T245 695H675L527 0H437L570 627H317Q298 521 275 412T215 183Z" />
<glyph unicode="&#x41c;" glyph-name="uni041C" horiz-adv-x="823" d="M252 596L100 0H23L202 695H320L400 198L693 695H821L703 0H613L715 598L415 93H338L252 596Z" />
<glyph unicode="&#x41d;" glyph-name="uni041D" horiz-adv-x="675" d="M525 310H174L108 0H18L167 695H257L189 378H539L606 695H696L549 0H459L525 310Z" />
<glyph unicode="&#x41e;" glyph-name="uni041E" horiz-adv-x="699" d="M334 -10Q270 -10 217 10T126 71T66 168T45 300Q45 385 71 459T144 587T255 673T394 704Q458 704 511 684T602 624T662 527T684 395Q684 310 658 236T584 108T473 22T334 -10ZM140 296Q140
234 155 189T195 115T256 72T331 58Q391 58 439 86T520 161T571 269T589 399Q589 461 574 506T533 580T472 622T395 636Q332 636 285 608T205 534T157 425T140 296Z" />
<glyph unicode="&#x41f;" glyph-name="uni041F" horiz-adv-x="659" d="M575 627H242L108 0H18L167 695H680L532 0H441L575 627Z" />
<glyph unicode="&#x420;" glyph-name="uni0420" horiz-adv-x="554" d="M242 627L176 319H309Q343 319 374 330T429 363T466 418T480 496Q480 567 446 597T349 627H242ZM162 251L108 0H18L167 695H363Q459 695 516 648T574 500Q574 440 553 394T494 316T407 268T300
251H162Z" />
<glyph unicode="&#x421;" glyph-name="uni0421" horiz-adv-x="602" d="M352 -10Q283 -10 227 10T130 69T67 164T45 293Q45 378 73 453T152 584T274 672T432 704Q514 704 562 686T632 650L594 573Q574 595 529 613T425 632Q359 632 306 606T216 534T160 428T140
300Q140 245 152 201T191 126T260 79T361 62Q443 62 508 99L533 35Q498 15 451 3T352 -10Z" />
<glyph unicode="&#x422;" glyph-name="uni0422" horiz-adv-x="553" d="M654 627L520 0H430L564 627H348L363 695H873L859 627H654Z" />
<glyph unicode="&#x423;" glyph-name="uni0423" horiz-adv-x="582" d="M345 188Q315 137 286 100T225 40T156 7T70 0L60 78Q128 72 172 100T251 179L112 695H203L312 276L571 695H659L345 188V188Z" />
<glyph unicode="&#x424;" glyph-name="uni0424" horiz-adv-x="764" d="M278 -10L297 81Q248 83 203 99T122 146T66 219T45 318Q45 382 71 435T145 527T260 588T410 614L429 703H520L501 614Q550 611 595 595T676 549T733 476T754 376Q754 312 728 259T654 167T539
106T387 81L368 -10H278ZM138 324Q138 276 153 243T193 189T249 158T311 145L397 553Q339 550 291 534T209 489T157 419T138 324ZM661 371Q661 419 646 452T605 507T549 539T488 552L401 144Q459 147 507 163T589 208T642 277T661 371Z" />
<glyph unicode="&#x425;" glyph-name="uni0425" horiz-adv-x="594" d="M302 299L41 0H-56L272 370L127 695H223L346 423L574 695H671L374 353L533 0H436L302 299Z" />
<glyph unicode="&#x426;" glyph-name="uni0426" horiz-adv-x="705" d="M512 -180L530 0H18L167 695H257L123 68H456L590 695H680L546 68H635L582 -180H512Z" />
<glyph unicode="&#x427;" glyph-name="uni0427" horiz-adv-x="631" d="M415 0L480 305Q454 288 411 272T305 255Q249 255 207 272T138 321T103 399T107 502L148 695H238L197 491Q180 407 210 365T315 323Q352 323 381 329T433 345T471 363T495 379L562 695H652L505
0H415Z" />
<glyph unicode="&#x428;" glyph-name="uni0428" horiz-adv-x="891" d="M167 695H257L123 68H359L493 695H585L451 68H688L821 695H912L764 0H18L167 695Z" />
<glyph unicode="&#x429;" glyph-name="uni0429" horiz-adv-x="937" d="M742 -180L761 0H18L167 695H257L123 68H359L493 695H585L451 68H688L821 695H912L778 68H865L812 -180H742Z" />
<glyph unicode="&#x42a;" glyph-name="uni042A" horiz-adv-x="675" d="M107 695H369L311 426H431Q527 426 584 379T642 235Q642 179 622 136T565 62T480 16T374 0H130L262 616H90L107 695ZM297 358L235 68H390Q460 68 504 109T548 231Q548 300 516 329T424 358H297Z" />
<glyph unicode="&#x42b;" glyph-name="uni042B" horiz-adv-x="787" d="M185 358L123 68H278Q348 68 392 109T436 231Q436 300 404 329T312 358H185ZM167 695H257L199 426H319Q415 426 472 379T530 235Q530 179 510 136T453 62T368 16T262 0H18L167 695ZM810 695L661
0H571L720 695H810Z" />
<glyph unicode="&#x42c;" glyph-name="uni042C" horiz-adv-x="563" d="M185 358L123 68H278Q348 68 392 109T436 231Q436 300 404 329T312 358H185ZM167 695H257L199 426H319Q415 426 472 379T530 235Q530 179 510 136T453 62T368 16T262 0H18L167 695Z" />
<glyph unicode="&#x42d;" glyph-name="uni042D" horiz-adv-x="590" d="M206 -10Q162 -10 126 -4T63 11T18 30T-10 49L25 117Q36 109 53 100T93 82T143 69T203 63Q270 63 321 83T407 138T462 218T491 313H155L170 381H495Q494 447 478 494T433 572T364 617T276
632Q225 632 184 619T110 584L85 650Q126 676 172 690T280 704Q349 704 406 683T504 621T567 520T590 381Q590 301 565 230T490 105T369 21T206 -10Z" />
<glyph unicode="&#x42e;" glyph-name="uni042E" horiz-adv-x="917" d="M562 -10Q500 -10 449 10T361 71T304 168T283 300V311H175L108 0H18L167 695H257L189 379H289Q300 449 329 509T402 612T502 679T622 704Q683 704 734 684T823 624T881 527T902 395Q902 310
876 236T805 108T697 22T562 -10ZM378 296Q378 233 392 188T431 114T491 71T566 57Q621 57 665 85T741 160T790 269T807 399Q807 461 793 506T753 580T694 623T619 637Q564 637 520 609T444 534T395 425T378 296Z" />
<glyph unicode="&#x42f;" glyph-name="uni042F" horiz-adv-x="597" d="M450 326L514 627H376Q337 627 305 616T249 583T212 531T199 462Q199 394 235 360T338 326H450ZM356 258Q331 258 307 261L68 0H-40L223 280Q167 303 137 347T107 454Q107 510 127 554T184
630T272 678T387 695H619L471 0H381L436 258H356Z" />
<glyph unicode="&#x430;" glyph-name="uni0430" horiz-adv-x="486" d="M178 53Q204 53 226 61T267 83T300 112T324 143L345 239H239Q163 239 130 210T96 135Q96 94 118 74T178 53ZM306 0Q305 12 306 31T311 73Q287 41 251 16T160 -10Q134 -10 108 -3T60 21T26
65T12 130Q12 210 72 251T245 292H356L359 306Q368 347 363 374T341 416T300 438T244 445Q207 445 176 436T115 410L94 474Q125 493 167 503T259 513Q308 513 347 502T411 464T444 397T440 295L394 81Q392 74 391 63T387 40T384 17T382 0H306Z" />
<glyph unicode="&#x431;" glyph-name="uni0431" horiz-adv-x="555" d="M256 -10Q211 -10 172 4T104 47T59 123T42 233Q42 295 49 355T75 470T126 571T209 653Q240 675 272 687T336 706T400 714T463 719Q496 721 522 727T565 744L570 671Q555 659 528 653T456 644Q418
642 390 640T339 634T296 621T253 597Q230 581 209 562T169 513T136 442T110 343Q178 511 341 511Q425 511 474 462T529 308Q532 241 513 183T456 82T367 15T256 -10ZM124 216Q124 134 160 93T256 51Q296 51 329 68T388 118T427 194T441 293Q441 378 408 414T322
450Q283 450 247 433T184 385T140 311T124 216Z" />
<glyph unicode="&#x432;" glyph-name="uni0432" horiz-adv-x="483" d="M186 443L154 290H238Q295 290 329 312T363 377Q363 413 341 428T276 443H186ZM141 230L105 60H223Q283 60 312 82T342 153Q342 198 316 214T238 230H141ZM115 503H292Q362 503 405 477T449
388Q449 335 419 305T335 261Q353 256 369 248T399 228T420 196T428 150Q428 110 413 82T369 35T300 9T210 0H9L115 503Z" />
<glyph unicode="&#x433;" glyph-name="uni0433" horiz-adv-x="407" d="M187 -10Q153 -10 121 -3T64 20T24 63T8 130Q8 176 27 205T74 251T135 277T197 292Q222 297 242 304T277 320T299 344T307 379Q307 414 282 429T212 445Q178 445 150 438T99 420L88 487Q114
498 146 505T220 513Q309 513 349 478T389 382Q389 341 373 314T332 267T274 238T211 221Q183 216 161 210T122 194T98 170T89 134Q89 111 97 97T120 74T154 62T194 58Q227 58 257 67T315 89L332 22Q304 9 272 0T187 -10Z" />
<glyph unicode="&#x434;" glyph-name="uni0434" horiz-adv-x="536" d="M236 -10Q187 -10 148 7T82 54T41 126T26 218Q26 267 42 314T90 398T167 457T270 479Q336 479 375 450T433 372Q435 394 435 412T435 448Q435 558 391 611T264 664Q243 664 226 661T195 653Q180
649 169 643L153 708Q165 714 183 719Q198 724 219 727T270 731Q333 731 378 712T452 657T495 573T509 465Q509 363 494 277T445 126T360 26T236 -10ZM403 268Q403 346 368 382T276 418Q237 418 207 403T155 360T123 297T112 220Q112 133 147 92T240 51Q279 51
309 68T360 114T392 183T403 268Z" />
<glyph unicode="&#x435;" glyph-name="uni0435" horiz-adv-x="510" d="M278 452Q217 452 176 411T119 299H384Q393 338 388 367T367 414T329 442T278 452ZM415 22Q393 10 356 0T269 -10Q156 -10 91 47T26 222Q26 287 46 340T101 432T184 492T285 513Q338 513 378
493T442 437T469 351T450 239H111V223Q111 138 152 98T273 58Q308 58 342 65T400 87L415 22Z" />
<glyph unicode="&#x436;" glyph-name="uni0436" horiz-adv-x="673" d="M-50 0L204 267L50 503H132L291 256L48 0H-50ZM441 503L335 0H252L358 503H441ZM543 0L404 256L647 503H735L491 256L634 0H543Z" />
<glyph unicode="&#x437;" glyph-name="uni0437" horiz-adv-x="421" d="M160 -10Q97 -10 55 8T-7 43L25 103Q44 88 76 71T161 53Q225 53 252 77T279 145Q279 190 253 207T175 225H114L129 291H205Q261 291 286 313T312 376Q312 413 286 431T212 450Q173 450 144
441T93 419L78 482Q101 494 134 503T212 513Q297 513 342 478T387 379Q387 332 358 297T279 255Q314 245 337 219T361 147Q361 115 350 87T313 37T250 3T160 -10Z" />
<glyph unicode="&#x438;" glyph-name="uni0438" horiz-adv-x="524" d="M205 58Q234 58 257 66T298 87T331 118T358 156L431 503H515L408 0H338L346 90H344Q315 48 276 19T176 -10Q98 -10 61 39T41 176L110 503H194L126 187Q118 151 121 127T136 87T166 65T205 58Z" />
<glyph unicode="&#x439;" glyph-name="uni0439" horiz-adv-x="524" d="M317 554Q280 554 254 563T213 589T191 626T187 673H261Q256 638 273 622T321 606Q349 606 369 620T394 673H471Q463 620 425 587T317 554ZM205 58Q234 58 257 66T298 87T331 118T358 156L431
503H515L408 0H338L346 90H344Q315 48 276 19T176 -10Q98 -10 61 39T41 176L110 503H194L126 187Q118 151 121 127T136 87T166 65T205 58Z" />
<glyph unicode="&#x43a;" glyph-name="uni043A" horiz-adv-x="477" d="M199 503L92 0H9L115 503H199ZM321 0L161 256L427 503H517L250 255L412 0H321Z" />
<glyph unicode="&#x43b;" glyph-name="uni043B" horiz-adv-x="521" d="M198 217Q184 169 170 129T133 59T76 13T-9 -1L-19 73Q15 72 37 82T74 113T100 164T123 236Q139 291 151 339T174 424Q185 466 194 503H513L405 0H322L416 443H258Q247 403 232 345T198 217Z" />
<glyph unicode="&#x43c;" glyph-name="uni043C" horiz-adv-x="662" d="M168 421L79 0H9L115 503H229L307 146L539 503H655L548 0H465L554 417L317 56H250L168 421Z" />
<glyph unicode="&#x43d;" glyph-name="uni043D" horiz-adv-x="529" d="M379 230H141L92 0H9L115 503H199L154 290H392L437 503H521L414 0H331L379 230Z" />
<glyph unicode="&#x43e;" glyph-name="uni043E" horiz-adv-x="524" d="M238 -10Q188 -10 149 7T83 54T41 126T26 218Q26 274 43 327T94 421T176 488T286 513Q335 513 374 496T441 449T483 377T498 284Q498 228 481 176T430 82T348 15T238 -10ZM112 220Q112 133
147 92T240 51Q280 51 312 69T366 118T399 192T411 282Q411 370 376 411T284 452Q243 452 211 434T157 384T124 310T112 220Z" />
<glyph unicode="&#x43f;" glyph-name="uni043F" horiz-adv-x="533" d="M326 445Q296 445 272 437T229 416T194 385T166 347L92 0H9L115 503H190L177 413H179Q208 455 251 484T357 513Q437 513 474 462T490 312L423 0H339L407 319Q415 356 413 380T399 418T369
439T326 445Z" />
<glyph unicode="&#x440;" glyph-name="uni0440" horiz-adv-x="558" d="M145 212Q145 131 180 91T274 51Q319 51 351 73T404 129T435 206T445 291Q445 373 410 412T315 452Q274 452 242 433T189 382T156 306T145 212ZM277 -10Q215 -10 173 21T114 105L52 -187H-31L115
503H185L178 430Q204 467 242 490T332 513Q381 513 418 497T480 450T519 379T532 289Q532 232 515 178T465 83T385 16T277 -10Z" />
<glyph unicode="&#x441;" glyph-name="uni0441" horiz-adv-x="451" d="M264 -10Q213 -10 170 4T94 48T44 120T26 220Q26 283 46 336T103 429T192 491T307 513Q352 513 390 502T453 470L419 409Q395 427 366 436T304 445Q256 445 220 429T160 383T124 313T112 226Q112
138 154 98T268 58Q297 58 322 64T376 84L390 21Q364 7 332 -1T264 -10Z" />
<glyph unicode="&#x442;" glyph-name="uni0442" horiz-adv-x="824" d="M92 0H9L115 503H190L177 413H179Q206 455 245 484T343 513Q397 513 432 487T476 408Q505 453 548 483T656 513Q730 513 767 463T784 314L716 0H632L701 320Q709 357 706 381T692 419T663
439T624 445Q573 445 538 420T479 353L403 0H320L389 320Q397 357 394 381T379 419T350 439T311 445Q283 445 262 437T223 416T192 385T166 347L92 0Z" />
<glyph unicode="&#x443;" glyph-name="uni0443" horiz-adv-x="482" d="M21 -181Q1 -181 -18 -178T-49 -169L-33 -96Q-22 -101 -8 -105T26 -109Q66 -109 91 -88T142 -34L56 503H138L207 59L447 503H527L252 6Q201 -86 146 -133T21 -181Z" />
<glyph unicode="&#x444;" glyph-name="uni0444" horiz-adv-x="673" d="M202 -187L240 -9Q202 -6 164 10T95 55T45 127T26 223Q26 283 50 334T118 424T221 486T350 511L395 726H478L432 510Q471 507 509 491T578 447T628 376T647 280Q647 220 623 169T555 79T452
17T323 -8L285 -187H202ZM111 231Q111 189 123 157T156 103T201 70T253 55L336 447Q288 445 247 430T175 387T128 320T111 231ZM562 274Q562 317 549 349T516 403T470 435T419 447L336 55Q384 58 425 74T497 118T545 186T562 274Z" />
<glyph unicode="&#x445;" glyph-name="uni0445" horiz-adv-x="464" d="M217 201L40 0H-46L187 264L82 503H172L255 318L411 503H498L285 256L400 0H309L217 201Z" />
<glyph unicode="&#x446;" glyph-name="uni0446" horiz-adv-x="557" d="M205 58Q234 58 257 66T298 87T331 118T358 156L431 503H515L421 60H505L459 -159H399L414 0H338L346 90H344Q315 48 276 19T176 -10Q98 -10 61 39T41 176L110 503H194L126 187Q118 151 121
127T136 87T166 65T205 58Z" />
<glyph unicode="&#x447;" glyph-name="uni0447" horiz-adv-x="495" d="M296 0L343 217Q321 205 286 193T206 180Q166 180 136 191T86 225T61 283T66 366L96 503H179L148 358Q141 326 144 305T158 270T186 250T224 244Q251 244 273 249T313 262T342 277T358 288L404
503H487L381 0H296Z" />
<glyph unicode="&#x448;" glyph-name="uni0448" horiz-adv-x="825" d="M734 503H817L711 0H636L649 90H647Q620 48 581 19T483 -10Q429 -10 394 16T350 95Q321 50 278 20T170 -10Q96 -10 59 40T42 189L110 503H194L125 183Q117 146 120 122T134 84T163 64T202
58Q253 58 288 83T347 150L423 503H506L437 183Q429 146 432 122T446 84T476 64T515 58Q570 58 603 87T660 156L734 503Z" />
<glyph unicode="&#x449;" glyph-name="uni0449" horiz-adv-x="859" d="M734 503H817L723 60H782L736 -159H676L691 0H636L649 90H647Q620 48 581 19T483 -10Q429 -10 394 16T350 95Q321 50 278 20T170 -10Q96 -10 59 40T42 189L110 503H194L125 183Q117 146 120
122T134 84T163 64T202 58Q253 58 288 83T347 150L423 503H506L437 183Q429 146 432 122T446 84T476 64T515 58Q570 58 603 87T660 156L734 503Z" />
<glyph unicode="&#x44a;" glyph-name="uni044A" horiz-adv-x="524" d="M55 503H264L227 328H317Q393 328 438 294T484 189Q484 144 466 109T417 49T346 13T260 0H74L165 435H40L55 503ZM214 268L170 60H274Q299 60 321 67T360 89T386 127T396 182Q396 226 376
247T305 268H214Z" />
<glyph unicode="&#x44b;" glyph-name="uni044B" horiz-adv-x="643" d="M528 0H444L552 503H635L528 0ZM149 268L105 60H209Q234 60 256 67T295 89T321 127T331 182Q331 226 311 247T240 268H149ZM115 503H199L162 328H252Q328 328 373 294T419 189Q419 144 401
109T352 49T281 13T195 0H9L115 503Z" />
<glyph unicode="&#x44c;" glyph-name="uni044C" horiz-adv-x="459" d="M149 268L105 60H209Q234 60 256 67T295 89T321 127T331 182Q331 226 311 247T240 268H149ZM115 503H199L162 328H252Q328 328 373 294T419 189Q419 144 401 109T352 49T281 13T195 0H9L115 503Z" />
<glyph unicode="&#x44d;" glyph-name="uni044D" horiz-adv-x="441" d="M142 -10Q90 -10 55 2T0 30L33 93Q56 78 83 68T145 58Q229 58 272 104T327 227H98L111 287H330Q328 362 293 403T182 445Q150 445 127 438T80 419L59 484Q80 495 114 504T190 513Q294 513
354 456T415 283Q415 220 397 167T343 74T257 12T142 -10Z" />
<glyph unicode="&#x44e;" glyph-name="uni044E" horiz-adv-x="709" d="M427 -10Q379 -10 341 7T275 54T234 126T220 218V230H141L92 0H9L115 503H199L154 290H227Q237 335 258 375T310 446T383 495T475 513Q524 513 562 496T628 449T669 377T683 284Q683 228 666
176T615 82T535 15T427 -10ZM306 220Q306 133 340 92T429 51Q468 51 499 69T551 118T584 192T596 282Q596 370 563 411T473 452Q433 452 402 434T350 384T317 310T306 220Z" />
<glyph unicode="&#x44f;" glyph-name="uni044F" horiz-adv-x="464" d="M317 233L361 443H260Q207 443 171 414T135 328Q135 285 158 259T233 233H317ZM304 173H226L63 0H-35L146 188Q102 203 76 235T50 321Q50 365 66 399T111 456T180 491T270 503H457L350 0H267L304
173Z" />
<glyph unicode="&#x451;" glyph-name="uni0451" horiz-adv-x="510" d="M278 452Q217 452 176 411T119 299H384Q393 338 388 367T367 414T329 442T278 452ZM415 22Q393 10 356 0T269 -10Q156 -10 91 47T26 222Q26 287 46 340T101 432T184 492T285 513Q338 513 378
493T442 437T469 351T450 239H111V223Q111 138 152 98T273 58Q308 58 342 65T400 87L415 22ZM403 577Q378 577 363 592T348 631Q348 655 363 671T403 687Q428 687 443 671T458 631Q458 608 443 593T403 577ZM193 577Q169 577 154 592T138 631Q138 655 153 671T193
687Q218 687 233 671T249 631Q249 608 234 593T193 577Z" />
<glyph unicode="&#x452;" glyph-name="uni0452" horiz-adv-x="533" d="M420 -10Q411 -51 398 -85T362 -144T308 -182T228 -196L211 -129Q240 -129 261 -122T296 -99T319 -62T336 -9L407 319Q415 356 413 380T399 418T369 439T326 445Q296 445 272 437T229 416T194
385T166 347L92 0H9L127 559H39L51 622H141L156 695H239L224 622H360L348 559H211L199 503L177 413H179Q208 455 251 484T357 513Q437 513 474 462T490 312L420 -10V-10Z" />
<glyph unicode="&#x453;" glyph-name="uni0453" horiz-adv-x="407" d="M187 -10Q153 -10 121 -3T64 20T24 63T8 130Q8 176 27 205T74 251T135 277T197 292Q222 297 242 304T277 320T299 344T307 379Q307 414 282 429T212 445Q178 445 150 438T99 420L88 487Q114
498 146 505T220 513Q309 513 349 478T389 382Q389 341 373 314T332 267T274 238T211 221Q183 216 161 210T122 194T98 170T89 134Q89 111 97 97T120 74T154 62T194 58Q227 58 257 67T315 89L332 22Q304 9 272 0T187 -10ZM310 716H413L283 570H217L310 716Z" />
<glyph unicode="&#x454;" glyph-name="uni0454" horiz-adv-x="456" d="M390 21Q364 7 332 -1T264 -10Q213 -10 170 4T94 48T44 120T26 220Q26 283 46 336T103 429T192 491T307 513Q352 513 390 502T453 470L419 409Q395 427 366 436T304 445Q224 445 178 402T118
289H343L331 229H112V226Q112 138 154 98T268 58Q297 58 322 64T376 84L390 21V21Z" />
<glyph unicode="&#x455;" glyph-name="uni0455" horiz-adv-x="439" d="M379 140Q379 74 334 32T198 -10Q163 -10 133 -4T77 11T33 31T4 53L41 111Q64 91 103 72T198 53Q252 53 277 78T302 136Q302 155 294 168T272 191T240 208T203 222Q176 231 150 242T104 269T71
308T58 367Q58 404 71 431T106 477T160 504T229 513Q289 513 332 497T400 459L366 399Q344 418 307 434T225 450Q179 450 156 430T133 374Q133 339 160 322T229 292Q254 283 281 273T329 246T365 204T379 140Z" />
<glyph unicode="&#x456;" glyph-name="uni0456" horiz-adv-x="208" d="M173 577Q150 577 134 593T118 632Q118 655 134 672T173 689Q196 689 213 672T230 632Q230 609 213 593T173 577ZM199 503L92 0H9L115 503H199Z" />
<glyph unicode="&#x457;" glyph-name="uni0457" horiz-adv-x="203" d="M261 577Q236 577 221 592T206 631Q206 655 221 671T261 687Q286 687 301 671T316 631Q316 608 301 593T261 577ZM86 577Q62 577 47 592T31 631Q31 655 46 671T86 687Q111 687 126 671T142
631Q142 608 127 593T86 577ZM198 503L91 0H8L114 503H198Z" />
<glyph unicode="&#x458;" glyph-name="uni0458" horiz-adv-x="215" d="M183 577Q160 577 144 593T128 632Q128 655 144 672T183 689Q206 689 222 672T239 632Q239 609 223 593T183 577ZM-110 -129Q-51 -129 -25 -100T15 -9L125 503H208L99 -10Q90 -51 77 -85T42
-144T-15 -182T-101 -196L-110 -129Z" />
<glyph unicode="&#x459;" glyph-name="uni0459" horiz-adv-x="757" d="M198 217Q184 169 170 129T133 59T76 13T-9 -1L-19 73Q15 72 37 82T74 113T100 164T123 236Q139 291 151 339T174 424Q185 466 194 503H513L475 328H554Q630 328 675 294T721 189Q721 144
703 109T654 49T583 13T497 0H322L416 443H258Q247 403 232 345T198 217ZM511 60Q536 60 558 67T597 89T623 127T633 182Q633 226 613 247T542 268H462L418 60H511Z" />
<glyph unicode="&#x45a;" glyph-name="uni045A" horiz-adv-x="777" d="M379 230H141L92 0H9L115 503H199L154 290H392L437 503H521L484 328H574Q650 328 695 294T741 189Q741 144 723 109T674 49T603 13T517 0H331L379 230ZM531 60Q556 60 578 67T617 89T643 127T653
182Q653 226 633 247T562 268H471L427 60H531Z" />
<glyph unicode="&#x45b;" glyph-name="uni045B" horiz-adv-x="533" d="M326 445Q296 445 272 437T229 416T194 385T166 347L92 0H9L127 559H39L51 622H140L162 725H245L223 622H360L348 559H210L179 413H181Q209 455 251 484T357 513Q437 513 474 462T490 312L423
0H339L407 319Q415 356 413 380T399 418T369 439T326 445Z" />
<glyph unicode="&#x45c;" glyph-name="uni045C" horiz-adv-x="477" d="M199 503L92 0H9L115 503H199ZM321 0L161 256L427 503H517L250 255L412 0H321ZM366 716H469L339 570H273L366 716Z" />
<glyph unicode="&#x45e;" glyph-name="uni045E" horiz-adv-x="482" d="M297 554Q260 554 234 563T193 589T171 626T167 673H241Q236 638 253 622T301 606Q329 606 349 620T374 673H451Q443 620 405 587T297 554ZM21 -181Q1 -181 -18 -178T-49 -169L-33 -96Q-22
-101 -8 -105T26 -109Q66 -109 91 -88T142 -34L56 503H138L207 59L447 503H527L252 6Q201 -86 146 -133T21 -181Z" />
<glyph unicode="&#x45f;" glyph-name="uni045F" horiz-adv-x="524" d="M344 90Q303 36 277 -23T245 -159H163Q168 -111 184 -74T225 -4Q202 -10 176 -10Q98 -10 61 39T41 176L110 503H194L126 187Q118 151 121 127T136 87T166 65T205 58Q234 58 257 66T298 87T331
118T358 156L431 503H515L408 0H338L346 90H344V90Z" />
<glyph unicode="&#x490;" glyph-name="uni0490" horiz-adv-x="487" d="M242 627L108 0H18L167 695H453L512 871H582L544 695L529 627H242Z" />
<glyph unicode="&#x491;" glyph-name="uni0491" horiz-adv-x="382" d="M180 443L94 0H9L107 503H320L365 662H438L404 503L391 443H180Z" />
<glyph unicode="&#x492;" glyph-name="uni0492" horiz-adv-x="517" d="M16 386H132L198 695H575L560 627H273L221 386H391L377 314H206L139 0H49L116 314H2L16 386Z" />
<glyph unicode="&#x493;" glyph-name="uni0493" horiz-adv-x="459" d="M366 22Q338 9 306 0T221 -10Q187 -10 155 -3T98 20T58 63T42 130Q42 188 83 224H9L21 284H217Q221 285 231 287Q282 297 311 316T341 379Q341 414 316 429T246 445Q212 445 184 438T133 420L127
490Q153 501 182 507T254 513Q343 513 383 478T423 382Q423 350 412 326T382 284H443L431 224H235Q209 219 189 213T154 196T131 171T123 134Q123 111 131 97T154 74T188 62T228 58Q261 58 291 67T349 89L366 22V22Z" />
<glyph unicode="&#x49a;" glyph-name="uni049A" horiz-adv-x="620" d="M433 0L197 350L564 695H659L297 351L488 68H562L509 -180H439L457 0H433ZM257 695L108 0H18L167 695H257Z" />
<glyph unicode="&#x49b;" glyph-name="uni049B" horiz-adv-x="504" d="M321 0L161 256L427 503H517L250 255L374 60H445L399 -159H339L353 0H321ZM199 503L92 0H9L115 503H199Z" />
<glyph unicode="&#x4a2;" glyph-name="uni04A2" horiz-adv-x="735" d="M525 310H174L108 0H18L167 695H257L189 378H539L606 695H696L563 68H652L599 -180H529L547 0H459L525 310Z" />
<glyph unicode="&#x4a3;" glyph-name="uni04A3" horiz-adv-x="563" d="M379 230H141L92 0H9L115 503H199L154 290H392L437 503H521L427 60H511L465 -159H405L420 0H331L379 230Z" />
<glyph unicode="&#x4ae;" glyph-name="uni04AE" horiz-adv-x="580" d="M192 0L256 300L106 695H200L316 375L570 695H661L347 303L283 0H192Z" />
<glyph unicode="&#x4af;" glyph-name="uni04AF" horiz-adv-x="483" d="M111 -187L158 33L56 503H144L225 124L451 503H531L242 30L196 -187H111Z" />
<glyph unicode="&#x4b0;" glyph-name="uni04B0" horiz-adv-x="580" d="M192 0L245 248H74L89 316H250L106 695H200L316 375L570 695H661L357 316H521L506 248H335L283 0H192Z" />
<glyph unicode="&#x4b1;" glyph-name="uni04B1" horiz-adv-x="483" d="M111 -187L153 10H10L22 68H150L56 503H144L225 124L451 503H531L265 68H399L387 10H238L196 -187H111Z" />
<glyph unicode="&#x4ba;" glyph-name="uni04BA" horiz-adv-x="616" d="M256 695L191 390Q217 407 260 423T366 440Q422 440 464 423T533 374T568 296T564 193L523 0H433L474 204Q491 288 461 330T356 372Q319 372 290 366T238 350T200 332T176 316L109 0H19L166 695H256Z" />
<glyph unicode="&#x4bb;" glyph-name="uni04BB" horiz-adv-x="533" d="M326 445Q296 445 272 437T229 416T194 385T166 347L92 0H9L162 725H245L179 413H181Q209 455 251 484T357 513Q437 513 474 462T490 312L423 0H339L407 319Q415 356 413 380T399 418T369
439T326 445Z" />
<glyph unicode="&#x4d8;" glyph-name="uni04D8" horiz-adv-x="650" d="M311 -10Q228 -10 173 20T87 99T48 212T53 340L62 386H540Q541 453 526 500T481 577T411 619T321 633Q275 633 233 621T152 584L130 651Q165 674 215 689T331 704Q398 704 454 685T551 626T614
528T635 390Q633 308 612 235T549 108T448 22T311 -10ZM315 58Q366 58 404 78T470 134T513 216T536 318H141Q133 265 139 218T166 136T223 79T315 58Z" />
<glyph unicode="&#x4d9;" glyph-name="uni04D9" horiz-adv-x="506" d="M228 51Q289 51 330 92T387 204H122Q113 165 118 136T139 89T177 61T228 51ZM91 481Q113 493 150 503T237 513Q350 513 415 456T480 281Q480 216 460 163T405 71T322 11T221 -10Q168 -10 128
10T64 66T37 152T56 264H395V280Q395 365 354 405T233 445Q198 445 164 438T106 416L91 481Z" />
<glyph unicode="&#x4e8;" glyph-name="uni04E8" horiz-adv-x="699" d="M334 -10Q270 -10 217 10T126 71T66 168T45 300Q45 385 71 459T144 587T255 673T394 704Q458 704 511 684T602 624T662 527T684 395Q684 310 658 236T584 108T473 22T334 -10ZM140 296Q140
234 155 189T195 115T256 72T331 58Q391 58 439 86T520 161T571 269Q578 293 582 318H140Q140 307 140 296ZM589 399Q589 461 574 506T533 580T472 622T395 636Q332 636 285 608T205 534T156 425Q151 406 148 386H589V399Z" />
<glyph unicode="&#x4e9;" glyph-name="uni04E9" horiz-adv-x="524" d="M238 -10Q188 -10 149 7T83 54T41 126T26 218Q26 274 43 327T94 421T176 488T286 513Q335 513 374 496T441 449T483 377T498 284Q498 228 481 176T430 82T348 15T238 -10ZM283 452Q250 452
223 440T175 406T140 354T118 288H411Q409 373 375 412T283 452ZM240 51Q274 51 302 64T352 101T387 157T407 228H112V220Q112 133 147 92T240 51Z" />
</font>
</defs>
</svg>
