<svg xmlns="http://www.w3.org/2000/svg" width="660.834" height="127.666" viewBox="0 0 660.834 127.666"><path fill="none" d="M122.75 15.583h81v27.25h-81z"/><text transform="translate(122.75 21.4)"><tspan x="0" y="0" font-family="'InputMono-Regular'" font-size="8">Scripting</tspan><tspan x="0" y="13" font-family="'InputMono-Regular'" font-size="8">HTML Parser</tspan></text><path fill="none" d="M122.75 15.583h81v27.25h-81z"/><text transform="translate(122.75 21.4)"><tspan x="0" y="0" font-family="'InputMono-Regular'" font-size="8">Scripting</tspan><tspan x="0" y="13" font-family="'InputMono-Regular'" font-size="8">HTML Parser</tspan></text><path fill="none" d="M122.75 49.583h81v27.25h-81z"/><text transform="translate(122.75 55.4)"><tspan x="0" y="0" font-family="'InputMono-Regular'" font-size="8">Scripting</tspan><tspan x="0" y="13" font-family="'InputMono-Regular'" font-size="8">HTML Parser</tspan></text><path fill="none" d="M122.75 83.584h81v27.25h-81z"/><text transform="translate(122.75 89.4)"><tspan x="0" y="0" font-family="'InputMono-Regular'" font-size="8">Scripting</tspan><tspan x="0" y="13" font-family="'InputMono-Regular'" font-size="8">HTML Parser</tspan></text><path fill="none" d="M196 112h139.834v15.666H196z"/><text transform="translate(196 117.815)" font-family="'InputMono-Regular'" font-size="8">parser</text><path fill="none" d="M241.833 112h139.834v15.666H241.833z"/><text transform="translate(241.833 117.815)" font-family="'InputMono-Regular'" font-size="8">net</text><circle fill="#82BA41" cx="189.5" cy="115.667" r="2.667"/><circle fill="#4160AB" cx="235.5" cy="115.667" r="2.667"/><circle fill="#EC3825" cx="266.5" cy="115.667" r="2.667"/><path fill="none" stroke="#D6D6D6" stroke-width="2" stroke-miterlimit="10" d="M326.5 32.5v-14m146.5 14v-14m0 82v-14m-49 14v-14m79-20v-14"/><path fill="none" d="M602.875 110.75H653v9.5h-50.125z"/><text transform="translate(602.875 116.566)"><tspan x="0" y="0" font-family="'InputMono-Regular'" font-size="8">runtime </tspan><tspan x="40.727" y="0" font-family="'ArialMT'" font-size="8">→</tspan></text><path fill="none" d="M272.833 112h139.834v15.666H272.833z"/><text transform="translate(272.833 117.815)" font-family="'InputMono-Regular'" font-size="8">execution</text><path fill="none" stroke="#82BA41" stroke-width="2" stroke-miterlimit="10" d="M189 32.5h137.762"/><circle fill="#82BA41" cx="326.626" cy="32.5" r="2.707"/><path fill="none" stroke="#4160AC" stroke-width="2" stroke-miterlimit="10" d="M424.25 18.5h-97.679"/><circle fill="#4160AC" cx="326.707" cy="18.5" r="2.707"/><path fill="none" stroke="#4160AC" stroke-width="2" stroke-miterlimit="10" d="M423.93 52.5h-97.359"/><circle fill="#4160AC" cx="423.794" cy="52.5" r="2.707"/><circle fill="#4160AC" cx="326.707" cy="52.5" r="2.707"/><path fill="none" stroke="#4160AC" stroke-width="2" stroke-miterlimit="10" d="M426.501 86.5h-99.93"/><circle fill="#4160AC" cx="326.707" cy="86.5" r="2.707"/><path fill="none" stroke="#EE3624" stroke-width="2" stroke-miterlimit="10" d="M472.929 86.5h-48.983"/><circle fill="#EE3624" cx="472.793" cy="86.5" r="2.707"/><circle fill="#EE3624" cx="424.082" cy="86.5" r="2.707"/><path fill="none" stroke="#EE3624" stroke-width="2" stroke-miterlimit="10" d="M472.929 18.5h-48.983"/><circle fill="#EE3624" cx="472.793" cy="18.5" r="2.707"/><circle fill="#EE3624" cx="424.082" cy="18.5" r="2.707"/><path fill="none" stroke="#82BA41" stroke-width="2" stroke-miterlimit="10" d="M189 100.5h234.93"/><circle fill="#82BA41" cx="423.794" cy="100.5" r="2.707"/><path fill="none" stroke="#82BA41" stroke-width="2" stroke-miterlimit="10" d="M189 66.5h314.429"/><circle fill="#82BA41" cx="503.293" cy="66.5" r="2.707"/><path fill="none" d="M17.5 21H184v57H17.5z"/><text transform="translate(17.5 28.27)" font-family="'InputMono-Regular'" font-size="10">&lt;script&gt;</text><path fill="none" d="M14.5 55H181v57H14.5z"/><text transform="translate(14.5 62.27)" font-family="'InputMono-Regular'" font-size="10">&lt;script defer&gt;</text><path fill="none" d="M14.5 89H181v57H14.5z"/><text transform="translate(14.5 96.27)" font-family="'InputMono-Regular'" font-size="10">&lt;script async&gt;</text><path fill="#82BB41" d="M11.499 42.833H652"/><path d="M11.499 41.969h4.389v1.777h-4.389zm6.536 0h4.389v1.777h-4.389zm6.535 0h4.388v1.777H24.57zm6.537 0h4.387v1.777h-4.387zm6.535 0h4.388v1.777h-4.388zm6.536 0h4.388v1.777h-4.388zm6.535 0h4.388v1.777h-4.388zm6.536 0h4.389v1.777h-4.389zm6.536 0h4.389v1.777h-4.389zm6.535 0h4.389v1.777H70.32zm6.537 0h4.387v1.777h-4.387zm6.535 0h4.388v1.777h-4.388zm6.536 0h4.388v1.777h-4.388zm6.535 0h4.388v1.777h-4.388zm6.536 0h4.389v1.777h-4.389zm6.536 0h4.389v1.777h-4.389zm6.535 0h4.389v1.777h-4.389zm6.537 0h4.388v1.777h-4.388zm6.535 0h4.388v1.777h-4.388zm6.537 0h4.388v1.777h-4.388zm6.534 0h4.387v1.777h-4.387zm6.536 0h4.389v1.777h-4.389zm6.536 0h4.389v1.777h-4.389zm6.535 0h4.389v1.777h-4.389zm6.537 0h4.388v1.777h-4.388zm6.535 0h4.389v1.777h-4.389zm6.537 0h4.388v1.777h-4.388zm6.534 0h4.387v1.777h-4.387zm6.537 0h4.388v1.777H194.5zm6.535 0h4.389v1.777h-4.389zm6.535 0h4.389v1.777h-4.389zm6.537 0h4.388v1.777h-4.388zm6.535 0h4.389v1.777h-4.389zm6.537 0h4.388v1.777h-4.388zm6.534 0h4.388v1.777h-4.388zm6.537 0h4.388v1.777h-4.388zm6.535 0h4.388v1.777h-4.388zm6.535 0h4.388v1.777h-4.388zm6.537 0h4.388v1.777h-4.388zm6.535 0h4.389v1.777h-4.389zm6.537 0h4.388v1.777h-4.388zm6.534 0h4.387v1.777h-4.387zm6.536 0h4.389v1.777h-4.389zm6.536 0h4.389v1.777h-4.389zm6.535 0h4.389v1.777h-4.389zm6.537 0h4.388v1.777h-4.388zm6.535 0h4.389v1.777h-4.389zm6.537 0h4.388v1.777h-4.388zm6.535 0h4.387v1.777h-4.387zm6.536 0h4.388v1.777h-4.388zm6.535 0h4.389v1.777h-4.389zm6.535 0h4.389v1.777h-4.389zm6.537 0h4.388v1.777h-4.388zm6.535 0h4.389v1.777h-4.389zm6.537 0h4.388v1.777h-4.388zm6.535 0h4.388v1.777h-4.388zm6.536 0h4.388v1.777H377.5zm6.535 0h4.389v1.777h-4.389zm6.535 0h4.389v1.777h-4.389zm6.537 0h4.388v1.777h-4.388zm6.535 0h4.389v1.777h-4.389zm6.537 0h4.389v1.777h-4.389zm6.535 0h4.388v1.777h-4.388zm6.536 0h4.388v1.777h-4.388zm6.535 0h4.389v1.777h-4.389zm6.535 0h4.389v1.777h-4.389zm6.537 0h4.388v1.777h-4.388zm6.535 0h4.389v1.777h-4.389zm6.537 0h4.389v1.777h-4.389zm6.535 0h4.388v1.777h-4.388zm6.536 0h4.389v1.777H469zm6.535 0h4.389v1.777h-4.389zm6.535 0h4.389v1.777h-4.389zm6.537 0h4.388v1.777h-4.388zm6.536 0h4.388v1.777h-4.388zm6.536 0h4.389v1.777h-4.389zm6.535 0h4.388v1.777h-4.388zm6.536 0h4.389v1.777h-4.389zm6.535 0h4.389v1.777h-4.389zm6.535 0h4.389v1.777h-4.389zm6.537 0h4.388v1.777h-4.388zm6.536 0h4.388v1.777h-4.388zm6.536 0h4.389v1.777h-4.389zm6.535 0h4.388v1.777h-4.388zm6.536 0h4.389v1.777H560.5zm6.535 0h4.389v1.777h-4.389zm6.535 0h4.389v1.777h-4.389zm6.537 0h4.388v1.777h-4.388zm6.536 0h4.388v1.777h-4.388zm6.537 0h4.388v1.777h-4.388zm6.534 0h4.388v1.777h-4.388zm6.536 0h4.389v1.777h-4.389zm6.535 0h4.389v1.777h-4.389zm6.535 0h4.389v1.777h-4.389zm6.537 0h4.388v1.777h-4.388zm6.536 0h4.389v1.777h-4.389zm6.537 0h4.388v1.777h-4.388zm6.534 0h4.388v1.777h-4.388z" fill="#82BA41"/><path fill="#82BB41" d="M11.499 76.834h644.335"/><path d="M11.499 75.97h4.415v1.777h-4.415zm6.575 0h4.415v1.777h-4.415zm6.574 0h4.415v1.777h-4.415zm6.576 0h4.414v1.777h-4.414zm6.574 0h4.415v1.777h-4.415zm6.576 0h4.414v1.777h-4.414zm6.574 0h4.414v1.777h-4.414zm6.575 0h4.415v1.777h-4.415zm6.575 0h4.415v1.777h-4.415zm6.574 0h4.415v1.777h-4.415zm6.576 0h4.414v1.777h-4.414zm6.574 0h4.415v1.777h-4.415zm6.576 0h4.414v1.777h-4.414zm6.574 0h4.414v1.777h-4.414zm6.575 0h4.415v1.777h-4.415zm6.575 0h4.415v1.777h-4.415zm6.574 0h4.415v1.777h-4.415zm6.576 0h4.414v1.777h-4.414zm6.574 0h4.415v1.777h-4.415zm6.576 0h4.414v1.777h-4.414zm6.574 0h4.414v1.777h-4.414zm6.575 0h4.415v1.777h-4.415zm6.575 0h4.415v1.777h-4.415zm6.574 0h4.415v1.777h-4.415zm6.576 0h4.414v1.777h-4.414zm6.574 0h4.415v1.777h-4.415zm6.576 0h4.414v1.777h-4.414zm6.574 0h4.414v1.777h-4.414zm6.575 0h4.415v1.777h-4.415zm6.574 0h4.415v1.777h-4.415zm6.575 0h4.415v1.777h-4.415zm6.576 0h4.414v1.777h-4.414zm6.574 0h4.415v1.777h-4.415zm6.576 0h4.414v1.777h-4.414zm6.573 0h4.414v1.777h-4.414zm6.576 0h4.415v1.777h-4.415zm6.574 0h4.415v1.777h-4.415zm6.575 0h4.415v1.777h-4.415zm6.576 0h4.414v1.777h-4.414zm6.573 0h4.415v1.777h-4.415zm6.577 0h4.414v1.777h-4.414zm6.573 0h4.414v1.777h-4.414zm6.576 0h4.415v1.777h-4.415zm6.574 0h4.415v1.777h-4.415zm6.575 0h4.414v1.777h-4.414zm6.575 0h4.414v1.777h-4.414zm6.574 0h4.415v1.777h-4.415zm6.577 0h4.414v1.777h-4.414zm6.574 0h4.413v1.777h-4.413zm6.574 0h4.415v1.777h-4.415zm6.575 0h4.415v1.777h-4.415zm6.574 0h4.415v1.777h-4.415zm6.577 0h4.414v1.777h-4.414zm6.574 0h4.414v1.777h-4.414zm6.575 0h4.415v1.777h-4.415zm6.574 0h4.414v1.777h-4.414zm6.575 0h4.415v1.777h-4.415zm6.576 0h4.414v1.777h-4.414zm6.574 0h4.414v1.777h-4.414zm6.576 0h4.413v1.777h-4.413zm6.573 0h4.415v1.777h-4.415zm6.576 0h4.414v1.777h-4.414zm6.574 0h4.414v1.777h-4.414zm6.576 0h4.414v1.777h-4.414zm6.574 0h4.415v1.777h-4.415zm6.574 0h4.415v1.777h-4.415zm6.576 0h4.414v1.777h-4.414zm6.575 0h4.414v1.777h-4.414zm6.576 0h4.414v1.777h-4.414zm6.573 0h4.414v1.777h-4.414zm6.575 0h4.415v1.777h-4.415zm6.574 0h4.415v1.777h-4.415zm6.575 0h4.415v1.777h-4.415zm6.576 0h4.414v1.777h-4.414zm6.574 0h4.415v1.777h-4.415zm6.576 0h4.414v1.777h-4.414zm6.575 0h4.413v1.777h-4.413zm6.574 0h4.415v1.777h-4.415zm6.575 0h4.415v1.777h-4.415zm6.574 0h4.415v1.777h-4.415zm6.576 0h4.414v1.777h-4.414zm6.574 0h4.415v1.777h-4.415zm6.576 0h4.415v1.777h-4.415zm6.574 0h4.414v1.777h-4.414zm6.575 0h4.415v1.777h-4.415zm6.575 0h4.414v1.777h-4.414zm6.575 0h4.414v1.777h-4.414zm6.576 0h4.413v1.777h-4.413zm6.573 0h4.415v1.777h-4.415zm6.576 0h4.414v1.777h-4.414zm6.573 0h4.414v1.777h-4.414zm6.577 0h4.414v1.777h-4.414zm6.574 0h4.415v1.777h-4.415zm6.574 0h4.415v1.777h-4.415zm6.576 0h4.414v1.777h-4.414zm6.574 0h4.414v1.777h-4.414zm6.577 0h4.414v1.777h-4.414zm6.573 0h4.414v1.777h-4.414z" fill="#82BA41"/><path fill="none" stroke="#82BA41" stroke-width="2" stroke-miterlimit="10" d="M649.429 32.5H472.871"/><circle fill="#82BA41" cx="649.293" cy="32.5" r="2.707"/><circle fill="#82BA41" cx="473.007" cy="32.5" r="2.707"/><path fill="none" stroke="#EE3624" stroke-width="2" stroke-miterlimit="10" d="M552.429 52.5h-48.983"/><circle fill="#EE3624" cx="552.293" cy="52.5" r="2.707"/><circle fill="#EE3624" cx="503.582" cy="52.5" r="2.707"/><path fill="none" stroke="#82BA41" stroke-width="2" stroke-miterlimit="10" d="M552.054 100.5h-79.483"/><circle fill="#82BA41" cx="551.918" cy="100.5" r="2.707"/><circle fill="#82BA41" cx="472.707" cy="100.5" r="2.707"/></svg>