<svg width="470" height="161" viewBox="0 0 470 161" xmlns="http://www.w3.org/2000/svg"><title>setInterval</title><g fill="none" fill-rule="evenodd"><g stroke="#000"><path d="M.5 117.5h448.03" stroke-width="4"/><path stroke-width="4" fill="#E6E6E6" fill-rule="nonzero" d="M456.03 117.5l-10 5 2.5-5-2.5-5z"/><path d="M21.5 118v10m81-10v10m80-10v10m80-10v10m80-10v10" stroke-width="2"/></g><g font-size="28" font-family="Helvetica" fill="#000"><text transform="translate(418 132)"><tspan x=".5" y="28">time</tspan></text><text transform="translate(333 132)"><tspan x="0" y="28">4</tspan></text><text transform="translate(255 132)"><tspan x="0" y="28">3</tspan></text><text transform="translate(174 132)"><tspan x="0" y="28">2</tspan></text><text transform="translate(93 132)"><tspan x="0" y="28">1</tspan></text><text transform="translate(12 132)"><tspan x="0" y="28">0</tspan></text></g><path fill="#00F" fill-rule="nonzero" d="M341.5 95h26v20h-26z"/><path d="M355.5 23.5v65m0 0l3-10.8h-6l3 10.8z" stroke="#979797" stroke-linecap="square"/><text font-family="ArialMT, Arial" font-size="20" fill="#000" transform="translate(340 -3)"><tspan x="0" y="18">cb()</tspan></text><path fill="#00F" fill-rule="nonzero" d="M262.5 95h26v20h-26z"/><path d="M276.5 23.5v65m0 0l3-10.8h-6l3 10.8z" stroke="#979797" stroke-linecap="square"/><text font-family="ArialMT, Arial" font-size="20" fill="#000" transform="translate(261 -3)"><tspan x="0" y="18">cb()</tspan></text><path d="M196 52v37m0 0l3-10.8h-6l3 10.8z" stroke="#979797" stroke-linecap="square"/><text font-family="ArialMT, Arial" font-size="20" fill="#000" transform="translate(180 26)"><tspan x="0" y="18">cb()</tspan></text><path fill="#00F" fill-rule="nonzero" d="M181.5 95h26v20h-26z"/><path fill="#95FFFF" fill-rule="nonzero" d="M119 95h56v20h-56z"/><text font-family="ArialMT, Arial" font-size="15" fill="#000" transform="translate(0 -3)"><tspan x="136" y="113">f2()</tspan></text><path fill="#00F" fill-rule="nonzero" d="M101.5 95h11v20h-11z"/><path d="M107.5 23.5v65m0 0l3-10.8h-6l3 10.8z" stroke="#979797" stroke-linecap="square"/><text font-family="ArialMT, Arial" font-size="20" fill="#000" transform="translate(0 -3)"><tspan x="25" y="18">setInterval(cb, 1000)</tspan></text><path fill="#95FFFF" fill-rule="nonzero" d="M20.5 95H95v20H20.5z"/><text font-family="ArialMT, Arial" font-size="15" fill="#000" transform="translate(0 -3)"><tspan x="50" y="113">f1()</tspan></text></g></svg>