<svg width="526" height="161" viewBox="0 0 526 161" xmlns="http://www.w3.org/2000/svg"><title>setTimeout-desicion</title><g fill="none" fill-rule="evenodd"><g stroke="#000"><path d="M56.5 117.5h448.03" stroke-width="4"/><path stroke-width="4" fill="#E6E6E6" fill-rule="nonzero" d="M512.03 117.5l-10 5 2.5-5-2.5-5z"/><path d="M77.5 118v10m81-10v10m80-10v10m80-10v10m80-10v10" stroke-width="2"/></g><g font-size="28" font-family="Helvetica" fill="#000"><text transform="translate(474 132)"><tspan x=".5" y="28">time</tspan></text><text transform="translate(389 132)"><tspan x="0" y="28">4</tspan></text><text transform="translate(311 132)"><tspan x="0" y="28">3</tspan></text><text transform="translate(230 132)"><tspan x="0" y="28">2</tspan></text><text transform="translate(149 132)"><tspan x="0" y="28">1</tspan></text><text transform="translate(68 132)"><tspan x="0" y="28">0</tspan></text></g><path fill="#95FFFF" fill-rule="nonzero" d="M360 95h50v20h-50z"/><text font-family="ArialMT, Arial" font-size="15" fill="#000" transform="translate(0 -3)"><tspan x="372" y="113">f5()</tspan></text><path d="M242 43l139.5 45.5m0 0l-9.337-6.201-1.86 5.704 11.197.497zM242 43l24.5 45.5m0 0l-2.479-10.931-5.283 2.844L266.5 88.5zM242 43l-29.5 45.5m0 0l8.393-7.43-5.035-3.264L212.5 88.5zM242 43l82.5 45.5m0 0l-8.008-7.843-2.898 5.254L324.5 88.5zM242 43L128.5 88.5m0 0l11.14-1.234-2.232-5.57L128.5 88.5z" stroke-linecap="square" stroke="#979797"/><text font-family="ArialMT, Arial" font-size="15" fill="#000" transform="translate(0 -3)"><tspan x="211" y="41">hardWork</tspan></text><path fill="#95FFFF" fill-rule="nonzero" d="M306 95h50v20h-50z"/><text font-family="ArialMT, Arial" font-size="15" fill="#000" transform="translate(0 -3)"><tspan x="319" y="113">f4()</tspan></text><path fill="#95FFFF" fill-rule="nonzero" d="M233 95h68v20h-68z"/><text font-family="ArialMT, Arial" font-size="15" fill="#000" transform="translate(0 -3)"><tspan x="256" y="113">f3()</tspan></text><path fill="#95FFFF" fill-rule="nonzero" d="M195 95h34v20h-34z"/><text font-family="ArialMT, Arial" font-size="15" fill="#000" transform="translate(0 -3)"><tspan x="201" y="113">f2()</tspan></text><path fill="#00F" fill-rule="nonzero" d="M158 95h32v20h-32z"/><path d="M175 49v40m0 0l3-10.8h-6l3 10.8z" stroke="#979797" stroke-linecap="square"/><text font-family="ArialMT, Arial" font-size="20" fill="#000" transform="translate(0 -3)"><tspan x="159" y="44">cb()</tspan></text><path fill="#95FFFF" fill-rule="nonzero" d="M94 95h57v20H94z"/><text font-family="ArialMT, Arial" font-size="15" fill="#000" transform="translate(0 -3)"><tspan x="112" y="113">f1()</tspan></text><path fill="#00F" fill-rule="nonzero" d="M77 95h11v20H77z"/><path d="M83 24v65m0 0l3-10.8h-6L83 89z" stroke="#979797" stroke-linecap="square"/><text font-family="ArialMT, Arial" font-size="20" fill="#000" transform="translate(0 -3)"><tspan x="0" y="18">setTimeout(cb, 1000)</tspan></text></g></svg>