<svg width="526" height="161" viewBox="0 0 526 161" xmlns="http://www.w3.org/2000/svg"><title>setTimeout-trouble</title><g fill="none" fill-rule="evenodd"><g stroke="#000"><path d="M56.5 117.5h448.03" stroke-width="4"/><path stroke-width="4" fill="#E6E6E6" fill-rule="nonzero" d="M512.03 117.5l-10 5 2.5-5-2.5-5z"/><path d="M77.5 118v10m81-10v10m80-10v10m80-10v10m80-10v10" stroke-width="2"/></g><g font-size="28" font-family="Helvetica" fill="#000"><text transform="translate(474 132)"><tspan x=".5" y="28">time</tspan></text><text transform="translate(389 132)"><tspan x="0" y="28">4</tspan></text><text transform="translate(311 132)"><tspan x="0" y="28">3</tspan></text><text transform="translate(230 132)"><tspan x="0" y="28">2</tspan></text><text transform="translate(149 132)"><tspan x="0" y="28">1</tspan></text><text transform="translate(68 132)"><tspan x="0" y="28">0</tspan></text></g><path fill="#00F" fill-rule="nonzero" d="M334.5 95h32v20h-32z"/><path d="M350.5 23.5v65m0 0l3-10.8h-6l3 10.8z" stroke="#979797" stroke-linecap="square"/><text font-family="ArialMT, Arial" font-size="20" fill="#000" transform="translate(0 -3)"><tspan x="335" y="18">cb()</tspan></text><text font-family="AppleColorEmoji, Apple Color Emoji" font-size="25" fill="#000" transform="translate(0 -3)"><tspan x="154" y="90">⏰</tspan></text><path fill="#F00" fill-rule="nonzero" d="M92 95h238v20H92z"/><text font-family="ArialMT, Arial" font-size="15" fill="#000" transform="translate(0 -3)"><tspan x="199" y="113">hardWork()</tspan></text><path fill="#00F" fill-rule="nonzero" d="M76.5 95h11v20h-11z"/><path d="M82.5 23.5v65m0 0l3-10.8h-6l3 10.8z" stroke="#979797" stroke-linecap="square"/><text font-family="ArialMT, Arial" font-size="20" fill="#000" transform="translate(0 -3)"><tspan x="0" y="18">setTimeout(cb, 1000)</tspan></text></g></svg>